<!-- lissajous.svg -->
<!-- Generated using p5.plotSvg v.0.1.5: -->
<!-- A Plotter-Oriented SVG Exporter for p5.js -->
<!-- Wed Aug 27 2025 10:49:12 GMT-0400 (Eastern Daylight Time) -->
<!-- DPI: 96 -->
<svg xmlns="http://www.w3.org/2000/svg" version="1.1" width="11in" height="8.5in" viewBox="0 0 1056 816">
  <style>
      circle, ellipse, line, path, polygon, polyline, rect, quad, text {
        fill: none;
        stroke: black;
        stroke-width: 1;
        stroke-linecap: round;
        stroke-linejoin: round;
        vector-effect: non-scaling-stroke;
      }
    </style>
<g vector-effect="non-scaling-stroke">
  <polyline points="528,672 609.5805,643.2257 683.1753,563.1753 741.5805,449.2987 779.0789,326.4195 792,221.3238 779.0789,156.9211 741.5805,147.2503 683.1753,194.4195 609.5805,288.1465 528,408.0000 446.4195,527.8535 372.8247,621.5805 314.4195,668.7497 276.9211,659.0789 264,594.6762 276.9211,489.5805 314.4195,366.7013 372.8247,252.8247 446.4195,172.7743 528.0000,144 609.5805,172.7743 683.1753,252.8247 741.5805,366.7013 779.0789,489.5805 792,594.6762 779.0789,659.0789 741.5805,668.7497 683.1753,621.5805 609.5805,527.8535 528.0000,408.0000 446.4195,288.1465 372.8247,194.4195 314.4195,147.2503 276.9211,156.9211 264,221.3238 276.9211,326.4195 314.4195,449.2987 372.8247,563.1753 446.4195,643.2257 528.0000,672"/>
</g>
</svg>