<!-- test_ansi-b_portrait.svg -->
<!-- Generated using p5.plotSvg v.0.1.8: -->
<!-- A Plotter-Oriented SVG Exporter for p5.js -->
<!-- Mon May 11 2026 04:00:59 GMT-0400 (Eastern Daylight Time) -->
<!-- DPI: 96 -->
<svg xmlns="http://www.w3.org/2000/svg" xmlns:inkscape="http://www.inkscape.org/namespaces/inkscape" version="1.1" inkscape:version="1.4" width="11in" height="17in" viewBox="0 0 1056 1632">
  <style>
      circle, ellipse, line, path, polygon, polyline, rect, quad, text {
        fill: none;
        stroke: black;
        stroke-width: 1;
        stroke-linecap: round;
        stroke-linejoin: round;
        vector-effect: non-scaling-stroke;
      }
    </style>
<polygon points="528,1056 544.7416,1054.6853 561.4015,1050.7554 577.8988,1044.2536 594.1530,1035.2509 610.0848,1023.8461 625.6168,1010.1641 640.6732,994.3548 655.1806,976.5913 669.0685,957.0685 682.2690,936 694.7180,913.6168 706.3548,890.1641 717.1226,865.8988 726.9690,841.0868 735.8461,816 743.7106,790.9132 750.5241,766.1012 756.2536,741.8359 760.8710,718.3832 764.3539,696 766.6853,674.9315 767.8538,655.4087 767.8538,637.6452 766.6853,621.8359 764.3539,608.1539 760.8710,596.7491 756.2536,587.7464 750.5241,581.2446 743.7106,577.3147 735.8461,576 726.9690,577.3147 717.1226,581.2446 706.3548,587.7464 694.7180,596.7491 682.2690,608.1539 669.0685,621.8359 655.1806,637.6452 640.6732,655.4087 625.6168,674.9315 610.0848,696.0000 594.1530,718.3832 577.8988,741.8359 561.4015,766.1012 544.7416,790.9132 528,816 511.2584,841.0868 494.5985,865.8988 478.1012,890.1641 461.8470,913.6168 445.9152,936 430.3832,957.0685 415.3268,976.5913 400.8194,994.3548 386.9315,1010.1641 373.7310,1023.8461 361.2820,1035.2509 349.6452,1044.2536 338.8774,1050.7554 329.0310,1054.6853 320.1539,1056 312.2894,1054.6853 305.4759,1050.7554 299.7464,1044.2536 295.1290,1035.2509 291.6461,1023.8461 289.3147,1010.1641 288.1462,994.3548 288.1462,976.5913 289.3147,957.0685 291.6461,936.0000 295.1290,913.6168 299.7464,890.1641 305.4759,865.8988 312.2894,841.0868 320.1539,816.0000 329.0310,790.9132 338.8774,766.1012 349.6452,741.8359 361.2820,718.3832 373.7310,696.0000 386.9315,674.9315 400.8194,655.4087 415.3268,637.6452 430.3832,621.8359 445.9152,608.1539 461.8470,596.7491 478.1012,587.7464 494.5985,581.2446 511.2584,577.3147 528.0000,576 544.7416,577.3147 561.4015,581.2446 577.8988,587.7464 594.1530,596.7491 610.0848,608.1539 625.6168,621.8359 640.6732,637.6452 655.1806,655.4087 669.0685,674.9315 682.2690,696 694.7180,718.3832 706.3548,741.8359 717.1226,766.1012 726.9690,790.9132 735.8461,816.0000 743.7106,841.0868 750.5241,865.8988 756.2536,890.1641 760.8710,913.6168 764.3539,936.0000 766.6853,957.0685 767.8538,976.5913 767.8538,994.3548 766.6853,1010.1641 764.3539,1023.8461 760.8710,1035.2509 756.2536,1044.2536 750.5241,1050.7554 743.7106,1054.6853 735.8461,1056 726.9690,1054.6853 717.1226,1050.7554 706.3548,1044.2536 694.7180,1035.2509 682.2690,1023.8461 669.0685,1010.1641 655.1806,994.3548 640.6732,976.5913 625.6168,957.0685 610.0848,936 594.1530,913.6168 577.8988,890.1641 561.4015,865.8988 544.7416,841.0868 528.0000,816.0000 511.2584,790.9132 494.5985,766.1012 478.1012,741.8359 461.8470,718.3832 445.9152,696.0000 430.3832,674.9315 415.3268,655.4087 400.8194,637.6452 386.9315,621.8359 373.7310,608.1539 361.2820,596.7491 349.6452,587.7464 338.8774,581.2446 329.0310,577.3147 320.1539,576 312.2894,577.3147 305.4759,581.2446 299.7464,587.7464 295.1290,596.7491 291.6461,608.1539 289.3147,621.8359 288.1462,637.6452 288.1462,655.4087 289.3147,674.9315 291.6461,696.0000 295.1290,718.3832 299.7464,741.8359 305.4759,766.1012 312.2894,790.9132 320.1539,816.0000 329.0310,841.0868 338.8774,865.8988 349.6452,890.1641 361.2820,913.6168 373.7310,936.0000 386.9315,957.0685 400.8194,976.5913 415.3268,994.3548 430.3832,1010.1641 445.9152,1023.8461 461.8470,1035.2509 478.1012,1044.2536 494.5985,1050.7554 511.2584,1054.6853"/>
<rect x="60" y="60" width="936" height="1512"/>
<g inkscape:groupmode="layer" inkscape:label="1">
  <polyline points="87.2000,68 67.2000,68"/>
  <polyline points="77.2000,68 77.2000,98"/>
  <polyline points="112.2000,93 107.2000,98 97.2000,98 92.2000,93 92.2000,83 97.2000,78 107.2000,78 112.2000,83 112.2000,93"/>
  <polyline points="117.2000,108 117.2000,78"/>
  <polyline points="117.2000,83 122.2000,78 132.2000,78 137.2000,83 137.2000,93 132.2000,98 117.2000,98"/>
  <polyline points="182.2000,98 162.2000,98 162.2000,68"/>
  <polyline points="202.2000,98 192.2000,98 187.2000,93 187.2000,83 192.2000,78 202.2000,78 207.2000,83 202.2000,88 187.2000,88"/>
  <polyline points="217.2000,98 217.2000,73 222.2000,68 227.2000,68 232.2000,73"/>
  <polyline points="227.2000,83 212.2000,83"/>
  <polyline points="257.2000,93 252.2000,98 247.2000,93 247.2000,68"/>
  <polyline points="257.2000,78 237.2000,78"/>
  </g>
<g inkscape:groupmode="layer" inkscape:label="2">
  <line x1="156" y1="1572" x2="156" y2="1548"/>
  <line x1="252" y1="1572" x2="252" y2="1548"/>
  <line x1="348" y1="1572" x2="348" y2="1548"/>
  <line x1="444" y1="1572" x2="444" y2="1548"/>
  <line x1="540" y1="1572" x2="540" y2="1548"/>
  <line x1="636" y1="1572" x2="636" y2="1548"/>
  <line x1="732" y1="1572" x2="732" y2="1548"/>
  <line x1="828" y1="1572" x2="828" y2="1548"/>
  <line x1="924" y1="1572" x2="924" y2="1548"/>
  <line x1="996" y1="156" x2="972" y2="156"/>
  <line x1="996" y1="252" x2="972" y2="252"/>
  <line x1="996" y1="348" x2="972" y2="348"/>
  <line x1="996" y1="444" x2="972" y2="444"/>
  <line x1="996" y1="540" x2="972" y2="540"/>
  <line x1="996" y1="636" x2="972" y2="636"/>
  <line x1="996" y1="732" x2="972" y2="732"/>
  <line x1="996" y1="828" x2="972" y2="828"/>
  <line x1="996" y1="924" x2="972" y2="924"/>
  <line x1="996" y1="1020" x2="972" y2="1020"/>
  <line x1="996" y1="1116" x2="972" y2="1116"/>
  <line x1="996" y1="1212" x2="972" y2="1212"/>
  <line x1="996" y1="1308" x2="972" y2="1308"/>
  <line x1="996" y1="1404" x2="972" y2="1404"/>
  <line x1="996" y1="1500" x2="972" y2="1500"/>
  </g>
</svg>