<?xml version="1.0" encoding="utf-8" ?>
<svg xmlns="http://www.w3.org/2000/svg" xmlns:cc="http://creativecommons.org/ns#" xmlns:dc="http://purl.org/dc/elements/1.1/" xmlns:ev="http://www.w3.org/2001/xml-events" xmlns:inkscape="http://www.inkscape.org/namespaces/inkscape" xmlns:rdf="http://www.w3.org/1999/02/22-rdf-syntax-ns#" xmlns:sodipodi="http://sodipodi.sourceforge.net/DTD/sodipodi-0.dtd" xmlns:xlink="http://www.w3.org/1999/xlink" baseProfile="tiny" height="22.86cm" version="1.2" viewBox="0 0 1152.0 864.0" width="30.48cm">
  <metadata>
    <rdf:RDF>
      <cc:Work>
        <dc:format>image/svg+xml</dc:format>
        <dc:source/>
        <dc:date>2021-10-05T21:46:18.094700</dc:date>
      </cc:Work>
    </rdf:RDF>
  </metadata>
  <defs/>
  <g fill="none" id="layer3.0" inkscape:groupmode="layer" inkscape:label="3" stroke="#00f" style="display:inline">
    <line x1="726.9805" x2="727.0707" y1="288.0" y2="289.0196"/>
    <line x1="728.8415" x2="728.9215" y1="290.3556" y2="288.0"/>
    <polyline points="732.8687,288.0 732.621,289.1875 732.4199,292.8399"/>
    <line x1="730.3194" x2="730.7513" y1="291.625" y2="288.0"/>
    <line x1="730.7513" x2="730.3194" y1="288.0" y2="291.625"/>
    <line x1="735.5008" x2="735.062" y1="294.0162" y2="288.0"/>
    <line x1="737.8265" x2="739.0418" y1="288.0" y2="295.1725"/>
    <line x1="744.1976" x2="742.4177" y1="297.5044" y2="307.8146"/>
    <polyline points="739.9774,308.7041 742.1106,296.3286 740.4971,288.0"/>
    <line x1="751.6349" x2="750.1852" y1="291.8016" y2="301.3218"/>
    <line x1="747.4541" x2="747.5253" y1="299.987" y2="303.471"/>
    <line x1="744.934" x2="745.6728" y1="305.9421" y2="298.7186"/>
    <polyline points="753.6591,302.7305 752.9026,300.1267 753.0997,293.3511"/>
    <polyline points="754.9361,294.8265 755.6625,299.6633 757.0035,304.2154"/>
    <polyline points="759.4621,305.7738 758.4468,299.0539 757.7384,296.2256"/>
    <polyline points="764.5351,298.8123 763.2832,306.9567 762.6304,309.0744"/>
    <polygon points="761.072,307.3977 761.2359,297.5515"/>
    <polyline points="764.9807,310.7879 765.5104,306.3011 766.9202,300.0207"/>
    <polyline points="768.0,303.6123 767.7726,304.7254 768.0,308.384"/>
    <line x1="761.6006" x2="761.6006" y1="330.9753" y2="330.9753"/>
    <line x1="759.3233" x2="759.6142" y1="331.6567" y2="329.2638"/>
    <line x1="756.6429" x2="756.9899" y1="327.5903" y2="333.2706"/>
    <line x1="754.5889" x2="753.1087" y1="335.6644" y2="325.9707"/>
    <line x1="749.938" x2="752.1133" y1="324.4173" y2="337.9868"/>
    <line x1="749.5614" x2="749.0774" y1="339.4504" y2="336.6509"/>
    <line x1="745.5374" x2="746.937" y1="335.2411" y2="340.0372"/>
    <line x1="744.2485" x2="742.4247" y1="340.5143" y2="333.755"/>
    <line x1="740.2882" x2="741.5092" y1="332.1956" y2="341.7473"/>
    <line x1="731.3766" x2="730.926" y1="336.7829" y2="325.4479"/>
    <polyline points="727.5515,323.7186 728.1428,325.9894 729.5804,335.628 729.1352,339.2301"/>
    <polyline points="726.8508,340.9978 726.8296,334.4701 725.3854,327.3684 725.0396,322.0115"/>
    <polyline points="723.4008,320.3447 722.6716,329.6424 724.5084,341.7954"/>
    <polyline points="722.097,342.2014 720.0163,332.0676 721.864,318.7339 720.3687,309.2317 721.415,295.5139"/>
    <polyline points="719.1686,297.4732 717.4155,307.8165 717.6586,310.4038 719.5663,317.1906"/>
    <line x1="721.864" x2="720.3687" y1="318.7339" y2="309.2317"/>
    <line x1="723.9004" x2="724.152" y1="310.5727" y2="318.1534"/>
    <line x1="726.3958" x2="727.0864" y1="317.6721" y2="311.8464"/>
    <line x1="729.3124" x2="728.6132" y1="313.0647" y2="316.4283"/>
    <line x1="730.8238" x2="730.8238" y1="314.2432" y2="314.2432"/>
    <polyline points="716.3265,315.7218 715.0079,310.8594 715.4467,306.3249 716.8768,299.9553"/>
    <polyline points="714.5252,302.0299 712.427,311.4833 712.8074,314.3293"/>
    <polyline points="709.9216,313.0094 712.1035,303.1315 709.9998,290.3237"/>
    <polyline points="707.6002,289.1518 707.4241,292.8081 709.2452,301.4509"/>
    <line x1="712.1035" x2="712.1035" y1="303.1315" y2="303.1315"/>
    <polyline points="705.7324,299.7351 704.9241,294.8225 706.019,288.0"/>
    <polyline points="704.1853,288.0 702.4997,295.8555 702.4723,298.003"/>
    <line x1="698.5973" x2="699.3333" y1="294.5697" y2="288.0"/>
    <polyline points="696.5149,288.0 696.6689,288.576 696.9747,292.9065"/>
    <line x1="694.4922" x2="693.7788" y1="291.3002" y2="288.0"/>
    <line x1="691.0379" x2="691.1339" y1="288.0" y2="289.7621"/>
    <line x1="688.3443" x2="687.6688" y1="291.5052" y2="288.2988"/>
    <line x1="685.0548" x2="685.5665" y1="288.0" y2="293.9452"/>
    <line x1="682.8197" x2="683.1114" y1="296.1896" y2="288.0"/>
    <polyline points="643.2919,288.0 644.5615,294.09 644.0775,297.3834"/>
    <polyline points="645.5374,298.6231 646.937,292.957 646.7261,288.6348 646.5587,288.0"/>
    <polyline points="649.239,288.0 649.6068,290.28 647.4247,299.9236"/>
    <polyline points="650.2881,301.2948 651.5092,291.8639 651.3009,288.0"/>
    <line x1="651.3009" x2="651.5092" y1="288.0" y2="291.8639"/>
    <polyline points="652.9685,293.3767 653.7355,290.2972 653.8544,288.0"/>
    <line x1="655.9979" x2="654.9169" y1="288.0" y2="294.8137"/>
    <line x1="657.8484" x2="658.0905" y1="296.1753" y2="288.0"/>
    <line x1="660.6884" x2="661.3765" y1="288.0" y2="297.4672"/>
    <line x1="664.5804" x2="664.1352" y1="298.6998" y2="295.0631"/>
    <line x1="666.8508" x2="666.8296" y1="292.7549" y2="299.8879"/>
    <line x1="668.3488" x2="669.5083" y1="301.049" y2="291.3171"/>
    <line x1="672.097" x2="670.0164" y1="290.7448" y2="302.2029"/>
    <line x1="680.1211" x2="681.2745" y1="297.5209" y2="288.0"/>
    <polygon points="701.6108,288.0 700.1457,296.2746"/>
    <polyline points="474.2311,288.0 474.5475,290.4072 472.4196,299.8562 474.6007,313.5847 474.4449,316.2739"/>
    <polyline points="476.0389,317.8526 477.1084,311.5566 476.2682,304.3714 474.9851,298.7616 475.4992,294.4414 476.913,288.8735 476.8942,288.0"/>
    <polyline points="478.9373,288.0 477.4197,296.0783 477.622,298.3286 479.547,305.6818 479.5403,309.0722 477.6111,319.3597"/>
    <polyline points="479.9925,320.7908 481.901,307.0641 480.3208,297.6522 481.1429,288.0"/>
    <polyline points="481.1429,288.0 480.3208,297.6522 481.901,307.0641 479.9925,320.7908 482.1061,330.2543"/>
    <polyline points="484.0039,331.8519 484.5327,329.6405 482.6341,318.7032 483.4611,308.5224 484.2002,306.038 483.8432,299.1541 483.0678,296.0455 482.9643,288.0"/>
    <polyline points="485.0948,288.0 487.0712,300.5798 486.4519,305.6202 485.069,310.0557 485.3369,316.2223 486.7878,323.4337 486.8887,329.1796 485.4634,333.5082"/>
    <polyline points="487.4165,335.2084 489.1841,327.9915 489.5937,324.6624 487.5238,311.6579 489.3528,301.9307 488.6354,291.3284 487.8829,288.3191"/>
    <polyline points="491.4167,289.8575 490.8835,303.2131 490.866,313.3178 491.433,325.8477 490.3531,336.9347 491.8762,348.3891"/>
    <polyline points="493.4202,349.5558 494.1677,346.1251 493.8821,338.6674 493.1055,336.4469"/>
    <line x1="490.3531" x2="490.3531" y1="336.9347" y2="336.9347"/>
    <polyline points="495.8863,335.1868 497.0819,340.3866 495.0487,350.7547"/>
    <polyline points="497.5423,352.0026 498.6325,344.2293 499.3256,342.0731 498.676,332.9903"/>
    <polyline points="501.4545,330.5318 500.8429,343.7099 500.9067,353.3131"/>
    <polyline points="490.0083,360.5753 492.1003,370.9778 489.9194,384.1007 492.0484,393.7422 490.1088,407.4012"/>
    <polyline points="488.5348,405.8837 489.4144,395.9842 487.4842,384.6028 489.6087,373.4441 489.2612,369.7818 487.4272,360.98 487.5883,358.8545"/>
    <polyline points="485.9979,357.1215 484.9215,361.9091 485.7533,368.6166 487.0412,375.6134 486.5366,380.7638 485.1205,385.1557 485.2652,391.2011 486.7181,398.4253 486.9427,404.2956"/>
    <polyline points="484.5192,402.647 482.4294,390.0079 482.8189,386.5568 484.61,379.0415 484.4025,376.8354 482.4794,367.4629 482.4916,363.8231 484.4224,355.3964"/>
    <polyline points="482.0337,353.6988 480.1326,366.3006 481.7022,377.3084"/>
    <polyline points="478.1784,375.5846 477.8349,368.4152 478.5757,365.1102 479.3903,354.6931 477.4993,345.2952 478.0321,342.3626"/>
    <polyline points="476.5724,341.0015 475.145,345.9956 475.2357,350.4532 476.6861,356.6716 476.964,363.8741 475.5843,369.5659 474.9557,373.8896"/>
    <polyline points="472.6813,372.2408 473.3635,370.0147 474.5019,362.578 472.4368,348.9302 474.613,339.5649"/>
    <polyline points="471.6697,338.0526 470.6032,347.4826 471.1554,361.2117 471.1533,370.6525"/>
    <line x1="471.1554" x2="471.1554" y1="361.2117" y2="361.2117"/>
    <line x1="480.1326" x2="480.1326" y1="366.3006" y2="366.3006"/>
    <polyline points="492.1003,370.9778 489.9194,384.1007 492.0484,393.7422"/>
    <polyline points="494.3986,395.114 494.6106,392.4145 492.824,385.6841 492.4305,382.8062 493.9669,372.2217"/>
    <polyline points="495.4283,373.5275 495.0168,380.586 497.0968,391.8976 495.9569,396.5616"/>
    <polyline points="497.5669,398.0847 499.5079,391.3616 499.5724,388.6328 497.6723,378.1359 497.4148,374.9045"/>
    <polyline points="500.3863,376.3576 501.8501,389.9939 500.0256,399.6778 502.0929,412.7413 500.0256,399.6778"/>
    <line x1="497.4341" x2="499.2908" y1="400.9326" y2="411.5053"/>
    <line x1="495.7933" x2="494.9176" y1="410.2093" y2="403.1255"/>
    <line x1="492.4772" x2="492.494" y1="405.5851" y2="408.8431"/>
    <line x1="481.1125" x2="480.6435" y1="411.4246" y2="424.4903"/>
    <line x1="477.4463" x2="479.4821" y1="422.8379" y2="410.2341"/>
    <polyline points="476.9851,409.0717 476.6514,416.0384 475.2059,421.1404"/>
    <polyline points="473.6897,419.4154 474.3635,417.2227 473.6187,407.918"/>
    <polyline points="470.1591,406.7529 472.0167,417.6824 470.1591,406.7529 471.668,394.0807 470.6052,384.0939"/>
    <polyline points="474.1398,385.3337 473.9143,393.6622 473.1376,395.773"/>
    <line x1="471.668" x2="471.668" y1="394.0807" y2="394.0807"/>
    <polyline points="469.3764,395.1103 467.4656,405.5571 467.5082,408.8375 469.446,415.9615"/>
    <polyline points="466.041,414.272 464.9271,409.9511 467.025,397.1217"/>
    <polyline points="464.6034,399.6061 464.229,403.0079 462.4215,410.3891 462.6123,412.6309"/>
    <polyline points="459.9917,411.052 462.1064,401.6311 459.9242,387.9027"/>
    <polyline points="457.791,386.5414 457.424,389.9744 459.0058,400.1784"/>
    <line x1="462.1064" x2="462.1064" y1="401.6311" y2="401.6311"/>
    <polyline points="455.4652,398.6504 454.9994,392.4568 456.3058,385.2498"/>
    <polyline points="454.5597,384.0173 452.6453,394.4192 452.4166,397.053"/>
    <line x1="448.8801" x2="449.1694" y1="393.6967" y2="385.3045"/>
    <line x1="446.416" x2="447.0814" y1="387.2018" y2="391.9704"/>
    <line x1="444.3271" x2="443.6347" y1="390.2377" y2="388.1148"/>
    <line x1="440.845" x2="440.845" y1="388.5184" y2="388.5184"/>
    <line x1="440.9046" x2="440.9046" y1="378.149" y2="378.149"/>
    <line x1="431.9134" x2="431.9134" y1="382.1189" y2="382.1189"/>
    <polyline points="429.9848,395.805 431.9134,382.1189 430.3045,372.7506 431.4898,359.1259"/>
    <polyline points="433.7144,357.7396 432.9499,360.482 433.0485,370.99 433.8229,374.2088 434.2167,381.2324 433.4823,383.6208 432.6216,393.6009 433.2686,397.1201"/>
    <polyline points="436.7726,398.3719 435.3203,391.145 435.08,385.1948 436.4713,380.8299 437.0651,375.591 434.9157,361.9133 435.925,357.1943"/>
    <polyline points="438.1419,356.6858 437.8657,363.4205 438.6143,366.3123 439.3663,376.9013 437.5148,386.8319 439.5977,399.5736"/>
    <polyline points="442.9151,401.896 443.0859,411.5959 443.862,413.8847"/>
    <polyline points="447.0766,415.5872 445.8653,410.1786 444.9146,403.0559"/>
    <polyline points="447.8992,404.2413 448.655,407.8818 449.3398,417.247"/>
    <line x1="450.8639" x2="451.435" y1="418.8489" y2="405.4701"/>
    <polyline points="440.3363,412.1573 441.4526,400.7419 440.845,388.5184 441.3968,364.9993 440.3846,355.3766"/>
    <line x1="419.9711" x2="422.112" y1="354.265" y2="366.2529"/>
    <line x1="419.1822" x2="417.4164" y1="364.5255" y2="356.6602"/>
    <line x1="414.9378" x2="415.6544" y1="358.2778" y2="362.793"/>
    <line x1="412.4491" x2="412.5339" y1="361.0755" y2="358.9616"/>
    <line x1="410.1981" x2="411.9904" y1="359.392" y2="349.4889"/>
    <polyline points="408.6302,348.1737 409.3241,351.0334 408.6784,357.7591"/>
    <polyline points="407.0119,356.19 406.6015,351.6688 405.1664,346.7862"/>
    <line x1="402.4622" x2="404.4521" y1="345.3225" y2="354.6934"/>
    <polygon points="401.0525,353.2731 400.7006,343.784"/>
    <polyline points="397.619,351.9273 398.4867,344.375 399.2202,342.1774"/>
    <line x1="397.1077" x2="394.9875" y1="340.514" y2="350.6494"/>
    <polyline points="393.2759,349.4278 394.0448,346.0752 394.0161,338.809"/>
    <polygon points="390.4753,337.0805 391.7781,348.2472"/>
    <line x1="387.4174" x2="389.5963" y1="335.3485" y2="347.0894"/>
    <polyline points="386.4456,345.9345 385.0655,338.8827 385.3422,333.6328"/>
    <polyline points="387.5958,311.7603 388.5277,304.9208 389.2511,301.8577 388.779,291.2646 388.0077,288.3578"/>
    <polyline points="385.1031,288.0 387.1024,300.5424 386.3145,305.7553 385.0029,310.1275"/>
    <polyline points="384.0,306.4109 384.0804,306.1585 384.0,300.5897"/>
    <polyline points="390.7401,303.1097 391.0116,313.4438 390.7401,303.1097 391.5486,289.9316"/>
    <line x1="403.8477" x2="402.4145" y1="288.0" y2="296.1355"/>
    <line x1="402.6903" x2="404.5796" y1="298.4332" y2="305.65"/>
    <line x1="407.1145" x2="406.1668" y1="304.462" y2="300.1334"/>
    <line x1="409.5069" x2="409.573" y1="301.7897" y2="304.0011"/>
    <line x1="411.9581" x2="411.9581" y1="303.3873" y2="303.3873"/>
    <polyline points="406.1418,310.2078 404.9469,317.4192 405.6159,323.5858"/>
    <polyline points="402.4397,321.9837 402.5532,319.3641 404.4958,308.9791"/>
    <polyline points="401.9708,307.7938 400.2261,320.3238 401.9708,307.7938 399.9521,296.7069 401.5958,288.0"/>
    <line x1="530.6266" x2="530.1201" y1="288.0" y2="291.3953"/>
    <line x1="532.4839" x2="532.6853" y1="288.9115" y2="288.0"/>
    <polyline points="542.0967,296.0598 539.9176,308.9359 542.0555,318.7604 540.0969,332.3121"/>
    <polyline points="538.5135,330.753 539.4265,321.0944 537.477,309.3816"/>
    <polyline points="535.1083,310.0263 535.2809,316.2849 536.7343,323.479 536.9311,329.1285"/>
    <polyline points="534.5277,327.4513 532.4261,315.1109 532.8026,311.5855"/>
    <line x1="530.5462" x2="531.2168" y1="313.9554" y2="325.7376"/>
    <polyline points="542.8407,310.5561 542.4343,307.7958 543.9474,297.2742"/>
    <polyline points="545.4105,298.5429 545.0259,305.6895 546.3673,312.1103"/>
    <polyline points="549.578,313.5906 547.6862,303.2108 547.4145,299.8781"/>
    <polyline points="553.9401,302.7725 554.1167,312.8333 553.3584,316.3252 552.6998,323.9696 553.3912,326.148 554.4893,335.3738 553.9095,339.0263"/>
    <polyline points="555.3766,340.2025 556.8224,333.1247 556.8577,327.8217 555.421,323.472 555.0205,317.5899 556.3554,310.365 557.0952,304.3312"/>
    <polyline points="559.2823,305.9553 558.5705,308.5078 557.5729,318.8013 559.5691,329.5333 557.4152,341.3587"/>
    <polyline points="552.0886,337.8117 550.0351,324.5281 551.8361,314.9947 550.4039,301.2871 551.8361,314.9947"/>
    <polyline points="560.9688,319.9754 560.7817,307.6323 561.3359,331.2642 560.4384,342.5148 561.8083,354.8937 560.0544,365.1271 562.079,378.3846"/>
    <polyline points="563.8709,379.9436 564.4696,376.9929 563.432,366.3917 562.7279,363.3716 563.3179,356.5676"/>
    <polyline points="565.0036,358.1877 565.4559,362.5839 566.8835,367.7219 566.794,374.7111 565.3437,381.4292"/>
    <polyline points="567.4173,382.8385 569.5567,369.1257 567.5948,359.7417"/>
    <line x1="564.0819" x2="563.9776" y1="354.0027" y2="343.6909"/>
    <line x1="567.1021" x2="566.3162" y1="344.9053" y2="352.1287"/>
    <line x1="568.5296" x2="569.2525" y1="349.6573" y2="346.1741"/>
    <polyline points="570.7419,347.5094 571.547,337.9905 570.2566,324.6838 571.949,314.5144"/>
    <polyline points="568.5466,312.8069 569.265,314.9188 568.7607,323.466"/>
    <polyline points="567.0443,322.2878 566.529,315.7339 565.1155,311.0775"/>
    <line x1="562.4897" x2="564.4056" y1="309.346" y2="321.1309"/>
    <line x1="572.4314" x2="574.2799" y1="325.957" y2="336.5601"/>
    <line x1="574.611" x2="572.4755" y1="339.5396" y2="348.9185"/>
    <polyline points="575.1398,350.404 575.2419,345.8531 576.6929,341.0145"/>
    <polyline points="578.1672,342.4131 577.5642,345.2427 578.5875,351.9628"/>
    <line x1="581.9699" x2="579.9525" y1="353.587" y2="343.7386"/>
    <line x1="576.9596" x2="575.5763" y1="334.256" y2="327.2972"/>
    <line x1="579.1138" x2="579.5738" y1="328.7117" y2="331.8491"/>
    <polyline points="582.1145,330.2025 579.9476,320.8066 581.9794,307.0854"/>
    <polyline points="583.6069,308.5053 582.5546,318.8328 584.5789,329.4982 584.13,331.7663"/>
    <polyline points="585.5942,333.3947 586.9694,329.0742 586.6775,323.5204 585.2281,316.3497 585.1517,310.0014"/>
    <polyline points="587.4693,311.5701 589.6124,324.7767 589.2937,328.0175 587.4349,335.0749"/>
    <line x1="590.2426" x2="591.564" y1="336.7904" y2="325.9817"/>
    <polyline points="593.0234,327.152 592.974,336.3489 593.7417,338.5225 594.2791,346.1926 593.566,349.692 592.5753,359.7318 593.1877,362.1461"/>
    <polyline points="589.9584,360.4387 591.9591,348.5342 590.2426,336.7904 591.564,325.9817 590.7231,313.2026"/>
    <polyline points="594.9961,305.7561 595.4728,298.581 596.8953,293.0108"/>
    <polyline points="598.4514,294.697 597.7416,297.0456 598.2988,306.9246"/>
    <line x1="601.7947" x2="600.0641" y1="308.0788" y2="296.4161"/>
    <line x1="594.5503" x2="592.6056" y1="291.3742" y2="304.5541"/>
    <line x1="591.0292" x2="591.2776" y1="303.3019" y2="289.8007"/>
    <line x1="621.2759" x2="620.4923" y1="295.5198" y2="309.1892"/>
    <line x1="623.2631" x2="622.768" y1="306.9604" y2="297.0318"/>
    <line x1="624.9288" x2="626.0515" y1="298.615" y2="304.5137"/>
    <line x1="628.8372" x2="628.062" y1="302.7478" y2="300.2595"/>
    <line x1="631.6006" x2="631.6006" y1="301.9515" y2="301.9515"/>
    <line x1="642.1133" x2="640.509" y1="296.1905" y2="288.0"/>
    <line x1="410.5048" x2="410.2439" y1="288.0" y2="289.9874"/>
    <line x1="407.4346" x2="407.5657" y1="288.7551" y2="292.3921"/>
    <line x1="404.9533" x2="405.5538" y1="294.6994" y2="288.0"/>
    <line x1="412.9756" x2="412.9779" y1="288.3464" y2="288.0"/>
    <line x1="440.5599" x2="442.061" y1="288.0" y2="295.9389"/>
    <polyline points="443.8098,297.1788 444.4362,294.0732 443.6063,288.0"/>
    <line x1="469.199" x2="468.8939" y1="289.3029" y2="288.0"/>
    <line x1="472.1104" x2="471.5552" y1="291.0357" y2="288.0"/>
    <polyline points="471.5552,288.0 472.1104,291.0357 469.9301,301.9248 472.0176,314.633"/>
    <line x1="481.901" x2="481.901" y1="307.0641" y2="307.0641"/>
    <line x1="490.8835" x2="490.8835" y1="303.2131" y2="303.2131"/>
    <line x1="501.8905" x2="500.3346" y1="307.9343" y2="320.1978"/>
    <polyline points="502.4182,321.8813 502.6324,319.3558 504.5529,309.1045"/>
    <polyline points="506.2853,310.3093 504.9914,317.5361 505.4837,323.5141"/>
    <polyline points="509.0247,325.0831 507.4214,315.0756 507.7751,311.5653"/>
    <line x1="509.9272" x2="512.1087" y1="312.8855" y2="326.5795"/>
    <polyline points="479.9239,343.6541 482.0337,353.6988 480.1326,366.3006 481.7022,377.3084 480.5655,388.8441 481.1959,400.9522 480.5655,388.8441"/>
    <polyline points="479.1038,387.6905 478.3433,391.2617 477.7101,399.2285"/>
    <polyline points="474.9448,397.4954 476.1329,392.9369 477.1143,386.5268"/>
    <line x1="501.8501" x2="501.8501" y1="389.9939" y2="389.9939"/>
    <polyline points="503.3701,401.3305 504.4989,410.2682 503.9292,413.9316"/>
    <polyline points="505.394,415.0939 506.8366,408.1283 506.8439,403.0282"/>
    <line x1="509.5749" x2="507.4146" y1="404.7533" y2="416.2476"/>
    <line x1="510.4204" x2="511.3561" y1="417.4128" y2="406.4863"/>
    <line x1="520.2721" x2="520.2721" y1="399.6338" y2="399.6338"/>
    <line x1="522.4279" x2="522.5859" y1="400.9444" y2="398.0707"/>
    <line x1="524.9642" x2="525.5569" y1="397.4235" y2="402.3268"/>
    <line x1="529.0959" x2="527.4153" y1="403.7853" y2="396.9789"/>
    <polyline points="529.9427,395.8425 532.1141,405.3188 529.9583,418.696"/>
    <polyline points="532.6752,419.9245 532.4147,416.2838 534.1475,406.9211"/>
    <polyline points="535.6139,408.5812 534.9475,413.9879 536.1439,421.1098"/>
    <polyline points="539.4967,422.2696 537.5542,412.5719 537.4392,410.2839"/>
    <line x1="540.2276" x2="541.9698" y1="412.0114" y2="423.4237"/>
    <line x1="543.5872" x2="544.2942" y1="424.5922" y2="421.1722"/>
    <line x1="546.5646" x2="545.1396" y1="419.8298" y2="425.7941"/>
    <line x1="547.4756" x2="548.7968" y1="427.0461" y2="419.3061"/>
    <polyline points="552.5946,420.3461 553.5299,427.0923 554.2527,429.7495"/>
    <polyline points="557.1021,431.2135 556.3165,426.6007 555.0037,421.8424"/>
    <polyline points="558.3182,423.2624 559.0822,426.0345 558.9774,432.7522"/>
    <polygon points="560.4381,434.3591 561.8085,424.6079"/>
    <line x1="562.4151" x2="564.5877" y1="436.0227" y2="425.8856"/>
    <polyline points="566.4056,427.1069 565.0444,433.2868 565.3769,437.7278"/>
    <polyline points="568.9097,439.4563 567.4427,431.7866 567.8733,428.2874"/>
    <polyline points="572.9419,430.6001 574.6133,440.5342 574.3055,442.904"/>
    <polyline points="575.8139,444.5842 577.0618,438.9607 576.4814,431.7722"/>
    <polyline points="579.6027,432.9803 579.4376,436.5842 577.502,446.2127"/>
    <polyline points="583.5139,449.2674 582.7873,446.1302 583.2379,435.5661 584.0102,432.7363 584.0506,426.0161 583.2824,423.2695 582.7536,412.7583"/>
    <polyline points="581.2567,411.547 580.5097,424.3919 581.7494,434.2407 580.097,447.7765 581.7494,434.2407"/>
    <line x1="590.6633" x2="590.6633" y1="430.4698" y2="430.4698"/>
    <polyline points="591.0916,439.9884 590.6633,430.4698 591.6172,416.7571"/>
    <line x1="594.3366" x2="592.4487" y1="415.8021" y2="408.8534"/>
    <polyline points="590.1993,407.3732 591.9896,393.8054 590.1993,407.3732 591.6172,416.7571 590.6633,430.4698 591.0916,439.9884 591.2165,453.2955"/>
    <polyline points="589.5276,452.0223 588.3025,441.4192 587.6423,438.4395 588.4476,431.663 589.1897,429.0606 588.8561,418.6973 588.0801,415.3532"/>
    <polyline points="584.9321,414.0229 587.1114,427.5751 584.9741,436.9646 585.528,443.7235 586.9313,450.682"/>
    <polyline points="594.472,441.6041 592.4515,431.8051 594.6145,418.2373"/>
    <polyline points="596.6266,419.7912 595.1857,425.8506 595.1918,433.074 596.6343,438.93 596.9947,443.2747"/>
    <polyline points="598.6395,444.9843 599.35,437.6648 598.6691,434.2885 597.5256,423.9763 598.0904,421.4113"/>
    <polyline points="599.9341,423.0851 602.0079,435.4646 600.1724,446.7145 602.0079,435.4646"/>
    <polyline points="604.457,436.6207 602.5168,446.1927 602.4595,448.4455"/>
    <polyline points="605.6916,450.1571 604.9305,444.8545 606.0619,437.7769"/>
    <polyline points="607.6244,438.953 607.4193,442.6056 609.2129,451.8309"/>
    <polyline points="614.0244,455.0047 612.4215,461.7728 614.6034,474.7685"/>
    <polyline points="614.4352,478.1011 612.5003,485.325 612.4719,487.62"/>
    <polyline points="610.1466,486.0709 612.0248,476.692 609.9272,462.9845 612.1087,453.4509 609.9842,440.1676"/>
    <polyline points="615.4835,456.4848 614.9915,461.3036 616.2856,465.8688 617.1064,472.2899"/>
    <polyline points="619.5337,470.1834 619.553,467.4228 617.6326,460.7042 617.4181,457.8886"/>
    <line x1="620.3348" x2="621.8903" y1="459.2188" y2="469.0429"/>
    <polyline points="616.021,479.4363 614.9243,484.9111 615.731,489.2358"/>
    <polyline points="619.2441,490.9064 617.4239,483.9072 617.601,480.7051"/>
    <polyline points="623.3069,483.0956 624.5258,492.1887 622.4268,502.1103 622.8062,505.635"/>
    <polyline points="619.9217,504.4795 622.1037,492.6161 619.9992,481.9196 622.1037,492.6161"/>
    <polyline points="626.8005,484.2518 626.8777,491.1169 625.448,496.0772 625.0073,500.5525 626.3251,506.8092"/>
    <polyline points="629.5658,508.0205 627.6577,499.9086 627.4156,497.7888 629.1698,489.0679 629.5901,485.4079"/>
    <polyline points="632.8827,487.7988 633.1222,498.3211 633.899,501.0825"/>
    <line x1="637.0861" x2="634.9149" y1="502.6362" y2="489.0678"/>
    <polyline points="637.9321,490.4033 638.6937,493.7352 639.3134,504.1162"/>
    <line x1="642.5066" x2="643.7139" y1="506.85" y2="514.4966"/>
    <line x1="646.4895" x2="645.0907" y1="513.9985" y2="508.1144"/>
    <line x1="648.5023" x2="649.232" y1="509.3256" y2="512.7134"/>
    <line x1="651.9248" x2="651.9248" y1="510.4996" y2="510.4996"/>
    <polyline points="640.9246,515.0544 640.8252,505.5199 641.4709,491.8127"/>
    <polyline points="630.3675,499.4626 631.4164,486.5841 630.3675,499.4626 631.8649,509.2853"/>
    <line x1="630.0157" x2="632.0973" y1="522.8381" y2="532.2274"/>
    <polyline points="633.9505,533.7024 634.509,531.2558 633.3473,524.3234"/>
    <polyline points="636.8286,525.7324 636.8518,530.8466 635.4132,535.2516"/>
    <polyline points="637.4146,536.8675 639.1364,530.0736 639.5808,527.0675"/>
    <line x1="641.378" x2="640.4011" y1="528.3362" y2="538.5381"/>
    <line x1="640.0336" x2="642.0893" y1="562.1649" y2="573.4933"/>
    <polyline points="643.9125,574.6655 644.4908,571.2677 643.3879,563.8964"/>
    <polyline points="646.8556,565.6099 646.8246,569.9652 645.3793,575.8737"/>
    <line x1="647.6633" x2="649.57" y1="576.0" y2="567.2869"/>
    <line x1="651.339" x2="650.6683" y1="568.9109" y2="576.0"/>
    <line x1="624.9732" x2="625.0457" y1="575.6469" y2="576.0"/>
    <line x1="622.7932" x2="622.6441" y1="576.0" y2="574.1079"/>
    <line x1="619.4734" x2="618.7723" y1="571.2555" y2="576.0"/>
    <line x1="616.6923" x2="616.9934" y1="576.0" y2="569.9397"/>
    <line x1="613.6366" x2="614.136" y1="568.6874" y2="576.0"/>
    <polygon points="611.3987,576.0 610.1705,567.4854"/>
    <polyline points="608.8797,576.0 607.5156,569.969 607.4604,566.3168"/>
    <polyline points="605.6945,565.1627 604.93,571.9533 605.8675,576.0"/>
    <polyline points="602.6227,575.0935 602.4196,572.9538 604.2152,564.0029"/>
    <line x1="602.1084" x2="599.9852" y1="562.8178" y2="573.3671"/>
    <polyline points="568.4114,576.0 569.6033,568.4278 569.2281,566.1116"/>
    <polyline points="565.7105,564.4164 567.0245,569.9013 566.6412,576.0"/>
    <polyline points="564.5836,576.0 564.6131,575.8582 564.3757,572.2288 562.4653,562.7673"/>
    <polyline points="560.1598,561.1786 561.6671,574.6186 561.5204,576.0"/>
    <polyline points="561.5204,576.0 561.6671,574.6186 560.1598,561.1786"/>
    <polyline points="558.6199,559.6604 557.8702,562.7255 558.1365,573.3182 558.8536,576.0"/>
    <polyline points="555.877,576.0 554.9446,571.947 555.6254,565.0898 556.9856,558.2179"/>
    <polyline points="554.4815,556.851 553.4075,567.4465 552.7109,570.5001 553.2191,576.0"/>
    <line x1="547.6595" x2="549.5197" y1="576.0" y2="567.3851"/>
    <line x1="551.1971" x2="550.727" y1="568.9776" y2="576.0"/>
    <polyline points="550.727,576.0 551.1971,568.9776 551.1113,555.5544"/>
    <polyline points="546.942,565.733 546.719,570.0586 545.2661,575.7744 545.2615,576.0"/>
    <polyline points="543.743,576.0 544.4151,571.2259 543.5336,564.0356"/>
    <polyline points="540.1081,562.3106 542.0488,573.3536 541.6005,576.0"/>
    <line x1="541.6005" x2="542.0488" y1="576.0" y2="573.3536"/>
    <polyline points="539.3979,572.1924 539.6107,575.8289 539.5752,576.0"/>
    <line x1="536.802" x2="535.9558" y1="576.0" y2="571.0386"/>
    <line x1="532.5663" x2="533.9227" y1="569.872" y2="576.0"/>
    <polyline points="528.2411,576.0 527.6864,570.5047 528.3712,567.426 529.4984,556.8374 528.9281,553.9466"/>
    <polyline points="525.3931,552.439 526.8358,559.069 526.8447,566.1161 525.4042,571.3568 525.0292,575.7213 525.0923,576.0"/>
    <polyline points="522.7536,576.0 522.5627,574.1469 524.5746,564.7343 522.4147,551.0074"/>
    <polyline points="520.4214,549.6509 521.355,563.2765 521.0495,576.0"/>
    <line x1="530.0261" x2="531.314" y1="568.6735" y2="576.0"/>
    <polyline points="531.314,576.0 530.0261,568.6735 532.0927,555.5258 530.0261,568.6735"/>
    <line x1="532.4344" x2="534.2916" y1="566.2105" y2="557.167"/>
    <line x1="535.7945" x2="534.9175" y1="558.8567" y2="564.029"/>
    <line x1="537.4768" x2="537.4944" y1="562.7901" y2="560.5776"/>
    <line x1="521.355" x2="521.355" y1="563.2765" y2="563.2765"/>
    <line x1="502.1141" x2="499.958" y1="562.6924" y2="549.9187"/>
    <polyline points="497.676,548.2855 497.4147,551.0017 499.1465,561.4878"/>
    <polyline points="495.6128,560.2322 494.9477,553.0604 496.1451,546.7161"/>
    <polyline points="494.4972,545.2191 492.5548,555.5436 492.439,558.9125"/>
    <line x1="490.2284" x2="491.9692" y1="557.52" y2="543.7983"/>
    <line x1="471.8093" x2="471.8093" y1="544.3488" y2="544.3488"/>
    <polyline points="464.3611,553.0371 464.6141,549.5438 462.4424,537.0649 464.49,526.9171 463.3897,516.3787"/>
    <polyline points="460.0344,515.0378 462.0889,528.6225 459.9153,538.0008 462.0676,551.7074"/>
    <polyline points="465.8964,554.3012 467.0843,547.076 466.4045,541.0465 465.0439,536.6596 465.3778,531.4945 466.8234,524.489 466.8568,517.794"/>
    <polyline points="469.5695,519.2856 467.4151,532.8192 467.7127,535.8551 469.5874,542.6713 469.4803,545.2217 467.5375,555.512"/>
    <polyline points="470.0537,556.6858 471.8093,544.3488 470.4371,534.0791 471.3373,520.8501"/>
    <line x1="449.9177" x2="452.0969" y1="498.431" y2="487.6557"/>
    <polyline points="449.2756,486.4479 449.6106,489.6774 447.9783,496.7171"/>
    <polyline points="446.5192,495.0397 447.0481,490.7184 445.7726,485.188"/>
    <polyline points="442.4863,483.8632 444.414,491.1391 444.6081,493.4149"/>
    <line x1="441.7175" x2="440.121" y1="491.8555" y2="482.4652"/>
    <line x1="490.2129" x2="491.6003" y1="487.234" y2="475.7765"/>
    <polyline points="493.0617,476.9304 492.9374,486.6618 493.7,488.9602"/>
    <polyline points="497.0209,490.6602 495.7019,485.2243 494.9287,478.0915"/>
    <polyline points="497.7682,479.2795 498.4881,482.9163 499.4405,492.3162"/>
    <line x1="501.0307" x2="501.2762" y1="493.9135" y2="480.5121"/>
    <line x1="510.0648" x2="511.7937" y1="486.1151" y2="499.5757"/>
    <polyline points="514.5921,500.8193 514.4694,497.1945 512.5274,487.6989"/>
    <polyline points="515.8742,489.344 517.0789,494.8565 516.4254,502.015"/>
    <polyline points="517.8907,503.1801 519.6145,493.363 519.3466,491.0365"/>
    <line x1="522.0738" x2="519.9147" y1="492.7589" y2="504.3338"/>
    <polyline points="530.491,499.5589 531.2773,486.4633 530.7228,463.8786"/>
    <polyline points="532.4692,465.0439 533.8162,475.2313 534.4398,477.7193 533.4893,484.5989 532.7691,487.7035 533.2617,498.2828 534.032,501.1468"/>
    <polyline points="537.1095,502.6641 534.9285,489.0047 535.7031,483.717 537.0214,479.3639 536.5819,473.4657 535.1519,466.24"/>
    <polyline points="538.6072,467.4841 539.3083,471.019 538.7011,480.9471 537.9384,483.3145 538.0607,490.3767 538.8358,493.6205 539.2063,504.1058"/>
    <polyline points="542.4571,506.7676 544.6142,493.3478 544.3223,491.0031 542.4436,483.8955 542.5446,480.6244 544.4875,470.1673 544.5839,467.4822 542.7023,460.7471"/>
    <polyline points="539.9476,459.1687 541.9796,468.79 540.2137,482.4593 541.5993,491.8245 540.6835,505.4718 541.5993,491.8245 540.2137,482.4593 541.9796,468.79"/>
    <polyline points="546.1845,462.254 547.1141,466.9743 544.9428,478.1606 545.6327,485.2563 546.9892,490.5992 546.6441,494.9411 545.1998,500.7814 545.1779,508.0035"/>
    <polyline points="548.648,509.1937 547.5351,499.0556 549.5885,489.6817 547.4153,475.9819 547.6624,473.1489 549.568,466.4283 549.5145,463.6848"/>
    <polyline points="553.5463,466.3272 552.5857,474.2688 553.2066,476.4033 554.5619,485.3039 552.4162,497.881 552.7305,500.0168"/>
    <polyline points="549.9383,498.2917 552.1133,487.7797 549.9641,474.7468 551.9488,465.0405 549.9641,474.7468 552.1133,487.7797 549.9383,498.2917 551.9986,510.356 550.1862,521.9368"/>
    <polyline points="552.4537,523.659 552.526,521.331 554.4677,511.5097 554.5928,507.9462"/>
    <polyline points="557.1122,506.292 554.9343,519.8347 555.6714,525.351"/>
    <polyline points="559.1964,526.9956 557.4176,517.4952 557.6371,513.8711 559.5555,505.5821"/>
    <polyline points="559.5309,503.4705 557.5968,494.9317 557.4249,491.2822 559.607,479.83 557.4898,468.7408"/>
    <polyline points="555.1153,467.5556 555.2718,473.6833 556.7249,478.1036 556.9378,483.179 555.5388,490.1283 554.9703,496.8987 556.2249,501.7498"/>
    <polyline points="564.2343,504.1102 563.8007,493.648 563.0277,490.3816 562.9698,483.2818 563.737,480.9333 564.2826,471.0548"/>
    <polyline points="567.0952,472.2233 564.917,484.9681 567.0581,494.8961 566.4922,502.0808"/>
    <polyline points="568.7169,499.5965 569.3807,496.2069 568.5913,488.8556 567.8472,486.6047 568.1636,477.0397 568.9399,473.4252"/>
    <polyline points="570.4036,474.6773 571.3751,488.1783 570.9276,497.5895 570.8223,511.3162 571.4736,520.7805 570.3183,534.1787 571.903,544.2255"/>
    <polyline points="569.5415,545.2186 569.5458,542.5727 567.6201,535.8212 567.4201,532.8876 569.6014,519.2519 567.5054,509.8854"/>
    <polyline points="565.0924,508.3787 565.3025,512.8742 566.7557,517.7986 566.9149,524.6343 565.5022,531.5268 564.9839,536.5226 566.265,540.9794 567.1088,547.196"/>
    <polyline points="564.6001,549.6793 562.4193,536.9475 564.5487,527.0089 563.2461,516.4212 562.6083,513.5337 563.5053,506.8003"/>
    <line x1="559.9769" x2="559.9769" y1="515.1153" y2="515.1153"/>
    <line x1="551.9986" x2="551.9986" y1="510.356" y2="510.356"/>
    <line x1="560.287" x2="560.287" y1="492.449" y2="492.449"/>
    <line x1="552.1133" x2="552.1133" y1="487.7797" y2="487.7797"/>
    <line x1="561.5105" x2="561.5105" y1="481.5627" y2="481.5627"/>
    <line x1="570.9276" x2="570.9276" y1="497.5895" y2="497.5895"/>
    <polyline points="572.5523,499.0482 573.6117,509.2275 574.3114,512.6718"/>
    <polyline points="577.0868,513.9583 576.3944,506.7467 575.0389,500.582"/>
    <polyline points="578.3993,502.1844 579.1508,504.803 578.9018,515.1867"/>
    <line x1="580.37" x2="581.863" y1="516.3719" y2="503.8446"/>
    <line x1="589.9214" x2="592.1033" y1="510.7247" y2="521.0563"/>
    <line x1="594.6065" x2="593.0134" y1="519.2465" y2="512.408"/>
    <line x1="596.5542" x2="597.0338" y1="514.0405" y2="518.4132"/>
    <line x1="599.3905" x2="599.6117" y1="518.0099" y2="515.6091"/>
    <line x1="601.6864" x2="601.6864" y1="517.1052" y2="517.1052"/>
    <line x1="610.5866" x2="611.6841" y1="509.4289" y2="499.6535"/>
    <line x1="608.933" x2="609.1232" y1="501.1002" y2="507.8175"/>
    <line x1="607.1145" x2="606.1528" y1="506.2735" y2="501.6774"/>
    <line x1="603.3631" x2="604.1207" y1="502.161" y2="504.8039"/>
    <line x1="600.5839" x2="600.5839" y1="503.4106" y2="503.4106"/>
    <line x1="601.1761" x2="601.1325" y1="493.8443" y2="480.6114"/>
    <line x1="597.6678" x2="599.5109" y1="479.4033" y2="492.2159"/>
    <polyline points="596.9533,490.5357 595.5651,485.2839 594.9616,478.2312"/>
    <polyline points="593.1984,477.0762 592.8186,486.5837 593.5548,488.8201"/>
    <line x1="590.1203" x2="591.7184" y1="487.0881" y2="475.9184"/>
    <polygon points="572.0886,441.1884 569.9153,429.4452"/>
    <line x1="561.3362" x2="561.3362" y1="447.3314" y2="447.3314"/>
    <line x1="558.5504" x2="557.8151" y1="449.268" y2="446.1065"/>
    <line x1="554.9205" x2="555.7621" y1="444.8244" y2="450.2193"/>
    <line x1="552.9913" x2="553.0058" y1="450.6261" y2="443.4738"/>
    <polyline points="549.611,440.5468 549.2797,442.936 547.4313,449.9582"/>
    <polyline points="545.576,448.5756 546.9595,443.3386 546.6932,438.9731"/>
    <polyline points="543.1675,437.3364 544.5737,444.1883 544.1135,447.265"/>
    <polyline points="539.1302,444.818 537.4145,436.0537 537.6889,433.931"/>
    <polyline points="536.1647,432.1982 534.9527,436.9653 535.5945,443.6511"/>
    <polyline points="532.435,442.4973 532.5646,438.8614 534.506,430.4718"/>
    <line x1="531.9592" x2="530.2424" y1="428.7716" y2="441.3363"/>
    <polygon points="539.9526,435.6501 542.1145,446.0169"/>
    <polygon points="550.7422,428.3617 551.0094,418.7773"/>
    <polygon points="550.2568,451.4168 551.5468,442.0484"/>
    <line x1="596.9989" x2="595.6527" y1="415.3949" y2="410.2573"/>
    <line x1="599.1808" x2="599.5929" y1="411.5876" y2="414.6074"/>
    <line x1="602.1122" x2="602.1122" y1="412.8522" y2="412.8522"/>
    <line x1="592.5348" x2="594.4774" y1="405.689" y2="395.1407"/>
    <line x1="596.1028" x2="594.9382" y1="396.5499" y2="403.2683"/>
    <line x1="597.4163" x2="597.6491" y1="400.9864" y2="398.0355"/>
    <line x1="599.9705" x2="599.9705" y1="399.5944" y2="399.5944"/>
    <polyline points="605.1033,392.6301 606.5099,385.404 607.0517,379.3979"/>
    <polyline points="609.3928,381.0263 608.7363,383.5653 607.4977,393.8382"/>
    <line x1="610.8028" x2="610.9473" y1="395.0103" y2="382.7066"/>
    <polyline points="603.7816,377.834 604.2491,387.8686 603.5251,391.3698"/>
    <line x1="599.5231" x2="597.5861" y1="388.6459" y2="378.2489"/>
    <polygon points="600.2723,376.3431 601.9374,390.0444"/>
    <line x1="594.9643" x2="596.2055" y1="380.7253" y2="387.1711"/>
    <line x1="592.7168" x2="592.4153" y1="385.6221" y2="382.8469"/>
    <line x1="589.9426" x2="592.1141" y1="384.0064" y2="371.0971"/>
    <polyline points="589.1477,369.9189 589.5841,373.58 588.1285,382.3358"/>
    <polyline points="586.6602,380.6262 586.9799,375.6441 585.6142,368.762"/>
    <line x1="582.4393" x2="584.6135" y1="367.6064" y2="378.896"/>
    <polyline points="581.5825,377.1651 580.2274,366.4324 581.5825,377.1651 580.7024,388.9897 581.0507,400.8137 580.7024,388.9897"/>
    <polyline points="582.4628,390.1459 583.8365,400.1337 584.4511,402.5254"/>
    <polyline points="587.0126,404.1993 586.6,398.5218 585.1652,391.3219"/>
    <polyline points="588.6284,392.5365 589.3228,396.1288 588.6802,405.8193"/>
    <polyline points="577.6179,399.0828 578.4886,391.3501 579.2216,387.8335 578.8169,377.8453"/>
    <polyline points="578.0428,375.4534 577.9553,368.4358 578.7206,365.221"/>
    <line x1="577.0292" x2="574.9256" y1="363.9564" y2="373.7796"/>
    <polyline points="572.7837,372.1597 573.5091,369.8736 574.429,362.626"/>
    <polyline points="571.2965,370.6058 571.0097,361.222 571.2965,370.6058 570.4737,384.1739 571.7794,393.9725"/>
    <polyline points="573.2777,395.643 574.0464,393.5209 574.0145,385.4428 573.2425,381.8506"/>
    <line x1="570.4737" x2="570.4737" y1="384.1739" y2="384.1739"/>
    <polyline points="576.0302,379.4575 577.1075,386.6574 576.2766,392.889 574.9882,397.3526"/>
    <polyline points="596.7097,363.8133 595.2573,358.0817 595.1269,350.8724 596.5461,344.6921 597.0373,340.251 595.7429,335.2229 594.9227,328.3065"/>
    <polyline points="597.8,329.4652 598.5306,333.1281 599.4168,341.9561 598.7762,344.0839 597.4828,352.0937 599.6091,365.4246"/>
    <polyline points="602.9871,368.4379 603.7563,365.2467 604.2683,354.7167 603.5511,351.9445 602.5831,345.2268 603.202,342.4229 604.5634,331.8728"/>
    <polyline points="606.8701,333.1548 605.4375,340.2723 605.0123,346.7656 606.3369,351.3781 607.0987,356.1367 604.9185,369.8312"/>
    <polyline points="607.8316,371.1516 608.1824,360.555 608.958,357.6329 609.1003,350.8866 608.3391,348.2296 607.713,337.8015 608.4105,334.5053"/>
    <polygon points="610.0441,335.9307 611.8231,349.6175 610.4201,359.2017 611.3564,372.4078 610.4201,359.2017 611.8231,349.6175"/>
    <polyline points="612.5469,337.4322 614.4898,347.4147 614.5828,350.9331 612.4146,360.8343 614.575,373.6128"/>
    <polyline points="616.8437,374.783 616.8368,367.7436 615.3943,362.5176 615.0346,358.1491 616.3857,352.1852 617.0888,344.9583 615.9164,339.0058"/>
    <polyline points="619.3738,340.6424 619.6133,343.1558 617.4381,356.807 619.4991,366.4635 618.3698,375.9375"/>
    <polyline points="620.0255,377.0963 622.093,365.9674 619.9163,354.5557 622.0616,342.3287"/>
    <line x1="619.9163" x2="619.9163" y1="354.5557" y2="354.5557"/>
    <polygon points="600.7628,353.3713 601.5281,366.9685 600.7628,353.3713 601.3172,330.648"/>
    <line x1="591.9591" x2="591.9591" y1="348.5342" y2="348.5342"/>
    <line x1="579.9476" x2="579.9476" y1="320.8066" y2="320.8066"/>
    <line x1="530.1995" x2="531.9894" y1="372.7146" y2="382.1181"/>
    <polyline points="529.4776,380.7304 527.5349,373.4047 527.4486,371.1457"/>
    <polyline points="525.6524,369.5129 524.9383,373.833 526.1031,379.415"/>
    <polyline points="522.6493,378.163 522.4163,374.9087 524.1805,367.8295"/>
    <line x1="522.1122" x2="519.9705" y1="366.1121" y2="376.9611"/>
    <line x1="470.6032" x2="470.6032" y1="347.4826" y2="347.4826"/>
    <line x1="461.1938" x2="461.1938" y1="331.4097" y2="331.4097"/>
    <line x1="458.971" x2="459.5184" y1="331.8757" y2="329.6767"/>
    <line x1="456.9438" x2="456.7164" y1="327.9529" y2="333.0781"/>
    <line x1="454.4132" x2="453.5369" y1="335.2327" y2="326.2579"/>
    <line x1="447.4779" x2="449.3999" y1="325.8838" y2="336.4627"/>
    <polygon points="452.0477,337.7026 450.11,324.6092"/>
    <line x1="445.9591" x2="444.9178" y1="335.1619" y2="328.0904"/>
    <line x1="442.4337" x2="442.568" y1="330.5455" y2="333.7902"/>
    <line x1="440.0247" x2="442.0934" y1="332.3428" y2="318.6947"/>
    <polyline points="438.9312,317.3986 439.4999,320.9495 438.368,330.8199"/>
    <polyline points="436.8425,329.227 436.838,323.3847 435.3958,316.1624"/>
    <line x1="432.4146" x2="434.5755" y1="314.972" y2="327.5745"/>
    <line x1="431.3581" x2="431.3581" y1="325.8769" y2="325.8769"/>
    <polyline points="427.833,324.1518 428.5734,326.2873 429.3917,335.1984"/>
    <polyline points="430.9454,336.3862 431.3581,325.8769 430.4186,313.8097 431.8243,302.2318"/>
    <line x1="434.5824" x2="432.6979" y1="303.9649" y2="311.5107"/>
    <line x1="435.0338" x2="436.384" y1="310.0895" y2="305.6887"/>
    <line x1="437.8547" x2="437.4377" y1="307.3837" y2="309.5261"/>
    <line x1="439.9164" x2="439.9164" y1="309.0324" y2="309.0324"/>
    <polyline points="445.2941,298.4796 446.7475,293.1901 446.9212,288.8375"/>
    <line x1="449.5344" x2="447.4237" y1="290.421" y2="299.8513"/>
    <polyline points="454.0706,302.8217 453.305,300.4762 452.7371,293.3701"/>
    <polygon points="451.2341,291.9335 450.5303,301.2987"/>
    <line x1="454.9364" x2="457.1129" y1="294.7314" y2="304.4146"/>
    <polyline points="459.1713,306.0671 458.8779,299.1561 458.1014,296.0229"/>
    <line x1="461.6364" x2="460.6415" y1="297.2553" y2="307.7647"/>
    <line x1="419.6089" x2="417.4275" y1="317.3677" y2="330.5179"/>
    <polyline points="415.555,329.2701 416.9474,322.0849 416.7112,315.789"/>
    <polyline points="413.1894,314.2818 414.5673,324.5693 414.094,327.9597"/>
    <polygon points="412.114,326.5775 409.9589,312.8507"/>
    <polyline points="409.1492,325.1192 407.4148,314.9383 407.6739,311.4947"/>
    <polyline points="398.5894,306.6339 399.2957,310.2661 398.7188,318.6212"/>
    <polyline points="397.0285,316.8937 396.5665,312.1452 395.1409,305.4798"/>
    <polyline points="392.4749,304.3114 393.7989,313.0409 394.43,315.1613"/>
    <polygon points="421.5265,319.0086 420.2737,331.7167"/>
    <polyline points="422.9855,320.698 423.0117,329.2341 423.7834,332.8834"/>
    <line x1="427.0523" x2="424.9183" y1="334.0373" y2="322.4188"/>
    <line x1="399.5422" x2="397.4212" y1="365.5254" y2="374.8998"/>
    <polyline points="395.3103,373.4848 396.7632,368.3972 396.9091,363.9819"/>
    <polyline points="393.4747,362.3709 394.4476,369.154 393.8302,372.1441"/>
    <polyline points="392.0674,370.8706 390.076,360.704 392.0674,370.8706 389.9154,384.1794"/>
    <polyline points="387.8718,382.564 389.614,373.3024 389.3615,369.6525 387.4588,361.1085 387.5179,358.9967"/>
    <polyline points="385.8525,357.2673 384.9148,361.9222 387.0844,375.564 386.4039,380.8937"/>
    <polyline points="384.5873,379.1843 384.4806,376.9226 384.0,374.5464"/>
    <line x1="384.0" x2="384.3322" y1="356.9759" y2="355.5358"/>
    <polygon points="401.2549,366.9945 400.5113,376.3911"/>
    <polyline points="402.7523,368.3873 403.2842,375.688 404.0522,377.9553"/>
    <line x1="407.1115" x2="404.9324" y1="379.584" y2="369.7074"/>
    <polyline points="408.0818,370.9634 408.8578,374.2053 409.1882,381.2645"/>
    <line x1="410.6615" x2="411.6187" y1="382.9802" y2="372.1681"/>
    <polygon points="451.8775,382.8294 450.3514,395.3968"/>
    <line x1="621.3951" x2="620.9064" y1="413.0562" y2="422.5598"/>
    <line x1="622.5422" x2="624.5851" y1="423.9745" y2="414.6"/>
    <polyline points="626.8162,416.0693 625.3694,420.9296 625.0488,425.4655"/>
    <polyline points="628.4205,427.0295 627.6591,420.307 628.3293,417.4624"/>
    <polyline points="630.0082,418.7828 631.8763,428.658 630.0082,418.7828 632.1003,405.2644 629.9194,395.861 632.0483,382.1367 630.1089,372.6601"/>
    <polyline points="632.8034,371.1708 633.5351,374.1937 634.4143,380.9999"/>
    <polyline points="636.7178,380.5553 636.9428,375.6523 635.5471,368.8349"/>
    <polyline points="638.3233,366.4519 639.5191,377.0348 638.9726,379.9083"/>
    <polygon points="641.1956,378.3455 641.1128,364.8634"/>
    <polyline points="642.7099,379.5935 643.406,375.974 644.4822,366.4418 643.8955,364.1993"/>
    <polyline points="646.6517,363.7617 646.9849,368.0825 645.624,373.625 644.9449,380.7925"/>
    <polyline points="648.1379,381.9593 647.8691,372.1097 648.6184,369.7718 649.3637,362.6497"/>
    <polyline points="654.4458,361.7318 652.5081,371.0334 652.4657,373.2255 654.3766,380.8028 654.6131,384.2741"/>
    <polyline points="656.5739,385.4619 657.0251,379.3611 655.712,374.9506 654.9271,369.8508 656.0407,362.8855"/>
    <polyline points="657.6121,364.0478 657.4215,367.7112 659.6035,378.7866 658.0337,386.6941"/>
    <polyline points="662.7912,389.3463 662.424,386.6173 664.0055,379.8942"/>
    <polyline points="665.465,381.4174 664.9995,386.0812 666.3061,390.7827"/>
    <polyline points="669.5598,392.2949 667.6454,385.5645 667.4166,382.8651"/>
    <line x1="670.3517" x2="671.8773" y1="384.2371" y2="393.8782"/>
    <line x1="673.422" x2="674.1692" y1="395.5229" y2="393.376"/>
    <line x1="676.4157" x2="675.0496" y1="392.8233" y2="397.215"/>
    <line x1="677.5414" x2="678.6344" y1="398.9373" y2="391.4224"/>
    <line x1="680.8447" x2="680.9049" y1="389.1353" y2="400.6704"/>
    <polyline points="676.8152,409.3628 676.8644,416.07 675.4299,420.8573"/>
    <polyline points="673.9685,419.1243 674.5173,416.9988 673.3278,408.1976"/>
    <polygon points="670.0076,407.0016 672.1006,417.4035"/>
    <line x1="667.4269" x2="669.2599" y1="408.8485" y2="415.7142"/>
    <line x1="665.7516" x2="664.9217" y1="414.0735" y2="409.7146"/>
    <line x1="662.4922" x2="662.4788" y1="410.1169" y2="412.4949"/>
    <line x1="660.1337" x2="662.033" y1="410.9879" y2="401.6215"/>
    <polyline points="658.7304,400.0931 659.3892,402.4278 658.5776,409.557"/>
    <polyline points="656.9649,408.2012 656.6846,402.8329 655.2344,398.4954"/>
    <line x1="652.4372" x2="654.5011" y1="396.839" y2="406.9144"/>
    <polyline points="647.6815,404.5007 648.3857,395.5519 649.1395,393.4124"/>
    <polygon points="650.6049,395.1387 651.1536,405.6859"/>
    <line x1="647.1143" x2="644.9556" y1="391.6796" y2="403.3408"/>
    <polyline points="643.1781,402.1867 643.9539,398.5346 644.1041,389.9605"/>
    <polyline points="637.4294,386.6374 639.6101,399.8164 639.4023,403.0704 637.4793,410.1493 637.4917,412.5081 639.4225,422.4141 639.6064,425.9553"/>
    <polyline points="637.1034,427.5527 634.9215,414.062 635.753,408.4659 637.0411,404.1459 636.5369,398.5643 635.1207,391.3862 635.265,385.0637"/>
    <polyline points="633.7719,383.5621 632.4843,393.8701 634.6087,404.5741 632.4271,416.4295 632.5885,420.0389 634.5249,428.2227"/>
    <polyline points="642.0336,423.5685 640.1328,411.8667 641.702,401.0182 640.5658,388.2741 641.702,401.0182"/>
    <line x1="651.1551" x2="650.6035" y1="418.6894" y2="428.4173"/>
    <polyline points="654.1383,429.768 653.3842,427.0105 652.6825,420.2917"/>
    <line x1="654.9552" x2="657.1144" y1="421.8252" y2="431.1936"/>
    <polyline points="659.1054,432.6952 658.9525,425.9551 658.1767,423.2837"/>
    <line x1="664.6102" x2="662.8203" y1="425.9767" y2="433.7495"/>
    <polygon points="660.5672,434.269 661.7008,424.6661"/>
    <line x1="665.1216" x2="666.5383" y1="433.2163" y2="427.2247"/>
    <line x1="667.9972" x2="667.4848" y1="428.4235" y2="431.8542"/>
    <line x1="669.9195" x2="669.9195" y1="429.5903" y2="429.5903"/>
    <polyline points="677.4149,422.5824 679.1526,414.1562 679.5855,410.5165"/>
    <line x1="681.3965" x2="680.3848" y1="411.6788" y2="424.2801"/>
    <polyline points="692.422,408.8444 692.6096,405.7785 694.5394,395.1861 694.5479,392.2822 692.6236,385.5432 692.4195,382.8688 694.2141,372.4223"/>
    <polyline points="695.6931,373.6659 694.9302,380.8576 697.1105,391.6083 694.9777,403.4138 695.5184,410.2866"/>
    <polyline points="699.0591,411.6532 697.4177,401.0576 697.7466,398.0048 699.5971,391.1744 699.4562,388.6396 697.5162,378.3732 697.46,374.9713"/>
    <line x1="700.1714" x2="702.0085" y1="376.3481" y2="390.0764"/>
    <polyline points="703.6706,391.4378 704.351,388.005 703.638,377.8007 702.8851,375.3032 703.1195,368.4344 703.8962,365.3404 704.1556,354.757"/>
    <polyline points="707.1138,356.1389 704.9405,369.8658 705.6425,374.8817 706.994,379.3286 706.6355,385.5226 705.1928,392.7295"/>
    <polyline points="707.4511,393.962 709.4727,380.926 707.7235,371.2221 708.3241,360.6214 709.0873,357.597"/>
    <polyline points="712.4264,360.7319 714.527,373.738 713.304,382.172 712.6432,384.2821 713.4461,392.6748 714.1885,396.3111 713.8575,405.7154 713.0815,407.9282 712.9192,415.416 713.6787,418.8575 714.3238,429.0429 713.6299,431.5299"/>
    <polyline points="715.1662,433.1748 716.6013,427.279 717.012,420.0534 714.9324,409.6491 716.0727,404.4754 717.1115,397.4649 716.2351,390.7772 714.9736,386.0083 715.5294,381.4043 716.9321,374.9235 716.7329,367.8007 715.2795,362.3916"/>
    <polyline points="718.791,364.0942 719.4255,366.383 718.5154,376.0834 717.7884,379.6737 718.2364,387.7411 719.0088,389.8641 719.052,398.6316 718.2839,402.2931 717.7525,411.3386 718.4666,413.4897 719.4519,421.2971 717.4623,434.7585"/>
    <line x1="720.7009" x2="720.7009" y1="436.271" y2="436.271"/>
    <polyline points="723.4871,434.4378 724.2204,437.7077 723.8183,444.8135"/>
    <polyline points="726.0318,444.4096 727.1077,439.0691 726.2751,431.9744"/>
    <polyline points="729.0451,429.7944 729.0158,440.3607 728.244,443.4936"/>
    <polygon points="730.475,441.5931 731.7783,428.5576"/>
    <line x1="732.7434" x2="734.5963" y1="439.1175" y2="430.2137"/>
    <line x1="736.4453" x2="735.0653" y1="431.9138" y2="436.9914"/>
    <line x1="737.4531" x2="737.9085" y1="435.8263" y2="433.6401"/>
    <polyline points="739.9145,435.3729 742.0794,423.7144 740.0535,411.7259 741.8096,401.1449"/>
    <polyline points="743.3197,402.3279 742.7266,411.31 743.4301,413.4533 744.4705,421.3191 742.4522,434.7446 742.9058,437.0921"/>
    <polyline points="746.4422,438.7787 745.0637,433.2113 745.3451,426.0369 746.7953,419.7012 746.8823,415.1858 745.4543,410.2941 745.0043,403.4867"/>
    <polyline points="747.5938,404.6412 749.5573,416.9033 747.4172,427.2386 747.741,430.8535 749.5956,440.4157"/>
    <polyline points="753.2795,443.4916 754.048,440.3833 754.0128,429.8055"/>
    <polyline points="757.1073,431.1929 756.2784,437.9926 754.9888,444.9175"/>
    <polyline points="757.6168,446.2684 758.4904,435.6662 759.223,432.6566"/>
    <line x1="760.7041" x2="761.2584" y1="434.1949" y2="457.655"/>
    <polyline points="762.7549,459.3577 763.4699,457.2473 764.4502,448.776 763.8348,445.132"/>
    <polyline points="766.5984,442.8468 767.0134,449.9589 764.9318,461.0851"/>
    <polyline points="768.0,458.7556 767.922,454.7143 768.0,454.3451"/>
    <line x1="767.6411" x2="768.0" y1="486.4104" y2="482.3783"/>
    <polyline points="767.1112,472.4996 766.2384,479.5245 764.9747,484.7239"/>
    <polyline points="763.2396,483.0047 764.0118,480.7842 764.049,471.3455"/>
    <line x1="757.7707" x2="759.6024" y1="472.3292" y2="479.5456"/>
    <polygon points="761.7508,481.2719 760.5081,470.1856"/>
    <line x1="756.4797" x2="755.0849" y1="477.8454" y2="473.5169"/>
    <line x1="752.4636" x2="752.9403" y1="473.9777" y2="476.1892"/>
    <line x1="749.9152" x2="749.9152" y1="474.5917" y2="474.5917"/>
    <line x1="730.7404" x2="731.5484" y1="475.747" y2="486.7147"/>
    <line x1="729.6112" x2="727.9718" y1="485.551" y2="476.213"/>
    <line x1="725.2408" x2="726.6917" y1="477.4157" y2="484.3973"/>
    <line x1="723.1657" x2="722.5635" y1="483.2336" y2="479.5706"/>
    <line x1="719.9522" x2="721.9707" y1="482.0405" y2="468.9465"/>
    <polyline points="719.4959,467.3583 719.5795,470.2215 717.6901,480.8005"/>
    <polyline points="716.1665,479.4996 717.1145,472.4284 716.1421,465.8407"/>
    <polyline points="712.6741,464.3988 714.5731,474.8833 714.5068,478.1278"/>
    <polyline points="711.9583,476.6803 709.9588,463.0324 712.114,453.3697"/>
    <line x1="714.149" x2="712.4148" y1="454.9581" y2="461.6844"/>
    <line x1="714.947" x2="715.6156" y1="461.158" y2="456.4759"/>
    <line x1="717.4396" x2="717.5533" y1="457.918" y2="460.6319"/>
    <polyline points="720.2263,459.2845 721.5838,445.6362 720.7009,436.271 721.2552,412.9796 720.5111,399.8303 721.7483,389.4604 720.0979,377.2375 722.0549,365.8215 720.0979,377.2375 721.7483,389.4604 720.5111,399.8303"/>
    <polyline points="722.4211,401.078 722.7732,398.0001 724.6029,391.147 724.4368,388.635 722.5014,378.4058 722.4709,374.9849 724.3869,367.554"/>
    <polyline points="725.9376,369.2716 724.9163,373.6408 727.0613,386.8344 726.4827,392.7841 725.0867,397.149 725.3105,402.3882"/>
    <polyline points="728.8305,403.7703 727.4646,396.7464 729.6133,384.3785 729.3044,380.8591 727.438,373.1162 727.5572,370.9552"/>
    <polyline points="730.0343,372.5882 732.089,382.1742 729.9154,395.8602 732.0674,405.2284"/>
    <line x1="721.7483" x2="721.7483" y1="389.4604" y2="389.4604"/>
    <polyline points="710.6618,395.15 711.215,372.5092 710.5479,359.13 711.215,372.5092 710.6618,395.15 711.6185,406.1952 710.1983,417.6924 711.9903,429.8376 710.1983,417.6924"/>
    <polyline points="707.449,416.5387 707.5341,420.1163 709.4767,428.1152"/>
    <polyline points="706.1013,426.3821 704.9379,421.8094 705.6541,415.3764"/>
    <polyline points="704.182,414.1858 702.4164,422.5481 702.6482,424.6584"/>
    <polyline points="699.971,422.9635 702.1121,412.9496 699.9339,399.5275 702.0085,390.0764 700.1714,376.3481 701.6523,366.927 700.6233,353.4468"/>
    <line x1="692.0254" x2="690.1457" y1="348.6801" y2="336.6504"/>
    <polyline points="687.4723,334.9503 687.4997,337.4015 689.4343,347.5189"/>
    <polyline points="686.0194,346.3309 684.9241,339.1109 685.7325,333.2943"/>
    <polyline points="684.2452,331.6971 682.4241,341.5404 682.6001,345.0984"/>
    <polygon points="679.9998,343.8066 682.1035,330.1692"/>
    <polyline points="678.3084,342.4451 679.5252,331.9492 678.9864,328.7167"/>
    <polyline points="675.4466,327.3401 676.8768,334.3997 676.8016,341.0082"/>
    <line x1="674.5898" x2="672.4155" y1="339.4954" y2="326.0348"/>
    <line x1="670.3688" x2="671.415" y1="324.7912" y2="337.9116"/>
    <polyline points="659.9918,365.2381 662.1063,378.3011 659.9242,387.9854 662.1063,378.3011"/>
    <polygon points="650.1589,371.4925 651.6683,383.1131 650.1589,371.4925 652.0168,360.5666"/>
    <line x1="689.9847" x2="689.9847" y1="383.8982" y2="383.8982"/>
    <polyline points="692.1085,371.2265 689.9847,383.8982 691.9136,393.8854 690.3042,407.3265"/>
    <line x1="711.6185" x2="711.6185" y1="406.1952" y2="406.1952"/>
    <line x1="732.089" x2="732.089" y1="382.1742" y2="382.1742"/>
    <line x1="750.7436" x2="750.7436" y1="394.9986" y2="394.9986"/>
    <line x1="752.9747" x2="752.4761" y1="394.3456" y2="396.7143"/>
    <line x1="755.1386" x2="755.2432" y1="398.3948" y2="392.7737"/>
    <line x1="757.5652" x2="758.5857" y1="390.398" y2="400.0237"/>
    <polygon points="761.969,401.5879 759.953,388.0536"/>
    <polyline points="764.4974,403.0793 764.5787,399.9433 762.6879,389.3786"/>
    <polyline points="766.1632,390.7766 767.1145,397.5373 766.1454,404.4944"/>
    <line x1="767.6762" x2="768.0" y1="405.8351" y2="404.0261"/>
    <polyline points="751.0079,405.8113 751.2982,418.5869 750.4721,428.4903 751.7807,441.9897 750.4721,428.4903"/>
    <line x1="742.0794" x2="742.0794" y1="423.7144" y2="423.7144"/>
    <polyline points="723.0441,447.1591 722.954,457.0299 723.7191,460.5807"/>
    <line x1="727.0286" x2="724.9258" y1="461.8169" y2="448.7519"/>
    <polyline points="727.7826,450.4044 728.5075,452.8671 729.4298,463.0074"/>
    <line x1="731.0113" x2="731.295" y1="464.1698" y2="452.1019"/>
    <line x1="701.5267" x2="700.7643" y1="458.1476" y2="470.2141"/>
    <line x1="699.2694" x2="698.7548" y1="468.489" y2="460.5577"/>
    <line x1="695.9662" x2="697.0984" y1="462.2131" y2="466.7561"/>
    <line x1="693.9566" x2="693.181" y1="465.0353" y2="462.9237"/>
    <line x1="690.4188" x2="690.4188" y1="463.3459" y2="463.3459"/>
    <line x1="682.0933" x2="679.9164" y1="457.1883" y2="470.9151"/>
    <polyline points="677.9614,469.4567 679.612,459.2762 679.2895,455.8324"/>
    <polyline points="675.7915,454.5456 677.0546,461.757 676.5019,467.9232"/>
    <polyline points="674.6058,466.321 674.4251,463.7017 672.4933,453.317"/>
    <polygon points="670.1098,452.1317 671.7323,464.6611"/>
    <polyline points="668.5366,450.9719 667.8045,454.6039 668.2159,462.9584 668.9898,465.0688"/>
    <polyline points="666.2143,465.8524 664.967,461.231 665.5485,456.4828 666.9436,449.8177"/>
    <polyline points="664.5185,448.6493 663.3248,457.3782 662.6563,459.4985 663.4249,467.6028"/>
    <polyline points="664.1716,471.1996 663.8776,480.8671 663.1011,483.1462"/>
    <polyline points="664.9364,484.8513 666.0939,479.4701 667.1129,472.3584"/>
    <polyline points="669.0704,473.5412 668.3047,477.1853 667.7373,486.5148"/>
    <line x1="671.2344" x2="670.53" y1="488.1214" y2="474.7662"/>
    <polyline points="660.6418,470.0451 661.6361,481.4178 660.6418,470.0451 661.1941,447.4475 661.1143,457.781"/>
    <line x1="659.483" x2="657.7089" y1="456.0976" y2="446.1955"/>
    <polyline points="654.9453,444.8801 655.6226,450.0926 656.9842,454.4649"/>
    <polyline points="653.6169,452.896 652.8678,450.4958 653.1394,443.4924"/>
    <line x1="651.6695" x2="650.1579" y1="442.0285" y2="451.3996"/>
    <line x1="652.0174" x2="649.9301" y1="465.0937" y2="474.6611"/>
    <line x1="652.5159" x2="653.0695" y1="474.123" y2="476.2897"/>
    <line x1="655.1709" x2="656.6075" y1="473.608" y2="477.97"/>
    <line x1="659.6144" x2="657.8845" y1="479.6857" y2="472.2845"/>
    <line x1="647.762" x2="649.6006" y1="473.097" y2="466.3444"/>
    <line x1="647.1085" x2="646.2679" y1="466.8285" y2="471.6059"/>
    <line x1="644.5469" x2="644.5404" y1="470.1911" y2="467.4051"/>
    <line x1="641.9012" x2="641.9012" y1="468.8506" y2="468.8506"/>
    <line x1="682.0611" x2="680.0871" y1="480.3268" y2="493.8267"/>
    <polyline points="682.5093,495.0786 682.4648,491.4638 684.3747,481.9006"/>
    <polyline points="685.9179,483.5375 684.9154,489.1057 685.8318,496.2804"/>
    <polyline points="689.318,497.4488 687.4422,487.5718 687.5476,485.2239"/>
    <line x1="690.0434" x2="690.0434" y1="486.9431" y2="486.9431"/>
    <polyline points="693.409,488.6759 692.7119,486.4899 693.3406,477.2214"/>
    <polyline points="691.8241,476.0546 690.0434,486.9431 692.0845,498.6029"/>
    <polyline points="696.8691,490.4022 695.4362,485.3254 695.0129,478.3752"/>
    <line x1="697.5823" x2="699.5638" y1="479.5363" y2="492.1024"/>
    <line x1="701.3187" x2="700.9867" y1="493.7587" y2="480.7241"/>
    <polyline points="701.7958,517.0881 700.0633,526.4564 702.0743,540.1427 699.9147,549.7281"/>
    <polyline points="702.9223,551.361 702.4575,549.1998 704.4606,537.9388 703.4498,527.9583 702.7405,525.5697 703.3003,518.5464"/>
    <polyline points="704.9967,519.9287 705.4714,525.1671 706.8943,529.5322 706.7812,535.4828 705.3296,542.7097 705.0737,548.6755 706.4604,553.0445"/>
    <polyline points="709.5991,554.762 707.7552,547.332 707.4187,543.9114 709.5508,531.1692 707.6047,521.2391"/>
    <polyline points="711.0277,522.4869 711.2791,532.8557 710.4893,545.0798 711.7664,556.4945"/>
    <line x1="713.2603" x2="714.0307" y1="558.2219" y2="555.9333"/>
    <line x1="716.2592" x2="714.9819" y1="554.5163" y2="559.9245"/>
    <line x1="717.6284" x2="718.4707" y1="561.5843" y2="552.2198"/>
    <line x1="720.6852" x2="721.0686" y1="549.8079" y2="563.1863"/>
    <polyline points="691.314,566.8688 690.4579,557.4944 691.7924,543.8963 690.0657,534.1464"/>
    <polyline points="688.4547,532.483 687.744,534.6109 688.2956,542.6183 689.0623,546.1976 688.9982,555.9509 688.2249,558.2562 687.7974,565.4538"/>
    <polyline points="684.9231,564.1131 687.1053,554.3398 684.9949,541.3968 685.4756,535.2183 686.8972,530.778"/>
    <polyline points="684.5492,529.0495 682.6075,540.2162 683.5068,550.2578 684.2354,552.6729 683.7993,559.652 683.0264,562.8395"/>
    <polyline points="681.5668,561.6214 680.7199,550.9657 681.2744,527.3175"/>
    <polyline points="677.0202,536.7314 676.5845,543.0159 675.1537,547.5047"/>
    <polyline points="673.6102,545.7909 674.3103,543.6735 673.6982,535.5235"/>
    <line x1="670.2117" x2="671.981" y1="534.2634" y2="544.1137"/>
    <line x1="677.4682" x2="679.4414" y1="549.2363" y2="537.9034"/>
    <line x1="681.0325" x2="680.7199" y1="539.0583" y2="550.9657"/>
    <line x1="691.7924" x2="691.7924" y1="543.8963" y2="543.8963"/>
    <line x1="702.0743" x2="702.0743" y1="540.1427" y2="540.1427"/>
    <line x1="751.8351" x2="750.0358" y1="510.6385" y2="498.0361"/>
    <polyline points="752.5555,499.7337 754.4979,508.161 754.5784,511.8008"/>
    <polyline points="756.3688,512.9545 757.0925,506.2467 755.9342,501.4587"/>
    <polyline points="759.3849,503.1917 759.6123,505.3173 757.8419,514.1197"/>
    <polyline points="762.9757,516.5595 762.4765,513.4681 763.7942,506.6019"/>
    <polyline points="765.282,508.2428 765.1075,512.6015 766.5165,517.8651"/>
    <line x1="768.0" x2="767.4259" y1="512.3004" y2="509.8215"/>
    <polygon points="762.0559,504.9125 759.9175,515.3156"/>
    <line x1="711.215" x2="711.215" y1="372.5092" y2="372.5092"/>
    <line x1="701.6523" x2="701.6523" y1="366.927" y2="366.927"/>
    <line x1="602.026" x2="599.9267" y1="540.0869" y2="549.8161"/>
    <polyline points="597.7776,548.2135 599.6038,541.4947 599.4335,538.7365"/>
    <polyline points="596.018,537.3112 597.106,542.0511 596.2885,546.6797"/>
    <polyline points="594.554,545.2209 594.5326,542.5503 592.5993,535.8098"/>
    <line x1="590.0004" x2="591.8885" y1="534.2363" y2="543.8382"/>
    <line x1="570.3183" x2="570.3183" y1="534.1787" y2="534.1787"/>
    <polyline points="562.1107,528.5787 559.9769,515.1153 561.9265,505.1597 560.287,492.449 561.5105,481.5627 560.782,469.9006 561.5105,481.5627 560.287,492.449 561.9265,505.1597 559.9769,515.1153 562.1107,528.5787 559.9306,538.0081 562.0162,551.7371"/>
    <line x1="559.9306" x2="559.9306" y1="538.0081" y2="538.0081"/>
    <line x1="571.4736" x2="571.4736" y1="520.7805" y2="520.7805"/>
    <line x1="574.0069" x2="572.6518" y1="569.5686" y2="576.0"/>
    <line x1="574.999" x2="575.4663" y1="575.682" y2="571.2907"/>
    <line x1="577.4167" x2="577.6445" y1="572.9827" y2="575.1299"/>
    <line x1="580.3505" x2="580.3505" y1="574.6272" y2="574.6272"/>
    <polygon points="570.5617,576.0 572.1065,567.8355"/>
    <polygon points="620.9885,576.0 621.0946,572.6436"/>
  </g>
</svg>
