<?xml version="1.0" encoding="utf-8" ?>
<svg xmlns="http://www.w3.org/2000/svg" xmlns:cc="http://creativecommons.org/ns#" xmlns:dc="http://purl.org/dc/elements/1.1/" xmlns:ev="http://www.w3.org/2001/xml-events" xmlns:inkscape="http://www.inkscape.org/namespaces/inkscape" xmlns:rdf="http://www.w3.org/1999/02/22-rdf-syntax-ns#" xmlns:sodipodi="http://sodipodi.sourceforge.net/DTD/sodipodi-0.dtd" xmlns:xlink="http://www.w3.org/1999/xlink" baseProfile="tiny" height="22.86cm" version="1.2" viewBox="0 0 1152.0 864.0" width="30.48cm">
  <metadata>
    <rdf:RDF>
      <cc:Work>
        <dc:format>image/svg+xml</dc:format>
        <dc:source/>
        <dc:date>2021-10-05T21:46:11.866891</dc:date>
      </cc:Work>
    </rdf:RDF>
  </metadata>
  <defs/>
  <g fill="none" id="layer2.0" inkscape:groupmode="layer" inkscape:label="2" stroke="#00f" style="display:inline">
    <line x1="655.0617" x2="650.0144" y1="288.0" y2="290.759"/>
    <polyline points="650.5842,294.4079 658.9333,289.5172 661.6821,289.1043"/>
    <line x1="662.0812" x2="662.0812" y1="291.2434" y2="291.2434"/>
    <polyline points="661.9406,293.4299 664.2596,292.9762 670.9672,288.459"/>
    <polyline points="670.2486,292.0707 665.7565,294.6955 661.3304,296.013"/>
    <line x1="660.5548" x2="669.9041" y1="299.1441" y2="295.3173"/>
    <line x1="670.1054" x2="660.0006" y1="298.0194" y2="302.7014"/>
    <polyline points="652.0751,303.6821 647.0428,304.763 636.2106,312.562 630.6376,313.6483 625.1631,316.9153"/>
    <polyline points="622.4409,315.753 630.0412,311.4666 632.7158,310.9734 643.7864,303.2404 651.9567,301.098"/>
    <polyline points="651.3607,297.9657 640.2724,301.7934 651.3607,297.9657 666.8089,288.0"/>
    <polyline points="614.5433,288.0 614.4248,288.101 603.4374,291.9303 600.6527,294.3355 592.5123,298.6474 589.9194,299.1357"/>
    <polyline points="590.0483,296.9146 600.0492,290.6982 607.3638,288.0"/>
    <polyline points="611.2601,296.0184 602.0576,303.7307 591.7789,308.5773 602.0576,303.7307 611.2601,296.0184 620.1969,292.0146 626.4149,288.0"/>
    <line x1="626.4149" x2="620.1969" y1="288.0" y2="292.0146"/>
    <line x1="622.4282" x2="630.1992" y1="293.208" y2="288.0"/>
    <line x1="631.1904" x2="625.6183" y1="290.2776" y2="294.3718"/>
    <line x1="629.1492" x2="631.8582" y1="295.5254" y2="293.2369"/>
    <line x1="632.0975" x2="632.0975" y1="296.689" y2="296.689"/>
    <line x1="640.0871" x2="644.9011" y1="296.8433" y2="295.3123"/>
    <line x1="642.9528" x2="640.721" y1="293.8753" y2="294.7282"/>
    <line x1="641.4934" x2="641.4934" y1="292.3624" y2="292.3624"/>
    <line x1="639.9077" x2="647.8326" y1="299.0924" y2="296.6739"/>
    <polyline points="640.2724,301.7934 629.9223,309.3244 620.6663,314.5993"/>
    <polyline points="628.6337,318.1055 631.414,316.221 639.5156,314.0801 649.3641,306.3556 651.6567,305.8691"/>
    <polyline points="650.9103,308.0078 641.9099,315.5225 631.9834,319.3414"/>
    <polyline points="651.5712,324.0734 643.2318,326.5502 640.4624,327.8262 632.4383,334.2845 629.8988,335.106 622.7226,338.3293 620.4531,340.8051 613.7958,344.5464 611.562,345.1757"/>
    <polyline points="612.0458,342.8273 621.2201,337.1416 630.1694,332.7612 639.9616,324.9623 650.8079,320.6128 661.8481,314.8842 672.0251,307.6242 681.1589,303.8733 690.1299,296.7731"/>
    <polyline points="689.9008,299.053 680.4,306.8337 673.7354,309.0061 664.5505,316.5737 662.0981,316.9957 654.2966,321.7752"/>
    <polyline points="657.0706,322.9289 661.8,319.2686 666.3108,318.2149 670.7365,314.6711 675.2338,310.464 679.9396,309.2649 684.9343,306.3813 690.2192,301.8045"/>
    <polyline points="690.9262,305.095 688.1422,307.5643 680.0074,311.394 677.4173,311.997 670.0961,318.2078 667.7916,319.794 661.1023,322.0089 658.8846,324.094"/>
    <line x1="659.9257" x2="652.9176" y1="328.9145" y2="333.3502"/>
    <line x1="654.8992" x2="660.0334" y1="335.0726" y2="332.5153"/>
    <line x1="660.6225" x2="657.8657" y1="335.736" y2="336.765"/>
    <line x1="661.3992" x2="661.3992" y1="338.4101" y2="338.4101"/>
    <polyline points="652.0032,329.4854 649.5854,329.8935 641.8832,334.8627 639.1818,337.1043 630.8643,339.4843 628.0839,340.8527 619.982,347.2561 617.4077,348.0055 610.1331,351.4021"/>
    <polyline points="610.7974,348.0283 619.9581,344.2733 624.9203,339.5615 630.1765,337.2183 635.657,335.7323 641.2306,331.2087 646.741,328.1987 652.049,327.045"/>
    <polyline points="642.0948,338.4055 631.6191,342.2135 620.5129,349.7058 609.9005,355.0542 620.5129,349.7058 631.6191,342.2135 642.0948,338.4055 660.353,325.2897 669.9058,321.3015 680.5695,313.5988 691.6694,308.7232"/>
    <polyline points="702.0877,303.63 711.3992,296.0124 720.3037,292.1235 711.3992,296.0124"/>
    <polyline points="710.6225,299.1919 712.8657,297.4866 719.9137,295.3237 722.4041,293.3384"/>
    <polyline points="725.485,294.5148 720.0648,297.9762 714.8992,299.0349 710.0334,302.7737"/>
    <polyline points="709.9257,306.4113 717.9175,300.6501 720.6815,300.1978 729.026,295.671"/>
    <polyline points="731.7598,293.3095 739.5986,290.684 742.0646,289.5265 743.7048,288.0"/>
    <polyline points="738.5443,288.0 736.593,289.0131 731.0454,290.2485"/>
    <line x1="699.984" x2="707.2984" y1="290.8222" y2="288.0"/>
    <polyline points="714.3381,288.1083 703.2925,292.0299 700.5176,294.4794"/>
    <polyline points="701.291,298.0099 706.7857,293.2898 717.055,289.5182"/>
    <polyline points="718.8258,290.8541 711.9762,293.3812 709.574,294.6145 701.9188,301.0927"/>
    <polyline points="710.3529,309.7303 721.4565,302.3202 741.6191,292.3002 746.5301,288.0"/>
    <line x1="721.4565" x2="721.4565" y1="302.3202" y2="302.3202"/>
    <polyline points="711.8482,319.2325 702.025,327.0245 691.1588,331.2733 680.1299,337.1489"/>
    <polyline points="680.7922,339.4473 683.5814,338.8751 691.8379,334.9336 694.4945,332.4749 704.3955,328.5214 711.1747,322.0237"/>
    <polyline points="710.4135,325.3481 705.9627,329.942 701.5218,331.545 696.9383,333.7265 692.0986,338.4474 686.9589,340.6079 681.5575,342.2273"/>
    <polyline points="682.0442,345.5423 691.8108,341.5021 698.5406,335.0415 700.7521,333.77 707.5622,331.288 709.9441,328.9873"/>
    <polyline points="710.0006,332.5662 700.1054,336.4287 691.1182,344.0139 700.1054,336.4287"/>
    <polyline points="699.9041,339.6348 692.653,345.651 690.366,346.1697 683.6952,350.3324 681.471,352.7626 672.096,356.6351 664.3242,363.1538 653.2717,366.9725 650.4986,369.3699"/>
    <polyline points="649.976,365.7366 660.8484,361.7115 671.8736,353.9872 682.0096,349.1786"/>
    <polygon points="682.0096,349.1786 691.1182,344.0139"/>
    <polyline points="679.9112,360.795 670.3202,367.0533 690.6075,353.9453 701.7015,350.1534"/>
    <polyline points="700.9672,346.8587 698.1812,348.7273 690.0258,350.8672 680.0733,358.5823 677.7607,359.062 671.0614,363.4204 668.846,365.8169 659.5783,369.6346 651.907,376.1532"/>
    <polyline points="652.0905,378.7996 661.4189,371.0764 670.3202,367.0533 661.4189,371.0764"/>
    <polyline points="662.8832,372.5938 669.9174,370.3575 672.4022,368.2438 680.2913,362.9207"/>
    <polyline points="681.0242,365.339 670.0537,373.1248 664.8988,374.1818"/>
    <polyline points="667.8996,375.8304 670.6613,375.4149 679.0073,370.5599 681.7443,368.2833"/>
    <polyline points="681.8957,375.3874 674.5819,379.2489 671.9943,379.8429 663.8646,386.0367 661.0811,387.6382"/>
    <polyline points="661.7852,390.0239 667.0657,387.2768 672.0552,382.6517 676.7566,380.982 681.2514,378.8837"/>
    <polyline points="680.4811,381.91 678.2525,382.7044 671.5893,385.9904 669.3111,388.4701 662.0972,392.1423"/>
    <polyline points="661.1956,397.0524 654.4076,403.5731 652.0379,404.6165"/>
    <polyline points="651.5404,406.7666 655.984,404.9503 660.4315,400.2745"/>
    <polyline points="659.9503,403.8758 657.5735,406.2561 650.7729,408.9376"/>
    <polyline points="648.5618,410.0555 641.825,416.5688 632.0374,420.4702"/>
    <polyline points="631.5391,417.2584 636.9484,415.8252 642.0987,413.4012 646.9492,408.6997"/>
    <polyline points="644.4853,407.413 641.824,409.8252 633.5603,414.0977 630.7714,414.5936"/>
    <line x1="630.117" x2="630.117" y1="412.3653" y2="412.3653"/>
    <polygon points="630.117,412.3653 641.1378,406.1844"/>
    <line x1="629.9023" x2="637.6658" y1="410.245" y2="404.9992"/>
    <line x1="634.9398" x2="630.2343" y1="403.8394" y2="407.8507"/>
    <line x1="630.9475" x2="633.1624" y1="404.9368" y2="402.6853"/>
    <line x1="631.6862" x2="631.6862" y1="401.5168" y2="401.5168"/>
    <polyline points="621.6974,403.3626 618.9514,404.2667 610.6026,410.765 607.8484,411.9435 599.9104,414.5405 597.4064,416.8915"/>
    <polyline points="595.5039,415.736 600.0762,411.4954 604.9,410.2764 610.0234,407.4419 615.4128,402.8466 620.9619,401.241"/>
    <polyline points="620.2448,399.0168 612.399,401.5011 609.9305,403.803 602.9357,408.5689 600.702,408.9922 594.0446,414.562"/>
    <line x1="592.0964" x2="601.4757" y1="413.3507" y2="406.8396"/>
    <polygon points="601.4757,406.8396 610.3703,400.2234"/>
    <polyline points="599.5885,405.108 602.0116,404.6715 611.1234,397.0486 617.808,394.8956 620.1084,393.1548"/>
    <polygon points="619.9036,396.3596 610.3703,400.2234"/>
    <polyline points="620.7572,389.5612 616.3311,393.3569 611.8144,394.4221 607.0752,397.8216 602.0425,402.1297 596.7252,403.3943"/>
    <polyline points="593.2112,401.7172 601.553,399.0421 604.2818,396.6638 612.0986,392.2142 614.5565,391.75 621.5264,385.9311"/>
    <polyline points="622.0232,379.8775 619.383,381.2846 611.1536,387.6603 608.3639,388.3813 600.1267,391.8523"/>
    <polyline points="599.9012,388.4564 610.3955,384.7062 615.9415,380.0025 621.503,377.5937"/>
    <polyline points="620.7314,375.483 612.5513,378.7776 609.9382,381.2577 602.5462,384.9207 600.2229,385.5748"/>
    <line x1="600.9315" x2="610.0097" y1="383.2051" y2="377.5948"/>
    <polyline points="610.5743,374.1046 617.4781,371.5563 619.9064,370.3401 627.6396,363.8551 638.6743,359.869 641.4517,357.4028"/>
    <polyline points="640.6765,353.9055 635.1903,358.6249 629.9245,360.8666 624.9517,362.4242 620.2643,366.9934 615.7772,369.8962 611.3506,371.088"/>
    <polyline points="611.9514,368.6096 614.2748,368.1934 620.9884,363.3479 623.2016,361.0685 630.0359,358.6268 632.4304,357.319 640.062,350.8778"/>
    <polygon points="639.9146,348.3898 630.6274,355.9418"/>
    <polyline points="640.3077,346.2427 638.0551,346.7451 629.157,354.4886 622.0885,356.634 611.6653,364.2865"/>
    <polyline points="610.921,361.7185 616.4847,357.3682 621.9159,354.0346 627.097,352.9601 636.593,345.1619 641.0454,344.0678"/>
    <polyline points="641.7598,341.5101 634.5986,343.6498 624.0533,351.3623 621.286,351.8403 612.9443,356.2083 610.2155,358.603"/>
    <line x1="609.9005" x2="609.9005" y1="355.0542" y2="355.0542"/>
    <line x1="620.5129" x2="620.5129" y1="349.7058" y2="349.7058"/>
    <polygon points="630.6274,355.9418 621.7177,359.7818 612.0772,366.466 621.7177,359.7818"/>
    <line x1="630.6274" x2="630.6274" y1="355.9418" y2="355.9418"/>
    <polyline points="642.001,361.0651 631.097,365.3619 620.0931,373.1587 610.0097,377.5948 620.0931,373.1587"/>
    <polygon points="611.8345,390.0864 622.0325,382.6352"/>
    <polygon points="600.7871,395.5088 611.8345,390.0864"/>
    <line x1="600.7871" x2="589.9548" y1="395.5088" y2="400.0929"/>
    <polyline points="580.3572,381.9266 587.412,375.4271 589.9052,374.2527"/>
    <polyline points="590.0991,372.0635 585.5409,374.0867 581.1075,378.8004"/>
    <polyline points="581.8035,375.2457 584.0798,372.8135 590.7416,369.9261"/>
    <line x1="591.5123" x2="582.0983" y1="367.467" y2="371.5956"/>
    <polyline points="590.2565,376.8417 579.9268,384.5049 570.6866,389.4883"/>
    <line x1="571.4612" x2="578.1128" y1="385.8747" y2="382.8344"/>
    <line x1="576.6444" x2="572.0053" y1="381.1248" y2="382.6235"/>
    <line x1="572.0475" x2="574.5978" y1="379.9163" y2="379.3946"/>
    <polyline points="571.5667,377.6636 560.4579,384.6724 549.8987,388.4333 540.4576,395.7708 531.5665,401.3817 522.0983,405.8174"/>
    <polyline points="521.8037,403.4929 529.5977,400.1988 532.0474,397.7188 538.9984,394.0552 541.2252,393.4013 547.8912,387.108 550.1729,385.6033"/>
    <polyline points="550.8588,383.2709 546.4279,385.8477 541.8799,390.52 532.0054,394.2701 526.6447,398.9739 521.1078,401.3822"/>
    <polyline points="520.3575,399.0985 523.113,397.6917 531.4615,391.3158 534.206,390.5946 542.0952,387.1241 544.5801,384.6397 551.6145,381.1598"/>
    <polyline points="551.9811,376.1367 541.0509,379.9343 538.2622,382.3127 530.0677,386.7617 527.4471,387.226 517.7008,394.9155 510.9776,397.0554 508.7655,398.8843"/>
    <polyline points="507.0358,397.6854 511.7095,394.5235 516.1894,393.4138 525.1492,385.6192 529.9128,384.5539 534.9725,381.1549 540.312,376.8465 545.8388,375.5816 551.4092,372.8507"/>
    <polyline points="550.6326,369.224 542.5031,373.8679 539.9155,374.3045 530.2994,381.9276 523.6123,384.0806 514.5072,391.8401 512.0869,392.3596 504.3772,396.5187"/>
    <polyline points="500.9318,395.3648 490.0098,400.1764 480.093,407.8998 471.0967,411.9232"/>
    <polyline points="470.3485,415.5561 472.6394,413.1594 479.9064,410.4226"/>
    <polyline points="480.2645,412.5829 474.9517,414.4558 469.9244,419.1455"/>
    <polyline points="470.0361,422.3411 478.2019,415.8224 480.9887,414.7427"/>
    <line x1="481.7179" x2="470.6277" y1="417.2646" y2="424.9888"/>
    <line x1="460.1433" x2="471.1801" y1="407.2514" y2="401.4507"/>
    <line x1="467.6943" x2="459.8997" y1="399.727" y2="403.5891"/>
    <line x1="460.2041" x2="464.929" y1="400.0926" y2="397.9939"/>
    <line x1="463.1219" x2="460.9047" y1="396.2715" y2="397.0661"/>
    <polyline points="461.6522,394.5792 452.0906,402.1296 441.4192,405.9687"/>
    <polyline points="441.9859,409.5341 444.5784,407.2557 451.9068,404.8159"/>
    <polyline points="451.2702,407.0564 446.7705,408.6119 442.0604,413.1799"/>
    <polyline points="441.6055,416.5277 448.2714,410.0432 450.4983,409.1734"/>
    <line x1="449.9759" x2="440.8481" y1="411.5506" y2="419.3475"/>
    <line x1="431.4368" x2="440.3356" y1="401.2404" y2="395.8954"/>
    <line x1="438.8643" x2="431.9942" y1="394.1953" y2="397.5886"/>
    <line x1="432.0552" x2="437.0656" y1="394.2158" y2="392.469"/>
    <line x1="434.3113" x2="431.5895" y1="390.7362" y2="391.3645"/>
    <polyline points="430.8292,389.017 441.8617,383.328 452.0171,378.95 461.1375,371.151"/>
    <polyline points="461.8238,368.7953 459.4851,369.6332 452.038,376.1013 449.4078,377.3572 441.1959,379.8572 438.4065,382.1669 430.1534,386.9044"/>
    <polyline points="429.8992,384.6407 440.4318,376.8705 445.9843,375.7047 451.5407,372.7306 456.9493,368.1911 462.0987,366.6817"/>
    <polyline points="461.8252,364.4247 453.5621,366.8245 450.7732,369.0791 442.5737,374.0072 439.9504,374.4176 432.5255,379.8463 430.1931,381.9152"/>
    <polygon points="430.8888,378.6476 450.1181,365.5283 439.9917,372.2821"/>
    <polyline points="431.6393,375.0277 438.3117,370.5491 440.5351,370.0896 449.9022,362.4091 457.6669,360.2683 460.3837,358.4525"/>
    <polygon points="461.1396,361.7103 450.1181,365.5283"/>
    <polyline points="459.9345,354.8364 454.9393,358.7507 450.233,359.8376 445.7355,363.1016 441.3097,367.4938 436.7992,368.8283 432.0704,371.4211"/>
    <polyline points="431.9671,368.1867 441.9293,364.3497 444.2438,361.9392 450.9456,357.6564 453.1606,357.1626 460.016,351.2257"/>
    <polygon points="460.5874,347.9812 451.6847,355.5139"/>
    <polyline points="461.364,345.2814 459.1222,346.6095 452.0818,353.0389 441.6988,357.1392 438.953,359.6204 430.6043,363.2559"/>
    <polyline points="430.0243,361.1393 435.4143,358.4245 440.9638,353.7893 446.5227,352.0952 451.9388,350.0261 457.0986,345.3085 461.9584,343.0331"/>
    <polyline points="462.0743,340.9179 454.0898,344.0685 451.3271,346.5383 442.9817,350.3621 440.2461,350.9669 432.3991,357.1807 429.9301,358.7641"/>
    <line x1="430.3688" x2="439.9038" y1="355.8751" y2="348.6398"/>
    <polyline points="440.1074,346.529 437.8066,346.9475 428.9027,354.4983 422.0109,356.6778 411.8715,364.4629"/>
    <polyline points="411.2116,361.6979 416.7266,357.1088 422.0431,354.2576 427.0748,353.0455 431.8131,348.8161 436.3294,345.3026 440.7554,344.2476"/>
    <polyline points="441.5248,341.4938 434.556,343.7191 432.0986,345.287 424.2831,351.5174 421.5545,352.1314 413.213,355.9234 410.4456,358.3957"/>
    <line x1="409.9553" x2="400.1823" y1="354.7635" y2="359.8905"/>
    <polyline points="400.8729,357.7294 407.6322,353.6094 409.9854,351.173 420.1278,347.2864 428.3657,340.7699 431.1555,339.6714"/>
    <polyline points="430.3971,337.5061 425.0149,339.4087 419.901,344.1046 415.0865,346.5635 410.5207,347.975 406.0852,352.441 401.6262,355.5704"/>
    <polyline points="402.0667,353.0508 411.2944,345.3248 413.5075,344.8372 420.2216,340.5217 422.5453,338.1172 429.9387,335.351"/>
    <polyline points="430.0089,332.8414 420.9297,336.8848 430.0089,332.8414 440.0942,325.1077 451.0989,320.3304 462.0018,315.1315"/>
    <polyline points="461.4534,312.6317 458.6761,313.4421 450.3502,316.6906 447.6407,319.1681 439.9062,322.8814 437.4774,323.5195 430.5726,329.789"/>
    <line x1="428.3522" x2="421.6722" y1="331.3184" y2="333.5678"/>
    <line x1="422.0789" x2="426.8268" y1="330.7854" y2="329.7255"/>
    <line x1="424.5597" x2="421.947" y1="328.073" y2="328.4855"/>
    <line x1="421.3424" x2="421.3424" y1="326.3754" y2="326.3754"/>
    <polyline points="431.3488,326.2766 435.7755,322.0017 440.263,320.7606 444.9511,317.9776 449.9249,313.3643 455.1915,311.7213 460.6783,309.5904"/>
    <polyline points="460.063,306.0848 452.43,309.9883 450.0351,310.5706 443.1998,316.7415 440.9866,318.3632 434.2735,320.5597 431.9505,322.6161"/>
    <polyline points="432.0776,319.1933 441.7163,315.4453 450.6257,308.2632"/>
    <polyline points="451.4024,306.1532 458.0535,301.2566 460.3063,298.9924"/>
    <line x1="461.0436" x2="451.9778" y1="296.0632" y2="303.8532"/>
    <line x1="452.065" x2="461.7585" y1="301.0708" y2="293.6571"/>
    <line x1="462.0946" x2="451.6206" y1="291.5342" y2="297.7538"/>
    <polygon points="459.9143,302.4233 450.6257,308.2632"/>
    <polyline points="480.1788,306.8723 489.957,299.2335 492.5854,298.7917 500.794,294.1897 503.5833,291.8456 511.8391,289.2666 514.4953,288.0744 514.5816,288.0"/>
    <polyline points="518.3075,288.0 516.9373,289.41 512.0985,291.462 506.9598,293.1707 501.559,297.8117 496.0055,300.5073 490.4501,301.789 485.0443,306.1196 479.8988,309.4845"/>
    <polyline points="480.1672,311.6852 488.4277,307.2784 491.2167,304.8913 502.0447,301.0848 509.4756,294.569 518.5387,290.6791 520.7503,288.2413"/>
    <polyline points="520.1043,291.8938 511.1164,296.0436 502.0089,303.8164 480.8502,313.8163 491.8747,308.4329"/>
    <polyline points="492.0959,312.0872 484.3255,315.519 481.6073,316.2547"/>
    <line x1="482.061" x2="491.77" y1="319.224" y2="315.4716"/>
    <polyline points="491.0596,318.3379 488.8442,318.9789 481.985,322.6829"/>
    <polygon points="481.4172,326.3462 490.3188,320.6963"/>
    <polyline points="480.6408,329.8267 482.8817,327.5061 489.9171,322.8103 492.4024,322.3798"/>
    <polyline points="495.468,324.0126 490.0547,325.0652 484.8988,328.6602 480.0429,332.8284"/>
    <polyline points="479.9216,335.2938 490.663,327.7759 499.0089,325.5816"/>
    <polyline points="501.7457,323.9554 509.5982,317.7898 512.0692,317.21 519.07,313.297 521.3047,310.8353 530.2293,306.8699"/>
    <polyline points="529.9018,309.4345 511.635,319.4009 502.093,327.0781 511.635,319.4009 520.5304,314.4539"/>
    <polyline points="519.9896,318.0619 510.8836,321.9932 504.1969,328.4983 501.8946,329.653 494.5822,332.2823 491.9951,334.6452"/>
    <polyline points="492.0547,338.2573 496.7553,333.5976 505.6755,329.844 510.1896,325.1339 514.9243,322.7752 519.952,321.2997"/>
    <polyline points="520.4363,323.9921 517.709,324.5046 509.899,328.6962 507.4436,331.1218 498.2507,334.9853 491.5877,341.5051"/>
    <line x1="490.8271" x2="490.8271" y1="344.2085" y2="344.2085"/>
    <polyline points="490.1521,346.4589 492.4981,345.7823 499.9709,339.4582 502.6088,337.9876 510.8344,335.6962 513.6241,333.5239 521.8649,328.3522"/>
    <polyline points="522.0969,330.7247 511.5939,338.5223 506.0465,339.5943 500.486,342.9436 495.0653,347.2841 489.8992,348.5737"/>
    <polyline points="490.1946,350.9377 498.4686,348.7097 509.4413,341.2578 512.0567,340.8519 519.456,335.8366 521.7814,333.6099"/>
    <polyline points="521.0756,337.0086 501.8989,350.0605 490.8909,353.8116 479.9926,361.0738"/>
    <polyline points="480.5371,363.1854 483.3138,362.7632 491.641,357.2018"/>
    <polyline points="492.0709,360.8573 486.8007,364.404 481.3118,365.4575"/>
    <polyline points="481.9304,368.1966 489.5693,365.9826 491.9661,364.3947"/>
    <polyline points="492.8482,368.9207 499.9104,362.4074 510.3246,358.5062"/>
    <polyline points="511.0669,361.7178 505.5042,363.1507 500.0763,365.5752 494.9,370.2766"/>
    <polyline points="497.936,371.5634 500.7022,369.1513 509.0449,364.8781 511.7752,364.3824"/>
    <polyline points="511.8702,368.7309 502.0118,376.1214 493.9047,378.3844 491.1237,379.8937"/>
    <line x1="490.3705" x2="501.476" y1="376.8561" y2="372.792"/>
    <polygon points="501.476,372.792 512.0964,366.6106"/>
    <polyline points="510.4437,374.0395 508.211,376.2912 501.5527,381.2286 499.2816,381.6384 492.0986,387.0588"/>
    <polygon points="491.8343,390.4924 500.7868,383.3386"/>
    <polyline points="491.1533,393.4252 493.3636,391.7838 500.1265,385.6362 502.4818,385.065 509.9862,381.1199"/>
    <polyline points="510.5226,384.6345 505.0877,386.7978 499.9012,388.4149 495.014,393.016 490.3953,395.8343"/>
    <polyline points="489.9381,397.9579 497.5464,394.2038 500.2231,391.7288 511.2964,387.6904"/>
    <polyline points="511.9218,390.2033 500.9318,395.3648 511.9218,390.2033 521.9737,382.6167"/>
    <polyline points="522.0672,379.9592 529.4352,377.4752 531.752,375.1735 538.4568,370.407 540.6712,369.9838 549.9233,362.4105"/>
    <polyline points="550.3443,359.7422 545.8792,363.2405 541.4467,367.4808 536.892,368.6996 532.0938,371.5346 526.997,376.1296 521.628,377.7348"/>
    <polyline points="520.875,375.6133 523.6647,374.7095 531.8896,368.2113 541.9987,364.4359 544.3444,362.085 551.0915,357.5119"/>
    <polyline points="551.7925,355.3922 542.0522,360.928 531.2412,365.4213 520.1838,373.2131"/>
    <polyline points="511.2095,371.1254 502.0424,378.9187 497.0753,379.9821 491.8146,383.3971"/>
    <polygon points="500.7868,383.3386 509.9547,377.4597"/>
    <line x1="487.5511" x2="480.7311" y1="398.5833" y2="404.8328"/>
    <line x1="481.5027" x2="485.9412" y1="401.3117" y2="397.0602"/>
    <line x1="484.3828" x2="482.023" y1="395.6125" y2="397.6526"/>
    <line x1="482.0326" x2="482.0326" y1="394.2407" y2="394.2407"/>
    <polyline points="462.0739,392.4326 459.5973,392.9343 451.73,398.8976"/>
    <polyline points="451.0047,395.2919 456.5584,391.3506 461.9595,390.2572"/>
    <polyline points="461.366,387.6983 453.0182,389.838 450.2765,391.6712"/>
    <line x1="449.9084" x2="460.5894" y1="388.4013" y2="384.5924"/>
    <line x1="441.8617" x2="441.8617" y1="383.328" y2="383.328"/>
    <polygon points="451.6847,355.5139 442.0848,360.7855 431.381,365.4979 442.0848,360.7855"/>
    <polyline points="461.654,338.5511 450.5517,342.8753 439.9038,348.6398 430.3688,355.8751 421.4741,359.6245 412.0963,366.7515 401.603,372.6666"/>
    <polyline points="402.0596,376.0766 404.5987,373.8368 411.7737,368.8618"/>
    <line x1="411.0648" x2="401.9873" y1="371.1811" y2="378.9768"/>
    <polyline points="401.422,381.3606 408.073,376.1501 410.3229,373.9923"/>
    <line x1="409.918" x2="400.6458" y1="377.333" y2="383.4788"/>
    <line x1="390.4956" x2="384.0" y1="376.8896" y2="381.6641"/>
    <line x1="384.0" x2="387.4054" y1="378.4488" y2="375.3984"/>
    <line x1="385.2945" x2="384.0" y1="373.9834" y2="375.3151"/>
    <line x1="401.9746" x2="420.9297" y1="349.9875" y2="336.8848"/>
    <polyline points="431.8357,342.2066 420.7889,349.9199 409.9553,354.7635 420.7889,349.9199 431.8357,342.2066 442.0319,338.2012"/>
    <polyline points="469.9082,344.1526 480.3373,337.4332 491.4387,331.0304 502.093,327.0781 491.4387,331.0304"/>
    <polygon points="499.9683,336.4491 490.8271,344.2085 499.9683,336.4491 510.1568,332.3433 521.201,326.2361 510.1568,332.3433"/>
    <line x1="510.1568" x2="510.1568" y1="332.3433" y2="332.3433"/>
    <line x1="511.992" x2="511.992" y1="342.9629" y2="342.9629"/>
    <polyline points="509.9184,354.9094 500.2871,359.788 491.379,367.4897 482.0845,371.4763"/>
    <line x1="472.0179" x2="481.8604" y1="354.1973" y2="348.8876"/>
    <polyline points="482.0973,345.331 479.5446,347.7338 471.4904,352.0589"/>
    <polyline points="470.7177,349.8714 476.2921,346.5727 481.7865,342.2011"/>
    <line x1="481.0829" x2="470.0852" y1="339.6191" y2="347.286"/>
    <line x1="501.8989" x2="501.8989" y1="350.0605" y2="350.0605"/>
    <polyline points="501.026,320.4026 506.5766,316.2461 511.9696,315.0736 517.0979,312.1187 521.9265,307.5709 526.5021,306.0487 530.9404,303.758"/>
    <polyline points="531.6807,300.2111 524.5921,304.3178 522.0856,304.8491 514.1413,310.9006 511.3859,312.6176 503.0374,314.777 500.2927,316.7518"/>
    <polyline points="499.9115,313.384 510.6092,309.6272 521.7029,302.5876 532.0809,296.5583"/>
    <line x1="532.8249" x2="530.1213" y1="311.0547" y2="311.6125"/>
    <line x1="530.7783" x2="536.3516" y1="313.7572" y2="312.6088"/>
    <line x1="539.5622" x2="531.5452" y1="314.0892" y2="316.2387"/>
    <polygon points="532.0397,319.259 541.8203,315.4932"/>
    <polyline points="532.0151,322.7515 534.37,320.5891 541.1323,318.3081"/>
    <polyline points="540.3777,320.63 535.92,321.9928 531.4838,326.4142"/>
    <polyline points="530.7106,329.8602 537.5405,323.4728 539.9327,322.7404"/>
    <line x1="540.0193" x2="530.0811" y1="325.0266" y2="332.8106"/>
    <polyline points="549.9961,336.4368 554.9047,335.2027 560.1117,332.4036"/>
    <line x1="560.7626" x2="549.9472" y1="335.7142" y2="339.4965"/>
    <line x1="550.4226" x2="561.5313" y1="343.0134" y2="338.4891"/>
    <polyline points="559.9031,328.7686 552.7991,333.493 550.545,333.9204"/>
    <line x1="551.935" x2="558.7449" y1="329.6003" y2="323.9646"/>
    <polyline points="560.2408,325.1824 551.3201,331.7628 560.2408,325.1824 569.9319,321.3051"/>
    <polyline points="570.0209,318.1141 567.6863,319.8356 560.9564,321.9936"/>
    <polyline points="561.6932,319.353 566.1684,318.2916 570.5975,314.5268"/>
    <polyline points="571.3741,310.8925 564.4986,316.6802 562.0836,317.1377"/>
    <line x1="561.9332" x2="571.9636" y1="315.0129" y2="307.584"/>
    <line x1="580.7073" x2="591.7789" y1="313.7011" y2="308.5773"/>
    <polyline points="591.0721,304.9862 601.9905,301.0984 609.5339,294.5822 618.6839,290.7743 620.8944,288.386 621.4866,288.0"/>
    <polyline points="618.4642,288.0 617.005,289.4731 606.8805,293.2214 601.4288,297.9179 595.8598,300.3738 590.3287,301.7871"/>
    <line x1="581.2618" x2="587.0748" y1="290.2992" y2="288.0"/>
    <line x1="579.982" x2="577.7535" y1="288.0" y2="288.7978"/>
    <line x1="487.0424" x2="481.4009" y1="288.0" y2="290.3561"/>
    <polyline points="481.977,293.1609 484.5744,291.9627 491.9178,289.3916 493.2912,288.0"/>
    <polyline points="495.9771,288.0 495.7149,288.2056 491.2893,292.4217 486.7845,293.6261 482.0654,296.4965"/>
    <polyline points="481.6219,300.139 488.2908,295.3311 490.516,294.9118 499.1017,288.0"/>
    <line x1="387.0203" x2="384.0" y1="288.0" y2="289.3376"/>
    <line x1="384.0" x2="391.8297" y1="292.366" y2="289.3076"/>
    <polyline points="391.1464,292.4376 386.6757,293.7535 384.0,295.2639"/>
    <polyline points="384.0,298.2923 388.1497,295.4727 390.3894,295.0195"/>
    <line x1="389.9363" x2="384.0" y1="297.2055" y2="301.3314"/>
    <polyline points="401.9424,303.8858 410.9706,296.0875 420.0274,291.7632 426.5847,288.0"/>
    <polyline points="430.6936,288.1097 422.532,292.927 419.9285,295.2145 412.5664,297.671 410.2511,298.9651 403.5484,305.414"/>
    <polyline points="405.11,306.8669 409.9044,302.3581 414.9973,299.3158 420.3632,298.1725 431.4679,290.391"/>
    <polyline points="432.0082,293.1449 429.3591,295.2443 421.1148,300.6018 418.3252,301.0081 410.1034,306.0141 407.4676,308.2439"/>
    <line x1="414.2538" x2="422.0985" y1="310.7934" y2="304.9364"/>
    <polyline points="421.8085,302.7304 410.7488,309.5495 432.0452,296.4374"/>
    <line x1="421.8401" x2="417.0826" y1="307.5592" y2="311.9893"/>
    <line x1="418.9406" x2="421.1622" y1="313.1545" y2="310.7304"/>
    <line x1="420.4028" x2="420.4028" y1="314.3082" y2="314.3082"/>
    <line x1="550.953" x2="550.953" y1="320.4739" y2="320.4739"/>
    <line x1="551.6905" x2="554.3898" y1="323.9988" y2="321.6295"/>
    <line x1="557.0285" x2="552.0831" y1="322.7864" y2="327.0718"/>
    <line x1="569.9368" x2="580.2268" y1="344.2371" y2="337.289"/>
    <line x1="580.937" x2="570.0121" y1="339.5254" y2="347.2709"/>
    <polyline points="570.5794,349.7641 576.1492,346.7057 581.678,342.2046"/>
    <polyline points="582.0803,345.43 579.4903,347.8778 571.3558,351.9131"/>
    <polygon points="571.9542,354.0856 581.9433,349.0328"/>
    <line x1="574.4808" x2="581.3354" y1="355.7626" y2="352.6559"/>
    <line x1="580.5596" x2="576.1278" y1="355.9322" y2="357.4763"/>
    <line x1="577.6593" x2="580.0028" y1="359.2078" y2="358.6675"/>
    <line x1="579.9426" x2="579.9426" y1="360.9372" y2="360.9372"/>
    <line x1="568.027" x2="559.9599" y1="375.952" y2="381.1896"/>
    <line x1="559.9799" x2="564.9098" y1="377.5263" y2="374.2782"/>
    <line x1="562.7679" x2="560.5079" y1="372.6582" y2="374.0699"/>
    <line x1="561.2807" x2="561.2807" y1="371.1043" y2="371.1043"/>
    <line x1="561.2255" x2="552.8915" y1="387.6777" y2="389.8318"/>
    <line x1="549.8987" x2="549.8987" y1="388.4333" y2="388.4333"/>
    <line x1="556.4281" x2="561.8801" y1="391.3065" y2="390.1463"/>
    <line x1="562.0952" x2="559.5802" y1="392.2867" y2="392.8554"/>
    <polyline points="561.7636,394.471 552.0633,402.1345 541.281,406.0701 530.2118,412.5099"/>
    <polyline points="530.9158,414.6895 533.7051,414.2424 541.913,409.6795 544.541,407.3262 551.981,404.7233 554.3176,403.5492 561.0506,397.0496"/>
    <polyline points="560.3118,400.176 555.8385,404.8896 546.8675,408.6466 542.0892,413.2968 537.0135,415.9598 531.6611,417.2577"/>
    <polyline points="532.0762,420.3733 541.7216,416.5578 548.4159,410.0397 557.5029,406.1629 559.9155,403.7308"/>
    <polyline points="560.0593,407.3808 550.0385,411.5091 540.9937,419.2758 531.954,423.9223"/>
    <line x1="550.0385" x2="550.0385" y1="411.5091" y2="411.5091"/>
    <line x1="562.0521" x2="571.2409" y1="418.0387" y2="412.0456"/>
    <line x1="570.4716" x2="563.8162" y1="415.7005" y2="419.7681"/>
    <line x1="565.2959" x2="569.9652" y1="421.4996" y2="419.2399"/>
    <line x1="569.9741" x2="567.4052" y1="422.3384" y2="423.2133"/>
    <line x1="570.4939" x2="570.4939" y1="424.8904" y2="424.8904"/>
    <line x1="581.0759" x2="581.0759" y1="440.487" y2="440.487"/>
    <line x1="581.7816" x2="584.4562" y1="443.2621" y2="442.1027"/>
    <line x1="586.9789" x2="582.0969" y1="443.7733" y2="446.5729"/>
    <line x1="581.8647" x2="588.6238" y1="450.2079" y2="445.4829"/>
    <line x1="590.1566" x2="581.2007" y1="447.2131" y2="453.794"/>
    <polyline points="590.6089,470.845 599.9114,463.483 590.6089,470.845 581.7026,476.417 572.0809,480.8823 561.3593,488.6769 572.0809,480.8823 581.7026,476.417"/>
    <polyline points="580.9687,479.9164 574.2606,482.4893 571.9414,483.6862 564.5643,490.1783 561.956,491.0663"/>
    <polyline points="562.0754,493.1855 566.8148,491.6037 571.3318,487.0209 575.7579,484.153 580.2497,482.9476"/>
    <polyline points="579.9042,485.4385 577.4709,485.8581 570.5562,490.6631 568.3344,492.9542 561.6579,495.4173"/>
    <polyline points="560.9118,498.0881 570.0012,494.2362 580.1045,487.5866"/>
    <line x1="572.0809" x2="572.0809" y1="480.8823" y2="480.8823"/>
    <polyline points="560.0138,482.3539 565.3949,477.8794 570.9407,476.4579 576.5024,474.0153 581.9266,469.3166 591.9695,465.5679 596.5763,460.888 601.0257,458.346"/>
    <polyline points="601.7455,456.2355 594.5982,459.6766 592.0693,462.1609 584.0703,465.6705 581.305,466.3773 572.9615,472.7377 570.2295,474.1646 562.3988,476.4915 559.9358,478.6943"/>
    <polyline points="560.3878,475.1759 569.9018,471.3923 580.5307,463.963 591.6353,458.5025 602.0929,453.9494 611.4385,446.1655 620.3371,441.9678 640.5877,428.9159"/>
    <polyline points="644.1225,430.2665 641.3643,432.3698 633.0166,437.7181 630.2752,438.124 622.4008,443.1399 619.9215,445.3664 612.9009,447.7245"/>
    <polyline points="614.8988,449.3489 620.043,448.2514 631.0029,440.4538 636.5568,439.3817 641.9586,436.0329 647.0986,431.6921"/>
    <polyline points="649.0896,433.1938 642.0743,439.5181 639.5972,440.9884 631.7286,443.2801 628.9884,445.4526 620.6411,450.6237 617.8819,451.026"/>
    <polygon points="621.4175,452.7398 632.0903,446.6331"/>
    <line x1="621.4175" x2="610.319" y1="452.7398" y2="459.7174"/>
    <polyline points="611.0599,462.7374 621.9851,454.9839 624.578,454.4713 631.9078,450.2803 634.2146,447.8546 640.9066,444.9987"/>
    <polyline points="640.2054,447.1402 635.6976,449.1323 631.272,453.8425 626.7718,456.2007 622.0609,457.6766 617.0603,462.1931 611.7702,465.2187"/>
    <polyline points="612.0959,467.3634 619.3253,463.3671 621.6071,460.9145 630.4999,456.9829 637.4504,450.4779 639.8998,449.323"/>
    <polyline points="640.8116,455.021 632.5955,461.1863 629.9629,461.7659 622.5079,465.6795 620.167,468.1411 613.4274,471.2154"/>
    <polygon points="611.8745,469.5415 620.8499,464.5226"/>
    <polyline points="615.0442,472.9272 619.8988,471.4053 625.0533,466.8578 630.4657,463.9023 636.0234,462.73 641.5744,458.5739"/>
    <polyline points="642.0501,462.2246 639.4292,464.1993 631.2343,466.3585 628.4456,468.0758 620.179,474.1269 617.5159,474.6581"/>
    <polyline points="620.868,476.3883 631.8854,469.3492 642.0016,465.5923 651.0985,458.2796"/>
    <polyline points="650.3499,460.6382 643.6758,466.9125 641.4531,468.437"/>
    <polyline points="640.678,470.7799 645.1913,468.1686 649.9248,463.5047"/>
    <polyline points="650.0352,466.8893 647.4301,469.3735 640.0628,472.892"/>
    <line x1="640.3065" x2="632.404" y1="477.8915" y2="484.4072"/>
    <polyline points="630.3048,482.9326 639.9143,475.1596 650.626,470.5436"/>
    <line x1="660.5143" x2="669.9006" y1="475.2648" y2="471.4136"/>
    <polyline points="670.2166,468.1953 677.3988,462.2036 679.9406,461.6931 687.97,457.4924 690.7401,455.0682 701.8025,451.2075 709.5978,444.6875 712.0479,443.6249"/>
    <polyline points="712.0047,441.4698 706.6432,443.3159 701.106,447.9994 695.5395,450.5245 690.0983,451.8967 684.9026,456.3272 680.0058,459.5236 675.3798,460.625 670.9225,464.5955"/>
    <polyline points="671.6665,460.9699 673.9151,459.1179 680.5661,456.9785 689.9054,449.2737 692.4118,448.8007 700.356,444.4043 703.1113,442.0151 711.4599,439.3046"/>
    <polyline points="710.0667,433.6893 718.2605,427.4587 721.0491,426.8445"/>
    <polyline points="720.3106,424.7183 714.9718,425.9307 709.9131,430.1604"/>
    <polyline points="710.3008,426.5029 712.603,424.478 719.9152,422.2983"/>
    <polyline points="720.0601,419.3518 711.0365,423.1012 720.0601,419.3518 730.0377,412.2245"/>
    <polyline points="729.9237,410.1141 727.5219,410.5219 720.673,415.9086 718.4586,417.9957 711.7533,420.212"/>
    <polyline points="712.094,417.8366 716.8931,416.5644 721.4483,412.2461 725.881,408.8621 730.3457,407.795"/>
    <polyline points="731.0933,404.984 724.3456,407.2601 721.9995,408.7511 714.5265,415.057 711.8885,415.72"/>
    <line x1="711.2394" x2="711.2394" y1="413.4782" y2="413.4782"/>
    <line x1="710.4703" x2="718.8147" y1="410.7895" y2="404.2688"/>
    <polyline points="721.5788,403.2421 729.5715,400.4183 732.0978,397.9996 739.238,393.765 741.4997,393.2615 750.3925,385.5169"/>
    <polyline points="751.15,383.0224 746.6786,386.0844 742.0218,390.5838 737.0861,392.0366 731.8538,394.4299 726.3884,399.1357 720.8168,401.0962"/>
    <polyline points="720.1454,398.9198 722.8563,397.7847 731.1835,391.2749 742.0338,387.3598 744.5951,384.9125 751.8321,380.873"/>
    <polyline points="751.8168,376.1502 740.7608,380.1339 737.9887,382.5997 729.9466,386.4706 727.3993,387.0619 720.2018,393.2506"/>
    <polyline points="720.9014,389.7058 725.3623,385.5236 729.9968,384.338 734.9045,381.419 740.1106,376.8563 745.5589,375.3098 751.1271,373.053"/>
    <polyline points="750.3733,369.5142 742.4153,373.5782 739.9033,374.1196 730.5466,381.8946 723.8954,384.0601 721.6495,386.0525"/>
    <line x1="722.0732" x2="722.0732" y1="382.6728" y2="382.6728"/>
    <polyline points="721.9611,379.8126 729.5538,377.5733 738.7467,370.1417 740.9582,369.7372 747.6875,364.6853 750.0217,362.4708 757.4529,360.1289 760.0782,358.7192"/>
    <polyline points="760.7055,361.6833 749.9314,365.8591 740.2421,371.8489 731.3218,378.9193 740.2421,371.8489 749.9314,365.8591"/>
    <polyline points="751.9645,355.1225 741.9322,361.1944 730.9512,365.3207 720.0185,373.0868"/>
    <polyline points="720.5926,375.3452 723.3736,374.656 731.6891,368.3162 734.3887,366.864 742.0839,364.5581 744.4993,362.3728 751.3759,357.237 753.593,356.8343 760.2845,351.6006"/>
    <polyline points="761.0152,348.1168 751.9645,355.1225 761.0152,348.1168 768.0,345.2086"/>
    <polyline points="768.0,343.097 761.7378,345.11 752.0716,352.8706 749.471,353.3915"/>
    <polyline points="746.1067,351.6613 751.6438,350.1649 757.005,345.6341 762.0918,342.6402 766.8806,341.4811 768.0,340.4651"/>
    <polyline points="768.0,337.0777 764.5339,339.9318 761.9008,340.4994 753.6838,344.4582 750.8943,346.915 742.6457,349.9519"/>
    <polyline points="739.9487,348.2817 761.2601,338.3157 768.0,333.5329"/>
    <line x1="765.3112" x2="768.0" y1="327.8996" y2="326.9139"/>
    <line x1="768.0" x2="762.4032" y1="324.5412" y2="326.6268"/>
    <line x1="760.4765" x2="768.0" y1="325.4092" y2="322.1111"/>
    <polyline points="761.7482,314.7474 750.6662,320.7445 739.9222,324.9158 730.2724,332.6941 721.3608,337.2814"/>
    <polyline points="721.9568,333.7473 730.9992,329.949 737.7158,323.4362 747.4409,319.5329 750.0564,317.0898 758.2412,313.0179"/>
    <polyline points="754.9649,311.2865 749.9165,313.5495 745.1631,318.2678 736.2106,322.0329 731.7258,326.6641 727.0428,329.392 722.075,330.6583"/>
    <polyline points="721.6567,328.1151 724.364,327.6781 732.0899,323.0378 734.5157,320.7031 741.4141,318.147 743.6337,316.937 750.3161,310.4496 752.6146,309.573"/>
    <polyline points="751.0562,307.8962 741.9835,315.5326 731.9099,319.439 720.9103,325.9465"/>
    <line x1="739.9222" x2="739.9222" y1="324.9158" y2="324.9158"/>
    <polyline points="759.9099,355.2638 755.137,358.5085 750.5992,359.5992 741.6946,367.3979 737.0292,368.4749 732.0828,371.7928 726.8408,376.1528 721.3692,377.4586"/>
    <polygon points="731.3218,378.9193 722.0732,382.6728"/>
    <polygon points="730.421,388.6684 752.0987,378.7011 730.421,388.6684 719.8996,396.3588"/>
    <line x1="741.5297" x2="741.5297" y1="383.7576" y2="383.7576"/>
    <polyline points="749.9372,388.5522 740.7278,395.4971 731.7938,401.6434 722.0517,405.727 711.2394,413.4782 722.0517,405.727 731.7938,401.6434"/>
    <line x1="740.9921" x2="751.9532" y1="406.3098" y2="402.0865"/>
    <polyline points="754.4816,403.5778 744.4122,407.5145 741.7205,409.9686"/>
    <polyline points="742.089,413.4912 747.0141,408.7704 751.6624,406.6215 756.1297,404.9929"/>
    <polyline points="757.6604,406.3337 750.9173,408.8387 748.7066,410.0904 741.9138,416.5605"/>
    <polygon points="741.2824,419.0854 750.2129,411.4832"/>
    <polyline points="740.5096,421.2465 742.7693,420.7184 749.9003,414.6755 752.4231,412.9521 760.4075,410.7946"/>
    <polyline points="761.1677,413.4339 755.5967,414.4956 744.9095,422.2875 739.9806,423.4055"/>
    <polyline points="739.9593,425.9253 748.0253,423.7842 759.1304,416.1066 761.8437,415.6484"/>
    <polyline points="762.0984,417.7734 751.5652,425.2047 740.4563,428.9889"/>
    <line x1="750.6883" x2="759.9272" y1="434.6935" y2="430.2307"/>
    <polyline points="760.03,433.7293 752.4475,436.3 750.0685,437.4986"/>
    <polyline points="749.9126,440.8344 755.1483,437.9634 760.6159,436.7592"/>
    <polyline points="761.3926,439.2491 758.6108,439.6684 750.2982,444.4769"/>
    <polyline points="747.6011,446.767 739.9158,449.2281 737.5037,450.5181 730.6341,456.9692 721.723,461.0284"/>
    <polyline points="722.0894,457.7019 726.8686,456.0585 731.4106,453.9281 735.8403,449.2077 740.3132,446.9957 744.973,445.416"/>
    <polyline points="743.2637,443.9902 734.3188,447.96 731.9818,450.4227 724.5404,454.3255 721.912,454.908"/>
    <polyline points="721.2792,452.6005 732.0628,446.7612 741.7649,442.4882"/>
    <polygon points="740.0583,451.9002 730.0394,459.4688"/>
    <polyline points="751.0331,448.0494 740.0583,451.9002 751.0331,448.0494 761.9729,441.3968"/>
    <polyline points="751.7509,451.2099 743.4553,453.3584 732.5203,461.1098 729.923,461.6201 722.5798,465.822 720.2696,468.246 711.3572,472.1063"/>
    <line x1="711.9549" x2="720.9955" y1="469.4451" y2="464.6683"/>
    <polygon points="720.9955,464.6683 730.0394,459.4688"/>
    <polyline points="720.7246,476.2455 709.9364,482.539 700.2279,486.5441 691.3029,494.2572 682.0688,499.1014"/>
    <line x1="681.9705" x2="689.548" y1="495.5108" y2="492.6009"/>
    <polyline points="691.9255,491.624 698.7274,485.1076 707.6743,481.299"/>
    <polyline points="706.1507,479.9981 697.0221,483.7464 692.0859,488.4424"/>
    <polyline points="691.7043,484.8596 694.4002,482.4549 704.491,478.6264"/>
    <line x1="701.9425" x2="690.9709" y1="477.1789" y2="481.2226"/>
    <line x1="681.8083" x2="681.8083" y1="476.5532" y2="476.5532"/>
    <polyline points="689.2536,468.9876 682.0985,472.8917 679.5667,475.3543 668.7943,479.3235 660.4518,485.8153"/>
    <polyline points="661.2186,488.62 672.0453,480.8253 681.8083,476.5532 690.7485,470.7127 699.943,463.531"/>
    <polyline points="700.4103,460.6129 698.1733,462.2349 691.5185,468.4054"/>
    <polyline points="692.0294,465.612 696.6951,460.9988 701.171,458.2154"/>
    <polyline points="701.8458,456.0944 694.5932,459.8084 692.0264,462.2859"/>
    <line x1="691.511" x2="702.0983" y1="458.6461" y2="453.8683"/>
    <polyline points="711.568,446.1348 702.0983,453.8683 680.4031,463.8445 669.9006,471.4136 680.4031,463.8445"/>
    <polyline points="683.9408,465.5338 681.1625,466.3445 672.8392,472.7959 670.1322,474.0852 662.4079,476.5471 659.9826,478.8375"/>
    <polyline points="659.9576,482.4799 665.2785,477.8979 670.7959,476.3174 676.3685,474.1064 681.8403,469.386 687.0826,467.2546"/>
    <polyline points="672.0775,457.6869 681.3421,453.8873 690.2577,447.0676 699.9265,440.7753 710.6851,436.7696 721.7625,429.0561"/>
    <line x1="711.0365" x2="711.0365" y1="423.1012" y2="423.1012"/>
    <polyline points="699.4609,428.6137 691.2947,432.4381 688.5078,434.9079"/>
    <polygon points="691.9208,436.1011 701.9745,430.3361"/>
    <line x1="694.508" x2="701.3957" y1="437.2649" y2="432.4469"/>
    <line x1="700.619" x2="696.1912" y1="434.7284" y2="438.4185"/>
    <line x1="697.702" x2="700.0316" y1="439.5822" y2="437.4825"/>
    <polyline points="696.0855,426.8807 690.521,428.9503 685.0866,433.6679"/>
    <polyline points="682.4825,432.3669 689.9855,425.9373 692.6324,425.1569"/>
    <line x1="689.9552" x2="680.7886" y1="423.4621" y2="430.995"/>
    <line x1="688.2127" x2="690.4453" y1="421.8135" y2="421.3195"/>
    <line x1="691.2113" x2="686.7264" y1="419.1384" y2="420.2254"/>
    <line x1="684.5883" x2="691.8713" y1="418.7078" y2="416.5671"/>
    <polyline points="692.0963,413.4481 681.4743,417.266 692.0963,413.4481 701.6027,406.6938"/>
    <polyline points="702.0595,404.5584 699.5987,404.9687 691.7739,409.8974"/>
    <polyline points="689.0433,412.1518 680.7005,414.5514 677.9344,415.8997 669.9302,422.3165"/>
    <line x1="670.369" x2="681.4743" y1="424.7786" y2="417.266"/>
    <polyline points="685.5026,410.7852 680.0754,412.2942 674.8999,414.6037 670.0241,419.3187"/>
    <polyline points="670.604,415.8408 672.8496,413.3677 679.9106,410.1806 682.4063,409.343"/>
    <line x1="680.2885" x2="671.3808" y1="407.8251" y2="412.1774"/>
    <line x1="670.8891" x2="681.8978" y1="401.1689" y2="394.3839"/>
    <line x1="681.255" x2="670.1933" y1="391.2779" y2="398.9701"/>
    <polyline points="669.8992,396.3616 675.0644,391.9511 680.4844,388.7188"/>
    <polyline points="679.9702,386.5433 672.4989,390.7875 670.1533,393.2046"/>
    <polyline points="670.8289,389.6338 661.8615,394.3768 652.0172,402.12"/>
    <polyline points="659.9918,407.5001 650.1179,411.4865 641.1393,419.1879 632.0178,424.0671"/>
    <line x1="641.1393" x2="641.1393" y1="419.1879" y2="419.1879"/>
    <polyline points="650.5514,434.7676 641.6537,442.5271 632.0903,446.6331 641.6537,442.5271"/>
    <polygon points="629.9766,459.5751 640.1421,451.8981 629.9766,459.5751 620.8499,464.5226"/>
    <polyline points="611.995,443.7422 609.5822,444.6799 601.8948,451.1883"/>
    <polyline points="601.2499,447.8895 606.7555,443.2705 612.0547,441.6152"/>
    <polyline points="611.588,439.4056 603.251,441.9351 600.4798,444.2584"/>
    <line x1="599.9684" x2="610.8274" y1="440.6662" y2="436.7758"/>
    <line x1="610.1523" x2="607.4982" y1="433.5977" y2="435.3011"/>
    <line x1="605.0652" x2="609.8992" y1="433.7522" y2="430.0166"/>
    <line x1="610.1944" x2="603.4683" y1="426.3786" y2="432.1366"/>
    <line x1="601.8987" x2="601.8987" y1="430.4661" y2="430.4661"/>
    <polyline points="602.0922,428.063 599.523,428.7565 591.4323,432.3033"/>
    <line x1="590.6563" x2="601.7405" y1="428.8858" y2="425.1378"/>
    <polyline points="601.0189,421.7096 592.7298,425.2954 590.0511,425.9753"/>
    <line x1="589.9184" x2="600.2873" y1="423.5837" y2="418.0485"/>
    <line x1="603.8054" x2="611.9663" y1="419.2267" y2="415.8595"/>
    <line x1="612.0708" x2="607.0488" y1="417.9695" y2="420.4447"/>
    <line x1="609.3517" x2="611.6408" y1="421.718" y2="420.2721"/>
    <polyline points="610.8906,423.0584 601.8987,430.4661 591.9921,435.9631"/>
    <polyline points="600.2925,460.6679 598.0371,462.1526 591.3856,468.4642 589.1411,469.1314 582.0856,472.7549 579.5922,475.2366 571.6809,478.568 568.9319,479.3435 560.5829,485.7693"/>
    <line x1="549.5151" x2="541.4127" y1="503.969" y2="507.215"/>
    <line x1="540.6362" x2="546.2091" y1="503.8895" y2="502.2483"/>
    <line x1="542.7147" x2="540.0405" y1="500.5154" y2="501.0969"/>
    <line x1="539.9226" x2="539.9226" y1="498.7902" y2="498.7902"/>
    <line x1="541.9828" x2="551.9107" y1="510.8545" y2="505.6582"/>
    <line x1="560.8065" x2="560.8065" y1="511.8147" y2="511.8147"/>
    <line x1="561.5699" x2="564.2956" y1="514.5585" y2="513.1703"/>
    <line x1="567.071" x2="562.0486" y1="514.4569" y2="516.8335"/>
    <line x1="562.0038" x2="568.886" y1="518.9448" y2="515.6853"/>
    <polyline points="571.1037,513.2071 577.7927,509.5059 580.097,508.864 587.4171,502.5886 590.0068,501.0652 598.1408,498.8118 600.9247,496.6782"/>
    <line x1="601.6683" x2="601.6683" y1="500.1521" y2="500.1521"/>
    <polyline points="602.078,503.1435 604.5961,501.4252 611.7149,495.3755"/>
    <polyline points="612.088,493.1146 601.6683,500.1521 590.5681,503.9092 579.9056,511.2233 570.3542,516.8704 561.4578,521.279 570.3542,516.8704 579.9056,511.2233"/>
    <polyline points="580.2593,513.3373 572.3997,518.0302 569.926,520.3516 562.9188,522.877 560.683,524.1117"/>
    <polyline points="560.0656,527.4698 564.8992,524.5335 570.0327,523.3543 575.4296,519.1843 580.9817,515.5916"/>
    <polyline points="581.7126,518.3013 570.6211,525.8206 567.8645,526.2339 559.9135,531.1182"/>
    <line x1="561.0387" x2="571.9755" y1="537.8117" y2="530.1458"/>
    <polyline points="571.3978,527.9603 560.3025,534.6773 582.0875,521.5549"/>
    <polyline points="591.6706,517.6037 600.5709,509.9275 609.906,504.9781"/>
    <polyline points="610.2615,501.3597 608.0003,503.8211 601.347,507.7371"/>
    <polyline points="601.9495,505.6004 606.541,502.643 610.9847,498.0963"/>
    <line x1="620.3517" x2="620.3517" y1="499.9611" y2="499.9611"/>
    <line x1="621.1008" x2="623.8832" y1="502.1396" y2="501.581"/>
    <line x1="621.7989" x2="627.0703" y1="504.284" y2="503.1348"/>
    <line x1="629.2976" x2="622.0981" y1="504.6148" y2="506.7646"/>
    <polyline points="621.8491,509.7838 630.8094,506.0184 639.9622,498.6578"/>
    <polyline points="640.4638,496.5403 638.2333,496.9806 631.5725,502.6739"/>
    <polyline points="632.0495,499.0289 636.7422,495.3561 641.2321,494.302"/>
    <polyline points="641.8841,491.6195 634.5852,493.797 632.0026,495.4616"/>
    <line x1="631.4551" x2="642.0946" y1="492.3113" y2="488.3909"/>
    <line x1="639.0247" x2="641.7587" y1="487.1307" y2="484.7868"/>
    <line x1="641.0439" x2="635.4837" y1="481.1648" y2="485.8055"/>
    <polyline points="602.0446,479.7932 594.4757,482.3704 591.8098,484.7138"/>
    <polyline points="592.0985,488.3361 596.9597,483.6959 601.5588,481.9891"/>
    <polyline points="600.7937,484.1227 598.583,485.0946 591.8389,491.6101"/>
    <line x1="591.1603" x2="571.8472" y1="494.3428" y2="504.3431"/>
    <polyline points="572.0982,506.7807 574.5509,506.046 581.509,502.6115 583.7369,500.1273 590.4012,496.6109 592.6808,495.9066 599.9007,489.5489"/>
    <polygon points="600.1308,486.5695 591.1603,494.3428"/>
    <polyline points="600.2181,493.0147 594.9339,497.3973 589.94,498.723 585.2349,501.3323 580.738,505.9967 571.801,509.7489"/>
    <polyline points="572.0662,532.7267 567.0545,537.0969 561.755,540.398"/>
    <polyline points="562.0942,542.586 569.3391,538.2579 571.6246,535.8556"/>
    <line x1="572.5173" x2="579.956" y1="540.5786" y2="536.9859"/>
    <line x1="580.4472" x2="575.0427" y1="539.1006" y2="541.7777"/>
    <line x1="578.4244" x2="581.2135" y1="543.0259" y2="541.4639"/>
    <line x1="581.8727" x2="581.8727" y1="544.3367" y2="544.3367"/>
    <polyline points="590.6984,545.9812 595.2059,543.0921 599.9296,538.5175 604.9449,536.9504 610.2475,534.7216 615.755,530.0017 621.3289,527.8878"/>
    <polyline points="620.5534,525.7606 612.4698,528.7411 609.904,531.1898 602.654,535.2184 600.3672,535.7683 593.6967,541.8674 591.4723,543.5481"/>
    <polyline points="592.0102,540.5854 601.1197,533.4899 610.1063,527.5329 619.9999,523.3366"/>
    <polyline points="621.9398,530.097 619.2585,531.3272 610.9657,537.8066 600.0251,541.806 597.4252,544.2748 590.0741,548.1109"/>
    <line x1="593.0344" x2="601.3828" y1="551.9748" y2="549.0307"/>
    <line x1="601.9681" x2="596.5738" y1="552.2433" y2="553.6777"/>
    <line x1="599.5981" x2="602.07" y1="555.4052" y2="554.9089"/>
    <line x1="601.6377" x2="601.6377" y1="557.1377" y2="557.1377"/>
    <polyline points="592.0926,563.3164 581.4357,567.3819 570.3347,575.1257"/>
    <polyline points="574.7793,576.0 581.9937,570.4185 584.5817,568.9106 591.8965,566.6466"/>
    <polyline points="591.2528,569.445 586.7577,570.5086 582.0556,573.9213 579.6428,576.0"/>
    <polyline points="583.6767,576.0 588.2539,572.1652 590.4824,571.7555"/>
    <line x1="592.6069" x2="590.7208" y1="575.592" y2="576.0"/>
    <polygon points="587.242,576.0 589.9695,573.8656"/>
    <line x1="661.1514" x2="658.3379" y1="573.1489" y2="576.0"/>
    <line x1="655.1549" x2="661.8331" y1="576.0" y2="570.4428"/>
    <polyline points="662.0987,568.1907 651.5284,575.1973 649.1576,576.0"/>
    <line x1="649.1576" x2="651.5284" y1="576.0" y2="575.1973"/>
    <polyline points="650.7594,571.7138 647.9874,573.8623 640.4055,576.0"/>
    <polyline points="639.9975,573.7979 644.9044,572.4533 650.1097,568.0506"/>
    <polyline points="649.9034,564.5948 642.8016,570.9681 640.548,571.6868"/>
    <line x1="641.3232" x2="650.2432" y1="569.4095" y2="561.6303"/>
    <line x1="489.9272" x2="487.2735" y1="574.0058" y2="576.0"/>
    <line x1="492.0983" x2="501.5136" y1="563.1909" y2="557.2784"/>
    <polyline points="502.0274,554.9892 499.5935,555.5511 491.8439,559.532"/>
    <polyline points="491.168,556.0099 496.6928,553.8186 502.0284,552.2232"/>
    <line x1="501.5159" x2="490.4078" y1="548.9201" y2="552.9415"/>
    <line x1="489.9422" x2="500.7456" y1="550.4172" y2="545.2876"/>
    <line x1="470.9925" x2="460.0379" y1="551.7293" y2="557.1843"/>
    <polyline points="459.9237,553.5262 467.5782,550.0222 470.2673,549.3134"/>
    <line x1="469.9069" x2="460.3455" y1="546.3719" y2="550.1208"/>
    <polyline points="461.093,547.2266 463.3036,546.5613 470.0909,542.9322"/>
    <polyline points="471.4994,535.7719 469.2378,538.112 462.0978,542.7301"/>
    <line x1="461.7935" x2="461.7935" y1="544.8474" y2="544.8474"/>
    <polygon points="461.7935,544.8474 470.7275,539.27"/>
    <polyline points="461.854,540.4911 467.0861,536.9572 472.0217,532.7428"/>
    <line x1="472.0339" x2="461.1838" y1="530.2536" y2="537.8073"/>
    <line x1="460.4213" x2="460.4213" y1="534.5776" y2="534.5776"/>
    <polygon points="460.4213,534.5776 471.53,528.1062"/>
    <polyline points="459.9467,530.973 467.989,526.374 470.7612,525.9318"/>
    <polyline points="470.1108,523.3753 464.9046,524.6582 459.9967,527.3514"/>
    <line x1="460.5463" x2="469.9032" y1="524.0792" y2="520.272"/>
    <line x1="470.2419" x2="461.3215" y1="516.7299" y2="521.3486"/>
    <line x1="450.3868" x2="450.3868" y1="492.8196" y2="492.8196"/>
    <polyline points="441.6818,491.5538 443.933,489.3261 450.584,484.3137 452.8323,483.9077 462.409,476.4542 470.3403,474.227"/>
    <polyline points="471.0866,476.5919 465.5219,477.8803 460.0873,482.2192 454.9011,485.5709 450.0143,486.6426 440.9419,494.4401"/>
    <polyline points="440.2303,496.8133 447.3988,491.6389 449.9355,489.4676 457.953,487.1773 460.7213,485.7053 469.0619,479.3824 471.7891,478.7068"/>
    <polyline points="472.0975,480.9566 461.4937,488.7154 450.3868,492.8196 439.9019,498.9296"/>
    <polyline points="442.0811,488.1542 451.3604,482.2028 460.2721,475.1031 469.9223,471.3521"/>
    <line x1="461.4937" x2="461.4937" y1="488.7154" y2="488.7154"/>
    <polyline points="491.0149,494.412 500.049,486.6137 510.0484,482.2875 521.0137,476.5258"/>
    <polyline points="520.2833,474.198 517.59,474.8036 509.9194,478.6244 507.5121,481.0945 498.4371,485.1009 491.7375,491.5772"/>
    <polyline points="492.0918,488.2175 496.8804,483.664 501.4285,482.1326 505.8595,479.8548 510.3285,475.1374 514.9802,473.0705 519.9097,471.3745"/>
    <polyline points="520.079,468.0238 513.2827,471.3467 511.0718,472.1256 504.3316,478.5542 501.9903,479.8837 494.534,482.3024 491.901,484.5686"/>
    <polyline points="491.2604,481.0106 502.0577,477.1828 511.7787,469.6515 520.707,464.3772"/>
    <line x1="521.2615" x2="512.058" y1="486.9618" y2="493.2574"/>
    <polyline points="511.598,495.4629 513.8364,494.9905 520.4903,490.5905"/>
    <polyline points="519.9726,494.1862 515.3124,496.7142 510.8392,498.0847"/>
    <line x1="510.16" x2="519.9666" y1="501.255" y2="497.3954"/>
    <line x1="520.4752" x2="509.8989" y1="500.0574" y2="504.8323"/>
    <line x1="500.049" x2="500.049" y1="486.6137" y2="486.6137"/>
    <line x1="500.4046" x2="511.5126" y1="417.9114" y2="413.6142"/>
    <polyline points="510.7419,410.7216 507.9716,412.0356 499.9411,414.4706"/>
    <polyline points="500.005,411.5275 504.9027,410.3949 510.0993,407.3173"/>
    <polyline points="509.9052,403.6593 502.8156,408.7056 500.5644,409.1103"/>
    <polyline points="501.3403,406.9848 510.2563,400.1323 519.9269,396.341 530.6869,388.8895 519.9269,396.341"/>
    <line x1="531.5665" x2="531.5665" y1="401.3817" y2="401.3817"/>
    <polygon points="541.7638,383.4677 552.0632,378.8831 541.7638,383.4677 530.6869,388.8895"/>
    <polygon points="531.0346,378.753 521.9737,382.6167 531.0346,378.753 540.0591,372.1363 550.0386,365.6257 540.0591,372.1363"/>
    <polyline points="581.5482,326.4803 590.4392,320.5617 599.899,313.4372 610.4765,309.6878"/>
    <polyline points="609.9671,306.2872 607.4032,308.3104 600.159,310.4892 597.8737,312.1507 591.2044,318.274 588.9794,318.8342 582.0408,322.8216"/>
    <polyline points="582.0138,319.2982 587.0891,317.1018 591.867,315.5102 596.4082,310.9223 600.8378,308.068 605.3112,306.8571 609.9721,302.6299"/>
    <polyline points="610.489,299.1001 603.835,305.3286 601.5968,305.9416 594.576,309.7371 592.0967,312.2092 581.4807,316.2275"/>
    <line x1="599.899" x2="599.899" y1="313.4372" y2="313.4372"/>
    <line x1="669.9058" x2="669.9058" y1="321.3015" y2="321.3015"/>
    <polyline points="700.2486,343.2291 694.9453,347.2252 689.9293,348.3341 685.2049,351.4991 680.6969,355.9465 676.2713,357.337 671.7713,359.8309 667.0607,364.5205 656.7708,368.2685 651.2705,372.9588"/>
    <line x1="660.3359" x2="671.4371" y1="384.7356" y2="377.5252"/>
    <polygon points="671.4371,377.5252 682.0928,371.725"/>
    <polygon points="679.9689,384.3967 670.8289,389.6338"/>
    <line x1="691.9927" x2="691.9927" y1="390.575" y2="390.575"/>
    <line x1="693.6548" x2="691.4337" y1="391.9364" y2="393.3027"/>
    <line x1="690.6577" x2="695.1771" y1="395.5679" y2="393.2281"/>
    <line x1="697.4353" x2="690.0518" y1="394.4606" y2="397.6803"/>
    <polyline points="690.3232,402.875 693.0732,401.6188 701.4223,399.1191"/>
    <polyline points="701.9874,402.1056 696.6095,403.2712 691.0651,406.2459"/>
    <polygon points="700.6461,395.6485 689.9181,400.0261"/>
    <line x1="710.4953" x2="710.4953" y1="400.3288" y2="400.3288"/>
    <line x1="712.4053" x2="709.9747" y1="401.5765" y2="403.9488"/>
    <line x1="709.9647" x2="715.2947" y1="407.5553" y2="402.8868"/>
    <line x1="740.7278" x2="740.7278" y1="395.4971" y2="395.4971"/>
    <polyline points="760.5613,400.3863 765.1122,397.5837 768.0,396.841"/>
    <polyline points="768.0,399.2066 767.4663,399.2931 760.0036,404.0217"/>
    <polyline points="759.9421,407.6073 750.2129,411.4832 759.9421,407.6073 768.0,402.769"/>
    <polyline points="768.0,394.1742 763.5521,395.9134 761.3371,397.0745"/>
    <line x1="761.9442" x2="768.0" y1="394.2981" y2="391.266"/>
    <line x1="740.2421" x2="740.2421" y1="371.8489" y2="371.8489"/>
    <line x1="751.5652" x2="751.5652" y1="425.2047" y2="425.2047"/>
    <polyline points="752.0937,453.8219 746.8911,454.8917 735.8776,462.6886 730.343,463.7897 724.9872,466.9871 719.9073,471.417 715.1249,472.7887 710.5808,475.3148"/>
    <polyline points="710.0128,478.9101 717.4592,474.5124 720.0892,474.0396 731.09,466.3352 739.3434,464.1958 749.5277,456.4937 751.8905,456.0224"/>
    <polyline points="750.4732,460.5922 743.8179,466.9831 741.5817,468.3695 734.5723,470.7324 732.0977,472.9624 724.2355,477.9679 721.4967,478.3742"/>
    <polyline points="722.0206,480.8036 727.0866,479.6601 731.8559,476.6183 736.3915,472.1093 740.8201,470.6437 745.2973,468.27 749.9658,463.5617"/>
    <polyline points="749.9735,467.0208 747.405,469.4988 737.859,473.5622 731.1868,480.0112 728.9632,481.305 722.0349,483.7618"/>
    <polyline points="721.5326,487.2132 730.4239,482.8885 739.8994,475.0903 750.4923,470.6841"/>
    <line x1="742.0526" x2="742.0526" y1="465.627" y2="465.627"/>
    <line x1="739.8994" x2="739.8994" y1="475.0903" y2="475.0903"/>
    <polygon points="731.7915,469.4268 742.0526,465.627 751.2427,458.1536 742.0526,465.627 731.7915,469.4268 720.7246,476.2455"/>
    <line x1="760.6492" x2="768.0" y1="475.3682" y2="472.2338"/>
    <polyline points="768.0,474.6984 762.4362,476.6201 760.0473,478.9831"/>
    <polyline points="759.9198,482.5951 765.1748,477.9353 768.0,477.0267"/>
    <line x1="768.0" x2="760.3303" y1="479.8333" y2="485.8427"/>
    <line x1="761.074" x2="768.0" y1="488.5458" y2="483.6233"/>
    <polyline points="722.0976,532.7389 711.582,540.2326 700.4736,545.5784 711.582,540.2326"/>
    <polyline points="712.0527,542.3673 704.0146,546.7325 701.243,549.1277"/>
    <polyline points="701.8907,552.2441 707.0936,547.8924 711.9979,544.5612"/>
    <line x1="711.4449" x2="702.0936" y1="547.1596" y2="554.8131"/>
    <polyline points="699.5833,555.2606 691.6295,559.8211 688.8724,562.1749 680.5243,564.7793"/>
    <polyline points="679.9869,562.5905 685.3424,560.8548 690.8769,556.204 696.4446,553.543"/>
    <polyline points="692.9065,551.8595 690.185,552.9438 682.4004,559.462 679.9541,560.4529"/>
    <line x1="680.4421" x2="680.4421" y1="557.993" y2="557.993"/>
    <polygon points="680.4421,557.993 689.8989,550.2266"/>
    <polyline points="681.2077,554.9978 687.8764,548.6575 690.1612,547.9679"/>
    <polyline points="690.841,545.8546 686.4113,547.1609 681.8691,551.5216"/>
    <polyline points="682.0965,547.8582 684.5767,545.7406 691.5996,543.501"/>
    <polygon points="692.0585,540.6412 681.7766,544.3948"/>
    <polyline points="691.989,537.2619 689.3297,539.2537 681.0688,541.419"/>
    <polyline points="680.3261,538.9752 685.8566,537.79 691.4258,533.6086"/>
    <polyline points="690.6496,530.0635 682.5108,536.2516 679.9188,536.8425"/>
    <line x1="680.0499" x2="690.0475" y1="534.645" y2="526.955"/>
    <line x1="701.0119" x2="711.9629" y1="522.9854" y2="516.6194"/>
    <line x1="712.0724" x2="701.7353" y1="518.7548" y2="526.2528"/>
    <polyline points="702.0914,528.978 707.0063,525.3509 711.6465,521.208"/>
    <polyline points="710.8976,524.195 708.6871,526.5048 701.9027,531.2416"/>
    <polygon points="701.2633,533.3542 710.1992,527.6658"/>
    <polyline points="700.492,535.7019 702.7546,535.0734 709.8994,531.3293"/>
    <line x1="710.1478" x2="699.9733" y1="534.7982" y2="538.5535"/>
    <polyline points="699.966,541.9264 708.0432,538.5325 710.8205,537.7821"/>
    <line x1="714.5984" x2="721.7912" y1="541.8888" y2="536.009"/>
    <line x1="721.0896" x2="716.6298" y1="539.6299" y2="543.4863"/>
    <line x1="718.096" x2="720.3427" y1="545.0144" y2="543.2354"/>
    <polyline points="719.9229,546.4672 710.6694,550.3065 701.7506,556.993 692.0676,563.4309 681.2983,567.3673"/>
    <line x1="692.0676" x2="692.0676" y1="563.4309" y2="563.4309"/>
    <polyline points="710.3135,560.8653 718.6304,554.3808 721.411,553.5106"/>
    <polyline points="720.6345,551.3937 715.1609,552.9495 709.9159,557.5178"/>
    <polyline points="710.0581,553.872 712.4419,551.5934 720.0396,549.1533"/>
    <line x1="721.982" x2="711.0528" y1="555.888" y2="563.6849"/>
    <polyline points="720.1716,569.3688 711.2234,573.1605 707.7271,576.0"/>
    <polyline points="711.0842,576.0 712.725,574.5864 719.8987,572.4465"/>
    <line x1="720.1743" x2="715.3382" y1="574.9791" y2="576.0"/>
    <line x1="631.8225" x2="631.8225" y1="551.4522" y2="551.4522"/>
    <line x1="629.5614" x2="632.0987" y1="550.2741" y2="547.7911"/>
    <line x1="631.8265" x2="626.3484" y1="544.3635" y2="549.0563"/>
    <line x1="622.8223" x2="631.1415" y1="547.7833" y2="541.4391"/>
    <polyline points="629.935,536.9147 637.9514,532.3813 640.7195,530.0213 649.0604,527.3999 651.7878,526.2394 659.5985,519.7359 662.0541,518.8157"/>
    <polyline points="661.9959,516.6917 656.6259,518.321 651.0848,522.928 645.5203,525.7295 640.0862,526.9626 634.901,531.2252 630.0151,534.6918"/>
    <polyline points="630.5857,532.0371 639.9079,524.4471 642.4087,524.02 650.3389,519.2927 653.0915,516.9804 661.4405,514.4746"/>
    <polyline points="660.6648,511.8306 649.9219,515.707 640.2735,522.2899 631.3622,528.8348"/>
    <polyline points="622.0815,532.7259 611.7003,540.3461 589.911,550.3146 600.6061,545.4335"/>
    <line x1="611.7003" x2="611.7003" y1="540.3461" y2="540.3461"/>
    <polyline points="619.902,546.4431 630.3853,539.0367 641.4921,533.5375 652.0974,529.0154 661.5861,521.2271"/>
    <line x1="652.0974" x2="652.0974" y1="529.0154" y2="529.0154"/>
    <line x1="681.7766" x2="681.7766" y1="544.3948" y2="544.3948"/>
    <line x1="710.6694" x2="710.6694" y1="550.3065" y2="550.3065"/>
    <line x1="686.8533" x2="681.3877" y1="490.9007" y2="492.3126"/>
    <line x1="680.611" x2="683.3932" y1="489.6622" y2="489.1744"/>
    <line x1="680.0276" x2="680.0276" y1="487.4417" y2="487.4417"/>
    <line x1="672.0453" x2="672.0453" y1="480.8253" y2="480.8253"/>
    <line x1="602.009" x2="591.1167" y1="477.1905" y2="481.11"/>
    <line x1="595.2038" x2="600.6955" y1="474.1463" y2="470.4718"/>
    <line x1="601.4696" x2="598.6937" y1="474.0395" y2="475.7051"/>
    <line x1="592.4259" x2="600.0725" y1="472.5221" y2="466.827"/>
    <line x1="600.0081" x2="593.1436" y1="512.5189" y2="519.0236"/>
    <line x1="594.9346" x2="599.9392" y1="520.3689" y2="515.6585"/>
    <line x1="600.3987" x2="597.6788" y1="519.2203" y2="521.6464"/>
    <line x1="601.1573" x2="601.1573" y1="522.8677" y2="522.8677"/>
    <polyline points="579.9846,534.7349 570.871,539.4118 561.8872,544.7241"/>
    <polyline points="611.3793,413.5547 600.2873,418.0485 611.3793,413.5547 622.0845,405.763"/>
    <line x1="511.1164" x2="511.1164" y1="296.0436" y2="296.0436"/>
    <line x1="502.0089" x2="502.0089" y1="303.8164" y2="303.8164"/>
    <line x1="500.131" x2="500.131" y1="290.5855" y2="290.5855"/>
    <line x1="480.8677" x2="480.8677" y1="303.7116" y2="303.7116"/>
    <polyline points="480.8677,303.7116 489.9833,297.0596 500.131,290.5855 507.4047,288.0"/>
    <polyline points="507.4047,288.0 500.131,290.5855 489.9833,297.0596 480.8677,303.7116"/>
    <line x1="421.4741" x2="421.4741" y1="359.6245" y2="359.6245"/>
  </g>
</svg>
