<?xml version="1.0" encoding="utf-8" ?>
<svg xmlns="http://www.w3.org/2000/svg" xmlns:cc="http://creativecommons.org/ns#" xmlns:dc="http://purl.org/dc/elements/1.1/" xmlns:ev="http://www.w3.org/2001/xml-events" xmlns:inkscape="http://www.inkscape.org/namespaces/inkscape" xmlns:rdf="http://www.w3.org/1999/02/22-rdf-syntax-ns#" xmlns:sodipodi="http://sodipodi.sourceforge.net/DTD/sodipodi-0.dtd" xmlns:xlink="http://www.w3.org/1999/xlink" baseProfile="tiny" height="22.86cm" version="1.2" viewBox="0 0 1152.0 864.0" width="30.48cm">
  <metadata>
    <rdf:RDF>
      <cc:Work>
        <dc:format>image/svg+xml</dc:format>
        <dc:source/>
        <dc:date>2021-10-05T21:46:04.422207</dc:date>
      </cc:Work>
    </rdf:RDF>
  </metadata>
  <defs/>
  <g fill="none" id="layer1.0" inkscape:groupmode="layer" inkscape:label="1" stroke="#00f" style="display:inline">
    <polyline points="503.6648,288.0 506.1713,289.0366 510.3584,291.5822"/>
    <polyline points="508.1385,293.4378 506.2996,291.9319 498.6056,288.0"/>
    <line x1="510.3301" x2="512.5687" y1="288.0" y2="289.1142"/>
    <polyline points="526.2474,293.0086 534.223,299.855 564.1698,316.5532 576.1853,321.5777 584.9289,327.6948"/>
    <polyline points="587.716,327.264 584.3009,325.5332 578.5139,320.4217 576.2937,318.8052 566.6211,314.38 558.4558,309.4114 554.9444,308.2564 547.7969,304.698 546.1775,303.4211 536.8787,299.1622 534.1652,297.5943 528.8147,292.5624"/>
    <polyline points="531.306,291.9188 534.6336,294.8737 539.5928,297.5318 546.2971,299.9554 554.3097,304.634 561.1439,307.1875 565.4103,310.0223 569.1487,313.1525 575.8669,316.5118 580.7875,319.9712 584.1313,323.3748 590.5033,326.5814"/>
    <polyline points="593.2711,324.9656 584.5048,320.8563 583.0217,319.337 575.1178,314.4016 571.7506,312.6774 566.0788,307.5311 563.7679,305.8875 554.1292,301.3598 545.8798,296.292 542.3504,295.1313 535.3945,291.6104 533.7221,290.3613"/>
    <polyline points="541.7805,288.0 544.4309,289.8263 547.9231,291.3711"/>
    <line x1="550.6983" x2="545.3331" y1="290.7937" y2="288.0"/>
    <line x1="549.3093" x2="553.4404" y1="288.0" y2="290.3102"/>
    <polyline points="560.5411,288.0 564.262,290.3587 576.2748,295.572 578.0414,297.0532"/>
    <polyline points="580.2556,296.3239 576.219,292.9586 569.4059,289.8188 566.6858,288.0"/>
    <polyline points="570.7908,288.0 572.1272,289.0341 575.6652,290.7574 582.4673,295.9064"/>
    <polyline points="584.6966,294.8818 574.8896,288.6265 574.0987,288.0"/>
    <line x1="574.8896" x2="574.8896" y1="288.6265" y2="288.6265"/>
    <line x1="575.805" x2="564.1443" y1="298.7339" y2="294.0132"/>
    <polyline points="561.6221,296.2517 573.528,301.1534 575.0436,302.3071 582.6955,305.9014 586.1235,307.2008"/>
    <polyline points="586.3133,310.6163 574.3704,305.9493 571.195,303.4374 559.1761,297.5739"/>
    <polyline points="556.8025,298.0882 568.7944,304.833 574.121,309.2838 585.9581,314.2759"/>
    <polyline points="585.2351,317.7942 574.4198,312.0875 566.3192,305.383 554.4927,298.6269"/>
    <line x1="545.1337" x2="536.0834" y1="292.818" y2="288.0"/>
    <polyline points="536.0834,288.0 545.1337,292.818 554.4927,298.6269 566.3192,305.383 574.4198,312.0875 585.2351,317.7942 596.0006,322.571"/>
    <polyline points="601.6532,329.7105 613.6541,334.6172 615.2511,335.9926 622.489,340.5666 625.9892,342.2218 632.1086,347.38"/>
    <polyline points="629.8685,347.835 626.3173,344.6758 614.517,339.2281 611.2736,336.8508 599.2598,332.1326"/>
    <polyline points="596.933,333.8206 608.8199,339.2956 614.1336,342.8352 626.0984,347.6638 627.6528,349.0052"/>
    <polyline points="623.2154,353.6102 611.6703,348.283 606.1929,343.5381 603.686,341.845 594.1747,336.6658 592.4276,334.9717"/>
    <polyline points="590.2146,335.9894 594.2099,338.986 601.0149,342.2518 605.6108,345.6835 609.1212,349.1325 615.6879,352.4454 620.9547,355.506"/>
    <polyline points="618.6431,356.4174 616.2292,354.7083 606.6484,349.5351 604.8341,347.8605 598.2887,343.2034 594.749,341.7984 588.002,337.9898"/>
    <polyline points="585.7698,340.474 595.5231,345.1402 604.25,350.423 616.2675,356.821"/>
    <line x1="604.25" x2="604.25" y1="350.423" y2="350.423"/>
    <polygon points="606.2901,341.0545 614.2922,346.4547 625.4418,351.1354 614.2922,346.4547 606.2901,341.0545 594.6609,334.5554"/>
    <line x1="595.5231" x2="595.5231" y1="345.1402" y2="345.1402"/>
    <polyline points="584.4485,351.2827 576.3204,344.6948 564.4625,339.1761"/>
    <line x1="566.7806" x2="576.0397" y1="337.4578" y2="342.2826"/>
    <line x1="575.3505" x2="569.1639" y1="340.1583" y2="336.6998"/>
    <line x1="571.6206" x2="574.5965" y1="336.2882" y2="337.9418"/>
    <line x1="574.1535" x2="574.1535" y1="335.2988" y2="335.2988"/>
    <polyline points="568.774,328.0824 565.5385,326.5925 557.215,321.7222 555.7559,320.007 547.3698,314.8408 544.1575,313.1765 538.7135,308.5642 536.1632,307.1754 526.6898,303.4038"/>
    <polyline points="529.1252,301.3545 535.5538,304.3191 541.0555,307.56 544.2353,310.9805 556.2572,317.7692 559.4774,320.8605 564.7635,323.6534 571.32,326.1734"/>
    <polyline points="573.7897,323.6966 564.2163,320.2153 561.7914,319.0185 556.2415,315.0877 552.9432,313.6331 544.8043,308.847 543.3396,307.146 531.6365,300.2825"/>
    <polyline points="534.223,299.855 564.1698,316.5532 576.1853,321.5777"/>
    <line x1="574.4198" x2="574.4198" y1="312.0875" y2="312.0875"/>
    <line x1="566.3192" x2="566.3192" y1="305.383" y2="305.383"/>
    <line x1="564.1698" x2="564.1698" y1="316.5532" y2="316.5532"/>
    <polyline points="566.1548,329.0066 536.3025,310.5521 524.326,305.8875 536.3025,310.5521"/>
    <polyline points="533.8166,313.0359 524.1259,309.2632 522.0242,307.8739"/>
    <polyline points="519.7707,308.8766 524.4716,312.1182 531.2545,315.0837"/>
    <polyline points="528.6208,316.1542 525.1906,314.4684 517.5484,309.2903"/>
    <polyline points="513.1195,311.7413 514.5862,313.0177 523.1794,317.2753"/>
    <polygon points="525.9245,316.5813 515.338,310.0373"/>
    <polyline points="520.4025,318.9074 514.1505,316.4843 510.8733,314.1689"/>
    <polyline points="508.5818,316.4385 514.2484,320.1477 517.613,321.3085"/>
    <line x1="512.0758" x2="503.8092" y1="325.0661" y2="318.348"/>
    <polygon points="506.2305,317.8101 514.8309,323.6209"/>
    <polyline points="501.3123,318.8632 504.9168,322.1897 509.3654,325.6426"/>
    <line x1="506.7144" x2="498.7397" y1="326.1267" y2="320.187"/>
    <line x1="496.0964" x2="504.1331" y1="322.4266" y2="327.3777"/>
    <polyline points="493.7318,302.0586 484.1469,297.632 475.7944,290.903 472.255,289.1723 470.7359,288.0"/>
    <polyline points="466.4694,288.0 469.5109,289.8561 476.2712,293.0619 484.2559,299.9246 491.0838,303.2844"/>
    <polyline points="488.3759,303.7588 484.8459,302.0348 477.8993,297.1004 476.2241,295.5815 464.199,290.2366 460.7557,288.0"/>
    <polyline points="454.2635,288.0 456.2059,289.0078 464.1839,293.8688 475.6765,298.6448 485.6225,304.3498"/>
    <polyline points="498.8119,297.4209 486.8634,292.7431 485.3221,291.5532 478.4804,288.0"/>
    <polygon points="474.069,288.0 475.0314,288.7418 484.5732,294.8607 496.3097,299.8865 484.5732,294.8607 475.0314,288.7418"/>
    <polyline points="416.6827,288.0 426.2905,293.1185 434.2932,299.9926 445.44,306.4258 455.8423,311.7475"/>
    <polyline points="458.5576,309.2719 455.0878,308.1106 447.6509,304.5922 446.0973,303.3453 436.9798,299.1977"/>
    <polyline points="439.7179,297.4334 446.3174,299.8162 449.8667,302.1287 454.3994,304.5277 461.2148,307.146"/>
    <polyline points="463.8031,305.9812 454.1204,301.346 445.9905,296.1587 442.4908,294.9871"/>
    <line x1="445.2796" x2="445.2796" y1="292.7572" y2="292.7572"/>
    <line x1="448.0644" x2="455.0735" y1="291.448" y2="296.501"/>
    <line x1="455.8303" x2="450.8252" y1="294.3748" y2="290.9395"/>
    <line x1="453.5442" x2="456.283" y1="290.3942" y2="291.9546"/>
    <polyline points="454.3899,298.7125 445.2796,292.7572 454.3899,298.7125 466.3163,305.5279"/>
    <line x1="454.8474" x2="436.2669" y1="322.2569" y2="310.4311"/>
    <polyline points="433.8191,312.901 441.9951,317.5883 445.5094,318.8433 452.6305,323.0219"/>
    <polyline points="450.4199,324.7491 446.1386,322.3557 439.3043,320.0433 435.0172,317.6553 431.2951,315.0557"/>
    <polyline points="428.6965,316.2582 434.3537,320.8636 436.6771,322.25 446.3099,326.0162 448.1954,327.1842"/>
    <line x1="443.6308" x2="431.6436" y1="330.7868" y2="324.0184"/>
    <line x1="429.2397" x2="441.2604" y1="324.5818" y2="331.313"/>
    <line x1="438.8179" x2="426.9037" y1="331.8393" y2="326.003"/>
    <polyline points="424.1622,331.9417 415.7405,326.6346 412.1994,325.1263 405.5553,320.2145 403.7789,318.4933"/>
    <polyline points="401.3203,318.9543 404.7796,322.3259 409.4645,325.7866 416.2512,329.18 424.2276,335.2681"/>
    <polyline points="424.788,338.0617 417.9604,333.0787 416.2479,331.3495 404.2237,324.6002 398.7855,320.1423"/>
    <line x1="395.5792" x2="387.1774" y1="318.8056" y2="315.1435"/>
    <line x1="389.4464" x2="394.8028" y1="312.9469" y2="315.804"/>
    <line x1="394.2346" x2="391.7692" y1="313.3385" y2="311.6869"/>
    <polyline points="394.1579,311.1992 406.164,317.8795 414.9704,323.5432 424.6245,328.3019 436.2992,333.187"/>
    <polyline points="434.1223,323.5246 445.938,329.4391 434.1223,323.5246 426.0302,316.7241"/>
    <polyline points="421.9176,307.8561 416.1473,303.351 412.7383,301.7131"/>
    <polyline points="409.9505,302.1382 416.3076,305.5993 419.6418,308.9875"/>
    <polyline points="417.4061,309.4306 415.9258,307.7145 407.1815,302.8386"/>
    <polyline points="404.4498,304.4797 415.1923,310.0813 404.4498,304.4797 396.3204,299.7447 384.4611,294.8207"/>
    <polyline points="384.0,297.5923 384.1246,297.6946 393.7802,302.0087"/>
    <polyline points="391.1664,303.3712 384.3344,300.0587 384.0,299.7946"/>
    <polyline points="384.0,301.4906 384.9861,302.1735 388.4871,303.9046"/>
    <line x1="385.7545" x2="384.0" y1="304.4239" y2="303.4187"/>
    <polyline points="384.946,317.6019 396.1767,322.2861 404.1648,327.3429 415.7323,333.5009 425.564,340.3692"/>
    <polyline points="425.1513,350.8785 414.4796,346.209 406.3199,341.0697 394.432,334.8161"/>
    <polyline points="392.1596,335.2238 394.1218,336.9472 403.7904,342.0958 411.793,348.2776 422.9403,353.3541"/>
    <polyline points="420.7141,355.48 415.9328,352.5691 409.1707,349.3722 401.1867,342.5136 394.3593,339.1478 389.9262,336.0071"/>
    <polyline points="387.7131,337.7573 395.0262,341.76 398.5159,343.2417 406.6213,349.8052 416.3089,354.9753 418.4536,356.6449"/>
    <polyline points="413.767,357.7267 401.7493,352.0883 396.2697,348.4933 384.728,343.741 384.0,343.0916"/>
    <polyline points="384.0,346.65 384.2009,346.8433 396.2262,352.1358 399.4179,354.4791 411.3191,359.2602"/>
    <polyline points="408.795,361.6181 397.1421,356.8053 395.6812,355.4714 384.1822,349.3988 384.0,349.2295"/>
    <polyline points="384.0,351.0247 384.6811,351.5728 394.9065,358.2763 406.1963,363.9812"/>
    <line x1="404.404" x2="404.404" y1="373.8842" y2="373.8842"/>
    <polyline points="411.2056,382.1772 404.3854,379.4789 396.3157,374.7068 389.6991,372.3599 384.532,369.8406 384.0,369.384"/>
    <polyline points="384.0,372.6558 384.1368,372.7811 396.11,378.2946 397.6721,379.5116 405.0667,383.0016 408.5437,384.1762"/>
    <polyline points="405.8246,386.6604 395.4607,381.4868 384.2819,375.1962 384.0,374.9536"/>
    <polyline points="384.0,365.4553 385.2705,366.4017 392.4701,369.8829 395.9752,371.0728 404.1205,376.4094 413.7992,381.1611"/>
    <polyline points="416.3179,380.7452 404.404,373.8842 395.2584,367.7653 385.9839,362.7395"/>
    <line x1="394.9065" x2="394.9065" y1="358.2763" y2="358.2763"/>
    <polygon points="395.79,344.9207 385.5006,340.1994 395.79,344.9207 404.1481,350.4816 416.1423,357.0982 404.1481,350.4816"/>
    <line x1="414.4796" x2="414.4796" y1="346.209" y2="346.209"/>
    <polyline points="434.2305,346.8351 446.2535,352.1949 454.7733,356.8691 446.2535,352.1949"/>
    <line x1="443.8163" x2="434.1604" y1="354.0605" y2="349.3448"/>
    <line x1="434.6187" x2="441.3031" y1="351.4998" y2="354.9437"/>
    <line x1="438.7147" x2="435.3771" y1="355.3462" y2="353.6651"/>
    <line x1="436.0573" x2="436.0573" y1="356.2003" y2="356.2003"/>
    <line x1="444.9771" x2="449.3277" y1="358.2413" y2="361.2805"/>
    <line x1="446.6908" x2="444.329" y1="362.2272" y2="360.5227"/>
    <line x1="444.1254" x2="444.1254" y1="362.6335" y2="362.6335"/>
    <line x1="445.7465" x2="452.0264" y1="355.4875" y2="359.3486"/>
    <polyline points="457.5512,354.7699 454.2208,353.4178 448.6191,349.725"/>
    <polyline points="450.9223,347.5703 454.1667,350.4598 460.3409,353.6385"/>
    <polyline points="463.1222,353.1955 454.638,348.0306 453.1768,346.3679"/>
    <line x1="455.3997" x2="465.8756" y1="345.902" y2="352.5448"/>
    <polyline points="474.1298,358.1463 465.8756,352.5448 444.3158,339.1014"/>
    <polyline points="447.0106,338.6077 456.072,343.696 457.6101,345.297 465.1285,349.6672 468.5836,350.9765 476.6302,355.7416"/>
    <polyline points="479.2061,353.4343 471.2317,348.6024 464.4273,346.2742 459.8282,343.8021 456.3197,341.0732 449.7547,338.0443"/>
    <polyline points="452.531,336.623 456.0193,337.9019 464.1215,342.6182 473.8096,346.2562 481.8524,351.9983"/>
    <polyline points="484.559,351.4269 476.312,344.7466 464.3636,339.0828 455.3205,334.3241 464.3636,339.0828 476.312,344.7466"/>
    <polyline points="476.1296,342.4116 466.7132,337.4998 465.033,335.9914 458.1031,331.9138"/>
    <polyline points="460.859,330.2582 465.7958,333.4461 469.1327,336.8395 475.494,340.3002"/>
    <polyline points="474.7219,338.0258 471.6276,336.4004 466.2717,331.2766 463.5707,329.5474"/>
    <line x1="466.2234" x2="474.1984" y1="329.1252" y2="335.2831"/>
    <line x1="464.3636" x2="464.3636" y1="339.0828" y2="339.0828"/>
    <line x1="455.3205" x2="455.3205" y1="334.3241" y2="334.3241"/>
    <line x1="445.44" x2="445.44" y1="306.4258" y2="306.4258"/>
    <polyline points="431.6708,300.3989 426.192,295.5935 423.6869,294.131 414.1741,290.1798 412.4258,288.9787"/>
    <polyline points="410.2127,291.4621 414.2106,293.7959 421.0162,296.1267 425.6091,298.6062 429.1213,301.3455"/>
    <polyline points="426.648,303.2774 418.2903,298.6108 414.7506,297.4066 408.0002,293.4407"/>
    <polyline points="405.7683,294.4351 415.5249,300.6511 424.2491,305.757 415.5249,300.6511"/>
    <line x1="405.0015" x2="403.4983" y1="296.5734" y2="294.8474"/>
    <line x1="401.1744" x2="404.3439" y1="295.6012" y2="298.761"/>
    <line x1="404.1233" x2="398.7843" y1="301.3463" y2="297.3141"/>
    <polyline points="401.7716,306.8844 405.1605,308.0382 412.9803,311.6496"/>
    <polyline points="410.7504,314.0236 405.9011,311.6869 399.1592,309.1917"/>
    <polyline points="396.6204,310.6278 406.3023,315.0458 408.4837,316.3698"/>
    <line x1="414.9704" x2="414.9704" y1="323.5432" y2="323.5432"/>
    <line x1="404.1648" x2="404.1648" y1="327.3429" y2="327.3429"/>
    <line x1="395.4607" x2="395.4607" y1="381.4868" y2="381.4868"/>
    <line x1="435.6584" x2="445.6409" y1="415.2342" y2="419.9624"/>
    <polyline points="448.3917,418.303 444.8645,416.8158 437.8798,412.7978"/>
    <polyline points="440.0901,411.0669 444.2656,414.2176 451.0959,417.5894"/>
    <polyline points="453.7394,417.1679 444.1428,412.0238 442.3094,410.299"/>
    <line x1="444.5573" x2="456.3122" y1="409.8891" y2="416.1233"/>
    <line x1="464.365" x2="475.3184" y1="421.2452" y2="425.9169"/>
    <polyline points="477.5289,424.0343 476.0178,422.6125 467.0752,418.764"/>
    <polyline points="469.8302,416.8157 476.3196,419.8449 479.7527,423.1352"/>
    <polyline points="482.009,422.7323 476.0733,417.5547 472.6122,415.8525"/>
    <line x1="475.4018" x2="484.3146" y1="415.4444" y2="421.8935"/>
    <line x1="494.2315" x2="505.562" y1="414.1701" y2="420.9785"/>
    <polyline points="507.7771,420.3615 506.1676,418.7652 496.8915,413.6844"/>
    <polyline points="499.6091,413.1101 506.301,416.1282 509.9883,418.8465"/>
    <polyline points="512.2157,416.4977 505.8955,412.9431 502.3691,411.6687"/>
    <line x1="505.1534" x2="514.478" y1="409.3585" y2="414.126"/>
    <line x1="516.1435" x2="516.1435" y1="404.197" y2="404.197"/>
    <line x1="515.5181" x2="518.7677" y1="401.6841" y2="403.1301"/>
    <line x1="521.3192" x2="514.7443" y1="401.0855" y2="398.6282"/>
    <line x1="514.2079" x2="523.7945" y1="395.1136" y2="398.6015"/>
    <line x1="526.1953" x2="514.1763" y1="396.6104" y2="391.4534"/>
    <line x1="505.6976" x2="495.6007" y1="386.7857" y2="381.4834"/>
    <polyline points="493.357,382.3542 494.824,384.0321 502.9223,388.7045"/>
    <polyline points="500.133,389.6382 494.2449,386.203 491.0691,382.7565"/>
    <polyline points="488.7224,383.6228 494.1523,388.3532 497.3497,390.0433"/>
    <line x1="494.5922" x2="486.3062" y1="390.8498" y2="385.47"/>
    <line x1="484.2142" x2="476.2396" y1="375.0676" y2="368.191"/>
    <polyline points="478.8123,367.7787 484.1714,372.73 486.8652,374.2568"/>
    <polyline points="489.5755,372.4735 484.6516,369.8925 481.3093,367.0248"/>
    <polyline points="483.7307,365.3119 485.4155,366.5307 492.3305,370.022"/>
    <polyline points="495.1126,367.8054 504.5087,373.7818 495.1126,367.8054 486.082,362.8813"/>
    <polyline points="497.9022,366.5161 505.2403,371.5775 506.8144,373.3106"/>
    <polyline points="509.183,372.7144 505.9619,369.4481 500.6791,366.0162"/>
    <polyline points="503.4242,365.4607 506.3138,367.0159 511.6235,371.2342"/>
    <line x1="514.1401" x2="506.1205" y1="368.9031" y2="364.0542"/>
    <line x1="502.2524" x2="495.8627" y1="374.9986" y2="371.1956"/>
    <line x1="496.2925" x2="500.0286" y1="374.851" y2="377.164"/>
    <line x1="497.818" x2="496.1878" y1="379.6313" y2="378.3884"/>
    <line x1="516.3181" x2="524.4054" y1="380.6043" y2="387.2068"/>
    <polyline points="527.1266,385.5803 524.1205,384.2853 518.7987,379.9632"/>
    <polyline points="521.2046,378.4095 524.3841,380.8598 529.8889,383.1813"/>
    <polyline points="532.6743,380.8659 525.0646,377.1989 523.5422,376.0422"/>
    <polyline points="528.0616,372.1643 534.6935,377.1101 538.2346,378.8355"/>
    <polyline points="540.9706,378.3535 534.187,375.0001 530.2768,371.5415"/>
    <polyline points="532.488,371.0853 534.1957,372.6977 543.6546,377.108"/>
    <line x1="548.82" x2="536.9777" y1="372.4601" y2="367.7788"/>
    <polygon points="534.7153,369.9116 546.2739,374.9217"/>
    <line x1="539.2916" x2="551.2898" y1="365.3044" y2="370.6351"/>
    <line x1="553.6855" x2="541.67" y1="369.7886" y2="363.4119"/>
    <polyline points="544.1212,362.5035 556.0142,369.386 565.2156,375.7143 574.4333,380.9246 586.32,385.5893"/>
    <polyline points="588.7737,383.6187 586.0665,382.2244 576.76,378.4404 575.1372,377.2697 568.003,373.7743 564.4901,372.5501 558.2878,368.495"/>
    <polyline points="560.5221,366.621 564.1287,368.9758 570.7708,371.2939 575.8826,373.7302 579.1533,376.4076 585.3911,379.3831 591.1543,382.6326"/>
    <polyline points="593.4701,382.2215 581.6206,375.3542 576.2978,370.6315 564.3117,365.3342 562.7354,364.1496"/>
    <line x1="564.9477" x2="564.9477" y1="362.0016" y2="362.0016"/>
    <line x1="565.7198" x2="557.4089" y1="359.2004" y2="354.8067"/>
    <line x1="560.1951" x2="566.2428" y1="353.5411" y2="356.8879"/>
    <line x1="566.256" x2="562.9831" y1="354.7778" y2="353.0512"/>
    <line x1="565.7529" x2="574.1584" y1="352.4828" y2="358.2308"/>
    <line x1="576.6204" x2="568.4857" y1="355.8874" y2="351.0523"/>
    <line x1="571.1655" x2="579.1587" y1="348.7482" y2="353.5109"/>
    <polyline points="581.7706,351.937 576.0526,347.6315 573.7797,346.3414"/>
    <line x1="576.3204" x2="576.3204" y1="344.6948" y2="344.6948"/>
    <polyline points="554.6442,357.0071 564.9477,362.0016 576.1758,368.0793 584.1642,374.9309 614.2313,391.5885"/>
    <polyline points="611.8913,394.0575 606.1678,390.1411 602.7774,388.6921 594.9633,383.9198"/>
    <polyline points="594.3208,386.0572 599.9886,389.5101 606.3009,392.8371 609.6089,395.918"/>
    <polyline points="607.3688,396.7964 605.8953,395.0832 594.1269,388.2464"/>
    <line x1="594.4782" x2="605.1531" y1="390.8354" y2="397.1988"/>
    <line x1="596.1433" x2="596.1433" y1="404.5367" y2="404.5367"/>
    <polyline points="596.8031,413.5386 594.2077,411.8099 588.7946,406.832 577.1437,401.1214"/>
    <polyline points="579.4191,399.5822 591.3192,406.2441 594.744,409.6987 599.4935,413.0325"/>
    <polyline points="602.2342,411.7289 595.5178,407.3665 593.7676,405.7677 584.2526,400.6829 581.7501,398.9502"/>
    <polyline points="584.1485,398.4987 596.1433,404.5367 605.0087,409.5026"/>
    <polyline points="605.6974,420.8333 594.1764,414.0866 586.1955,408.2976 574.9082,403.482"/>
    <line x1="564.6795" x2="556.2848" y1="398.6662" y2="392.8768"/>
    <line x1="555.8362" x2="561.9482" y1="395.1535" y2="400.1315"/>
    <line x1="559.2705" x2="555.0805" y1="400.7192" y2="397.2646"/>
    <line x1="554.3945" x2="556.6586" y1="399.597" y2="401.1958"/>
    <polyline points="554.1204,402.427 565.9853,408.4647 584.4052,421.8655 596.318,427.3444 604.509,432.0422 615.1123,437.0521"/>
    <line x1="612.9019" x2="605.2406" y1="439.1851" y2="435.7033"/>
    <line x1="605.9622" x2="610.6788" y1="439.1315" y2="441.6595"/>
    <line x1="608.424" x2="606.3139" y1="443.5517" y2="442.0567"/>
    <polyline points="606.1204,444.4598 615.0491,450.7695 624.5587,455.9615 615.0491,450.7695"/>
    <line x1="615.8096" x2="622.3111" y1="453.3993" y2="457.9818"/>
    <line x1="620.0919" x2="616.2764" y1="459.0212" y2="455.6089"/>
    <line x1="616.2166" x2="617.8816" y1="457.7359" y2="459.4416"/>
    <line x1="615.6601" x2="625.6392" y1="460.1592" y2="466.7335"/>
    <polyline points="622.8591,467.4001 614.8844,463.1099 613.4081,461.8241"/>
    <polyline points="611.1084,464.2379 614.2762,466.556 620.0693,468.9925"/>
    <polyline points="617.2901,471.3772 614.1388,470.2187 608.7471,466.5314"/>
    <polyline points="603.8061,468.5015 594.1207,463.3694 592.0922,461.7376"/>
    <polyline points="594.3783,461.2068 606.3146,467.9431 614.5407,473.7111"/>
    <line x1="616.0962" x2="625.0897" y1="483.5352" y2="490.382"/>
    <polyline points="627.8794,489.6882 635.2633,493.946 636.8277,495.2226"/>
    <polyline points="634.5265,496.9263 625.0897,490.382 634.5265,496.9263 646.3163,502.3846"/>
    <polyline points="643.7535,504.159 634.1356,499.3738 625.8438,492.4949 622.309,490.8092 613.7396,484.6756"/>
    <polyline points="611.3123,486.7822 614.6715,489.2121 619.5569,491.8799 626.2871,494.8453 634.2856,501.5076 641.1191,504.9622"/>
    <polyline points="638.4223,505.3676 634.9018,503.7031 627.841,499.0897 626.1986,497.7005 614.1786,492.7591 608.8092,489.2608"/>
    <polyline points="603.582,492.1226 594.2482,486.9563 592.6127,485.2411"/>
    <polyline points="594.8306,484.8388 606.2307,491.1842 614.2051,496.4118 625.6223,501.0764 635.6768,506.305"/>
    <polyline points="641.8159,513.5258 644.1991,515.0317 653.7993,519.938 662.1244,526.8149"/>
    <polyline points="659.4037,527.2267 654.8607,523.8732 651.3179,520.752 639.5107,515.3817"/>
    <polyline points="637.2547,517.8497 648.7604,522.5393 656.7396,527.9837"/>
    <polyline points="651.6223,532.1325 646.3117,528.5172 643.4379,527.2057"/>
    <polyline points="640.6953,528.4908 645.9486,531.5913 649.1771,534.394"/>
    <polyline points="646.8044,535.7522 645.2224,534.1207 637.9198,528.9889"/>
    <polyline points="632.3473,530.9573 635.8772,532.307 642.2363,536.8049"/>
    <polygon points="644.4952,536.2836 635.1304,529.5467"/>
    <polyline points="640.0109,538.142 636.2964,535.6051 629.5901,533.2502"/>
    <polyline points="626.8766,535.6643 636.1791,539.236 637.8002,540.3902"/>
    <polyline points="635.5838,542.8285 624.2216,537.3303 616.2462,530.7569"/>
    <polyline points="613.6069,531.1932 616.2529,532.8728 621.6359,538.0487"/>
    <polyline points="619.1255,538.4689 615.7448,535.2445 610.9061,532.3004"/>
    <polyline points="608.1577,534.3797 614.9752,538.1287 616.691,539.5073"/>
    <polyline points="612.0268,544.0111 606.0586,540.215 602.5893,538.8155 595.1494,534.1734 593.5964,532.5022"/>
    <polyline points="591.2397,532.9054 594.4419,536.3565 599.8087,539.7846 606.3202,543.0422 609.7737,546.0281"/>
    <polyline points="607.5517,547.0639 606.0335,545.3726 594.1226,538.4977 588.8123,533.7387"/>
    <polyline points="583.7305,538.0067 586.1413,539.163 591.705,542.7087 595.0124,543.9768 603.1226,548.204"/>
    <polyline points="600.876,549.8727 595.7779,547.4615 589.1298,545.1478 581.0818,540.2042"/>
    <polyline points="578.3733,541.4657 586.6302,547.3942 596.2654,551.1246 598.5839,552.2879"/>
    <polyline points="596.2318,554.5791 584.2063,548.7286 575.6195,541.954 584.2063,548.7286"/>
    <line x1="581.8527" x2="576.1972" y1="549.2486" y2="544.1395"/>
    <line x1="576.2879" x2="579.5593" y1="546.7204" y2="549.7813"/>
    <line x1="577.3118" x2="575.8463" y1="551.1423" y2="549.8494"/>
    <polyline points="575.0926,553.4055 586.0944,558.3304 594.1326,564.3083 605.8594,571.1314 612.91,576.0"/>
    <polyline points="609.1053,576.0 605.1086,573.2515 603.571,571.5782 591.6277,565.5238 586.3178,561.7198 574.4027,557.055 572.8823,555.8365"/>
    <polyline points="570.6608,557.5507 574.1205,560.4177 585.994,565.3752 589.1985,567.6882 601.2236,572.7224 604.4135,575.6451 605.0526,576.0"/>
    <polyline points="600.4725,576.0 598.8066,574.8319 586.8403,570.1557 585.2845,568.9132 577.8583,564.7827 574.3867,563.2562 568.4087,558.3056"/>
    <polyline points="563.7474,559.7109 572.2894,565.9991 575.8262,567.7061 584.1393,574.5587 587.1033,576.0"/>
    <polyline points="583.4104,576.0 576.2818,569.9776 569.5401,566.927 564.69,564.1762 561.3147,561.6882"/>
    <polyline points="558.806,564.1715 564.1856,567.6536 576.2081,572.7157 577.862,574.1486 580.6088,576.0"/>
    <polyline points="567.6347,576.0 561.6272,573.4328 556.2727,568.9448 544.2583,562.1772 542.6338,560.4499 535.5062,555.4868 531.9926,553.9542"/>
    <polyline points="529.3025,555.7171 536.1367,558.3082 540.4231,561.1878 544.1459,564.3579 550.8563,567.7412 555.7986,571.2024 559.1332,574.5847 561.9336,576.0"/>
    <polyline points="558.4763,576.0 556.7145,575.034 555.0362,573.3159 548.0999,568.4267 544.5692,566.9285 536.3103,561.6572 526.6761,558.163"/>
    <line x1="524.1221" x2="524.1221" y1="560.3939" y2="560.3939"/>
    <polyline points="521.6443,561.7045 524.4361,563.2839 533.6326,567.5805 535.2116,568.868 542.5278,572.4429 546.017,573.597"/>
    <polyline points="545.3172,570.0467 535.9405,565.3034 524.1221,560.3939 535.9405,565.3034 545.3172,570.0467 554.3657,575.6709 554.9564,576.0"/>
    <polygon points="593.4051,576.0 584.5431,572.0091 575.0686,565.5945 566.1089,558.7178 575.0686,565.5945 584.5431,572.0091"/>
    <line x1="605.8594" x2="612.91" y1="571.1314" y2="576.0"/>
    <polyline points="617.9081,576.0 614.6551,574.8103 608.1035,570.4893 606.2916,568.9026"/>
    <polyline points="606.1897,566.237 614.1726,571.384 620.9376,573.7054 625.6013,576.0"/>
    <polyline points="630.1949,576.0 626.238,572.7303 623.6305,571.3908 614.2126,567.7231 612.5315,566.5663 605.6045,563.0244"/>
    <polyline points="607.6097,557.0409 615.5296,561.1658 617.011,562.6905 628.8179,569.3625 634.1552,574.5042 636.6623,576.0"/>
    <polygon points="633.4587,576.0 626.2603,569.9413 604.8278,559.4272 626.2603,569.9413"/>
    <line x1="626.2603" x2="626.2603" y1="569.9413" y2="569.9413"/>
    <polyline points="624.1237,560.4368 615.922,554.3398 624.1237,560.4368 636.0442,565.4459 645.1713,570.1439 655.4575,576.0"/>
    <line x1="714.8911" x2="714.8911" y1="564.3002" y2="564.3002"/>
    <line x1="717.1285" x2="715.6666" y1="562.6404" y2="561.1533"/>
    <line x1="716.2196" x2="719.4069" y1="558.5549" y2="561.9266"/>
    <line x1="721.7418" x2="716.2744" y1="561.5052" y2="556.3611"/>
    <line x1="715.8037" x2="724.1446" y1="554.2264" y2="560.4609"/>
    <line x1="718.5269" x2="715.0421" y1="553.2491" y2="551.7758"/>
    <line x1="714.3695" x2="721.1943" y1="548.7919" y2="551.2869"/>
    <line x1="723.794" x2="714.1211" y1="548.8046" y2="545.3231"/>
    <line x1="714.4209" x2="726.3193" y1="541.6596" y2="546.7326"/>
    <line x1="716.1846" x2="704.9304" y1="530.6131" y2="523.8289"/>
    <polyline points="702.7175,525.1423 704.3017,526.518 713.5129,531.0931"/>
    <polyline points="710.7862,532.3337 704.1311,529.7526 700.5048,527.375"/>
    <polyline points="698.2724,529.8201 704.5036,533.3593 708.0203,534.5165"/>
    <line x1="705.2335" x2="696.0017" y1="536.9791" y2="531.5804"/>
    <line x1="693.6767" x2="695.2953" y1="532.372" y2="534.0648"/>
    <line x1="694.5516" x2="691.2855" y1="536.2106" y2="532.7787"/>
    <line x1="688.8203" x2="694.1414" y1="533.729" y2="538.3872"/>
    <polyline points="691.6579,542.8181 686.2128,539.3086 683.664,538.1446"/>
    <polyline points="680.9836,540.2405 685.6519,542.878 689.1204,545.2887"/>
    <line x1="686.6592" x2="678.2503" y1="547.4403" y2="541.3678"/>
    <line x1="675.4803" x2="684.2716" y1="541.8097" y2="548.6387"/>
    <line x1="676.3136" x2="669.9061" y1="546.7237" y2="544.0356"/>
    <line x1="672.6922" x2="676.1216" y1="542.4631" y2="544.0456"/>
    <line x1="675.9605" x2="667.1417" y1="549.9482" y2="546.4115"/>
    <line x1="664.4176" x2="675.2384" y1="548.7556" y2="553.5506"/>
    <polygon points="686.2789,535.6646 694.2692,540.9487"/>
    <polyline points="664.8865,525.8244 656.2058,519.5335 644.1838,512.6515"/>
    <polyline points="635.0311,520.0122 646.1307,524.9918 654.1436,529.7007 646.1307,524.9918"/>
    <line x1="626.3031" x2="634.607" y1="546.7197" y2="553.0304"/>
    <line x1="631.8899" x2="623.8163" y1="553.9375" y2="548.6762"/>
    <line x1="621.2534" x2="629.2304" y1="551.1582" y2="555.8288"/>
    <line x1="626.6395" x2="618.6188" y1="558.303" y2="553.2352"/>
    <polyline points="613.1764,554.7754 616.3068,556.5068 621.6839,561.6119 624.3409,563.224 633.7059,567.6331 635.3572,568.9544 642.3861,572.5873 645.9096,573.7418 649.8936,576.0"/>
    <polyline points="642.7108,576.0 639.6241,574.8242 634.602,572.0003 631.2993,568.88 624.9967,565.5271 619.3161,562.0685 616.1499,558.6603 610.3993,555.4446"/>
    <line x1="594.1326" x2="594.1326" y1="564.3083" y2="564.3083"/>
    <line x1="584.5431" x2="584.5431" y1="572.0091" y2="572.0091"/>
    <polyline points="564.1971,571.317 575.6419,575.9945 575.6523,576.0"/>
    <polyline points="575.6523,576.0 575.6419,575.9945 564.1971,571.317 556.2221,566.2294 544.8505,560.0344 534.7332,553.1605 544.8505,560.0344 556.2221,566.2294 564.1971,571.317"/>
    <polyline points="555.672,562.9707 547.0928,559.0205 545.6271,557.5585 537.5076,552.754"/>
    <polyline points="540.2968,551.8061 546.2009,554.5446 549.3787,557.0236 554.8968,559.3543"/>
    <polyline points="554.2829,555.7439 551.723,554.5395 546.2859,551.0562 543.0806,549.873"/>
    <line x1="545.8395" x2="554.1365" y1="547.3933" y2="552.5003"/>
    <polyline points="543.0216,576.0 539.7517,574.762 534.4871,572.0131 531.2615,568.9644 519.2412,562.2137"/>
    <polyline points="516.906,562.7582 528.8181,569.5084 534.1282,574.6099 536.8912,576.0"/>
    <polyline points="533.3654,576.0 526.2986,570.018 514.6272,564.1432"/>
    <line x1="504.9672" x2="496.1657" y1="559.2813" y2="554.506"/>
    <polyline points="493.7798,556.0519 495.5584,557.5703 502.1965,561.6772"/>
    <polyline points="499.4621,563.2961 494.7826,560.0909 491.3204,556.6881"/>
    <polyline points="488.7846,557.1376 494.2251,562.2502 496.7804,563.9808"/>
    <line x1="494.1638" x2="486.1751" y1="564.4109" y2="558.2906"/>
    <line x1="526.2986" x2="526.2986" y1="570.018" y2="570.018"/>
    <line x1="645.1713" x2="645.1713" y1="570.1439" y2="570.1439"/>
    <polygon points="594.3506,540.9687 605.3413,547.4836 594.3506,540.9687 586.3092,535.5486"/>
    <polyline points="605.379,536.8614 614.3279,541.5266 584.1273,525.217"/>
    <polyline points="586.6973,524.3739 596.3002,528.4738 598.1416,529.7087"/>
    <polyline points="600.3617,527.2349 596.1697,524.9204 589.3382,522.5528"/>
    <polyline points="592.0404,520.092 595.5658,521.2699 602.572,525.099"/>
    <line x1="604.7925" x2="594.7898" y1="523.9212" y2="517.9029"/>
    <polyline points="593.1605,508.8751 584.9723,503.7539 581.6899,502.1304"/>
    <line x1="584.3262" x2="595.382" y1="501.5804" y2="508.3365"/>
    <polyline points="590.9084,509.3896 585.7421,506.3085 579.1252,503.5263"/>
    <polyline points="576.6364,505.8105 586.2518,509.4097 588.6086,510.712"/>
    <polygon points="586.2472,512.9507 574.2229,508.2299"/>
    <polyline points="583.8146,515.3933 574.1653,511.3916 571.8785,509.9104"/>
    <polyline points="569.5925,510.6395 574.6338,514.0048 581.3061,517.1448"/>
    <polyline points="578.7222,517.9293 575.3948,516.2059 567.3501,511.057"/>
    <line x1="565.1334" x2="576.0689" y1="512.0818" y2="518.3368"/>
    <line x1="564.1217" x2="560.698" y1="518.8988" y2="516.5731"/>
    <line x1="558.4402" x2="564.3605" y1="518.6024" y2="522.5246"/>
    <line x1="565.0281" x2="556.1324" y1="525.8084" y2="519.6519"/>
    <line x1="562.9228" x2="564.4307" y1="514.0888" y2="515.2994"/>
    <polyline points="564.6095,489.1696 554.9879,484.3929 546.1547,479.5328 534.1534,473.661"/>
    <line x1="534.2427" x2="531.7603" y1="475.9035" y2="474.1719"/>
    <line x1="529.4338" x2="534.8194" y1="474.7144" y2="478.02"/>
    <line x1="535.5961" x2="527.1618" y1="480.3944" y2="476.0955"/>
    <polyline points="522.7157,480.7954 515.4264,476.7489 511.9332,475.2515"/>
    <polyline points="509.2599,475.9389 516.0889,479.3214 520.503,482.4902"/>
    <polyline points="518.2708,483.2301 516.3184,481.503 506.6533,476.3681"/>
    <line x1="501.6643" x2="513.6758" y1="479.503" y2="484.6565"/>
    <polygon points="516.0004,483.6452 504.1206,477.4475"/>
    <line x1="511.285" x2="499.2812" y1="486.651" y2="481.9864"/>
    <line x1="496.9633" x2="508.8204" y1="483.9662" y2="489.135"/>
    <polygon points="506.2794,491.1766 494.6979,484.9618"/>
    <polyline points="503.6649,492.2398 494.1886,487.1005 492.4687,485.3744"/>
    <polyline points="490.257,486.1272 494.1939,489.2876 500.985,492.6653"/>
    <polyline points="498.2519,493.3647 494.711,491.8719 488.0428,487.8387"/>
    <line x1="485.8062" x2="495.4821" y1="490.2688" y2="495.0044"/>
    <line x1="504.2707" x2="516.2797" y1="500.6074" y2="507.2511"/>
    <polyline points="518.6655,506.7847 516.2115,505.1223 506.6587,499.9576"/>
    <line x1="509.1204" x2="520.9858" y1="499.5142" y2="505.5809"/>
    <line x1="523.253" x2="511.6584" y1="503.4252" y2="498.3815"/>
    <line x1="516.9477" x2="526.1234" y1="493.8017" y2="497.6639"/>
    <line x1="526.3133" x2="519.6789" y1="494.9111" y2="491.8711"/>
    <line x1="522.4477" x2="525.9583" y1="490.9257" y2="492.6304"/>
    <line x1="525.2354" x2="525.2354" y1="490.5195" y2="490.5195"/>
    <polygon points="525.4832,500.9555 514.2701,496.2812"/>
    <line x1="536.1854" x2="514.6612" y1="483.2822" y2="473.6287"/>
    <polyline points="536.6206,472.3465 546.3054,476.0887 554.3356,480.761 557.7767,481.9982 565.3661,486.1073 566.8918,487.6265"/>
    <polyline points="569.2317,486.9921 566.0501,483.5886 560.5616,480.3821 554.1244,477.4597 550.7346,474.8312 545.915,472.4261 539.164,470.1131"/>
    <polyline points="541.7808,467.6683 545.1784,468.9319 552.9629,473.1429 554.4597,474.6958 566.3204,481.4301 571.6401,486.5417"/>
    <polyline points="576.6829,483.2673 574.3427,482.0776 568.7046,478.1829 565.3543,476.7424 557.389,471.9917 555.9119,470.2975 547.1972,465.1183"/>
    <polyline points="549.9679,464.7115 556.3047,467.9775 559.6266,470.9743 564.5996,473.6719 571.2987,476.1219 579.3144,480.7905"/>
    <polyline points="582.0087,478.8812 573.8181,473.6388 564.1544,470.1486 561.9055,468.9741 556.1568,465.1653 552.7562,463.7602"/>
    <polyline points="555.542,461.8237 564.2408,466.4899 576.2612,471.6648 584.7524,477.9567 576.2612,471.6648 564.2408,466.4899 534.1585,450.1423 526.1651,443.2638"/>
    <polyline points="528.7795,442.854 534.2336,447.794 536.7703,449.3155 546.2559,453.4313 547.9828,454.6701 554.7669,458.1795 558.3055,459.3436 564.8156,463.0808 566.6441,464.4539 576.2369,469.0216 578.6322,470.6752 584.2114,475.832 587.5285,477.5523"/>
    <polyline points="590.318,476.7374 584.1735,473.6168 580.9399,470.2636 575.7057,466.805 569.1221,463.397 565.5923,460.1816 561.0284,457.2485 554.2179,454.6104 546.2429,449.8858 539.448,447.5133 534.8008,444.9417 531.3204,442.085"/>
    <polyline points="533.7849,440.3527 542.1792,445.057 545.72,446.2326 552.4086,450.0486 554.1687,451.4566 563.6953,456.1222 566.1835,457.7986 571.6763,462.9729 583.1977,469.5058 584.6577,470.9763 593.1006,474.949"/>
    <polyline points="598.5691,470.2832 595.1056,468.9713 587.6331,465.3555"/>
    <polyline points="589.8498,463.0948 594.4115,465.898 601.2224,468.9992"/>
    <line x1="604.1901" x2="596.2137" y1="454.6599" y2="449.9568"/>
    <polyline points="598.8027,447.4996 604.1924,451.4583 606.8264,452.9236"/>
    <polyline points="609.5247,452.1514 604.7074,448.8044 601.3165,445.6934"/>
    <polyline points="603.7543,444.8632 605.4781,446.582 612.2713,451.7421"/>
    <polyline points="617.8387,448.812 625.3043,452.3046 626.8523,453.4771"/>
    <polyline points="629.206,451.461 626.008,448.7733 620.6201,446.33"/>
    <polyline points="623.3739,444.2538 626.319,445.689 631.6301,450.4262"/>
    <polygon points="634.1299,450.0067 626.0822,443.1503"/>
    <polyline points="636.7053,449.2855 634.3067,447.7278 628.7308,442.7149"/>
    <polyline points="631.3093,442.045 634.9391,444.9778 639.3511,447.6157"/>
    <line x1="642.0572" x2="633.8122" y1="445.2002" y2="440.4476"/>
    <polygon points="636.2394,438.0608 644.8094,442.9096"/>
    <line x1="638.596" x2="644.2378" y1="435.7295" y2="439.9477"/>
    <line x1="644.1561" x2="640.8917" y1="437.5153" y2="434.2491"/>
    <line x1="643.1409" x2="644.6051" y1="433.6527" y2="435.3858"/>
    <polyline points="645.3609,433.1817 664.1254,444.0826 676.0571,448.8175 685.1516,454.4187 694.4793,461.0613 685.1516,454.4187 676.0571,448.8175 664.1254,444.0826"/>
    <polyline points="661.6907,446.3464 664.3292,447.6391 673.7146,451.2223 675.3768,452.3761 682.3674,455.9873 685.8941,457.2965 692.2173,461.6664"/>
    <polyline points="689.9901,463.1617 686.3006,460.6897 679.6076,458.3615 674.6185,456.0247 671.303,453.5294 664.9774,450.7688 659.3275,447.7086"/>
    <polyline points="657.0262,448.2418 668.8163,454.9652 674.1603,459.3835 686.1685,464.3457 687.779,465.5006"/>
    <polyline points="683.3247,469.4637 671.6397,462.8306 666.2454,457.6758 663.6193,456.0243 654.2207,451.4649 652.5509,450.0945"/>
    <polygon points="654.773,448.7613 666.2536,455.5364 674.2307,462.2169 685.5637,467.881 674.2307,462.2169 666.2536,455.5364"/>
    <polyline points="650.3406,452.3402 654.1668,454.7128 660.9225,457.2846 665.726,460.1415 669.1236,463.2916 675.5708,466.6631 681.0437,470.1239"/>
    <polyline points="678.7056,470.563 676.1723,468.9376 666.6837,464.4799 664.9546,463.1433 658.1771,459.4814 654.6382,458.325 648.1219,454.7797"/>
    <polyline points="645.8754,456.5208 664.3157,466.624 676.2992,471.6806"/>
    <line x1="665.9382" x2="674.1223" y1="479.1533" y2="485.4073"/>
    <polyline points="671.677,486.4331 666.3099,481.2844 663.1957,479.561"/>
    <polyline points="660.4202,480.3446 666.1384,483.4852 669.3042,486.8509"/>
    <polyline points="666.9949,487.5792 665.5091,486.0976 657.6308,482.0951"/>
    <line x1="654.8477" x2="664.7359" y1="484.5374" y2="489.2585"/>
    <line x1="676.267" x2="684.2492" y1="494.819" y2="501.4354"/>
    <line x1="684.1501" x2="678.8191" y1="499.3126" y2="494.1424"/>
    <line x1="681.295" x2="684.5846" y1="493.7095" y2="496.9066"/>
    <line x1="685.3361" x2="683.6963" y1="493.9777" y2="492.6152"/>
    <line x1="686.03" x2="695.1926" y1="490.5469" y2="495.2163"/>
    <polyline points="697.9806,493.3153 694.473,491.8992 688.3074,488.0643"/>
    <polyline points="690.5442,486.0982 694.1261,489.1165 700.7507,492.3987"/>
    <polyline points="703.4839,491.9949 694.3249,486.8164 692.7585,485.1169"/>
    <line x1="697.1991" x2="705.5556" y1="483.9416" y2="488.1205"/>
    <polygon points="706.1642,491.1726 694.9701,484.7064"/>
    <line x1="704.7799" x2="699.4643" y1="484.6082" y2="482.2148"/>
    <line x1="701.7819" x2="704.2238" y1="479.7797" y2="480.9477"/>
    <line x1="704.1647" x2="716.1766" y1="477.5247" y2="483.4388"/>
    <polyline points="718.5014,482.9449 716.2975,481.2124 706.6206,476.1767"/>
    <polyline points="709.1529,475.6503 715.8813,479.0915 720.7721,482.3817"/>
    <line x1="723.0045" x2="711.7592" y1="480.9608" y2="475.1241"/>
    <line x1="714.1218" x2="708.7903" y1="470.3541" y2="466.5877"/>
    <polyline points="706.3199,467.862 714.4322,473.7768 725.2171,478.662"/>
    <line x1="725.5009" x2="715.7897" y1="466.5942" y2="460.1285"/>
    <polyline points="718.0242,459.3057 724.7282,464.4842 728.2688,466.1838"/>
    <polyline points="730.9988,465.203 724.201,462.1844 720.2376,458.9019"/>
    <polyline points="722.4499,457.9859 724.1821,459.4022 733.6747,463.2375"/>
    <line x1="738.8204" x2="726.9493" y1="458.6861" y2="453.6098"/>
    <line x1="729.2712" x2="741.28" y1="451.4837" y2="457.5912"/>
    <line x1="743.6661" x2="731.659" y1="457.1581" y2="450.3185"/>
    <line x1="734.1204" x2="734.1204" y1="449.8652" y2="449.8652"/>
    <polyline points="734.3958,447.6449 728.6644,442.5712 725.2708,440.8382"/>
    <polyline points="724.5323,438.712 731.2791,441.9867 735.0823,444.9949"/>
    <polyline points="735.8377,441.7971 733.8203,440.527 724.1369,436.2921"/>
    <polygon points="724.2817,433.3456 736.2853,438.2067"/>
    <line x1="726.6646" x2="736.2019" y1="431.0672" y2="434.5744"/>
    <line x1="735.6292" x2="729.1206" y1="431.2721" y2="428.6444"/>
    <line x1="731.653" x2="734.8526" y1="426.9544" y2="428.5069"/>
    <line x1="734.2594" x2="734.2594" y1="426.2182" y2="426.2182"/>
    <line x1="736.0154" x2="745.2138" y1="415.6372" y2="420.3035"/>
    <polyline points="748.0012,418.2661 744.4887,416.8934 738.2894,413.1572"/>
    <polyline points="740.5238,411.0609 744.1285,413.993 750.7692,417.2075"/>
    <polyline points="753.499,416.7831 744.3127,411.609 742.7373,409.9329"/>
    <line x1="744.9495" x2="756.1749" y1="409.4908" y2="416.0802"/>
    <line x1="764.1637" x2="768.0" y1="421.601" y2="423.1621"/>
    <line x1="768.0" x2="764.6291" y1="426.3033" y2="424.7883"/>
    <line x1="765.3893" x2="768.0" y1="427.4276" y2="428.8409"/>
    <line x1="768.0" x2="766.0653" y1="430.8709" y2="429.6421"/>
    <polyline points="763.7896,432.6931 766.0264,434.1824 768.0,435.8494"/>
    <polyline points="768.0,439.0642 765.3309,437.1231 761.1849,434.604"/>
    <polyline points="758.5134,437.081 766.6211,441.7587 768.0,442.318"/>
    <polyline points="768.0,445.731 764.1489,444.2244 755.7868,439.1984 764.1489,444.2244"/>
    <polyline points="761.751,446.3962 756.2686,441.9694 753.021,440.3524"/>
    <polyline points="750.2343,440.8023 756.2277,444.2618 759.4204,447.6217"/>
    <polyline points="757.1452,448.0961 755.6846,446.372 747.4466,441.4378"/>
    <line x1="744.678" x2="754.91" y1="442.9826" y2="448.6872"/>
    <line x1="755.7868" x2="755.7868" y1="439.1984" y2="439.1984"/>
    <polyline points="745.9866,456.482 734.1204,449.8652 725.9842,443.0498"/>
    <polygon points="724.6809,456.0854 736.2845,460.7549"/>
    <line x1="714.9068" x2="706.1962" y1="450.7633" y2="444.3298"/>
    <line x1="705.6174" x2="712.1424" y1="446.4406" y2="451.6171"/>
    <line x1="709.4181" x2="704.8407" y1="452.0196" y2="448.7221"/>
    <line x1="704.2533" x2="706.7494" y1="451.4762" y2="452.903"/>
    <polyline points="704.1481,454.769 696.1425,450.0948 685.0102,444.9887 674.5907,438.7723 685.0102,444.9887"/>
    <polyline points="687.2356,442.9487 685.7759,441.7445 677.348,437.7783"/>
    <polyline points="674.5907,438.7723 666.3064,431.8958 654.3396,425.4802"/>
    <polyline points="652.0422,427.3325 654.1239,428.5754 663.8144,432.7067 671.877,439.1847 675.3435,440.9107 682.7994,446.0504 684.3493,447.6883 696.3089,453.5459 701.6212,457.2389"/>
    <polyline points="699.1706,459.3934 695.9325,456.5037 690.7144,453.3249 684.1227,449.9365 680.5831,446.4755 676.035,443.0983 669.2219,439.9387 661.2464,434.4904 654.4549,432.1129 649.7918,429.7999"/>
    <polyline points="647.5712,431.9651 655.1676,435.7683 658.6073,436.9419 666.636,441.6519 676.3203,445.6838 684.4435,452.0518 687.9406,453.7678 695.2011,458.9328 696.7928,460.5955"/>
    <line x1="696.1425" x2="696.1425" y1="450.0948" y2="450.0948"/>
    <polyline points="689.4946,440.4646 686.2647,438.1338 680.1312,435.8"/>
    <polyline points="682.9205,433.3166 686.2327,434.5176 691.804,438.4686"/>
    <line x1="694.1769" x2="685.696" y1="437.4558" y2="431.2597"/>
    <polyline points="682.2541,422.4564 675.8612,417.2947 672.3288,415.6358 665.4173,411.0461"/>
    <polyline points="663.7314,409.6653 651.7059,404.7451 646.2956,401.2413 643.1205,400.008 634.6395,395.9144 633.1785,394.4005"/>
    <polyline points="630.9237,395.0476 634.1672,398.4462 646.181,404.555 649.352,407.1739 661.3095,411.8857"/>
    <polyline points="658.8121,414.3357 647.0584,408.8813 645.5874,407.3336 637.5494,402.34 634.22,400.61 628.6202,395.4922"/>
    <polyline points="626.2542,396.6289 644.8108,409.631 656.2389,416.1138"/>
    <polyline points="664.172,417.8695 676.1887,422.7095 677.8198,424.0562"/>
    <polyline points="680.0304,422.9053 676.2921,419.7363 669.574,416.8581 664.6532,414.2682"/>
    <line x1="664.2135" x2="675.6024" y1="421.4938" y2="426.1711"/>
    <line x1="666.3064" x2="666.3064" y1="431.8958" y2="431.8958"/>
    <line x1="655.9066" x2="655.9066" y1="439.1584" y2="439.1584"/>
    <line x1="644.3638" x2="655.3202" y1="465.8918" y2="472.2733"/>
    <line x1="653.1028" x2="645.0333" y1="473.1155" y2="469.0147"/>
    <line x1="645.7961" x2="650.8588" y1="472.5676" y2="474.9355"/>
    <line x1="648.5705" x2="646.2718" y1="477.396" y2="476.2183"/>
    <line x1="646.2233" x2="646.2233" y1="479.586" y2="479.586"/>
    <line x1="644.136" x2="636.1071" y1="489.1533" y2="483.3429"/>
    <polyline points="633.4064,485.6554 636.3161,486.8162 641.6254,490.5252"/>
    <polyline points="639.1909,492.7951 635.9788,490.4797 630.658,488.0564"/>
    <line x1="616.3096" x2="604.3525" y1="507.1083" y2="500.5632"/>
    <line x1="604.1224" x2="613.812" y1="503.5426" y2="507.8013"/>
    <line x1="611.2386" x2="604.4398" y1="509.432" y2="507.0085"/>
    <line x1="605.1464" x2="608.5946" y1="510.6719" y2="511.8326"/>
    <line x1="605.8899" x2="605.8899" y1="514.1458" y2="514.1458"/>
    <line x1="595.3383" x2="585.9243" y1="495.1037" y2="490.4107"/>
    <polyline points="588.1792,487.9454 594.5864,491.8759 598.1198,493.3304"/>
    <polyline points="600.8736,492.5281 594.1506,489.1942 590.4022,486.1031"/>
    <polyline points="585.4224,467.7877 595.857,472.4963 585.4224,467.7877 574.3029,462.2688 566.2945,455.6806 544.948,442.8539 536.1757,437.916"/>
    <polyline points="545.2153,433.2695 556.0144,439.1002 564.1212,443.9375 575.9553,448.733"/>
    <polyline points="576.3128,445.699 566.67,441.5592 558.6856,436.7982 555.3135,435.6362 547.4283,431.9165"/>
    <polyline points="549.6615,429.6584 554.5662,431.9728 561.2899,434.3899 569.2918,439.9815 576.1257,443.2055"/>
    <polyline points="575.4871,441.0565 571.9779,439.3246 563.82,432.7395 554.1451,428.4971 551.9335,427.2248"/>
    <line x1="554.2601" x2="554.2601" y1="425.5028" y2="425.5028"/>
    <polyline points="556.6534,424.7418 566.2205,429.9206 568.6545,431.6092"/>
    <polyline points="566.2738,432.0324 554.2601,425.5028 566.2738,432.0324 574.7156,438.8841"/>
    <line x1="570.9704" x2="559.1206" y1="430.5561" y2="424.3307"/>
    <line x1="561.6641" x2="573.2343" y1="423.3449" y2="428.5235"/>
    <polyline points="575.4625,426.0393 564.281,421.3745 575.4625,426.0393 585.8231,431.2493 594.14,437.5774"/>
    <line x1="596.6235" x2="588.5424" y1="437.1747" y2="430.2943"/>
    <line x1="591.2048" x2="599.1831" y1="429.8871" y2="436.3284"/>
    <line x1="601.8146" x2="593.7988" y1="434.5037" y2="429.0997"/>
    <line x1="598.7611" x2="586.7407" y1="424.9008" y2="420.1813"/>
    <line x1="584.4052" x2="584.4052" y1="421.8655" y2="421.8655"/>
    <polyline points="584.1205,424.3007 575.9739,417.4204 572.4683,415.7377 565.2723,411.0433"/>
    <line x1="563.6651" x2="551.6585" y1="409.6245" y2="404.6031"/>
    <line x1="549.2703" x2="561.2795" y1="407.0676" y2="411.7464"/>
    <line x1="558.8204" x2="546.948" y1="414.2227" y2="408.906"/>
    <polyline points="542.4481,410.1669 544.1815,411.8801 553.6756,417.0491"/>
    <polyline points="551.0001,417.4532 544.2017,414.1264 540.2358,411.0456"/>
    <polyline points="538.0224,412.9064 544.7299,416.8226 548.2704,418.2715"/>
    <polygon points="545.5026,420.0638 535.7881,415.3754"/>
    <polyline points="542.7152,422.5176 535.0241,418.8654 533.5144,417.534"/>
    <polyline points="531.1857,418.7415 534.358,421.8819 539.9282,424.7278"/>
    <polyline points="537.1615,426.0077 534.1219,424.36 528.7899,419.2093"/>
    <line x1="526.32" x2="534.4335" y1="419.8111" y2="426.5036"/>
    <polygon points="556.2849,416.1282 544.6793,409.7645"/>
    <polyline points="564.1371,417.7245 576.1111,422.6519 577.674,424.0356 585.0649,428.6335"/>
    <polyline points="584.3843,426.431 579.8886,423.0143 576.3155,419.7817 564.5334,414.1697"/>
    <polyline points="589.1441,417.7605 595.4315,420.1195 601.132,422.6646"/>
    <line x1="603.4396" x2="591.6222" y1="421.346" y2="415.4786"/>
    <line x1="594.1764" x2="594.1764" y1="414.0866" y2="414.0866"/>
    <line x1="615.601" x2="624.2141" y1="427.5484" y2="433.2751"/>
    <line x1="624.7585" x2="618.3573" y1="429.765" y2="426.0979"/>
    <line x1="621.0693" x2="625.5332" y1="423.7826" y2="426.1041"/>
    <line x1="626.1519" x2="623.7225" y1="422.6785" y2="421.3836"/>
    <line x1="626.3062" x2="626.3062" y1="419.7567" y2="419.7567"/>
    <line x1="634.7717" x2="634.7717" y1="402.7664" y2="402.7664"/>
    <polyline points="635.4015,392.8378 645.8741,397.6054 654.1301,402.4776 666.0832,408.3705 684.5101,421.8188 675.1108,415.1626"/>
    <line x1="677.9003" x2="685.2421" y1="414.5696" y2="418.9564"/>
    <line x1="685.9633" x2="680.6774" y1="415.575" y2="413.0951"/>
    <line x1="683.4228" x2="686.314" y1="410.767" y2="411.9213"/>
    <line x1="686.1195" x2="686.1195" y1="408.3777" y2="408.3777"/>
    <line x1="694.3773" x2="686.3144" y1="390.8403" y2="385.7187"/>
    <polyline points="685.966,382.277 688.8064,383.6339 694.1207,388.1538"/>
    <polyline points="694.4125,385.9132 691.223,382.5201 685.2458,379.3327"/>
    <polyline points="684.513,376.9144 693.5701,382.082 695.1071,383.7963"/>
    <line x1="695.8582" x2="684.1328" y1="381.4192" y2="374.7887"/>
    <polyline points="681.3121,366.9212 674.6702,363.6385 669.5582,360.2 666.2875,356.7562 654.2864,350.4203 651.1199,347.6816"/>
    <polyline points="653.4234,346.205 654.9032,347.8103 662.8394,352.9053 666.1979,354.6375 671.8518,359.6649 674.1781,361.2304 683.8095,365.4816"/>
    <polyline points="686.2313,363.1723 674.2057,358.2988 655.6782,345.6108"/>
    <line x1="656.2248" x2="657.9011" y1="343.4791" y2="345.1384"/>
    <line x1="660.1116" x2="656.2707" y1="343.9181" y2="341.0387"/>
    <line x1="655.7929" x2="662.3295" y1="338.0671" y2="341.7501"/>
    <polyline points="666.8645,337.4347 678.8122,343.8536 684.1225,349.0326 687.0578,350.7297"/>
    <polyline points="684.3515,351.1426 676.3094,344.6615 655.0296,334.6065 646.1316,329.5162 655.0296,334.6065"/>
    <polyline points="652.2534,336.7198 645.4973,332.2293 643.7609,330.5953"/>
    <polyline points="641.318,331.0244 644.7249,334.4856 649.5095,337.8688"/>
    <polyline points="646.815,338.3171 644.1996,336.5993 638.799,331.7121"/>
    <polyline points="636.2051,333.3351 644.1833,338.956 636.2051,333.3351 624.8879,328.593 614.6981,323.6815 624.8879,328.593"/>
    <polyline points="627.1257,326.1685 625.6635,324.9464 617.469,321.4526"/>
    <line x1="614.6981" x2="614.6981" y1="323.6815" y2="323.6815"/>
    <polyline points="611.9635,324.9889 615.4679,326.5691 622.6732,330.8682 624.2781,332.1565 636.2835,336.8866 641.6236,340.506"/>
    <polyline points="639.1399,342.8717 635.8318,340.5378 630.8237,338.05 624.1381,335.2994 616.1143,328.9434 609.2813,325.4967"/>
    <polyline points="606.6643,326.0429 616.315,331.0598 624.5378,337.894 628.0626,339.5044 636.7312,345.2269"/>
    <polyline points="648.754,350.0108 654.1354,353.5787 665.8451,359.1429 667.3104,360.7177 675.4366,365.7617 678.739,367.4946"/>
    <polyline points="673.3908,369.2374 664.4017,365.4599 662.8809,364.2903 655.2618,360.7932 651.8268,359.5671 645.9815,355.5038"/>
    <polyline points="645.2671,358.0615 649.1903,361.2407 655.9777,364.1308 660.6594,366.7309 664.1205,369.1191 670.6399,371.4315"/>
    <polyline points="667.8598,373.8907 664.3877,372.6396 656.316,366.9381 646.6253,361.9647 644.5294,360.2364"/>
    <polyline points="644.2837,364.8715 653.7469,369.663 655.4574,371.365 662.2908,376.5426"/>
    <polyline points="659.5413,376.9456 654.6887,373.656 651.3145,370.6277 644.8982,367.8993"/>
    <polyline points="645.6734,371.3965 648.8063,372.5775 654.1851,376.4249 656.8389,377.8461"/>
    <line x1="654.1977" x2="646.2227" y1="379.7303" y2="375.0588"/>
    <polygon points="656.108,369.2547 665.0701,375.7052 656.108,369.2547 644.1362,362.3835"/>
    <polygon points="654.5253,357.1502 646.3164,352.3992 654.5253,357.1502 665.0912,362.0471 676.0953,367.9809 665.0912,362.0471"/>
    <line x1="665.6208" x2="665.6208" y1="352.4039" y2="352.4039"/>
    <line x1="676.3094" x2="676.3094" y1="344.6615" y2="344.6615"/>
    <polyline points="671.6329,336.1645 683.5955,342.5164 685.1479,343.9275 692.5908,347.7505"/>
    <polyline points="689.8101,349.7321 684.4409,346.7236 681.2392,343.4486 669.2138,336.5669"/>
    <polyline points="676.6978,333.4447 686.2999,336.9588 694.6216,341.8459 698.1591,343.2132"/>
    <polyline points="700.9072,342.1359 694.1613,338.9305 690.3602,336.0094 686.1704,333.3821 679.3391,330.9777"/>
    <polyline points="682.0416,328.811 685.5672,330.2131 692.5705,334.8623 694.2291,336.535 703.6077,341.7072"/>
    <polygon points="706.2467,341.0182 694.7912,334.4145 684.7911,327.5925 694.7912,334.4145"/>
    <polyline points="708.8145,339.3934 697.0416,333.7744 695.5673,332.187 687.5704,327.1208"/>
    <polyline points="690.3602,326.5255 696.1704,329.5237 699.3392,332.2225 704.9582,334.6734 711.3063,336.9951"/>
    <polyline points="713.7229,334.6787 701.6978,329.856 696.2999,326.3132 693.1402,325.0471"/>
    <line x1="695.8911" x2="695.8911" y1="322.7169" y2="322.7169"/>
    <polyline points="695.1479,319.0887 698.5955,320.3293 704.4821,324.4517"/>
    <polyline points="705.2049,321.9442 701.2391,318.7299 694.4408,315.7982"/>
    <polyline points="694.1225,313.0467 703.8121,318.0586 705.9354,319.7899"/>
    <polyline points="706.3094,317.6238 694.3516,310.7668 685.3398,304.2544 675.9231,298.8375 664.1236,294.1536 656.0432,289.0954"/>
    <polyline points="653.324,290.2111 656.3204,291.8369 661.6398,296.2962"/>
    <polyline points="659.231,297.4826 656.0491,294.1104 650.563,290.6497"/>
    <polyline points="647.7782,291.3111 655.3647,296.2219 656.8909,297.9429"/>
    <line x1="654.6082" x2="644.9894" y1="298.5578" y2="292.8958"/>
    <line x1="674.7537" x2="674.136" y1="288.5004" y2="288.0"/>
    <polyline points="716.8589,288.0 726.108,292.8314 734.1362,299.5667"/>
    <polyline points="736.7224,299.0368 734.2837,297.4046 728.7468,292.272 721.4356,288.0"/>
    <polyline points="724.0424,288.0 724.6887,288.434 731.3145,291.7752 734.8982,294.8773 739.3778,297.6817"/>
    <polyline points="742.0916,295.4222 733.8063,290.4932 728.3299,288.0"/>
    <polyline points="735.5435,288.0 736.2227,288.2814 744.8491,292.9893 736.2227,288.2814"/>
    <polyline points="741.6803,288.0 744.2576,289.7994 747.6323,291.2694"/>
    <line x1="750.4216" x2="745.7232" y1="290.51" y2="288.0"/>
    <line x1="749.6865" x2="753.197" y1="288.0" y2="290.0986"/>
    <line x1="755.9393" x2="754.0647" y1="289.1109" y2="288.0"/>
    <polyline points="714.3877,290.5589 712.8598,289.4005 709.8551,288.0"/>
    <polyline points="705.993,289.1055 710.6399,291.7843 714.1205,294.2216"/>
    <line x1="714.4017" x2="706.3177" y1="297.6666" y2="291.7967"/>
    <polyline points="703.739,294.4771 705.4367,296.1563 712.3104,301.332"/>
    <polyline points="709.5581,301.7527 704.6702,298.5297 701.3121,295.5873"/>
    <polyline points="698.8095,297.6691 704.1781,301.4162 706.8518,302.794"/>
    <line x1="704.2057" x2="696.2312" y1="304.816" y2="300.1505"/>
    <line x1="685.3398" x2="685.3398" y1="304.2544" y2="304.2544"/>
    <line x1="684.5876" x2="678.1778" y1="301.7814" y2="297.0247"/>
    <line x1="680.4008" x2="684.1509" y1="296.1888" y2="299.6396"/>
    <line x1="684.2475" x2="682.6112" y1="297.4574" y2="295.7857"/>
    <line x1="684.8292" x2="684.8292" y1="294.8837" y2="294.8837"/>
    <polyline points="503.5944,294.7142 491.6326,288.3555 491.1632,288.0"/>
    <polyline points="486.1302,288.0 489.2131,290.2661 501.2385,295.5773"/>
    <polygon points="495.1021,288.0 505.8897,294.3119"/>
    <polyline points="554.1752,288.0 556.1326,289.0608 564.1443,294.0132 575.805,298.7339 585.4835,304.2929 594.2699,310.9083"/>
    <line x1="596.6583" x2="588.2532" y1="310.4556" y2="303.6154"/>
    <polyline points="590.986,303.1828 595.6488,306.3805 599.1204,309.2924"/>
    <polyline points="601.6588,307.1678 596.2114,303.4527 593.6657,302.0898"/>
    <polygon points="596.2798,300.0226 604.2708,304.6919"/>
    <polyline points="598.8204,297.5399 604.1407,301.3739 606.9487,302.7896"/>
    <polyline points="609.6802,301.8719 604.549,298.5902 601.2847,295.5727"/>
    <polyline points="603.6751,294.5901 605.292,296.2894 612.4491,301.4679"/>
    <line x1="615.2369" x2="605.9993" y1="300.6468" y2="294.1794"/>
    <line x1="635.8152" x2="636.1539" y1="288.0" y2="288.1379"/>
    <line x1="633.7734" x2="628.3338" y1="290.4358" y2="288.0"/>
    <line x1="624.8208" x2="631.3199" y1="288.5647" y2="291.8554"/>
    <line x1="628.7902" x2="625.5975" y1="292.4179" y2="290.6853"/>
    <line x1="626.1862" x2="626.1862" y1="292.9123" y2="292.9123"/>
    <polyline points="624.4186,306.0083 636.3192,310.6827 644.494,315.7871"/>
    <polyline points="641.8035,317.8288 633.7947,313.1621 624.121,309.2998 622.143,307.8724"/>
    <polyline points="619.9075,308.7541 624.3716,312.0524 631.1958,315.0925 639.1767,320.3129"/>
    <polyline points="636.6222,322.3071 628.5292,316.0376 625.0454,314.333 617.6937,309.1566"/>
    <polyline points="615.4818,310.0121 625.8065,316.4438 634.1439,323.3181 625.8065,316.4438"/>
    <polyline points="623.0431,317.24 626.2753,318.7718 631.7403,323.7332"/>
    <polyline points="629.4047,324.4734 626.2182,321.5955 620.2573,319.0059"/>
    <polygon points="615.9699,333.3025 604.1206,327.431 615.9699,333.3025 634.3911,346.755"/>
    <line x1="646.1316" x2="646.1316" y1="329.5162" y2="329.5162"/>
    <polyline points="648.4391,327.4609 654.3615,330.9431 657.8191,332.1289"/>
    <polyline points="660.6017,330.2133 654.1216,327.4642 650.6967,324.9774"/>
    <polyline points="652.9213,322.9974 654.4296,324.465 663.3579,329.2827"/>
    <polygon points="666.0698,328.8779 655.132,322.0015"/>
    <polyline points="668.7228,328.0685 665.3963,326.5412 657.3488,321.5889"/>
    <polyline points="659.5913,320.8364 664.6351,323.7051 671.3063,326.2868"/>
    <polyline points="673.8145,323.8358 664.1657,320.3442 661.8775,319.1251"/>
    <polyline points="666.6362,314.43 676.2524,318.7428 678.6078,320.327"/>
    <polyline points="680.9073,319.8264 675.7434,316.3778 669.1253,313.0659"/>
    <line x1="671.6904" x2="683.1591" y1="312.5317" y2="319.2717"/>
    <polygon points="685.3805,317.867 674.327,312.0131"/>
    <polyline points="687.5908,315.5776 686.0596,314.4141 677.0256,310.6819"/>
    <polyline points="679.7723,308.4375 686.3202,310.751 689.8101,313.1613"/>
    <polyline points="692.0579,311.4895 686.0325,307.2648 682.5502,305.9974"/>
    <line x1="673.6197" x2="664.4522" y1="301.2963" y2="297.6333"/>
    <line x1="665.1639" x2="671.2539" y1="300.6337" y2="303.4916"/>
    <line x1="668.8164" x2="665.9037" y1="304.75" y2="303.098"/>
    <line x1="666.3029" x2="666.3029" y1="305.2371" y2="305.2371"/>
    <polygon points="676.2467,321.618 664.2222,316.6951"/>
    <polyline points="704.1275,327.5017 695.8911,322.7169 704.1275,327.5017 716.0698,333.2262 725.1319,339.9402"/>
    <polyline points="727.9213,339.4283 724.4296,337.7881 718.3579,332.6456"/>
    <polyline points="720.6017,332.1643 724.1216,335.2862 730.6967,338.1118"/>
    <polyline points="733.439,335.8769 724.3615,332.2426 722.8191,330.9205"/>
    <polyline points="725.0296,328.7355 736.1316,333.4327 725.0296,328.7355 714.5746,323.724"/>
    <polyline points="717.3295,321.5925 725.7929,325.0742 727.2534,326.2735 738.7609,331.6755"/>
    <polyline points="741.318,330.8865 734.7249,327.5468 729.5096,324.4469 726.2707,321.645 720.1115,319.1178"/>
    <polyline points="722.9011,317.2238 726.2248,318.7182 731.815,323.599 734.1996,325.3158 743.799,330.4795"/>
    <polyline points="748.543,327.5878 746.2835,326.3633 736.6236,322.3068"/>
    <polyline points="734.1833,323.1963 746.2051,329.5263 734.1833,323.1963 725.6781,316.3139"/>
    <polyline points="736.3164,310.8208 744.3911,315.8141 755.2779,321.8899"/>
    <polyline points="753.0627,323.0142 745.0752,319.1477 741.7312,317.9633"/>
    <line x1="744.3911" x2="744.3911" y1="315.8141" y2="315.8141"/>
    <line x1="744.1204" x2="738.8028" y1="313.0116" y2="308.6193"/>
    <line x1="741.2141" x2="744.3982" y1="307.352" y2="310.6982"/>
    <line x1="745.086" x2="743.5564" y1="308.588" y2="306.8613"/>
    <polyline points="745.8408,306.2939 755.4417,312.0438 764.2922,316.8403 768.0,318.3348"/>
    <polyline points="768.0,315.0844 766.6703,314.4978 764.9136,313.237 758.2154,309.7012 754.6747,308.5435 748.0821,304.8652"/>
    <polyline points="750.2983,302.562 754.1798,304.8815 760.9547,307.3239 765.6879,310.0104 768.0,312.0207"/>
    <polyline points="768.0,308.9822 766.2292,307.33 763.6431,305.7483 754.2037,301.4442 752.5091,300.1545"/>
    <polyline points="754.7346,298.5062 766.2674,305.0929 768.0,306.5753"/>
    <line x1="766.2674" x2="766.2674" y1="305.0929" y2="305.0929"/>
    <line x1="764.2922" x2="764.2922" y1="316.8403" y2="316.8403"/>
    <line x1="765.9698" x2="768.0" y1="328.7411" y2="330.3679"/>
    <polyline points="768.0,332.4844 766.315,330.8531 763.2336,329.1648"/>
    <polyline points="760.4618,330.2197 766.1143,333.1944 768.0,335.1287"/>
    <polyline points="766.9635,337.4308 765.468,336.037 757.6732,332.254"/>
    <polyline points="752.1257,336.7402 755.6635,338.1244 764.1888,343.0532 768.0,344.4615"/>
    <polyline points="768.0,340.8121 754.8879,334.7382 764.6982,339.4029"/>
    <polyline points="755.8065,345.4676 765.4817,352.3094 755.8065,345.4676 744.1439,338.9096"/>
    <polyline points="746.7403,338.1761 756.2754,343.3533 758.0431,345.0363 764.7107,349.7322 768.0,351.0507"/>
    <polyline points="768.0,347.9659 764.1938,346.6072 756.2182,340.9931 749.4047,337.7596"/>
    <line x1="744.5617" x2="741.6222" y1="341.8764" y2="340.5957"/>
    <line x1="739.1767" x2="745.3079" y1="343.0172" y2="345.3337"/>
    <line x1="746.0105" x2="736.8036" y1="348.997" y2="345.2979"/>
    <polyline points="734.494,346.6878 746.3192,352.479 754.4186,357.2958 746.3192,352.479"/>
    <line x1="743.7673" x2="751.7498" y1="353.9427" y2="359.6554"/>
    <line x1="749.1483" x2="741.1429" y1="361.1926" y2="354.5294"/>
    <line x1="738.4544" x2="746.6212" y1="355.0066" y2="361.8233"/>
    <polyline points="744.1704,362.2755 735.7151,356.2395 725.5824,351.2751 735.7151,356.2395 744.1704,362.2755 756.1862,369.1162"/>
    <polyline points="753.7902,369.5483 744.2156,364.8552 736.2408,359.5965 724.8059,354.9314 723.3411,353.7223"/>
    <polyline points="721.0567,355.49 724.2361,358.3263 736.2578,363.2447 739.4788,365.56 751.3199,370.6395"/>
    <polyline points="748.7734,372.7053 737.2166,368.0361 735.7575,366.8044 724.1571,361.2063 718.7142,356.2877"/>
    <line x1="716.1622" x2="706.6905" y1="354.5656" y2="349.4131"/>
    <line x1="709.1253" x2="715.552" y1="348.9983" y2="352.3585"/>
    <line x1="714.7764" x2="711.6362" y1="349.7334" y2="348.2568"/>
    <line x1="714.2222" x2="714.2222" y1="346.5599" y2="346.5599"/>
    <line x1="725.5824" x2="725.5824" y1="351.2751" y2="351.2751"/>
    <line x1="727.7987" x2="734.9426" y1="349.0475" y2="353.4082"/>
    <line x1="734.3087" x2="730.0095" y1="351.0749" y2="347.7419"/>
    <line x1="732.2349" x2="734.1294" y1="347.2349" y2="348.9637"/>
    <polyline points="748.7948,350.1567 754.121,353.6818 757.143,354.9344"/>
    <polyline points="759.9075,353.3935 754.3716,350.4295 751.1958,347.7629"/>
    <polyline points="753.5292,346.1489 755.0454,347.721 762.6937,352.7604"/>
    <polyline points="750.8237,325.1075 745.8318,322.7896 739.1399,320.4344"/>
    <line x1="726.108" x2="726.108" y1="292.8314" y2="292.8314"/>
    <polygon points="715.0911,300.6158 706.0953,294.04"/>
    <polygon points="695.3805,345.267 685.8911,340.5992 674.1275,335.2952 685.8911,340.5992"/>
    <polyline points="704.1258,353.6286 713.8164,357.6372 721.8908,363.9773 725.3646,365.6903 732.7782,370.8595 734.3365,372.5277 743.4696,377.157"/>
    <polyline points="740.7333,378.1412 734.1243,374.7163 730.563,371.2635 726.0491,367.9373 719.231,364.8574 711.2539,359.5659 704.4703,357.2228"/>
    <polyline points="705.1888,360.8525 708.6197,362.0451 716.6398,366.7198 726.3204,370.6348 734.4586,376.854 737.9614,378.5521"/>
    <polyline points="732.3875,381.0381 725.3558,377.487 723.7053,376.3313 714.3418,372.6783 711.6834,371.3464 706.307,366.9033 703.1778,365.2819"/>
    <polyline points="700.4007,365.7259 706.1491,369.1862 709.3152,372.5523 714.9981,375.6935 721.299,378.5404 724.6008,381.1039 729.6253,383.4722"/>
    <polyline points="726.9044,385.7292 724.1548,384.3638 718.818,379.8186 707.0098,373.0195 705.5282,371.2969 697.6111,366.3743"/>
    <polyline points="694.8291,367.9391 716.2607,380.3138 724.2401,387.0805"/>
    <line x1="716.2607" x2="716.2607" y1="380.3138" y2="380.3138"/>
    <polygon points="724.6082,363.5749 716.3029,356.6937 704.327,350.4225 716.3029,356.6937 724.6082,363.5749 734.9894,369.9401 746.1539,375.1881 734.9894,369.9401"/>
    <polygon points="705.9231,364.1471 714.1236,369.1891 726.0432,373.8771 735.1728,379.3144 726.0432,373.8771 714.1236,369.1891"/>
    <line x1="675.6587" x2="665.6406" y1="391.5189" y2="385.0701"/>
    <polyline points="663.3914,386.8865 664.8642,388.1372 672.8801,392.2995"/>
    <polyline points="670.0904,394.0462 664.2655,391.6585 661.0957,389.3462"/>
    <polyline points="658.7393,391.5388 664.1428,395.3176 667.3097,396.4874"/>
    <line x1="664.5575" x2="656.3122" y1="398.7293" y2="392.7934"/>
    <line x1="696.3179" x2="704.4042" y1="427.4418" y2="432.1847"/>
    <line x1="704.1205" x2="698.7991" y1="428.6204" y2="425.0451"/>
    <line x1="701.2055" x2="704.3852" y1="422.7266" y2="425.4761"/>
    <line x1="705.0664" x2="703.5435" y1="422.8801" y2="421.2702"/>
    <line x1="705.8244" x2="705.8244" y1="420.6875" y2="420.6875"/>
    <line x1="713.5157" x2="715.0259" y1="461.9261" y2="463.181"/>
    <line x1="714.3592" x2="711.1865" y1="466.6936" y2="464.3812"/>
    <polyline points="754.6949,474.5859 766.2803,481.1413 768.0,482.7724"/>
    <polyline points="768.0,485.2629 766.2105,483.3962 754.1875,477.5554"/>
    <polyline points="754.1951,481.0145 757.4865,482.2055 765.6471,486.1073 767.1107,487.5505"/>
    <line x1="764.8709" x2="754.714" y1="489.3619" y2="484.6778"/>
    <polyline points="755.4643,472.1473 765.8216,479.0273 768.0,480.6986"/>
    <polyline points="762.5066,503.0588 766.0019,504.7899 768.0,506.4052"/>
    <polyline points="768.0,508.5461 766.3185,506.9047 759.7323,503.5923"/>
    <polyline points="756.9918,504.955 766.0875,509.2689 767.6349,510.8535 768.0,511.1009"/>
    <polyline points="768.0,517.0285 764.6592,515.5334 763.1994,514.3599 751.6757,509.6497"/>
    <polyline points="749.122,511.3623 760.9413,516.8113 764.1741,519.1889 768.0,520.6908"/>
    <polyline points="768.0,524.3076 764.2107,522.7262 756.2362,517.0674 746.6445,512.1159"/>
    <polyline points="744.2417,512.5283 756.2618,519.4048 764.7507,525.8209 768.0,527.53"/>
    <line x1="764.7507" x2="764.7507" y1="525.8209" y2="525.8209"/>
    <polygon points="768.0,513.6187 765.4242,512.143 754.3019,507.2193 765.4242,512.143"/>
    <polygon points="768.0,504.2818 765.2957,502.5396"/>
    <polygon points="768.0,433.1846 766.32,431.7671"/>
    <polyline points="768.0,405.3347 765.8982,403.8857 759.1582,400.4281 755.3716,397.0161"/>
    <polyline points="756.0538,394.8667 761.7697,399.966 768.0,403.3014"/>
    <polyline points="768.0,407.338 766.3016,405.9958 756.6204,401.0398 754.6141,399.5106"/>
    <line x1="754.1589" x2="766.1659" y1="402.5459" y2="408.2918"/>
    <line x1="764.4472" x2="768.0" y1="398.7745" y2="400.4259"/>
    <polyline points="768.0,400.4259 764.4472,398.7745 756.3203,392.6948"/>
    <line x1="767.1783" x2="768.0" y1="396.628" y2="396.9551"/>
    <line x1="636.3192" x2="636.3192" y1="310.6827" y2="310.6827"/>
    <line x1="545.5807" x2="545.5807" y1="306.4003" y2="306.4003"/>
    <line x1="544.6097" x2="544.6097" y1="315.7794" y2="315.7794"/>
    <line x1="565.2156" x2="565.2156" y1="375.7143" y2="375.7143"/>
    <line x1="574.4333" x2="574.4333" y1="380.9246" y2="380.9246"/>
    <polygon points="535.4628,379.415 525.8228,373.6887"/>
    <line x1="475.9081" x2="465.3591" y1="391.8007" y2="385.1447"/>
    <polyline points="463.1392,386.693 464.6036,388.0073 476.3038,393.9996"/>
    <polyline points="476.1594,396.6083 470.3815,393.8687 464.1557,391.3889 460.8903,389.0579"/>
    <polyline points="458.5948,391.4139 464.2386,395.0426 467.5918,396.197 475.5467,399.7655"/>
    <polyline points="474.7714,403.3364 464.8111,398.5861 456.2388,392.9437 464.8111,398.5861"/>
    <line x1="462.0587" x2="453.812" y1="400.1891" y2="393.5698"/>
    <polyline points="451.3096,394.0243 454.9373,397.4017 459.3522,400.8628"/>
    <line x1="456.706" x2="448.7315" y1="401.2967" y2="395.1929"/>
    <line x1="446.0834" x2="454.1301" y1="397.3217" y2="402.395"/>
    <line x1="466.1317" x2="474.144" y1="479.3709" y2="485.3458"/>
    <polyline points="471.6222,486.6364 466.3115,481.5756 463.4393,479.8425"/>
    <polyline points="460.697,480.4379 465.9472,483.7048 469.1766,487.1369"/>
    <polyline points="466.8034,487.6918 465.2205,486.1362 457.9216,481.9166"/>
    <polygon points="455.1323,484.247 464.4938,489.0968"/>
    <polyline points="452.349,486.6345 455.8786,487.8752 462.2346,491.3864"/>
    <polyline points="460.0091,493.8026 456.2968,491.1655 449.5916,488.2336"/>
    <polyline points="446.8777,488.9047 456.1782,493.9167 457.7983,495.474"/>
    <polygon points="455.5821,496.1965 444.2224,489.3396"/>
    <polyline points="453.3408,496.6156 444.7767,491.8772 441.6362,490.4416"/>
    <polyline points="439.1253,492.5163 445.5523,494.9602 451.0564,497.6489"/>
    <line x1="448.7141" x2="436.6903" y1="499.6635" y2="494.9984"/>
    <line x1="434.3268" x2="446.3028" y1="496.9575" y2="502.1479"/>
    <polyline points="456.9047,528.0862 466.1574,533.0755 467.7574,534.8052"/>
    <polyline points="469.9691,534.2894 466.3045,530.9633 459.6256,527.5106"/>
    <polyline points="462.3879,527.0259 465.911,528.6195 472.1982,532.9641"/>
    <line x1="474.4635" x2="465.1732" y1="530.7236" y2="525.7735"/>
    <line x1="465.5432" x2="454.2403" y1="535.3423" y2="529.53"/>
    <line x1="554.9879" x2="554.9879" y1="484.3929" y2="484.3929"/>
    <line x1="546.1547" x2="546.1547" y1="479.5328" y2="479.5328"/>
    <polygon points="566.0422,479.2685 574.1235,485.386 566.0422,479.2685 544.4627,465.909"/>
    <line x1="545.7526" x2="545.7526" y1="456.5406" y2="456.5406"/>
    <line x1="556.0144" x2="556.0144" y1="439.1002" y2="439.1002"/>
    <line x1="564.1212" x2="564.1212" y1="443.9375" y2="443.9375"/>
  </g>
</svg>
