<?xml version="1.0" encoding="UTF-8" standalone="no"?>
<svg
   width="520"
   height="320"
   version="1.1"
   id="svg8"
   sodipodi:docname="fishdraw-output.svg"
   inkscape:version="1.1 (c4e8f9e, 2021-05-24)"
   xmlns:inkscape="http://www.inkscape.org/namespaces/inkscape"
   xmlns:sodipodi="http://sodipodi.sourceforge.net/DTD/sodipodi-0.dtd"
   xmlns="http://www.w3.org/2000/svg"
   xmlns:svg="http://www.w3.org/2000/svg">
  <defs
     id="defs12" />
  <sodipodi:namedview
     id="namedview10"
     pagecolor="#ffffff"
     bordercolor="#666666"
     borderopacity="1.0"
     inkscape:pageshadow="2"
     inkscape:pageopacity="0.0"
     inkscape:pagecheckerboard="0"
     showgrid="false"
     inkscape:zoom="1.953125"
     inkscape:cx="259.84"
     inkscape:cy="160"
     inkscape:window-width="1296"
     inkscape:window-height="847"
     inkscape:window-x="59"
     inkscape:window-y="58"
     inkscape:window-maximized="0"
     inkscape:current-layer="svg8" />
  <path
     stroke="#000000"
     stroke-width="1"
     fill="none"
     stroke-linecap="round"
     stroke-linejoin="round"
     d="m 156.04,131.37 9.07,-3.49 9.04,-5.36 9.03,-5.66 9.03,-3.95 9.04,-1.83 18.06,-1.34 9.04,-1.89 9.03,-2.45 9.04,-1.26 9.03,0.67 9.03,1.95 9.04,2.33 9.03,2 18.07,3 18.07,3.82 9.03,2.03 9.03,2.35 9.04,2.9 9.03,3.46 9.03,4.04 9.04,4.96 0.88,1.03 m 0,50.14 -0.88,1.21 -9.04,4.1 -9.03,2.96 -9.03,2.63 -18.07,4.95 -18.07,5.52 -9.03,2.07 -9.04,0.37 -18.06,-1 -9.04,-0.93 -9.03,-1.85 -9.03,-2.87 -9.04,-2.65 -9.03,-1.82 -9.04,-1.44 -9.03,-1.11 -9.03,-0.52 -18.07,-0.65 -9.03,-0.56 -9.04,-0.94 -9.03,-1.53 -9,-2.49 m 6.51,-9.89 0.59,-0.4 4.65,-6.45 1.91,-4.64 m 0,-9.83 -0.01,-0.03 m -4.67,24.21 -2.86,-2.04 m 4.84,-8.92 2.18,-3.42 0.52,-1.63 m 3.92,-24.07 -1.65,-9.05 -2.1,-6.61 m -1.37,13.16 2.09,-1.01 m 12.33,44.38 v -2.87 l -0.64,-1.25 m -14.58,-0.2 2,-0.24 m -1.53,3.96 4.27,-0.25 m 0.97,-0.05 3.82,-0.22 m -10.57,-52.41 0.47,-1.95 m 11.99,55.48 1.7,-1.47 1.53,-2.64 m 0.06,4.11 -2.34,-1.08 m 8.05,-40.39 v -2.42 l -1.95,-10.11 -3.02,-8.93 -0.3,-0.43 m -4.73,17.5 6.38,-2.98 m 14.91,48.24 v -0.91 l -2.36,-7.05 m -8.71,5.83 7.25,-1.76 m -18.68,-38.23 3.27,-3.3 4.19,-8.45 0.59,-2.1 m 0,0 2.12,-7.48 v -1.95 m -8.55,5.2 3.42,1.14 m 13.44,59.18 1.64,-1.57 3.95,-7.48 0.74,-2.48 M 185.43,144.3 185,143.89 m 4.54,41.56 -0.13,-0.07 m 6.15,-41.5 v -3.08 l -2.05,-9.46 -3.18,-8.36 -2.49,-3.26 m -1.96,19.26 5.99,-2.32 m -6.65,6.74 6.4,0.57 m 15.06,41.58 v -1.9 l -2.16,-7.38 -3.36,-6.51 -0.25,-0.25 m -4.82,12.25 6.75,-1.08 m -17.27,-38.96 3.08,-3.07 3.94,-7.86 2.54,-8.89 v -5.51 l -1.1,-3.85 m -11.83,6.64 h 8.66 m -8.24,4.48 8.35,2.09 m 10.76,59.61 2.67,-2.57 3.89,-7.48 2.5,-8.46 v -5.24 l -0.19,-0.65 m -8.35,-17.36 -0.88,-0.84 m -0.37,26.48 4.91,1.71 m 2.17,14.65 -0.8,-0.54 m 3.65,-41.82 v -4.18 l -1.94,-9.42 -3,-8.31 -2.34,-3.25 m -2.24,19.27 5.73,-2.39 m -5.79,6.65 5.77,-0.04 m 16.59,45.41 v -4.05 l -2.2,-7.59 -3.41,-6.71 -2.67,-2.62 m -2.75,15.14 6.97,-1.44 m -6.87,5.58 6.99,0.23 m -11.7,-57.52 2.92,-8.89 v -5.39 l -1.05,-3.23 m -12.6,5.52 8.8,0.37 m -8.04,4.64 2.91,0.63 m 16.32,63.24 3.25,-3.02 4.16,-7.75 2.69,-8.77 v -5.43 l -2.69,-8.77 -0.94,-1.75 m -3.8,-6.53 -2.67,-2.49 m -2.76,17.71 8.42,-2.3 m -9.11,6.6 8.82,0.36 m -8.26,4.11 8.51,2.32 m 5.61,18.31 -0.66,-0.95 -3.25,-2.33 m -0.28,-32.94 0.55,-2.06 m 1.69,-6.62 0.37,-1.44 v -6.2 l -2.56,-10.01 -3.97,-8.83 -3.1,-3.45 m -2.65,20.06 7.23,-2.6 m -7.51,8.2 7.83,-0.44 m 18.62,51.56 0.48,-1.72 v -4.99 l -2.25,-8.07 -3.5,-7.11 -2.73,-2.78 m -3.03,16.05 7.49,-1.72 m -6.93,5.87 7.06,0.11 m -17.03,-45.22 4.44,-2.84 5.67,-7.26 3.67,-8.22 v -5.09 l -3.67,-8.23 -0.62,-0.79 m -13.6,7.11 11.21,-1.38 m -11.44,5.88 11.79,-0.12 m -11.97,4.47 11.56,2.04 m 8.21,59.54 3.73,-2.91 4.77,-7.47 3.08,-8.46 v -5.23 l -3.08,-8.45 -4.77,-7.47 -3.73,-2.91 m -3.84,16.85 10.27,-1.83 m -10.02,6.27 9.73,0.57 m -9.56,4.14 9.45,1.68 m 7.05,21.61 -3.38,-4.76 -3.28,-2.31 m -9.21,-70.17 2.78,-2.99 3.13,-5.93 m -7.76,1.92 1.34,0.26 m 9.55,59.76 3.81,-2.95 4.88,-7.59 3.15,-8.59 v -5.31 l -3.15,-8.59 -4.88,-7.58 -3.81,-2.96 m -3.31,17.42 9.63,-2.03 m -9.69,6.39 9.81,-0.28 m -10.08,4.53 9.86,1.98 m 9.15,42.05 1.92,-5.97 v -4.43 l -2.3,-7.16 -3.56,-6.33 -2.77,-2.46 m -3.08,14.84 7.56,-1.78 m -7.05,5.29 7.16,0.07 m -7.08,3.06 7.4,2.57 m -20.11,-84.8 4.05,-1.42 m 13.2,34.94 2.88,-3.39 3.61,-7.48 v -4.63 l -3.61,-7.47 -5.59,-6.6 -4.37,-2.58 m -3.95,14.74 11.14,-1.25 m -7.53,5.26 7.36,0.12 m -3.85,5.25 3.52,0.49 m 4.22,53.56 3.76,-2.61 4.81,-6.66 3.1,-7.55 v -4.68 l -3.1,-7.55 -4.81,-6.67 -3.76,-2.6 m -3.83,14.9 9.83,-1.89 m -9.9,6.04 9.9,0.21 m -9.93,3.52 9.56,1.87 m 6.28,23.2 -1.01,-2.34 -4.22,-5.59 -3.3,-2.18 m -9.95,-59.58 3.13,-2.28 4.01,-5.85 2.59,-6.62 v -4.1 l -0.58,-1.47 m -11.99,0.27 5.09,-1.29 m -5.52,4.91 8.65,-0.06 m -8.59,3.06 7.97,1.58 m 12.37,54.76 0.94,-0.78 4.14,-6.93 2.68,-7.85 v -4.86 l -2.68,-7.85 -4.14,-6.93 -3.24,-2.71 m -3.04,15.91 8.66,-1.85 m -8.64,5.72 8.59,0.5 m -7.28,3.77 7.03,2.09 m 3.78,39.22 0.95,-1.61 2.23,-6.61 v -4.09 l -2.23,-6.6 -3.45,-5.83 -2.69,-2.28 m -2.22,13.23 6.91,-1.1 m -7.61,4.8 7.22,0.26 m -7.02,2.55 7.36,2.38 m -14.58,-82.24 2.24,-0.86 2.3,-1.78 m 8.81,34.68 1.61,-2.26 2.92,-7.2 v -4.46 l -2.92,-7.21 -4.53,-6.36 -3.54,-2.48 m -3.45,14.76 9.23,-1.54 m -9.42,4.91 9.66,0.1 m -9.36,3.27 1.62,0.44 m 3.94,1.05 3.79,1.02 m 3.79,51.63 3.32,-2.51 4.24,-6.43 2.74,-7.27 v -4.51 l -2.74,-7.27 -4.24,-6.43 -3.32,-2.5 m -3.54,14.51 8.88,-1.37 m -8.49,5.27 8.27,0.33 m -8.51,3.84 8.63,1.14 m 5.82,23.58 -1.59,-3.65 -4.16,-5.44 -3.25,-2.13 m 4.9,10.9 0.31,-0.05 m -12.27,-80.65 1.12,-1.63 2.13,-5.45 m -12.06,0.07 8.01,1.87 m 13.36,61.08 2.47,-2.79 3.17,-7.16 2.05,-8.11 v -5.02 l -2.05,-8.11 -3.17,-7.16 -2.47,-2.8 m -2.19,16.08 6.23,-1.34 m -6.83,6.23 7.02,-0.24 m -6.88,4.17 6.94,1.76 m 1.83,39.78 2.21,-3.77 2.17,-6.53 v -4.05 l -2.17,-6.54 -3.38,-5.77 -2.53,-2.17 m -2.89,13.6 6.84,-2.24 m -6.96,4.8 7.17,0.12 m -6.54,3.79 6.26,1.31 m -12.78,-79.16 1.79,-0.68 m 4.37,36.1 3.36,-2.34 4.31,-6 2.78,-6.8 v -4.21 l -2.78,-6.79 -4.31,-6 -3.36,-2.35 m -2.84,13.99 8.33,-1.97 m -8.36,5.37 8.25,-0.2 m -8.37,3.68 8.04,1.67 m 3.93,51.22 3.11,-2.51 3.99,-6.43 2.58,-7.27 v -4.51 l -2.58,-7.28 -3.99,-6.42 -3.11,-2.51 m -3.29,14.88 8.59,-1.89 m -8.31,5.26 8.14,0.22 m -8.47,3.28 7.92,2.41 m 7.53,24.29 -1.65,-3.86 -4.15,-5.52 -3.24,-2.15 m 0.61,12.09 4.28,-1.13 m -8.23,-74.3 3.14,-3.64 2.47,-5.04 m -13.23,-2.13 0.43,0.01 m 1.64,3.18 6.17,1.32 m 7.78,43.95 1.76,-3.5 2.11,-7.4 v -4.59 l -2.11,-7.4 -3.28,-6.54 -2.56,-2.55 m -2.87,14.84 7.26,-1.88 m -7.07,6.11 6.82,-0.03 m -5.73,3.95 6.09,1.52 m 7.32,44.07 1.27,-2.27 2.24,-7.06 v -4.38 l -2.24,-7.06 -3.47,-6.24 -2.72,-2.43 m -2.9,14.22 7.09,-1.55 m -6.97,5.41 7.25,0.08 m -6.75,2.98 6.85,2.43 m -6.27,-44.46 3.33,-2.22 4.26,-5.68 2.74,-6.44 v -3.98 l -2.74,-6.44 -4.26,-5.68 -1.75,-1.17 m -4.53,12.43 8.22,-2.44 m -8.63,4.96 8.48,0.59 m -8.21,3.21 8.06,1.47 m 2.5,49.72 3.21,-2.47 4.11,-6.32 2.65,-7.16 v -4.43 l -2.65,-7.17 -4.11,-6.32 -3.21,-2.47 m -2.73,14.85 8.32,-1.72 m -8.64,5.31 7.78,0.1 m -7.6,3.21 7.87,1.57 m 6.63,22.33 -0.28,-0.66 -4.2,-5.6 -3.29,-2.18 m -2.7,-61.99 2.32,-3.37 1.25,-3.21 m -9.19,-0.8 6.12,1.02 m 7.36,47.67 3.59,-6.63 2.19,-7.29 v -4.52 l -2.19,-7.29 -3.39,-6.44 -2.65,-2.51 m -2.62,14.42 6.96,-1.42 m -6.84,5.71 6.56,-0.55 m -6.82,3.9 7.16,2.26 m 7.89,37.84 1.62,-4.9 v -4.27 l -2.28,-6.88 -3.55,-6.09 -2.76,-2.37 m -2.85,13.57 7.2,-1.53 m -6.95,5.68 6.88,-0.06 m -7.24,3.65 7,1.38 m -6.5,-44.83 3.28,-2.22 4.19,-5.67 2.7,-6.42 v -3.98 l -2.7,-6.42 -1.19,-1.61 m -9.23,6.99 8.25,-1.54 m -8.35,4.59 8.04,-0.07 m -7.73,3.48 8.45,1.81 m 2.19,50.11 3.28,-2.5 4.2,-6.42 2.71,-7.26 v -4.49 l -2.71,-7.26 -4.2,-6.41 -3.28,-2.5 m -3.23,14.62 8.13,-1.88 m -7.96,5.47 7.9,0.14 m -8.06,4.11 8.5,1.4 m 4.5,18.96 -2.21,-2.96 -3.31,-2.21 m -5.52,-64.11 1.38,-1.68 m 8.07,38.78 1.57,-3.09 2.21,-7.6 v -4.71 l -2.21,-7.6 -3.42,-6.71 -2.67,-2.62 m -2.71,15.51 7.25,-2.05 m -7.53,6.16 7.28,-0.39 m -5.83,4.01 5.41,1.48 m 13.65,37.67 0.19,-0.56 v -4.5 l -2.36,-7.26 -3.65,-6.4 -2.84,-2.51 m -2.83,14.75 7.31,-2.16 m -7.06,5.78 7.45,0.3 m -7.77,3.07 3.68,0.95 m -3.42,-44.68 3.96,-2.13 5.08,-5.46 3.27,-6.19 v -3.83 l -1.01,-1.92 m -15.41,0.83 10.15,-1.49 m -9.51,4.21 9.89,0.55 m -10.12,3.19 10.14,1.06 m 1.32,50.71 3.54,-2.5 4.53,-6.42 2.92,-7.27 v -4.5 l -2.92,-7.26 -4.53,-6.42 -3.54,-2.51 m -3.29,15.11 9.07,-2.22 m -8.78,5.41 9.02,0.35 m -9.05,3.55 8.59,1.77 m 1.76,15.88 -2.91,-1.99 m 5.53,-23.59 3.73,-5.23 2.94,-7.22 v -4.47 l -2.94,-7.22 -4.55,-6.38 -3.55,-2.49 m -3.36,14.26 9.42,-1.39 m -9.71,5.63 9.31,0.24 m -7.68,3.3 7.36,2.03 m 11.02,31.39 -2.21,-6.91 -3.46,-6.17 -2.71,-2.41 m -2.71,13.87 7,-1.74 m -7.15,5.79 0.25,0.01 m 4.85,-36.98 4.47,-1.94 5.72,-4.97 3.55,-5.42 m -18.18,-4.8 7.13,-1.05 m -7.14,3.71 11.39,0.28 m -11.35,2.4 11.2,1.47 m -1.42,44.64 2.22,-1.4 4.56,-5.74 2.52,-5.58 m 0,-5.88 -2.52,-5.59 -4.56,-5.74 -3.56,-2.24 m -3.69,12.95 9.53,-1.46 m -9.37,4.99 9.46,-0.36 m -9.07,3.53 8.88,1.65 m 1.79,-21.04 3.11,-0.48 m -3.2,3.17 3.2,-0.02 m -2.83,2.97 2.83,0.62 m 0,12.42 -0.81,-0.74 m -1.83,12.22 2.05,-0.64 m -212.97,10.29 v -1.85 l -4.15,-5.08 m -5.68,3.44 2.47,-0.26 m 17.68,4.83 0.42,-0.48 3.01,-5.94 v -0.8 m -15.2,2.04 9.66,1.69 m 0.15,-2.36 1.59,-1.37 m 3.73,-63.36 v 0 m 14.9,71.17 1.66,-5.01 v -3.4 m -11.15,4.97 6.79,1.95 m -16.52,-67.12 v 0 m 15.43,61.68 1.43,-1.36 m 9.55,4 6.91,2.33 m -1.52,-6.18 0.36,-0.34 m 13.95,9.78 -0.89,-2.14 -4.22,-5.71 -2.49,-1.69 m 5.07,3.54 6.69,1.63 m -9.9,-80.28 v 0 m 27.81,88.05 1.35,-2.76 1.77,-6.34 m -1.75,8.81 8.08,-2.42 m -8.4,-90.63 v 0 m -7.76,1.92 v 0 m 37.97,98.88 1.08,-2.5 v -3.92 l -1.71,-3.98 m -9.84,5.81 6.77,0.33 m 3.81,0.62 2.21,-1.87 2.5,-4.22 m -0.97,10.16 -0.97,-1.39 -2.77,-1.97 m 16.81,4.18 1.61,-3.7 v -3.82 l -1.09,-2.51 m -12.51,1.28 8.41,-1.6 m -8.38,4.77 9.11,-0.22 m -9.09,3.31 8.77,1.43 m 3.82,-5.62 1.32,-1.13 1.17,-2.01 m 2.09,10.17 -1.66,-2.43 -2.72,-1.99 m 16.46,3.63 1.5,-3.51 v -3.87 l -1.02,-2.4 m -19.57,-85.67 v 0 m 19.64,90.35 1.49,-1.33 2.2,-3.97 m 14.91,5.51 v -2.51 l -2.43,-5.69 m -10.67,4.31 8.4,-1.5 m -8.45,4.76 8.05,-0.1 m 4.13,0.3 1.56,-1.34 3.55,-6.08 0.66,-1.99 m 12.15,5.49 -1.87,-4.39 -2.03,-2.72 m -8.34,7.48 8.19,-1.22 m 3.68,-6.92 4.17,1.08 m 11.98,2.7 -4.17,-5.74 -0.32,-0.22 m 14.06,3.1 0.58,-1.82 -0.03,-4.41 m -10.99,2.44 6.82,0.21 m -6.85,2.92 6.58,1.88 m 12.04,-54.32 v 0 m 0.34,44.26 0.59,-0.18 m -156.05,-71.92 1.6,-0.04 m 11.36,-2.97 1.55,-57.57 0.89,0.01 0.75,57.14 m 9.9,-2.34 14.24,-73.16 0.88,0.15 -11.92,73.18 m 10.15,0.69 33,-74.87 0.82,0.34 -30.77,75.49 m 9.93,2.01 38.61,-72.32 0.79,0.41 -36.4,73.05 m 9.98,1.74 32.46,-63.89 0.79,0.39 -30.19,64.47 m 10.06,1.2 29.39,-57.07 0.8,0.39 -27.13,57.66 m 10,1.58 27.54,-48.59 0.78,0.42 -25.3,49.27 m 10.01,1.67 20.27,-32.23 0.76,0.45 -18.04,32.95 m 10.12,2.06 1.36,0.84 m -116.85,-12.67 3.79,-11.82 1.74,-6 1.56,-6.03 1.36,-6.09 2.12,-12.3 1.6,-12.42 m 1.12,0.01 5.86,-2.81 2.83,-1.55 2.72,-1.69 2.6,-1.87 4.85,-4.23 4.53,-4.66 m 1.1,0.2 6.51,0.94 6.49,0.42 3.24,-0.1 3.23,-0.31 3.22,-0.49 6.44,-1.34 m 1.03,0.44 3.47,2.17 1.78,0.92 1.83,0.74 1.89,0.53 3.94,0.5 4.09,-0.03 m 0.99,0.52 0.48,2.83 0.38,1.32 0.54,1.22 0.72,1.1 1.94,1.88 2.39,1.6 m 1.01,0.49 1.34,2.61 0.79,1.17 0.9,1.03 1.04,0.87 2.47,1.27 2.81,0.87 m 1,0.49 1.54,2.99 1.89,2.6 1.16,1.08 1.3,0.92 1.42,0.79 3.09,1.32 m 0.98,0.53 0.14,4.12 0.64,3.96 0.62,1.88 0.81,1.82 0.98,1.77 2.31,3.41 m 0.96,0.57 -2.28,6.98 -1.76,7.06 -0.58,3.58 -0.37,3.61 -0.19,3.64 -0.03,7.35 m -100.13,-68.41 5.74,-2.98 2.72,-1.69 2.6,-1.87 2.48,-2.04 4.65,-4.49 m -17.88,19.13 5.07,-2.63 4.7,-3.15 2.19,-1.8 4.11,-3.96 m -15.76,17.6 4.4,-2.28 4.08,-2.73 1.9,-1.57 3.57,-3.44 m -13.64,16.08 3.73,-1.93 3.46,-2.32 1.61,-1.32 3.03,-2.92 m -11.52,14.55 3.06,-1.59 2.84,-1.9 3.81,-3.48 m -9.4,13.03 3.53,-1.95 2.11,-1.62 1.94,-1.87 m 15.66,-39.58 6.51,0.73 3.24,0.12 3.24,-0.1 3.23,-0.31 6.44,-1.12 m -23.44,6.46 5.93,0.66 2.96,0.11 5.9,-0.37 5.89,-1.03 m -21.47,6.4 5.37,0.61 5.34,0.01 2.67,-0.25 5.32,-0.93 m -19.48,6.34 4.79,0.54 4.78,0.01 2.38,-0.23 4.76,-0.83 m -17.5,6.29 4.23,0.47 2.11,0.08 4.2,-0.27 4.19,-0.73 m -15.51,6.22 3.65,0.41 3.65,0.01 5.44,-0.8 m -13.53,6.16 4.63,0.4 3.07,-0.19 3.06,-0.54 m -11.55,6.11 3.78,0.32 2.51,-0.15 2.49,-0.44 m 25.35,-40 3.53,1.97 1.83,0.74 1.89,0.53 1.94,0.34 4.03,0.18 m -15.12,1.53 3.25,1.81 1.68,0.68 3.54,0.81 3.72,0.17 m -14.1,1.82 2.97,1.66 3.14,1.08 1.65,0.28 3.4,0.15 m -13.07,2.11 2.7,1.51 1.41,0.57 2.94,0.67 3.09,0.14 m -12.04,2.4 2.42,1.36 1.26,0.51 2.64,0.6 2.78,0.12 m -11.01,2.7 2.15,1.2 1.12,0.46 2.34,0.53 2.47,0.11 m -9.99,2.99 2.86,1.44 2.04,0.47 2.15,0.09 m -8.96,3.29 2.44,1.23 1.75,0.4 1.83,0.08 m -7.92,3.58 2.02,1.02 1.45,0.33 1.52,0.07 m 26.74,-38.07 0.65,2.72 0.54,1.22 0.72,1.1 0.89,0.99 2.22,1.71 m -7.48,-2.03 0.6,2.48 0.49,1.12 1.47,1.91 2.02,1.56 m -7.03,-1.35 0.54,2.24 1.04,1.92 0.74,0.82 1.82,1.4 m -6.59,-0.67 0.48,2 0.93,1.72 0.66,0.73 1.63,1.26 m -6.15,0 0.42,1.77 0.35,0.79 1.05,1.37 1.44,1.11 m -5.72,0.68 0.67,2.21 0.91,1.18 1.25,0.96 m -5.28,1.36 0.31,1.29 0.6,1.11 1.47,1.28 m -4.83,2.03 0.46,1.53 0.62,0.81 0.86,0.66 m 23.13,-32.65 1.48,2.45 0.9,1.03 1.04,0.87 1.18,0.71 2.67,1.02 m -9.56,-0.33 1.33,2.2 0.82,0.93 1.99,1.42 2.41,0.92 m -8.84,0.27 1.19,1.96 0.72,0.83 1.77,1.26 2.14,0.82 m -8.11,0.88 1.04,1.72 0.63,0.72 1.55,1.1 1.88,0.72 m -7.39,1.49 0.89,1.47 1.17,1.14 2.31,1.04 m -6.65,2.09 0.74,1.23 0.97,0.95 1.93,0.87 m -5.93,2.7 0.95,1.39 0.89,0.63 1.07,0.41 m 21.27,-28.41 1.67,2.84 1.01,1.23 1.16,1.08 1.3,0.92 2.94,1.47 m -10.45,-1.55 1.48,2.51 1.92,2.04 1.15,0.81 2.6,1.31 m -9.51,-0.67 1.29,2.17 0.77,0.94 1.88,1.54 2.26,1.13 m -8.56,0.21 1.09,1.84 0.66,0.8 1.59,1.3 1.91,0.96 m -7.61,1.09 0.89,1.51 1.16,1.23 2.26,1.28 m -6.68,1.97 0.7,1.18 0.91,0.96 1.76,1 m 19.12,-22.32 0.33,4.06 0.41,1.95 0.62,1.88 0.81,1.82 2.1,3.49 m -7.41,-5.62 0.28,3.34 0.84,3.17 0.67,1.5 1.74,2.87 m -6.66,-3.31 0.22,2.64 0.27,1.27 0.92,2.41 1.37,2.26 m -5.91,-1 0.35,2.85 0.68,1.76 1,1.66 m -167.04,40.41 79.52,-2.76 0.04,0.88 -79.4,5.07 m -0.06,0.35 72.66,0.78 v 0.89 l -71.91,1.51 m 0.1,0.42 64.91,3.66 -0.03,0.89 -64.38,-1.38 m 0.05,0.46 57.36,5.9 -0.08,0.89 -57.93,-3.68 m -0.11,0.38 51.05,7.67 -0.11,0.88 -51.63,-5.43 m 0.3,0.37 44.35,8.83 -0.15,0.87 -44.74,-6.56 m 0.61,0.42 37.2,9.31 -0.19,0.86 -37.69,-7.05 m 0.75,0.44 30.11,9.18 -0.23,0.86 -30.7,-6.95 m 0.89,0.48 23.12,8.44 -0.27,0.85 -23.81,-6.25 m 1.02,0.53 16.27,7.11 -0.3,0.83 -17.05,-4.94 m 1.15,0.57 9.59,5.2 -0.34,0.82 -10.47,-3.07 m 1.28,0.69 3.12,2.72 -0.37,0.8 -4.09,-0.63 m 72.21,-43.48 -2.13,0.41 -1.77,0.8 -0.68,0.62 -0.54,0.78 -0.42,0.91 -0.59,2.09 m 0.01,1.12 -2.1,0.24 -1.77,0.66 -0.69,0.56 -0.55,0.73 -0.44,0.87 -0.66,2.01 m -0.05,1.12 -2.05,0.08 -1.75,0.51 -0.69,0.5 -0.57,0.68 -1.19,2.75 m -0.09,1.11 -2,-0.08 -1.72,0.38 -0.7,0.44 -0.58,0.62 -1.26,2.62 m -0.14,1.11 -2.82,-0.2 -0.8,0.19 -0.69,0.38 -1.09,1.3 -0.84,1.76 m -0.19,1.1 -1.85,-0.39 -1.63,0.09 -0.69,0.32 -0.59,0.51 -1.41,2.36 m -0.24,1.09 -1.76,-0.54 -1.57,-0.04 -0.67,0.26 -0.6,0.46 -1.47,2.21 m -0.29,1.08 -1.65,-0.68 -1.5,-0.18 -0.66,0.21 -0.6,0.4 -1.52,2.08 m -0.34,1.06 -1.53,-0.82 -1.42,-0.3 -0.64,0.15 -0.59,0.35 -1.59,1.93 m -0.38,1.05 -1.4,-0.95 -1.32,-0.42 -0.62,0.09 -0.59,0.29 -1.63,1.79 m -0.43,1.03 -1.26,-1.05 -1.23,-0.52 -0.59,0.04 -0.58,0.25 -1.67,1.66 m 66.97,-42.87 -1.99,0.57 -0.82,0.47 -0.68,0.62 -0.54,0.78 -0.74,1.93 m -19.89,-2.77 -1.29,0.37 -0.54,0.3 -0.79,0.91 -0.48,1.26 m 21.65,2.21 -1.96,0.41 -0.83,0.4 -0.69,0.56 -0.55,0.73 -0.8,1.85 m -17.69,-3.44 -1.28,0.27 -0.53,0.26 -0.81,0.84 -0.52,1.2 m 19.43,3.03 -1.93,0.25 -0.82,0.33 -0.69,0.5 -0.57,0.68 -0.85,1.76 m -1.45,2.03 -1.89,0.1 -0.81,0.27 -0.7,0.44 -0.58,0.62 -0.89,1.67 m -1.5,1.91 -1.83,-0.05 -0.8,0.19 -0.69,0.38 -0.59,0.57 -0.94,1.58 m -1.53,1.78 -1.77,-0.2 -0.77,0.13 -0.69,0.32 -0.59,0.51 -0.98,1.49 m -1.56,1.65 -1.69,-0.34 -0.75,0.07 -0.67,0.26 -0.6,0.46 -1.01,1.38 m 12.54,22.41 6.3,5.27 4.83,4.55 4.83,4.03 1.54,2.29 1.88,0.89 2.01,0.61 2.78,1.7 -1.96,8.58 0.2,3.36 -0.94,2.22 -1.14,5.54 -0.19,3.31 -1.39,2.29 -2.78,0.96 -8.67,11.51 -0.46,-3.73 -1.6,-1.35 -0.59,-2.22 0.67,-3.85 0.29,-3.4 -0.38,-3.9 -1.01,-2.71 -3.93,-5.26 -0.4,-2.45 -1.27,-2.53 -0.25,-2.67 -1.71,-4.85 -0.75,-2.91 -1,-2.68 -2.03,-6.72 -0.56,-2.64 -1.36,-3.52 m 7.26,0.23 7.54,7.8 4.74,4.63 2.25,2.69 1.75,2.59 2.56,1.88 1.52,1.73 1.07,1.51 0.74,2.22 m -23.94,-25.11 7.02,8.31 1.55,2.09 2.29,2.15 3.33,6 2.45,2.44 1.51,2.34 1.21,2.26 3.11,3.75 m -24.24,-29.4 2.35,3.23 1.74,2.87 3.17,4.64 1.49,2.68 1.72,2.6 1.18,3.39 1.97,3.15 2.72,5.07 1.67,1.38 1.43,2.47 0.8,3.02 2.07,2.14 m -24.08,-36.69 1.68,3.35 1.25,2.9 1.69,3.01 1.39,2.9 1.97,5.17 0.58,2.84 1.31,2.68 1.55,2.4 0.73,3.02 1.29,2.24 1.34,3.42 2.11,1.99 2.26,0.97 1.07,2.13 m 122.37,-35.04 3.31,4.77 2.68,2.34 2.13,3.14 1.55,1.89 7.67,11.89 -0.04,3.36 -0.9,2.51 -1.26,2.29 -1.6,1.99 -1.2,2.39 -2.49,1.15 -5.51,0.4 -2.62,1.04 -0.79,2.89 -1.43,2.29 -2.22,1.51 -11.04,2.39 -2.37,1.07 -2.54,0.12 -5.31,-0.88 -5.8,-0.17 -2.22,0.26 -5.45,-2.29 -4.47,-2.13 -2.35,-0.1 -2.35,0.54 -3.29,-1.87 -2.15,-1.46 -7.08,-1.03 -1.31,-1.13 -4.14,-4.24 -5.02,-5.34 -5.38,-8.14 -1.86,-2.26 -0.87,-3.75 -0.42,-3.72 -3.16,-5.07 m 77.03,-5.48 2.97,4.08 1.85,3.09 1.97,2.1 1.72,2.14 2.23,1.95 1.31,2.8 m -16.33,-14.99 2.72,3.12 5.73,7.79 1.91,2.13 2.12,1.65 4.79,4.34 3.16,2.37 2.48,1.62 0.47,2.65 m -27.62,-24.39 3.28,3.21 1.97,2.54 1.58,2.39 1.91,1.86 4.11,5.34 2.03,2.02 3.05,1.01 2.09,2.27 2.47,2.79 1.83,3.31 m -28.56,-25.44 7.06,7.49 2.44,1.5 1.8,2.5 6.1,7.01 2.53,1.66 1.15,2.46 m -25.32,-21.33 3.12,3.3 2.03,2.57 1.98,1.84 2.25,1.42 1.98,2.8 1.83,2.94 2.53,2.6 4.29,5.66 m -24.25,-21.83 2.78,3.25 1.61,2.82 4.08,4.33 4.22,5.12 2.49,2.27 1.59,2.25 m -21.06,-18.94 2.26,3.56 2.07,2.79 1.55,2.65 3.96,4.67 2.28,3.39 1.7,2.13 1.95,1.96 1.91,1.54 1.85,2.22 2.22,3.22 1.44,2.51 1.6,1.93 m -29.11,-31.58 3.95,6.36 3.58,5.38 2.08,1.81 1.87,2.7 1.14,3.12 2.24,2.48 2.77,2.51 m -22.03,-23.8 2.59,3.08 1.8,2.66 1.04,3.06 1.7,2.74 2.12,2.02 2.16,6.09 m -15.84,-19.47 3.84,6.4 2.32,5.3 1.75,2.29 1.38,3.36 0.97,3.96 m -14.69,-21.36 3.2,7.3 2.11,2.07 1.19,1.85 2.55,5.26 1.47,3.64 -0.25,4.29 0.96,2.78 1.54,3.18 m -17.19,-30.64 2.22,3.96 1.2,2.93 3.29,4.9 1.1,2.5 3.29,8.64 1,3.08 0.06,2.58 m -16.59,-28.84 2.64,3.88 1.8,3.06 2.02,4.84 0.44,3.09 1.8,3.09 2.18,2.66 0.62,2.85 m -15.93,-23.69 2.31,4.07 1.33,3.32 2.27,4.57 v 3.18 l 1.33,2.26 m -11.66,-17.71 2.69,7.2 0.91,3.53 1.07,2.7 0.95,3.16 1.36,2.57 1.86,2.05 1.27,2.78 m -14.52,-24.44 1.98,3.41 0.89,3.63 1.37,2.97 1,6.5 m -9.63,-17.13 2.09,3.74 1.91,2.92 2.5,6.59 m -10.84,-14.14 1.69,3.67 2.58,7.14 m 110.09,-82.64 2.74,0.24 4.96,-2.37 2.46,-0.47 4.56,-2.53 1.77,-1.53 9.15,-5.96 2.41,-1.41 2.36,-2.03 2.2,-0.6 2.41,-1.11 2.2,-1.39 7.06,4.1 2.84,0.69 2.36,0.22 2.37,0.86 4.8,3.07 3.08,1.04 2.41,0.36 2.28,1.02 4.85,5.78 4.3,3.3 1.78,2.45 1.56,2.7 2.98,6.08 2.01,2.85 1.27,2.94 -1.42,5.31 1.64,3.87 1.14,3.35 0.17,5.08 -1.11,2.28 -2.1,1.53 -1.39,2.25 -1.72,1.91 -0.32,3.28 -0.07,3.54 -1.23,2.42 -1.57,2.1 -1.71,1.95 -1.98,1.78 -1.63,2.13 -2.1,1.66 -2.93,0.82 -3.45,4.07 -2.47,1.29 -1.22,2.53 -2.04,1.62 -6.05,1.01 -2.43,0.95 -0.81,2.29 -2.24,0.85 -0.89,0.78 -4.5,0.37 -2.45,-1.62 -3.57,-1.92 -3.31,-0.47 -3.05,-1.7 -1.11,-1.82 -3.96,-4.45 -3.06,-2.02 -2.26,-2.03 -5.76,-2.07 -2.36,-2.11 -2.07,-2.12 -5.78,-4.61 m 2.95,-49.68 2.37,-0.82 2.38,-1.23 2.96,-0.94 2.63,-0.56 7.48,-4.43 3.37,-2.27 7.7,-3.17 4.4,-2.35 m -36.24,18.31 3.22,-0.01 2.67,-0.63 4.97,-1.83 2.36,-1.02 2.48,-0.45 2.62,-1.21 3.11,-1.17 3.35,-1.87 2.06,-1.92 2.86,-0.87 3.02,-0.72 2.54,-0.04 2.02,-1.05 2.32,-2.11 1.63,-0.93 2.81,-0.5 3.21,-0.85 m -47.25,19.79 3.54,-0.06 5.45,-1.28 2.91,-0.78 4.5,-1.49 4.88,-1.9 3.18,-0.07 3.18,-0.92 2.12,-1.55 2.02,-0.95 2.98,-1.09 3.06,-0.77 2.69,-1.89 6.56,-2.32 2.2,-1.14 1.85,0.66 1.23,-0.29 m -45.7,17.92 2.74,-0.5 5.6,-1.61 2.44,-0.53 2.41,-0.96 2.87,-0.39 2.3,-0.56 2.31,-0.94 3.89,-0.73 2.96,-0.07 2.96,-1.29 m -30.61,10.48 3.08,-0.54 3.05,-0.81 2.53,-0.24 2.79,-0.57 2.61,-0.93 1.68,-1.57 2.46,-0.86 2.87,-0.25 9.11,0.55 4.16,-2.32 3.53,-1.64 2.81,-0.74 3.78,-0.45 2.81,-1.58 2.56,-0.92 1.2,0.12 1.82,-0.32 3.06,-1.24 m -62.43,17.19 3.59,0.12 3.15,-0.26 2.92,-0.43 2.37,-0.62 5.15,-0.36 2.95,-0.94 4.95,-2.23 2.92,-0.17 2.88,0.35 3.74,0.87 2.62,0.1 2.76,-1.1 1.89,-0.51 1.98,0.04 3.21,-0.99 3.55,-1.7 1.93,-1.12 2.73,-0.39 2.36,-0.85 1.97,-0.04 0.92,-0.51 m -56.94,13.63 8.29,-0.36 5.18,-0.48 2.84,-0.6 6.58,-2.05 2.52,-0.04 1.88,-0.46 2.8,1.15 3.07,-0.03 3.31,0.19 2.32,-0.43 2.04,0.11 3,-0.95 5.89,-4.2 3.01,0.16 1.68,0.96 1.58,-0.01 5.69,-0.61 6.46,0.96 2.63,-0.44 m -65.32,9.56 5.48,0.03 5.78,-0.39 3.51,-0.45 3.55,-1.23 3.66,0.88 3.01,-0.62 4.38,-0.32 2.95,0.36 m -35.3,4.61 2.78,0.07 6.08,0.9 2.84,-0.38 5.96,0.37 2.63,-0.05 2.72,-0.52 2.46,0.28 5.17,-0.55 3.52,0.62 3.15,-0.56 2.64,-0.01 3.44,-1.08 2.65,-0.21 1.59,-0.75 3.16,0.94 2.27,2.02 2.88,0.63 2.66,-0.41 2.29,0.03 3.45,0.72 2.87,-0.07 m -67.3,1.13 2.82,0.07 6.2,1.25 2.88,-0.12 2.97,0.08 5.24,0.62 2.88,-0.08 2.69,0.27 1.55,0.47 2.69,-0.04 3.82,-0.88 6.35,-1.12 2.72,0.77 3.02,0.56 3.36,0.25 m -51.79,0.3 2.61,0.61 2.92,0.44 3.36,0.11 6.04,0.83 5.38,1.34 1.94,0.89 6.01,-0.2 5.75,0.18 4.99,1.01 3.03,0.84 2.73,0.02 7,1.26 2.03,-0.32 2.98,-1.08 2.94,-0.41 m -56.85,-2.29 2.92,0.47 2.87,0.8 6.43,1.02 2.42,0.55 2.34,0.83 2.42,0.61 9.36,-0.09 2.69,0.59 1.84,1.78 m -30.38,-2.98 3,1.16 2.99,0.86 3.18,0.35 2.26,0.55 2.15,0.89 2.37,0.63 6.36,2.2 2.83,0.23 3.07,0.53 2.7,0.87 2.3,0.45 2.9,-0.49 2.67,1.34 2.99,1.11 7.81,1.94 1.12,-0.46 5.61,0.27 3.92,0.9 1.89,1.07 m -67.81,-12.65 5.81,1.46 2.7,1.07 8.3,1.96 2.13,0.98 1.99,1.71 2.56,0.99 7.67,2.33 5.18,1.15 2.4,-0.4 2.29,0.17 7.45,2.26 4.97,2.3 m -56.91,-14.68 9.11,3.38 2.68,0.68 2.76,1.07 5.63,1.46 2.38,1.35 1.49,1.89 2.89,1.2 3.14,2.03 3.23,1 m -24.31,-7.41 2.95,0.64 2.78,0.84 2.96,1.17 2.08,1.39 2.17,1.19 2.95,2.54 5.27,3.75 2.41,0.77 2.11,0.21 6.45,1.42 3.1,0.05 2.35,0.68 3.93,0.54 5.68,4.44 2.05,0.66 2.04,1 m -53.86,-19.59 8.35,3.61 1.79,2.03 2.38,1.17 2.3,0.82 5.53,4.42 3.33,1.05 1.9,0.44 1.82,-0.19 2.4,0.01 2.41,2.03 m -35.56,-13.82 6.45,3.12 4.98,3.06 1.75,1.36 2.67,1.14 2.85,0.94 3.15,2.34 2.71,2.54 2.37,1.14 1.77,-0.51 1.28,0.6 2.12,1.94 2.95,0.82 2.85,1.76 m -32.21,-13.89 2.42,1.9 2.8,1.54 2.45,1.25 2.38,0.6 2.89,1.51 3.02,2.81 4.65,3.49 1.04,0.38 2.91,1.76 m -60.42,-83.26 0.6,-5.89 0.47,-2.76 1.35,-5.15 1.07,-2.17 1.74,-1.49 2.49,-0.77 3.02,-0.21 3.49,0.34 3.71,1.67 3.12,2.86 1.99,3.57 0.47,3.51 -0.92,2.81 -1.55,2.01 -1.31,2.12 -1.09,2.35 -0.95,2.49 0.36,2.21 m -17.23,-11.23 0.85,-4.02 0.74,-2.5 1.07,-2.17 1.74,-1.5 2.49,-0.76 3.02,-0.21 3.49,0.34 3.71,1.66 1.56,1.43 m -299.88,64.6 2.46,-2.36 3.26,-2.53 13.35,-9.13 18.23,-15.7 6.46,-4.36 6.85,-4.24 6.89,-3.16 7.02,-2.15 7.01,-1.61 11.99,-1.78 4.46,-0.26 2.62,0.22 1.15,3.52 0.87,3.41 2.24,6.88 1.59,6.79 0.38,3.33 -0.94,3.14 -0.68,3.17 -0.72,6.45 -0.71,3.17 -1.66,3.02 -1.34,3.08 -4.54,9.16 -1.68,3.02 -2.89,2.83 -19.91,-0.35 -7.3,-0.5 -24.54,-2.89 -13.8,-2.29 -7.25,-1.46 m 63.68,-26.46 -1.06,2.72 -3.49,7.85 -0.89,1.47 m -28.3,11.91 -9.35,-0.12 -4.75,-0.45 m -17.79,2.84 -8.98,-1.06 -1.82,-1.33 -0.03,-2.29 1.78,-1.69 2.18,0.2 9.33,5.66 m 0.06,0.76 -7.14,5.68 -1.98,1.26 -2.23,-0.18 -1.14,-1.83 0.65,-2.13 2.01,-1.16 4.36,-1.21 5.09,-1.17 m 30.14,-1.24 -3.15,-4.41 -1.55,-5.19 0.23,-5.42 1.97,-5.05 3.5,-4.13 4.66,-2.78 5.3,-1.11 5.38,0.67 4.87,2.38 3.83,3.83 2.38,4.87 0.67,5.38 -1.11,5.31 -2.77,4.65 -4.14,3.51 -5.05,1.97 -5.41,0.22 -5.2,-1.55 -4.41,-3.15 m 22.36,-19.29 1.91,3.89 0.53,4.3 -0.89,4.25 -2.22,3.72 -3.3,2.81 -4.04,1.57 -4.34,0.18 -4.15,-1.24 -3.53,-2.52 m 3.99,-5.32 -1.26,-1.76 -0.62,-2.08 0.09,-2.17 0.79,-2.02 1.4,-1.65 1.86,-1.11 2.13,-0.45 2.15,0.27 1.95,0.96 1.53,1.53 0.95,1.95 0.27,2.15 -0.45,2.12 -1.11,1.86 -1.65,1.4 -2.02,0.79 -2.17,0.09 -2.07,-0.62 -1.77,-1.26 m -1.32,-2.34 3.83,3.83 m -1.44,-3.84 4.18,4.17 m -6.37,-8.75 8.28,8.27 m -5.95,-8.34 7.46,7.46 m -3.3,-5.69 4.51,4.51 m -3.77,-6.17 4.66,4.67 m -5.56,-7.96 5.99,5.99 m -2.59,-4.98 2.09,2.09 m -55.93,9.96 1.2,1.2 m 1.59,-3.72 5.2,5.19 m -2.19,-7.5 4.71,4.71 m -1.57,-6.89 3.51,3.51 m -0.32,-5.64 3.29,3.29 m -0.12,-5.44 2.79,2.79 m 0.35,-4.97 5.12,5.12 m -2.2,-7.52 4.82,4.82 m -1.94,-7.26 3.28,3.28 m -0.47,-5.78 3.35,3.34 m -0.54,-5.86 2.73,2.73 m 0.13,-5.19 4.63,4.63 m -1.74,-7.06 3.16,3.16 m -0.13,-5.44 5.19,5.19 m -2.01,-7.34 4.27,4.28 m -1.04,-6.37 3.8,3.8 m -0.52,-5.83 4.39,4.39 m -0.96,-6.28 4.17,4.17 m -0.53,-5.85 2.72,2.72 m 1.15,-4.17 3.24,3.24 m 0.83,-4.49 5.11,5.11 m -0.84,-6.16 3.15,3.15 m 1.22,-4.1 4.75,4.75 m -0.16,-5.47 3.2,3.19 m 1.46,-3.85 3.71,3.7 m 1.17,-4.14 4.27,4.26 m -37.42,13.51 1.03,1.5 1.12,0.5 0.68,0.06 2.62,-0.39 1.68,0.24 0.77,-0.22 m 23.6,14.73 0.86,1.16 0.28,0.02 0.29,-0.24 m 7.63,1.92 -2.48,-2.94 -1.23,-0.73 -1.07,-0.07 m -77.61,11.76 -2.27,-1.69 -0.51,-0.05 -1.46,0.36 m 75.03,-26.56 -1.05,-0.28 -1.35,-1.02 -0.8,-1.62 -0.91,-3.88 -0.3,-0.68 -2.37,-2.73 -1.02,-0.76 m -21.48,11.79 1.14,1.5 1.22,0.48 0.73,0.08 2.68,-0.35 1.68,0.31 0.79,-0.14 m -28.5,33.23 0.2,1.06 -0.16,1.15 -0.6,1.16 -0.84,1.09 m -12.86,-11.63 -1.3,-1.77 -1.29,-1.29 -0.52,-1.12 -0.54,-1.93 m 58.04,-27.63 -0.42,-1.3 -0.78,-1.23 -1.44,-1.74 -0.75,-1.61 -0.93,-1.32 -0.17,-0.57 m -3.95,0.88 0.87,-1.1 3.43,-1.35 m -5.72,4.45 0.12,-1 1.01,-1.81 0.38,-0.41 2.58,-1.07 m 13.15,30.07 -2.06,1.75 -1.38,2.55 -0.25,0.89 -0.09,0.88 0.4,1.86 0.37,0.94 1.05,1.36 m 1.88,-6.43 v 1.55 l 0.39,0.84 0.99,0.47 2.44,0.09 m -62.74,15.78 0.09,0.38 m 59.89,-37.11 -0.93,-0.32 -1.27,-1.07 -1.22,-2.6 -0.34,-2.11 -0.71,-1.95 -0.58,-0.87 -2.65,-2.28 m -11.75,5.96 -0.53,0.32 -0.67,0.75 -0.21,1.66 m -27.59,27.23 0.35,0.04 0.44,0.49 0.35,1.68 0.2,0.31 0.44,0.45 0.49,0.18 m -5.4,0.92 3.96,-0.11 1.94,-0.35 0.61,0.11 m 40.76,6.61 0.67,-0.42 0.43,0.02 0.45,0.23 1.3,1.35 0.9,1.37 m -22.08,-45.17 0.45,1.32 0.93,1.45 0.51,1.4 M 70.62,181.51 69,180.44 m -3.16,-1.87 -0.25,-0.46 m 33.86,5.43 1.19,1.3 0.23,0.59 -0.33,1.07 -0.69,0.71 m 52.88,-26.79 -1.11,0.93 -1.09,2.63 -0.14,1.01 0.52,1.28 m -62.13,19.89 0.62,0.97 0.63,0.51 m 62.22,-53 -0.18,0.82 -1.77,2.18 -0.59,0.31 -0.6,-0.09 m 0.52,17.3 -1.01,-0.09 -1.95,0.2 -1,0.39 -0.74,0.44 -0.5,0.53 -0.19,0.43 0.23,0.35 m 3.03,31.87 0.61,0.87 0.1,0.99 m 6.08,-10.23 -2.29,-0.98 -1.66,-0.17 -1.26,0.37 -1.09,0.99 m -76.23,-2.32 -4.64,-2.13 m 79.28,-30.81 -1.34,-1.73 -0.81,-2.71 -0.63,-1.33 -2.3,-2.39 -2.16,-1.36 -1.91,-1.49 m -43.14,35.9 2.95,0.13 1.57,-0.42 0.26,0.19 0.19,0.7 m 46.33,15.39 0.84,1.35 1.62,1.72 0.3,0.68 0.03,0.57 m -13.23,-36.48 -0.05,0.85 -0.56,-0.04 m -14.96,32.58 -0.8,-0.67 m 34.51,-3.89 -0.96,-0.04 -0.76,0.46 -0.24,0.78 0.12,2.46 m -1.42,-25.71 -0.87,1.58 -0.34,1.24 -0.09,0.87 0.25,0.97 -0.16,1.01 m -51.42,-10.64 -1.36,-0.43 -0.9,-0.74 m 51.79,10.26 -0.76,1.21 -0.18,1.14 0.07,1.39 0.27,0.62 0.25,0.2 1.11,0.3 m -68.14,-2.49 -0.87,1.06 -1.05,0.21 m 50.47,-23.08 -0.58,-0.21 -1.08,0.35 -0.28,0.26 -0.22,0.82 m -51.55,29.36 -1.83,-1.46 -0.39,-0.03 m 6.35,14.36 -1.09,2.3 -0.66,2.37 -0.32,2.47 v 2.54 l 0.66,7.94 v 2.76 l -0.3,2.76 -0.61,2.69 -0.83,2.6 -1,2.55 -1.26,2.45 -1.5,2.3 -1.76,2.13 -6.06,5.24 -1.7,1.9 -1.28,2.18 -0.8,2.42 -0.36,2.54 0.06,2.57 0.49,2.55 2.47,7.54 1.89,4.94 1.14,2.39 2.55,4.65 8.15,13.73 -9.84,-15.82 -2.52,-4.71 -2.04,-4.94 -2.71,-7.55 -0.58,-2.66 -0.13,-2.74 0.3,-2.74 0.81,-2.66 1.34,-2.44 1.79,-2.11 5.87,-5.36 1.58,-2.01 1.34,-2.19 1.11,-2.32 0.88,-2.43 0.72,-2.48 0.5,-2.52 0.21,-2.53 -0.07,-2.56 -0.88,-7.94 -0.07,-2.78 0.28,-2.81 0.7,-2.78 1.11,-2.53 m 2.25,0.53 -0.08,0.45 m -0.2,1.07 -0.18,0.93 0.2,2.31 0.8,2.21 1.33,2 1.72,1.74 2.03,1.44 2.2,1.16 2.34,0.75 2.4,0.22 2.36,-0.4 2.14,-1.04 1.71,-1.64 1.09,-2.14 0.54,-2.41 0.05,-2.51 -0.33,-2.54 -0.65,-2.49 -2.04,-4.79 -2.58,-4.53 -1.68,-1.98 -1.88,-1.8 -2.07,-1.59 -4.49,-2.82 -2.19,-1.56 -2.04,-1.75 -1.9,-1.9 -1.72,-2.06 -1.5,-2.23 -1.21,-2.4 -0.95,-2.5 -0.71,-2.57 -0.48,-2.63 -0.28,-2.65 -0.24,-5.31 0.31,5.31 0.35,2.63 0.55,2.6 0.77,2.53 1.01,2.44 1.25,2.32 1.53,2.15 1.74,1.97 1.91,1.82 2.05,1.65 2.18,1.48 4.59,2.71 2.19,1.59 2.01,1.82 1.82,2.04 1.5,2.27 2.52,4.77 1.05,2.52 0.76,2.64 0.43,2.73 0.01,2.8 -0.55,2.8 -1.27,2.62 -2.07,2.1 -2.61,1.37 -2.87,0.57 -2.9,-0.18 -2.75,-0.8 -2.54,-1.24 -2.35,-1.59 -2.08,-1.98 -1.67,-2.4 -0.25,-0.62 m -0.92,-6.77 0.17,-1.15 m 2.75,0.42 -0.1,0.52 m -0.11,0.6 -0.26,1.34 0.23,2.74 m 2.62,7.56 2.69,6.85 1.31,5.28 1.28,7.96 0.39,7.98 0.36,2.55 0.72,2.45 1.1,2.3 1.46,2.09 1.81,1.79 2.14,1.41 2.36,1.01 2.51,0.57 2.59,0.19 5.23,-0.44 2.57,-0.54 2.52,-0.77 2.39,-1.07 2.18,-1.46 1.89,-1.82 1.6,-2.1 1.34,-2.27 1.13,-2.41 0.94,-2.48 1.36,-5.14 -1.29,5.16 -0.88,2.52 -1.06,2.44 -1.3,2.34 -1.57,2.18 -1.89,1.92 -2.2,1.56 -2.44,1.16 -2.55,0.86 -2.61,0.63 -5.36,0.59 -2.71,-0.12 -2.69,-0.54 -2.56,-1.02 -2.35,-1.46 -2.03,-1.89 -1.64,-2.22 -1.26,-2.47 -0.85,-2.63 -0.46,-2.71 -0.61,-7.95 -0.4,-2.58 -1.67,-7.71 -1.72,-4.89 -4.18,-9.83 m -0.6,-8.43 0.01,-0.05 m -1.3,-3.69 0.98,0.37 m -7.08,-1.12 -0.13,1.14 0.39,1.26 0.11,-1.08 0.81,-1.2 m -6.81,-1.19 -0.64,2.62 0.53,2.45 -0.03,-2.26 1.18,-2.25 m 11.13,1.19 0.52,-0.24 m -6.77,0.98 -0.12,-0.65 0.3,-1.29 0.18,1.07 0.49,0.62 m -5.97,2.13 -0.84,-2.67 0.36,-2.48 0.12,2.26 1.4,2.29 m 4.8,2.51 5.18,-0.11 2.29,-0.22 4.42,-0.8 4.33,-1.18 m 70.86,-54.54 5.9,5.91 m -1.59,-8.69 10.42,10.42 m -5.39,-12.48 5.6,5.6 m -1.15,-8.24 10.2,10.2 m -5.76,-12.85 7.47,7.46 m -3.11,-10.2 8.74,8.75 m -4.36,-11.46 7.54,7.54 m -2.6,-9.7 8.71,8.72 m -3.59,-10.68 10.14,10.14 m -4.24,-11.33 8.24,8.23 m -1.84,-8.93 5.73,5.73 m 0.88,-6.21 8.87,8.87 m -2.31,-9.4 5.84,5.84 m 0.08,-7.01 9.96,9.96 m -4.21,-11.3 9.93,9.92 m -4.35,-11.44 9.53,9.53 m -3.45,-10.54 8.76,8.76 m -2.08,-9.17 5.87,5.87 m 2,-5.1 7.63,7.64 m 1.48,-5.62 6.02,6.02 m 3.45,-3.64 8.65,8.65 m 0.34,-6.75 7.64,7.64 m 0.86,-6.23 7.45,7.44 m 1.09,-5.99 5.95,5.95 m 3.03,-4.06 9.18,9.18 m -0.16,-7.26 8.8,8.8 m 0.38,-6.71 8.37,8.37 m 1.35,-5.75 9.86,9.87 m 0.87,-6.22 9.38,9.37 m 2.78,-4.31 9.19,9.19 m -128.02,-14.18 0.13,0.58 -0.42,0.78 -0.55,0.2 -0.13,-0.57 0.42,-0.78 0.55,-0.21 m 0.02,0.27 -0.23,0.54 -0.8,0.39 -0.56,-0.15 0.23,-0.54 0.79,-0.39 0.57,0.15 m -4.28,-9.44 -0.51,-0.27 -0.32,-0.83 0.19,-0.55 0.52,0.28 0.32,0.82 -0.2,0.55 m -0.75,-1.34 0.5,0.31 0.25,0.85 -0.24,0.54 -0.49,-0.32 -0.26,-0.84 0.24,-0.54 m 9.66,0.89 -0.58,0.12 -0.77,-0.42 -0.21,-0.55 0.57,-0.13 0.78,0.43 0.21,0.55 m -0.93,-1.09 0.3,0.51 -0.16,0.87 -0.46,0.37 -0.3,-0.51 0.16,-0.87 0.46,-0.37 m -10.99,14.4 0.14,-0.56 0.73,-0.51 0.59,0.07 -0.15,0.56 -0.73,0.51 -0.58,-0.07 m 0.66,0.17 -0.12,-0.57 0.43,-0.78 0.55,-0.2 0.12,0.58 -0.43,0.77 -0.55,0.2 m 11.35,3.18 0.16,-0.57 0.74,-0.48 0.58,0.08 -0.16,0.56 -0.74,0.49 -0.58,-0.08 m 0.5,-1.12 0.37,0.46 -0.05,0.89 -0.4,0.42 -0.37,-0.46 0.05,-0.89 0.4,-0.42 m -16.39,-9.16 0.24,-0.54 0.8,-0.38 0.56,0.15 -0.23,0.54 -0.8,0.38 -0.57,-0.15 m 1.48,-0.37 -0.56,0.17 -0.81,-0.36 -0.25,-0.53 0.56,-0.17 0.81,0.35 0.25,0.54 m 19.86,3.13 -0.3,0.5 -0.85,0.27 -0.54,-0.23 0.31,-0.5 0.84,-0.27 0.54,0.23 m -0.28,-0.11 -0.36,0.46 -0.87,0.17 -0.51,-0.29 0.36,-0.46 0.87,-0.17 0.51,0.29 m -28.4,-2.55 0.18,0.56 -0.35,0.82 -0.53,0.25 -0.18,-0.55 0.35,-0.82 0.53,-0.26 m -0.43,1.49 -0.11,-0.58 0.44,-0.76 0.56,-0.19 0.11,0.57 -0.45,0.77 -0.55,0.19 m -2.79,-9.21 0.45,-0.38 0.89,0.01 0.43,0.39 -0.44,0.38 -0.89,-0.02 -0.44,-0.38 m 1.55,0.14 -0.58,0.06 -0.73,-0.5 -0.15,-0.56 0.58,-0.07 0.73,0.5 0.15,0.57 m 8.49,-2.85 0.2,0.55 -0.31,0.82 -0.52,0.28 -0.2,-0.55 0.32,-0.83 0.51,-0.27 m -0.44,0.16 0.28,0.51 -0.19,0.87 -0.47,0.35 -0.28,-0.51 0.19,-0.87 0.47,-0.35 m -5.22,17.48 0.52,-0.25 0.86,0.23 0.33,0.48 -0.53,0.26 -0.85,-0.23 -0.33,-0.49 m 0.32,0.65 0.33,-0.49 0.86,-0.22 0.53,0.26 -0.34,0.48 -0.86,0.23 -0.52,-0.26 m 5.89,3.65 0.57,-0.13 0.79,0.41 0.21,0.55 -0.57,0.13 -0.79,-0.42 -0.21,-0.54 m 1.13,-0.17 -0.13,0.57 -0.72,0.53 -0.58,-0.05 0.13,-0.57 0.71,-0.53 0.59,0.05 m -17.06,-4.24 0.59,0.03 0.64,0.61 0.06,0.58 -0.59,-0.02 -0.64,-0.61 -0.06,-0.59 m 0.25,0.06 0.47,0.36 0.19,0.86 -0.28,0.52 -0.47,-0.35 -0.19,-0.87 0.28,-0.52 m 1.63,-5.05 -0.48,-0.34 -0.21,-0.86 0.26,-0.52 0.48,0.33 0.22,0.86 -0.27,0.53 m -0.45,-1.49 0.36,0.45 -0.03,0.89 -0.4,0.43 -0.37,-0.46 0.04,-0.89 0.4,-0.42 m 6.22,18.78 -0.31,-0.42 0.07,-0.89 0.41,-0.41 0.35,0.47 -0.06,0.88 -0.36,0.36 m 0.63,-0.57 -0.58,-0.05 -0.62,-0.63 -0.04,-0.58 0.58,0.04 0.62,0.63 0.04,0.59 m 17.34,2.4 -0.09,0.57 -0.68,0.58 -0.58,-0.01 0.09,-0.58 0.67,-0.57 0.59,0.01 m -1.26,0.23 0.57,0.13 0.53,0.71 -0.04,0.58 -0.57,-0.12 -0.53,-0.71 0.04,-0.59 m -8.15,-0.6 0.53,0.25 0.37,0.8 -0.16,0.57 -0.54,-0.25 -0.36,-0.8 0.16,-0.57 m 0.46,1.48 -0.25,-0.53 0.23,-0.86 0.49,-0.32 0.25,0.53 -0.23,0.85 -0.49,0.33 m -2.31,-40.85 0.58,0.14 0.52,0.71 -0.05,0.59 -0.57,-0.14 -0.53,-0.71 0.05,-0.59 m 0.88,0.14 -0.14,0.57 -0.73,0.52 -0.58,-0.06 0.14,-0.57 0.73,-0.51 0.58,0.05 m 4.35,4.39 0.56,-0.18 0.81,0.35 0.26,0.52 -0.56,0.18 -0.81,-0.34 -0.26,-0.53 m 0.17,0.13 0.59,0.01 0.66,0.59 0.07,0.59 -0.58,-0.02 -0.66,-0.59 -0.08,-0.58 m -14.97,1.61 -0.33,-0.48 0.11,-0.88 0.18,-0.17 m 0.35,-0.07 0.23,0.33 -0.1,0.88 -0.44,0.39 m -0.42,-1.3 0.55,0.21 0.41,0.79 -0.14,0.57 -0.54,-0.22 -0.41,-0.78 0.13,-0.57 m 23.68,1.06 -0.54,0.23 -0.84,-0.26 -0.31,-0.5 0.53,-0.23 0.85,0.26 0.31,0.5 m -1.26,0.27 0.2,-0.55 0.78,-0.43 0.57,0.12 -0.2,0.55 -0.78,0.43 -0.57,-0.12 m -18.87,-7.6 0.27,0.05 0.55,0.7 -0.04,0.59 -0.57,-0.12 -0.42,-0.54 m 0.79,0.54 -0.43,-0.39 -0.12,-0.88 0.33,-0.49 0.43,0.39 0.12,0.88 -0.33,0.49 m 18.62,-4.39 0.46,0.36 0.18,0.87 -0.3,0.51 -0.46,-0.36 -0.17,-0.87 0.29,-0.51 m 0.73,1.25 -0.56,-0.17 -0.47,-0.76 0.09,-0.57 0.56,0.17 0.47,0.76 -0.09,0.57 m 8.62,10.56 0.58,0.02 0.66,0.6 0.07,0.58 -0.59,-0.02 -0.65,-0.59 -0.07,-0.59 m 1.24,0.93 -0.57,-0.12 -0.55,-0.7 0.03,-0.58 0.58,0.11 0.54,0.7 -0.03,0.59 m -1.09,-9.54 -0.57,0.1 -0.76,-0.47 -0.17,-0.55 0.57,-0.1 0.76,0.47 0.17,0.55 m -0.24,-0.91 -0.3,0.51 -0.85,0.27 -0.54,-0.22 0.3,-0.51 0.85,-0.27 0.54,0.22 m 11.1,28.35 -0.42,0.41 -0.89,0.05 -0.46,-0.36 0.42,-0.4 0.88,-0.06 0.47,0.36 m -1.27,0.61 0.17,-0.56 0.75,-0.47 0.58,0.08 -0.17,0.56 -0.75,0.48 -0.58,-0.09 m -6.42,1.46 0.26,-0.52 0.82,-0.35 0.56,0.19 -0.26,0.52 -0.82,0.34 -0.56,-0.18 m 0.84,0.33 -0.2,-0.55 0.33,-0.82 0.52,-0.27 0.19,0.55 -0.32,0.82 -0.52,0.27 m 5.95,-11.74 -0.52,0.27 -0.86,-0.2 -0.35,-0.48 0.52,-0.27 0.86,0.2 0.35,0.48 m -0.36,-0.66 -0.3,0.51 -0.84,0.29 -0.54,-0.22 0.29,-0.51 0.84,-0.29 0.55,0.22 m -10.65,17.23 0.31,-0.5 0.84,-0.27 0.54,0.24 -0.31,0.5 -0.84,0.26 -0.54,-0.23 m 0.18,-0.4 0.58,-0.06 0.74,0.49 0.15,0.57 -0.58,0.07 -0.74,-0.5 -0.15,-0.57 m -19.95,-41.26 0.49,-0.33 0.88,0.11 0.4,0.43 -0.49,0.33 -0.88,-0.1 -0.4,-0.44 m 0.26,0.37 0.45,-0.38 0.89,0.01 0.43,0.39 -0.44,0.38 -0.89,-0.01 -0.44,-0.39 m -20.17,40.12 -0.18,0.56 -0.76,0.46 -0.58,-0.1 0.18,-0.56 0.76,-0.46 0.58,0.1 m -0.1,0.59 -0.58,0.07 -0.73,-0.5 -0.16,-0.56 0.58,-0.07 0.74,0.49 0.15,0.57 m -2.39,4.48 -0.27,0.52 -0.82,0.32 -0.56,-0.19 0.28,-0.52 0.82,-0.33 0.55,0.2 m -0.25,-0.04 -0.38,0.45 -0.87,0.14 -0.5,-0.32 0.38,-0.44 0.88,-0.14 0.49,0.31 m 36.51,-48.35 0.56,-0.14 0.8,0.4 0.22,0.54 -0.57,0.14 -0.79,-0.4 -0.22,-0.54 m 0.81,1.08 -0.2,-0.56 0.33,-0.82 0.51,-0.27 0.2,0.55 -0.32,0.82 -0.52,0.28 m 6.26,-0.12 0.57,-0.14 0.79,0.42 0.21,0.55 -0.57,0.13 -0.79,-0.42 -0.21,-0.54 m 1.41,0.67 -0.59,-0.05 -0.61,-0.64 -0.03,-0.59 0.58,0.06 0.62,0.64 0.03,0.58 m -0.13,50.83 0.25,0.53 -0.25,0.85 -0.49,0.33 -0.24,-0.53 0.24,-0.86 0.49,-0.32 m 0.24,1.32 -0.52,-0.26 -0.35,-0.82 0.19,-0.55 0.52,0.26 0.34,0.82 -0.18,0.55 m -6.61,0.8 h 0.59 l 0.67,0.58 0.09,0.58 h -0.59 l -0.67,-0.58 -0.09,-0.58 m 0.06,0.86 0.43,-0.4 0.89,-0.02 0.45,0.37 -0.43,0.4 -0.89,0.02 -0.45,-0.37 m 7.86,8.15 0.42,-0.41 0.89,-0.06 0.46,0.36 -0.41,0.41 -0.89,0.06 -0.47,-0.36 m 1.35,-0.55 -0.25,0.53 -0.81,0.36 -0.56,-0.17 0.25,-0.53 0.81,-0.36 0.56,0.17 m 0.24,-18.44 0.32,-0.49 0.86,-0.24 0.53,0.25 -0.32,0.49 -0.86,0.24 -0.53,-0.25 m 1.27,0.3 -0.48,-0.34 -0.22,-0.86 0.26,-0.52 0.48,0.33 0.22,0.86 -0.26,0.53 m 8.69,-1.56 -0.5,0.3 -0.87,-0.17 -0.37,-0.46 0.51,-0.29 0.87,0.16 0.36,0.46 m -1.12,-0.79 0.37,0.45 -0.01,0.89 -0.4,0.43 -0.37,-0.45 0.02,-0.88 0.39,-0.44 m -34.03,17.42 0.57,-0.16 0.8,0.38 0.24,0.53 -0.56,0.16 -0.81,-0.37 -0.24,-0.54 m 1.25,-0.13 -0.23,0.54 -0.8,0.38 -0.57,-0.16 0.24,-0.54 0.8,-0.38 0.56,0.16 m 8.83,-0.95 0.55,-0.19 0.83,0.32 0.27,0.52 -0.56,0.2 -0.82,-0.33 -0.27,-0.52 m 0.33,-0.13 0.53,0.25 0.36,0.81 -0.17,0.56 -0.53,-0.25 -0.36,-0.81 0.17,-0.56 m -38.05,-41.58 -0.2,0.54 -0.51,-0.28 -0.08,-0.21 m 44.53,-23.86 -0.57,-0.12 -0.54,-0.7 0.04,-0.59 0.57,0.12 0.54,0.71 -0.04,0.58 m -0.12,-1.23 -0.2,0.55 -0.78,0.43 -0.57,-0.12 0.2,-0.55 0.78,-0.43 0.57,0.12 m -9.48,0.3 0.52,-0.26 0.86,0.22 0.34,0.48 -0.53,0.27 -0.86,-0.22 -0.33,-0.49 m 0.72,0.89 -0.06,-0.59 0.5,-0.73 0.57,-0.14 0.07,0.58 -0.51,0.73 -0.57,0.15 m 1.25,6.11 -0.28,0.52 -0.82,0.32 -0.56,-0.2 0.28,-0.52 0.83,-0.32 0.55,0.2 m -1.45,0.06 0.58,0.05 0.62,0.64 0.03,0.59 -0.59,-0.06 -0.61,-0.64 -0.03,-0.58 m 18.96,19.62 -0.38,-0.45 0.02,-0.89 0.39,-0.44 0.37,0.45 -0.01,0.89 -0.39,0.44 m -0.04,-0.22 -0.13,-0.57 0.41,-0.78 0.54,-0.22 0.14,0.57 -0.41,0.79 -0.55,0.21 m 11.79,4.26 -0.51,0.28 -0.87,-0.18 -0.36,-0.46 0.52,-0.29 0.86,0.18 0.36,0.47 m -1.17,0.42 0.09,-0.58 0.68,-0.57 0.58,0.01 -0.09,0.58 -0.67,0.57 -0.59,-0.01 m 1.87,7.71 -0.58,0.03 -0.71,-0.53 -0.12,-0.58 0.59,-0.03 0.7,0.53 0.12,0.58 m -0.06,-0.35 -0.58,0.01 -0.68,-0.56 -0.1,-0.58 0.59,-0.01 0.68,0.56 0.09,0.58 m -4.62,30.81 -0.39,0.43 -0.89,0.09 -0.48,-0.33 0.4,-0.43 0.88,-0.09 0.48,0.33 m -0.3,-0.26 -0.38,0.45 -0.88,0.12 -0.5,-0.31 0.39,-0.45 0.88,-0.12 0.49,0.31 m 5.77,-17.02 -0.04,-0.59 0.54,-0.7 0.58,-0.12 0.03,0.59 -0.54,0.7 -0.57,0.12 m 0.03,-1.15 0.54,0.23 0.38,0.8 -0.16,0.57 -0.54,-0.24 -0.38,-0.8 0.16,-0.56 m 1.38,-5.96 0.51,-0.28 0.87,0.17 0.36,0.47 -0.51,0.29 -0.87,-0.18 -0.36,-0.47 m 0.25,-0.09 0.58,0.06 0.61,0.65 0.02,0.58 -0.58,-0.06 -0.61,-0.64 -0.02,-0.59 m 5.88,-3.58 0.55,-0.19 0.82,0.33 0.27,0.52 -0.56,0.19 -0.82,-0.33 -0.26,-0.52 m 0.71,-0.34 0.26,0.53 -0.21,0.86 -0.48,0.33 -0.27,-0.52 0.22,-0.86 0.48,-0.34 m 4.27,6.92 -0.58,0.11 -0.77,-0.44 -0.19,-0.55 0.57,-0.12 0.77,0.44 0.2,0.56 m -1.05,-1.06 0.39,0.44 0.01,0.89 -0.38,0.44 -0.39,-0.44 -0.01,-0.88 0.38,-0.45 m -71.77,-18.01 -0.26,0.52 -0.82,0.34 -0.56,-0.19 0.27,-0.52 0.82,-0.34 0.55,0.19 m -1.17,0.91 0.14,-0.57 0.73,-0.5 0.58,0.06 -0.14,0.57 -0.73,0.5 -0.58,-0.06 m -0.41,11.16 0.25,0.53 -0.24,0.85 -0.49,0.33 -0.25,-0.53 0.24,-0.86 0.49,-0.32 m -0.83,1.19 0.4,-0.43 0.88,-0.1 0.48,0.33 -0.4,0.43 -0.88,0.1 -0.48,-0.33 m 14.57,28.59 0.37,-0.46 0.87,-0.17 0.5,0.29 -0.36,0.46 -0.87,0.18 -0.51,-0.3 m 0.7,-0.82 0.32,0.49 -0.13,0.88 -0.44,0.39 -0.32,-0.5 0.13,-0.88 0.44,-0.38 m -6.85,-0.16 v 0.59 l -0.38,0.45 -0.39,-0.54 m 0.79,0.19 -0.49,-0.4 m 0.69,-0.38 0.07,0.26 -0.27,0.52 m 40.79,8.36 -0.1,0.58 -0.69,0.56 -0.59,-0.02 0.1,-0.58 0.69,-0.56 0.59,0.02 m -1.31,0.83 0.44,-0.39 h 0.89 l 0.44,0.38 -0.44,0.39 h -0.88 l -0.45,-0.38 m 20,-8.98 -0.57,0.13 -0.79,-0.42 -0.21,-0.55 0.58,-0.13 0.78,0.42 0.21,0.55 m -0.2,-0.76 -0.39,0.43 -0.88,0.11 -0.49,-0.32 0.39,-0.44 0.88,-0.11 0.49,0.33 m -41.7,-84.39 0.25,-0.53 0.82,-0.36 0.56,0.18 -0.26,0.53 -0.81,0.35 -0.56,-0.17 m 1.23,0.18 -0.49,-0.34 -0.22,-0.85 0.26,-0.53 0.48,0.33 0.23,0.86 -0.26,0.53 m -4.54,17.59 -0.02,-0.58 0.55,-0.69 0.58,-0.11 0.02,0.59 -0.56,0.69 -0.57,0.1 m 1.22,-0.55 -0.59,0.06 -0.73,-0.51 -0.14,-0.56 0.58,-0.07 0.73,0.51 0.15,0.57 m 8.29,-12.92 0.56,0.17 0.47,0.74 -0.08,0.58 -0.56,-0.16 -0.48,-0.75 0.09,-0.58 m -0.15,0.49 0.58,0.05 0.62,0.63 0.04,0.58 -0.58,-0.04 -0.63,-0.64 -0.03,-0.58 m 16.38,11.58 0.35,-0.48 0.86,-0.2 0.52,0.27 -0.35,0.48 -0.86,0.2 -0.52,-0.27 m 1.23,0.36 -0.45,-0.37 -0.15,-0.88 0.3,-0.5 0.46,0.37 0.15,0.88 -0.31,0.5 m -7.28,-8 0.54,-0.22 0.84,0.29 0.29,0.51 -0.54,0.22 -0.84,-0.29 -0.29,-0.51 m 0.4,-0.22 0.5,0.31 0.26,0.84 -0.23,0.54 -0.5,-0.31 -0.27,-0.84 0.24,-0.54 m -2.66,-4.59 -0.37,-0.44 0.01,-0.89 0.39,-0.44 0.38,0.45 -0.02,0.89 -0.39,0.43 m 0.19,-0.23 -0.31,-0.49 0.12,-0.88 0.45,-0.38 0.31,0.49 -0.12,0.88 -0.45,0.38 m 11.47,6.28 -0.45,0.38 -0.89,-0.03 -0.43,-0.39 0.45,-0.37 0.89,0.02 0.43,0.39 m -0.88,-0.69 0.18,0.56 -0.36,0.81 -0.53,0.25 -0.17,-0.56 0.35,-0.81 0.53,-0.25 m -59.19,35.81 -0.13,-0.57 0.43,-0.78 0.55,-0.21 0.12,0.58 -0.42,0.77 -0.55,0.21 m -0.01,-1.3 0.5,0.32 0.24,0.85 -0.24,0.53 -0.49,-0.32 -0.25,-0.85 0.24,-0.53 m 6.94,4.75 -0.1,0.57 -0.69,0.56 -0.58,-0.02 0.1,-0.57 0.69,-0.56 0.58,0.02 m -1.36,0.65 0.53,-0.26 0.86,0.24 0.32,0.49 -0.53,0.25 -0.85,-0.24 -0.33,-0.48 m -11.34,-1.68 -0.53,-0.26 -0.34,-0.82 0.19,-0.56 0.52,0.27 0.34,0.81 -0.18,0.56 m -0.22,-0.15 -0.28,-0.52 0.2,-0.87 0.47,-0.35 0.27,0.52 -0.19,0.87 -0.47,0.35 m 37.87,-36.07 -0.44,-0.4 -0.11,-0.88 0.32,-0.48 0.44,0.39 0.11,0.88 -0.32,0.49 m -0.28,-0.23 -0.03,-0.58 0.53,-0.71 0.58,-0.12 0.03,0.59 -0.53,0.7 -0.58,0.12 m 11.35,77.55 0.55,0.18 0.46,0.76 -0.11,0.58 -0.55,-0.19 -0.46,-0.76 0.11,-0.57 m 0.82,0.19 -0.16,0.57 -0.74,0.48 -0.58,-0.07 0.16,-0.57 0.74,-0.48 0.58,0.07 m -9.27,4.84 0.49,0.31 0.25,0.85 -0.24,0.54 -0.49,-0.32 -0.26,-0.85 0.25,-0.53 m -0.33,1.19 0.39,-0.44 0.88,-0.11 0.49,0.33 -0.4,0.43 -0.88,0.12 -0.48,-0.33 m -17.46,-5.59 0.56,0.17 0.47,0.76 -0.09,0.58 -0.56,-0.18 -0.47,-0.75 0.09,-0.58 m 1.05,0.41 -0.39,0.44 -0.88,0.11 -0.49,-0.32 0.39,-0.44 0.88,-0.11 0.49,0.32 m 1.28,7.49 -0.43,-0.4 -0.09,-0.88 0.34,-0.48 0.42,0.4 0.1,0.88 -0.34,0.48 m 0.19,-1.49 -0.07,0.58 -0.65,0.6 -0.59,0.02 0.07,-0.59 0.65,-0.6 0.59,-0.01 m 45.98,-79.32 -0.55,0.2 -0.83,-0.32 -0.27,-0.51 0.55,-0.2 0.83,0.31 0.27,0.52 m -1.48,-0.15 0.5,-0.31 0.87,0.14 0.38,0.45 -0.5,0.31 -0.87,-0.14 -0.38,-0.45 m -0.37,-11.1 0.57,-0.14 0.79,0.39 0.23,0.54 -0.57,0.15 -0.79,-0.4 -0.23,-0.54 m 1.19,-0.15 -0.18,0.56 -0.76,0.46 -0.58,-0.1 0.18,-0.56 0.76,-0.46 0.58,0.1 m -1.76,-6.78 0.51,-0.29 0.87,0.19 0.36,0.46 -0.52,0.29 -0.87,-0.18 -0.35,-0.47 m 0.45,-0.35 0.48,0.33 0.24,0.85 -0.26,0.53 -0.48,-0.32 -0.24,-0.86 0.26,-0.53 m -1.53,23.03 0.56,0.17 0.47,0.75 -0.08,0.58 -0.57,-0.17 -0.47,-0.75 0.09,-0.58 m -0.16,1 0.46,-0.37 0.89,0.03 0.43,0.4 -0.46,0.37 -0.89,-0.03 -0.43,-0.4 m -4.87,-22.61 0.1,0.58 -0.46,0.75 -0.56,0.18 -0.1,-0.58 0.47,-0.75 0.55,-0.18 m -0.48,1.43 -0.16,-0.56 0.38,-0.81 0.53,-0.23 0.16,0.56 -0.37,0.8 -0.54,0.24 m -55.22,61.11 -0.56,-0.16 -0.49,-0.75 0.09,-0.58 0.56,0.16 0.48,0.75 -0.08,0.58 m -0.34,-0.09 -0.29,-0.5 0.16,-0.87 0.46,-0.37 0.3,0.51 -0.17,0.87 -0.46,0.36 m 58.8,-31.27 0.5,0.3 0.28,0.84 -0.22,0.54 -0.51,-0.3 -0.28,-0.84 0.23,-0.54 m 0.68,0.3 -0.19,0.56 -0.77,0.44 -0.57,-0.11 0.19,-0.56 0.77,-0.44 0.57,0.11 m 26.72,22.16 -0.59,0.02 -0.68,-0.57 -0.09,-0.58 0.58,-0.01 0.68,0.57 0.1,0.57 m -0.07,-0.84 -0.43,0.39 -0.89,0.02 -0.45,-0.37 0.43,-0.39 0.89,-0.03 0.45,0.38 m 5.4,5.78 -0.32,-0.5 0.13,-0.87 0.45,-0.39 0.31,0.5 -0.13,0.87 -0.44,0.39 m -0.39,-1.32 0.54,0.23 0.39,0.79 -0.14,0.57 -0.54,-0.23 -0.39,-0.79 0.14,-0.57 m 3.93,7.46 -0.59,0.03 -0.7,-0.55 -0.11,-0.57 0.59,-0.03 0.7,0.55 0.11,0.57 m -1.37,-0.54 0.55,-0.18 0.82,0.34 0.26,0.53 -0.56,0.18 -0.82,-0.35 -0.25,-0.52 m -62.72,42.61 0.56,-0.15 0.8,0.38 0.23,0.54 -0.57,0.15 -0.79,-0.38 -0.23,-0.54 m 1.46,0.48 -0.58,0.1 -0.75,-0.47 -0.18,-0.56 0.58,-0.09 0.76,0.46 0.17,0.56 m -44.08,-33.88 h 0.05 m 45.33,-83.83 -0.11,-0.58 0.46,-0.76 0.55,-0.19 0.11,0.58 -0.45,0.76 -0.56,0.19 m 1.1,-0.96 -0.49,0.33 -0.88,-0.09 -0.28,-0.31 m 0.86,-0.4 0.39,0.04 0.4,0.43 m -3.61,5.19 0.99,-0.23 0.49,0.32 -0.39,0.44 -0.88,0.11 -0.26,-0.17 m 0.15,0.19 0.29,-0.51 0.84,-0.29 0.54,0.22 -0.29,0.51 -0.84,0.29 -0.54,-0.22 m 63.97,50.33 -0.59,0.03 -0.7,-0.55 -0.11,-0.57 0.59,-0.03 0.7,0.55 0.11,0.57 m -0.21,-1.01 -0.28,0.51 -0.83,0.32 -0.55,-0.2 0.28,-0.52 0.82,-0.32 0.56,0.21 m -14.79,4.3 -0.58,0.05 -0.72,-0.52 -0.13,-0.57 0.58,-0.05 0.72,0.52 0.13,0.57 m -0.94,0.12 0.02,-0.59 0.59,-0.65 0.58,-0.07 -0.01,0.58 -0.6,0.66 -0.58,0.07 m 7.08,-2.44 -0.41,0.41 -0.89,0.06 -0.47,-0.36 0.42,-0.41 0.89,-0.06 0.46,0.36 m -1.4,0.49 0.31,-0.5 0.85,-0.26 0.54,0.24 -0.31,0.5 -0.85,0.26 -0.54,-0.24 m -44.36,-51.97 -0.41,0.41 -0.89,0.07 -0.47,-0.35 0.42,-0.41 0.88,-0.07 0.47,0.35 m -1.55,-0.07 0.59,-0.06 0.73,0.5 0.14,0.57 -0.58,0.06 -0.73,-0.5 -0.15,-0.57 m 63.62,72.9 0.4,0.43 0.04,0.89 -0.36,0.46 -0.41,-0.43 -0.03,-0.89 0.36,-0.46 m -0.22,0.27 0.38,0.44 -0.01,0.89 -0.39,0.44 -0.38,-0.45 0.01,-0.89 0.39,-0.43 m -0.6,-10.36 -0.49,0.32 -0.88,-0.12 -0.38,-0.44 0.49,-0.32 0.87,0.12 0.39,0.44 m -1.13,-0.75 0.37,0.45 -0.01,0.89 -0.39,0.44 -0.38,-0.45 0.02,-0.89 0.39,-0.44 m -101.42,-2.03 0.39,0.44 0.01,0.89 -0.38,0.44 -0.39,-0.44 -0.01,-0.88 0.38,-0.45 m -0.02,0.21 0.2,0.55 -0.31,0.83 -0.52,0.28 -0.2,-0.55 0.31,-0.83 0.52,-0.28 m 47.36,-66.09 h -0.59 l -0.67,-0.58 -0.08,-0.58 0.58,-0.01 0.68,0.58 0.08,0.59 m -0.64,-1.26 0.15,0.57 -0.38,0.8 -0.54,0.23 -0.15,-0.57 0.38,-0.8 0.54,-0.23 m 5.07,6.86 0.58,-0.09 0.76,0.47 0.17,0.56 -0.58,0.09 -0.75,-0.47 -0.18,-0.56 m 1.18,1 -0.49,-0.33 -0.23,-0.86 0.25,-0.52 0.49,0.32 0.23,0.86 -0.25,0.53 m -60.15,61.33 -0.56,0.19 -0.82,-0.33 -0.27,-0.52 0.56,-0.19 0.82,0.33 0.27,0.52 m -0.44,0.23 -0.47,-0.36 -0.17,-0.87 0.29,-0.51 0.47,0.36 0.17,0.87 -0.29,0.51 m -6.15,-7.02 0.15,-0.57 0.73,-0.5 0.58,0.06 -0.15,0.57 -0.73,0.5 -0.58,-0.06 m 1.1,-1.07 -0.16,0.57 -0.74,0.48 -0.58,-0.07 0.16,-0.57 0.74,-0.49 0.58,0.08 m 69.58,-60.46 0.58,0.04 0.64,0.61 0.05,0.59 -0.58,-0.04 -0.64,-0.61 -0.05,-0.59 m 0.61,1.3 -0.16,-0.57 0.38,-0.8 0.54,-0.24 0.16,0.57 -0.38,0.8 -0.54,0.24 m 7.14,5.31 -0.33,-0.49 0.11,-0.88 0.43,-0.39 0.33,0.49 -0.11,0.88 -0.43,0.39 m 0.73,-0.62 -0.59,-0.05 -0.62,-0.63 -0.03,-0.59 0.58,0.05 0.62,0.63 0.04,0.59 m -9.31,-12.42 0.07,0.58 -0.5,0.73 -0.57,0.15 -0.07,-0.58 0.5,-0.73 0.57,-0.15 m -0.83,1.32 0.12,-0.58 0.7,-0.54 0.58,0.03 -0.11,0.58 -0.7,0.54 -0.59,-0.03 m -6.19,-1.6 -0.55,-0.19 -0.43,-0.72 m 0.56,-0.46 0.53,0.79 -0.11,0.58 m -0.41,-0.09 -0.21,-0.55 0.29,-0.81 m 0.08,-0.06 0.45,-0.25 0.21,0.55 -0.31,0.83 -0.51,0.29 m -31.4,67.41 -0.45,0.38 -0.89,-0.02 -0.43,-0.39 0.45,-0.38 0.89,0.02 0.43,0.39 m -0.59,-0.62 -0.08,0.58 -0.67,0.58 h -0.59 l 0.08,-0.58 0.67,-0.58 h 0.59 m 54.72,-63.53 -0.23,-0.54 0.27,-0.84 0.51,-0.31 0.22,0.54 -0.27,0.85 -0.5,0.3 m -0.4,-0.78 0.54,-0.23 0.84,0.28 0.3,0.5 -0.54,0.23 -0.84,-0.28 -0.3,-0.5 m -0.49,20.76 -0.22,-0.54 0.29,-0.84 0.5,-0.29 0.22,0.54 -0.29,0.84 -0.5,0.29 m -0.36,-0.63 0.48,-0.34 0.88,0.09 0.4,0.43 -0.47,0.33 -0.89,-0.09 -0.4,-0.42 m 3.53,-7.7 0.03,-0.59 0.62,-0.64 0.58,-0.05 -0.03,0.59 -0.61,0.63 -0.59,0.06 m 1.2,-0.29 -0.57,-0.14 -0.52,-0.72 0.05,-0.58 0.57,0.13 0.52,0.72 -0.05,0.59 M 261.54,51.77 262,51.4 l 0.89,0.03 0.43,0.4 -0.46,0.37 -0.89,-0.03 -0.43,-0.4 m 1.1,0.67 -0.34,-0.47 0.08,-0.89 0.42,-0.4 0.34,0.48 -0.08,0.88 -0.42,0.4 m 4.51,115.31 -0.15,0.56 -0.74,0.5 -0.58,-0.08 0.15,-0.56 0.74,-0.5 0.58,0.08 m -0.15,0.84 -0.58,-0.14 -0.52,-0.72 0.05,-0.58 0.58,0.13 0.52,0.72 -0.05,0.59 m 7.81,-59.83 0.2,0.55 -0.33,0.83 -0.52,0.27 -0.19,-0.55 0.32,-0.83 0.52,-0.27 m -0.93,1.12 0.42,-0.4 0.89,-0.05 0.46,0.36 -0.42,0.41 -0.89,0.04 -0.46,-0.36 m -10,1.19 -0.24,-0.53 0.25,-0.85 0.49,-0.32 0.24,0.53 -0.25,0.85 -0.49,0.32 m -0.14,-0.3 0.18,-0.56 0.76,-0.46 0.57,0.1 -0.18,0.56 -0.75,0.46 -0.58,-0.1 m -27.37,71.76 0.37,-0.46 0.88,-0.15 0.5,0.3 -0.37,0.46 -0.87,0.15 -0.51,-0.3 m 0.28,0.16 0.41,-0.42 0.88,-0.07 0.48,0.34 -0.41,0.42 -0.89,0.08 -0.47,-0.35 m 32.49,-84.15 -0.44,-0.39 -0.12,-0.87 0.32,-0.49 0.44,0.38 0.12,0.88 -0.32,0.49 m -0.34,-0.24 0.01,-0.58 0.6,-0.66 0.58,-0.07 -0.01,0.59 -0.6,0.65 -0.58,0.07 m 4.68,-9.6 -0.52,0.26 -0.86,-0.22 -0.34,-0.48 0.53,-0.26 0.86,0.22 0.33,0.48 m -1.53,-0.23 0.56,-0.17 0.81,0.36 0.25,0.53 -0.56,0.17 -0.81,-0.36 -0.25,-0.53 m 36.13,42.75 0.33,0.48 -0.11,0.88 -0.43,0.4 -0.33,-0.48 0.1,-0.89 0.44,-0.39 m -0.01,0.21 0.1,0.58 -0.47,0.76 -0.56,0.17 -0.09,-0.58 0.46,-0.75 0.56,-0.18 m -3.69,-8.49 -0.03,-0.59 0.54,-0.7 0.57,-0.12 0.04,0.59 -0.55,0.7 -0.57,0.12 m 1.21,-0.79 -0.53,0.25 -0.85,-0.25 -0.32,-0.49 0.53,-0.24 0.85,0.24 0.32,0.49 m 8.5,3.76 0.17,0.57 -0.37,0.8 -0.53,0.25 -0.17,-0.56 0.37,-0.81 0.53,-0.25 m 0.28,0.62 -0.48,0.33 -0.88,-0.1 -0.4,-0.44 0.49,-0.33 0.88,0.11 0.39,0.43 m -20.34,-4.36 -0.53,0.26 -0.86,-0.24 -0.32,-0.49 0.53,-0.25 0.85,0.24 0.33,0.48 m -1.47,0.06 0.43,-0.4 0.89,-0.04 0.46,0.37 -0.43,0.4 -0.89,0.03 -0.46,-0.36 m -3.53,-10.93 -0.02,-0.58 0.56,-0.69 0.58,-0.1 0.02,0.58 -0.56,0.69 -0.58,0.1 m 1.05,-0.22 -0.53,-0.26 -0.35,-0.81 0.17,-0.56 0.53,0.25 0.36,0.82 -0.18,0.56 m -3.21,-6.37 -0.44,-0.4 -0.1,-0.88 0.33,-0.48 0.43,0.39 0.11,0.88 -0.33,0.49 m -0.14,-0.21 -0.15,-0.57 0.39,-0.79 0.54,-0.23 0.15,0.57 -0.39,0.79 -0.54,0.23 m -5.17,6.55 0.17,0.57 -0.36,0.81 -0.53,0.25 -0.17,-0.57 0.36,-0.81 0.53,-0.25 m 0.23,1.13 -0.57,-0.1 -0.56,-0.69 0.02,-0.59 0.58,0.11 0.56,0.69 -0.03,0.58 m -26.17,69.86 -0.46,0.37 -0.88,-0.04 -0.43,-0.4 0.46,-0.37 0.89,0.04 0.42,0.4 m -0.4,0.44 -0.52,-0.26 -0.34,-0.82 0.18,-0.56 0.52,0.26 0.34,0.82 -0.18,0.56 m -78.16,-44.56 0.49,-0.31 0.88,0.13 0.38,0.44 -0.5,0.32 -0.87,-0.13 -0.38,-0.45 m 0.54,-0.46 0.43,0.4 0.1,0.88 -0.34,0.49 -0.43,-0.4 -0.09,-0.88 0.33,-0.49 m 2.8,6.66 0.11,0.38 m -0.72,0.03 0.61,-0.41 m -1.13,0.43 -0.16,-0.37 0.57,-0.15 0.83,0.47 m 84.29,43.99 0.48,-0.34 0.88,0.09 0.41,0.43 -0.48,0.34 -0.89,-0.09 -0.4,-0.43 m 0.9,-0.59 0.16,0.57 -0.36,0.8 -0.54,0.25 -0.16,-0.57 0.37,-0.8 0.53,-0.25 m -0.65,-5.69 0.57,0.13 0.53,0.71 -0.05,0.58 -0.57,-0.13 -0.53,-0.71 0.05,-0.58 m 0.82,0.1 -0.08,0.58 -0.68,0.58 h -0.58 l 0.08,-0.58 0.67,-0.58 h 0.59 m -30,7.61 -0.47,-0.35 -0.19,-0.87 0.28,-0.51 0.47,0.35 0.19,0.86 -0.28,0.52 m -0.29,-1.53 0.26,0.52 -0.22,0.86 -0.48,0.34 -0.26,-0.53 0.22,-0.86 0.48,-0.33 m 12.43,5.82 -0.55,0.21 -0.83,-0.31 -0.28,-0.52 0.55,-0.2 0.83,0.31 0.28,0.51 m -1.17,-0.89 0.44,0.39 0.11,0.88 -0.32,0.49 -0.44,-0.39 -0.11,-0.88 0.32,-0.49 m -5.5,5.27 -0.47,0.35 -0.89,-0.07 -0.41,-0.42 0.48,-0.35 0.88,0.07 0.41,0.42 m -1.23,-0.65 0.44,0.39 0.11,0.88 -0.32,0.49 -0.44,-0.39 -0.11,-0.88 0.32,-0.49 m 41.28,-129.37 -0.08,0.58 -0.68,0.57 h -0.58 l 0.08,-0.58 0.68,-0.58 0.58,0.01 m -0.57,-0.09 0.09,0.58 -0.47,0.75 -0.56,0.17 -0.09,-0.58 0.47,-0.75 0.56,-0.17 m -10.96,14.03 0.49,-0.31 0.88,0.12 0.38,0.44 -0.49,0.32 -0.88,-0.12 -0.38,-0.45 m 0.44,0.64 0.23,-0.54 0.79,-0.39 0.57,0.14 -0.23,0.55 -0.79,0.39 -0.57,-0.15 m 5.38,-3.43 0.38,0.45 v 0.88 l -0.39,0.44 -0.38,-0.44 v -0.89 l 0.39,-0.44 m -0.64,1.12 0.47,-0.36 0.88,0.05 0.42,0.41 -0.47,0.36 -0.88,-0.05 -0.42,-0.41 m 9.56,14.8 -0.51,-0.29 -0.28,-0.84 0.22,-0.55 0.5,0.3 0.29,0.84 -0.22,0.54 m 0.39,-0.82 -0.56,0.16 -0.81,-0.37 -0.24,-0.53 0.56,-0.16 0.81,0.37 0.24,0.53 m 8.6,9.48 0.53,0.25 0.35,0.82 -0.17,0.56 -0.53,-0.26 -0.35,-0.81 0.17,-0.56 m 0.29,0.14 0.23,0.54 -0.26,0.85 -0.5,0.3 -0.24,-0.54 0.27,-0.84 0.5,-0.31 m -4.5,-6.22 0.26,-0.52 0.83,-0.33 0.55,0.19 -0.27,0.52 -0.82,0.33 -0.55,-0.19 m 1.43,-0.04 -0.58,-0.08 -0.59,-0.66 v -0.59 l 0.58,0.08 0.58,0.66 0.01,0.59 m -11.24,7.05 0.14,-0.57 0.71,-0.52 0.59,0.06 -0.14,0.57 -0.72,0.51 -0.58,-0.05 m 1.2,-0.04 -0.52,-0.27 -0.34,-0.82 0.19,-0.55 0.52,0.26 0.34,0.82 -0.19,0.56 m -93.25,28.7 0.09,-0.58 0.67,-0.58 h 0.59 l -0.09,0.58 -0.67,0.58 h -0.59 m 0.54,-1.24 0.29,0.51 -0.18,0.87 -0.46,0.35 -0.29,-0.51 0.17,-0.87 0.47,-0.35 m -8.38,-4.5 0.27,-0.52 0.83,-0.33 0.55,0.2 -0.27,0.52 -0.82,0.32 -0.56,-0.19 m 1.5,-0.38 -0.54,0.22 -0.84,-0.28 -0.3,-0.51 0.54,-0.22 0.84,0.28 0.3,0.51 m 53.31,67.24 0.3,0.5 -0.15,0.87 -0.45,0.38 -0.3,-0.51 0.15,-0.87 0.45,-0.37 m -0.67,0.45 0.54,0.21 0.42,0.78 -0.14,0.58 -0.54,-0.22 -0.42,-0.78 0.14,-0.57 m -28.1,-24.2 0.31,0.5 -0.13,0.87 -0.44,0.39 -0.32,-0.5 0.13,-0.88 0.45,-0.38 m -0.76,1.13 0.45,-0.37 0.89,0.02 0.43,0.4 -0.45,0.37 -0.89,-0.03 -0.43,-0.39 m 67.5,-69.19 0.23,-0.54 0.79,-0.4 0.57,0.15 -0.23,0.54 -0.8,0.39 -0.56,-0.14 m 0.46,-0.98 0.43,0.39 0.1,0.89 -0.33,0.48 -0.43,-0.4 -0.1,-0.88 0.33,-0.48 m -97.69,30.62 -0.51,-0.28 -0.31,-0.83 0.21,-0.55 0.51,0.28 0.31,0.83 -0.21,0.55 m -0.16,-0.17 -0.3,-0.51 0.17,-0.87 0.46,-0.36 0.29,0.5 -0.16,0.87 -0.46,0.37 m 141.19,5.12 0.03,0.58 -0.54,0.71 -0.58,0.11 -0.03,-0.58 0.54,-0.71 0.58,-0.11 m -0.07,0.22 -0.26,0.52 -0.83,0.33 -0.55,-0.19 0.27,-0.52 0.82,-0.33 0.55,0.19 m -4.9,-16.66 -0.44,-0.39 -0.12,-0.87 0.32,-0.5 0.44,0.39 0.12,0.88 -0.32,0.49 m 0.5,-1.14 -0.44,0.38 h -0.89 l -0.44,-0.38 0.44,-0.39 h 0.89 l 0.44,0.39 m 6.41,25.51 -0.57,-0.15 -0.49,-0.74 0.07,-0.58 0.56,0.16 0.5,0.73 -0.07,0.58 m -1.17,-0.68 0.54,-0.22 0.84,0.29 0.3,0.5 -0.55,0.22 -0.84,-0.29 -0.29,-0.5 m 4.52,-11.7 -0.11,0.58 -0.7,0.54 -0.59,-0.03 0.12,-0.58 0.7,-0.54 0.58,0.03 m -0.1,0.24 -0.41,0.41 -0.89,0.06 -0.47,-0.35 0.42,-0.41 0.88,-0.06 0.47,0.35 m -11.56,9.3 0.57,0.12 0.55,0.7 -0.03,0.58 -0.58,-0.11 -0.54,-0.7 0.03,-0.59 m 0.3,1.33 0.03,-0.58 0.62,-0.64 0.59,-0.05 -0.04,0.59 -0.62,0.63 -0.58,0.05 m 3.72,5.28 -0.18,0.56 -0.75,0.47 -0.58,-0.1 0.17,-0.56 0.76,-0.46 0.58,0.09 m -0.22,0.06 -0.34,0.48 -0.86,0.21 -0.52,-0.26 0.34,-0.48 0.86,-0.22 0.52,0.27 m 13.8,-16.25 -0.44,0.38 -0.89,-0.01 -0.44,-0.39 0.45,-0.38 0.89,0.01 0.43,0.39 m -1.04,-0.67 0.3,0.5 -0.15,0.88 -0.45,0.37 -0.3,-0.5 0.15,-0.88 0.45,-0.37 m 1.51,10.71 -0.58,0.09 -0.74,-0.48 -0.17,-0.57 0.58,-0.08 0.75,0.48 0.16,0.56 m -0.23,-0.92 -0.31,0.5 -0.84,0.27 -0.54,-0.23 0.3,-0.5 0.85,-0.27 0.54,0.23 m -44.04,-56.24 0.44,0.39 0.13,0.88 -0.32,0.49 -0.44,-0.39 -0.13,-0.87 0.32,-0.5 m 0.64,0.45 -0.31,0.49 -0.85,0.26 -0.54,-0.24 0.32,-0.5 0.85,-0.25 0.53,0.24 m -66.78,107.26 0.25,-0.53 0.81,-0.37 0.56,0.17 -0.25,0.53 -0.81,0.37 -0.56,-0.17 m 1.23,0.16 -0.49,-0.32 -0.23,-0.86 0.25,-0.53 0.49,0.33 0.23,0.86 -0.25,0.52 m -11.28,-11.19 -0.56,-0.18 -0.45,-0.76 0.09,-0.58 0.56,0.18 0.46,0.76 -0.1,0.58 m -1.06,-0.46 0.42,-0.41 0.88,-0.05 0.47,0.35 -0.42,0.41 -0.88,0.06 -0.47,-0.36 m -33.13,-39.33 0.4,0.43 0.02,0.89 -0.34,0.41 m -0.07,0 -0.36,-0.39 -0.02,-0.89 0.37,-0.45 m 0.57,1.29 -0.56,-0.19 -0.44,-0.77 0.1,-0.58 0.56,0.19 0.44,0.77 -0.1,0.58 m 104.89,-69.33 -0.59,0.05 -0.72,-0.51 -0.14,-0.57 0.58,-0.05 0.73,0.51 0.14,0.57 m -0.96,0.12 0.03,-0.59 0.61,-0.64 0.58,-0.06 -0.03,0.59 -0.61,0.64 -0.58,0.06 m 3.77,5.82 0.11,-0.58 0.69,-0.55 0.58,0.02 -0.1,0.58 -0.69,0.55 -0.59,-0.02 m 1.19,-1.01 -0.29,0.51 -0.84,0.29 -0.54,-0.22 0.29,-0.51 0.84,-0.29 0.54,0.22 m -1.56,-21.43 -0.58,-0.02 -0.65,-0.61 -0.06,-0.58 0.58,0.02 0.65,0.61 0.06,0.58 m -0.79,-1.26 0.29,0.51 -0.17,0.87 -0.46,0.36 -0.29,-0.51 0.17,-0.87 0.46,-0.36 m -3.34,39.3 -0.05,0.59 -0.64,0.61 -0.59,0.03 0.06,-0.58 0.64,-0.62 0.58,-0.03 m -1.24,0.32 0.58,0.08 0.57,0.68 v 0.58 l -0.58,-0.08 -0.58,-0.68 0.01,-0.58 m -111.31,31.26 0.55,-0.2 0.83,0.32 0.28,0.52 -0.56,0.2 -0.82,-0.32 -0.28,-0.52 m 0.19,0.53 0.47,-0.34 0.88,0.08 0.41,0.42 -0.47,0.34 -0.89,-0.08 -0.4,-0.42 m 14.62,-9.07 -0.27,0.53 -0.82,0.33 -0.54,-0.19 m 1.27,-0.79 0.36,0.12 m -0.69,0.09 -0.3,0.94 -0.53,0.26 -0.17,-0.58 m 102.45,44.82 0.58,-0.03 0.71,0.54 0.11,0.58 -0.58,0.03 -0.71,-0.54 -0.11,-0.58 m 1.03,-0.04 -0.12,0.57 -0.7,0.54 -0.59,-0.03 0.12,-0.58 0.7,-0.54 0.59,0.04 m -1.68,-9.38 -0.02,-0.59 0.56,-0.68 0.58,-0.1 0.02,0.58 -0.56,0.69 -0.58,0.1 m 1.02,-0.19 -0.51,-0.29 -0.3,-0.84 0.22,-0.54 0.51,0.29 0.29,0.83 -0.21,0.55 m -2.95,22.83 0.57,-0.12 0.78,0.43 0.2,0.55 -0.57,0.12 -0.78,-0.43 -0.2,-0.55 m 1.44,0.53 -0.58,0.09 -0.75,-0.45 -0.18,-0.56 0.57,-0.1 0.76,0.46 0.18,0.56 m -5.46,8.48 0.41,-0.42 0.89,-0.06 0.47,0.35 -0.42,0.42 -0.88,0.06 -0.47,-0.35 m 0.24,-0.28 0.59,0.01 0.66,0.59 0.07,0.58 -0.58,-0.01 -0.66,-0.59 -0.08,-0.58 m -115.08,-48.25 -0.47,-0.18 m -0.37,-1.3 0.56,0.13 0.41,0.78 -0.13,0.57 m -0.74,-1.08 0.32,0.08 0.51,0.73 -0.06,0.58 -0.36,-0.09 m 6.62,-1.29 v -0.59 l 0.59,-0.67 0.58,-0.08 v 0.59 l -0.59,0.67 -0.58,0.08 m 0.91,-0.08 -0.42,-0.4 -0.1,-0.88 0.34,-0.48 0.43,0.4 0.09,0.88 -0.34,0.48 m 130.82,-42.98 -0.52,0.25 -0.86,-0.22 -0.33,-0.49 0.53,-0.25 0.85,0.22 0.33,0.49 m -0.69,-0.89 0.04,0.59 -0.54,0.71 -0.57,0.12 -0.04,-0.59 0.54,-0.7 0.57,-0.13 m 3.87,18.53 0.17,-0.56 0.75,-0.47 0.58,0.09 -0.17,0.56 -0.75,0.47 -0.58,-0.09 m 0.43,0.12 0.11,-0.57 0.69,-0.55 0.59,0.02 -0.11,0.58 -0.7,0.55 -0.58,-0.03 m 4.17,-8.83 0.19,-0.56 0.76,-0.45 0.58,0.11 -0.19,0.55 -0.76,0.45 -0.58,-0.1 m 0.58,0.2 -0.02,-0.59 0.56,-0.69 0.58,-0.1 0.02,0.59 -0.56,0.69 -0.58,0.1 m -105.33,71.35 -0.59,-0.03 -0.63,-0.62 -0.05,-0.59 0.59,0.04 0.63,0.62 0.05,0.58 m -0.17,-0.13 -0.51,-0.28 -0.32,-0.83 0.21,-0.55 0.51,0.28 0.32,0.83 -0.21,0.55 m 68.64,21.65 -0.58,0.12 -0.77,-0.43 -0.2,-0.55 0.57,-0.12 0.78,0.43 0.2,0.55 m -1.33,-0.81 0.56,0.17 0.47,0.74 -0.09,0.58 -0.56,-0.17 -0.47,-0.75 0.09,-0.57 m 7.27,-0.27 0.24,0.53 -0.24,0.85 -0.49,0.32 -0.24,-0.53 0.24,-0.85 0.49,-0.32 m 0.4,0.64 -0.48,0.34 -0.88,-0.07 -0.41,-0.43 0.48,-0.34 0.88,0.08 0.41,0.42 M 289.77,62.52 v 0.59 l -0.57,0.67 -0.58,0.09 -0.01,-0.59 0.58,-0.67 0.58,-0.09 m -1.23,0.86 0.49,-0.32 0.88,0.11 0.39,0.44 -0.48,0.32 -0.88,-0.11 -0.4,-0.44 m 4.92,5.55 -0.32,0.49 -0.85,0.25 -0.53,-0.24 0.31,-0.49 0.86,-0.25 0.53,0.24 m -0.43,0.78 -0.49,-0.33 -0.23,-0.85 0.25,-0.53 0.49,0.32 0.23,0.86 -0.25,0.53 m 26.83,51.1 -0.57,0.15 -0.8,-0.4 -0.22,-0.54 0.57,-0.14 0.79,0.39 0.23,0.54 m -0.68,-1.06 0.08,0.58 -0.49,0.74 -0.57,0.16 -0.07,-0.58 0.49,-0.74 0.56,-0.16 m -115.36,74.97 -0.11,0.57 -0.7,0.55 -0.58,-0.03 0.11,-0.58 0.7,-0.54 0.58,0.03 m -0.16,0.95 -0.55,-0.19 -0.43,-0.78 0.11,-0.57 0.56,0.2 0.43,0.77 -0.12,0.57 M 303,97.63 l -0.41,-0.43 -0.04,-0.88 0.36,-0.47 0.41,0.43 0.04,0.88 -0.36,0.47 m -0.44,-0.35 0.18,-0.55 0.77,-0.45 0.58,0.11 -0.19,0.55 -0.77,0.45 -0.57,-0.11 m -35.64,107.92 -0.01,-0.59 0.58,-0.67 0.58,-0.09 0.01,0.59 -0.58,0.67 -0.58,0.09 m -0.02,-1 0.58,0.11 0.54,0.7 -0.03,0.59 -0.57,-0.12 -0.55,-0.7 0.03,-0.58 m 16.58,-32.27 0.06,-0.59 0.65,-0.6 0.58,-0.02 -0.06,0.58 -0.65,0.6 -0.58,0.03 m 0.2,-1.12 0.5,0.31 0.28,0.84 -0.23,0.54 -0.51,-0.3 -0.27,-0.85 0.23,-0.54 m 11.86,-84.73 -0.28,-0.51 0.18,-0.87 0.47,-0.35 0.28,0.51 -0.18,0.87 -0.47,0.35 m -0.48,-0.75 0.52,-0.27 0.86,0.21 0.34,0.48 -0.52,0.26 -0.86,-0.2 -0.34,-0.48 m -4.62,-3.56 -0.45,0.38 -0.89,-0.03 -0.43,-0.4 0.45,-0.37 0.89,0.03 0.43,0.39 m -1.16,0.59 0.06,-0.58 0.66,-0.6 0.58,-0.01 -0.06,0.58 -0.66,0.6 -0.58,0.01 m -0.25,7.65 0.54,-0.24 0.85,0.25 0.32,0.49 -0.54,0.24 -0.85,-0.24 -0.32,-0.5 m 1.3,-0.26 -0.23,0.54 -0.8,0.38 -0.57,-0.15 0.23,-0.54 0.8,-0.38 0.57,0.15 m -46.92,115.35 -0.08,-0.19 0.57,-0.14 0.79,0.41 0.14,0.34 m -1.24,-0.37 0.46,-0.03 0.39,0.28 m 8.66,-4.64 -0.33,0.49 -0.85,0.22 -0.53,-0.25 0.33,-0.49 0.86,-0.23 0.52,0.26 m -0.43,0.76 -0.49,-0.33 -0.23,-0.85 0.25,-0.53 0.49,0.32 0.23,0.86 -0.25,0.53 m 68.65,-38.3 0.45,0.37 0.15,0.88 -0.31,0.5 -0.45,-0.37 -0.15,-0.88 0.31,-0.5 m 0.33,0.22 0.02,0.59 -0.56,0.69 -0.58,0.1 -0.02,-0.58 0.56,-0.69 0.58,-0.11 m 3.54,-5.03 0.59,-0.07 0.73,0.5 0.15,0.57 -0.58,0.07 -0.73,-0.5 -0.16,-0.57 m 0.07,0.58 0.53,-0.24 0.85,0.25 0.32,0.49 -0.53,0.24 -0.85,-0.24 -0.32,-0.5 m -16.43,-51.05 0.35,0.48 -0.09,0.88 -0.42,0.41 -0.34,-0.48 0.08,-0.88 0.42,-0.41 m 0.1,0.23 0.02,0.59 -0.54,0.7 -0.58,0.11 -0.03,-0.59 0.55,-0.7 0.58,-0.11 m 0.73,-12.26 0.41,-0.42 0.89,-0.08 0.47,0.35 -0.41,0.42 -0.88,0.07 -0.48,-0.34 m 0.31,-0.42 0.57,0.13 0.52,0.71 -0.04,0.59 -0.57,-0.13 -0.53,-0.71 0.05,-0.59 m 8.42,5.47 -0.13,0.58 -0.71,0.52 -0.59,-0.05 0.13,-0.57 0.72,-0.53 0.58,0.05 m -0.19,0.1 -0.32,0.49 -0.85,0.25 -0.53,-0.25 0.32,-0.49 0.85,-0.25 0.53,0.25 m -13.36,-9.85 0.39,-0.44 0.88,-0.11 0.49,0.33 -0.39,0.43 -0.88,0.11 -0.49,-0.32 m 0.23,-0.29 0.58,-0.03 0.7,0.56 0.1,0.57 -0.58,0.03 -0.7,-0.56 -0.1,-0.57 m 21.2,10.1 0.58,0.1 0.55,0.69 -0.02,0.59 -0.58,-0.1 -0.55,-0.7 0.02,-0.58 m 0.26,1.3 0.08,-0.58 0.68,-0.58 h 0.58 l -0.08,0.58 -0.68,0.58 h -0.58 m -2.39,-9.05 -0.54,0.23 -0.85,-0.26 -0.3,-0.5 0.54,-0.24 0.84,0.27 0.31,0.5 m -0.4,0.24 -0.5,-0.3 -0.29,-0.84 0.22,-0.54 0.51,0.29 0.29,0.84 -0.23,0.55 m -7.58,14.65 -0.24,0.54 -0.8,0.37 -0.57,-0.16 0.24,-0.53 0.8,-0.38 0.57,0.16 m -1.46,0.23 0.58,-0.05 0.72,0.52 0.13,0.57 -0.58,0.05 -0.72,-0.52 -0.13,-0.57 m 13.42,0.46 0.11,0.58 -0.45,0.76 -0.56,0.19 -0.1,-0.58 0.45,-0.76 0.55,-0.19 m 0.1,0.37 -0.35,0.47 -0.86,0.2 -0.52,-0.28 0.35,-0.47 0.86,-0.2 0.52,0.28 m -7.48,3.47 0.44,0.38 0.13,0.88 -0.32,0.49 -0.44,-0.38 -0.13,-0.88 0.32,-0.49 m -0.03,0.22 0.3,0.5 -0.15,0.88 -0.46,0.37 -0.3,-0.51 0.15,-0.87 0.46,-0.37 m -34.64,-38.85 -0.4,0.44 -0.88,0.11 -0.48,-0.33 0.39,-0.43 0.88,-0.12 0.49,0.33 m -0.37,-0.33 -0.31,0.5 -0.85,0.27 -0.53,-0.24 0.3,-0.5 0.85,-0.26 0.54,0.23 m -0.43,106.87 0.58,0.08 0.58,0.67 v 0.58 l -0.58,-0.08 -0.58,-0.67 v -0.58 m 1.22,0.9 -0.59,-0.03 -0.64,-0.61 -0.06,-0.58 0.59,0.02 0.64,0.62 0.06,0.58 m 3.55,10.07 0.57,0.15 0.51,0.72 -0.06,0.59 -0.57,-0.15 -0.51,-0.73 0.06,-0.58 m 1.1,1.06 -0.58,-0.12 -0.54,-0.7 0.04,-0.59 0.57,0.12 0.54,0.71 -0.03,0.58 m 40.4,-76.5 -0.28,0.52 -0.83,0.31 -0.55,-0.2 0.28,-0.51 0.82,-0.32 0.56,0.2 m -0.21,0.59 -0.59,-0.06 -0.6,-0.65 -0.03,-0.59 0.59,0.06 0.6,0.65 0.03,0.59 m -5.94,5.99 0.23,0.53 -0.27,0.85 -0.5,0.31 -0.23,-0.54 0.27,-0.85 0.5,-0.3 m 0.24,1.28 -0.54,-0.23 -0.39,-0.79 0.15,-0.57 0.54,0.23 0.39,0.79 -0.15,0.57 m -155.81,69.63 -0.45,-0.38 -0.14,-0.87 0.31,-0.5 0.45,0.37 0.14,0.88 -0.31,0.5 m 0.53,-0.95 -0.54,0.24 -0.84,-0.27 -0.31,-0.5 0.54,-0.23 0.84,0.27 0.31,0.49 m 15.02,-4.01 -0.58,-0.07 -0.59,-0.66 -0.01,-0.58 0.58,0.07 0.59,0.66 0.01,0.58 m 0.07,-0.81 -0.51,0.3 -0.87,-0.15 -0.37,-0.46 0.5,-0.3 0.88,0.16 0.37,0.45 m 97.02,-138.92 -0.44,0.39 -0.88,0.01 -0.45,-0.38 0.44,-0.39 0.88,-0.01 0.45,0.38 m -0.34,-0.4 -0.34,0.48 -0.87,0.21 -0.52,-0.28 0.35,-0.47 0.86,-0.21 0.52,0.27 m 4.4,7.14 0.27,-0.52 0.82,-0.34 0.56,0.19 -0.27,0.53 -0.82,0.33 -0.56,-0.19 m 0.93,0.33 -0.26,-0.52 0.21,-0.86 0.48,-0.34 0.27,0.53 -0.22,0.86 -0.48,0.33 m -71.35,127.79 0.44,-0.39 h 0.89 l 0.45,0.37 -0.44,0.39 -0.89,0.01 -0.45,-0.38 m 0.63,-0.63 0.38,0.45 -0.01,0.88 -0.39,0.44 -0.38,-0.45 0.01,-0.88 0.39,-0.44 m 44.52,19.21 0.41,0.42 0.06,0.88 -0.35,0.47 -0.41,-0.41 -0.06,-0.89 0.35,-0.47 m 0.56,0.43 -0.29,0.51 -0.84,0.29 -0.55,-0.22 0.3,-0.51 0.84,-0.28 0.54,0.21 m 12.64,1.17 0.19,-0.55 0.76,-0.46 0.58,0.1 -0.19,0.56 -0.76,0.46 -0.58,-0.11 m 1.17,0.09 -0.48,-0.34 -0.21,-0.86 0.27,-0.52 0.48,0.34 0.21,0.86 -0.27,0.52 m 58.72,-74.98 -0.04,0.59 -0.61,0.63 -0.58,0.06 0.03,-0.59 0.61,-0.64 0.59,-0.05 m 0.05,0.55 -0.53,0.25 -0.85,-0.23 -0.33,-0.49 0.53,-0.25 0.85,0.23 0.33,0.49 m 0.96,-5.06 -0.59,-0.02 -0.65,-0.6 -0.06,-0.59 0.59,0.02 0.65,0.61 0.06,0.58 m -0.89,0.03 0.03,-0.59 0.62,-0.63 0.59,-0.05 -0.04,0.58 -0.62,0.64 -0.58,0.05 m -2.71,-34.26 0.23,0.55 -0.28,0.84 -0.5,0.3 -0.23,-0.54 0.28,-0.85 0.5,-0.3 m -0.13,1.5 -0.29,-0.5 0.16,-0.87 0.46,-0.37 0.3,0.51 -0.17,0.87 -0.46,0.36 m -19.34,-1.65 -0.36,-0.45 0.03,-0.89 0.4,-0.43 0.36,0.46 -0.03,0.88 -0.4,0.43 m -0.5,-1.29 0.55,0.2 0.44,0.76 -0.11,0.58 -0.56,-0.19 -0.44,-0.77 0.12,-0.58 m 7.09,-4.08 -0.57,0.13 -0.78,-0.42 -0.21,-0.55 0.57,-0.13 0.78,0.42 0.21,0.55 m -0.2,-0.77 -0.39,0.44 -0.88,0.13 -0.49,-0.32 0.39,-0.44 0.87,-0.13 0.5,0.32 m 8.42,-1.86 -0.57,-0.14 -0.51,-0.72 0.05,-0.59 0.57,0.14 0.52,0.72 -0.06,0.59 m -0.8,-1.34 0.4,0.43 0.03,0.89 -0.37,0.46 -0.4,-0.44 -0.03,-0.88 0.37,-0.46 m 9.48,15.51 0.15,0.56 -0.38,0.8 -0.54,0.23 -0.15,-0.56 0.38,-0.8 0.54,-0.23 m 0.2,0.46 -0.4,0.43 -0.88,0.1 -0.48,-0.33 0.4,-0.43 0.88,-0.1 0.48,0.33 m 3.04,55.03 0.55,-0.21 0.83,0.3 0.28,0.51 -0.54,0.21 -0.84,-0.3 -0.28,-0.51 m 0.2,0.53 0.46,-0.36 0.89,0.05 0.42,0.41 -0.47,0.36 -0.88,-0.05 -0.42,-0.41 m -0.52,-6.37 0.35,0.47 -0.07,0.88 -0.42,0.42 -0.35,-0.48 0.07,-0.88 0.42,-0.41 m -0.73,0.73 0.59,-0.05 0.71,0.53 0.14,0.57 -0.59,0.05 -0.72,-0.53 -0.13,-0.57 m -43.72,-93.48 0.53,0.24 0.37,0.81 -0.17,0.56 -0.53,-0.24 -0.37,-0.81 0.17,-0.56 m -0.31,0.84 0.55,-0.2 0.83,0.3 0.29,0.51 -0.55,0.21 -0.84,-0.3 -0.28,-0.52 m -3.19,-6.89 -0.51,0.29 -0.87,-0.16 -0.36,-0.47 0.5,-0.29 0.87,0.17 0.37,0.46 m -0.24,-0.4 -0.46,0.36 -0.89,-0.04 -0.42,-0.41 0.46,-0.36 0.88,0.04 0.43,0.41 m 5.88,15.85 0.57,-0.14 0.78,0.41 0.22,0.55 -0.57,0.13 -0.79,-0.41 -0.21,-0.54 m 0.6,-0.24 0.32,0.49 -0.12,0.88 -0.44,0.38 -0.32,-0.49 0.12,-0.88 0.44,-0.38 m 6.56,-3 0.32,0.49 -0.1,0.88 -0.43,0.39 -0.33,-0.49 0.1,-0.88 0.44,-0.39 m -0.05,1.55 -0.23,-0.54 0.28,-0.84 0.51,-0.3 0.22,0.54 -0.28,0.84 -0.5,0.3 m 2.4,-6.52 -0.1,0.58 -0.68,0.57 -0.59,-0.02 0.1,-0.58 0.68,-0.56 0.59,0.01 m -1.35,0.67 0.53,-0.26 0.85,0.22 0.33,0.49 -0.52,0.26 -0.86,-0.23 -0.33,-0.48 m -2.16,-6.85 0.44,0.38 0.12,0.88 -0.32,0.49 -0.44,-0.38 -0.12,-0.88 0.32,-0.49 m 0.56,1.39 -0.5,-0.31 -0.26,-0.85 0.24,-0.54 0.49,0.31 0.26,0.85 -0.23,0.54 m 0.42,17.14 0.44,0.39 0.13,0.87 -0.31,0.5 -0.45,-0.38 -0.12,-0.88 0.31,-0.5 m 0.46,0.29 -0.12,0.58 -0.71,0.53 -0.58,-0.04 0.12,-0.57 0.71,-0.53 0.58,0.03 m 41.76,59.12 -0.57,-0.11 -0.55,-0.69 0.02,-0.59 0.58,0.11 0.55,0.7 -0.03,0.58 m -0.16,-0.13 -0.47,-0.36 -0.17,-0.87 0.29,-0.51 0.46,0.36 0.18,0.87 -0.29,0.51 m -0.14,7.74 -0.41,-0.42 -0.06,-0.88 0.36,-0.47 0.41,0.41 0.06,0.89 -0.36,0.47 m 0.62,-0.85 -0.57,0.15 -0.79,-0.39 -0.23,-0.54 0.56,-0.15 0.8,0.39 0.23,0.54 m -75.05,18.9 0.18,-0.55 0.76,-0.47 0.58,0.1 -0.18,0.56 -0.76,0.46 -0.58,-0.1 m 1.43,-0.55 -0.53,0.25 -0.85,-0.24 -0.33,-0.49 0.54,-0.25 0.85,0.24 0.32,0.49 m -0.13,-8.54 -0.01,0.59 -0.59,0.66 -0.59,0.07 0.02,-0.59 0.59,-0.65 0.58,-0.08 m -0.84,1.29 0.04,-0.58 0.62,-0.64 0.59,-0.04 -0.04,0.58 -0.62,0.63 -0.59,0.05 m 46.71,-66.31 -0.31,0.5 -0.84,0.26 -0.54,-0.23 0.31,-0.5 0.84,-0.27 0.54,0.24 m -0.6,0.89 -0.37,-0.45 0.02,-0.89 0.4,-0.43 0.37,0.45 -0.02,0.89 -0.4,0.43 m 19.13,8.29 -0.45,-0.91 0.07,-0.19 m 0.26,0.83 -0.22,0.23 -0.59,0.06 0.03,-0.59 0.51,-0.53 m -14.39,-12.01 0.06,-0.59 0.65,-0.6 0.59,-0.03 -0.06,0.59 -0.65,0.6 -0.59,0.03 m 1.27,-0.34 -0.58,-0.06 -0.61,-0.65 -0.03,-0.58 0.59,0.06 0.61,0.64 0.02,0.59 m -28.93,2.36 0.01,-0.58 0.58,-0.67 0.59,-0.08 -0.01,0.59 -0.59,0.66 -0.58,0.08 m 0.81,-0.02 -0.35,-0.47 0.07,-0.89 0.41,-0.41 0.35,0.47 -0.07,0.89 -0.41,0.41 m 42.32,30.34 -0.32,0.49 -0.85,0.25 -0.54,-0.24 0.32,-0.49 0.85,-0.25 0.54,0.24 m -1.41,-0.14 0.56,0.18 0.47,0.75 -0.09,0.58 -0.56,-0.17 -0.47,-0.76 0.09,-0.58 m 23.18,0.07 -0.65,-0.06 m 0.33,0.09 -0.06,-0.06 m 0.1,0.01 -0.04,0.05 m -9.97,5.03 0.51,-0.29 0.87,0.18 0.36,0.46 -0.52,0.29 -0.86,-0.18 -0.36,-0.46 m 0.37,0.63 0.29,-0.51 0.84,-0.29 0.54,0.21 -0.29,0.51 -0.83,0.3 -0.55,-0.22 m 8.44,-0.52 -0.48,0.33 -0.88,-0.11 -0.4,-0.43 0.49,-0.33 0.88,0.1 0.39,0.44 m -0.23,0.09 -0.59,0.01 -0.68,-0.57 -0.09,-0.58 0.58,-0.01 0.68,0.57 0.1,0.58 M 310.59,83.68 310,83.66 l -0.65,-0.61 -0.05,-0.58 0.58,0.02 0.65,0.61 0.06,0.58 m 0.02,-0.55 -0.57,0.13 -0.78,-0.41 -0.21,-0.55 0.57,-0.13 0.78,0.42 0.21,0.54 m -5.43,-6.48 0.56,0.18 0.47,0.75 -0.09,0.58 -0.56,-0.17 -0.47,-0.76 0.09,-0.58 m -0.17,0.54 0.59,0.01 0.66,0.59 0.07,0.59 -0.59,-0.02 -0.66,-0.59 -0.07,-0.58 m 4.42,-8.62 0.59,-0.02 0.68,0.57 0.1,0.57 -0.59,0.02 -0.68,-0.57 -0.1,-0.57 m 1.35,0.45 -0.52,0.27 -0.86,-0.21 -0.34,-0.48 0.52,-0.27 0.86,0.21 0.34,0.48 m 5.96,-3.1 -0.58,-0.09 -0.58,-0.67 v -0.58 l 0.58,0.08 0.58,0.67 v 0.59 m -0.33,-1.3 -0.04,0.59 -0.63,0.62 -0.59,0.04 0.05,-0.59 0.63,-0.62 0.58,-0.04 m -3.04,-6.32 -0.29,0.25 -0.29,-0.66 m 0.67,0.6 -0.67,-0.3 -0.18,-0.39 m 41.3,74.15 -0.48,-0.33 -0.22,-0.86 0.26,-0.52 0.48,0.33 0.22,0.86 -0.26,0.52 m -0.39,-1.51 0.31,0.5 -0.13,0.88 -0.44,0.38 -0.32,-0.5 0.13,-0.87 0.45,-0.39 m 0.86,8.01 -0.21,-0.55 0.31,-0.83 0.51,-0.28 0.21,0.55 -0.31,0.83 -0.51,0.28 m 0.81,-1.28 -0.3,0.51 -0.84,0.28 -0.54,-0.23 0.3,-0.5 0.84,-0.28 0.54,0.22 m -8.83,-18.5 -0.01,0.04 m 0.09,0.24 -0.12,0.01 m 0.04,-0.34 0.08,0.33 m -0.02,28.68 -0.52,0.26 -0.86,-0.21 -0.34,-0.49 0.53,-0.26 0.86,0.22 0.33,0.48 m -0.19,-0.28 -0.54,0.23 -0.84,-0.28 -0.3,-0.5 0.54,-0.23 0.84,0.28 0.3,0.5 m 9.21,2.11 -0.48,-0.34 -0.21,-0.86 0.27,-0.53 0.47,0.34 0.22,0.86 -0.27,0.53 m 0.46,-0.94 -0.54,0.24 -0.85,-0.26 -0.31,-0.5 0.54,-0.23 0.85,0.26 0.31,0.49 m -7.26,4.45 0.38,-0.44 0.88,-0.13 0.49,0.32 -0.38,0.44 -0.88,0.13 -0.49,-0.32 m 0.24,0.11 0.46,-0.36 0.89,0.05 0.42,0.41 -0.47,0.35 -0.88,-0.05 -0.42,-0.4 m -36.62,29.47 -0.02,-0.59 0.56,-0.69 0.58,-0.1 0.02,0.59 -0.56,0.68 -0.58,0.11 m 0.51,-1.36 0.22,0.54 -0.29,0.84 -0.5,0.29 -0.22,-0.54 0.28,-0.84 0.51,-0.29 m -3.2,14.93 -0.5,-0.31 -0.27,-0.84 0.23,-0.54 0.5,0.3 0.27,0.85 -0.23,0.54 m 0.29,-0.48 -0.56,-0.15 -0.49,-0.74 0.07,-0.58 0.56,0.15 0.5,0.74 -0.08,0.58 m -156.97,-1.77 0.31,-0.32 0.36,0.51 m 0.19,0.04 -0.01,0.01 m -1,-0.28 0.52,-0.06 0.49,0.33 m 213.44,-76.69 -0.37,0.46 -0.87,0.16 -0.5,-0.3 0.36,-0.46 0.88,-0.16 0.5,0.3 m -0.36,0.6 -0.54,-0.23 -0.39,-0.8 0.16,-0.56 0.54,0.23 0.38,0.8 -0.15,0.56 m -69.44,51.75 -0.52,-0.25 -0.35,-0.82 0.17,-0.56 0.53,0.26 0.35,0.81 -0.18,0.56 m 0.26,-0.51 -0.58,-0.09 -0.58,-0.68 0.01,-0.58 0.58,0.09 0.57,0.67 v 0.59 m 1.8,12.33 0.58,0.07 0.59,0.67 0.01,0.58 -0.58,-0.07 -0.59,-0.67 -0.01,-0.58 m 1.14,0.27 -0.35,0.47 -0.87,0.18 -0.51,-0.29 0.35,-0.46 0.87,-0.18 0.51,0.28 m 2.32,-7.45 0.5,-0.32 0.88,0.13 0.38,0.44 -0.49,0.32 -0.88,-0.13 -0.39,-0.44 m 1.19,0.73 -0.41,-0.42 -0.07,-0.88 0.36,-0.47 0.41,0.41 0.06,0.89 -0.35,0.47 m 13.09,2.26 -0.28,-0.51 0.2,-0.87 0.48,-0.34 0.27,0.52 -0.2,0.86 -0.47,0.34 m 0.75,-1.25 -0.36,0.47 -0.86,0.18 -0.52,-0.28 0.36,-0.47 0.87,-0.18 0.51,0.28 m 7.24,2.18 -0.58,-0.12 -0.54,-0.7 0.04,-0.59 0.57,0.12 0.54,0.7 -0.03,0.59 m -1.08,-1.12 0.55,0.2 0.43,0.78 -0.12,0.57 -0.55,-0.2 -0.43,-0.77 0.12,-0.58 m -56.73,-72.14 -0.57,-0.14 -0.5,-0.74 0.07,-0.58 0.57,0.15 0.5,0.73 -0.07,0.58 m -0.88,-1.28 0.46,0.36 0.18,0.87 -0.29,0.51 -0.47,-0.36 -0.17,-0.87 0.29,-0.51 m 100.32,8.02 -0.52,-0.27 -0.34,-0.82 0.18,-0.55 0.22,0.11 m 0.39,0.36 0.26,0.61 -0.19,0.56 m -0.97,-0.57 0.46,-0.37 0.63,0.01 m 0.37,0.66 -1.02,0.09 -0.44,-0.39 m -12.63,12.73 0.4,-0.43 0.88,-0.09 0.48,0.34 -0.4,0.43 -0.88,0.09 -0.48,-0.34 m 0.38,0.37 0.3,-0.51 0.83,-0.3 0.55,0.22 -0.29,0.51 -0.84,0.29 -0.55,-0.21 m -83.61,-64.28 0.4,0.44 0.02,0.88 -0.38,0.46 -0.39,-0.44 -0.02,-0.89 0.37,-0.45 m -0.14,1.54 -0.04,-0.58 0.54,-0.7 0.58,-0.12 0.03,0.59 -0.54,0.7 -0.57,0.11 m 69.64,69.05 -0.36,-0.46 0.04,-0.88 0.4,-0.43 0.36,0.46 -0.04,0.89 -0.4,0.42 m 0.01,-1.56 0.2,0.55 -0.31,0.83 -0.52,0.28 -0.2,-0.55 0.32,-0.83 0.51,-0.28 m -6.18,37.27 0.4,0.42 0.03,0.89 -0.36,0.46 -0.4,-0.43 -0.04,-0.89 0.37,-0.45 m 0.61,1.23 -0.57,-0.14 -0.52,-0.72 0.06,-0.58 0.57,0.14 0.51,0.72 -0.05,0.58 m -9.87,32.98 0.24,-0.54 0.8,-0.37 0.56,0.16 -0.23,0.53 -0.81,0.38 -0.56,-0.16 m 0.18,-0.11 0.44,-0.39 h 0.89 l 0.44,0.39 -0.44,0.38 h -0.89 l -0.44,-0.38 m 1.52,-29.08 -0.56,-0.19 -0.44,-0.76 0.1,-0.58 0.56,0.19 0.45,0.77 -0.11,0.57 m -0.44,-1.44 0.17,0.56 -0.35,0.82 -0.53,0.25 -0.18,-0.56 0.36,-0.81 0.53,-0.26 m 19.43,18.97 -0.1,-0.57 0.46,-0.76 0.56,-0.18 0.1,0.58 -0.46,0.75 -0.56,0.18 m 0.43,-1.43 0.2,0.55 -0.31,0.83 -0.52,0.28 -0.2,-0.55 0.32,-0.83 0.51,-0.28 m -3.02,-19.75 -0.59,0.04 -0.7,-0.54 -0.13,-0.57 0.59,-0.04 0.71,0.53 0.12,0.58 m -0.9,0.11 -0.01,-0.58 0.56,-0.69 0.58,-0.09 0.01,0.58 -0.56,0.69 -0.58,0.09 m 4.77,-10.05 0.08,0.58 -0.47,0.75 -0.56,0.17 -0.09,-0.58 0.47,-0.75 0.57,-0.17 m -0.94,1.25 0.25,-0.53 0.81,-0.36 0.56,0.17 -0.24,0.53 -0.81,0.36 -0.57,-0.17 m 6.33,3.56 0.18,-0.56 0.76,-0.46 0.58,0.1 -0.18,0.56 -0.76,0.46 -0.58,-0.1 m 1.37,-0.75 -0.43,0.4 -0.89,0.04 -0.45,-0.37 0.42,-0.4 0.89,-0.04 0.46,0.37 m 2.54,-5.93 0.53,-0.26 0.85,0.24 0.33,0.48 -0.53,0.26 -0.85,-0.24 -0.33,-0.48 m 0.93,0.9 -0.24,-0.54 0.26,-0.84 0.5,-0.31 0.23,0.53 -0.25,0.85 -0.5,0.31 m -44.81,-80.33 -0.06,-0.58 0.5,-0.73 0.57,-0.14 0.06,0.58 -0.5,0.73 -0.57,0.14 m 0.41,-0.06 -0.1,-0.57 0.46,-0.76 0.56,-0.18 0.1,0.58 -0.46,0.75 -0.56,0.18 m 41.74,40.88 -0.47,0.35 -0.89,-0.07 -0.41,-0.42 0.47,-0.35 0.89,0.07 0.41,0.42 m -0.32,-0.44 -0.37,0.46 -0.87,0.15 -0.51,-0.3 0.37,-0.46 0.88,-0.15 0.5,0.3 m 7.38,0.55 -0.4,0.43 -0.88,0.1 -0.48,-0.33 0.4,-0.43 0.88,-0.1 0.48,0.33 m -0.21,0.16 -0.57,0.13 -0.78,-0.42 -0.21,-0.54 0.57,-0.14 0.78,0.42 0.21,0.55 m 3.31,9.53 -0.34,0.48 -0.87,0.2 -0.51,-0.28 0.34,-0.47 0.87,-0.2 0.51,0.27 m -0.28,0.55 -0.57,-0.14 -0.52,-0.71 0.04,-0.59 0.58,0.14 0.52,0.71 -0.05,0.59 m -2.53,34.24 0.17,0.56 -0.36,0.81 -0.53,0.25 -0.17,-0.56 0.36,-0.81 0.53,-0.25 m 0.28,1.04 -0.59,-0.02 -0.65,-0.6 -0.07,-0.58 0.59,0.02 0.65,0.59 0.07,0.59 m 2.15,-23.23 -0.5,0.31 -0.88,-0.14 -0.37,-0.45 0.49,-0.31 0.88,0.14 0.38,0.45 m -0.55,-0.73 -0.12,0.58 -0.7,0.54 -0.58,-0.04 0.11,-0.57 0.71,-0.54 0.58,0.03 m -107.33,-19.52 -0.56,0.19 -0.82,-0.33 -0.26,-0.52 0.55,-0.19 0.82,0.33 0.27,0.52 m -0.85,-1.01 0.2,0.55 -0.31,0.83 -0.52,0.29 -0.2,-0.55 0.31,-0.83 0.52,-0.29 m 80.59,84.17 0.16,-0.04 m 25.8,-49.11 0.16,-0.57 0.75,-0.48 0.58,0.08 -0.16,0.56 -0.75,0.49 -0.58,-0.08 m 1.28,-0.07 -0.55,-0.2 -0.43,-0.78 0.12,-0.58 0.55,0.21 0.43,0.78 -0.12,0.57 m 7.15,5.46 -0.48,0.35 -0.88,-0.07 -0.41,-0.42 0.47,-0.35 0.88,0.07 0.42,0.42 m -0.5,0.48 -0.47,-0.35 -0.18,-0.87 0.28,-0.51 0.47,0.35 0.18,0.87 -0.28,0.51 m -17.8,18.24 -0.25,-0.53 0.24,-0.86 0.49,-0.32 0.25,0.53 -0.24,0.85 -0.49,0.33 m 0.83,-1.19 -0.4,0.43 -0.88,0.1 -0.49,-0.34 0.4,-0.43 0.88,-0.09 0.49,0.33 m 22.39,-10.69 0.48,-0.34 0.88,0.07 0.41,0.42 -0.47,0.35 -0.89,-0.08 -0.41,-0.42 m 1.55,-0.04 -0.52,0.27 -0.86,-0.2 -0.35,-0.47 0.52,-0.27 0.86,0.19 0.35,0.48 m -23.16,20.13 0.58,0.06 0.61,0.64 0.03,0.59 -0.59,-0.06 -0.61,-0.64 -0.02,-0.59 m 1,0.09 -0.18,0.56 -0.76,0.46 -0.58,-0.1 0.18,-0.56 0.76,-0.45 0.58,0.09 m 13.1,-10.46 -0.12,0.57 -0.71,0.53 -0.59,-0.04 0.13,-0.57 0.71,-0.53 0.58,0.04 m -0.59,1.2 -0.27,-0.52 0.2,-0.87 0.47,-0.34 0.28,0.52 -0.2,0.86 -0.48,0.35 m 7.55,-24.72 -0.42,-0.4 -0.09,-0.88 0.34,-0.48 0.42,0.4 0.09,0.88 -0.34,0.48 m 0.1,-0.23 -0.32,-0.49 0.1,-0.88 0.44,-0.39 0.33,0.48 -0.11,0.88 -0.44,0.4 m -73.65,-72.14 -0.16,0.57 -0.74,0.48 -0.58,-0.07 0.16,-0.57 0.74,-0.49 0.58,0.08 m -0.08,0.63 -0.58,0.06 -0.73,-0.51 -0.14,-0.57 0.58,-0.06 0.73,0.51 0.14,0.57 m -72.63,212.74 -0.12,-0.59 -0.42,-0.6 -0.51,-0.31 h -1.2 l -0.69,0.31 -0.78,0.6 -0.48,0.59 -0.57,0.91 -0.45,1.5 0.15,1.5 0.42,0.59 0.5,0.31 h 1.21 l 0.69,-0.31 0.78,-0.59 0.48,-0.6 m 6.21,-2.7 -1.26,4.2 m 0.99,-3.31 -0.42,-0.59 -0.51,-0.3 h -0.9 l -0.69,0.3 -0.78,0.59 -0.57,0.91 -0.18,0.59 0.03,0.91 0.42,0.59 0.5,0.31 h 0.91 l 0.69,-0.31 0.78,-0.59 m 3.39,-3.3 -1.27,4.2 m 0.73,-2.4 0.57,-0.91 0.78,-0.59 0.69,-0.3 h 0.9 m 1.5,0 -0.9,3 0.03,0.89 0.51,0.31 h 0.9 l 0.69,-0.31 1.17,-0.89 m 0.9,-3 -1.26,4.2 m 6.39,-3.31 -0.12,-0.59 -0.81,-0.3 h -0.9 l -0.99,0.3 -0.48,0.59 0.12,0.61 0.51,0.3 1.41,0.3 0.51,0.29 0.03,0.91 -0.48,0.59 -0.99,0.31 h -0.91 l -0.81,-0.31 -0.11,-0.59 m 12.69,-3.3 -1.27,4.2 m 1,-3.31 -0.43,-0.59 -0.51,-0.3 h -0.89 l -0.69,0.3 -0.79,0.59 -0.56,0.91 -0.19,0.59 0.04,0.91 0.42,0.59 0.51,0.31 h 0.9 l 0.69,-0.31 0.78,-0.59 m 3.39,-3.3 -1.26,4.2 m 0.72,-2.4 0.56,-0.91 0.79,-0.59 0.69,-0.3 h 0.89 m 4.54,0.89 -0.42,-0.59 -0.51,-0.3 h -0.9 l -0.7,0.3 -0.77,0.59 -0.58,0.91 -0.17,0.59 0.02,0.91 0.43,0.59 0.5,0.31 h 0.91 l 0.69,-0.31 0.77,-0.59 m 2.25,-1.5 h 3.61 l 0.18,-0.6 -0.12,-0.6 -0.73,-0.6 h -0.89 l -0.69,0.3 -0.79,0.59 -0.57,0.91 -0.18,0.59 0.04,0.91 0.41,0.59 0.52,0.31 h 0.9 l 0.69,-0.31 0.78,-0.59 m 3.72,-5.41 -1.89,6.31 m 3.99,-6.31 0.21,0.31 0.38,-0.31 -0.2,-0.29 -0.39,0.29 m -0.34,2.11 -1.26,4.2 m 3.67,-4.2 -1.26,4.2 m 0.71,-2.4 0.57,-0.91 0.79,-0.59 0.69,-0.3 h 0.89 m 1.5,0 -0.89,3 0.02,0.89 0.51,0.31 h 0.91 l 0.69,-0.31 1.16,-0.89 m 0.91,-3 -1.26,4.2 m 6.39,-3.31 -0.13,-0.59 -0.81,-0.3 h -0.89 l -0.99,0.3 -0.49,0.59 0.12,0.61 0.51,0.3 1.42,0.3 0.51,0.29 0.03,0.91 -0.48,0.59 -0.99,0.31 h -0.9 l -0.82,-0.31 -0.11,-0.59 m 5.6,0.3 -0.39,0.29 0.22,0.31 0.39,-0.31 -0.22,-0.29"
     id="path6" />
</svg>
