<?xml version="1.0" encoding="utf-8" ?>
<svg xmlns="http://www.w3.org/2000/svg" xmlns:cc="http://creativecommons.org/ns#" xmlns:dc="http://purl.org/dc/elements/1.1/" xmlns:ev="http://www.w3.org/2001/xml-events" xmlns:inkscape="http://www.inkscape.org/namespaces/inkscape" xmlns:rdf="http://www.w3.org/1999/02/22-rdf-syntax-ns#" xmlns:sodipodi="http://sodipodi.sourceforge.net/DTD/sodipodi-0.dtd" xmlns:xlink="http://www.w3.org/1999/xlink" baseProfile="tiny" height="22.86cm" version="1.2" viewBox="0 0 1152.0 864.0" width="30.48cm">
  <metadata>
    <rdf:RDF>
      <cc:Work>
        <dc:format>image/svg+xml</dc:format>
        <dc:source/>
        <dc:date>2021-10-05T21:43:45.691154</dc:date>
      </cc:Work>
    </rdf:RDF>
  </metadata>
  <defs/>
  <g fill="none" id="layer1.0" inkscape:groupmode="layer" inkscape:label="1" stroke="#00f" style="display:inline">
    <line x1="571.2661" x2="565.5318" y1="291.6023" y2="288.0"/>
    <polyline points="567.4007,288.0 571.6134,290.4638 572.2484,291.1315"/>
    <polyline points="573.2327,290.4552 571.9263,289.2169 569.6394,288.0"/>
    <line x1="572.3416" x2="574.2206" y1="288.0" y2="289.5798"/>
    <line x1="575.2138" x2="574.4778" y1="288.5495" y2="288.0"/>
    <line x1="580.6955" x2="592.3511" y1="307.1836" y2="314.0114"/>
    <polyline points="591.2053,314.1748 580.4305,308.2779 579.6978,307.5924"/>
    <polyline points="578.7066,308.2005 580.2518,309.4753 590.0453,314.3845"/>
    <polyline points="588.8715,314.7223 580.1775,310.7845 577.7201,309.014"/>
    <polyline points="576.7367,310.0006 580.2153,312.2028 587.685,315.2453"/>
    <polyline points="586.4867,315.9761 580.3613,313.7164 575.7546,311.095"/>
    <polyline points="574.7721,312.2116 580.6005,315.3018 585.2779,316.8977"/>
    <polyline points="584.0599,317.9572 580.9087,316.9282 573.7873,313.2607"/>
    <polyline points="572.7985,314.1653 581.2543,318.5605 582.8341,319.0757"/>
    <line x1="581.6022" x2="571.804" y1="320.1631" y2="314.8757"/>
    <polyline points="570.2269,347.5714 581.7677,354.3857 591.6411,361.0044"/>
    <polyline points="590.4059,361.393 581.4324,355.3174 580.7685,354.5495 569.0843,347.996"/>
    <polyline points="567.9565,348.6218 579.7609,354.7672 581.0812,356.2654 589.1674,361.6333"/>
    <polyline points="587.9274,361.8012 580.7498,357.2637 578.7436,355.1189 566.8438,349.4519"/>
    <polyline points="565.7463,350.4505 571.2955,352.6396 577.7153,355.6593 580.4721,358.3414 586.6876,361.9861"/>
    <polyline points="585.4497,362.2742 580.2763,359.5195 576.6748,356.4075 571.6413,354.1629 564.6637,351.5503"/>
    <polyline points="563.5957,352.6646 575.6212,357.3434 580.1826,360.8086 584.2156,362.7325"/>
    <polyline points="582.9869,363.3953 580.2004,362.2082 574.5537,358.4113 562.5416,353.7042"/>
    <polyline points="561.5006,354.5937 573.4716,359.5306 580.3279,363.7063 581.7652,364.2589"/>
    <line x1="579.3489" x2="571.2624" y1="366.39" y2="361.5701"/>
    <line x1="570.1352" x2="578.157" y1="362.3472" y2="367.4974"/>
    <line x1="576.9775" x2="568.993" y1="368.5152" y2="362.917"/>
    <line x1="567.8364" x2="575.8112" y1="363.293" y2="369.3724"/>
    <line x1="574.659" x2="566.666" y1="370.0281" y2="363.5254"/>
    <line x1="565.4825" x2="573.5214" y1="363.6915" y2="370.4798"/>
    <line x1="572.3987" x2="564.2871" y1="370.7632" y2="363.881"/>
    <line x1="563.0807" x2="571.2912" y1="364.1794" y2="370.946"/>
    <polyline points="569.1212,371.3591 562.1277,365.9406 560.6409,365.3293"/>
    <polygon points="561.8648,364.6515 570.1988,371.1149"/>
    <polyline points="559.4103,366.206 562.3038,367.3401 568.058,371.7538"/>
    <polyline points="567.0085,372.3455 562.3749,368.8382 558.1748,367.237"/>
    <polyline points="556.9362,368.3489 562.334,370.4129 565.9719,373.1437"/>
    <polyline points="564.9471,374.1187 562.1852,372.0344 555.6961,369.4527"/>
    <polyline points="554.4563,370.4611 561.9436,373.6683 563.9329,375.2076"/>
    <polyline points="562.9281,376.3258 561.6339,375.2787 553.2187,371.3049"/>
    <line x1="551.9849" x2="561.9311" y1="371.9456" y2="377.3832"/>
    <line x1="560.9404" x2="550.7566" y1="378.3014" y2="372.3836"/>
    <polyline points="560.4719,355.2864 572.3746,360.6112 580.5521,365.2811 572.3746,360.6112"/>
    <line x1="590.7338" x2="600.4457" y1="394.1494" y2="400.4704"/>
    <polyline points="599.2081,400.7605 591.041,396.0992 589.729,394.9004"/>
    <polyline points="588.715,395.8385 590.7141,397.5111 597.9684,401.2214"/>
    <polyline points="596.7283,401.8871 590.4446,399.0195 587.6903,396.9077"/>
    <polyline points="586.6538,398.0271 590.2599,400.6013 595.4896,402.7531"/>
    <polyline points="594.2541,403.7771 590.1789,402.2261 585.6045,399.1066"/>
    <polyline points="584.5414,400.0633 590.2097,403.8591 593.0235,404.8866"/>
    <polyline points="591.7994,405.9934 590.3493,405.4645 583.464,400.8377"/>
    <line x1="582.3717" x2="590.5834" y1="401.4046" y2="407.0094"/>
    <polygon points="591.7307,393.6062 601.6795,400.2846"/>
    <polyline points="592.7214,393.2522 601.3363,399.352 602.9077,400.1172"/>
    <polyline points="604.1287,399.8784 600.9869,398.3936 593.7074,393.0332"/>
    <polyline points="594.6906,392.8692 600.667,397.3761 605.3411,399.4922"/>
    <polyline points="606.5433,398.9105 600.4093,396.2725 595.6727,392.6702"/>
    <polyline points="596.6554,392.3524 600.2399,395.0646 607.7343,398.1218"/>
    <polyline points="608.9128,397.154 600.1762,393.7447 597.6405,391.8547"/>
    <polyline points="598.6298,391.15 600.2247,392.3165 610.078,396.0688"/>
    <polyline points="611.229,394.9499 600.3805,390.7948 599.625,390.2502"/>
    <polygon points="600.6275,389.2041 612.3654,393.8876"/>
    <line x1="601.639" x2="613.4868" y1="388.0881" y2="392.9614"/>
    <line x1="614.5931" x2="602.6608" y1="392.225" y2="386.9919"/>
    <line x1="603.6941" x2="615.6843" y1="386.0014" y2="391.6964"/>
    <line x1="616.7607" x2="604.7401" y1="391.3543" y2="385.1825"/>
    <line x1="605.7995" x2="617.8228" y1="384.5688" y2="391.142"/>
    <line x1="618.8712" x2="606.8731" y1="390.9785" y2="384.1549"/>
    <line x1="607.9615" x2="619.9068" y1="383.8979" y2="390.7736"/>
    <line x1="620.9307" x2="609.0649" y1="390.4446" y2="383.7252"/>
    <line x1="610.1834" x2="621.9441" y1="383.5481" y2="389.9326"/>
    <polyline points="635.8401,414.044 642.0965,417.5085 644.8515,420.489"/>
    <polyline points="645.8896,420.3185 642.2856,416.4939 637.0784,413.5625"/>
    <polyline points="638.3134,413.257 642.3718,415.5371 646.9406,420.1384"/>
    <polyline points="648.0055,419.8616 642.3462,414.6048 639.5433,413.0641"/>
    <polyline points="640.7664,412.899 642.2114,413.6612 649.0848,419.4191"/>
    <polygon points="650.1789,418.7734 641.9812,412.6717"/>
    <line x1="651.2882" x2="643.1864" y1="417.9252" y2="412.304"/>
    <line x1="644.3805" x2="652.4126" y1="411.7441" y2="416.9136"/>
    <line x1="653.5519" x2="645.5625" y1="415.8086" y2="410.9766"/>
    <line x1="646.7313" x2="654.7058" y1="410.0253" y2="414.6976"/>
    <line x1="655.8737" x2="647.8863" y1="413.6694" y2="408.9488"/>
    <line x1="649.0267" x2="657.0547" y1="407.8292" y2="412.7971"/>
    <line x1="658.248" x2="650.1522" y1="412.1242" y2="406.7568"/>
    <line x1="651.2626" x2="659.4524" y1="405.8131" y2="411.6567"/>
    <polygon points="660.6665,411.3617 652.3579,405.0552"/>
    <polyline points="661.8891,411.1738 660.4089,410.4049 653.4382,404.505"/>
    <polyline points="654.5041,404.1453 660.2397,409.4726 663.1185,411.0072"/>
    <polyline points="664.3532,410.7722 660.1762,408.529 655.5562,403.9229"/>
    <polyline points="656.5952,403.7585 660.2249,407.5396 665.5914,410.3921"/>
    <polyline points="666.8313,409.8174 660.3808,406.4743 657.6221,403.5621"/>
    <polyline points="658.6382,403.2495 660.628,405.311 668.0713,409.0355"/>
    <polyline points="669.3095,408.073 660.9413,404.0375 659.6447,402.7586"/>
    <polyline points="660.6431,402.061 661.2888,402.6528 670.5441,406.9905"/>
    <line x1="671.7736" x2="661.6349" y1="405.8713" y2="401.1673"/>
    <polyline points="643.8253,420.7389 641.8236,418.6082 634.6,414.7318"/>
    <polyline points="633.3601,415.6171 641.4949,419.8118 642.81,421.1422"/>
    <polyline points="641.8042,421.7439 641.1439,421.1274 632.1222,416.6539"/>
    <line x1="630.8878" x2="640.8063" y1="417.7675" y2="422.5515"/>
    <line x1="651.3104" x2="662.0421" y1="486.7803" y2="491.716"/>
    <polyline points="660.8333,492.6062 650.962,488.4145 650.3278,487.8996"/>
    <polyline points="649.343,488.9672 650.6456,490.0336 659.6152,493.6462"/>
    <polyline points="658.3895,494.7606 650.3936,491.6034 648.3542,489.9024"/>
    <polyline points="647.3598,490.6498 650.2315,493.0946 657.1575,495.8602"/>
    <polyline points="655.9211,496.8583 650.176,494.486 646.358,491.1895"/>
    <polyline points="645.3475,491.5405 650.2327,495.7664 654.682,497.6876"/>
    <polyline points="653.4418,498.3127 650.3958,496.9363 644.3269,491.7579"/>
    <polyline points="643.2948,491.9216 650.6486,498.0071 652.2024,498.7366"/>
    <polygon points="650.9655,499.0004 642.2502,492.1221"/>
    <line x1="649.7329" x2="641.1922" y1="499.1755" y2="492.4426"/>
    <line x1="640.1201" x2="648.5063" y1="492.9438" y2="499.35"/>
    <line x1="647.2872" x2="639.0333" y1="499.6121" y2="493.6521"/>
    <line x1="637.9314" x2="646.0771" y1="494.555" y2="500.0336"/>
    <polyline points="644.8774,500.6559 640.7334,498.2957 636.8145,495.603"/>
    <polyline points="635.6824,496.7194 640.4594,499.8329 643.6894,501.4828"/>
    <polyline points="642.5139,502.4791 640.2687,501.4336 634.5356,497.8144"/>
    <line x1="633.3745" x2="641.3521" y1="498.8024" y2="503.5778"/>
    <polyline points="639.0716,505.7341 632.341,500.8985 631.0124,500.2281"/>
    <polyline points="629.8134,500.6387 632.3735,502.0684 637.9538,506.6267"/>
    <polyline points="636.8511,507.3229 632.294,503.1392 628.6038,500.8935"/>
    <polyline points="627.3852,501.0656 632.1107,504.1326 635.7635,507.8124"/>
    <polyline points="634.6905,508.1239 631.8423,505.078 626.1589,501.2435"/>
    <polyline points="624.9266,501.515 631.5161,506.01 633.6318,508.3198"/>
    <polyline points="632.5865,508.4842 631.1654,506.9643 623.69,501.9498"/>
    <polyline points="622.4507,502.5871 630.826,507.9744 631.5537,508.7074"/>
    <line x1="630.5325" x2="621.2105" y1="509.0682" y2="503.4276"/>
    <polyline points="620.0793,493.649 610.9659,487.55 609.4363,486.8157 601.2638,480.8053 589.365,475.8586"/>
    <polyline points="590.3932,474.7806 602.3615,480.1189 610.649,486.5666 621.0625,493.4383"/>
    <polyline points="619.0972,493.8124 611.3145,488.6065 608.2337,487.2178 600.1509,481.6894 590.176,478.0053 588.3479,476.9781"/>
    <polyline points="587.3405,478.0489 590.2329,479.635 599.0229,482.7254 607.0423,487.818 611.6591,489.7592 618.1146,494.0189"/>
    <polyline points="617.1295,494.3506 611.9646,491.0215 605.8634,488.6243 597.8801,483.8387 590.3961,481.229 586.3413,478.9897"/>
    <polyline points="585.3489,479.7441 590.6491,482.7558 596.7228,484.9402 604.6978,489.6054 612.2,492.3954 616.1404,494.8661"/>
    <polyline points="615.1455,495.5892 612.341,493.8716 603.5463,490.6972 595.5517,485.9431 590.9661,484.1903 584.3616,480.2908"/>
    <polyline points="583.3778,480.6475 591.3147,485.5172 594.3677,486.779 602.4093,491.8147 612.3734,495.4305 614.1432,496.5044"/>
    <polyline points="613.132,497.5602 600.2685,492.3152 593.1716,487.4112 591.6593,486.7319 582.3956,480.8682"/>
    <polyline points="580.429,481.2301 581.0621,481.9822 592.2001,488.8636 599.089,494.497 611.0777,499.7681"/>
    <polyline points="610.0322,500.7457 600.3377,496.3859 598.0121,495.0076 592.3411,489.8248 580.7329,482.9842 579.4412,481.5454"/>
    <polyline points="578.448,482.0397 580.459,484.067 592.3734,490.758 596.9496,495.3355 600.5666,497.5251 608.9732,501.5472"/>
    <polyline points="607.9001,502.1424 600.8678,498.5705 595.9007,495.5399 592.2938,491.6988 580.2684,485.251 577.4478,482.7409"/>
    <polyline points="576.4392,483.6378 580.1806,486.5463 585.8189,489.1324 592.1104,492.6821 594.8646,495.7034 606.8122,502.5401"/>
    <polyline points="605.7093,502.7863 593.8404,495.9162 591.8419,493.7386 584.5788,489.7476 580.2046,487.9517 575.4207,484.682"/>
    <polyline points="574.391,485.7975 580.3378,489.4547 583.3391,490.5678 591.5157,494.8913 592.8267,496.2595 604.5913,502.9557"/>
    <polyline points="603.4582,503.1376 591.8223,496.7895 591.165,496.1535 582.1016,491.5593 580.5668,491.0328 573.349,486.8948"/>
    <polyline points="571.2245,488.7098 579.6401,493.7717 581.2109,494.2894 590.5322,499.0035 601.1483,503.8671"/>
    <polygon points="602.3104,503.4186 580.868,492.6559 572.2938,487.8877 580.868,492.6559"/>
    <polyline points="599.9727,504.5193 590.3146,500.5623 588.8492,499.5176 581.5604,495.8975 578.4193,494.8171 570.1407,489.3271"/>
    <polyline points="569.0419,489.744 571.5155,491.864 577.2073,495.7157 581.8809,497.4471 590.1951,502.1757 598.7844,505.3733"/>
    <polyline points="597.5846,506.3889 590.1858,503.8099 582.1397,498.9108 576.0054,496.4189 571.1648,492.9736 567.928,490.0031"/>
    <polyline points="566.7989,490.1765 570.8254,493.9957 574.8149,496.9153 582.3104,500.2704 590.2878,505.4291 596.3743,507.4956"/>
    <polyline points="595.1551,508.6052 590.4905,506.999 584.916,503.4753 582.3756,501.518 573.6369,497.232 570.532,494.957 565.6551,490.3528"/>
    <polyline points="564.4968,490.6197 570.3145,495.8902 572.4723,497.4305 582.3286,502.6572 583.9265,504.0557 590.7734,508.4903 593.9284,509.6295"/>
    <polyline points="592.6957,510.4962 591.1075,509.8819 582.1743,503.7026 571.3217,497.5946 563.3248,491.0481"/>
    <polyline points="562.1399,491.6783 570.1859,497.8143 581.9283,504.6786 591.4588,511.1626"/>
    <line x1="581.9283" x2="581.9283" y1="504.6786" y2="504.6786"/>
    <polygon points="591.9648,487.8415 581.4132,481.0324 591.9648,487.8415 600.1807,493.7789 612.1106,498.6781 600.1807,493.7789"/>
    <line x1="602.3615" x2="602.3615" y1="480.1189" y2="480.1189"/>
    <line x1="610.649" x2="610.649" y1="486.5666" y2="486.5666"/>
    <polygon points="632.1998,499.6179 640.2045,504.6927"/>
    <polyline points="680.7364,492.8018 690.9624,497.5957 702.2517,503.3401 710.2325,510.0645"/>
    <polyline points="711.3915,509.8909 710.176,509.129 703.4156,503.0143 691.9522,496.7968 691.3108,496.1778 681.9635,491.6898"/>
    <polyline points="683.1965,490.6583 691.6557,494.869 692.9479,496.2043 704.5653,502.811 710.2317,508.1594 712.5643,509.6315"/>
    <polyline points="713.7499,509.214 710.3939,507.1237 705.7004,502.6474 693.9513,495.8089 691.9618,493.672 684.4335,489.7809"/>
    <polyline points="685.6731,489.1023 692.198,492.578 694.9636,495.5642 701.0659,499.4062 706.8204,502.4333 710.6461,505.9967 714.9473,508.5961"/>
    <polyline points="716.1554,507.7733 710.9626,504.7626 707.9252,502.0879 700.7362,498.4502 695.9865,495.3952 692.3401,491.5677 686.9132,488.6295"/>
    <polyline points="688.1523,488.3305 692.3737,490.6134 697.0209,495.2126 700.4616,497.4369 709.015,501.5553 711.311,503.4163 717.3728,506.78"/>
    <polyline points="718.5981,505.6825 711.6558,501.9643 710.0901,500.8148 700.27,496.3389 698.068,494.9298 692.2953,489.6814 689.3884,488.1407"/>
    <polyline points="690.62,487.9747 692.113,488.736 700.181,495.1374 711.1509,499.8853 719.8296,504.5671"/>
    <polygon points="721.0657,503.5232 712.1981,498.821 700.2037,493.8239 691.8452,487.7428 700.2037,493.8239 712.1981,498.821"/>
    <polyline points="722.3048,502.6269 720.7361,502.0359 712.3401,497.1887 701.2935,492.9675 693.0627,487.3674"/>
    <polyline points="694.2708,486.7984 702.3983,491.9501 712.3737,495.5624 720.4614,500.6491 723.5449,501.9263"/>
    <polyline points="724.7845,501.4326 720.2699,499.3733 715.2679,495.6536 712.2952,493.9772 703.5182,490.8429 695.4683,486.022"/>
    <polyline points="696.654,485.0638 704.6532,489.7338 712.1128,492.4638 716.2713,494.8688 720.181,498.208 726.0216,501.1179"/>
    <polyline points="727.2545,500.9203 720.2038,497.141 717.2671,494.2912 711.8451,491.0458 705.8028,488.7111 697.8268,483.9835"/>
    <polyline points="698.986,482.8641 701.8777,484.4374 706.9666,487.8469 711.5193,489.737 718.2569,493.9085 720.3359,496.1504 728.4817,500.7562"/>
    <polyline points="729.7014,500.5351 720.564,495.2062 719.2423,493.672 711.1686,488.5399 708.1439,487.1832 702.1373,482.9001 700.1307,481.7958"/>
    <polyline points="701.2606,480.8593 709.3337,486.7243 720.2252,493.505 720.8646,494.274 730.9122,500.1779"/>
    <polyline points="733.3017,498.8756 722.1902,493.0251 721.5569,492.3048 710.3164,485.4812 703.4752,479.5692"/>
    <polyline points="704.5599,479.2169 710.1958,484.5492 721.8779,491.2069 723.1759,492.5604 731.5191,496.8324 734.4781,497.9342"/>
    <polyline points="735.641,496.8632 731.1684,495.2919 724.1661,491.8905 722.1374,490.0054 710.1854,483.6038 705.63,478.9988"/>
    <polyline points="706.6861,478.835 710.2862,482.6106 715.4274,485.4549 722.3092,488.692 725.1623,491.0208 730.8288,493.6892 736.7897,495.7437"/>
    <polyline points="737.9237,494.6659 730.5347,492.0569 726.1662,489.9944 722.3755,487.2698 716.6647,484.871 710.488,481.54 707.7289,478.6351"/>
    <polyline points="708.7593,478.3158 710.7701,480.3703 717.9043,484.0804 722.3297,485.753 727.1793,488.884 730.3163,490.4306 739.0426,493.7123"/>
    <polyline points="740.1465,492.9419 730.1957,488.8453 722.1764,484.1654 719.1445,483.1111 711.1039,479.0901 709.7784,477.8161"/>
    <polyline points="710.7876,477.1094 711.4552,477.6989 721.9312,482.5382 730.1854,487.3319 741.2352,492.3791"/>
    <polyline points="742.3092,492.0089 730.2863,485.9139 721.6193,480.9064 711.7882,476.2078"/>
    <polygon points="710.5349,486.4356 702.3755,480.1104 710.5349,486.4356 721.2072,493.318 732.1127,499.6306 721.2072,493.318"/>
    <line x1="721.6193" x2="721.6193" y1="480.9064" y2="480.9064"/>
    <line x1="730.2863" x2="730.2863" y1="485.9139" y2="485.9139"/>
    <line x1="740.181" x2="751.9623" y1="504.8255" y2="509.4907"/>
    <line x1="750.9471" x2="739.0651" y1="510.5823" y2="505.8287"/>
    <line x1="737.9644" x2="749.9212" y1="506.6652" y2="511.6998"/>
    <line x1="748.8834" x2="736.8787" y1="512.7533" y2="507.2981"/>
    <line x1="735.8077" x2="747.8326" y1="507.7289" y2="513.6649"/>
    <line x1="746.768" x2="734.7507" y1="514.3836" y2="507.9975"/>
    <line x1="733.7071" x2="745.689" y1="508.1744" y2="514.8948"/>
    <line x1="744.5951" x2="732.676" y1="515.2232" y2="508.3473"/>
    <line x1="731.6561" x2="743.4861" y1="508.6048" y2="515.4278"/>
    <polyline points="742.362,515.5913 730.6463,509.0193 742.362,515.5913 750.3952,522.4276"/>
    <polyline points="749.2129,522.6742 742.3617,516.5506 730.3941,510.262 729.6452,509.6339"/>
    <line x1="730.6463" x2="730.6463" y1="509.0193" y2="509.0193"/>
    <polyline points="728.6512,510.4535 730.2318,511.6167 740.0693,516.1467 742.2507,517.5694 748.0438,522.8437"/>
    <polyline points="746.8886,523.0254 742.0402,518.6747 738.9017,516.676 730.176,513.0762 727.6628,511.4445"/>
    <polyline points="726.6782,512.541 730.2324,514.6225 737.7209,517.4132 741.7518,519.8847 745.7479,523.306"/>
    <polyline points="744.6221,523.7538 741.4149,521.2067 736.5279,518.3401 730.3953,516.2287 725.6957,513.6568"/>
    <polyline points="724.7136,514.7025 730.648,517.8618 735.3237,519.4027 741.0637,522.6368 743.5114,524.4054"/>
    <polyline points="742.4159,525.2589 734.1097,520.5216 730.9647,519.4862 723.73,515.6017"/>
    <line x1="722.7433" x2="741.3352" y1="516.3056" y2="526.2741"/>
    <polyline points="740.2691,527.3806 721.7516,516.8025 731.658,522.5738"/>
    <polyline points="730.4234,523.3617 721.4147,517.8628 720.7534,517.1197"/>
    <polyline points="719.7471,517.3185 721.0635,518.8488 729.1853,523.9427"/>
    <polyline points="727.9453,524.3282 720.7341,519.7907 718.7312,517.4825"/>
    <polyline points="717.7045,517.7019 720.4599,520.7235 726.7053,524.5665"/>
    <polyline points="725.4671,524.7339 720.269,521.6828 716.6658,518.0565"/>
    <polyline points="715.6141,518.6005 720.1808,522.7015 724.2324,524.9199"/>
    <polyline points="723.0028,525.2105 720.2043,523.8068 714.5485,519.3522"/>
    <polyline points="713.4684,520.2909 720.3371,525.0167 721.7801,525.6721"/>
    <line x1="720.5657" x2="712.3735" y1="526.3386" y2="521.3605"/>
    <line x1="692.0098" x2="701.3546" y1="543.7356" y2="550.4381"/>
    <line x1="700.1144" x2="690.9896" y1="550.6186" y2="544.2608"/>
    <polyline points="689.9581,544.9937 691.3735,546.202 698.8749,550.8964"/>
    <polyline points="697.6379,551.3403 691.0231,547.6012 688.9141,545.9171"/>
    <polyline points="687.8567,546.9777 690.6985,549.099 696.4051,551.9876"/>
    <polyline points="695.1782,552.8372 690.4328,550.6735 686.7853,548.0964"/>
    <polyline points="685.6991,549.1829 690.2531,552.2949 693.9587,553.8498"/>
    <polyline points="692.7482,554.9552 690.1777,553.9288 684.598,550.1532"/>
    <polyline points="683.4817,550.9453 690.2144,555.5394 691.548,556.0659"/>
    <line x1="690.3593" x2="682.3504" y1="557.0931" y2="551.5305"/>
    <polyline points="650.2087,568.8264 631.577,556.1089 620.3064,549.4672"/>
    <polyline points="619.1411,550.0364 630.5877,556.3033 631.228,557.0566 642.099,563.9368 649.1361,569.5536"/>
    <polyline points="648.0777,570.0731 642.2871,564.9008 630.884,558.0546 629.5926,556.6118 620.81,551.9984 617.9899,550.8129"/>
    <polyline points="616.8534,551.7712 621.1479,553.4281 628.5901,557.0974 630.58,559.1318 642.3721,565.8347 647.0327,570.408"/>
    <polyline points="646.0002,570.6162 642.3453,566.774 630.3469,560.3094 627.5787,557.7895 621.4989,554.951 615.7318,552.8515"/>
    <polyline points="614.6254,553.971 621.8271,556.5426 626.557,558.6785 630.2086,561.5979 642.2094,567.7539 644.9792,570.7796"/>
    <polyline points="643.9684,570.9884 641.9783,568.8052 634.4126,564.7999 630.1792,562.9969 625.5238,559.7176 622.0992,558.1714 613.5341,555.0391"/>
    <polyline points="612.4575,555.9755 624.478,560.8319 630.2617,564.4946 633.1761,565.6115 641.6755,569.9516 642.9664,571.3245"/>
    <polyline points="641.9717,571.8456 641.332,571.2071 630.4476,566.0689 622.3721,561.3993 611.3953,556.7243"/>
    <polyline points="609.311,557.6176 610.2086,558.3526 621.257,563.7616 629.4997,568.8072 639.9979,573.4942"/>
    <polygon points="640.9828,572.5743 630.718,567.6903 622.3452,562.9309 610.3468,557.2654 622.3452,562.9309 630.718,567.6903"/>
    <polyline points="639.0153,574.5528 631.3962,570.9348 628.2905,569.8574 620.1538,564.388 610.1792,559.3578 608.287,557.8356"/>
    <polyline points="607.2736,557.9994 610.2617,560.3094 619.0354,564.8132 627.0919,570.7637 631.7348,572.4887 638.0332,575.6711"/>
    <polyline points="635.6883,576.0 632.0266,573.9583 625.905,571.4762 617.9019,565.0779 610.4477,561.2411 606.2694,558.1994"/>
    <polyline points="605.2729,558.5188 610.7182,562.1888 616.7537,565.2533 620.9826,569.069 624.7308,571.9813 632.2418,575.3245 633.3139,576.0"/>
    <polyline points="631.1684,576.0 623.5702,572.3049 615.5913,565.4275 611.0455,563.1867 604.2825,559.0186"/>
    <polyline points="603.2967,559.7255 614.4154,565.6888 622.424,572.507 629.0795,576.0"/>
    <polyline points="627.2746,576.0 621.2925,572.6706 613.2269,566.109 602.3137,560.6271"/>
    <polyline points="600.3488,562.7906 600.9824,563.3032 612.2419,568.1288 619.0749,573.2338 624.0187,576.0"/>
    <polyline points="622.214,576.0 617.9887,573.7694 612.3586,569.6264 600.6632,564.9339 599.3634,563.8861"/>
    <polyline points="598.3738,564.8751 600.4064,566.5311 612.3648,571.2008 616.9171,574.5128 619.9594,576.0"/>
    <polyline points="617.0955,576.0 615.8596,575.4447 612.26,572.8221 600.2384,568.0628 597.3783,565.692"/>
    <polyline points="596.3752,566.3035 600.1762,569.5035 612.0548,574.456 614.1297,576.0"/>
    <polyline points="611.623,576.0 600.2261,570.8373 595.3631,566.7154"/>
    <polyline points="594.3407,566.9711 600.3832,572.0588 608.2148,576.0"/>
    <polyline points="605.4661,576.0 600.6313,573.1744 593.3066,567.1434"/>
    <polyline points="592.2599,567.321 600.9452,574.2012 603.7654,576.0"/>
    <polyline points="620.1762,572.8861 612.0267,566.7299 601.3316,561.6744 612.0267,566.7299 620.1762,572.8861 625.562,576.0"/>
    <line x1="625.562" x2="620.1762" y1="576.0" y2="572.8861"/>
    <line x1="631.577" x2="631.577" y1="556.1089" y2="556.1089"/>
    <polyline points="571.9608,464.9847 560.1811,458.7474 552.1139,451.8687"/>
    <polyline points="550.9135,452.1339 552.2958,452.8629 559.0651,458.947 570.9458,465.5679"/>
    <polyline points="569.9201,465.9552 557.9642,459.1109 552.3738,453.935 549.7029,452.5597"/>
    <polyline points="548.4833,453.187 552.3397,455.1064 556.8783,459.3293 568.8824,466.1948"/>
    <polyline points="567.8318,466.3625 555.807,459.6821 552.1972,456.3885 547.2562,454.0183"/>
    <polyline points="546.0233,455.0179 551.9607,457.7814 554.7499,460.2239 566.7674,466.5478"/>
    <polyline points="565.6886,466.8369 553.7061,460.9735 551.6543,459.2739 544.7863,456.1181"/>
    <polyline points="543.5468,457.2322 551.3094,460.8447 552.6747,461.9104 564.595,467.2964"/>
    <polyline points="563.4862,467.9608 551.6547,462.979 542.3066,458.271"/>
    <polyline points="541.0675,459.1593 550.6448,464.0984 562.3623,468.8255 550.6448,464.0984"/>
    <polyline points="549.6436,465.1784 550.393,465.7113 561.2235,469.8486"/>
    <polyline points="560.07,470.9579 550.2312,467.2693 548.6495,466.1362"/>
    <polyline points="547.661,466.912 550.176,468.7442 558.9026,472.0649"/>
    <polyline points="557.722,473.0819 550.233,470.1167 546.6764,467.4804"/>
    <polyline points="545.6939,467.8552 550.3964,471.3774 556.5291,473.9378"/>
    <polyline points="555.3251,474.5921 550.6495,472.5288 544.7118,468.0868"/>
    <polyline points="543.7282,468.2527 550.9665,473.5841 554.1112,475.0424"/>
    <polyline points="552.8889,475.3248 551.3151,474.5668 542.7415,468.4427"/>
    <line x1="540.7519" x2="550.4252" y1="469.2156" y2="475.6764"/>
    <polygon points="551.6597,475.5073 541.75,468.7422"/>
    <polyline points="549.1871,475.9214 541.0617,471.1315 539.7457,469.8948"/>
    <polyline points="538.73,470.7727 540.7325,472.4925 547.9471,476.3173"/>
    <polyline points="546.7072,476.9105 540.4587,473.9574 537.7034,471.8046"/>
    <polyline points="536.6649,472.9167 540.2683,475.5078 545.4689,477.71"/>
    <polyline points="544.2341,478.686 540.1806,477.1164 535.6133,474.0202"/>
    <polyline points="534.5479,475.0277 540.2047,478.75 543.0044,479.7754"/>
    <polyline points="541.7816,480.8935 540.338,480.3728 533.4681,475.8701"/>
    <line x1="532.3734" x2="540.5671" y1="476.5095" y2="481.9502"/>
    <line x1="560.1811" x2="560.1811" y1="458.7474" y2="458.7474"/>
    <line x1="502.0385" x2="490.176" y1="457.051" y2="452.0576"/>
    <line x1="489.072" x2="501.015" y1="453.1767" y2="457.9095"/>
    <line x1="499.9798" x2="487.9831" y1="458.9282" y2="454.2596"/>
    <line x1="486.909" x2="498.9318" y1="455.2227" y2="460.0359"/>
    <polyline points="497.8703,461.1445 490.9671,458.4125 485.8491,456.0053"/>
    <polyline points="484.8027,456.5807 491.3157,459.829 496.7944,462.1659"/>
    <line x1="495.7038" x2="483.7689" y1="463.0281" y2="456.9615"/>
    <line x1="482.7467" x2="494.598" y1="457.1969" y2="463.6896"/>
    <line x1="493.4772" x2="481.7348" y1="464.1465" y2="457.3636"/>
    <line x1="480.732" x2="492.3413" y1="457.5513" y2="464.4337"/>
    <line x1="471.8409" x2="460.2049" y1="464.961" y2="458.8611"/>
    <line x1="459.0718" x2="470.8364" y1="459.0888" y2="465.6075"/>
    <line x1="469.8227" x2="457.9538" y1="466.0507" y2="459.2539"/>
    <line x1="456.8509" x2="468.7985" y1="459.4466" y2="466.328"/>
    <line x1="467.7624" x2="455.763" y1="466.5083" y2="459.7515"/>
    <polyline points="454.6899,460.2322 461.5616,463.6977 466.7135,466.6787"/>
    <polyline points="465.651,466.9282 461.8819,464.7969 453.6309,460.9192"/>
    <polyline points="452.5855,461.8039 462.1405,466.0 464.5741,467.3308"/>
    <line x1="463.4824" x2="451.5525" y1="467.9317" y2="462.8402"/>
    <line x1="450.5311" x2="462.3756" y1="463.9536" y2="468.7386"/>
    <polyline points="455.6828,451.3449 451.3161,449.159 444.0352,444.5843"/>
    <line x1="443.0379" x2="454.5362" y1="444.7655" y2="451.6473"/>
    <line x1="453.3753" x2="442.047" y1="451.8388" y2="445.0452"/>
    <line x1="441.0607" x2="452.2008" y1="445.4915" y2="452.0042"/>
    <polyline points="456.8147,450.8674 450.9675,448.1183 445.0403,444.4145"/>
    <polyline points="446.0548,444.167 450.6503,446.985 457.9314,450.1839"/>
    <polyline points="459.033,449.3022 450.397,445.7439 447.0801,443.7674"/>
    <polyline points="448.1172,443.17 450.2333,444.3907 460.1196,448.2679"/>
    <line x1="461.1916" x2="449.1671" y1="447.155" y2="442.3664"/>
    <line x1="450.2309" x2="462.2494" y1="441.3873" y2="446.0527"/>
    <line x1="452.3738" x2="440.5618" y1="428.4426" y2="422.4272"/>
    <line x1="439.5536" x2="451.2471" y1="423.3094" y2="428.8428"/>
    <polyline points="450.1055,429.4408 440.2031,425.4014 438.5538,424.3441"/>
    <polyline points="437.5609,425.4571 440.1813,426.9991 448.9495,430.245"/>
    <polyline points="447.7795,431.2245 440.2711,428.63 436.5733,426.5592"/>
    <polyline points="435.5892,427.5635 440.4634,430.2586 446.5965,432.3156"/>
    <polyline points="445.4015,433.4333 440.7385,431.8496 434.6069,428.4014"/>
    <polyline points="433.6246,429.0359 441.0685,433.3716 444.1955,434.4875"/>
    <polyline points="442.9799,435.4005 441.4197,434.8003 432.6407,429.4681"/>
    <line x1="431.6532" x2="441.7562" y1="429.7378" y2="436.1207"/>
    <polyline points="420.2711,422.8578 412.2964,416.6055 400.8616,411.4674 412.2964,416.6055"/>
    <line x1="413.4486" x2="401.8562" y1="416.0294" y2="410.4457"/>
    <line x1="402.8581" x2="414.5862" y1="409.5829" y2="415.6481"/>
    <line x1="415.7088" x2="403.8689" y1="415.4124" y2="408.9208"/>
    <line x1="404.8898" x2="416.8163" y1="408.4633" y2="415.2456"/>
    <polyline points="417.9087,415.0581 410.8317,411.2331 405.9221,408.1757"/>
    <polyline points="406.967,407.991 410.5371,410.2992 418.9862,414.7641"/>
    <polyline points="420.0494,414.2979 410.3179,409.3352 408.0253,407.8231"/>
    <line x1="409.0978" x2="421.0989" y1="407.5823" y2="413.6264"/>
    <line x1="423.1603" x2="411.2872" y1="411.728" y2="406.6076"/>
    <polygon points="410.185,407.1931 422.1356,412.7553"/>
    <polyline points="412.4045,405.8155 422.3754,409.5909 424.1745,410.6173"/>
    <polyline points="425.1793,409.5119 422.3306,407.957 413.5369,404.8451"/>
    <polyline points="414.684,403.7585 422.1781,406.3356 426.1763,408.4994"/>
    <polyline points="427.167,407.65 421.9337,404.7612 415.8454,402.6398"/>
    <polyline points="417.0204,401.5793 421.6222,403.2635 428.1531,407.0029"/>
    <polyline points="429.1363,406.5591 421.2753,401.8644 418.2081,400.656"/>
    <polyline points="419.4074,399.9232 420.9285,400.5757 430.1184,406.2813"/>
    <polyline points="432.0862,405.9306 431.4524,405.167 420.3731,398.3208 413.4544,392.8792"/>
    <polyline points="414.527,392.2691 420.221,397.3228 431.7857,404.203 433.0754,405.6815"/>
    <polyline points="434.0705,405.2794 432.067,403.1764 420.1766,396.3751 415.5855,391.8585"/>
    <polyline points="416.6305,391.6036 420.2443,395.4433 432.2677,402.061 435.073,404.6791"/>
    <polyline points="436.0844,403.8729 432.3672,400.8397 426.771,398.1466 420.4172,394.4918 417.6629,391.4316"/>
    <polyline points="418.6839,391.2536 420.6778,393.4867 428.0111,397.6311 432.3553,399.5062 437.1061,402.8917"/>
    <polyline points="438.1393,401.7999 432.2334,398.0656 429.2504,396.908 420.9993,392.3996 419.6948,390.9822"/>
    <polyline points="420.6967,390.5474 421.3491,391.2106 430.4869,395.9927 432.0138,396.5341 439.1851,400.6825"/>
    <polyline points="440.2444,399.6293 431.719,394.937 421.6914,389.9101"/>
    <polyline points="420.6172,399.3982 431.1011,406.1009 420.6172,399.3982 412.3671,393.6947"/>
    <line x1="431.719" x2="431.719" y1="394.937" y2="394.937"/>
    <polyline points="419.1145,423.1714 412.3739,417.9728 400.5615,413.0888 399.8727,412.5762"/>
    <polyline points="398.8878,413.6838 400.3342,414.7227 412.3394,419.4433 417.9724,423.6636"/>
    <polyline points="416.8451,424.3627 412.1964,420.9979 408.7587,419.4353 400.2031,416.3333 397.9052,414.7021"/>
    <polyline points="396.9231,415.56 400.1813,417.8872 407.5555,420.5545 411.9596,422.6089 415.7329,425.2576"/>
    <polyline points="414.6359,426.3007 411.653,424.2428 406.3424,421.6195 400.2712,419.3567 395.9398,416.2165"/>
    <polyline points="394.9534,416.6689 400.4636,420.7229 405.1208,422.5503 411.308,425.8639 413.5538,427.4159"/>
    <polyline points="412.4862,428.5138 403.8921,423.2923 400.7389,421.9772 393.9623,416.9528"/>
    <polyline points="392.9648,417.1358 401.0689,423.1226 402.658,423.8265 411.4326,429.5082"/>
    <polyline points="409.3638,430.9519 401.7566,425.1524 400.1803,424.3879"/>
    <polyline points="398.9402,424.5515 402.044,426.0915 408.3465,431.3708"/>
    <polyline points="407.3389,431.6312 402.2531,427.0255 397.7017,424.7542"/>
    <polyline points="396.4666,425.0788 402.3626,427.99 406.3397,431.8051"/>
    <polyline points="405.3472,431.9809 402.3612,429.0174 395.2364,425.5853"/>
    <polyline points="394.0129,426.2991 402.2491,430.1339 404.3599,432.2464"/>
    <polyline points="403.376,432.6728 402.0377,431.3564 392.7977,427.2066"/>
    <polyline points="391.592,428.2576 401.7487,432.6911 402.3937,433.3007"/>
    <polygon points="401.4114,434.1327 390.3973,429.3746"/>
    <line x1="400.4272" x2="389.2148" y1="435.1327" y2="430.4679"/>
    <line x1="388.0453" x2="399.4395" y1="431.452" y2="436.2331"/>
    <line x1="398.4464" x2="386.8896" y1="437.3471" y2="432.2623"/>
    <line x1="385.7485" x2="397.4463" y1="432.8668" y2="438.3855"/>
    <polyline points="396.4378,439.2733 391.9664,436.7519 384.6223,433.2726"/>
    <polyline points="384.0,433.7719 392.2012,437.9284 395.4194,439.9639"/>
    <polyline points="394.3899,440.4481 392.3416,439.0048 384.0,434.5429"/>
    <line x1="384.0" x2="393.3481" y1="435.4015" y2="440.7557"/>
    <line x1="392.2931" x2="384.0" y1="440.9496" y2="436.2601"/>
    <polyline points="391.9594,417.3046 410.3921,430.3324 401.4201,424.1731"/>
    <line x1="400.8616" x2="400.8616" y1="411.4674" y2="411.4674"/>
    <polyline points="453.0683,531.4927 460.9466,537.3444 462.5341,538.1115"/>
    <polyline points="463.7719,537.9476 460.6325,536.4097 454.0735,531.1042"/>
    <polyline points="455.0708,530.8639 460.384,535.4718 465.0059,537.7299"/>
    <polyline points="466.2344,537.3782 460.2266,534.4956 456.0618,530.696"/>
    <polyline points="457.0481,530.5111 460.1761,533.4499 467.4559,536.8378"/>
    <polyline points="468.6688,536.0896 460.2379,532.3103 458.0314,530.2229"/>
    <polyline points="459.0135,529.7647 460.4055,531.0624 469.8717,535.1538"/>
    <polyline points="471.0633,534.0859 460.662,529.7024 459.9961,529.1018"/>
    <line x1="460.981" x2="472.2426" y1="528.2383" y2="532.9665"/>
    <line x1="461.2943" x2="452.0536" y1="538.3116" y2="532.0773"/>
    <line x1="491.6008" x2="500.2949" y1="511.1772" y2="516.4248"/>
    <line x1="501.3545" x2="492.8328" y1="515.3309" y2="510.4478"/>
    <line x1="494.0586" x2="502.4283" y1="509.5274" y2="514.2141"/>
    <polyline points="503.5168,513.1642 501.1233,511.56 495.2767,508.4685"/>
    <polyline points="496.4857,507.3501 501.4745,509.9821 504.6204,512.2585"/>
    <polyline points="505.7392,511.5467 501.8055,508.4793 497.6841,506.2623"/>
    <polyline points="498.8707,505.2893 502.0825,507.0741 506.8729,511.0422"/>
    <polyline points="508.0214,510.7191 502.2772,505.7791 500.0446,504.4939"/>
    <polyline points="501.2049,503.905 502.3698,504.5953 509.1841,510.5172"/>
    <line x1="510.3603" x2="502.3508" y1="510.3536" y2="503.5128"/>
    <line x1="742.1387" x2="750.1856" y1="539.2398" y2="545.7865"/>
    <polyline points="751.3213,545.1565 750.1954,544.5326 743.3238,539.0202"/>
    <polyline points="744.496,538.6652 750.3154,543.1668 752.4716,544.3227"/>
    <polyline points="753.6361,543.3213 750.5334,541.6975 745.6545,538.1208"/>
    <polyline points="746.7986,537.3685 750.8271,540.1439 754.8139,542.2203"/>
    <polyline points="756.0042,541.1066 751.1666,538.5334 747.9278,536.4294"/>
    <line x1="749.042" x2="757.206" y1="535.3596" y2="540.0694"/>
    <line x1="758.4178" x2="750.141" y1="539.1834" y2="534.2401"/>
    <line x1="751.225" x2="759.6385" y1="533.1612" y2="538.4948"/>
    <line x1="760.8663" x2="752.2945" y1="538.0126" y2="532.2055"/>
    <line x1="761.9298" x2="768.0" y1="551.2481" y2="554.2385"/>
    <polyline points="768.0,555.947 761.6175,552.7445 760.9178,552.1573"/>
    <polyline points="759.8954,552.8732 761.2704,554.1422 768.0,557.6408"/>
    <polyline points="767.7383,559.1249 760.9239,555.4292 758.8615,553.3817"/>
    <polyline points="757.8149,553.7079 760.6133,556.6053 766.502,559.9243"/>
    <polyline points="765.2702,560.5173 760.3703,557.6814 756.7547,553.9114"/>
    <polyline points="755.6804,554.0749 760.2197,558.6785 764.0446,560.9131"/>
    <polyline points="762.8268,561.1581 760.1768,559.6258 754.5912,554.2888"/>
    <polyline points="753.4871,554.6338 760.246,560.5575 761.6183,561.3271"/>
    <line x1="760.4203" x2="752.3678" y1="561.5096" y2="555.166"/>
    <line x1="750.9033" x2="740.7915" y1="464.3745" y2="459.2145"/>
    <line x1="742.0216" x2="751.8957" y1="458.4422" y2="463.2683"/>
    <polyline points="752.895,462.1583 751.5967,461.1212 743.2567,457.4872"/>
    <polyline points="744.4952,456.4087 751.9121,459.5077 753.9025,461.133"/>
    <polyline points="754.9197,460.265 752.1626,457.9485 745.7353,455.2892"/>
    <polyline points="746.9751,454.219 752.3226,456.4719 755.948,459.597"/>
    <polyline points="756.9884,459.1341 752.3759,455.0976 748.213,453.2791"/>
    <polyline points="749.4471,452.526 752.3171,453.8349 758.042,458.8425"/>
    <polyline points="759.1095,458.6561 752.152,452.6817 750.6758,451.9806"/>
    <line x1="751.8975" x2="760.1916" y1="451.6249" y2="458.4889"/>
    <line x1="762.3719" x2="750.4457" y1="446.4697" y2="441.7007"/>
    <line x1="751.478" x2="763.4643" y1="440.7083" y2="445.3729"/>
    <line x1="764.542" x2="752.5228" y1="444.3808" y2="439.6113"/>
    <polyline points="753.5811,438.4957 761.9803,441.7646 765.6052,443.5599"/>
    <polyline points="766.6548,442.9439 761.678,440.3586 754.6535,437.451"/>
    <polyline points="755.7406,436.5535 761.3347,439.0627 767.6915,442.5281"/>
    <line x1="768.0" x2="756.8427" y1="441.8826" y2="435.8515"/>
    <line x1="757.96" x2="768.0" y1="435.3564" y2="441.1057"/>
    <line x1="768.0" x2="759.0923" y1="440.3038" y2="435.0406"/>
    <line x1="760.2394" x2="768.0" y1="434.8425" y2="439.4408"/>
    <polyline points="760.0828,425.8168 750.2788,421.2077 748.0588,419.7659"/>
    <polyline points="747.0095,420.0051 750.476,422.2626 759.0101,426.4853"/>
    <polyline points="757.9228,426.9487 750.7548,423.2448 745.973,420.1726"/>
    <polyline points="744.9484,420.3582 751.0868,424.1852 756.8204,427.2406"/>
    <line x1="755.7029" x2="743.9344" y1="427.4272" y2="420.6478"/>
    <line x1="742.9296" x2="754.5703" y1="421.1081" y2="427.5943"/>
    <line x1="753.4229" x2="741.9327" y1="427.8317" y2="421.7732"/>
    <line x1="740.9421" x2="752.2613" y1="422.6387" y2="428.2155"/>
    <line x1="749.1218" x2="761.1413" y1="419.3792" y2="424.9484"/>
    <line x1="762.1863" x2="750.1992" y1="423.9229" y2="418.7968"/>
    <polyline points="745.4814,411.036 740.8486,409.1793 734.4846,405.0691"/>
    <polyline points="733.5023,405.3294 741.19,410.4065 744.2858,411.7413"/>
    <polyline points="743.0793,412.2396 741.5401,411.5271 732.52,405.5033"/>
    <line x1="731.5359" x2="741.8633" y1="405.679" y2="412.5579"/>
    <polyline points="746.6651,410.1356 740.5509,407.8399 735.4685,404.6503"/>
    <polyline points="736.4559,404.0309 740.3271,406.3941 747.8357,409.0892"/>
    <polyline points="748.9925,407.9731 740.2,404.8584 737.4485,403.2069"/>
    <polyline points="738.4479,402.2126 740.1828,403.2587 750.1348,406.8772"/>
    <line x1="751.2623" x2="739.4557" y1="405.8871" y2="401.1147"/>
    <line x1="740.4732" x2="752.3747" y1="399.9995" y2="405.0688"/>
  </g>
</svg>
