<?xml version="1.0" encoding="utf-8" ?>
<svg xmlns="http://www.w3.org/2000/svg" xmlns:cc="http://creativecommons.org/ns#" xmlns:dc="http://purl.org/dc/elements/1.1/" xmlns:ev="http://www.w3.org/2001/xml-events" xmlns:inkscape="http://www.inkscape.org/namespaces/inkscape" xmlns:rdf="http://www.w3.org/1999/02/22-rdf-syntax-ns#" xmlns:sodipodi="http://sodipodi.sourceforge.net/DTD/sodipodi-0.dtd" xmlns:xlink="http://www.w3.org/1999/xlink" baseProfile="tiny" height="22.86cm" version="1.2" viewBox="0 0 1152.0 864.0" width="30.48cm">
  <metadata>
    <rdf:RDF>
      <cc:Work>
        <dc:format>image/svg+xml</dc:format>
        <dc:source/>
        <dc:date>2021-10-05T21:43:57.340610</dc:date>
      </cc:Work>
    </rdf:RDF>
  </metadata>
  <defs/>
  <g fill="none" id="layer2.0" inkscape:groupmode="layer" inkscape:label="2" stroke="#00f" style="display:inline">
    <line x1="568.3177" x2="567.0742" y1="288.0" y2="289.053"/>
    <line x1="567.0927" x2="570.0949" y1="290.6404" y2="288.0"/>
    <line x1="571.6356" x2="566.9996" y1="288.0" y2="292.157"/>
    <line x1="566.8044" x2="573.0542" y1="293.579" y2="288.0"/>
    <line x1="574.4938" x2="566.5271" y1="288.0" y2="294.8921"/>
    <line x1="576.3253" x2="587.0742" y1="300.1795" y2="294.0278"/>
    <polyline points="587.0927,294.96 577.8513,300.7096 576.6398,301.7197"/>
    <polyline points="576.889,303.1715 579.2372,301.2329 586.9996,295.9042"/>
    <line x1="586.8045" x2="577.0475" y1="296.895" y2="304.5174"/>
    <line x1="577.099" x2="586.5273" y1="305.7512" y2="297.9623"/>
    <polyline points="586.1961,299.128 582.2201,302.778 577.0382,306.8779"/>
    <polyline points="576.8715,307.9133 582.8967,303.2906 585.8449,300.404"/>
    <polyline points="585.5094,301.7912 583.5297,303.805 576.6158,308.8828"/>
    <polyline points="576.2972,309.8182 584.2094,304.3229 585.2238,303.2788"/>
    <line x1="585.0173" x2="575.9482" y1="304.846" y2="310.7552"/>
    <polyline points="586.3642,341.0208 575.2751,345.2974 564.9219,351.1313 555.6634,358.3177"/>
    <polyline points="555.3503,359.6834 564.9065,352.1114 566.0401,351.8956 575.5732,346.919 576.806,345.825 586.6727,342.1358"/>
    <polyline points="586.9125,343.162 578.3944,346.3605 575.9147,348.5529 567.3606,352.6637 565.0026,353.1631 555.1033,360.9372"/>
    <polyline points="554.9477,362.0821 558.234,360.033 565.2003,354.31 568.8436,353.4339 576.2648,350.1633 579.95,346.9053 587.0591,344.1258"/>
    <polyline points="587.0976,345.0596 581.389,347.4608 576.5877,351.7168 570.419,354.2044 565.4795,355.566 559.4739,360.5811 554.8993,363.1322"/>
    <polyline points="554.9631,364.1113 560.897,361.1194 565.8117,356.9338 576.8507,353.1858 582.6493,348.0282 587.0241,345.9991"/>
    <polyline points="586.846,346.9793 583.7028,348.6084 577.0267,354.5514 566.163,358.4047 562.4444,361.6494 555.1326,365.0503"/>
    <polyline points="555.3905,365.9843 564.0335,362.1725 566.4976,359.9596 577.098,355.8052 584.5604,349.2024 586.5815,348.031"/>
    <polyline points="586.2576,349.178 577.0571,356.95 566.7813,361.5708 565.5742,362.6904 555.7104,366.949"/>
    <polyline points="556.0598,367.9768 566.9852,363.2048 576.9084,358.0001 585.9073,350.434"/>
    <line x1="576.9084" x2="576.9084" y1="358.0001" y2="358.0001"/>
    <polyline points="585.3065,387.0258 607.0885,373.904 616.6672,369.949"/>
    <polyline points="616.3576,371.1569 608.1612,374.4531 607.0808,375.4859 597.9097,381.0715 596.7046,381.2435 585.6113,388.4836"/>
    <polyline points="585.9556,389.8363 596.9347,382.2306 599.2658,381.8416 606.9628,377.1107 609.0353,375.0133 616.0114,372.2603"/>
    <polyline points="615.664,373.2778 609.7556,375.5859 606.7465,378.7437 600.4246,382.6095 597.0693,383.2924 589.9835,388.6589 586.3043,391.077"/>
    <polyline points="586.6219,392.2098 591.4092,389.1859 597.0948,384.4516 601.377,383.3734 606.454,380.349 610.3959,376.1717 615.3508,374.2362"/>
    <polyline points="615.1036,375.1688 611.0453,376.7715 606.115,381.8939 602.153,384.1316 597.0085,385.7207 592.6526,389.7067 586.876,393.2502"/>
    <polyline points="587.0406,394.2229 593.6884,390.2229 596.8193,387.1013 602.816,384.8826 605.7642,383.3516 611.7909,377.386 614.9479,376.1113"/>
    <polyline points="614.8993,377.0984 612.7017,378.0154 605.4374,384.7043 596.5463,388.5832 594.5311,390.7364 587.099,395.1594"/>
    <polyline points="587.0452,396.0953 595.2312,391.2488 596.2176,390.1463 605.1678,385.9449 613.8157,378.6599 614.9629,378.1603"/>
    <polyline points="615.3899,380.5887 606.0113,387.786 596.5269,392.2777 595.529,393.3963 587.6353,397.8155 586.6338,398.1028"/>
    <line x1="586.8847" x2="586.8847" y1="397.0658" y2="397.0658"/>
    <polyline points="586.3182,399.2315 588.2868,398.5727 595.2394,395.0134 597.2974,392.7977 604.9327,389.0907 607.247,388.4808 615.7098,381.9693"/>
    <polyline points="616.0591,383.4514 608.6669,389.1615 605.0723,390.0272 598.2425,393.3235 595.0273,396.5793 585.97,400.4676"/>
    <polyline points="585.6248,401.8158 594.9144,398.065 599.3935,393.8569 605.3063,390.9631 610.2125,389.8275 616.4024,385.0145"/>
    <polyline points="616.7045,386.6302 611.8017,390.4786 605.6111,391.9336 600.7428,394.3993 594.912,399.4499 590.509,400.873 585.3178,403.2696"/>
    <polyline points="585.0802,404.8114 591.5739,401.6436 595.0206,400.7236 602.2456,394.952 605.9554,392.9707 613.3442,391.1144 616.9346,388.2645"/>
    <polyline points="617.0693,389.8816 614.7586,391.7353 606.3041,394.0995 603.8277,395.5164 595.2289,401.887 592.8451,402.4131 584.9364,406.4149"/>
    <polyline points="584.901,408.0474 594.2923,403.1798 595.5158,402.9524 606.6218,395.3356 615.9875,392.3413 617.0948,391.4474"/>
    <polyline points="616.8194,394.3179 608.186,397.2886 597.4395,404.6979 596.2032,404.8856 586.3583,410.1923 585.1583,411.2575"/>
    <polyline points="585.4248,412.7694 587.8811,410.7075 596.5336,405.8179 598.9648,405.4461 609.2928,397.9082 616.5465,395.5915"/>
    <polyline points="616.2178,396.7549 610.1972,398.5427 607.0453,401.2831 600.3496,406.185 596.8094,406.7746 589.4682,411.2204 585.7499,414.1856"/>
    <polyline points="586.1004,415.4925 591.0296,411.7329 597.0026,407.7891 601.5422,406.9134 606.8848,402.9156 610.9382,399.1924 615.8667,397.8202"/>
    <polyline points="615.5292,398.8098 611.5857,399.8571 606.634,404.5415 602.5273,407.63 597.0934,408.8888 586.4406,416.6877"/>
    <polyline points="586.7357,417.7801 597.0726,410.0922 603.3286,408.3337 606.3184,406.1257 612.2274,400.5366 615.2396,399.7533"/>
    <polyline points="615.0274,400.6857 612.9519,401.2302 605.9702,407.6375 604.0046,409.0238 596.9423,411.4077 594.8259,413.2854 586.9557,418.7892"/>
    <polyline points="587.0781,419.7429 595.6975,413.8137 596.7158,412.8317 604.6377,409.6996 613.8322,401.9373 614.9144,401.6425"/>
    <polyline points="614.912,402.657 605.318,410.3605 596.4162,414.35 587.0904,420.6748"/>
    <polygon points="584.9776,409.6733 595.852,403.9419"/>
    <polygon points="595.852,403.9419 606.8759,396.6839 617.0086,392.933 606.8759,396.6839"/>
    <line x1="605.318" x2="605.318" y1="410.3605" y2="410.3605"/>
    <line x1="606.8759" x2="606.8759" y1="396.6839" y2="396.6839"/>
    <line x1="595.8665" x2="595.8665" y1="391.762" y2="391.762"/>
    <polygon points="595.8665,391.762 586.8847,397.0658 595.8665,391.762 604.9831,387.0777 615.1322,379.3195 604.9831,387.0777"/>
    <polyline points="635.5294,402.5679 644.902,398.7898 655.3896,391.3781 666.4967,385.8877"/>
    <polyline points="666.7806,387.5202 656.9468,392.1339 655.7094,392.3927 644.9326,400.0965 636.2628,403.1458 635.2397,404.0863"/>
    <polyline points="635.0275,405.6749 637.1564,403.7373 645.072,401.2914 647.4575,399.9855 656.0587,393.4925 658.5349,392.896 666.9848,389.146"/>
    <polyline points="667.0884,390.7302 660.0637,393.6626 656.402,394.6962 648.9766,400.5627 645.306,402.3837 638.2511,404.3431 634.9144,407.3026"/>
    <polyline points="634.912,408.9341 639.5501,404.9637 645.6107,403.3927 650.5629,401.1273 656.7041,396.0118 667.081,392.2419"/>
    <polyline points="666.9631,393.6578 656.9344,397.436 652.1267,401.6802 645.955,404.3463 641.0179,405.5993 635.0204,410.534"/>
    <polyline points="635.2286,412.0699 642.5871,406.2501 646.3037,405.2782 653.5824,402.2228 657.0692,398.9545 663.646,395.9725 666.747,394.9644"/>
    <polyline points="666.4545,396.1594 664.4528,396.7399 657.0949,400.5431 654.8649,402.7563 646.6214,406.2242 644.1711,406.9158 635.5154,413.516"/>
    <polyline points="635.8516,414.8557 645.6807,407.5963 655.9418,403.2823 657.0088,402.1708 665.1318,397.5031 666.1156,397.2516"/>
    <polyline points="665.7648,398.2605 656.8197,403.8023 647.0405,408.2909 636.2028,416.0832"/>
    <polyline points="656.7652,471.7324 645.6886,479.0168 634.9275,484.709 625.2555,489.0846"/>
    <polyline points="625.0379,490.2814 635.0606,486.2967 636.2454,485.2273 646.0371,479.9622 647.2767,479.7715 656.975,473.1802"/>
    <polyline points="657.0852,474.7175 648.8334,480.5183 646.3818,480.8942 637.7266,485.742 635.2894,487.8137 627.1225,490.4969 624.9182,491.59"/>
    <polyline points="624.9089,493.0078 628.3597,491.2218 635.5905,489.2362 639.3013,486.2547 646.6874,481.8485 650.2745,481.2556 657.0847,476.3182"/>
    <polyline points="656.9734,477.95 651.5375,481.9821 646.9228,482.8587 640.8818,486.7673 635.9334,490.5498 629.7806,491.9575 625.0107,494.521"/>
    <polyline points="625.2133,496.1061 631.3268,492.703 636.2829,491.7516 647.064,483.9525 652.5939,482.6966 656.7627,479.5772"/>
    <polyline points="656.4741,481.1649 653.4539,483.3982 647.0965,485.1494 636.6035,492.8497 632.916,493.4567 625.4961,497.7323"/>
    <polyline points="625.8302,499.3646 634.4579,494.2171 636.8624,493.8631 644.8639,488.3219 647.0171,486.4581 654.165,484.086 656.1371,482.6818"/>
    <polyline points="655.786,484.1042 654.8028,484.7593 646.8339,487.8759 645.8009,488.8514 637.0333,494.8192 635.8712,494.9826 626.1815,500.9675"/>
    <polyline points="626.7943,503.9604 637.0519,496.6955 638.1184,496.5218 646.2393,490.9743 647.2231,489.9366 655.1826,486.6195"/>
    <polyline points="654.9918,487.7176 647.8593,490.495 645.8887,492.6005 638.9477,497.2921 636.8977,497.686 626.9934,505.307"/>
    <polyline points="627.091,506.5414 630.4032,504.1459 636.6518,498.7528 639.6397,498.0604 645.5492,494.2328 648.5639,491.0656 654.9038,488.7309"/>
    <polyline points="654.9275,489.687 649.4137,491.6494 645.2557,495.8356 640.2737,498.825 636.3394,499.9179 631.3063,504.6739 627.0772,507.6686"/>
    <polyline points="626.9535,508.7044 632.0463,505.1955 635.9923,501.1933 640.9397,499.5842 645.038,497.3763 650.458,492.247 655.0605,490.6192"/>
    <polyline points="655.2892,491.5633 651.7096,492.8592 644.9183,498.8285 641.7219,500.3365 635.6458,502.5799 632.6935,505.7124 626.7324,509.6741"/>
    <polyline points="626.4365,510.6097 633.3355,506.2261 635.3354,504.0671 644.9088,500.175 653.1417,493.4863 655.5903,492.5539"/>
    <polyline points="655.9332,493.6207 654.6939,494.1285 645.0106,501.4093 635.0927,505.6339 634.0608,506.7386 626.096,511.5466"/>
    <polygon points="625.7456,512.52 634.9424,507.2516 645.2132,502.5364 634.9424,507.2516"/>
    <line x1="625.7456" x2="625.7456" y1="512.52" y2="512.52"/>
    <polyline points="625.421,513.5616 634.8999,508.8859 636.0236,507.7668 646.7251,503.2467 656.6033,496.0614"/>
    <polyline points="656.8623,497.448 648.3097,503.9436 645.83,504.542 637.3101,508.286 634.9695,510.501 627.2366,514.0246 625.1554,514.696"/>
    <polyline points="624.9759,515.9383 635.1441,512.063 638.7687,508.8108 646.1813,505.4775 649.8777,504.6265 657.0332,498.9352"/>
    <polyline points="657.0986,500.5021 651.3426,505.2948 646.514,506.4144 640.3339,509.3429 635.406,513.5435 624.9007,517.2928"/>
    <polyline points="624.9376,518.752 630.8307,516.3233 635.7283,514.9224 641.9197,509.8839 646.7942,507.3879 652.6376,505.9481 657.0519,502.1198"/>
    <polyline points="656.8978,503.7541 653.7281,506.5863 646.9933,508.4295 643.4366,510.4349 636.0783,516.1898 632.3616,517.0939 625.0827,520.298"/>
    <polyline points="625.3213,521.9041 633.9499,517.8637 636.4201,517.3473 647.091,509.5639 654.6178,507.2094 656.652,505.3691"/>
    <polyline points="656.3396,506.9311 655.3487,507.8177 647.0773,510.8063 636.719,518.4078 635.5056,518.6309 625.629,523.5372"/>
    <polyline points="625.9745,525.1616 636.9445,519.3939 646.9536,512.1608 655.9925,508.4116"/>
    <polygon points="645.2132,502.5364 656.2827,494.7858"/>
    <polygon points="637.0987,495.7514 626.5142,502.5082"/>
    <polygon points="646.5655,489.3891 637.0987,495.7514"/>
    <polygon points="646.5655,489.3891 655.4566,485.4178"/>
    <polyline points="617.0334,489.8409 611.0972,493.2724 606.1817,494.2167 595.1444,502.0157 589.3483,503.2738 584.9757,506.3697"/>
    <polyline points="585.1552,504.7846 588.2969,502.5705 594.9697,500.8138 605.8304,493.1229 609.5491,492.5197 616.8625,488.2136"/>
    <polyline points="616.6037,486.5818 607.9599,491.76 605.4963,492.1128 597.1624,497.6256 594.8999,499.5001 587.4411,501.881 585.4207,503.2716"/>
    <polyline points="585.7452,501.8539 586.7327,501.2058 594.9423,498.0775 596.0249,497.0971 605.2135,491.1586 606.4202,490.9951 616.2831,484.9811"/>
    <polygon points="615.9336,483.444 595.0924,496.5604"/>
    <polyline points="615.5907,481.9963 604.9089,489.2811 603.7881,489.4563 595.3351,494.9727 594.3313,496.0142 586.4361,499.3488"/>
    <polyline points="586.7321,498.2551 593.6753,495.4572 595.6454,493.3454 602.7732,488.6859 604.9182,488.2877 615.2895,480.6548"/>
    <polyline points="615.0607,479.4255 611.5869,481.8025 605.0378,487.2169 601.9479,487.9173 595.9919,491.7136 593.0384,494.8882 586.9533,497.245"/>
    <polyline points="587.0771,496.2908 592.3312,494.3061 596.339,490.113 601.2582,487.1521 605.2554,486.0469 610.4865,481.2735 614.9276,478.3029"/>
    <polyline points="614.9038,477.2707 609.5878,480.7512 605.5489,484.7663 600.6246,486.3921 596.6515,488.5759 591.4773,493.7103 587.091,495.3588"/>
    <polyline points="586.9935,494.4133 590.428,493.0999 596.8975,487.1282 599.9567,485.6389 605.8882,483.3748 608.8508,480.2338 614.9917,476.3032"/>
    <polyline points="615.1823,475.3684 608.2048,479.7198 606.2389,481.8835 597.0517,485.7868 589.1717,492.4747 586.7946,493.4199"/>
    <polyline points="586.5145,492.349 587.7359,491.8344 597.0987,484.5575 606.5652,480.3136 607.5619,479.2072 615.4563,474.4306"/>
    <polyline points="615.7856,473.4547 606.8336,478.6944 597.0334,483.435 586.1819,491.1789"/>
    <line x1="586.0956" x2="586.0956" y1="500.5455" y2="500.5455"/>
    <polygon points="586.0956,500.5455 595.0924,496.5604"/>
    <polyline points="584.9007,507.9959 590.6067,503.9899 595.4063,503.114 601.5743,499.1787 606.5144,495.4135 612.5219,494.0168 617.0987,491.4286"/>
    <polyline points="617.0518,492.9456 613.7639,494.7513 606.7945,496.722 603.1502,499.6912 595.7287,504.1274 592.0441,504.7178 584.9377,509.6283"/>
    <polyline points="585.0829,511.2311 593.599,505.4563 596.0787,505.0836 604.6345,500.204 606.9935,498.1397 614.7983,495.4746 616.8976,494.3681"/>
    <polyline points="616.6517,495.6818 607.091,499.6528 605.9568,500.719 596.4205,506.0158 595.1875,506.2042 585.3216,512.7719"/>
    <line x1="585.6294" x2="585.6294" y1="514.2243" y2="514.2243"/>
    <polyline points="585.9749,515.571 596.9447,507.9503 598.1151,507.7218 606.9534,502.8641 607.9938,501.7623 615.9921,497.9818"/>
    <polyline points="615.6456,498.9953 608.7435,502.2939 606.7322,504.4965 599.3211,508.4884 597.0736,509.017 588.7808,515.3929 586.3229,516.8055"/>
    <polyline points="586.6378,517.9328 590.2409,515.9577 597.0929,510.182 600.3192,509.2578 606.4363,506.0993 609.3946,502.8341 615.3352,499.9514"/>
    <polyline points="615.0926,500.8836 610.0339,503.3844 606.0958,507.64 601.1309,510.0284 597.0007,511.4573 591.5293,516.5109 586.8876,518.9687"/>
    <polyline points="587.0467,519.9385 592.6126,517.0536 596.8062,512.8437 605.7454,509.0924 610.7505,503.9461 614.9423,501.8277"/>
    <polyline points="614.8999,502.8182 611.6191,504.5202 605.4208,510.439 596.5295,514.3308 593.496,517.5873 587.099,520.8741"/>
    <polyline points="587.0391,521.811 594.2226,518.1135 596.1986,515.8976 603.1204,512.329 605.1553,511.6734 612.6854,505.1076 614.9696,503.8849"/>
    <polyline points="615.1443,505.0499 613.9579,505.7091 604.9758,512.8007 603.919,513.0865 595.8474,517.5152 594.8649,518.6336 586.8731,522.7844"/>
    <polyline points="586.6179,523.8259 604.9007,513.8366 615.4061,506.3253"/>
    <polygon points="607.0772,501.2379 596.7193,506.9599 585.6294,514.2243 596.7193,506.9599"/>
    <polygon points="607.0772,501.2379 616.3392,496.8837"/>
    <line x1="605.0108" x2="605.0108" y1="490.2266" y2="490.2266"/>
    <line x1="636.9445" x2="636.9445" y1="519.3939" y2="519.3939"/>
    <polyline points="644.9317,548.8428 635.7059,552.5907 626.778,559.7704 617.0584,565.6136"/>
    <polyline points="617.0978,567.1874 618.1951,566.1351 626.4934,560.7096 627.486,560.5295 636.3949,553.1887 644.9023,550.2089"/>
    <polyline points="644.9847,551.4631 637.219,553.8012 628.123,561.2815 626.1584,561.6436 619.1269,566.6518 617.0251,568.6843"/>
    <polyline points="616.8477,570.0823 619.8875,567.1656 625.8071,562.608 628.7785,562.025 638.2325,554.4287 645.1705,552.6085"/>
    <polyline points="645.4409,553.659 639.4538,555.0712 634.8992,558.8607 629.5388,562.7585 625.4754,563.6354 616.5838,571.3698"/>
    <polyline points="616.2602,572.5464 625.1971,564.7519 630.4699,563.4808 634.9491,560.4818 640.862,555.7289 645.7682,554.6382"/>
    <polyline points="646.1191,555.5774 642.4012,556.4015 635.106,562.0556 631.6059,564.1907 625.0006,565.9744 615.91,573.6228"/>
    <polyline points="615.5689,574.6201 624.906,567.309 632.9422,564.8873 635.3541,563.5524 643.9903,557.0886 646.4577,556.5114"/>
    <polyline points="646.7495,557.4758 645.539,557.7894 635.6679,564.9503 624.9228,568.7506 615.2716,575.5676"/>
    <polygon points="615.8519,576.0 625.0495,570.283"/>
    <polyline points="618.1949,576.0 625.273,571.8806 626.4859,570.8241 637.5917,566.8908 647.0816,559.6198"/>
    <polygon points="646.9648,558.5033 636.0155,566.2378"/>
    <polyline points="647.0879,560.8424 639.0769,567.5286 628.0402,571.3754 625.5705,573.5115 620.9634,576.0"/>
    <polyline points="624.1878,576.0 625.9118,575.1401 629.6287,571.9382 640.4005,568.1514 646.9832,562.1771"/>
    <polyline points="646.7781,563.6187 641.5223,568.7593 631.1613,572.5135 627.1113,576.0"/>
    <polyline points="629.1981,576.0 632.5582,573.1023 642.4402,569.3528 646.4936,565.1511"/>
    <polyline points="646.1586,566.7488 643.1909,569.9327 633.7656,573.7051 631.1099,576.0"/>
    <polyline points="632.8218,576.0 634.7651,574.3227 643.8423,570.4997 645.8073,568.3797"/>
    <polyline points="645.4756,570.0083 644.4814,571.0548 635.5779,574.9553 634.357,576.0"/>
    <line x1="637.579" x2="645.0007" y1="576.0" y2="573.1214"/>
    <line x1="644.906" x2="640.4605" y1="574.5502" y2="576.0"/>
    <line x1="644.4423" x2="644.9228" y1="576.0" y2="575.8707"/>
    <polygon points="635.7868,576.0 636.2604,575.6031 645.1972,571.5993 636.2604,575.6031"/>
    <polygon points="625.0495,570.283 636.0155,566.2378"/>
    <line x1="687.0394" x2="696.1996" y1="547.2115" y2="541.8313"/>
    <polyline points="696.5304,540.2203 695.5284,541.3175 687.099,546.247"/>
    <polyline points="687.0464,545.3129 694.7362,540.805 696.8069,538.6656"/>
    <polyline points="697.0011,537.1949 693.7628,540.2921 686.887,544.3739"/>
    <polyline points="686.637,543.3946 692.5821,539.777 697.0931,535.8275"/>
    <polyline points="697.0734,534.5719 691.2073,539.2579 686.3219,542.3443"/>
    <line x1="685.9739" x2="696.9442" y1="541.199" y2="533.4253"/>
    <line x1="696.7186" x2="685.6285" y1="532.3738" y2="539.9449"/>
    <line x1="685.3208" x2="696.4196" y1="538.5789" y2="531.3938"/>
    <line x1="696.0776" x2="685.0824" y1="530.4545" y2="537.1095"/>
    <polyline points="715.1436,530.6955 726.1805,526.8458 727.4174,525.8186 737.0329,520.19"/>
    <polyline points="737.0986,521.1295 728.9476,526.3391 726.5133,528.3151 717.8592,530.8126 715.4053,532.063"/>
    <polyline points="715.7275,533.5337 719.4452,531.5195 726.7936,529.6809 737.0522,522.1095"/>
    <polyline points="736.8983,523.1611 726.9929,530.9349 721.0099,532.239 716.0774,535.0885"/>
    <polyline points="716.4194,536.6995 722.4676,532.97 727.0909,532.08 736.6527,524.3078"/>
    <polyline points="736.3404,525.5635 733.3468,528.3942 727.0774,533.1303 723.7528,533.7113 716.7184,538.3335"/>
    <polyline points="716.9441,539.9545 724.8326,534.4615 726.954,534.1095 734.0271,528.9101 735.9933,526.9311"/>
    <polyline points="735.6468,528.4018 734.6602,529.4304 726.7331,535.0485 725.7129,535.2192 717.0734,541.5282"/>
    <polyline points="717.0931,543.0247 726.4374,535.9826 735.3362,529.9566"/>
    <polyline points="745.2125,527.9982 747.6352,527.1182 756.2817,520.4315"/>
    <polyline points="755.9321,519.1757 746.1845,526.4681 745.0101,526.9479"/>
    <line x1="744.9087" x2="755.5894" y1="525.8029" y2="518.029"/>
    <polyline points="756.6025,521.7992 749.1966,527.7532 745.495,528.9773"/>
    <polyline points="745.829,529.9163 750.7836,528.3732 756.8617,523.27"/>
    <polyline points="757.0329,524.8248 752.3064,528.9784 746.1803,530.8504"/>
    <polyline points="746.5131,531.815 753.6872,529.5693 757.0986,526.4359"/>
    <polyline points="757.0522,528.0699 754.875,530.1467 746.7935,532.8427"/>
    <polyline points="746.9929,533.9595 755.8553,530.7114 756.8984,529.6909"/>
    <line x1="756.6528" x2="747.0908" y1="531.2645" y2="535.1823"/>
    <line x1="755.1434" x2="766.1801" y1="541.526" y2="535.9579"/>
    <polyline points="766.5129,537.5889 756.6286,542.284 755.405,542.5321"/>
    <polyline points="755.7271,543.6204 758.2048,543.0478 766.7934,539.2174"/>
    <polyline points="766.9928,540.8083 759.7841,543.8156 756.077,544.8109"/>
    <line x1="756.419" x2="767.0908" y1="546.113" y2="542.3301"/>
    <line x1="767.0775" x2="756.7181" y1="543.7585" y2="547.5247"/>
    <polyline points="756.9439,549.0329 763.7504,546.1254 766.9542,545.0786"/>
    <polyline points="766.7334,546.2868 764.6816,546.8916 757.0733,550.6147"/>
    <polyline points="757.0931,552.2394 765.4418,547.653 766.4378,547.3905"/>
    <line x1="766.0974" x2="757.0013" y1="548.4081" y2="553.8724"/>
    <polyline points="736.8618,519.2562 725.8292,525.2921 736.8618,519.2562 747.0175,512.2219"/>
    <line x1="747.0966" x2="736.6026" y1="510.8225" y2="518.2923"/>
    <line x1="736.2819" x2="747.0637" y1="517.2659" y2="509.5336"/>
    <polyline points="746.9223,508.3557 743.3259,510.538 735.9323,516.1507"/>
    <polyline points="735.5896,514.9296 741.7792,509.9983 746.6866,507.2781"/>
    <polyline points="746.3808,506.2799 740.19,509.4672 735.2886,513.5963"/>
    <polyline points="735.06,512.156 738.6487,508.9432 746.0361,505.3321"/>
    <polyline points="745.6876,504.4003 737.2366,508.4246 734.9273,510.6247"/>
    <polyline points="734.9039,509.0276 736.0105,507.9098 745.3709,503.4489"/>
    <line x1="745.1182" x2="734.9921" y1="502.444" y2="507.397"/>
    <polyline points="727.0966,507.5761 721.398,508.9023 716.6028,512.5288"/>
    <polyline points="716.8619,514.1595 722.6509,509.5766 727.0175,508.5811"/>
    <polyline points="726.8344,509.5325 723.6967,510.2653 717.033,515.7565"/>
    <polyline points="717.0986,517.2879 724.5477,510.9677 726.5662,510.4643"/>
    <polyline points="726.2401,511.4121 725.2531,511.683 717.0521,518.7283"/>
    <polygon points="716.8982,520.0616 725.8895,512.4103"/>
    <polyline points="716.6525,521.2827 717.6555,520.6977 725.55,513.4878 726.5466,513.1482"/>
    <polyline points="727.3101,513.8955 725.2563,514.6656 718.3098,521.3187 716.3402,522.398"/>
    <polyline points="715.9931,523.4245 718.9473,521.9249 725.0384,515.9545 728.2458,514.6508"/>
    <polyline points="729.3868,515.4124 724.9184,517.3538 719.6576,522.5168 715.6466,524.3884"/>
    <polyline points="715.336,525.3223 720.5164,523.0951 724.9087,518.8517 730.7274,516.1787"/>
    <polyline points="732.2243,516.948 725.0102,520.4262 721.5714,523.6607 715.0931,526.2617"/>
    <polyline points="714.9426,527.2417 722.833,524.2145 725.2126,522.0477 733.8046,517.7186"/>
    <polyline points="735.3797,518.4885 725.4952,523.6816 724.273,524.7579 714.8999,528.2932"/>
    <polygon points="714.9692,529.4398 725.8292,525.2921"/>
    <polyline points="716.2821,510.8999 719.9648,508.2428 727.0638,506.4892"/>
    <polyline points="726.9224,505.3005 718.412,507.5985 715.9325,509.3082"/>
    <polyline points="715.5898,507.7851 716.8233,506.9693 726.6868,504.0002"/>
    <line x1="726.381" x2="715.2887" y1="502.5902" y2="506.355"/>
    <polyline points="707.0966,501.3769 716.4747,496.8189 725.3694,489.0357 734.904,484.8418"/>
    <polyline points="734.9269,483.2268 733.852,484.3102 724.7004,488.3665 716.7631,495.6616 707.0638,499.7707"/>
    <polyline points="706.9225,498.2245 716.9737,494.3945 724.0669,487.7122 732.9956,483.7699 735.0591,481.5926"/>
    <polyline points="735.2872,479.9748 732.2868,483.2195 723.3785,487.073 717.0848,493.0159 713.7458,494.6454 706.6869,496.765"/>
    <polyline points="706.3812,495.4104 712.4441,493.8999 717.0851,491.5356 722.5555,486.4489 726.6852,484.9487 731.6496,482.6578 735.5879,478.4078"/>
    <polyline points="735.9305,476.9204 730.9945,482.0837 726.9213,484.0132 721.5434,485.8397 716.9747,489.9737 710.9744,493.1461 706.0365,494.1678"/>
    <polyline points="705.688,493.0332 709.4044,492.3857 716.7648,488.3586 720.3235,485.2449 727.0633,483.0436 730.2353,481.4962 736.2801,475.5335"/>
    <polyline points="736.6011,474.2577 729.3054,480.8945 727.0967,482.008 718.9164,484.6639 716.4767,486.7244 707.8208,491.6202 705.3712,491.9914"/>
    <polyline points="705.1185,491.0178 706.3129,490.8513 716.1399,485.1066 717.3779,484.0958 728.1708,480.2783 736.8606,473.0923"/>
    <polyline points="737.0323,472.0252 726.8358,479.647 715.7888,483.5396 704.9555,490.0809"/>
    <line x1="716.4747" x2="716.4747" y1="496.8189" y2="496.8189"/>
    <line x1="725.3694" x2="725.3694" y1="489.0357" y2="489.0357"/>
    <line x1="737.0851" x2="746.6853" y1="495.6077" y2="489.5071"/>
    <line x1="746.3793" x2="738.1677" y1="491.1133" y2="496.3762"/>
    <line x1="739.0506" x2="746.0345" y1="497.1465" y2="492.7464"/>
    <line x1="745.686" x2="739.7768" y1="494.3707" y2="497.9169"/>
    <line x1="740.419" x2="745.3695" y1="498.6855" y2="495.9515"/>
    <line x1="745.1172" x2="741.0658" y1="497.4583" y2="499.4507"/>
    <line x1="741.805" x2="744.9549" y1="500.2107" y2="498.8682"/>
    <line x1="744.899" x2="742.7068" y1="500.1684" y2="500.964"/>
    <line x1="743.8108" x2="744.9554" y1="501.7088" y2="501.3571"/>
    <line x1="745.5516" x2="756.654" y1="478.881" y2="471.7884"/>
    <line x1="756.3419" x2="745.2576" y1="470.4015" y2="477.9114"/>
    <polyline points="745.0393,476.8758 753.5169,470.6463 755.9949,469.1257"/>
    <polyline points="755.6483,467.9602 751.9769,470.0931 744.9188,475.749"/>
    <polyline points="744.9085,474.515 750.567,469.5504 755.3375,466.8931"/>
    <polyline points="755.0942,465.9024 749.3437,469.0168 745.0094,473.1688"/>
    <polyline points="745.2113,471.7169 748.3281,468.4907 754.9431,464.9582"/>
    <polyline points="754.8998,464.026 747.5024,467.9706 745.4936,470.1765"/>
    <polyline points="745.8274,468.5738 746.8124,467.4547 754.9686,463.07"/>
    <line x1="755.4037" x2="746.5117" y1="460.9591" y2="465.3152"/>
    <line x1="746.7924" x2="755.7257" y1="463.7299" y2="459.7577"/>
    <line x1="756.0756" x2="746.9921" y1="458.4444" y2="462.2164"/>
    <polyline points="747.0906,460.7983 752.3882,459.0744 756.4177,457.0224"/>
    <polyline points="756.717,455.5057 751.5029,458.3107 747.0778,459.4893"/>
    <polyline points="746.9549,458.2921 750.4173,457.543 756.9432,453.9182"/>
    <polyline points="757.073,452.291 749.1269,456.7729 746.7345,457.198"/>
    <polyline points="746.4391,456.1876 747.6653,456.0024 757.0933,450.6591"/>
    <polygon points="757.0019,449.0583 746.0988,455.2332"/>
    <polyline points="756.8083,447.5208 755.6044,448.5274 745.7483,454.3012"/>
    <polyline points="745.4234,453.3558 754.0714,448.0035 756.5321,446.0727"/>
    <line x1="756.2016" x2="745.1573" y1="444.7308" y2="452.3627"/>
    <line x1="744.977" x2="755.8504" y1="451.2922" y2="443.501"/>
    <polyline points="755.5143,442.378 749.493,446.4575 744.9009,450.1226"/>
    <polyline points="744.9368,448.8425 748.2368,445.945 755.2277,441.3455"/>
    <polyline points="755.0198,440.3779 747.1875,445.4308 745.0811,447.4514"/>
    <polyline points="745.3191,445.9605 746.3336,444.9134 754.9118,439.443"/>
    <line x1="755.0281" x2="765.0714" y1="437.5296" y2="429.982"/>
    <polyline points="764.9323,428.7192 762.6769,430.2061 755.2406,436.4845"/>
    <polyline points="755.5305,435.3459 761.6642,429.6494 764.9021,427.566"/>
    <polyline points="764.9837,426.5091 760.8407,429.1035 755.8682,434.0989"/>
    <polyline points="756.2192,432.7399 760.1521,428.5671 765.1689,425.5255"/>
    <polyline points="765.4388,424.5845 759.5185,428.0388 756.5477,431.2766"/>
    <polyline points="756.8203,429.7274 758.8498,427.517 765.7658,423.6514"/>
    <polyline points="766.1166,422.6904 758.0623,427.0 757.0092,428.1196"/>
    <line x1="757.095" x2="766.4555" y1="426.4861" y2="421.6687"/>
    <polyline points="765.3051,431.3564 754.9146,438.5053 745.6264,444.3909"/>
    <polygon points="746.1787,466.9415 755.1425,462.0569"/>
    <line x1="745.1688" x2="754.9624" y1="421.7171" y2="414.8589"/>
    <polyline points="754.8993,413.9272 753.7931,414.0916 745.4386,420.1907"/>
    <polyline points="745.7656,418.5969 752.8306,413.3284 754.9483,412.9781"/>
    <polyline points="755.1045,411.9773 752.0469,412.5711 746.1164,416.9673"/>
    <polyline points="746.4553,415.3373 751.3801,411.8213 755.3519,410.8963"/>
    <polyline points="755.6654,409.7142 750.7462,411.0805 746.7476,413.7422"/>
    <polyline points="746.9635,412.214 750.0552,410.3499 756.0128,408.421"/>
    <polyline points="756.3589,407.0176 749.2276,409.631 747.0811,410.7776"/>
    <line x1="747.0883" x2="756.6683" y1="409.4487" y2="405.5162"/>
    <line x1="756.9094" x2="746.9844" y1="403.9392" y2="408.2319"/>
    <line x1="744.9223" x2="735.6652" y1="398.8132" y2="402.6551"/>
    <polyline points="736.0126,401.1896 744.0082,398.1764 745.048,397.4414"/>
    <polyline points="745.2708,395.967 743.2604,397.5245 736.3587,399.828"/>
    <polyline points="736.6681,398.5784 742.6101,396.8576 745.5679,394.4094"/>
    <polyline points="745.9089,392.7968 741.9704,396.176 736.9093,397.4374"/>
    <polyline points="737.0576,396.3905 741.2521,395.4803 746.2592,391.1627"/>
    <polyline points="746.5829,389.5429 740.381,394.7713 737.0979,395.4135"/>
    <polyline points="737.0262,394.4753 739.3118,394.0498 746.847,387.9717"/>
    <polyline points="747.0247,386.4787 738.0366,393.3171 736.8496,393.5408"/>
    <line x1="736.5864" x2="747.0977" y1="392.5743" y2="385.0852"/>
    <polyline points="566.6839,445.0011 557.0854,448.8419 546.3827,455.5236 535.2901,461.9666"/>
    <polyline points="535.5915,463.4685 546.6882,456.457 547.895,456.2932 557.0845,450.3924 558.1672,449.4057 566.3776,446.2618"/>
    <polyline points="566.0326,447.413 559.0494,449.9821 556.9729,452.001 549.259,457.0601 546.9234,457.4188 535.9344,464.8726"/>
    <polyline points="536.2839,466.1666 547.0642,458.4418 550.4269,457.8225 556.762,453.6346 559.7751,450.572 565.6843,448.4684"/>
    <polyline points="565.368,449.451 560.4172,451.176 556.4732,455.2574 551.388,458.5788 547.0965,459.5526 541.3989,464.0841 536.6043,467.3493"/>
    <polyline points="536.863,468.4309 542.6511,464.5994 547.0168,460.7688 552.1707,459.3274 556.1361,456.8347 561.0642,451.7949 565.1161,450.3914"/>
    <polyline points="564.9543,451.3248 561.8039,452.4287 555.785,458.3366 552.837,460.0668 546.8332,462.097 543.6961,465.1124 537.0336,469.4321"/>
    <polyline points="537.0987,470.3815 544.5464,465.6248 546.5646,463.5329 553.471,460.7956 555.4558,459.7406 562.7064,453.0777 564.8991,452.2866"/>
    <polyline points="564.956,453.3097 563.8111,453.7418 555.1819,461.0345 546.2383,465.0606 545.2513,466.1386 537.0516,471.3132"/>
    <polyline points="536.8971,472.263 545.8876,466.6554 554.9914,462.2172 565.1193,454.4205"/>
    <line x1="545.8876" x2="545.8876" y1="466.6554" y2="466.6554"/>
    <line x1="505.0834" x2="495.018" y1="490.37" y2="496.4412"/>
    <polyline points="494.9112,497.9909 496.0107,496.9688 505.3223,491.3032"/>
    <polyline points="505.6302,492.2439 497.2111,497.4901 494.9153,499.4549"/>
    <polyline points="495.03,500.8148 498.6024,498.0067 505.9757,493.2272"/>
    <line x1="506.3236" x2="495.2436" y1="494.2834" y2="502.0626"/>
    <line x1="495.5342" x2="506.6385" y1="503.202" y2="495.4359"/>
    <polyline points="506.888,496.6978 503.2767,499.5458 495.8722,504.2477"/>
    <polyline points="496.2232,505.2238 504.7181,500.0612 507.047,498.0713"/>
    <polyline points="507.099,499.5473 505.9818,500.5807 496.5513,506.1616"/>
    <line x1="496.823" x2="507.0388" y1="507.0964" y2="501.106"/>
    <line x1="497.0739" x2="486.3238" y1="483.5291" y2="491.1936"/>
    <polyline points="485.9759,489.8664 495.7619,482.8036 496.9452,482.5273"/>
    <polyline points="496.7201,481.5776 494.2848,482.0902 485.6304,488.4316"/>
    <polyline points="485.3224,486.9046 492.7118,481.3898 496.4214,480.6459"/>
    <polyline points="496.0797,479.6964 491.13,480.7032 485.0835,485.3104"/>
    <polyline points="484.938,483.6807 489.6285,480.0311 495.7297,478.6952"/>
    <polyline points="495.4072,477.6134 488.2809,479.3739 484.9007,482.0508"/>
    <polyline points="484.9754,480.4561 487.132,478.7319 495.145,476.4306"/>
    <polyline points="494.97,475.1365 486.1889,478.1049 485.1545,478.9285"/>
    <line x1="485.4198" x2="485.4198" y1="477.4929" y2="477.4929"/>
    <polyline points="485.7442,476.1648 493.8738,473.1474 494.942,472.2303"/>
    <polygon points="494.8999,473.7323 485.4198,477.4929"/>
    <polyline points="495.0919,470.6529 493.0393,472.5485 486.0945,474.9488"/>
    <polyline points="486.4352,473.8382 492.3441,471.9351 495.3343,469.03"/>
    <polyline points="495.6445,467.3964 491.7096,471.3067 486.7313,472.8153"/>
    <polyline points="486.9528,471.8535 491.0459,470.6632 495.9909,465.7879"/>
    <polyline points="496.3381,464.2375 490.2684,470.0046 487.0769,470.9203"/>
    <polyline points="487.0912,469.9797 489.314,469.3311 496.6507,462.7727"/>
    <polyline points="496.8969,461.4119 488.1532,468.6432 486.994,468.997"/>
    <polygon points="486.7953,467.9415 497.0515,460.1631"/>
    <line x1="486.7953" x2="486.7953" y1="467.9415" y2="467.9415"/>
    <polyline points="486.5154,466.7899 495.9767,459.4961 497.0987,459.0228"/>
    <polyline points="497.0338,457.9764 494.6963,458.844 486.1829,465.529"/>
    <polyline points="485.8316,464.1564 493.2422,458.2071 496.8633,456.9998"/>
    <polyline points="496.6047,456.0618 491.6791,457.5853 485.4974,462.6812"/>
    <polyline points="485.2143,461.1232 490.0925,456.9783 496.2843,455.1271"/>
    <polyline points="495.9348,454.1603 488.5723,456.3856 485.0113,459.5102"/>
    <polyline points="484.9091,457.8761 487.1956,455.8066 495.5918,453.129"/>
    <polyline points="495.2904,452.0077 486.0127,455.2403 484.918,456.2565"/>
    <line x1="485.0372" x2="485.0372" y1="454.6859" y2="454.6859"/>
    <polyline points="485.2545,453.1935 493.7948,450.131 494.9278,449.4396"/>
    <polygon points="495.0613,450.7797 485.0372,454.6859"/>
    <polyline points="494.9036,447.9931 492.7348,449.4673 485.5477,451.8008"/>
    <polyline points="485.887,450.5189 491.8717,448.7888 494.9912,446.4568"/>
    <polyline points="495.1815,444.8568 491.1586,448.0961 486.2378,449.3477"/>
    <polyline points="486.5641,448.2758 490.5203,447.3899 495.4552,443.2252"/>
    <polyline points="495.7844,441.5976 489.8675,446.671 486.8328,447.2816"/>
    <polyline points="487.0165,446.3358 489.1136,445.9406 496.1355,440.0092"/>
    <polyline points="496.4727,438.4912 488.1911,445.1998 487.0964,445.4039"/>
    <line x1="487.0644" x2="496.7615" y1="444.4501" y2="437.0674"/>
    <line x1="466.5639" x2="457.0987" y1="444.9774" y2="448.7549"/>
    <polyline points="457.0513,450.2729 458.1177,449.333 466.2376,446.2847"/>
    <polyline points="465.8868,447.4802 458.9463,449.9247 456.8966,451.8612"/>
    <polyline points="456.6504,453.4888 459.6379,450.5307 465.5476,448.5729"/>
    <polyline points="465.2543,449.5823 460.2718,451.1515 456.3377,455.1204"/>
    <polyline points="455.9904,456.7205 460.9382,451.7873 465.0371,450.5361"/>
    <polyline points="464.9179,451.468 461.721,452.4383 455.6441,458.2568"/>
    <polyline points="455.3339,459.7034 462.6823,453.1043 464.9091,452.4138"/>
    <polyline points="465.0114,453.4079 463.8504,453.785 455.0916,461.0437"/>
    <line x1="454.9419" x2="465.2145" y1="462.2718" y2="454.4798"/>
    <line x1="454.9279" x2="445.2542" y1="438.8775" y2="443.97"/>
    <line x1="445.5474" x2="454.9036" y1="442.3376" y2="437.8117"/>
    <line x1="454.991" x2="445.8866" y1="436.6478" y2="440.7342"/>
    <line x1="446.2374" x2="455.1812" y1="439.1927" y2="435.3737"/>
    <polyline points="455.4549,433.9883 451.5019,435.8645 446.5638,437.7393"/>
    <polyline points="446.8326,436.3916 450.862,435.0969 455.784,432.5023"/>
    <polyline points="456.1351,430.9362 450.1429,434.327 447.0164,435.1559"/>
    <polyline points="447.0964,434.0277 449.2708,433.5564 456.4723,429.3189"/>
    <polyline points="456.7612,427.6846 448.2003,432.7871 447.0645,432.9909"/>
    <line x1="446.9239" x2="456.9724" y1="432.0206" y2="426.0691"/>
    <line x1="444.9539" x2="435.7838" y1="421.4037" y2="425.5079"/>
    <polyline points="436.1349,424.3492 444.0871,420.8668 445.1154,419.7981"/>
    <polyline points="445.367,418.1651 443.3716,420.3202 436.4721,423.2878"/>
    <polyline points="436.7611,422.301 442.7327,419.7628 445.6831,416.5404"/>
    <polyline points="446.0314,414.9588 442.0811,419.1934 436.9723,421.3587"/>
    <polyline points="437.0843,420.426 441.33,418.6109 446.3764,413.4508"/>
    <polyline points="446.6829,412.0393 440.4114,418.0145 437.0856,419.4673"/>
    <polyline points="436.976,418.4495 439.289,417.4037 446.9197,410.7375"/>
    <polyline points="447.0625,409.5472 437.9649,416.778 436.7668,417.3455"/>
    <line x1="436.4793" x2="447.0969" y1="416.1371" y2="408.459"/>
    <polyline points="436.9011,392.8748 425.8945,397.4934 414.9942,402.8742 405.1152,410.3488 396.1345,414.1491 387.0161,420.966"/>
    <polyline points="386.8322,421.8977 387.8534,421.734 396.7697,414.7209 404.9538,411.6362 406.032,410.9606 415.1866,403.9017"/>
    <polyline points="415.4618,405.0182 407.1525,411.558 404.8991,412.8127 397.4692,415.306 395.4543,417.2791 388.5503,422.4982 386.5632,422.8496"/>
    <polyline points="386.2368,423.8554 389.185,423.2568 395.1808,418.91 398.3108,415.905 404.9565,413.889 408.4749,412.1414 415.7918,406.2408"/>
    <polyline points="416.143,407.5755 409.9593,412.7118 405.1203,414.8863 399.3454,416.5186 394.9908,420.5386 389.8475,424.0082 385.886,424.9434"/>
    <polyline points="385.5468,426.1335 390.6227,424.751 394.9035,422.1296 400.5874,417.1472 405.3737,415.8338 411.5352,413.27 416.4795,409.0172"/>
    <polyline points="416.7669,410.5496 413.1148,413.8173 405.6909,416.7655 402.0122,417.7909 394.9281,423.6518 391.5739,425.4837 385.2537,427.4352"/>
    <polyline points="385.0367,428.8465 392.7314,426.2051 395.0619,425.0806 403.5605,418.4496 414.6095,414.3548 416.9761,412.1473"/>
    <polyline points="417.0856,413.7782 415.9469,414.8841 405.1496,419.1233 395.2912,426.4012 384.9178,430.3543"/>
    <polyline points="384.9092,431.9358 395.5928,427.6097 406.6893,419.8114 417.0843,415.4068"/>
    <polyline points="413.7881,402.1303 414.9044,401.9097 424.3287,396.9796 425.5546,395.8824 436.6566,391.7295"/>
    <polyline points="436.345,390.4753 425.26,394.3278 422.8685,396.4671 414.9262,400.9757 412.7899,401.3964"/>
    <polyline points="411.978,400.6736 415.0574,400.0366 421.58,395.9542 425.0409,392.8572 432.2854,390.6906 435.9982,389.1093"/>
    <polyline points="435.6514,387.6399 430.7723,389.9423 424.9194,391.4899 420.4965,395.4391 415.2847,399.0573 411.2961,399.9631"/>
    <polyline points="410.6631,399.2659 415.5849,398.0069 419.613,394.92 424.9081,390.2344 429.407,389.1863 435.3401,386.086"/>
    <polyline points="435.096,384.4755 428.2375,388.4241 425.008,389.0879 415.9273,396.8616 409.9885,398.5827"/>
    <polyline points="409.19,397.914 416.277,395.6073 425.2091,388.0365 427.2749,387.6573 434.944,382.8416"/>
    <polyline points="434.8997,381.2202 426.491,386.8878 425.4907,387.0566 416.5984,394.2412 408.2085,397.2604"/>
    <polyline points="407.0194,396.6219 416.8586,392.7717 434.9674,379.6457"/>
    <line x1="425.8945" x2="425.8945" y1="397.4934" y2="397.4934"/>
    <line x1="466.9657" x2="456.0173" y1="512.9829" y2="518.328"/>
    <polyline points="456.3631,519.3599 457.5933,519.0792 467.0819,514.617"/>
    <polyline points="467.0877,516.2364 459.0781,519.8376 456.6718,520.482"/>
    <polyline points="456.9119,521.7108 460.4009,520.6016 466.9824,517.8065"/>
    <line x1="466.7768" x2="457.0588" y1="519.2982" y2="523.0518"/>
    <line x1="457.0977" x2="466.4919" y1="524.499" y2="520.6901"/>
    <polyline points="466.1567,521.9712 463.1893,522.9101 457.0245,526.0358"/>
    <polyline points="456.8467,527.6363 463.8405,523.6793 465.8055,523.1416"/>
    <polyline points="465.474,524.2128 464.4797,524.4453 456.5824,529.268"/>
    <line x1="456.2586" x2="456.2586" y1="530.8954" y2="530.8954"/>
    <polyline points="455.9084,532.4833 456.8917,531.4136 464.9999,526.152"/>
    <polyline points="464.9058,527.084 457.5661,531.9282 455.5674,534.0007"/>
    <polyline points="455.2704,535.4237 458.3642,532.4409 464.9232,528.0381"/>
    <polyline points="465.0503,529.0479 459.3452,532.9535 455.0478,536.738"/>
    <polyline points="454.9221,537.9403 460.5338,533.4677 465.2742,530.1413"/>
    <line x1="465.572" x2="454.9064" y1="531.3376" y2="539.0389"/>
    <line x1="455.0021" x2="465.9134" y1="540.0527" y2="532.6457"/>
    <line x1="466.2635" x2="455.1994" y1="534.063" y2="541.009"/>
    <line x1="455.4784" x2="455.4784" y1="541.9413" y2="541.9413"/>
    <polyline points="455.8104,542.8852 457.0498,542.7117 466.8499,537.1606"/>
    <polygon points="466.5867,535.5757 455.4784,541.9413"/>
    <polyline points="467.0263,538.7867 458.6326,543.4819 456.1617,543.8754"/>
    <polyline points="456.4964,544.9417 460.1377,544.2502 467.0979,540.4191"/>
    <polyline points="467.0575,542.0221 461.4906,545.0147 456.7804,546.1062"/>
    <polyline points="456.9847,547.3811 462.6458,545.7739 466.9091,543.5632"/>
    <polyline points="466.6678,545.0159 463.5947,546.526 457.0884,548.7671"/>
    <line x1="457.081" x2="466.3584" y1="550.2538" y2="546.363"/>
    <line x1="466.0123" x2="456.9633" y1="547.5979" y2="551.8203"/>
    <line x1="456.7472" x2="465.6648" y1="553.4378" y2="548.7255"/>
    <polygon points="465.196,525.2064 456.2586,530.8954"/>
  </g>
</svg>
