<?xml version="1.0" encoding="utf-8" ?>
<svg xmlns="http://www.w3.org/2000/svg" xmlns:cc="http://creativecommons.org/ns#" xmlns:dc="http://purl.org/dc/elements/1.1/" xmlns:ev="http://www.w3.org/2001/xml-events" xmlns:inkscape="http://www.inkscape.org/namespaces/inkscape" xmlns:rdf="http://www.w3.org/1999/02/22-rdf-syntax-ns#" xmlns:sodipodi="http://sodipodi.sourceforge.net/DTD/sodipodi-0.dtd" xmlns:xlink="http://www.w3.org/1999/xlink" baseProfile="tiny" height="22.86cm" version="1.2" viewBox="0 0 1152.0 864.0" width="30.48cm">
  <metadata>
    <rdf:RDF>
      <cc:Work>
        <dc:format>image/svg+xml</dc:format>
        <dc:source/>
        <dc:date>2021-10-05T21:43:52.130288</dc:date>
      </cc:Work>
    </rdf:RDF>
  </metadata>
  <defs/>
  <g fill="none" id="layer3.0" inkscape:groupmode="layer" inkscape:label="3" stroke="#00f" style="display:inline">
    <line x1="567.0561" x2="564.8974" y1="298.3661" y2="288.0"/>
    <polyline points="566.1073,288.0 568.1579,297.4325 568.0571,298.9135"/>
    <polyline points="568.871,299.4718 569.2447,296.6871 567.3652,288.0"/>
    <polyline points="568.6625,288.0 570.3168,296.1495 569.5541,300.0422"/>
    <polyline points="570.1872,300.6258 571.3748,295.8001 570.8793,290.9571 570.1307,288.0"/>
    <polyline points="571.5171,288.0 572.3654,291.6717 572.4194,295.5837 570.8607,301.2233"/>
    <polyline points="571.6571,301.8353 573.4514,295.42 573.6902,292.3735 572.8344,288.0"/>
    <polyline points="574.0385,288.0 574.8134,293.0614 572.6361,302.4622"/>
    <polyline points="573.8224,303.1043 575.7327,293.7349 575.0662,288.0"/>
    <polyline points="576.1125,288.0 576.4843,294.3935 575.202,303.7614 576.4843,294.3935"/>
    <polyline points="577.1361,295.0371 576.4121,303.3059 576.724,304.4335"/>
    <polyline points="578.311,305.12 577.6312,303.0196 577.7749,295.6655"/>
    <polyline points="578.49,296.279 578.8578,302.8356 579.8729,305.8204"/>
    <polyline points="581.3245,306.5339 580.0904,302.6673 579.3561,296.8779"/>
    <polyline points="580.4196,297.4628 581.3273,302.4254 582.6017,307.2594"/>
    <line x1="583.6729" x2="581.6894" y1="307.9958" y2="298.0345"/>
    <polyline points="583.1356,298.594 583.8069,301.447 584.5458,308.7418"/>
    <polyline points="585.2653,309.4959 585.046,300.6528 584.6948,299.1424"/>
    <line x1="586.2824" x2="585.9054" y1="299.6809" y2="310.2567"/>
    <line x1="565.1522" x2="566.5451" y1="334.8043" y2="344.1694"/>
    <line x1="567.761" x2="566.0208" y1="343.6973" y2="335.4526"/>
    <line x1="567.0871" x2="568.9673" y1="336.0858" y2="343.3988"/>
    <line x1="570.1628" x2="568.3596" y1="343.2093" y2="336.704"/>
    <line x1="569.8078" x2="571.3463" y1="337.3074" y2="343.0432"/>
    <line x1="572.5167" x2="571.368" y1="342.8109" y2="337.8967"/>
    <line x1="572.9554" x2="573.6733" y1="338.4725" y2="342.4348"/>
    <line x1="574.8154" x2="574.48" y1="341.865" y2="339.0358"/>
    <line x1="575.8636" x2="575.9427" y1="339.5876" y2="341.0879"/>
    <line x1="577.0548" x2="577.0548" y1="340.1291" y2="340.1291"/>
    <line x1="563.5511" x2="561.5759" y1="355.9795" y2="365.3769"/>
    <line x1="560.4206" x2="562.6028" y1="364.7045" y2="355.3363"/>
    <polyline points="561.4483,354.678 560.7014,359.7704 559.4715,364.047"/>
    <polyline points="558.6979,363.4046 559.7122,359.9795 560.0959,354.0049"/>
    <polyline points="558.5911,353.3173 558.7171,360.3161 558.0361,362.7773"/>
    <polyline points="557.4012,362.165 557.7147,360.8378 557.0084,352.6159"/>
    <line x1="555.4369" x2="556.7033" y1="351.9015" y2="361.5671"/>
    <polyline points="562.9289,366.0638 563.6513,359.0646 564.3241,356.6075"/>
    <polyline points="564.9856,357.2206 564.6345,358.5457 564.4341,366.7645"/>
    <line x1="566.0169" x2="565.6206" y1="367.4783" y2="357.8192"/>
    <polyline points="587.052,380.9225 584.8715,390.3542 586.9599,404.0833 585.0985,413.5223"/>
    <polyline points="585.9985,414.2197 588.1672,404.7001 585.9687,389.7596 588.0186,381.6042"/>
    <polyline points="588.8055,382.2713 587.081,389.3625 589.2593,402.2948 589.1667,405.3022 587.184,412.9262 587.1003,414.9303"/>
    <polyline points="588.4059,415.6532 588.2469,412.7611 589.9796,405.8901 590.3869,401.2028 588.2084,389.1166 589.4739,382.9233"/>
    <polyline points="590.1075,383.5603 589.3507,388.9473 590.4171,392.9784 591.4994,400.0854 590.662,406.4647 589.3241,412.5684 589.8784,416.3873"/>
    <polyline points="591.4496,417.1312 590.4162,412.2635 592.5968,399.0326 591.9933,393.6711 590.5075,388.7653 590.7965,384.1822"/>
    <polyline points="591.6206,384.7892 591.678,388.4837 593.4786,394.3773 593.6792,398.122 591.9691,407.5776 591.5233,411.7827 593.0325,417.8837"/>
    <polyline points="594.5381,418.6431 592.6456,411.0957 592.7667,408.1182 594.7471,397.4046 594.8021,395.0961 592.8616,388.0347 592.6341,385.3819"/>
    <polyline points="593.8554,385.961 595.9239,395.8265 593.747,408.6501 593.7829,410.2111 595.8917,419.4079"/>
    <polyline points="597.0476,420.1763 594.9347,409.1748 596.8419,396.5672 595.2637,386.5273"/>
    <line x1="596.8419" x2="596.8419" y1="396.5672" y2="396.5672"/>
    <line x1="586.9599" x2="586.9599" y1="404.0833" y2="404.0833"/>
    <line x1="635.5681" x2="636.5913" y1="397.2853" y2="408.9799"/>
    <polyline points="637.2614,409.7464 637.5929,408.7761 637.1525,397.7977"/>
    <polyline points="638.7209,398.311 638.5872,408.4493 637.8948,410.5082"/>
    <polyline points="638.5818,411.2636 639.5758,407.9401 640.1868,398.827"/>
    <polyline points="641.4831,399.3473 640.5606,407.2234 639.4025,412.0112"/>
    <line x1="640.4118" x2="642.575" y1="412.7494" y2="399.8736"/>
    <polyline points="643.466,400.4076 642.5252,405.2611 641.6289,413.477"/>
    <polyline points="643.0338,414.1927 643.5087,404.1438 644.1977,400.9507"/>
    <polyline points="644.8418,401.5042 644.4952,403.0515 644.571,414.8955"/>
    <line x1="646.16" x2="645.4866" y1="415.5847" y2="402.0694"/>
    <line x1="685.4167" x2="686.72" y1="472.3196" y2="484.0563"/>
    <polyline points="687.4231,484.8221 687.7332,483.8487 686.9854,472.8321"/>
    <polyline points="688.5697,473.3457 688.7371,483.5149 688.059,485.5829"/>
    <polyline points="688.7175,486.3372 689.7334,482.9967 690.08,473.8622"/>
    <polyline points="691.441,474.3834 690.7236,482.271 689.484,487.0833"/>
    <polyline points="690.4237,487.8199 691.7093,481.3535 692.6055,474.9109"/>
    <line x1="693.5633" x2="691.569" y1="475.4463" y2="488.5456"/>
    <polyline points="692.9134,489.2592 693.6743,479.1783 694.3435,475.991"/>
    <polyline points="695.0085,476.5463 694.6572,478.0891 694.4128,489.9599"/>
    <polyline points="695.9939,490.6466 695.6426,477.1136 696.1969,500.0438 695.4527,513.7656 696.69,523.2534"/>
    <polyline points="697.3841,523.9594 697.7001,522.914 697.0263,514.3728 696.6819,512.9252 696.8299,500.6871 697.1806,499.4852 697.5679,491.319 697.2335,490.0437 696.336,477.6936"/>
    <polyline points="697.1676,478.2875 698.4709,489.2349 699.0473,491.9764 698.1628,499.1185 697.5078,501.3455 697.9163,511.9191 698.6077,514.9657 698.7014,522.7033 698.0184,524.6781"/>
    <polyline points="698.6829,525.4084 699.6956,522.5398 700.108,515.5449 699.1544,510.8162 698.3123,502.0187 700.3626,492.6187 698.1902,478.8956"/>
    <polyline points="699.4204,479.5187 700.9318,487.1591 701.4751,493.2459 699.3015,502.7064 701.4536,516.1113 700.6842,522.3334 699.462,526.149"/>
    <polyline points="700.4185,526.8986 701.6688,522.0018 702.6003,516.666 701.6343,508.6705 700.4984,503.4079 701.1177,498.5335 702.3847,493.8581 702.1521,486.0419 700.8359,480.1568"/>
    <polyline points="702.379,480.81 703.3635,484.9902 703.1293,494.4558 702.1112,498.2271 701.8867,504.1224 702.8726,507.7907 703.5414,517.21 701.5815,527.6557"/>
    <polyline points="702.9413,528.4188 703.6334,520.7635 704.3089,517.7448 704.1075,507.1093 703.4141,504.8488 703.1118,497.7444 703.7783,495.0397 704.5648,484.0813 703.9682,481.4782"/>
    <polyline points="705.5132,482.1611 705.7547,483.3659 704.1209,497.0553 705.0019,505.5861 705.3372,506.6337 704.9678,518.2719 704.6169,519.8484 704.4508,529.1861"/>
    <polyline points="707.604,530.7265 707.2739,529.7857 706.3059,519.309 708.0043,507.0875 706.0154,496.7164 708.1664,483.5681"/>
    <polyline points="709.1932,484.2905 707.2131,494.0176 707.0895,497.2542 709.2714,507.8487 707.1522,519.8225 708.5102,529.5366 709.0718,531.496"/>
    <polyline points="710.3708,532.2628 708.1923,520.3349 708.5991,515.6071 710.332,508.6148 710.1736,505.7458 708.3693,497.7837 708.2691,492.9168 710.0282,485.0242"/>
    <polyline points="710.7238,485.7679 709.3391,491.9157 709.823,498.3065 711.3553,505.3728 711.1957,509.3839 709.6147,514.8054 709.4397,520.8481 710.9673,528.5346 711.4656,533.025"/>
    <polyline points="712.3591,533.781 712.1849,527.7285 710.8686,521.3638 710.6411,514.2101 711.9092,510.1544 712.5238,504.8067 711.3858,498.8241 710.4238,491.0823 711.3582,486.52"/>
    <polyline points="712.0217,487.2792 711.5234,490.4528 713.6785,504.033 712.5476,510.9245 711.6794,513.8123 712.4191,521.8837 713.3933,526.7474 713.0926,534.5293"/>
    <polyline points="713.7373,535.2684 714.5911,525.6557 712.7308,513.566 714.8186,503.0769 714.493,499.851 712.6382,490.025 712.7988,488.0438"/>
    <polyline points="713.7526,488.8121 715.8702,500.3637 715.9437,501.9978 713.796,513.3965 715.7771,524.5382 714.3814,535.9969"/>
    <polyline points="716.0041,537.4175 718.1673,524.0376 718.1097,522.5738 716.0016,513.9658 715.9701,512.9337 718.0299,501.3966"/>
    <polyline points="718.8243,501.9202 717.0797,512.4854 717.329,514.7082 719.2548,521.8556 719.1766,524.6018 717.1941,535.5474 717.096,538.1078"/>
    <polyline points="718.3924,538.7837 718.2545,534.6634 719.9974,525.1786 720.3851,521.3448 718.8169,515.4404 718.2044,511.8334 719.4966,502.4507"/>
    <polyline points="720.1298,502.9897 719.3441,510.9795 721.5003,521.0168 719.3291,533.6275 719.8582,539.4449"/>
    <polyline points="721.4266,540.0909 720.4185,532.5142 721.3178,526.3735 722.6003,520.8124 720.4983,509.9639 720.8142,503.5387"/>
    <polyline points="721.6303,504.0988 721.6664,508.8573 723.4639,517.5647 723.6854,520.6489 721.9878,526.9928 721.5229,531.4126 723.011,540.7218"/>
    <polyline points="724.5222,541.3377 722.6425,530.4096 722.7779,527.6272 724.7559,520.4361 724.7964,518.2456 722.8478,507.7476 722.634,504.6712"/>
    <polyline points="723.8456,505.2568 725.9282,518.9118 723.7486,528.2767 723.7771,529.5736 725.8844,541.939"/>
    <polyline points="727.0503,542.5262 724.9264,528.9413 726.8553,519.5631 725.2459,505.8565"/>
    <polyline points="717.0538,500.8783 714.8756,513.2147 716.9502,523.485 715.1131,536.7136 716.9502,523.485 714.8756,513.2147 717.0538,500.8783 714.9127,489.5824"/>
    <line x1="736.3382" x2="735.8466" y1="502.0916" y2="511.9117"/>
    <polyline points="736.5037,512.6497 736.8303,511.6736 737.8509,502.6614"/>
    <line x1="739.2155" x2="737.2673" y1="503.2191" y2="513.397"/>
    <line x1="738.203" x2="740.3843" y1="514.1522" y2="503.7659"/>
    <polyline points="741.3462,504.3031 739.8076,511.0292 739.344,514.9138"/>
    <polyline points="740.6846,515.6802 740.8143,510.5671 742.1294,504.8321"/>
    <polyline points="742.796,505.3544 741.8306,509.9001 742.1815,516.4495"/>
    <polyline points="743.7618,517.22 742.8578,509.0329 743.4299,505.8718"/>
    <polyline points="744.1212,506.3859 743.897,508.0082 745.3368,517.99"/>
    <line x1="748.1381" x2="746.0947" y1="519.5213" y2="529.9919"/>
    <polyline points="745.2934,529.4581 746.819,518.7577 744.9493,506.8984"/>
    <polyline points="749.255,520.2792 747.3296,527.6428 747.0797,530.5349"/>
    <polyline points="748.2723,531.0883 748.3646,527.0254 750.1684,521.0297"/>
    <polyline points="750.9158,521.7714 749.4123,526.6083 749.6571,531.6533"/>
    <polyline points="751.1824,532.2311 750.4737,526.3492 751.5659,522.5029"/>
    <polyline points="752.2058,523.2229 751.5493,526.1757 752.7699,532.8224"/>
    <polyline points="754.3297,533.428 752.6398,525.9995 752.9245,523.9304"/>
    <polyline points="753.7961,524.6245 753.7452,525.7326 755.7768,534.0484"/>
    <polyline points="758.1129,535.3344 756.0042,547.5272 755.9694,548.9921"/>
    <polyline points="754.9335,548.3919 757.048,534.6838 754.8659,525.3043"/>
    <polyline points="758.9803,536.0 757.0896,546.5043 757.2127,549.5784"/>
    <polyline points="758.6384,550.1513 758.1899,545.395 759.6962,536.6802"/>
    <polyline points="760.3352,537.3747 759.3054,544.2879 760.1872,550.7119"/>
    <polyline points="761.7763,551.2613 760.4359,543.2709 760.9867,538.0825"/>
    <polyline points="761.7373,538.8029 761.5813,542.4149 763.3154,551.8007"/>
    <polyline points="764.7237,552.3316 762.741,541.7604 762.6552,539.5347"/>
    <line x1="763.777" x2="765.945" y1="540.2767" y2="552.8554"/>
    <line x1="766.9585" x2="765.1006" y1="553.3739" y2="541.0274"/>
    <line x1="726.8553" x2="726.8553" y1="519.5631" y2="519.5631"/>
    <polygon points="705.6036,518.7927 706.0348,529.9559 705.6036,518.7927 706.5602,506.3328 705.14,496.1689 706.932,482.8579 705.14,496.1689 706.5602,506.3328"/>
    <line x1="695.0396" x2="696.9966" y1="536.611" y2="546.713"/>
    <polyline points="695.9388,545.9691 693.8635,537.4819 693.7571,536.0487"/>
    <polyline points="692.6801,535.4739 692.701,538.1532 694.6744,545.2352"/>
    <polyline points="693.2323,544.5124 691.5527,538.6193 691.8023,534.8858"/>
    <polyline points="691.0795,534.2835 690.4192,538.9132 691.6751,543.802"/>
    <polyline points="690.0871,543.1048 689.3007,539.1007 690.4384,533.6666"/>
    <polyline points="689.7901,533.0346 688.1973,539.2674 688.5582,542.4216"/>
    <polyline points="687.1676,541.753 687.109,539.5032 689.0473,532.3875"/>
    <polyline points="688.1403,531.7253 686.0354,539.8847 685.9679,541.0994"/>
    <line x1="684.976" x2="687.0306" y1="540.4609" y2="531.0483"/>
    <polyline points="635.9317,524.6631 635.7027,512.0215 636.4714,502.0096 635.2127,488.5861"/>
    <polyline points="634.5158,487.9004 634.2017,489.1377 634.8992,501.4415 635.2429,502.8565 634.3563,524.1374"/>
    <polyline points="632.8733,523.6043 633.7365,512.8737 634.3942,510.5535 634.0089,503.5008 633.3169,500.8604 633.1995,489.897 633.8811,487.2292"/>
    <polyline points="633.2186,486.5729 632.2047,490.8418 631.8133,500.2655 632.7711,503.942 633.594,509.8366 632.7542,513.5996 631.5529,523.0622"/>
    <polyline points="630.4346,522.5098 632.6104,509.1324 630.4627,499.6562 631.2156,491.9148 632.4435,485.9318"/>
    <polyline points="631.4925,485.3057 629.3103,499.032 630.2913,504.3976 631.4191,508.4419 630.7825,515.5743 629.5199,521.9458"/>
    <polyline points="628.7715,521.3693 629.7896,516.6924 630.0355,507.7657 629.0527,504.5684 628.3639,498.3928 629.248,494.1103 630.3351,484.6946"/>
    <polyline points="628.9803,484.0979 628.2659,495.0605 627.5924,497.7384 627.8174,504.8191 628.5109,507.1043 628.7898,517.7815 628.121,520.7792"/>
    <polyline points="627.4814,520.1748 627.7816,518.757 626.9236,506.458 626.5871,505.2236 626.9316,497.069 627.2827,495.8266 627.4739,483.5152"/>
    <polyline points="625.8907,482.9454 626.2964,496.3851 625.3633,505.8268 626.7636,519.5558"/>
    <line x1="636.4714" x2="636.4714" y1="502.0096" y2="502.0096"/>
    <line x1="626.2964" x2="626.2964" y1="496.3851" y2="496.3851"/>
    <polyline points="596.1391,490.6804 595.5866,513.7257 596.5751,523.3273"/>
    <polyline points="595.7914,522.6196 594.0709,513.1204 595.0693,500.751 595.3974,499.4017 594.8996,491.1419 594.5505,490.01"/>
    <polyline points="593.0176,489.3251 593.6595,491.4324 594.6377,498.7716 592.7014,512.5003 594.8288,521.9253"/>
    <polyline points="593.6595,521.2451 591.9186,515.2344 591.527,511.8652 593.7073,498.1564 591.62,488.6262"/>
    <polyline points="590.4119,487.9142 592.572,497.5559 592.0937,503.8119 590.5597,511.2149 590.7133,515.4319 592.2943,520.5797"/>
    <polyline points="590.7813,519.9293 589.5191,515.5961 589.7722,510.5495 591.0879,504.9083 591.2364,496.9694 589.9521,492.0242 589.4116,487.19"/>
    <polyline points="588.5982,486.4548 588.7265,492.4098 589.7429,496.3962 590.0727,505.8992 589.1035,509.8695 588.337,515.8172 589.1963,519.294"/>
    <polyline points="587.629,518.6738 587.168,516.1746 589.0467,506.7187 588.1638,495.8354 587.5085,492.9909 587.9154,485.7098"/>
    <polyline points="587.2823,484.9565 586.2998,493.779 588.0087,507.3331 586.0129,516.7219 586.1655,518.0683"/>
    <polyline points="583.784,516.8995 585.893,508.0049 585.945,507.016 583.7774,494.2152 585.8116,483.4312"/>
    <polyline points="584.8321,482.6625 582.6549,493.6913 582.7418,496.9501 584.7245,506.2742 584.8139,508.1778 582.8961,516.3346"/>
    <polyline points="582.1665,515.7813 583.7199,508.3547 581.5819,498.0127 581.7362,493.1728 583.5407,484.841 583.6451,481.8922"/>
    <polyline points="582.265,481.1218 582.4943,485.3032 580.985,492.658 580.4363,498.9395 582.6108,508.6235 581.5232,515.2384"/>
    <polyline points="580.8776,514.7047 581.4865,509.0544 579.3055,499.6765 581.4344,485.9704 580.7426,480.3534"/>
    <polyline points="579.1556,479.5885 580.3602,486.8377 578.1899,500.2058 578.6399,503.2342 580.3473,509.6874 580.142,514.1785"/>
    <polyline points="579.2453,513.6583 579.1935,510.524 577.2136,502.4642 577.0893,500.5484 578.979,491.1185 579.2713,487.8624 577.5939,478.829"/>
    <polyline points="576.1427,478.0763 578.1673,488.9723 578.1124,490.6011 575.9695,501.6937 578.1471,513.1424"/>
    <polyline points="575.3748,512.1167 573.876,501.1291 575.9141,491.0939 573.7453,477.6872 573.7955,476.5978"/>
    <polyline points="572.9232,475.8746 572.6396,478.2318 574.7653,491.9472 572.8326,501.4576 573.8046,511.6033"/>
    <polyline points="572.2211,511.0873 571.8015,501.969 572.7536,498.6414 573.6022,492.5986 572.7717,488.4655 571.5489,478.9842 572.2041,475.1637"/>
    <polyline points="571.5641,474.466 570.4731,479.9234 571.1842,487.9077 572.4257,493.0463 572.0935,497.8942 570.7817,502.6878 570.7135,510.5667"/>
    <polyline points="569.3567,510.0401 569.772,503.5995 571.3236,497.1563 571.2366,493.3269 569.6585,487.3377 569.4115,480.9932 570.9142,473.7823"/>
    <polyline points="570.1673,473.1132 568.3636,482.1127 568.273,486.7547 570.036,493.5085 570.3792,496.4292 568.771,504.6531 568.1972,509.5058"/>
    <polyline points="567.244,508.9624 569.229,495.714 567.0796,486.1579 567.3284,483.1916 569.2546,472.459"/>
    <polyline points="568.1385,471.82 566.0938,485.5465 567.8803,495.0117 566.4674,508.4084"/>
    <polyline points="565.8041,507.8427 566.3781,494.3231 565.2919,484.9202 566.8201,471.1961"/>
    <line x1="546.8543" x2="545.2473" y1="471.7644" y2="461.468"/>
    <line x1="543.8463" x2="545.9278" y1="460.9168" y2="471.0123"/>
    <polyline points="544.7968,470.2688 542.8489,463.1102 542.634,460.3541"/>
    <polyline points="541.6296,459.7789 541.6673,463.6277 543.4651,469.5352"/>
    <polyline points="541.9742,468.8128 540.499,463.961 540.8127,459.1903"/>
    <polyline points="540.128,458.5875 539.3446,464.1683 540.3959,468.1028"/>
    <polyline points="538.8186,467.4061 538.2047,464.3317 539.4948,457.9701"/>
    <polyline points="538.8228,457.3376 537.0798,464.5415 537.3302,466.7234"/>
    <polyline points="536.0021,466.0553 535.9699,464.8792 538.0291,456.69"/>
    <line x1="537.0536" x2="534.8752" y1="456.0273" y2="465.4022"/>
    <line x1="546.4302" x2="545.7478" y1="448.26" y2="438.6771"/>
    <line x1="547.3368" x2="547.4218" y1="439.2705" y2="447.9606"/>
    <line x1="548.4085" x2="548.875" y1="447.7706" y2="439.8502"/>
    <line x1="550.2815" x2="549.392" y1="440.417" y2="447.6047"/>
    <line x1="550.3741" x2="551.5006" y1="447.373" y2="440.9721"/>
    <line x1="552.512" x2="551.3566" y1="441.5164" y2="446.9982"/>
    <line x1="552.3412" x2="553.3343" y1="446.4298" y2="442.0515"/>
    <line x1="554.0223" x2="553.3297" y1="442.5788" y2="445.6541"/>
    <line x1="554.3238" x2="554.6558" y1="444.6963" y2="443.0998"/>
    <line x1="555.3251" x2="555.3251" y1="443.6163" y2="443.6163"/>
    <line x1="566.3781" x2="566.3781" y1="494.3231" y2="494.3231"/>
    <polygon points="574.9329,500.9244 577.0482,490.0787 574.8661,477.3321 577.0482,490.0787 574.9329,500.9244 576.8449,512.6291"/>
    <polygon points="586.9578,507.7476 584.8724,517.4771 586.9578,507.7476 585.1017,494.7463 586.6085,484.1965 585.1017,494.7463"/>
    <polyline points="596.9401,546.8388 594.8801,559.1057 597.0551,570.4754 595.992,576.0"/>
    <polyline points="596.9571,576.0 598.1645,570.2953 596.0253,557.9861 597.7496,547.599"/>
    <polyline points="598.4302,548.3643 597.1849,556.9137 599.2589,570.0185 597.9095,576.0"/>
    <polyline points="598.8665,576.0 600.3384,569.576 599.2372,560.645 598.3581,555.9701 599.0632,549.133"/>
    <polyline points="599.739,549.9034 599.5442,555.2121 600.8195,561.16 601.4035,568.9303 599.8504,576.0"/>
    <polyline points="600.7085,576.0 600.9146,574.2831 602.4548,568.0821 602.3226,561.679 600.7421,554.6619 600.5398,550.6736"/>
    <polyline points="601.5242,551.4421 603.6725,562.2035 603.493,567.0705 601.6902,575.0239 601.6633,576.0"/>
    <polyline points="602.6592,576.0 602.642,575.7545 604.5193,565.9655 604.8241,562.7353 602.7162,552.2069"/>
    <polyline points="604.1005,552.9664 605.7698,563.2758 603.8708,576.0"/>
    <polyline points="606.4056,576.0 607.2013,564.3883 607.5387,562.954 607.2129,554.4631"/>
    <polyline points="608.7729,555.1973 608.5302,562.2811 607.8366,564.9627 607.5753,575.9248 607.5945,576.0"/>
    <polyline points="609.0393,576.0 608.7984,575.0027 608.5364,565.5505 609.5168,561.8136 610.2205,555.9204"/>
    <polyline points="611.4923,556.6312 609.3785,566.1523 610.0281,573.9428 610.4656,576.0"/>
    <polyline points="611.8776,576.0 610.4137,566.7689 612.5578,557.3288"/>
    <polyline points="613.4257,558.0124 612.4649,561.1641 611.6564,567.4004 612.5014,571.7372 613.0419,576.0"/>
    <polyline points="614.1462,576.0 613.7414,570.7657 613.0817,568.0471 613.4496,560.9291 614.142,558.6814"/>
    <polyline points="614.7811,559.3354 614.4382,560.549 614.6302,568.7089 614.9813,569.9722 615.1492,576.0"/>
    <polygon points="616.0626,576.0 616.2193,569.3854 615.4324,559.9743 616.2193,569.3854"/>
    <polyline points="617.3551,576.0 617.7587,570.0763 616.1826,560.5981"/>
    <polyline points="617.1,561.2071 619.1675,570.7808 618.4472,576.0"/>
    <polyline points="619.644,576.0 620.3894,571.498 618.2211,561.8016"/>
    <polyline points="619.5441,562.3824 621.1186,568.401 621.4036,572.227 620.5283,576.0"/>
    <polyline points="621.3928,576.0 622.2282,572.9665 622.3224,568.1143 621.0289,562.9502"/>
    <polyline points="622.6049,563.5062 623.515,567.6582 622.9175,573.7151 622.2303,576.0"/>
    <polyline points="623.0947,576.0 623.5512,574.4715 624.6954,566.9975 624.1844,564.0514"/>
    <polyline points="625.6787,564.5872 625.8625,566.1359 624.0041,576.0"/>
    <line x1="625.0059" x2="627.0156" y1="576.0" y2="565.1151"/>
    <line x1="606.5408" x2="605.278" y1="563.8264" y2="576.0"/>
    <polyline points="605.278,576.0 606.5408,563.8264 605.6255,553.719 606.5408,563.8264"/>
    <line x1="597.0551" x2="597.0551" y1="570.4754" y2="570.4754"/>
    <line x1="506.7802" x2="504.9751" y1="506.5979" y2="495.9427"/>
    <polyline points="504.1678,495.4072 503.9291,496.9283 505.2821,505.8352"/>
    <polyline points="503.7014,505.0786 502.8956,497.7405 503.4884,494.8623"/>
    <polyline points="502.8554,494.3068 501.8737,498.3471 502.1269,504.3297"/>
    <polyline points="500.6461,503.5898 500.862,498.7547 502.1785,493.7394"/>
    <polyline points="501.3756,493.1591 499.8594,499.0075 499.3288,502.8605"/>
    <line x1="498.2141" x2="500.3885" y1="502.1428" y2="492.5651"/>
    <line x1="499.1939" x2="497.3025" y1="491.9566" y2="501.4378"/>
    <line x1="496.5564" x2="497.8073" y1="500.7464" y2="491.3334"/>
    <polyline points="496.281,490.695 495.9069,500.0694 496.281,490.695 495.377,476.9943 496.7525,467.4429 494.9944,454.1873 497.0216,443.9515"/>
    <polyline points="495.6936,443.1943 495.871,444.136 493.9524,455.2357 495.547,467.754 494.3794,477.8685 495.2666,499.407"/>
    <polyline points="494.5468,498.7598 493.8054,491.5533 493.1343,489.3731 493.3882,478.8979 494.0818,475.8132 494.3319,467.9497 493.6605,466.0017 492.9227,456.3522 494.7064,444.3041 494.2053,442.4312"/>
    <polyline points="492.628,441.6638 493.5283,444.5452 492.8953,452.5818 491.9042,457.447 492.0907,465.2643 493.1085,468.1142 493.3806,475.2427 492.4018,480.0092 491.6886,488.6901 492.5652,491.7625 493.6734,498.1277"/>
    <polyline points="492.6015,497.5106 490.4194,487.993 492.5362,474.6844 491.8784,468.3376 490.6214,464.5174 490.8955,458.4346 492.2106,452.0611 492.3378,444.935 491.0497,440.894"/>
    <polyline points="489.5587,440.1234 491.1359,445.521 491.3939,451.5448 489.3204,463.7626 490.6433,468.699 491.4983,474.137 490.4364,482.124 489.3566,487.2826 490.089,492.1338 491.3237,496.9082"/>
    <polyline points="489.8716,496.32 488.8565,492.4682 488.491,486.56 489.4538,482.9703 490.253,473.5994 488.2234,463.0013 490.3895,451.0314 489.9239,446.3137 488.2268,439.3539"/>
    <polyline points="487.0957,438.5872 489.1774,450.5189 487.9144,460.2691 487.3279,462.2351 488.1648,470.0112 488.8257,473.07 488.4689,483.614 487.7763,485.8261 487.6299,492.9871 488.3095,495.7451"/>
    <polyline points="486.7226,495.1827 486.4109,493.7136 487.1376,485.0824 487.4801,484.0546 487.2761,472.5473 486.925,470.9565 486.5931,461.466 486.9302,460.5235 487.7765,450.0057 486.1691,437.8251"/>
    <polyline points="485.4122,437.0691 486.2417,449.49 485.6871,472.0297 486.4856,484.3301 485.2009,494.6317"/>
    <line x1="486.4856" x2="486.4856" y1="484.3301" y2="484.3301"/>
    <line x1="495.377" x2="495.377" y1="476.9943" y2="476.9943"/>
    <line x1="496.7525" x2="496.7525" y1="467.4429" y2="467.4429"/>
    <line x1="494.9944" x2="494.9944" y1="454.1873" y2="454.1873"/>
    <line x1="486.2417" x2="486.2417" y1="449.49" y2="449.49"/>
    <line x1="467.0559" x2="464.8991" y1="448.2564" y2="461.7732"/>
    <polyline points="464.0168,461.0843 465.934,449.238 465.8292,447.691"/>
    <polyline points="464.4165,447.1374 464.7971,450.33 463.291,460.3817"/>
    <polyline points="462.6489,459.6662 463.6455,451.4474 462.875,446.5941"/>
    <polyline points="461.2858,446.0601 462.4799,452.5002 462.0019,458.9388"/>
    <polyline points="461.2623,458.2007 461.3009,453.4108 459.7393,445.5336"/>
    <polyline points="458.3177,445.0132 460.1096,454.1282 460.3599,457.4532"/>
    <line x1="459.2553" x2="457.0798" y1="456.6978" y2="444.4972"/>
    <line x1="456.0494" x2="457.9473" y1="443.9839" y2="455.9361"/>
    <polyline points="456.473,455.1698 455.2114,443.4715 456.8811,431.5221"/>
    <polyline points="455.43,430.7603 455.6939,431.7515 454.514,442.9582"/>
    <polyline points="453.8793,442.4422 454.4949,432.1228 453.8683,430.0049"/>
    <polyline points="452.2813,429.2573 453.2855,432.6869 453.217,441.9219"/>
    <polyline points="452.4426,441.3955 452.067,433.4585 450.7589,428.5191"/>
    <polyline points="449.3786,427.7916 450.8409,434.4131 451.4922,440.8615"/>
    <line x1="450.3357" x2="448.1915" y1="440.3184" y2="427.0759"/>
    <polyline points="447.2118,426.3731 448.372,436.6109 448.9815,439.7649"/>
    <polyline points="447.4756,439.1997 447.1328,437.6814 446.4148,425.6841"/>
    <polyline points="445.1079,424.3495 445.2061,416.1513 444.8601,414.9826"/>
    <polyline points="446.4365,415.6386 445.741,425.0094 445.8926,438.6217"/>
    <polyline points="444.4251,423.7048 443.9708,416.4809 443.2809,414.3117"/>
    <polyline points="441.7874,413.6263 442.7322,416.6862 443.6118,423.0752"/>
    <line x1="442.6117" x2="440.4516" y1="422.4605" y2="412.927"/>
    <line x1="439.3162" x2="441.4037" y1="412.2146" y2="421.8605"/>
    <polyline points="440.0063,421.2745 439.0146,417.4031 438.3857,411.49"/>
    <polyline points="437.6259,410.7544 437.7806,417.9309 438.4734,420.7017"/>
    <polyline points="436.8848,420.1413 436.5521,418.6665 436.9705,410.0092"/>
    <line x1="436.3334" x2="435.3307" y1="409.2556" y2="419.5921"/>
    <line x1="406.1004" x2="406.1004" y1="403.6909" y2="403.6909"/>
    <line x1="404.8605" x2="404.513" y1="403.9058" y2="402.945"/>
    <line x1="403.6205" x2="402.9883" y1="404.0694" y2="402.191"/>
    <line x1="401.6046" x2="402.382" y1="401.4303" y2="404.272"/>
    <line x1="401.1468" x2="400.4132" y1="404.5967" y2="400.6646"/>
    <line x1="399.4294" x2="399.9167" y1="399.8956" y2="405.1031"/>
    <line x1="398.6932" x2="398.6291" y1="405.817" y2="399.1252"/>
    <line x1="397.9535" x2="397.4779" y1="398.355" y2="406.7245"/>
    <line x1="396.2723" x2="397.3205" y1="407.7754" y2="397.5868"/>
    <line x1="396.6397" x2="395.0776" y1="396.8224" y2="408.8924"/>
    <polyline points="391.7399,417.3919 392.6084,421.7806 391.5623,429.3766"/>
    <polyline points="392.2024,429.889 393.7221,421.2235 393.286,418.1577"/>
    <polyline points="394.7069,418.9268 394.8207,420.8581 392.922,430.4021"/>
    <line x1="393.795" x2="395.9439" y1="430.9176" y2="419.6973"/>
    <line x1="396.9733" x2="394.8664" y1="420.4674" y2="431.4373"/>
    <polyline points="390.9126,428.863 391.4796,422.5453 390.1507,416.6309"/>
    <polyline points="388.6087,415.8765 390.3359,423.4944 390.1662,428.3465"/>
    <polyline points="389.2542,427.8255 389.1778,424.5697 387.1954,415.1301"/>
    <line x1="385.9677" x2="388.1389" y1="414.3933" y2="427.2981"/>
    <line x1="386.8212" x2="384.9479" y1="426.7629" y2="413.6674"/>
    <line x1="414.8652" x2="417.0474" y1="386.7109" y2="373.2125"/>
    <line x1="417.9964" x2="415.9674" y1="373.7885" y2="386.1255"/>
    <line x1="417.0847" x2="418.7698" y1="385.3333" y2="374.3779"/>
    <line x1="419.4315" x2="418.2171" y1="374.9815" y2="384.3629"/>
    <line x1="419.3643" x2="420.0665" y1="383.2763" y2="375.5998"/>
    <line x1="420.7645" x2="420.5257" y1="376.2332" y2="382.1577"/>
    <line x1="421.7007" x2="421.6037" y1="381.0971" y2="376.8816"/>
    <line x1="422.6355" x2="422.8884" y1="377.5452" y2="380.1738"/>
    <line x1="424.0877" x2="423.8748" y1="379.441" y2="378.2235"/>
    <line x1="425.2975" x2="425.2975" y1="378.916" y2="378.916"/>
    <polyline points="456.7339,511.5952 455.0076,525.3235 457.0146,534.7748 454.8565,548.1965"/>
    <polyline points="456.0813,548.7526 455.9779,547.1853 458.0833,534.4146 456.1904,524.5073 457.4414,512.2314"/>
    <polyline points="458.0783,512.8827 457.3854,523.5187 459.1381,534.1919 457.1143,546.0804 457.4925,549.2979"/>
    <polyline points="459.0332,549.8338 458.2653,544.9694 459.268,536.9125 460.1796,534.0275 459.5877,527.1227 458.5912,522.4234 458.7342,513.5491"/>
    <polyline points="459.4949,514.2301 459.8067,521.3071 461.1199,527.695 461.2089,533.8313 459.9145,537.6484 459.4305,543.9408 460.6224,550.3617"/>
    <polyline points="462.1696,550.8833 460.609,543.0679 460.6529,538.394 462.227,533.5192 462.5162,528.255 461.0304,520.2595 460.4268,514.9252"/>
    <polyline points="461.5636,515.6337 463.7227,528.8038 463.2353,533.0289 461.5536,539.1478 461.7999,542.3944 463.5927,551.4"/>
    <polyline points="464.8324,551.9138 462.6562,539.9083 464.7215,529.3428 463.4959,518.6498 462.9006,516.3547"/>
    <polyline points="464.395,517.087 464.7344,518.1494 465.5337,529.8733 463.9625,540.6739 465.8647,552.4263"/>
    <polyline points="466.7044,552.9392 465.4356,541.4427 466.2158,530.3968 465.9745,517.8295"/>
    <polyline points="746.9895,471.5267 745.0515,461.6557 746.6741,448.1345 745.4717,438.7323"/>
    <polyline points="747.0476,439.3588 747.6826,447.7355 747.3637,448.8229 746.2421,460.6757 748.0493,471.2979 747.8429,472.2678"/>
    <polyline points="748.5498,473.0178 749.0956,471.1325 747.4441,459.5844 747.9974,449.525 748.6827,447.4884 748.6272,439.9704"/>
    <polyline points="750.122,440.5675 749.6758,447.3187 748.6653,450.24 748.6562,458.4668 749.6654,463.3193 750.1292,470.9407 749.1865,473.7752"/>
    <polyline points="749.8427,474.5385 751.1513,470.6373 751.1796,463.8537 749.877,457.4129 749.4511,450.967 750.6636,447.1373 751.4595,441.1506"/>
    <polyline points="752.5971,441.7207 750.4163,451.7047 752.5467,464.3804 752.1631,470.1586 750.6043,475.306"/>
    <polyline points="751.5374,476.0759 753.1659,469.4738 753.7182,464.901 751.5885,452.4518 753.5295,442.2787"/>
    <polyline points="754.2907,442.8258 753.6123,445.7596 752.9561,453.2069 753.5762,455.2687 754.6828,465.4171 752.6755,476.8464"/>
    <polyline points="754.0136,477.6159 755.4682,465.9305 754.8159,454.9396 754.4707,453.9684 754.5962,444.907 754.9467,443.3632"/>
    <polyline points="755.5835,443.8923 756.056,454.7346 756.1359,466.443 755.5088,478.3824"/>
    <line x1="756.056" x2="756.056" y1="454.7346" y2="454.7346"/>
    <line x1="746.6741" x2="746.6741" y1="448.1345" y2="448.1345"/>
    <polyline points="756.5778,431.1427 755.126,421.2185 756.9416,407.7333"/>
    <polyline points="755.53,407.0548 755.7664,408.3124 754.3994,420.644"/>
    <polyline points="753.7571,420.0562 754.5786,409.0985 753.9889,406.3909"/>
    <polyline points="752.3998,405.7422 753.3791,410.0643 753.1104,419.4542"/>
    <polyline points="752.3716,418.8376 752.1692,411.1485 750.8527,405.1085"/>
    <polyline points="749.4302,404.4899 750.9503,412.2675 751.4703,418.206"/>
    <line x1="750.367" x2="748.1911" y1="417.5592" y2="403.886"/>
    <polyline points="747.1594,403.2963 748.4913,414.2595 749.0601,416.8974"/>
    <polyline points="747.5867,416.2207 747.2545,414.9986 746.3203,402.7201"/>
    <polyline points="744.9875,401.6045 745.3195,392.275 744.9824,391.3242"/>
    <polyline points="746.5436,392.0757 745.6223,402.1565 746.0151,415.5298"/>
    <line x1="756.0094" x2="758.0152" y1="421.7805" y2="431.8868"/>
    <line x1="759.2736" x2="757.0927" y1="432.6393" y2="422.3312"/>
    <polyline points="758.3811,422.8717 760.1861,430.5603 760.3251,433.3988"/>
    <polyline points="761.1809,434.1636 761.3657,430.2441 759.8411,423.4035"/>
    <polyline points="761.4069,423.9281 762.532,429.7486 761.8893,434.932"/>
    <polyline points="762.5264,435.7023 763.6842,429.0461 762.9925,424.4471"/>
    <polyline points="764.5083,424.9622 764.8219,428.1482 763.1818,436.4727"/>
    <polyline points="763.9414,437.2414 765.9446,427.1032 765.8777,425.4751"/>
    <line x1="767.0521" x2="764.8718" y1="425.9876" y2="438.0067"/>
    <polyline points="744.3257,401.0627 744.0888,392.439 743.3952,390.5656"/>
    <polyline points="741.8721,389.8014 742.8533,392.6577 743.5521,400.5298"/>
    <polyline points="742.603,400.0043 741.6146,393.0112 740.4908,389.0333"/>
    <line x1="739.3024" x2="741.4477" y1="388.2632" y2="399.4847"/>
    <polyline points="740.0946,398.9692 739.1348,394.3041 738.3215,387.4927"/>
    <polyline points="737.5235,386.7237 737.8972,395.2417 738.5894,398.4561"/>
    <polyline points="737.0066,397.9436 736.6634,396.3106 736.8492,385.9578"/>
    <line x1="736.2162" x2="735.4353" y1="385.1969" y2="397.43"/>
  </g>
</svg>
