<?xml version="1.0" encoding="utf-8" ?>
<svg xmlns="http://www.w3.org/2000/svg" xmlns:cc="http://creativecommons.org/ns#" xmlns:dc="http://purl.org/dc/elements/1.1/" xmlns:ev="http://www.w3.org/2001/xml-events" xmlns:inkscape="http://www.inkscape.org/namespaces/inkscape" xmlns:rdf="http://www.w3.org/1999/02/22-rdf-syntax-ns#" xmlns:sodipodi="http://sodipodi.sourceforge.net/DTD/sodipodi-0.dtd" xmlns:xlink="http://www.w3.org/1999/xlink" baseProfile="tiny" height="22.86cm" version="1.2" viewBox="0 0 1152.0 864.0" width="30.48cm">
  <metadata>
    <rdf:RDF>
      <cc:Work>
        <dc:format>image/svg+xml</dc:format>
        <dc:source/>
        <dc:date>2021-10-20T11:32:10.700029</dc:date>
      </cc:Work>
    </rdf:RDF>
  </metadata>
  <defs/>
  <g fill="none" id="layer1" inkscape:groupmode="layer" inkscape:label="1" stroke="#00f" style="display:inline">
    <polyline points="574.2899,497.6222 570.3165,497.2235 566.5016,496.0434 562.9971,494.1289 561.4056,492.919 558.5858,490.0874 556.1004,486.9554 553.9401,483.5909 551.3531,478.1833 550.0725,474.3954 549.1562,470.5034 548.6123,466.542 548.4458,462.547 548.7903,456.5596 549.3629,452.6015 550.7295,446.762 552.0497,442.9883 553.7759,439.3822 555.8871,435.9871 558.358,432.844 561.2212,430.0613 564.7258,428.1641 566.6503,427.6267 574.596,426.7437 580.4443,425.4185 586.0995,423.4237 591.5043,420.8244 596.6162,417.688 601.3649,414.0262 605.6353,409.8168 610.5972,403.5478 612.0106,402.1344 615.2841,399.8516 618.9995,398.395 624.9461,397.7119 630.9121,398.2528 634.7812,399.2564 638.4882,400.7518 643.6366,403.8167 646.7292,406.3505 650.8539,410.7004 654.2968,415.6077 657.034,420.9432 659.1827,426.5423 660.6226,432.3597 660.982,436.3408 660.6456,442.3256 659.4676,448.2039 658.1638,451.9802 657.2117,453.7377 654.7047,456.8418 653.1869,458.1424 649.7668,460.2065 644.2353,462.5149 640.3768,463.5626 636.4303,464.2034 632.4389,464.3492 628.5383,463.5184 626.7053,462.722 623.3825,460.5055 617.5414,455.0562 613.9217,450.2808 611.5534,444.7879 610.1976,438.9452 606.816,429.5431 606.0054,425.6295 605.7205,421.6417 605.9192,415.6483 606.8093,409.7181 608.6701,401.9415 609.087,397.9656 609.0259,393.9685 608.4876,390.0073 607.5462,386.1209 603.4086,374.8805 603.132,372.901 603.3261,368.9161 604.3193,365.0455 605.8982,361.3747 609.174,356.3556 613.1192,351.8411 617.661,347.93 621.0187,345.7598 633.7441,339.957 640.4979,335.6816 643.3977,332.9407 644.5763,331.3264 646.3036,327.7296 646.8267,325.8005 647.2195,321.8272 647.1009,319.8317 646.2404,315.9329 643.1258,308.5729 636.8254,298.3752 635.3532,294.6612 634.5343,290.7509 634.5776,284.7674 635.4678,280.8732 637.0355,277.199 639.231,273.8617 643.445,269.6028 646.616,267.1675 650.0219,265.0733 655.4906,262.6196 661.2944,261.1323 667.2732,260.746 673.2165,261.4921 677.0166,262.7268 682.2234,265.6787 686.8397,269.5066 689.669,272.3329 693.5016,276.9453 695.7555,280.2484 699.3467,287.3851 700.6487,291.1658 702.0448,296.9984 702.8289,302.9442 702.9321,308.9386 702.5145,312.9151 700.6063,322.7242 700.3391,328.7134 700.6255,332.7016 701.3486,336.633 702.5653,340.4406 705.9887,347.666 707.3376,351.4298 708.2878,355.3134 708.9647,361.2698 708.9445,365.2683 708.2123,371.2185 707.3032,375.1129 705.4133,380.8043 701.9478,388.0068 697.4652,394.6243 693.4253,399.0475 691.8085,400.2223 688.1807,401.8788 684.2445,402.5208 682.2475,402.4443 678.3431,401.5984 670.8031,398.9426 661.9151,394.3752 658.1223,393.1305 654.1485,392.7524 648.168,393.1927 640.3465,394.8358 634.7898,397.073 629.784,400.3629 623.9313,405.8089 620.6993,408.1613 617.2036,410.1004 611.5817,412.1723 605.7159,413.4218 601.7476,413.9186 595.7602,413.8138 591.8412,413.0302 588.0524,411.7542 580.8979,408.1967 576.9826,407.4976 574.9957,407.6991 571.3005,409.1701 566.6233,412.9088 564.0103,415.9326 561.8686,419.3067 560.3406,422.9917 560.0315,424.965 560.4596,428.9215 562.2216,432.4897 563.5414,433.9889 569.8263,438.9247 573.9254,443.298 576.262,446.5424 579.1191,451.8121 581.167,457.446 582.5919,465.3065 582.744,471.3004 581.9058,477.2253 580.4375,480.9392 578.2738,484.2959 575.4976,487.1666 570.726,490.8008 567.7576,493.4802 565.0288,496.4031 562.7082,499.6548 560.3863,505.1682 559.4259,511.0834 558.4515,514.9587 556.8814,518.6331 554.732,521.9998 551.9411,524.8547 543.4869,530.1695 538.8367,533.9536 534.7192,538.3131 531.1098,543.1023 528.0805,548.2764 525.7912,553.8172 524.2539,559.6129 523.4543,565.5554 523.4852,571.5495 524.0116,575.513 524.9371,579.4027 527.8325,586.8514 531.8154,593.7809 535.6548,598.369 538.8935,600.7041 542.5452,602.3189 544.4771,602.833 548.4481,603.254 552.4255,602.8938 556.2587,601.7729 558.0758,600.9393 559.8035,599.9334 562.9326,597.4509 566.679,592.7868 569.0704,587.3031 569.4672,583.3442 568.455,579.4963 566.1615,576.2451 562.9297,573.9065 557.4721,571.4401 553.5992,570.4527 547.637,569.8354 541.6508,570.1391 535.7959,571.4181 532.0469,572.8067 524.8861,576.362 519.142,578.0601 517.1596,578.3165 513.1728,578.1337 511.2222,577.6971 507.538,576.1627 500.8566,571.7748 494.8547,566.4954 489.6661,560.4154 482.9934,550.4531 480.331,547.4703 477.353,544.8049 473.9649,542.6891 464.5936,539.2282 459.1806,536.6463 454.0998,533.465 451.1382,530.7832 448.6625,527.6473 445.8043,522.3806 443.9091,516.6959 443.0353,510.7676 443.0992,506.7719 444.3038,500.9068 446.638,495.3846 450.6687,488.4817 454.3107,483.7177 458.5634,479.4925 463.3761,475.9174 468.5871,472.95 474.1513,470.7304 480.0579,469.7476 484.0536,469.8234 491.9279,471.2009 495.9179,471.4487 501.8879,470.9346 505.7737,469.9975 509.4931,468.5348 512.9704,466.5645 516.1366,464.1255 520.2987,459.8099 523.4495,457.3572 527.0357,455.6015 530.9108,454.6488 534.8977,454.7333 538.7174,455.8792 540.4768,456.8271 543.5349,459.3866"/>
  </g>
</svg>
