<?xml version="1.0" standalone="no"?>
<!DOCTYPE svg PUBLIC "-//W3C//DTD SVG 1.1//EN" 
    "http://www.w3.org/Graphics/SVG/1.1/DTD/svg11.dtd">
<svg width="1056px" height="816px"
    xmlns="http://www.w3.org/2000/svg" version="1.1" viewBox="0 0 1056 816">
  <g fill="none" stroke="black" stroke-width="1.06px">
    <path d="M528 672 L533.1699958845276 671.2693490925584 L555.9179777764488 668.0544850998155 L561.0879736609763 667.3238341923739 L566.176435621999 665.1577651427058 L588.5656682504989 655.6270613241664 L593.6541302115216 653.4609922744984 L598.5808101642143 649.9362391585662 L620.2582019560623 634.4273254484642 L625.184881908755 630.902572332532 L629.8720831672077 626.1440012867071 L655.1829699628529 600.4477176392527 L659.5567725632217 594.623903415184 L678.8015040048441 568.9991208292815 L683.1753066052129 563.1753066052129 L687.1667330677068 556.4925607252076 L704.7290095026799 527.0884788531846 L708.7204359651738 520.4057329731793 L712.2665391101167 513.1007950416703 L727.8693929478654 480.95906814303066 L731.4154960928083 473.65413021152165 L734.4603517552652 465.98578129655556 L747.8577166700751 432.2450460707048 L750.9025723325319 424.5766971557387 L753.398161319797 416.816592340627 L764.378752863764 382.6721311541354 L766.8743418510292 374.91202633902367 L768.7813072339809 367.33507120558465 L777.1719549189688 333.9964686184529 L779.0789203019206 326.4195134850139 L780.3671880973038 319.29412544628474 L786.0355663969906 287.9424180758764 L787.3238341923739 280.8170300371472 L787.9730876474816 274.3956295167095 L790.829802849956 246.14146722678367 L791.4790563050638 239.720066706346 L791.4790563050638 204.58450390719162 L790.829802849956 200.22052461988358 L787.9730876474816 181.01901575572805 L787.3238341923739 176.65503646842 L786.0355663969906 173.57160572305432 L780.3671880973038 160.00451044344518 L779.0789203019206 156.9210796980795 L777.1719549189688 155.22742956603236 L768.7813072339809 147.77536898502495 L766.8743418510292 146.08171885297782 L764.378752863764 145.83784773453385 L753.398161319797 144.76481481338027 L750.9025723325319 144.5209436949363 L747.8577166700751 145.73549084604647 L734.4603517552652 151.07949831093123 L731.4154960928083 152.2940454620414 L727.8693929478654 154.9239849443741 L712.2665391101168 166.4957186666381 L708.7204359651739 169.1256581489708 L704.72900950268 173.07782304522755 L687.1667330677068 190.46734858875715 L683.1753066052129 194.41951348501388 L678.8015040048441 199.55389638342206 L659.5567725632216 222.14518113641802 L655.1829699628528 227.2795640348262 L650.4957687044 233.41427686150098 L625.1848819087551 266.54172612554476 L620.2582019560624 273.4594436201854 L598.5808101642144 303.89740059660426 L593.6541302115218 310.81511809124487 L588.5656682504991 318.2707766628267 L566.1764356219992 351.07567437778664 L561.0879736609764 358.53133294936845 L555.9179777764489 366.2608121760296 L533.1699958845276 400.2705207733388 L522.8300041154724 415.7294792266611 L500.08202222355123 449.73918782397027 L494.91202633902367 457.46866705063144 L489.823564378001 464.9243256222132 L467.43433174950115 497.7292233371731 L462.3458697884784 505.18488190875485 L457.41918983578574 512.1025994033955 L430.81511809124504 549.4582738744551 L426.12791683279227 555.5929867011299 L405.5042312955999 582.585723138499 L400.8170300371471 588.7204359651738 L396.44322743677833 593.854818863582 L377.198495995156 616.4461036165778 L372.82469339478723 621.580486514986 L368.8332669322933 625.5326514112428 L351.27099049732016 642.9221769547723 L347.27956403482625 646.8743418510292 L343.73346088988336 649.5042813333619 L328.1306070521345 661.0760150556259 L324.5845039071916 663.7059545379586 L321.5396482447348 664.9205016890687 L308.1422833299248 670.2645091539537 L305.09742766746797 671.4790563050638 L302.6018386802028 671.2351851866197 L291.6212471362359 670.1621522654661 L289.1256581489708 669.9182811470221 L287.21869276601905 668.224631014975 L278.82804508103123 660.7725704339676 L276.92107969807944 659.0789203019206 L275.6328119026961 655.9954895565548 L269.9644336030095 642.4283942769456 L268.6761658076262 639.3449635315799 L268.02691235251837 634.9809842442719 L265.17019715004415 615.7794753801163 L264.5209436949363 611.4154960928083 L264.5209436949363 576.2799332936543 L265.17019715004415 569.8585327732166 L268.02691235251837 541.6043704832908 L268.6761658076262 535.1829699628531 L269.9644336030095 528.057581924124 L275.6328119026961 496.7058745537154 L276.92107969807944 489.5804865149862 L278.82804508103123 482.00353138154725 L287.21869276601893 448.66492879441563 L289.12565814897073 441.0879736609767 L291.6212471362359 433.3278688458649 L302.6018386802029 399.183407659373 L305.0974276674681 391.42330284426123 L308.1422833299249 383.75495392929514 L321.53964824473474 350.01421870344444 L324.58450390719156 342.34586978847835 L328.13060705213445 335.0409318569694 L343.7334608898832 302.89920495833 L347.2795640348261 295.59426702682106 L368.8332669322931 259.5074392747925 L372.824693394787 252.82469339478715 L377.1984959951558 247.0008791707185 L400.81703003714694 215.55228236074763 L405.50423129559977 210.7937113149227 L426.1279168327922 189.85599871329305 L430.81511809124504 185.0974276674681 L435.7417980439377 181.5726745515359 L457.4191898357855 166.06376084143403 L462.3458697884782 162.5390077255018 L467.4343317495009 160.37293867583372 L489.8235643780008 150.84223485729433 L494.91202633902356 148.67616580762626 L500.0820222235511 147.94551490018466 L522.8300041154723 144.7306509074416 L527.9999999999999 144 L533.1699958845275 144.7306509074416 L555.9179777764488 147.9455149001846 L561.0879736609763 148.6761658076262 L566.176435621999 150.84223485729427 L588.5656682504989 160.37293867583367 L593.6541302115216 162.53900772550173 L598.5808101642144 166.06376084143398 L620.2582019560623 181.57267455153578 L625.1848819087551 185.09742766746803 L629.8720831672078 189.85599871329288 L650.4957687044 210.7937113149223 L655.1829699628527 215.55228236074714 L659.5567725632214 221.37609658481585 L678.8015040048441 247.0008791707183 L683.1753066052129 252.824693394787 L708.7204359651738 295.5942670268209 L712.2665391101167 302.89920495832985 L727.8693929478653 335.04093185696917 L731.4154960928082 342.3458697884781 L734.460351755265 350.01421870344427 L747.8577166700752 383.7549539292951 L750.902572332532 391.42330284426123 L753.3981613197972 399.1834076593729 L764.378752863764 433.3278688458644 L766.8743418510292 441.08797366097605 L768.7813072339809 448.66492879441506 L777.1719549189687 482.00353138154657 L779.0789203019204 489.5804865149856 L780.3671880973038 496.70587455371486 L786.0355663969905 528.0575819241236 L787.3238341923739 535.1829699628529 L787.9730876474816 541.6043704832905 L790.829802849956 569.8585327732163 L791.4790563050638 576.2799332936539 L791.4790563050638 611.4154960928083 L790.829802849956 615.7794753801164 L787.9730876474816 634.980984244272 L787.3238341923739 639.3449635315801 L786.0355663969906 642.4283942769457 L780.3671880973038 655.995489556555 L779.0789203019206 659.0789203019206 L777.1719549189688 660.7725704339676 L768.7813072339808 668.224631014975 L766.874341851029 669.9182811470222 L764.3787528637639 670.1621522654661 L753.398161319797 671.2351851866198 L750.9025723325319 671.4790563050638 L747.8577166700751 670.2645091539536 L734.460351755265 664.9205016890687 L731.4154960928082 663.7059545379585 L727.8693929478653 661.0760150556257 L712.2665391101166 649.5042813333619 L708.7204359651737 646.874341851029 L704.7290095026798 642.9221769547723 L687.1667330677068 625.5326514112429 L683.175306605213 621.5804865149862 L678.8015040048442 616.4461036165781 L659.5567725632216 593.8548188635816 L655.1829699628527 588.7204359651735 L650.4957687043999 582.5857231384987 L625.184881908755 549.4582738744549 L620.2582019560623 542.5405563798143 L593.6541302115219 505.184881908755 L588.5656682504991 497.72922333717315 L566.176435621999 464.924325622213 L561.0879736609762 457.46866705063115 L555.9179777764487 449.73918782397004 L533.1699958845277 415.7294792266613 L522.8300041154725 400.27052077333906 L500.08202222355146 366.2608121760302 L494.91202633902395 358.53133294936913 L489.8235643780012 351.0756743777873 L467.4343317495011 318.2707766628271 L462.34586978847835 310.81511809124527 L457.4191898357857 303.89740059660465 L435.7417980439379 273.45944362018594 L430.8151180912452 266.5417261255453 L426.1279168327924 260.4070132988704 L405.50423129559994 233.41427686150098 L400.8170300371471 227.27956403482608 L396.44322743677833 222.14518113641793 L377.1984959951559 199.5538963834221 L372.8246933947872 194.41951348501397 L368.8332669322933 190.46734858875726 L351.2709904973203 173.07782304522775 L347.2795640348264 169.12565814897104 L343.73346088988353 166.4957186666383 L328.13060705213485 154.9239849443743 L324.58450390719196 152.29404546204157 L321.539648244735 151.07949831093137 L305.09742766746785 144.5209436949363 L302.6018386802027 144.7648148133803 L291.621247136236 145.83784773453388 L289.12565814897084 146.08171885297787 L287.21869276601905 147.77536898502495 L278.82804508103123 155.22742956603219 L276.9210796980795 156.92107969807927 L275.6328119026962 160.00451044344499 L269.9644336030096 173.5716057230543 L268.67616580762626 176.65503646842 L268.0269123525185 181.01901575572796 L265.17019715004415 200.22052461988292 L264.52094369493636 204.58450390719088 L264.52094369493636 234.2301350189776 L264.5209436949363 239.7200667063455 L265.17019715004415 246.14146722678328 L268.02691235251837 274.3956295167095 L268.6761658076262 280.8170300371473 L269.9644336030095 287.9424180758764 L275.6328119026961 319.2941254462845 L276.92107969807944 326.4195134850137 L278.82804508103123 333.99646861845264 L287.21869276601893 367.33507120558426 L289.12565814897073 374.9120263390232 L291.62124713623587 382.6721311541349 L302.6018386802026 416.8165923406263 L305.09742766746774 424.576697155738 L308.14228332992457 432.2450460707041 L321.5396482447347 465.9857812965554 L324.5845039071915 473.6541302115216 L328.1306070521344 480.95906814303055 L343.7334608898833 513.1007950416698 L347.2795640348262 520.4057329731788 L351.2709904973201 527.0884788531841 L368.8332669322931 556.4925607252078 L372.824693394787 563.1753066052131 L377.1984959951558 568.9991208292817 L396.4432274367781 594.6239034151835 L400.8170300371469 600.447717639252 L405.5042312955997 605.206288685077 L430.815118091245 630.9025723325318 L435.74179804393765 634.427325448464 L457.41918983578546 649.936239158566 L462.3458697884781 653.4609922744982 L467.43433174950087 655.6270613241662 L489.823564378001 665.1577651427058 L494.9120263390237 667.3238341923739 L500.08202222355123 668.0544850998155 L522.8300041154723 671.2693490925584 L527.9999999999999 672" />
  </g>
</svg>