<?xml version="1.0" encoding="utf-8" ?>
<svg xmlns="http://www.w3.org/2000/svg" xmlns:cc="http://creativecommons.org/ns#" xmlns:dc="http://purl.org/dc/elements/1.1/" xmlns:ev="http://www.w3.org/2001/xml-events" xmlns:inkscape="http://www.inkscape.org/namespaces/inkscape" xmlns:rdf="http://www.w3.org/1999/02/22-rdf-syntax-ns#" xmlns:sodipodi="http://sodipodi.sourceforge.net/DTD/sodipodi-0.dtd" xmlns:xlink="http://www.w3.org/1999/xlink" baseProfile="tiny" height="22.86cm" version="1.2" viewBox="0 0 1152.0 864.0" width="30.48cm">
  <metadata>
    <rdf:RDF>
      <cc:Work>
        <dc:format>image/svg+xml</dc:format>
        <dc:source/>
        <dc:date>2021-10-05T20:11:20.415394</dc:date>
      </cc:Work>
    </rdf:RDF>
  </metadata>
  <defs/>
  <g fill="none" id="layer2.0" inkscape:groupmode="layer" inkscape:label="2" stroke="#00f" style="display:inline">
    <line x1="566.0" x2="586.0" y1="247.2479" y2="235.7009"/>
    <line x1="586.0" x2="566.0" y1="238.2669" y2="249.8139"/>
    <line x1="566.0" x2="586.0" y1="252.3799" y2="240.8329"/>
    <line x1="586.0" x2="566.0" y1="243.3989" y2="254.9459"/>
    <line x1="566.0" x2="586.0" y1="257.5119" y2="245.9649"/>
    <line x1="586.0" x2="566.0" y1="248.5309" y2="260.0779"/>
    <line x1="566.0" x2="586.0" y1="262.6439" y2="251.0969"/>
    <line x1="586.0" x2="566.0" y1="253.6629" y2="265.2099"/>
    <line x1="566.0" x2="586.0" y1="267.7759" y2="256.2289"/>
    <line x1="586.0" x2="566.0" y1="261.3609" y2="272.9079"/>
    <polygon points="566.0,270.3419 586.0,258.7949"/>
    <line x1="566.0" x2="586.0" y1="275.4739" y2="263.9269"/>
    <line x1="586.0" x2="566.0" y1="266.4929" y2="278.0399"/>
    <line x1="566.0" x2="586.0" y1="280.6059" y2="269.0589"/>
    <line x1="586.0" x2="566.0" y1="271.6249" y2="283.1719"/>
    <line x1="566.0" x2="586.0" y1="285.7379" y2="274.1909"/>
    <line x1="586.0" x2="566.0" y1="276.7569" y2="288.3039"/>
    <line x1="566.0" x2="586.0" y1="290.8699" y2="279.3229"/>
    <line x1="586.0" x2="566.0" y1="281.8889" y2="293.4359"/>
    <line x1="586.0" x2="606.0" y1="304.9829" y2="293.4359"/>
    <line x1="606.0" x2="586.0" y1="296.0019" y2="307.5489"/>
    <line x1="586.0" x2="606.0" y1="310.1149" y2="298.5679"/>
    <line x1="606.0" x2="586.0" y1="301.1339" y2="312.6809"/>
    <line x1="586.0" x2="606.0" y1="315.2469" y2="303.6999"/>
    <line x1="606.0" x2="586.0" y1="306.2659" y2="317.8129"/>
    <line x1="586.0" x2="606.0" y1="320.3789" y2="308.8319"/>
    <line x1="606.0" x2="586.0" y1="311.3979" y2="322.9449"/>
    <line x1="586.0" x2="606.0" y1="325.511" y2="313.9639"/>
    <line x1="606.0" x2="586.0" y1="316.5299" y2="328.077"/>
    <line x1="606.0" x2="546.0" y1="339.624" y2="374.265"/>
    <line x1="546.0" x2="606.0" y1="376.831" y2="342.19"/>
    <line x1="606.0" x2="546.0" y1="344.756" y2="379.397"/>
    <line x1="546.0" x2="606.0" y1="381.963" y2="347.322"/>
    <line x1="606.0" x2="546.0" y1="349.888" y2="384.529"/>
    <line x1="546.0" x2="606.0" y1="387.095" y2="352.454"/>
    <line x1="606.0" x2="546.0" y1="355.02" y2="389.661"/>
    <line x1="546.0" x2="606.0" y1="392.227" y2="357.586"/>
    <line x1="606.0" x2="546.0" y1="360.152" y2="394.793"/>
    <line x1="546.0" x2="586.0" y1="397.359" y2="374.265"/>
    <line x1="586.0" x2="646.0" y1="376.831" y2="342.19"/>
    <polyline points="646.0,339.624 586.0,374.265 606.0,362.718"/>
    <line x1="626.0" x2="626.0" y1="374.265" y2="374.265"/>
    <line x1="626.0" x2="686.0" y1="397.359" y2="362.718"/>
    <line x1="686.0" x2="626.0" y1="365.284" y2="399.925"/>
    <line x1="626.0" x2="686.0" y1="402.491" y2="367.85"/>
    <line x1="686.0" x2="626.0" y1="370.416" y2="405.057"/>
    <line x1="626.0" x2="686.0" y1="407.623" y2="372.982"/>
    <line x1="686.0" x2="626.0" y1="375.548" y2="410.189"/>
    <line x1="626.0" x2="686.0" y1="412.755" y2="378.114"/>
    <line x1="686.0" x2="626.0" y1="380.68" y2="415.321"/>
    <line x1="626.0" x2="686.0" y1="417.887" y2="383.246"/>
    <line x1="686.0" x2="586.0" y1="385.812" y2="443.547"/>
    <line x1="586.0" x2="623.7778" y1="440.981" y2="419.17"/>
    <line x1="621.5556" x2="586.0" y1="417.887" y2="438.415"/>
    <line x1="586.0" x2="619.3333" y1="435.849" y2="416.604"/>
    <line x1="617.1111" x2="586.0" y1="415.321" y2="433.283"/>
    <line x1="586.0" x2="614.8889" y1="430.717" y2="414.038"/>
    <line x1="612.6667" x2="586.0" y1="412.755" y2="428.151"/>
    <line x1="586.0" x2="610.4444" y1="425.585" y2="411.472"/>
    <line x1="608.2222" x2="586.0" y1="410.189" y2="423.019"/>
    <polygon points="586.0,420.453 606.0,408.906"/>
    <line x1="586.0" x2="586.0" y1="420.453" y2="420.453"/>
    <line x1="586.0" x2="606.0" y1="417.887" y2="406.34"/>
    <line x1="606.0" x2="586.0" y1="403.774" y2="415.321"/>
    <line x1="586.0" x2="606.0" y1="412.755" y2="401.208"/>
    <line x1="606.0" x2="586.0" y1="398.642" y2="410.189"/>
    <line x1="586.0" x2="606.0" y1="407.623" y2="396.076"/>
    <line x1="606.0" x2="586.0" y1="393.51" y2="405.057"/>
    <line x1="586.0" x2="606.0" y1="402.491" y2="390.944"/>
    <line x1="606.0" x2="586.0" y1="388.378" y2="399.925"/>
    <line x1="586.0" x2="646.0" y1="394.793" y2="360.152"/>
    <polyline points="646.0,362.718 586.0,397.359 606.0,385.812"/>
    <line x1="586.0" x2="646.0" y1="387.095" y2="352.454"/>
    <line x1="646.0" x2="586.0" y1="349.888" y2="384.529"/>
    <line x1="586.0" x2="646.0" y1="381.963" y2="347.322"/>
    <line x1="646.0" x2="586.0" y1="344.756" y2="379.397"/>
    <line x1="586.0" x2="646.0" y1="389.661" y2="355.02"/>
    <line x1="646.0" x2="586.0" y1="357.586" y2="392.227"/>
    <line x1="606.0" x2="606.0" y1="432.0" y2="432.0"/>
    <line x1="646.0" x2="586.0" y1="455.094" y2="489.735"/>
    <line x1="586.0" x2="646.0" y1="492.301" y2="457.66"/>
    <line x1="646.0" x2="586.0" y1="460.226" y2="494.867"/>
    <line x1="586.0" x2="646.0" y1="497.433" y2="462.792"/>
    <line x1="646.0" x2="586.0" y1="465.358" y2="499.999"/>
    <line x1="586.0" x2="646.0" y1="502.565" y2="467.924"/>
    <line x1="646.0" x2="586.0" y1="470.49" y2="505.131"/>
    <line x1="586.0" x2="646.0" y1="507.697" y2="473.056"/>
    <line x1="646.0" x2="586.0" y1="475.622" y2="510.263"/>
    <line x1="586.0" x2="648.2222" y1="515.395" y2="479.471"/>
    <line x1="650.4444" x2="586.0" y1="480.754" y2="517.961"/>
    <line x1="586.0" x2="652.6667" y1="520.527" y2="482.037"/>
    <line x1="654.8889" x2="586.0" y1="483.32" y2="523.093"/>
    <line x1="586.0" x2="657.1111" y1="525.659" y2="484.603"/>
    <line x1="659.3333" x2="586.0" y1="485.886" y2="528.225"/>
    <line x1="586.0" x2="661.5556" y1="530.791" y2="487.169"/>
    <line x1="663.7778" x2="586.0" y1="488.452" y2="533.357"/>
    <line x1="586.0" x2="586.0" y1="535.923" y2="535.923"/>
    <line x1="586.0" x2="646.0" y1="538.489" y2="503.848"/>
    <line x1="648.2222" x2="666.0" y1="502.565" y2="492.301"/>
    <line x1="666.0" x2="650.4444" y1="494.867" y2="503.848"/>
    <line x1="652.6667" x2="666.0" y1="505.131" y2="497.433"/>
    <line x1="666.0" x2="654.8889" y1="499.999" y2="506.414"/>
    <line x1="657.1111" x2="666.0" y1="507.697" y2="502.565"/>
    <line x1="666.0" x2="659.3333" y1="505.131" y2="508.98"/>
    <line x1="661.5556" x2="666.0" y1="510.263" y2="507.697"/>
    <line x1="666.0" x2="663.7778" y1="510.263" y2="511.546"/>
    <line x1="666.0" x2="666.0" y1="512.829" y2="512.829"/>
    <line x1="646.0" x2="586.0" y1="511.546" y2="546.1871"/>
    <line x1="586.0" x2="646.0" y1="543.6211" y2="508.98"/>
    <line x1="646.0" x2="586.0" y1="506.414" y2="541.0551"/>
    <line x1="586.0" x2="646.0" y1="548.7531" y2="514.112"/>
    <line x1="646.0" x2="586.0" y1="516.678" y2="551.3191"/>
    <line x1="586.0" x2="646.0" y1="553.8851" y2="519.244"/>
    <line x1="646.0" x2="586.0" y1="521.81" y2="556.4511"/>
    <line x1="586.0" x2="646.0" y1="559.0171" y2="524.376"/>
    <polygon points="646.0,501.282 626.0,512.829 666.0,489.735"/>
    <polygon points="626.0,489.735 646.0,478.188"/>
    <polygon points="626.0,489.735 586.0,512.829"/>
    <line x1="606.0" x2="606.0" y1="501.282" y2="501.282"/>
    <polygon points="606.0,524.376 586.0,535.923"/>
    <polygon points="606.0,524.376 626.0,512.829"/>
    <line x1="606.0" x2="606.0" y1="547.4701" y2="547.4701"/>
    <line x1="626.0" x2="786.0" y1="559.0171" y2="466.641"/>
    <line x1="786.0" x2="748.2222" y1="469.207" y2="491.018"/>
    <line x1="746.0" x2="766.0" y1="489.735" y2="478.188"/>
    <line x1="766.0" x2="726.0" y1="475.622" y2="498.716"/>
    <line x1="723.7778" x2="706.0" y1="499.999" y2="510.263"/>
    <line x1="706.0" x2="721.5556" y1="507.697" y2="498.716"/>
    <line x1="719.3333" x2="706.0" y1="497.433" y2="505.131"/>
    <line x1="706.0" x2="717.1111" y1="502.565" y2="496.15"/>
    <line x1="714.8889" x2="706.0" y1="494.867" y2="499.999"/>
    <line x1="706.0" x2="712.6667" y1="497.433" y2="493.584"/>
    <line x1="710.4444" x2="706.0" y1="492.301" y2="494.867"/>
    <line x1="706.0" x2="708.2222" y1="492.301" y2="491.018"/>
    <line x1="706.0" x2="706.0" y1="489.735" y2="489.735"/>
    <line x1="726.0" x2="766.0" y1="491.018" y2="467.924"/>
    <line x1="766.0" x2="726.0" y1="470.49" y2="493.584"/>
    <line x1="726.0" x2="766.0" y1="496.15" y2="473.056"/>
    <line x1="766.0" x2="726.0" y1="465.358" y2="488.452"/>
    <line x1="726.0" x2="766.0" y1="485.886" y2="462.792"/>
    <line x1="766.0" x2="726.0" y1="460.226" y2="483.32"/>
    <line x1="726.0" x2="766.0" y1="480.754" y2="457.66"/>
    <polyline points="766.0,455.094 746.0,466.641 786.0,443.547"/>
    <line x1="786.0" x2="746.0" y1="440.981" y2="464.075"/>
    <line x1="746.0" x2="726.0" y1="466.641" y2="478.188"/>
    <line x1="746.0" x2="786.0" y1="461.509" y2="438.415"/>
    <line x1="786.0" x2="746.0" y1="435.849" y2="458.943"/>
    <line x1="746.0" x2="786.0" y1="456.377" y2="433.283"/>
    <line x1="786.0" x2="746.0" y1="430.717" y2="453.811"/>
    <line x1="746.0" x2="786.0" y1="451.245" y2="428.151"/>
    <line x1="786.0" x2="746.0" y1="425.585" y2="448.679"/>
    <line x1="746.0" x2="786.0" y1="446.113" y2="423.019"/>
    <polyline points="786.0,420.453 746.0,443.547 766.0,432.0"/>
    <line x1="766.0" x2="746.0" y1="429.434" y2="440.981"/>
    <line x1="746.0" x2="766.0" y1="438.415" y2="426.868"/>
    <line x1="766.0" x2="746.0" y1="424.302" y2="435.849"/>
    <line x1="746.0" x2="766.0" y1="433.283" y2="421.736"/>
    <line x1="766.0" x2="746.0" y1="419.17" y2="430.717"/>
    <line x1="746.0" x2="766.0" y1="428.151" y2="416.604"/>
    <line x1="766.0" x2="746.0" y1="414.038" y2="425.585"/>
    <line x1="746.0" x2="766.0" y1="423.019" y2="411.472"/>
    <line x1="766.0" x2="746.0" y1="408.906" y2="420.453"/>
    <line x1="757.1111" x2="766.0" y1="403.774" y2="398.642"/>
    <line x1="766.0" x2="759.3333" y1="401.208" y2="405.057"/>
    <line x1="761.5556" x2="766.0" y1="406.34" y2="403.774"/>
    <line x1="766.0" x2="763.7778" y1="406.34" y2="407.623"/>
    <line x1="754.8889" x2="766.0" y1="402.491" y2="396.076"/>
    <line x1="766.0" x2="752.6667" y1="393.51" y2="401.208"/>
    <line x1="750.4444" x2="766.0" y1="399.925" y2="390.944"/>
    <line x1="766.0" x2="748.2222" y1="388.378" y2="398.642"/>
    <line x1="746.0" x2="766.0" y1="397.359" y2="385.812"/>
    <line x1="746.0" x2="726.0" y1="374.265" y2="385.812"/>
    <line x1="726.0" x2="746.0" y1="383.246" y2="371.699"/>
    <line x1="746.0" x2="726.0" y1="369.133" y2="380.68"/>
    <line x1="726.0" x2="746.0" y1="378.114" y2="366.567"/>
    <line x1="746.0" x2="726.0" y1="364.001" y2="375.548"/>
    <line x1="726.0" x2="746.0" y1="372.982" y2="361.435"/>
    <line x1="746.0" x2="726.0" y1="358.869" y2="370.416"/>
    <line x1="726.0" x2="746.0" y1="367.85" y2="356.303"/>
    <line x1="746.0" x2="726.0" y1="353.737" y2="365.284"/>
    <line x1="726.0" x2="746.0" y1="362.718" y2="351.171"/>
    <line x1="786.0" x2="750.4444" y1="471.773" y2="492.301"/>
    <line x1="752.6667" x2="786.0" y1="493.584" y2="474.339"/>
    <line x1="786.0" x2="754.8889" y1="476.905" y2="494.867"/>
    <line x1="757.1111" x2="786.0" y1="496.15" y2="479.471"/>
    <line x1="786.0" x2="759.3333" y1="482.037" y2="497.433"/>
    <line x1="761.5556" x2="786.0" y1="498.716" y2="484.603"/>
    <line x1="786.0" x2="763.7778" y1="487.169" y2="499.999"/>
    <polygon points="766.0,501.282 786.0,489.735"/>
    <line x1="766.0" x2="746.0" y1="501.282" y2="512.829"/>
    <line x1="746.0" x2="786.0" y1="515.395" y2="492.301"/>
    <line x1="786.0" x2="746.0" y1="494.867" y2="517.961"/>
    <line x1="746.0" x2="786.0" y1="520.527" y2="497.433"/>
    <line x1="786.0" x2="746.0" y1="499.999" y2="523.093"/>
    <line x1="746.0" x2="786.0" y1="525.659" y2="502.565"/>
    <line x1="786.0" x2="746.0" y1="505.131" y2="528.225"/>
    <line x1="746.0" x2="786.0" y1="530.791" y2="507.697"/>
    <line x1="786.0" x2="746.0" y1="510.263" y2="533.357"/>
    <line x1="743.7778" x2="726.0" y1="534.64" y2="544.9041"/>
    <line x1="726.0" x2="741.5556" y1="542.3381" y2="533.357"/>
    <line x1="739.3333" x2="726.0" y1="532.074" y2="539.7721"/>
    <line x1="726.0" x2="737.1111" y1="537.206" y2="530.791"/>
    <line x1="734.8889" x2="726.0" y1="529.508" y2="534.64"/>
    <line x1="726.0" x2="732.6667" y1="532.074" y2="528.225"/>
    <line x1="730.4444" x2="726.0" y1="526.942" y2="529.508"/>
    <line x1="726.0" x2="728.2222" y1="526.942" y2="525.659"/>
    <line x1="726.0" x2="726.0" y1="524.376" y2="524.376"/>
    <line x1="706.0" x2="626.0" y1="523.093" y2="569.2811"/>
    <line x1="626.0" x2="706.0" y1="566.7151" y2="520.527"/>
    <line x1="706.0" x2="626.0" y1="517.961" y2="564.1491"/>
    <line x1="626.0" x2="706.0" y1="561.5831" y2="515.395"/>
    <line x1="706.0" x2="626.0" y1="525.659" y2="571.8471"/>
    <line x1="626.0" x2="706.0" y1="574.4131" y2="528.225"/>
    <line x1="706.0" x2="626.0" y1="530.791" y2="576.9791"/>
    <line x1="626.0" x2="706.0" y1="579.5451" y2="533.357"/>
    <polyline points="706.0,535.923 666.0,559.0171 686.0,547.4701"/>
    <line x1="686.0" x2="626.0" y1="550.0361" y2="584.6771"/>
    <line x1="626.0" x2="626.0" y1="582.1111" y2="582.1111"/>
    <polygon points="626.0,582.1111 666.0,559.0171"/>
    <line x1="626.0" x2="686.0" y1="587.2431" y2="552.6021"/>
    <line x1="686.0" x2="626.0" y1="555.1681" y2="589.8091"/>
    <line x1="626.0" x2="686.0" y1="592.3751" y2="557.7341"/>
    <line x1="686.0" x2="626.0" y1="560.3001" y2="594.9411"/>
    <line x1="626.0" x2="686.0" y1="597.5071" y2="562.8661"/>
    <line x1="686.0" x2="626.0" y1="565.4321" y2="600.0731"/>
    <line x1="626.0" x2="686.0" y1="602.6391" y2="567.9981"/>
    <polygon points="686.0,570.5641 666.0,582.1111"/>
    <line x1="686.0" x2="626.0" y1="573.1301" y2="607.7711"/>
    <line x1="626.0" x2="686.0" y1="610.3371" y2="575.6961"/>
    <line x1="686.0" x2="626.0" y1="578.2621" y2="612.9031"/>
    <line x1="626.0" x2="686.0" y1="615.4691" y2="580.8281"/>
    <line x1="686.0" x2="626.0" y1="583.3941" y2="618.0351"/>
    <line x1="626.0" x2="686.0" y1="620.6011" y2="585.9601"/>
    <line x1="686.0" x2="626.0" y1="588.5261" y2="623.1671"/>
    <line x1="626.0" x2="686.0" y1="625.7331" y2="591.0921"/>
    <line x1="686.0" x2="626.0" y1="593.6581" y2="628.2991"/>
    <polygon points="646.0,593.6581 666.0,582.1111"/>
    <polygon points="646.0,593.6581 626.0,605.2051"/>
    <line x1="726.0" x2="746.0" y1="570.5641" y2="559.0171"/>
    <line x1="746.0" x2="726.0" y1="556.4511" y2="567.9981"/>
    <line x1="726.0" x2="746.0" y1="565.4321" y2="553.8851"/>
    <line x1="746.0" x2="726.0" y1="551.3191" y2="562.8661"/>
    <line x1="726.0" x2="746.0" y1="560.3001" y2="548.7531"/>
    <line x1="746.0" x2="726.0" y1="546.1871" y2="557.7341"/>
    <line x1="726.0" x2="746.0" y1="555.1681" y2="543.6211"/>
    <line x1="746.0" x2="726.0" y1="541.0551" y2="552.6021"/>
    <line x1="726.0" x2="746.0" y1="550.0361" y2="538.489"/>
    <polyline points="746.0,535.923 726.0,547.4701 766.0,524.376"/>
    <line x1="768.2222" x2="786.0" y1="525.659" y2="515.395"/>
    <line x1="786.0" x2="770.4444" y1="517.961" y2="526.942"/>
    <line x1="772.6667" x2="786.0" y1="528.225" y2="520.527"/>
    <line x1="786.0" x2="774.8889" y1="523.093" y2="529.508"/>
    <line x1="777.1111" x2="786.0" y1="530.791" y2="525.659"/>
    <line x1="786.0" x2="779.3333" y1="528.225" y2="532.074"/>
    <line x1="781.5556" x2="786.0" y1="533.357" y2="530.791"/>
    <line x1="786.0" x2="783.7778" y1="533.357" y2="534.64"/>
    <line x1="786.0" x2="766.0" y1="535.923" y2="547.4701"/>
    <line x1="766.0" x2="786.0" y1="550.0361" y2="538.489"/>
    <line x1="786.0" x2="766.0" y1="541.0551" y2="552.6021"/>
    <line x1="766.0" x2="786.0" y1="555.1681" y2="543.6211"/>
    <line x1="786.0" x2="766.0" y1="546.1871" y2="557.7341"/>
    <line x1="766.0" x2="786.0" y1="560.3001" y2="548.7531"/>
    <line x1="786.0" x2="766.0" y1="551.3191" y2="562.8661"/>
    <line x1="766.0" x2="786.0" y1="565.4321" y2="553.8851"/>
    <line x1="786.0" x2="766.0" y1="556.4511" y2="567.9981"/>
    <line x1="766.0" x2="786.0" y1="570.5641" y2="559.0171"/>
    <polygon points="786.0,512.829 766.0,524.376"/>
    <line x1="526.0" x2="506.0" y1="501.282" y2="512.829"/>
    <line x1="506.0" x2="526.0" y1="510.263" y2="498.716"/>
    <line x1="526.0" x2="506.0" y1="496.15" y2="507.697"/>
    <line x1="506.0" x2="526.0" y1="505.131" y2="493.584"/>
    <line x1="526.0" x2="506.0" y1="491.018" y2="502.565"/>
    <line x1="506.0" x2="526.0" y1="499.999" y2="488.452"/>
    <line x1="526.0" x2="506.0" y1="485.886" y2="497.433"/>
    <line x1="506.0" x2="526.0" y1="494.867" y2="483.32"/>
    <line x1="526.0" x2="506.0" y1="480.754" y2="492.301"/>
    <line x1="506.0" x2="506.0" y1="489.735" y2="489.735"/>
    <line x1="506.0" x2="486.0" y1="487.169" y2="498.716"/>
    <line x1="486.0" x2="506.0" y1="496.15" y2="484.603"/>
    <line x1="506.0" x2="486.0" y1="482.037" y2="493.584"/>
    <line x1="486.0" x2="506.0" y1="491.018" y2="479.471"/>
    <line x1="506.0" x2="486.0" y1="476.905" y2="488.452"/>
    <line x1="486.0" x2="506.0" y1="485.886" y2="474.339"/>
    <line x1="506.0" x2="486.0" y1="471.773" y2="483.32"/>
    <line x1="486.0" x2="506.0" y1="480.754" y2="469.207"/>
    <line x1="506.0" x2="466.0" y1="464.075" y2="487.169"/>
    <line x1="466.0" x2="506.0" y1="484.603" y2="461.509"/>
    <line x1="506.0" x2="466.0" y1="458.943" y2="482.037"/>
    <line x1="466.0" x2="506.0" y1="479.471" y2="456.377"/>
    <line x1="506.0" x2="466.0" y1="453.811" y2="476.905"/>
    <line x1="466.0" x2="506.0" y1="474.339" y2="451.245"/>
    <line x1="506.0" x2="466.0" y1="448.679" y2="471.773"/>
    <line x1="466.0" x2="506.0" y1="469.207" y2="446.113"/>
    <polygon points="506.0,443.547 486.0,455.094"/>
    <line x1="506.0" x2="486.0" y1="440.981" y2="452.528"/>
    <line x1="486.0" x2="506.0" y1="449.962" y2="438.415"/>
    <line x1="506.0" x2="486.0" y1="435.849" y2="447.396"/>
    <line x1="486.0" x2="506.0" y1="444.83" y2="433.283"/>
    <line x1="506.0" x2="486.0" y1="430.717" y2="442.264"/>
    <line x1="486.0" x2="506.0" y1="439.698" y2="428.151"/>
    <line x1="506.0" x2="486.0" y1="425.585" y2="437.132"/>
    <line x1="486.0" x2="506.0" y1="434.566" y2="423.019"/>
    <line x1="506.0" x2="486.0" y1="420.453" y2="432.0"/>
    <line x1="466.0" x2="446.0" y1="430.717" y2="442.264"/>
    <line x1="446.0" x2="466.0" y1="444.83" y2="433.283"/>
    <line x1="466.0" x2="446.0" y1="435.849" y2="447.396"/>
    <line x1="446.0" x2="466.0" y1="449.962" y2="438.415"/>
    <line x1="466.0" x2="446.0" y1="440.981" y2="452.528"/>
    <line x1="446.0" x2="466.0" y1="455.094" y2="443.547"/>
    <line x1="466.0" x2="446.0" y1="428.151" y2="439.698"/>
    <line x1="446.0" x2="466.0" y1="437.132" y2="425.585"/>
    <line x1="466.0" x2="446.0" y1="423.019" y2="434.566"/>
    <line x1="446.0" x2="466.0" y1="432.0" y2="420.453"/>
    <line x1="466.0" x2="366.0" y1="397.359" y2="455.094"/>
    <line x1="366.0" x2="423.7778" y1="452.528" y2="419.17"/>
    <line x1="426.0" x2="466.0" y1="417.887" y2="394.793"/>
    <line x1="466.0" x2="426.0" y1="392.227" y2="415.321"/>
    <line x1="426.0" x2="466.0" y1="412.755" y2="389.661"/>
    <line x1="466.0" x2="426.0" y1="387.095" y2="410.189"/>
    <line x1="426.0" x2="466.0" y1="407.623" y2="384.529"/>
    <line x1="466.0" x2="426.0" y1="381.963" y2="405.057"/>
    <line x1="426.0" x2="466.0" y1="402.491" y2="379.397"/>
    <line x1="466.0" x2="426.0" y1="376.831" y2="399.925"/>
    <line x1="426.0" x2="466.0" y1="397.359" y2="374.265"/>
    <line x1="421.5556" x2="366.0" y1="417.887" y2="449.962"/>
    <line x1="366.0" x2="419.3333" y1="447.396" y2="416.604"/>
    <line x1="417.1111" x2="366.0" y1="415.321" y2="444.83"/>
    <line x1="366.0" x2="414.8889" y1="442.264" y2="414.038"/>
    <line x1="412.6667" x2="366.0" y1="412.755" y2="439.698"/>
    <line x1="366.0" x2="410.4444" y1="437.132" y2="411.472"/>
    <line x1="408.2222" x2="366.0" y1="410.189" y2="434.566"/>
    <line x1="366.0" x2="406.0" y1="432.0" y2="408.906"/>
    <line x1="386.0" x2="386.0" y1="443.547" y2="443.547"/>
    <line x1="466.0" x2="486.0" y1="466.641" y2="455.094"/>
    <polygon points="486.0,478.188 506.0,466.641"/>
    <line x1="486.0" x2="446.0" y1="478.188" y2="501.282"/>
    <line x1="446.0" x2="466.0" y1="503.848" y2="492.301"/>
    <line x1="466.0" x2="446.0" y1="494.867" y2="506.414"/>
    <line x1="446.0" x2="466.0" y1="508.98" y2="497.433"/>
    <line x1="466.0" x2="446.0" y1="499.999" y2="511.546"/>
    <line x1="446.0" x2="466.0" y1="514.112" y2="502.565"/>
    <line x1="466.0" x2="446.0" y1="505.131" y2="516.678"/>
    <line x1="446.0" x2="466.0" y1="519.244" y2="507.697"/>
    <line x1="466.0" x2="446.0" y1="510.263" y2="521.81"/>
    <line x1="446.0" x2="466.0" y1="526.942" y2="515.395"/>
    <line x1="466.0" x2="446.0" y1="517.961" y2="529.508"/>
    <line x1="446.0" x2="466.0" y1="532.074" y2="520.527"/>
    <line x1="466.0" x2="446.0" y1="523.093" y2="534.64"/>
    <line x1="446.0" x2="466.0" y1="537.206" y2="525.659"/>
    <line x1="466.0" x2="446.0" y1="528.225" y2="539.7721"/>
    <line x1="446.0" x2="466.0" y1="542.3381" y2="530.791"/>
    <line x1="466.0" x2="446.0" y1="533.357" y2="544.9041"/>
    <polygon points="446.0,547.4701 466.0,535.923"/>
    <line x1="446.0" x2="466.0" y1="550.0361" y2="538.489"/>
    <line x1="466.0" x2="446.0" y1="541.0551" y2="552.6021"/>
    <line x1="446.0" x2="466.0" y1="555.1681" y2="543.6211"/>
    <line x1="466.0" x2="446.0" y1="546.1871" y2="557.7341"/>
    <line x1="446.0" x2="466.0" y1="560.3001" y2="548.7531"/>
    <line x1="466.0" x2="446.0" y1="551.3191" y2="562.8661"/>
    <line x1="446.0" x2="466.0" y1="565.4321" y2="553.8851"/>
    <line x1="466.0" x2="446.0" y1="556.4511" y2="567.9981"/>
    <line x1="446.0" x2="466.0" y1="570.5641" y2="559.0171"/>
    <polygon points="466.0,512.829 446.0,524.376"/>
    <line x1="486.0" x2="526.0" y1="501.282" y2="478.188"/>
  </g>
</svg>
