<!-- hp7596_36x24_lissajous.svg -->
<!-- Generated using p5.plotSvg: -->
<!-- A Plotter-Oriented SVG Exporter for p5.js -->
<!-- Fri Jun 06 2025 02:39:04 GMT-0400 (Eastern Daylight Time) -->
<!-- DPI: 96 -->
<svg xmlns="http://www.w3.org/2000/svg" width="36in" height="24in" viewBox="0 0 3456 2304">
  <style>
      circle, ellipse, line, path, polygon, polyline, rect, quad, text {
        fill: none;
        stroke: black;
        stroke-width: 1;
        stroke-linecap: round;
        stroke-linejoin: round;
        vector-effect: non-scaling-stroke;
      }
    </style>
<g vector-effect="non-scaling-stroke">
  <rect x="192" y="192" width="3072" height="1920"/>
  <polygon points="1152,1728 1212.208395,1720.908484 1271.757134,1699.808553 1329.993789,1665.219758 1386.280306,1617.993789 1440,1559.293506 1490.564305,1490.564305 1537.419229,1413.498528 1580.051419,1329.993789 1617.993789,1242.106252 1650.830633,1152 1678.202184,1061.893748 1699.808553,974.006211 1715.413018,890.501472 1724.844612,813.435695 1728,744.706494 1724.844612,686.006211 1715.413018,638.780242 1699.808553,604.191447 1678.202184,583.091516 1650.830633,576 1617.993789,583.091516 1580.051419,604.191447 1537.419229,638.780242 1490.564305,686.006211 1440,744.706494 1386.280306,813.435695 1329.993789,890.501472 1271.757134,974.006211 1212.208395,1061.893748 1152,1152 1091.791605,1242.106252 1032.242866,1329.993789 974.006211,1413.498528 917.719694,1490.564305 864,1559.293506 813.435695,1617.993789 766.580771,1665.219758 723.948581,1699.808553 686.006211,1720.908484 653.169367,1728 625.797816,1720.908484 604.191447,1699.808553 588.586982,1665.219758 579.155388,1617.993789 576,1559.293506 579.155388,1490.564305 588.586982,1413.498528 604.191447,1329.993789 625.797816,1242.106252 653.169367,1152.000000 686.006211,1061.893748 723.948581,974.006211 766.580771,890.501472 813.435695,813.435695 864.000000,744.706494 917.719694,686.006211 974.006211,638.780242 1032.242866,604.191447 1091.791605,583.091516 1152.000000,576 1212.208395,583.091516 1271.757134,604.191447 1329.993789,638.780242 1386.280306,686.006211 1440.000000,744.706494 1490.564305,813.435695 1537.419229,890.501472 1580.051419,974.006211 1617.993789,1061.893748 1650.830633,1152.000000 1678.202184,1242.106252 1699.808553,1329.993789 1715.413018,1413.498528 1724.844612,1490.564305 1728,1559.293506 1724.844612,1617.993789 1715.413018,1665.219758 1699.808553,1699.808553 1678.202184,1720.908484 1650.830633,1728 1617.993789,1720.908484 1580.051419,1699.808553 1537.419229,1665.219758 1490.564305,1617.993789 1440,1559.293506 1386.280306,1490.564305 1329.993789,1413.498528 1271.757134,1329.993789 1212.208395,1242.106252 1152.000000,1152.000000 1091.791605,1061.893748 1032.242866,974.006211 974.006211,890.501472 917.719694,813.435695 864.000000,744.706494 813.435695,686.006211 766.580771,638.780242 723.948581,604.191447 686.006211,583.091516 653.169367,576 625.797816,583.091516 604.191447,604.191447 588.586982,638.780242 579.155388,686.006211 576,744.706494 579.155388,813.435695 588.586982,890.501472 604.191447,974.006211 625.797816,1061.893748 653.169367,1152.000000 686.006211,1242.106252 723.948581,1329.993789 766.580771,1413.498528 813.435695,1490.564305 864,1559.293506 917.719694,1617.993789 974.006211,1665.219758 1032.242866,1699.808553 1091.791605,1720.908484"/>
  <polygon points="2304,1728 2364.208395,1720.908484 2423.757134,1699.808553 2481.993789,1665.219758 2538.280306,1617.993789 2592,1559.293506 2642.564305,1490.564305 2689.419229,1413.498528 2732.051419,1329.993789 2769.993789,1242.106252 2802.830633,1152 2830.202184,1061.893748 2851.808553,974.006211 2867.413018,890.501472 2876.844612,813.435695 2880,744.706494 2876.844612,686.006211 2867.413018,638.780242 2851.808553,604.191447 2830.202184,583.091516 2802.830633,576 2769.993789,583.091516 2732.051419,604.191447 2689.419229,638.780242 2642.564305,686.006211 2592,744.706494 2538.280306,813.435695 2481.993789,890.501472 2423.757134,974.006211 2364.208395,1061.893748 2304,1152 2243.791605,1242.106252 2184.242866,1329.993789 2126.006211,1413.498528 2069.719694,1490.564305 2016,1559.293506 1965.435695,1617.993789 1918.580771,1665.219758 1875.948581,1699.808553 1838.006211,1720.908484 1805.169367,1728 1777.797816,1720.908484 1756.191447,1699.808553 1740.586982,1665.219758 1731.155388,1617.993789 1728,1559.293506 1731.155388,1490.564305 1740.586982,1413.498528 1756.191447,1329.993789 1777.797816,1242.106252 1805.169367,1152.000000 1838.006211,1061.893748 1875.948581,974.006211 1918.580771,890.501472 1965.435695,813.435695 2016.000000,744.706494 2069.719694,686.006211 2126.006211,638.780242 2184.242866,604.191447 2243.791605,583.091516 2304,576 2364.208395,583.091516 2423.757134,604.191447 2481.993789,638.780242 2538.280306,686.006211 2592.000000,744.706494 2642.564305,813.435695 2689.419229,890.501472 2732.051419,974.006211 2769.993789,1061.893748 2802.830633,1152.000000 2830.202184,1242.106252 2851.808553,1329.993789 2867.413018,1413.498528 2876.844612,1490.564305 2880,1559.293506 2876.844612,1617.993789 2867.413018,1665.219758 2851.808553,1699.808553 2830.202184,1720.908484 2802.830633,1728 2769.993789,1720.908484 2732.051419,1699.808553 2689.419229,1665.219758 2642.564305,1617.993789 2592,1559.293506 2538.280306,1490.564305 2481.993789,1413.498528 2423.757134,1329.993789 2364.208395,1242.106252 2304,1152.000000 2243.791605,1061.893748 2184.242866,974.006211 2126.006211,890.501472 2069.719694,813.435695 2016.000000,744.706494 1965.435695,686.006211 1918.580771,638.780242 1875.948581,604.191447 1838.006211,583.091516 1805.169367,576 1777.797816,583.091516 1756.191447,604.191447 1740.586982,638.780242 1731.155388,686.006211 1728,744.706494 1731.155388,813.435695 1740.586982,890.501472 1756.191447,974.006211 1777.797816,1061.893748 1805.169367,1152.000000 1838.006211,1242.106252 1875.948581,1329.993789 1918.580771,1413.498528 1965.435695,1490.564305 2016,1559.293506 2069.719694,1617.993789 2126.006211,1665.219758 2184.242866,1699.808553 2243.791605,1720.908484"/>
</g>
</svg>