<!-- hp7596_24x36_lissajous.svg -->
<!-- Generated using p5.plotSvg: -->
<!-- A Plotter-Oriented SVG Exporter for p5.js -->
<!-- Fri Jun 06 2025 01:43:54 GMT-0400 (Eastern Daylight Time) -->
<!-- DPI: 96 -->
<svg xmlns="http://www.w3.org/2000/svg" width="24in" height="36in" viewBox="0 0 2304 3456">
  <style>
      circle, ellipse, line, path, polygon, polyline, rect, quad, text {
        fill: none;
        stroke: black;
        stroke-width: 1;
        stroke-linecap: round;
        stroke-linejoin: round;
        vector-effect: non-scaling-stroke;
      }
    </style>
<g vector-effect="non-scaling-stroke">
  <rect x="192" y="192" width="1920" height="3072"/>
  <polygon points="1152,2496 1232.277860,2486.544646 1311.676179,2458.411405 1389.325052,2412.293011 1464.373742,2349.325052 1536,2271.058008 1603.419074,2179.419074 1665.892306,2076.664704 1722.735226,1965.325052 1773.325052,1848.141669 1817.107510,1728 1853.602911,1607.858331 1882.411405,1490.674948 1903.217357,1379.335296 1915.792816,1276.580926 1920,1184.941992 1915.792816,1106.674948 1903.217357,1043.706989 1882.411405,997.588595 1853.602911,969.455354 1817.107510,960 1773.325052,969.455354 1722.735226,997.588595 1665.892306,1043.706989 1603.419074,1106.674948 1536,1184.941992 1464.373742,1276.580926 1389.325052,1379.335296 1311.676179,1490.674948 1232.277860,1607.858331 1152,1728.000000 1071.722140,1848.141669 992.323821,1965.325052 914.674948,2076.664704 839.626258,2179.419074 768.000000,2271.058008 700.580926,2349.325052 638.107694,2412.293011 581.264774,2458.411405 530.674948,2486.544646 486.892490,2496 450.397089,2486.544646 421.588595,2458.411405 400.782643,2412.293011 388.207184,2349.325052 384,2271.058008 388.207184,2179.419074 400.782643,2076.664704 421.588595,1965.325052 450.397089,1848.141669 486.892490,1728.000000 530.674948,1607.858331 581.264774,1490.674948 638.107694,1379.335296 700.580926,1276.580926 768.000000,1184.941992 839.626258,1106.674948 914.674948,1043.706989 992.323821,997.588595 1071.722140,969.455354 1152.000000,960 1232.277860,969.455354 1311.676179,997.588595 1389.325052,1043.706989 1464.373742,1106.674948 1536.000000,1184.941992 1603.419074,1276.580926 1665.892306,1379.335296 1722.735226,1490.674948 1773.325052,1607.858331 1817.107510,1728.000000 1853.602911,1848.141669 1882.411405,1965.325052 1903.217357,2076.664704 1915.792816,2179.419074 1920,2271.058008 1915.792816,2349.325052 1903.217357,2412.293011 1882.411405,2458.411405 1853.602911,2486.544646 1817.107510,2496 1773.325052,2486.544646 1722.735226,2458.411405 1665.892306,2412.293011 1603.419074,2349.325052 1536.000000,2271.058008 1464.373742,2179.419074 1389.325052,2076.664704 1311.676179,1965.325052 1232.277860,1848.141669 1152.000000,1728.000000 1071.722140,1607.858331 992.323821,1490.674948 914.674948,1379.335296 839.626258,1276.580926 768.000000,1184.941992 700.580926,1106.674948 638.107694,1043.706989 581.264774,997.588595 530.674948,969.455354 486.892490,960 450.397089,969.455354 421.588595,997.588595 400.782643,1043.706989 388.207184,1106.674948 384,1184.941992 388.207184,1276.580926 400.782643,1379.335296 421.588595,1490.674948 450.397089,1607.858331 486.892490,1728.000000 530.674948,1848.141669 581.264774,1965.325052 638.107694,2076.664704 700.580926,2179.419074 768.000000,2271.058008 839.626258,2349.325052 914.674948,2412.293011 992.323821,2458.411405 1071.722140,2486.544646"/>
</g>
</svg>