<?xml version="1.0" encoding="utf-8" ?>
<svg xmlns="http://www.w3.org/2000/svg" xmlns:cc="http://creativecommons.org/ns#" xmlns:dc="http://purl.org/dc/elements/1.1/" xmlns:ev="http://www.w3.org/2001/xml-events" xmlns:inkscape="http://www.inkscape.org/namespaces/inkscape" xmlns:rdf="http://www.w3.org/1999/02/22-rdf-syntax-ns#" xmlns:sodipodi="http://sodipodi.sourceforge.net/DTD/sodipodi-0.dtd" xmlns:xlink="http://www.w3.org/1999/xlink" baseProfile="tiny" height="22.86cm" version="1.2" viewBox="0 0 1152.0 864.0" width="30.48cm">
  <metadata>
    <rdf:RDF>
      <cc:Work>
        <dc:format>image/svg+xml</dc:format>
        <dc:source/>
        <dc:date>2021-10-20T08:57:40.825687</dc:date>
      </cc:Work>
    </rdf:RDF>
  </metadata>
  <defs/>
  <g fill="none" id="layer1" inkscape:groupmode="layer" inkscape:label="1" stroke="#00f" style="display:inline">
    <polyline points="582.449,147.652 572.4657,147.1524 562.5821,145.6587 552.897,143.1857 543.5072,139.7581 534.5065,135.4103 525.9848,130.1856 518.0272,124.1362 510.7134,117.3227 504.1163,109.813 498.3019,101.6823 493.3283,93.0116 489.2451,83.8878 486.0932,74.4019 483.904,64.6487 482.6995,54.7257 483.2399,44.7664 486.2274,35.2504 491.4764,26.7693 494.3519,24.0"/>
    <polyline points="550.9287,24.0 552.8714,25.7505 558.3989,34.0528 561.7005,43.4644 562.571,53.4003 560.9563,63.2427 556.9567,72.3797 550.8209,80.243 549.9089,78.5559 549.7563,80.4677 550.9244,78.9466 549.1168,79.5874 550.9821,80.0331 549.6594,78.6444 550.0138,80.5292 550.7418,78.7549 549.1657,79.8476 551.0826,79.7882 549.4419,78.7952 550.2784,80.521 550.5154,78.6179 549.2812,80.0858 546.0364,70.7367 547.6711,60.9765 553.7849,53.1948 562.8811,49.2968 572.7325,50.237 580.9271,55.7851 585.4588,64.5827 585.2178,74.4759 580.2633,83.0425 571.8083,88.1851 561.9228,88.6446 553.0272,84.3085 547.2994,76.2384 546.1418,66.4102 548.1677,56.6262 551.566,47.2304 556.2674,38.4141 562.1761,30.3569 568.4098,24.0"/>
    <polyline points="662.5541,24.0 668.0079,29.3548 674.068,37.2987 678.9355,46.0244 682.5111,55.3542 687.6377,63.8189 696.1949,68.7897 706.0876,69.0494 714.8938,64.5345 720.4574,56.3503 721.4163,46.5007 717.5356,37.3972 709.7655,31.2686 700.0084,29.6154 690.6532,32.8424 683.9903,40.1595 681.6511,49.7753 684.2082,59.3353 691.0357,66.4991 700.4619,69.5126 710.1789,67.6381 717.8076,61.3345 716.0013,60.6902 717.8675,60.2481 716.5421,61.6343 716.9001,59.7502 717.6247,61.5258 716.0507,60.4302 717.9675,60.4932 716.3248,61.4831 717.1646,59.7589 717.398,61.6625 716.1666,60.1922 717.9997,60.7559 716.1549,61.2802 717.4176,59.8367 717.1434,61.7348 726.9243,59.6846 736.3733,56.431 745.3429,52.0247 753.6932,46.5344 761.2939,40.046 768.0263,32.6605 773.7854,24.4934 774.048,24.0"/>
    <polyline points="784.3966,24.0 784.7311,26.4476 787.3082,36.1031 791.0689,45.3619 795.9547,54.0796 801.8893,62.1202 808.78,69.3582 816.5193,75.6806 824.9865,80.9887 834.1306,85.0081 843.8147,87.4548 853.7705,88.261 863.7222,87.4044 873.3938,84.9088 882.5174,80.8432 890.8401,75.3204 898.1313,68.4935 904.1889,60.5515 908.845,51.7147 911.9706,42.2279 913.479,32.3541 913.3532,24.0"/>
    <polyline points="777.4859,24.0 776.6939,28.8389 776.5002,38.8285 777.7308,48.744 780.3605,58.3832 784.5925,67.4251 790.5365,75.4461 797.9556,82.1262 806.554,87.1993 815.9887,90.463 825.8839,91.7872 835.8448,91.1192 845.4745,88.4856 854.3891,83.9913 862.233,77.8156 868.6937,70.2046 873.5135,61.4618 876.5003,51.9358 877.5351,42.0062 876.5765,32.069 874.1143,24.0"/>
    <polyline points="791.7061,24.0 792.971,28.0237 800.1015,34.8859 809.6491,37.4895 819.276,35.197 826.6254,28.5697 828.2266,24.0"/>
    <polyline points="740.447,24.0 734.6806,31.3369 729.533,39.9027 725.4936,49.0434 722.6253,58.6165 720.9729,68.4724 720.5622,78.4574 721.3995,88.4158 715.6243,80.7616 706.0632,81.4857 701.5066,89.9224 706.1439,98.315 715.7115,98.9474 721.413,91.2382 718.0065,82.2752 708.6239,80.2989 701.8915,87.1264 703.999,96.4804 713.0089,99.7609 720.6374,93.9519 723.7777,84.4753 724.9726,74.5637 724.1746,64.6123 721.4155,55.0178 716.8053,46.1627 710.5277,38.4001 702.833,32.0393 694.028,27.334 684.4638,24.4718 679.2804,24.0"/>
    <polyline points="670.5712,24.0 664.5977,24.655 655.0879,27.6931 646.3712,32.56 638.7951,39.0616 636.3155,48.3239 642.7698,55.4149 652.2239,53.8151 655.9858,44.9954 650.5968,37.0645 641.0115,37.3142 636.0426,45.5147 640.2585,54.1267 649.783,55.2323 655.8595,47.815 655.23,37.9388 649.9428,29.5735 641.2922,24.7671 631.3963,24.6963 622.6779,29.3786 617.2716,37.6675 616.501,47.5336 620.5549,56.5613 628.4406,62.5404 638.2275,64.007 647.5194,60.6019 654.0413,53.1589 656.1965,43.5003 653.4572,33.9908 646.4942,26.9587 637.0122,24.1257 627.3328,26.1854 619.8258,32.6336 616.3291,41.8914 617.699,51.6923 623.5999,59.6366 632.5872,63.7794 642.4605,63.1062 650.8023,57.782 655.5704,49.1103 655.5974,39.2142 650.8766,30.5166 642.5639,25.147 632.6944,24.4201 623.6847,28.5138 617.7406,36.4259 616.3173,46.2192 619.7635,55.4959 627.2353,61.9849 636.9034,64.0973 646.6556,62.1046 655.2191,57.0307 661.6511,49.4342 665.2435,40.1513 665.6008,30.204 663.6992,24.0"/>
    <polyline points="589.4741,24.0 589.496,25.5377 597.6374,30.603 606.2985,26.489 606.6172,24.0"/>
    <polyline points="589.4468,24.0 594.8702,30.0474 604.3359,28.5173 606.3021,24.0"/>
    <polyline points="517.9636,24.0 519.3123,28.2462 523.6618,37.2413 529.2477,45.5255 535.9561,52.93 543.6504,59.304 552.1738,64.5177 561.3526,68.4648 570.9999,71.0648 580.919,72.2649 571.2222,74.2409 563.6597,80.624 560.0833,89.8513 561.3685,99.6636 567.2006,107.6586 576.1518,111.8788 586.0305,111.291 594.418,106.039 599.2608,97.4088 599.3732,87.5132 594.7277,78.7752 586.4616,73.334 576.5989,72.5219 567.5541,76.5377 561.5419,84.3982 560.6128,74.8548 552.0803,70.4803 543.7892,75.2965 543.3622,84.8755 551.1919,90.4104 560.0798,86.8124 561.8543,77.3895 554.8839,70.8051 545.5773,73.1128 542.4908,82.191 548.4622,89.6932 558.0014,88.7218 562.3381,80.1701 557.4852,71.9003 547.9044,71.5158 542.4042,79.3699 546.0416,88.2418 555.4722,89.9745 562.0257,82.9752 560.2263,92.8033 559.8445,102.7875 560.8881,112.7243 563.3357,122.4114 567.1376,131.6513 572.2162,140.2558 578.4682,148.0496 585.7661,154.8739 593.9612,160.5896 602.8866,165.0804 612.3605,168.2547 622.1897,170.0479 612.2046,169.7914 602.3153,171.1949 592.7958,174.2196 583.9101,178.7816 575.9042,184.7545 569.0002,191.9728 563.3894,200.2364 559.2272,209.3163 556.629,218.9609 555.6668,228.9028 556.3672,238.8667 558.711,248.5762 562.633,257.7625 568.0246,266.1707 574.7365,273.568 582.5825,279.7494 573.6406,275.3309 563.8835,273.262 553.918,273.6714 544.3635,276.5335 535.8141,281.6706 528.8015,288.763 523.7615,297.3699 521.0076,306.9562 520.7111,316.9258 522.8902,326.6588 527.4096,335.5501 533.9882,343.0469 542.2171,348.683 551.5845,352.1081 541.6797,350.8581 531.7241,351.6008 522.1144,354.3066 513.2338,358.8676 505.4364,365.102 499.033,372.7612 494.2789,381.5399 491.3636,391.0881 490.4034,401.0252 491.4365,410.9549 494.4217,420.4815 489.8513,411.5966 484.0626,403.4528 477.1734,396.2162 469.324,390.0341 460.6745,385.0325 451.401,381.3134 441.6925,378.9524 431.7467,377.9976 421.7663,378.4686 411.9546,380.3557 402.5116,383.6205 393.6296,388.1965 385.4895,393.9904 378.2572,400.8842 372.0801,408.7374 367.084,417.3901 370.7973,408.1142 373.1522,398.4042 374.1006,388.4578 373.6233,378.4777 371.73,368.6673 368.4593,359.2263 363.8777,350.3471 358.0786,342.2107 351.1803,334.9828 343.3231,328.8107 334.6673,323.82 344.3631,325.8014 353.8218,322.8918 360.7278,315.8037 363.39,306.2723 361.1568,296.6314 354.5749,289.2414 345.2558,285.9116 335.4811,287.4572 327.644,293.4999 323.6633,302.5602 324.5136,312.4197 329.9868,320.6646 338.7428,325.2762 348.6378,325.1255 357.2492,320.2492 362.4686,311.8414 363.0182,301.9605 358.7633,293.0258 365.6258,300.2905 373.3405,306.6429 381.787,311.9839 390.8335,316.2302 400.3388,319.3155 410.1546,321.1916 420.1277,321.8293 430.1025,321.2187 439.9234,319.3692 449.4371,316.3097 458.495,312.088 466.956,306.7699 474.6879,300.4385 481.5701,293.1925 487.4953,285.1449 492.3708,276.4215 496.1208,267.1582 498.6866,257.4997 497.345,267.4028 497.2485,277.3958 498.3987,287.3229 500.7775,297.0291 504.3479,306.363 509.0541,315.179 514.8228,323.3394 521.5638,330.7169 529.1721,337.1965 537.5288,342.6769 546.5036,347.0727 555.9564,350.3153 565.7397,352.354 575.7009,353.1571 585.6845,352.7121 595.5347,351.0258 605.0978,348.1246 614.2245,344.0537 622.7726,338.8768 621.2767,337.6766 623.1847,337.8698 621.4786,338.7458 622.4337,337.0826 622.5371,338.9977 621.4085,337.4471 623.199,338.1342 621.3228,338.5317 622.6808,337.1775 622.2781,339.0526 621.5959,337.2602 623.1434,338.393 621.2287,338.2844 622.8944,337.3338 622.0139,339.0376 621.8258,337.129 623.0219,338.6281 621.2027,338.0209 623.0595,337.5407 616.0249,330.5802 606.5144,327.8444 596.8565,330.0031 589.4159,336.5277 586.0142,345.8208 587.4842,355.6072 593.4662,363.4907 602.4954,367.5413 612.3612,366.7672 620.6482,361.3579 625.3273,352.6378 625.253,342.7419 620.4434,334.0931 612.0762,328.8088 602.1999,328.183 593.2325,332.3687 587.3696,340.3412 590.5944,330.8808 592.7504,321.1213 593.8109,311.1829 593.7629,301.1881 592.6069,291.2603 590.3573,281.5219 587.0416,272.0931 582.701,263.09 577.3888,254.6237 571.1706,246.7986 564.1231,239.7113 556.3332,233.4492 564.8506,238.6726 574.0248,242.6302 583.6691,245.2413 593.5869,246.4528 603.5761,246.2399 613.4333,244.6069 622.9576,241.5873 631.9549,237.2424 640.242,231.6608 647.65,224.9562 654.028,217.2652 659.246,208.7445 655.2942,217.9213 652.6892,227.5672 651.4841,237.4858 651.7033,247.4749 653.3424,257.331 656.3681,266.8534 660.7187,275.8479 666.3056,284.1315 673.0148,291.5353 680.7098,297.9084 689.2338,303.121 698.4131,307.067 708.0607,309.6659 698.9242,312.5754 696.436,321.8354 702.8836,328.9324 712.3392,327.3414 716.1093,318.5252 710.7277,310.5893 701.1423,310.83 696.1657,319.026 700.3736,327.6419 709.8971,328.7563 718.382,323.5521 724.6971,315.8581 728.1471,306.5214 728.3523,296.5697 725.2901,287.0987 719.2976,279.1509 711.0344,273.6013 701.4103,271.0609 691.4847,271.8092 682.3503,275.764 675.0127,282.4898 670.2795,291.2462 668.672,301.0693 670.367,310.8777 675.178,319.5916 668.0501,312.6149 659.4177,307.6187 649.8176,304.9134 639.8467,304.6673 630.1249,306.8958 621.2566,311.4601 613.7932,318.0767 608.1988,326.334 604.8212,335.7187 603.8705,345.6472 605.4056,355.5023 609.3312,364.6713 615.4033,372.584 623.2441,378.7485 632.3664,382.7814 622.6333,380.5151 612.6935,379.48 602.7023,379.6922 592.8155,381.1484 583.1873,383.8258 573.9681,387.6828 565.3017,392.6591 557.3233,398.677 550.1575,405.6426 543.916,413.4474 538.6962,421.9693 534.5797,431.0756 531.6306,440.624 529.8949,450.4656 529.3998,460.4469 530.153,470.4119 532.1427,480.2053 535.3378,489.6743 539.6886,498.671 545.1271,507.0551 551.5684,514.6957 558.9121,521.4737 567.0435,527.2831 575.8357,532.0335 585.1516,535.6507 594.8458,538.0781 604.767,539.278 614.7604,539.2317 624.4433,536.9255 632.8387,531.5782 639.0224,523.7782 642.3136,514.3843 642.35,504.4305 639.1275,495.0128 633.0011,487.1678 624.645,481.7592 614.9792,479.3824 605.0677,480.2989 596.0017,484.4081 588.4849,490.9638 582.8237,499.1755 579.3701,508.5325 578.3388,518.453 579.794,528.3203 583.6451,537.5207 589.6528,545.4824 597.4434,551.7103 606.5326,555.8171 616.3554,557.5476 626.3008,556.794 635.7507,553.6034 627.1527,558.6869 619.5171,565.1264 613.0556,572.7433 607.9473,581.3267 604.3337,590.6385 602.315,600.4208 601.9471,610.4025 603.2402,620.3069 606.1585,629.8595 610.6211,638.7956 616.5043,646.8675 623.6451,653.8516 631.8456,659.5543 640.8785,663.8175 650.4935,666.5232 640.5902,665.1739 630.5983,664.931 620.6411,665.7975 610.8413,667.7628 601.3199,670.8026 592.1943,674.8794 583.577,679.9429 575.5743,685.9307 568.2849,692.7689 561.7987,700.3733 556.1956,708.6499 551.5449,717.4969 547.9038,726.8049 545.3173,736.4593 543.8172,746.3409 543.422,756.328 544.1367,766.2972 545.9524,776.1258 543.0581,766.5592 539.1209,757.3725 534.1892,748.679 528.3241,740.586 521.5977,733.1932 514.0931,726.5918 505.9028,720.8633 497.1278,716.0783 487.8763,712.2957 478.2625,709.5624 468.4049,707.9119 458.425,707.3646 448.446,707.9272 438.5909,709.5929 428.9813,712.3411 419.7357,716.1379 428.1316,710.7538 434.9345,703.4599 439.7214,694.7097 442.1946,685.0472 442.2004,675.0733 439.7384,665.4079 434.9617,656.6521 428.1673,649.3503 419.7777,643.9565 410.3143,640.806 400.3658,640.0947 390.5505,641.8668 381.4787,646.0121 373.7146,652.273 367.7408,660.2601 363.9288,669.4769 362.5155,679.3502 362.899,689.3377 364.3876,699.2211 366.9629,708.8785 370.5932,718.1907 375.2337,727.0431 380.8271,735.3262 387.3044,742.9381 394.5859,749.7848 402.5816,755.782 411.193,760.8555 420.3139,764.9429 429.8317,767.9938 439.1331,765.6646 442.1987,756.5794 436.2101,749.091 426.6732,750.0842 422.3561,758.6459 427.228,766.9045 436.8097,767.267 442.2918,759.4003 438.6341,750.5368 429.1995,748.8257 422.6621,755.8401 425.0324,765.1311 434.1311,768.1564 441.5929,762.1348 440.5575,752.6023 431.9768,748.3232 423.7398,753.2316 423.4197,762.8148 431.3106,768.262 440.1578,764.5651 441.8272,755.123 434.7839,748.6167 425.5035,751.0281 422.5184,760.1401 428.5731,767.5752 438.1008,766.4976 442.3419,757.8981 441.3702,747.9506 439.3014,738.1722 436.1611,728.6834 431.9881,719.6014 426.8337,711.0382 420.7616,703.0992 413.8467,695.8825 406.1742,689.4771 397.8387,683.9618 388.9432,679.4049 379.5971,675.8624 369.916,673.3781 360.019,671.9826 350.0283,671.6931 340.1002,672.7887 330.4914,675.5163 321.4682,679.8001 313.2807,685.5215 306.1559,692.5219 300.2911,700.6072 295.8489,709.5535 292.9524,719.1127 291.6818,729.02 292.0725,739.0008 294.1135,748.7785 297.7484,758.0821 302.8762,766.6537 309.3551,774.2559 317.0053,780.678 325.6149,785.7419 316.1578,782.5728 306.2106,781.8419 296.3919,783.5948 287.312,787.7223 279.5356,793.9679 273.5462,801.9433 269.716,811.1526 268.2834,821.0231 269.3373,830.9412 272.7043,840.0"/>
    <polyline points="362.9582,840.0 362.9391,839.9863 353.1179,838.771 350.0127,840.0"/>
    <polyline points="395.7667,840.0 395.0907,837.1332 389.7618,828.726 381.9755,822.5252 372.5888,819.2133 362.6352,819.155 353.2104,822.3566 345.3519,828.4658 339.9249,836.8099 339.133,840.0"/>
    <polyline points="351.8867,840.0 351.8246,839.6979 345.4277,832.1472 336.1939,828.5876 326.3839,829.8907 318.3996,835.7374 316.3994,840.0"/>
    <polyline points="351.2906,840.0 349.5211,836.0341 341.6497,830.0362 331.8663,828.5463 322.5663,831.9293 316.0267,839.3567 315.8815,840.0"/>
    <polyline points="424.5408,840.0 421.261,834.7877 414.0258,827.9224 405.317,823.0607 395.6761,820.5046 404.6301,817.0745 406.5816,807.6867 399.7364,800.9723 390.388,803.1045 387.1312,812.123 392.9603,819.7362 402.5161,818.9446 407.013,810.4759 402.3165,802.1163 392.7447,801.5515 387.0977,809.3008 387.1449,799.3269 384.7231,789.6514 379.9828,780.8759 373.2188,773.5459 364.8516,768.1173 355.4015,764.9275 345.4559,764.1748 335.6334,765.9062 326.5445,770.0138 318.7544,776.2424 312.7475,784.2046 308.8972,793.4055 307.443,803.2729 308.4751,813.1933 311.9296,822.5499 319.8857,827.9015 328.6876,824.0982 330.2429,814.6366 323.1216,808.2158 313.871,810.739 310.9961,819.8864 317.14,827.2479 326.6541,826.0554 330.7911,817.4053 325.7475,809.2504 316.1604,809.0883 310.8441,817.0681 314.6864,825.8531 324.1547,827.3665 330.5439,820.2168 331.1669,810.2826 328.5051,800.6913 322.8516,792.4989 314.8288,786.6072 305.3198,783.6648 295.3716,783.9957 286.0791,787.5633 278.4655,793.9751 273.3689,802.525 271.3502,812.2719 272.6318,822.1428 277.0726,831.0511 284.1837,838.016 288.3797,840.0"/>
    <polyline points="340.7631,840.0 347.1291,833.5481 349.8516,824.0338 347.6794,814.379 341.1443,806.9475 331.8464,803.5588 322.0621,805.0426 314.187,811.0356 310.1491,820.0705 310.9371,829.9353 316.358,838.2146 319.6965,840.0"/>
    <polyline points="343.1263,840.0 344.4316,839.5524 353.3252,834.9989 361.4799,829.2257 368.7296,822.3502 374.9266,814.5126 379.9446,805.8726 383.6813,796.6062 386.0608,786.9021 387.0344,776.9582 386.5823,766.9769 384.7139,757.1617 381.467,747.7124 376.9079,738.8217 371.1295,730.6707 364.2494,723.4253 356.4079,717.2333 347.7647,712.2208 338.4959,708.4899 328.6944,706.6429 318.7407,707.2783 309.2536,710.3566 300.8231,715.6862 293.9731,722.936 289.1298,731.655 286.5941,741.3013 286.5238,751.2751 288.9232,760.9561 293.6432,769.7426 300.3902,777.0882 308.4039,783.059 317.0995,787.9842 326.3412,791.7868 335.985,794.4075 345.8802,795.8054 355.8725,795.9588 365.806,794.8651 375.5256,792.5416 384.8797,789.0243 393.7223,784.3683 401.9154,778.6462 409.3312,771.9473 415.854,764.376 421.3819,756.0506 425.8287,747.101 429.125,737.6668 431.2194,727.8952 432.1484,717.9437 431.9683,707.9504 430.6812,698.0388 428.3029,688.331 424.863,678.9468 420.4037,670.0018 414.98,661.6065 408.6589,653.8644 401.5184,646.8709 393.6463,640.7122 385.14,635.4645 376.0406,631.3376 366.4463,628.5483 356.5527,627.1533 346.5612,627.1811 336.6755,628.6312 327.097,631.4739 318.0207,635.6514 309.6316,641.0785 302.1007,647.6447 295.5813,655.2162 290.2063,663.6388 287.7907,673.2356 290.2718,682.8157 297.0421,690.0335 306.444,693.1219 316.1756,691.3246 323.8543,685.0819 327.6,675.922 326.4957,666.0876 320.8117,657.9866 311.9397,653.6023 302.0519,654.0083 292.7552,657.6608 284.1934,662.805 276.6035,669.2983 270.1961,676.9608 265.1486,685.58 261.6009,694.9172 259.6515,704.7136 259.3542,714.6976 260.7173,724.5926 263.7031,734.1243 268.2287,743.0286 274.1689,751.0587 281.3589,757.9922 289.5996,763.6367 298.6624,767.836 308.2963,770.4735 318.2343,771.4763 328.2009,770.8165 335.8374,765.018 335.0842,755.4591 326.6337,750.9283 318.2553,755.5911 317.652,765.1606 325.3786,770.8387 334.3311,767.4049 336.2788,758.0162 329.4308,751.3047 320.0833,753.4407 316.8302,762.4605 322.6625,770.0713 332.2179,769.2758 336.7113,760.8053 337.4578,770.7709 339.441,780.5656 342.6298,790.0367 346.9745,799.0363 352.4074,807.424 358.8436,815.069 366.1827,821.8518 374.3102,827.6668 383.0993,832.423 392.4128,836.0464 402.1053,838.4803 412.0257,839.6869 422.0191,839.6472 431.9296,838.3619 441.6026,835.851 450.887,832.1538 449.6093,830.7235 451.4595,831.2285 449.6323,831.8113 450.8484,830.3283 450.6348,832.2342 449.7772,830.5188 451.43,831.4916 449.5139,831.5745 451.0765,830.4626 450.3703,832.2456 449.9928,830.3653 451.3325,831.7377 449.4618,831.315 451.2614,830.652 450.1121,832.1873 450.2412,830.2738 451.1739,831.9496 457.6403,824.3328 462.9565,815.873 467.0141,806.7425 469.7304,797.1273 471.0501,787.2234 470.9463,777.2324 469.4212,767.358 466.5057,757.8013 462.2594,748.7571 456.7686,740.4095 450.1454,732.9287 442.5245,726.4671 434.0613,721.1563 424.9283,717.1045 415.3114,714.3942 405.4066,713.0808 395.4157,713.1909 385.5422,714.7223 375.9874,717.6437 366.9458,721.8958 358.6017,727.3918 351.1251,734.0198 344.6683,741.6448 339.3629,750.1113 335.3168,759.2469 332.6127,768.8655 331.3055,778.7712 331.4219,788.762 332.9595,798.6344 328.4254,789.8381 320.2291,784.2924 310.3775,783.355 301.2824,787.2556 295.1708,795.039 293.5389,804.7997 296.7864,814.1479 304.118,820.7948 313.7388,823.113 323.2933,820.535 330.4421,813.6919 333.4351,804.2592 331.5394,794.5463 325.2191,786.9313 316.0218,783.2786 306.1991,784.4825 298.1561,790.2482 303.9231,782.0929 308.2573,773.0938 311.0386,763.5004 312.1897,753.5785 311.679,743.6031 309.5204,733.8507 305.7738,724.5916 300.5432,716.0822 293.9733,708.5586 286.2463,702.2291 277.5764,697.2692 268.2037,693.8163 258.3881,691.9662 248.4016,691.77 238.521,693.2333 248.0889,690.3483 257.2226,686.2928 265.7793,681.1303 273.6257,674.9413 280.6392,667.8222 286.7105,659.8844 291.7447,651.2515 295.6633,642.0583 298.4052,632.4483 299.9276,622.5715 300.2067,612.5819 301.1063,622.5362 303.104,632.3294 306.1753,641.8406 310.2824,650.9527 315.3744,659.5532 321.3887,667.536 328.2511,674.8027 335.8769,681.2637 344.1721,686.8392 353.0343,691.4606 362.3544,695.0709 372.0173,697.6254 381.9039,699.0927 391.8922,699.4548 401.859,698.707 411.6815,696.8588 421.2384,693.9328 412.2606,698.2991 404.3291,704.3619 397.7602,711.8797 392.8158,720.5527 389.693,730.0351 388.5164,739.9488 389.3327,749.8987 392.1095,759.4881 396.7361,768.3347 403.028,776.0858 410.7344,782.4323 419.548,787.1213 429.1176,789.9659 439.0313,791.2261 449.0248,791.2404 458.9421,790.0087 468.6284,787.5501 477.9327,783.9031 486.7096,779.1246 494.8224,773.289 502.1443,766.4876 508.561,758.8263 513.9726,750.4248 518.2945,741.4142 521.4593,731.9351 523.4175,722.1353 524.1387,712.1679 523.6116,702.1883 521.8444,692.3523 518.8647,682.8134 522.9477,691.9362 528.0172,700.5501 534.0105,708.5487 540.8537,715.8334 548.4625,722.3144 556.743,727.9118 565.5931,732.5565 574.9036,736.1912 584.5597,738.7711 594.4424,740.2644 604.4297,740.6527 613.976,738.0447 621.1033,731.1791 624.0666,721.737 622.1403,712.0301 615.7961,704.4351 606.5873,700.8113 596.7685,702.0461 588.7436,707.8372 584.4776,716.7666 585.0147,726.6482 590.2236,735.0625 598.8289,739.9496 608.7237,740.1127 617.4854,735.5121 622.9689,727.2741 620.6222,736.9777 620.2501,746.9541 621.8673,756.8056 625.4095,766.1394 630.7355,774.5834 637.6328,781.801 645.8266,787.5044 654.9902,791.4663 664.7582,793.5287 674.7412,793.6094 684.5412,791.7051 693.7676,787.8919 702.0525,782.3216 709.0656,775.2165 714.5274,766.8597 718.22,757.5843 719.9963,747.7603 719.7854,737.7792 717.5959,728.0389 712.2462,719.7133 703.56,714.9717 693.6638,714.9749 684.9807,719.7222 679.6365,728.0512 678.9397,737.9228 683.0608,746.92 690.991,752.84 700.7886,754.2334 710.0548,750.759 716.5209,743.2674 718.6038,733.593 715.7936,724.1042 708.7782,717.1244 699.2753,714.3623 690.7141,718.6803 689.722,728.2174 697.2111,734.2051 706.296,731.1385 708.624,721.8369 702.0549,714.8522 692.6281,716.6061 689.0107,725.4861 694.5285,733.3279 704.1084,732.9218 708.9427,724.6412 704.5868,716.0992 695.0455,715.1493 689.091,722.6648 692.1978,731.736 701.5096,734.0229 708.4651,727.4229 707.0274,737.2723 708.8914,747.05 713.852,755.6796 721.3631,762.2111 730.5979,765.9254 740.5397,766.4138 750.094,763.6224 758.2091,757.8585 763.9916,749.7566 766.805,740.2087 766.3394,730.2658 762.6463,721.0226 756.132,713.4965 764.4238,719.0564 773.655,722.8582 783.4574,724.7503 793.4403,724.6572 803.2057,722.5827 812.3643,718.6094 820.551,712.8958 827.4394,705.6696 832.7548,697.219 836.2855,687.8808 837.8905,678.0273 837.8802,668.0339 836.6241,658.1196 834.1417,648.4394 830.4718,639.1441 825.6717,630.3789 819.8162,622.2806 812.9967,614.9755 805.3197,608.5776 796.9049,603.1867 787.8837,598.887 778.3968,595.7456 768.5922,593.8115 758.623,593.1148 748.6448,593.6665 738.8132,595.4579 729.2816,598.4611 720.1988,602.6292 721.5481,603.9921 719.6745,603.5825 721.4694,602.9069 720.3309,604.4503 720.4466,602.5359 721.3909,604.2052 719.6905,603.3183 721.5997,603.1373 720.0962,604.3279 720.7101,602.511 721.1834,604.3695 719.7752,603.0675 723.041,593.6434 723.8737,583.7042 722.2215,573.868 718.1872,564.7464 712.0216,556.9064 704.108,550.8356 694.9385,546.9113 685.0831,545.3776 675.1547,546.3298"/>
  </g>
</svg>
