<svg id="svg5_1623901500312" xmlns="http://www.w3.org/2000/svg" viewBox="0 0 1056.00 816.00" width="1056.00" height="816.00"><path stroke="rgb(0.00, 0.00, 0.00)" stroke-width="1" stroke-linecap="butt" stroke-linejoin="miter" fill="none" d="M528.00,672.00 L561.09,667.32 L593.65,653.46 L625.18,630.90 L655.18,600.45 L683.18,563.18 L708.72,520.41 L731.42,473.65 L750.90,424.58 L766.87,374.91 L779.08,326.42 L787.32,280.82 L791.48,239.72 L791.48,204.58 L787.32,176.66 L779.08,156.92 L766.87,146.08 L750.90,144.52 L731.42,152.29 L708.72,169.13 L683.18,194.42 L655.18,227.28 L625.18,266.54 L593.65,310.82 L561.09,358.53 L528.00,408.00 L494.91,457.47 L462.35,505.18 L430.82,549.46 L400.82,588.72 L372.82,621.58 L347.28,646.87 L324.58,663.71 L305.10,671.48 L289.13,669.92 L276.92,659.08 L268.68,639.34 L264.52,611.42 L264.52,576.28 L268.68,535.18 L276.92,489.58 L289.13,441.09 L305.10,391.42 L324.58,342.35 L347.28,295.59 L372.82,252.82 L400.82,215.55 L430.82,185.10 L462.35,162.54 L494.91,148.68 L528.00,144.00 L561.09,148.68 L593.65,162.54 L625.18,185.10 L655.18,215.55 L683.18,252.82 L708.72,295.59 L731.42,342.35 L750.90,391.42 L766.87,441.09 L779.08,489.58 L787.32,535.18 L791.48,576.28 L791.48,611.42 L787.32,639.34 L779.08,659.08 L766.87,669.92 L750.90,671.48 L731.42,663.71 L708.72,646.87 L683.18,621.58 L655.18,588.72 L625.18,549.46 L593.65,505.18 L561.09,457.47 L528.00,408.00 L494.91,358.53 L462.35,310.82 L430.82,266.54 L400.82,227.28 L372.82,194.42 L347.28,169.13 L324.58,152.29 L305.10,144.52 L289.13,146.08 L276.92,156.92 L268.68,176.66 L264.52,204.58 L264.52,239.72 L268.68,280.82 L276.92,326.42 L289.13,374.91 L305.10,424.58 L324.58,473.65 L347.28,520.41 L372.82,563.18 L400.82,600.45 L430.82,630.90 L462.35,653.46 L494.91,667.32 Z" /></svg>