<?xml version="1.0" encoding="utf-8" ?>
<svg xmlns="http://www.w3.org/2000/svg" xmlns:cc="http://creativecommons.org/ns#" xmlns:dc="http://purl.org/dc/elements/1.1/" xmlns:ev="http://www.w3.org/2001/xml-events" xmlns:inkscape="http://www.inkscape.org/namespaces/inkscape" xmlns:rdf="http://www.w3.org/1999/02/22-rdf-syntax-ns#" xmlns:sodipodi="http://sodipodi.sourceforge.net/DTD/sodipodi-0.dtd" xmlns:xlink="http://www.w3.org/1999/xlink" baseProfile="tiny" height="22.86cm" version="1.2" viewBox="0 0 1152.0 864.0" width="30.48cm">
  <metadata>
    <rdf:RDF>
      <cc:Work>
        <dc:format>image/svg+xml</dc:format>
        <dc:source/>
        <dc:date>2021-10-05T20:08:50.890990</dc:date>
      </cc:Work>
    </rdf:RDF>
  </metadata>
  <defs/>
  <g fill="none" id="layer1.0" inkscape:groupmode="layer" inkscape:label="1" stroke="#00f" style="display:inline">
    <line x1="576.0" x2="556.0" y1="253.0214" y2="241.4744"/>
    <line x1="558.2222" x2="578.2222" y1="240.1914" y2="251.7384"/>
    <line x1="580.4444" x2="560.4444" y1="250.4554" y2="238.9084"/>
    <line x1="562.6667" x2="582.6667" y1="237.6254" y2="249.1724"/>
    <line x1="584.8889" x2="564.8889" y1="247.8894" y2="236.3424"/>
    <line x1="567.1111" x2="587.1111" y1="235.0594" y2="246.6064"/>
    <line x1="589.3333" x2="569.3333" y1="245.3234" y2="233.7764"/>
    <line x1="571.5556" x2="591.5556" y1="232.4934" y2="244.0404"/>
    <line x1="593.7778" x2="573.7778" y1="242.7574" y2="231.2104"/>
    <line x1="576.0" x2="596.0" y1="229.9274" y2="241.4744"/>
    <line x1="596.0" x2="616.0" y1="287.6624" y2="299.2094"/>
    <line x1="613.7778" x2="593.7778" y1="300.4924" y2="288.9454"/>
    <line x1="591.5556" x2="611.5556" y1="290.2284" y2="301.7754"/>
    <line x1="609.3333" x2="589.3333" y1="303.0584" y2="291.5114"/>
    <line x1="587.1111" x2="607.1111" y1="292.7944" y2="304.3414"/>
    <line x1="604.8889" x2="584.8889" y1="305.6244" y2="294.0774"/>
    <line x1="582.6667" x2="602.6667" y1="295.3604" y2="306.9074"/>
    <line x1="600.4444" x2="580.4444" y1="308.1904" y2="296.6434"/>
    <line x1="578.2222" x2="598.2222" y1="297.9264" y2="309.4734"/>
    <line x1="596.0" x2="576.0" y1="310.7564" y2="299.2094"/>
    <polyline points="576.0,322.3034 636.0,356.9445 616.0,345.3975"/>
    <line x1="613.7778" x2="573.7778" y1="346.6805" y2="323.5864"/>
    <line x1="571.5556" x2="611.5556" y1="324.8695" y2="347.9635"/>
    <line x1="609.3333" x2="569.3333" y1="349.2465" y2="326.1525"/>
    <line x1="567.1111" x2="607.1111" y1="327.4355" y2="350.5295"/>
    <line x1="604.8889" x2="564.8889" y1="351.8125" y2="328.7185"/>
    <line x1="562.6667" x2="602.6667" y1="330.0015" y2="353.0955"/>
    <line x1="600.4444" x2="560.4444" y1="354.3785" y2="331.2845"/>
    <line x1="558.2222" x2="598.2222" y1="332.5675" y2="355.6615"/>
    <line x1="593.7778" x2="573.7778" y1="358.2275" y2="346.6805"/>
    <polyline points="576.0,345.3975 596.0,356.9445 556.0,333.8505"/>
    <line x1="567.1111" x2="587.1111" y1="350.5295" y2="362.0765"/>
    <line x1="584.8889" x2="564.8889" y1="363.3595" y2="351.8125"/>
    <line x1="562.6667" x2="582.6667" y1="353.0955" y2="364.6425"/>
    <line x1="580.4444" x2="560.4444" y1="365.9255" y2="354.3785"/>
    <line x1="558.2222" x2="578.2222" y1="355.6615" y2="367.2085"/>
    <polygon points="576.0,368.4915 556.0,356.9445"/>
    <line x1="573.7778" x2="553.7778" y1="369.7745" y2="358.2275"/>
    <line x1="551.5556" x2="571.5556" y1="359.5105" y2="371.0575"/>
    <line x1="569.3333" x2="549.3333" y1="372.3405" y2="360.7935"/>
    <line x1="547.1111" x2="567.1111" y1="362.0765" y2="373.6235"/>
    <line x1="564.8889" x2="544.8889" y1="374.9065" y2="363.3595"/>
    <line x1="542.6667" x2="562.6667" y1="364.6425" y2="376.1895"/>
    <line x1="560.4444" x2="540.4444" y1="377.4725" y2="365.9255"/>
    <line x1="538.2222" x2="558.2222" y1="367.2085" y2="378.7555"/>
    <line x1="556.0" x2="536.0" y1="380.0385" y2="368.4915"/>
    <line x1="569.3333" x2="589.3333" y1="349.2465" y2="360.7935"/>
    <line x1="591.5556" x2="571.5556" y1="359.5105" y2="347.9635"/>
    <line x1="616.0" x2="633.7778" y1="347.9635" y2="358.2275"/>
    <line x1="631.5556" x2="616.0" y1="359.5105" y2="350.5295"/>
    <line x1="616.0" x2="629.3333" y1="353.0955" y2="360.7935"/>
    <line x1="627.1111" x2="616.0" y1="362.0765" y2="355.6615"/>
    <line x1="616.0" x2="624.8889" y1="358.2275" y2="363.3595"/>
    <line x1="622.6667" x2="616.0" y1="364.6425" y2="360.7935"/>
    <line x1="616.0" x2="620.4444" y1="363.3595" y2="365.9255"/>
    <line x1="618.2222" x2="616.0" y1="367.2085" y2="365.9255"/>
    <line x1="616.0" x2="616.0" y1="368.4915" y2="368.4915"/>
    <line x1="627.1111" x2="647.1111" y1="385.1705" y2="396.7175"/>
    <line x1="644.8889" x2="624.8889" y1="398.0005" y2="386.4535"/>
    <line x1="622.6667" x2="642.6667" y1="387.7365" y2="399.2835"/>
    <line x1="640.4444" x2="620.4444" y1="400.5665" y2="389.0195"/>
    <line x1="618.2222" x2="638.2222" y1="390.3025" y2="401.8495"/>
    <line x1="636.0" x2="616.0" y1="403.1325" y2="391.5855"/>
    <line x1="629.3333" x2="649.3333" y1="383.8875" y2="395.4345"/>
    <line x1="651.5556" x2="631.5556" y1="394.1515" y2="382.6045"/>
    <line x1="633.7778" x2="653.7778" y1="381.3215" y2="392.8685"/>
    <polygon points="656.0,391.5855 636.0,380.0385"/>
    <line x1="658.2222" x2="638.2222" y1="390.3025" y2="378.7555"/>
    <line x1="640.4444" x2="660.4444" y1="377.4725" y2="389.0195"/>
    <line x1="662.6667" x2="642.6667" y1="387.7365" y2="376.1895"/>
    <line x1="644.8889" x2="664.8889" y1="374.9065" y2="386.4535"/>
    <line x1="667.1111" x2="647.1111" y1="385.1705" y2="373.6235"/>
    <line x1="649.3333" x2="669.3333" y1="372.3405" y2="383.8875"/>
    <line x1="671.5556" x2="651.5556" y1="382.6045" y2="371.0575"/>
    <line x1="653.7778" x2="673.7778" y1="369.7745" y2="381.3215"/>
    <polygon points="676.0,380.0385 656.0,368.4915"/>
    <line x1="678.2222" x2="658.2222" y1="378.7555" y2="367.2085"/>
    <line x1="660.4444" x2="680.4444" y1="365.9255" y2="377.4725"/>
    <line x1="682.6667" x2="662.6667" y1="376.1895" y2="364.6425"/>
    <line x1="664.8889" x2="684.8889" y1="363.3595" y2="374.9065"/>
    <line x1="687.1111" x2="667.1111" y1="373.6235" y2="362.0765"/>
    <line x1="669.3333" x2="689.3333" y1="360.7935" y2="372.3405"/>
    <line x1="691.5556" x2="671.5556" y1="371.0575" y2="359.5105"/>
    <line x1="673.7778" x2="693.7778" y1="358.2275" y2="369.7745"/>
    <line x1="696.0" x2="676.0" y1="368.4915" y2="356.9445"/>
    <line x1="656.0" x2="636.0" y1="345.3975" y2="333.8505"/>
    <line x1="633.7778" x2="653.7778" y1="335.1335" y2="346.6805"/>
    <line x1="651.5556" x2="631.5556" y1="347.9635" y2="336.4165"/>
    <line x1="629.3333" x2="649.3333" y1="337.6995" y2="349.2465"/>
    <line x1="647.1111" x2="627.1111" y1="350.5295" y2="338.9825"/>
    <line x1="624.8889" x2="644.8889" y1="340.2655" y2="351.8125"/>
    <line x1="642.6667" x2="622.6667" y1="353.0955" y2="341.5485"/>
    <line x1="620.4444" x2="640.4444" y1="342.8315" y2="354.3785"/>
    <line x1="638.2222" x2="618.2222" y1="355.6615" y2="344.1145"/>
    <line x1="616.0" x2="636.0" y1="437.7735" y2="449.3205"/>
    <line x1="638.2222" x2="716.0" y1="448.0375" y2="492.9425"/>
    <line x1="716.0" x2="640.4444" y1="490.3765" y2="446.7545"/>
    <line x1="642.6667" x2="716.0" y1="445.4715" y2="487.8105"/>
    <line x1="716.0" x2="644.8889" y1="485.2445" y2="444.1885"/>
    <line x1="647.1111" x2="716.0" y1="442.9055" y2="482.6785"/>
    <line x1="716.0" x2="649.3333" y1="480.1125" y2="441.6225"/>
    <line x1="651.5556" x2="716.0" y1="440.3395" y2="477.5465"/>
    <line x1="716.0" x2="653.7778" y1="474.9805" y2="439.0565"/>
    <line x1="656.0" x2="676.0" y1="437.7735" y2="449.3205"/>
    <line x1="678.2222" x2="738.2222" y1="448.0375" y2="482.6785"/>
    <polyline points="736.0,483.9615 676.0,449.3205 716.0,472.4145"/>
    <line x1="696.0" x2="696.0" y1="460.8675" y2="460.8675"/>
    <line x1="684.8889" x2="744.8889" y1="444.1885" y2="478.8295"/>
    <line x1="747.1111" x2="687.1111" y1="477.5465" y2="442.9055"/>
    <line x1="689.3333" x2="749.3333" y1="441.6225" y2="476.2635"/>
    <line x1="751.5556" x2="691.5556" y1="474.9805" y2="440.3395"/>
    <line x1="693.7778" x2="753.7778" y1="439.0565" y2="473.6975"/>
    <polyline points="756.0,472.4145 696.0,437.7735 736.0,460.8675"/>
    <line x1="736.0" x2="698.2222" y1="458.3015" y2="436.4905"/>
    <line x1="700.4444" x2="736.0" y1="435.2075" y2="455.7355"/>
    <line x1="736.0" x2="702.6667" y1="453.1695" y2="433.9245"/>
    <line x1="704.8889" x2="736.0" y1="432.6415" y2="450.6035"/>
    <line x1="736.0" x2="707.1111" y1="448.0375" y2="431.3585"/>
    <line x1="709.3333" x2="736.0" y1="430.0755" y2="445.4715"/>
    <line x1="736.0" x2="711.5556" y1="442.9055" y2="428.7925"/>
    <line x1="713.7778" x2="736.0" y1="427.5095" y2="440.3395"/>
    <line x1="736.0" x2="716.0" y1="437.7735" y2="426.2265"/>
    <line x1="736.0" x2="756.0" y1="414.6795" y2="426.2265"/>
    <line x1="758.2222" x2="738.2222" y1="424.9435" y2="413.3965"/>
    <line x1="740.4444" x2="760.4444" y1="412.1135" y2="423.6605"/>
    <line x1="762.6667" x2="742.6667" y1="422.3775" y2="410.8305"/>
    <line x1="744.8889" x2="764.8889" y1="409.5475" y2="421.0945"/>
    <line x1="767.1111" x2="747.1111" y1="419.8115" y2="408.2645"/>
    <line x1="749.3333" x2="769.3333" y1="406.9815" y2="418.5285"/>
    <line x1="771.5556" x2="751.5556" y1="417.2455" y2="405.6985"/>
    <line x1="753.7778" x2="773.7778" y1="404.4155" y2="415.9625"/>
    <line x1="776.0" x2="793.7778" y1="417.2455" y2="427.5095"/>
    <line x1="796.0" x2="736.0" y1="426.2265" y2="391.5855"/>
    <line x1="738.2222" x2="758.2222" y1="390.3025" y2="401.8495"/>
    <line x1="756.0" x2="756.0" y1="403.1325" y2="403.1325"/>
    <line x1="760.4444" x2="740.4444" y1="400.5665" y2="389.0195"/>
    <line x1="742.6667" x2="762.6667" y1="387.7365" y2="399.2835"/>
    <line x1="764.8889" x2="744.8889" y1="398.0005" y2="386.4535"/>
    <line x1="747.1111" x2="767.1111" y1="385.1705" y2="396.7175"/>
    <line x1="769.3333" x2="749.3333" y1="395.4345" y2="383.8875"/>
    <line x1="751.5556" x2="771.5556" y1="382.6045" y2="394.1515"/>
    <line x1="773.7778" x2="753.7778" y1="392.8685" y2="381.3215"/>
    <line x1="756.0" x2="776.0" y1="380.0385" y2="391.5855"/>
    <line x1="776.0" x2="791.5556" y1="419.8115" y2="428.7925"/>
    <line x1="789.3333" x2="776.0" y1="430.0755" y2="422.3775"/>
    <line x1="776.0" x2="787.1111" y1="424.9435" y2="431.3585"/>
    <line x1="784.8889" x2="776.0" y1="432.6415" y2="427.5095"/>
    <line x1="776.0" x2="782.6667" y1="430.0755" y2="433.9245"/>
    <line x1="780.4444" x2="776.0" y1="435.2075" y2="432.6415"/>
    <line x1="776.0" x2="778.2222" y1="435.2075" y2="436.4905"/>
    <line x1="776.0" x2="776.0" y1="437.7735" y2="437.7735"/>
    <line x1="776.0" x2="796.0" y1="460.8675" y2="472.4145"/>
    <line x1="793.7778" x2="776.0" y1="473.6975" y2="463.4335"/>
    <line x1="776.0" x2="791.5556" y1="465.9995" y2="474.9805"/>
    <line x1="789.3333" x2="776.0" y1="476.2635" y2="468.5655"/>
    <line x1="776.0" x2="787.1111" y1="471.1315" y2="477.5465"/>
    <line x1="784.8889" x2="776.0" y1="478.8295" y2="473.6975"/>
    <line x1="776.0" x2="782.6667" y1="476.2635" y2="480.1125"/>
    <line x1="780.4444" x2="776.0" y1="481.3955" y2="478.8295"/>
    <line x1="776.0" x2="778.2222" y1="481.3955" y2="482.6785"/>
    <line x1="776.0" x2="776.0" y1="483.9615" y2="483.9615"/>
    <line x1="756.0" x2="776.0" y1="495.5085" y2="507.0555"/>
    <line x1="773.7778" x2="753.7778" y1="508.3385" y2="496.7915"/>
    <line x1="751.5556" x2="771.5556" y1="498.0745" y2="509.6215"/>
    <line x1="769.3333" x2="749.3333" y1="510.9045" y2="499.3575"/>
    <line x1="747.1111" x2="767.1111" y1="500.6405" y2="512.1875"/>
    <line x1="764.8889" x2="744.8889" y1="513.4705" y2="501.9235"/>
    <line x1="742.6667" x2="762.6667" y1="503.2065" y2="514.7535"/>
    <line x1="760.4444" x2="740.4444" y1="516.0365" y2="504.4895"/>
    <line x1="738.2222" x2="758.2222" y1="505.7725" y2="517.3195"/>
    <line x1="756.0" x2="736.0" y1="518.6025" y2="507.0555"/>
    <line x1="716.0" x2="696.0" y1="518.6025" y2="507.0555"/>
    <line x1="693.7778" x2="713.7778" y1="508.3385" y2="519.8855"/>
    <line x1="711.5556" x2="691.5556" y1="521.1685" y2="509.6215"/>
    <line x1="689.3333" x2="709.3333" y1="510.9045" y2="522.4515"/>
    <line x1="707.1111" x2="687.1111" y1="523.7345" y2="512.1875"/>
    <line x1="684.8889" x2="704.8889" y1="513.4705" y2="525.0175"/>
    <line x1="702.6667" x2="682.6667" y1="526.3005" y2="514.7535"/>
    <line x1="680.4444" x2="700.4444" y1="516.0365" y2="527.5835"/>
    <line x1="698.2222" x2="678.2222" y1="528.8665" y2="517.3195"/>
    <polyline points="676.0,518.6025 696.0,530.1495 656.0,507.0555"/>
    <line x1="656.0" x2="693.7778" y1="509.6215" y2="531.4325"/>
    <line x1="691.5556" x2="656.0" y1="532.7155" y2="512.1875"/>
    <line x1="656.0" x2="689.3333" y1="514.7535" y2="533.9985"/>
    <line x1="687.1111" x2="656.0" y1="535.2815" y2="517.3195"/>
    <line x1="656.0" x2="684.8889" y1="519.8855" y2="536.5645"/>
    <line x1="682.6667" x2="656.0" y1="537.8475" y2="522.4515"/>
    <line x1="656.0" x2="680.4444" y1="525.0175" y2="539.1305"/>
    <line x1="678.2222" x2="656.0" y1="540.4136" y2="527.5835"/>
    <polygon points="656.0,530.1495 676.0,541.6966"/>
    <line x1="653.7778" x2="673.7778" y1="531.4325" y2="542.9796"/>
    <line x1="671.5556" x2="651.5556" y1="544.2626" y2="532.7155"/>
    <line x1="649.3333" x2="669.3333" y1="533.9985" y2="545.5456"/>
    <line x1="667.1111" x2="647.1111" y1="546.8286" y2="535.2815"/>
    <line x1="644.8889" x2="664.8889" y1="536.5645" y2="548.1116"/>
    <line x1="662.6667" x2="642.6667" y1="549.3946" y2="537.8475"/>
    <line x1="640.4444" x2="660.4444" y1="539.1305" y2="550.6776"/>
    <line x1="658.2222" x2="638.2222" y1="551.9606" y2="540.4136"/>
    <polygon points="636.0,541.6966 656.0,553.2436"/>
    <line x1="633.7778" x2="653.7778" y1="542.9796" y2="554.5266"/>
    <line x1="651.5556" x2="631.5556" y1="555.8096" y2="544.2626"/>
    <line x1="629.3333" x2="649.3333" y1="545.5456" y2="557.0926"/>
    <line x1="647.1111" x2="627.1111" y1="558.3756" y2="546.8286"/>
    <line x1="624.8889" x2="644.8889" y1="548.1116" y2="559.6586"/>
    <line x1="642.6667" x2="622.6667" y1="560.9416" y2="549.3946"/>
    <line x1="620.4444" x2="640.4444" y1="550.6776" y2="562.2246"/>
    <line x1="638.2222" x2="618.2222" y1="563.5076" y2="551.9606"/>
    <line x1="616.0" x2="636.0" y1="553.2436" y2="564.7906"/>
    <line x1="596.0" x2="536.0" y1="495.5085" y2="460.8675"/>
    <line x1="538.2222" x2="598.2222" y1="459.5845" y2="494.2255"/>
    <line x1="600.4444" x2="540.4444" y1="492.9425" y2="458.3015"/>
    <line x1="542.6667" x2="602.6667" y1="457.0185" y2="491.6595"/>
    <line x1="604.8889" x2="544.8889" y1="490.3765" y2="455.7355"/>
    <line x1="547.1111" x2="607.1111" y1="454.4525" y2="489.0935"/>
    <line x1="609.3333" x2="549.3333" y1="487.8105" y2="453.1695"/>
    <line x1="551.5556" x2="611.5556" y1="451.8865" y2="486.5275"/>
    <line x1="613.7778" x2="553.7778" y1="485.2445" y2="450.6035"/>
    <polyline points="556.0,449.3205 616.0,483.9615 536.0,437.7735"/>
    <line x1="538.2222" x2="618.2222" y1="436.4905" y2="482.6785"/>
    <line x1="620.4444" x2="540.4444" y1="481.3955" y2="435.2075"/>
    <line x1="542.6667" x2="622.6667" y1="433.9245" y2="480.1125"/>
    <line x1="624.8889" x2="544.8889" y1="478.8295" y2="432.6415"/>
    <line x1="547.1111" x2="627.1111" y1="431.3585" y2="477.5465"/>
    <line x1="629.3333" x2="549.3333" y1="476.2635" y2="430.0755"/>
    <line x1="551.5556" x2="631.5556" y1="428.7925" y2="474.9805"/>
    <line x1="633.7778" x2="553.7778" y1="473.6975" y2="427.5095"/>
    <polyline points="556.0,426.2265 636.0,472.4145 596.0,449.3205"/>
    <line x1="598.2222" x2="638.2222" y1="448.0375" y2="471.1315"/>
    <line x1="640.4444" x2="600.4444" y1="469.8485" y2="446.7545"/>
    <line x1="602.6667" x2="642.6667" y1="445.4715" y2="468.5655"/>
    <line x1="644.8889" x2="604.8889" y1="467.2825" y2="444.1885"/>
    <line x1="607.1111" x2="647.1111" y1="442.9055" y2="465.9995"/>
    <line x1="649.3333" x2="609.3333" y1="464.7165" y2="441.6225"/>
    <line x1="611.5556" x2="651.5556" y1="440.3395" y2="463.4335"/>
    <line x1="653.7778" x2="613.7778" y1="462.1505" y2="439.0565"/>
    <polyline points="656.0,460.8675 636.0,449.3205 716.0,495.5085"/>
    <line x1="740.4444" x2="680.4444" y1="481.3955" y2="446.7545"/>
    <line x1="682.6667" x2="742.6667" y1="445.4715" y2="480.1125"/>
    <line x1="773.7778" x2="793.7778" y1="531.4325" y2="542.9796"/>
    <line x1="796.0" x2="776.0" y1="541.6966" y2="530.1495"/>
    <line x1="771.5556" x2="791.5556" y1="532.7155" y2="544.2626"/>
    <line x1="789.3333" x2="769.3333" y1="545.5456" y2="533.9985"/>
    <line x1="767.1111" x2="787.1111" y1="535.2815" y2="546.8286"/>
    <line x1="784.8889" x2="764.8889" y1="548.1116" y2="536.5645"/>
    <line x1="762.6667" x2="782.6667" y1="537.8475" y2="549.3946"/>
    <line x1="780.4444" x2="760.4444" y1="550.6776" y2="539.1305"/>
    <line x1="758.2222" x2="778.2222" y1="540.4136" y2="551.9606"/>
    <line x1="776.0" x2="756.0" y1="553.2436" y2="541.6966"/>
    <line x1="736.0" x2="716.0" y1="368.4915" y2="356.9445"/>
    <line x1="718.2222" x2="738.2222" y1="355.6615" y2="367.2085"/>
    <line x1="740.4444" x2="720.4444" y1="365.9255" y2="354.3785"/>
    <line x1="722.6667" x2="742.6667" y1="353.0955" y2="364.6425"/>
    <line x1="744.8889" x2="724.8889" y1="363.3595" y2="351.8125"/>
    <line x1="727.1111" x2="747.1111" y1="350.5295" y2="362.0765"/>
    <line x1="749.3333" x2="729.3333" y1="360.7935" y2="349.2465"/>
    <line x1="731.5556" x2="751.5556" y1="347.9635" y2="359.5105"/>
    <line x1="753.7778" x2="733.7778" y1="358.2275" y2="346.6805"/>
    <line x1="736.0" x2="756.0" y1="345.3975" y2="356.9445"/>
    <line x1="576.0" x2="576.0" y1="483.9615" y2="483.9615"/>
    <polygon points="536.0,483.9615 516.0,472.4145"/>
    <line x1="533.7778" x2="516.0" y1="485.2445" y2="474.9805"/>
    <line x1="516.0" x2="531.5556" y1="477.5465" y2="486.5275"/>
    <line x1="529.3333" x2="516.0" y1="487.8105" y2="480.1125"/>
    <line x1="516.0" x2="527.1111" y1="482.6785" y2="489.0935"/>
    <line x1="524.8889" x2="516.0" y1="490.3765" y2="485.2445"/>
    <line x1="516.0" x2="522.6667" y1="487.8105" y2="491.6595"/>
    <line x1="520.4444" x2="516.0" y1="492.9425" y2="490.3765"/>
    <line x1="516.0" x2="518.2222" y1="492.9425" y2="494.2255"/>
    <line x1="516.0" x2="516.0" y1="495.5085" y2="495.5085"/>
    <line x1="518.2222" x2="536.0" y1="471.1315" y2="481.3955"/>
    <line x1="536.0" x2="520.4444" y1="478.8295" y2="469.8485"/>
    <line x1="522.6667" x2="536.0" y1="468.5655" y2="476.2635"/>
    <line x1="536.0" x2="524.8889" y1="473.6975" y2="467.2825"/>
    <line x1="527.1111" x2="536.0" y1="465.9995" y2="471.1315"/>
    <line x1="536.0" x2="529.3333" y1="468.5655" y2="464.7165"/>
    <line x1="531.5556" x2="536.0" y1="463.4335" y2="465.9995"/>
    <line x1="536.0" x2="533.7778" y1="463.4335" y2="462.1505"/>
    <line x1="496.0" x2="476.0" y1="460.8675" y2="449.3205"/>
    <line x1="473.7778" x2="493.7778" y1="450.6035" y2="462.1505"/>
    <line x1="491.5556" x2="471.5556" y1="463.4335" y2="451.8865"/>
    <line x1="469.3333" x2="489.3333" y1="453.1695" y2="464.7165"/>
    <line x1="487.1111" x2="467.1111" y1="465.9995" y2="454.4525"/>
    <line x1="464.8889" x2="484.8889" y1="455.7355" y2="467.2825"/>
    <line x1="482.6667" x2="462.6667" y1="468.5655" y2="457.0185"/>
    <line x1="460.4444" x2="480.4444" y1="458.3015" y2="469.8485"/>
    <line x1="478.2222" x2="458.2222" y1="471.1315" y2="459.5845"/>
    <line x1="456.0" x2="476.0" y1="460.8675" y2="472.4145"/>
    <line x1="456.0" x2="476.0" y1="483.9615" y2="495.5085"/>
    <line x1="473.7778" x2="453.7778" y1="496.7915" y2="485.2445"/>
    <line x1="451.5556" x2="471.5556" y1="486.5275" y2="498.0745"/>
    <line x1="469.3333" x2="449.3333" y1="499.3575" y2="487.8105"/>
    <line x1="447.1111" x2="467.1111" y1="489.0935" y2="500.6405"/>
    <line x1="464.8889" x2="444.8889" y1="501.9235" y2="490.3765"/>
    <line x1="442.6667" x2="462.6667" y1="491.6595" y2="503.2065"/>
    <line x1="460.4444" x2="440.4444" y1="504.4895" y2="492.9425"/>
    <line x1="438.2222" x2="458.2222" y1="494.2255" y2="505.7725"/>
    <line x1="456.0" x2="436.0" y1="507.0555" y2="495.5085"/>
    <line x1="456.0" x2="436.0" y1="437.7735" y2="426.2265"/>
    <line x1="438.2222" x2="458.2222" y1="424.9435" y2="436.4905"/>
    <line x1="460.4444" x2="440.4444" y1="435.2075" y2="423.6605"/>
    <line x1="442.6667" x2="462.6667" y1="422.3775" y2="433.9245"/>
    <line x1="464.8889" x2="444.8889" y1="432.6415" y2="421.0945"/>
    <line x1="447.1111" x2="467.1111" y1="419.8115" y2="431.3585"/>
    <line x1="469.3333" x2="449.3333" y1="430.0755" y2="418.5285"/>
    <line x1="451.5556" x2="471.5556" y1="417.2455" y2="428.7925"/>
    <line x1="473.7778" x2="453.7778" y1="427.5095" y2="415.9625"/>
    <line x1="456.0" x2="496.0" y1="414.6795" y2="437.7735"/>
    <line x1="498.2222" x2="478.2222" y1="436.4905" y2="424.9435"/>
    <line x1="480.4444" x2="500.4444" y1="423.6605" y2="435.2075"/>
    <line x1="502.6667" x2="482.6667" y1="433.9245" y2="422.3775"/>
    <line x1="484.8889" x2="504.8889" y1="421.0945" y2="432.6415"/>
    <line x1="507.1111" x2="487.1111" y1="431.3585" y2="419.8115"/>
    <line x1="489.3333" x2="509.3333" y1="418.5285" y2="430.0755"/>
    <line x1="511.5556" x2="491.5556" y1="428.7925" y2="417.2455"/>
    <line x1="493.7778" x2="513.7778" y1="415.9625" y2="427.5095"/>
    <line x1="516.0" x2="496.0" y1="426.2265" y2="414.6795"/>
    <line x1="476.0" x2="436.0" y1="380.0385" y2="356.9445"/>
    <line x1="433.7778" x2="473.7778" y1="358.2275" y2="381.3215"/>
    <line x1="471.5556" x2="431.5556" y1="382.6045" y2="359.5105"/>
    <line x1="429.3333" x2="469.3333" y1="360.7935" y2="383.8875"/>
    <line x1="467.1111" x2="427.1111" y1="385.1705" y2="362.0765"/>
    <line x1="424.8889" x2="464.8889" y1="363.3595" y2="386.4535"/>
    <line x1="462.6667" x2="422.6667" y1="387.7365" y2="364.6425"/>
    <line x1="420.4444" x2="460.4444" y1="365.9255" y2="389.0195"/>
    <line x1="458.2222" x2="418.2222" y1="390.3025" y2="367.2085"/>
    <polyline points="416.0,368.4915 456.0,391.5855 436.0,380.0385"/>
    <line x1="433.7778" x2="453.7778" y1="381.3215" y2="392.8685"/>
    <line x1="451.5556" x2="431.5556" y1="394.1515" y2="382.6045"/>
    <line x1="429.3333" x2="449.3333" y1="383.8875" y2="395.4345"/>
    <line x1="447.1111" x2="427.1111" y1="396.7175" y2="385.1705"/>
    <line x1="424.8889" x2="444.8889" y1="386.4535" y2="398.0005"/>
    <line x1="442.6667" x2="422.6667" y1="399.2835" y2="387.7365"/>
    <line x1="420.4444" x2="440.4444" y1="389.0195" y2="400.5665"/>
    <line x1="438.2222" x2="418.2222" y1="401.8495" y2="390.3025"/>
    <line x1="416.0" x2="393.7778" y1="394.1515" y2="381.3215"/>
    <line x1="396.0" x2="436.0" y1="380.0385" y2="403.1325"/>
    <line x1="416.0" x2="387.1111" y1="401.8495" y2="385.1705"/>
    <line x1="389.3333" x2="416.0" y1="383.8875" y2="399.2835"/>
    <line x1="416.0" x2="391.5556" y1="396.7175" y2="382.6045"/>
    <line x1="384.8889" x2="416.0" y1="386.4535" y2="404.4155"/>
    <line x1="416.0" x2="382.6667" y1="406.9815" y2="387.7365"/>
    <line x1="380.4444" x2="416.0" y1="389.0195" y2="409.5475"/>
    <line x1="416.0" x2="378.2222" y1="412.1135" y2="390.3025"/>
    <polyline points="376.0,391.5855 416.0,414.6795 396.0,403.1325"/>
    <line x1="393.7778" x2="413.7778" y1="404.4155" y2="415.9625"/>
    <line x1="411.5556" x2="391.5556" y1="417.2455" y2="405.6985"/>
    <line x1="389.3333" x2="409.3333" y1="406.9815" y2="418.5285"/>
    <line x1="407.1111" x2="387.1111" y1="419.8115" y2="408.2645"/>
    <line x1="384.8889" x2="404.8889" y1="409.5475" y2="421.0945"/>
    <line x1="402.6667" x2="382.6667" y1="422.3775" y2="410.8305"/>
    <line x1="380.4444" x2="400.4444" y1="412.1135" y2="423.6605"/>
    <line x1="398.2222" x2="378.2222" y1="424.9435" y2="413.3965"/>
    <polygon points="376.0,414.6795 396.0,426.2265"/>
    <line x1="373.7778" x2="393.7778" y1="415.9625" y2="427.5095"/>
    <line x1="391.5556" x2="371.5556" y1="428.7925" y2="417.2455"/>
    <line x1="369.3333" x2="389.3333" y1="418.5285" y2="430.0755"/>
    <line x1="387.1111" x2="367.1111" y1="431.3585" y2="419.8115"/>
    <line x1="364.8889" x2="384.8889" y1="421.0945" y2="432.6415"/>
    <line x1="382.6667" x2="362.6667" y1="433.9245" y2="422.3775"/>
    <line x1="360.4444" x2="380.4444" y1="423.6605" y2="435.2075"/>
    <line x1="378.2222" x2="358.2222" y1="436.4905" y2="424.9435"/>
    <line x1="356.0" x2="376.0" y1="426.2265" y2="437.7735"/>
    <line x1="456.0" x2="456.0" y1="368.4915" y2="368.4915"/>
  </g>
  <g fill="none" id="layer2.0" inkscape:groupmode="layer" inkscape:label="2" stroke="#080" style="display:inline">
    <line x1="576.0" x2="596.0" y1="253.0214" y2="241.4744"/>
    <line x1="596.0" x2="576.0" y1="244.0404" y2="255.5874"/>
    <line x1="576.0" x2="596.0" y1="258.1534" y2="246.6064"/>
    <line x1="596.0" x2="576.0" y1="249.1724" y2="260.7194"/>
    <line x1="576.0" x2="596.0" y1="263.2854" y2="251.7384"/>
    <line x1="596.0" x2="576.0" y1="254.3044" y2="265.8514"/>
    <line x1="576.0" x2="596.0" y1="268.4174" y2="256.8704"/>
    <line x1="596.0" x2="576.0" y1="259.4364" y2="270.9834"/>
    <line x1="576.0" x2="596.0" y1="273.5494" y2="262.0024"/>
    <polygon points="596.0,264.5684 576.0,276.1154"/>
    <line x1="596.0" x2="576.0" y1="267.1344" y2="278.6814"/>
    <line x1="576.0" x2="596.0" y1="281.2474" y2="269.7004"/>
    <line x1="596.0" x2="576.0" y1="272.2664" y2="283.8134"/>
    <line x1="576.0" x2="596.0" y1="286.3794" y2="274.8324"/>
    <line x1="596.0" x2="576.0" y1="277.3984" y2="288.9454"/>
    <line x1="576.0" x2="596.0" y1="291.5114" y2="279.9644"/>
    <line x1="596.0" x2="576.0" y1="282.5304" y2="294.0774"/>
    <line x1="576.0" x2="596.0" y1="296.6434" y2="285.0964"/>
    <line x1="596.0" x2="576.0" y1="287.6624" y2="299.2094"/>
    <line x1="596.0" x2="616.0" y1="310.7564" y2="299.2094"/>
    <line x1="616.0" x2="596.0" y1="301.7754" y2="313.3224"/>
    <line x1="596.0" x2="616.0" y1="315.8884" y2="304.3414"/>
    <line x1="616.0" x2="596.0" y1="306.9074" y2="318.4544"/>
    <line x1="596.0" x2="616.0" y1="321.0204" y2="309.4734"/>
    <line x1="616.0" x2="596.0" y1="312.0394" y2="323.5864"/>
    <line x1="596.0" x2="616.0" y1="326.1525" y2="314.6054"/>
    <line x1="616.0" x2="596.0" y1="317.1714" y2="328.7185"/>
    <line x1="596.0" x2="616.0" y1="331.2845" y2="319.7374"/>
    <line x1="616.0" x2="596.0" y1="322.3034" y2="333.8505"/>
    <line x1="616.0" x2="556.0" y1="345.3975" y2="380.0385"/>
    <line x1="556.0" x2="616.0" y1="382.6045" y2="347.9635"/>
    <line x1="616.0" x2="556.0" y1="350.5295" y2="385.1705"/>
    <line x1="556.0" x2="616.0" y1="387.7365" y2="353.0955"/>
    <line x1="616.0" x2="556.0" y1="355.6615" y2="390.3025"/>
    <line x1="556.0" x2="616.0" y1="392.8685" y2="358.2275"/>
    <line x1="616.0" x2="556.0" y1="360.7935" y2="395.4345"/>
    <line x1="556.0" x2="616.0" y1="398.0005" y2="363.3595"/>
    <line x1="616.0" x2="556.0" y1="365.9255" y2="400.5665"/>
    <line x1="556.0" x2="596.0" y1="403.1325" y2="380.0385"/>
    <line x1="596.0" x2="656.0" y1="382.6045" y2="347.9635"/>
    <polyline points="656.0,345.3975 596.0,380.0385 616.0,368.4915"/>
    <line x1="636.0" x2="636.0" y1="380.0385" y2="380.0385"/>
    <line x1="636.0" x2="696.0" y1="403.1325" y2="368.4915"/>
    <line x1="696.0" x2="636.0" y1="371.0575" y2="405.6985"/>
    <line x1="636.0" x2="696.0" y1="408.2645" y2="373.6235"/>
    <line x1="696.0" x2="636.0" y1="376.1895" y2="410.8305"/>
    <line x1="636.0" x2="696.0" y1="413.3965" y2="378.7555"/>
    <line x1="696.0" x2="636.0" y1="381.3215" y2="415.9625"/>
    <line x1="636.0" x2="696.0" y1="418.5285" y2="383.8875"/>
    <line x1="696.0" x2="636.0" y1="386.4535" y2="421.0945"/>
    <line x1="636.0" x2="696.0" y1="423.6605" y2="389.0195"/>
    <line x1="696.0" x2="596.0" y1="391.5855" y2="449.3205"/>
    <line x1="596.0" x2="633.7778" y1="446.7545" y2="424.9435"/>
    <line x1="631.5556" x2="596.0" y1="423.6605" y2="444.1885"/>
    <line x1="596.0" x2="629.3333" y1="441.6225" y2="422.3775"/>
    <line x1="627.1111" x2="596.0" y1="421.0945" y2="439.0565"/>
    <line x1="596.0" x2="624.8889" y1="436.4905" y2="419.8115"/>
    <line x1="622.6667" x2="596.0" y1="418.5285" y2="433.9245"/>
    <line x1="596.0" x2="620.4444" y1="431.3585" y2="417.2455"/>
    <line x1="618.2222" x2="596.0" y1="415.9625" y2="428.7925"/>
    <polygon points="596.0,426.2265 616.0,414.6795"/>
    <line x1="596.0" x2="596.0" y1="426.2265" y2="426.2265"/>
    <line x1="596.0" x2="616.0" y1="423.6605" y2="412.1135"/>
    <line x1="616.0" x2="596.0" y1="409.5475" y2="421.0945"/>
    <line x1="596.0" x2="616.0" y1="418.5285" y2="406.9815"/>
    <line x1="616.0" x2="596.0" y1="404.4155" y2="415.9625"/>
    <line x1="596.0" x2="616.0" y1="413.3965" y2="401.8495"/>
    <line x1="616.0" x2="596.0" y1="399.2835" y2="410.8305"/>
    <line x1="596.0" x2="616.0" y1="408.2645" y2="396.7175"/>
    <line x1="616.0" x2="596.0" y1="394.1515" y2="405.6985"/>
    <line x1="596.0" x2="656.0" y1="400.5665" y2="365.9255"/>
    <polyline points="656.0,368.4915 596.0,403.1325 616.0,391.5855"/>
    <line x1="596.0" x2="656.0" y1="392.8685" y2="358.2275"/>
    <line x1="656.0" x2="596.0" y1="355.6615" y2="390.3025"/>
    <line x1="596.0" x2="656.0" y1="387.7365" y2="353.0955"/>
    <line x1="656.0" x2="596.0" y1="350.5295" y2="385.1705"/>
    <line x1="596.0" x2="656.0" y1="395.4345" y2="360.7935"/>
    <line x1="656.0" x2="596.0" y1="363.3595" y2="398.0005"/>
    <line x1="616.0" x2="616.0" y1="437.7735" y2="437.7735"/>
    <line x1="656.0" x2="596.0" y1="460.8675" y2="495.5085"/>
    <line x1="596.0" x2="656.0" y1="498.0745" y2="463.4335"/>
    <line x1="656.0" x2="596.0" y1="465.9995" y2="500.6405"/>
    <line x1="596.0" x2="656.0" y1="503.2065" y2="468.5655"/>
    <line x1="656.0" x2="596.0" y1="471.1315" y2="505.7725"/>
    <line x1="596.0" x2="656.0" y1="508.3385" y2="473.6975"/>
    <line x1="656.0" x2="596.0" y1="476.2635" y2="510.9045"/>
    <line x1="596.0" x2="656.0" y1="513.4705" y2="478.8295"/>
    <line x1="656.0" x2="596.0" y1="481.3955" y2="516.0365"/>
    <line x1="596.0" x2="658.2222" y1="521.1685" y2="485.2445"/>
    <polygon points="656.0,483.9615 636.0,495.5085"/>
    <line x1="660.4444" x2="596.0" y1="486.5275" y2="523.7345"/>
    <line x1="596.0" x2="662.6667" y1="526.3005" y2="487.8105"/>
    <line x1="664.8889" x2="596.0" y1="489.0935" y2="528.8665"/>
    <line x1="596.0" x2="667.1111" y1="531.4325" y2="490.3765"/>
    <line x1="669.3333" x2="596.0" y1="491.6595" y2="533.9985"/>
    <line x1="596.0" x2="671.5556" y1="536.5645" y2="492.9425"/>
    <line x1="673.7778" x2="596.0" y1="494.2255" y2="539.1305"/>
    <polygon points="596.0,541.6966 616.0,530.1495"/>
    <line x1="596.0" x2="596.0" y1="541.6966" y2="541.6966"/>
    <line x1="596.0" x2="656.0" y1="544.2626" y2="509.6215"/>
    <line x1="658.2222" x2="676.0" y1="508.3385" y2="498.0745"/>
    <line x1="676.0" x2="660.4444" y1="500.6405" y2="509.6215"/>
    <line x1="662.6667" x2="676.0" y1="510.9045" y2="503.2065"/>
    <line x1="676.0" x2="664.8889" y1="505.7725" y2="512.1875"/>
    <line x1="667.1111" x2="676.0" y1="513.4705" y2="508.3385"/>
    <line x1="676.0" x2="669.3333" y1="510.9045" y2="514.7535"/>
    <line x1="671.5556" x2="676.0" y1="516.0365" y2="513.4705"/>
    <line x1="676.0" x2="673.7778" y1="516.0365" y2="517.3195"/>
    <line x1="676.0" x2="676.0" y1="518.6025" y2="518.6025"/>
    <line x1="656.0" x2="596.0" y1="517.3195" y2="551.9606"/>
    <line x1="596.0" x2="656.0" y1="554.5266" y2="519.8855"/>
    <line x1="656.0" x2="596.0" y1="522.4515" y2="557.0926"/>
    <line x1="596.0" x2="656.0" y1="559.6586" y2="525.0175"/>
    <line x1="656.0" x2="596.0" y1="527.5835" y2="562.2246"/>
    <line x1="596.0" x2="656.0" y1="564.7906" y2="530.1495"/>
    <line x1="656.0" x2="596.0" y1="514.7535" y2="549.3946"/>
    <line x1="596.0" x2="656.0" y1="546.8286" y2="512.1875"/>
    <polygon points="636.0,518.6025 676.0,495.5085 656.0,507.0555"/>
    <polygon points="636.0,518.6025 616.0,530.1495"/>
    <polygon points="636.0,495.5085 596.0,518.6025"/>
    <line x1="616.0" x2="616.0" y1="507.0555" y2="507.0555"/>
    <line x1="616.0" x2="616.0" y1="553.2436" y2="553.2436"/>
    <line x1="636.0" x2="796.0" y1="564.7906" y2="472.4145"/>
    <line x1="796.0" x2="758.2222" y1="474.9805" y2="496.7915"/>
    <line x1="756.0" x2="776.0" y1="495.5085" y2="483.9615"/>
    <line x1="776.0" x2="736.0" y1="481.3955" y2="504.4895"/>
    <line x1="733.7778" x2="716.0" y1="505.7725" y2="516.0365"/>
    <line x1="716.0" x2="731.5556" y1="513.4705" y2="504.4895"/>
    <line x1="729.3333" x2="716.0" y1="503.2065" y2="510.9045"/>
    <line x1="716.0" x2="727.1111" y1="508.3385" y2="501.9235"/>
    <line x1="724.8889" x2="716.0" y1="500.6405" y2="505.7725"/>
    <line x1="716.0" x2="722.6667" y1="503.2065" y2="499.3575"/>
    <line x1="720.4444" x2="716.0" y1="498.0745" y2="500.6405"/>
    <line x1="716.0" x2="718.2222" y1="498.0745" y2="496.7915"/>
    <line x1="716.0" x2="716.0" y1="495.5085" y2="495.5085"/>
    <line x1="736.0" x2="776.0" y1="496.7915" y2="473.6975"/>
    <line x1="776.0" x2="736.0" y1="476.2635" y2="499.3575"/>
    <line x1="736.0" x2="776.0" y1="501.9235" y2="478.8295"/>
    <line x1="776.0" x2="736.0" y1="471.1315" y2="494.2255"/>
    <line x1="736.0" x2="776.0" y1="491.6595" y2="468.5655"/>
    <line x1="776.0" x2="736.0" y1="465.9995" y2="489.0935"/>
    <line x1="736.0" x2="776.0" y1="486.5275" y2="463.4335"/>
    <polyline points="776.0,460.8675 756.0,472.4145 796.0,449.3205"/>
    <line x1="796.0" x2="756.0" y1="446.7545" y2="469.8485"/>
    <line x1="756.0" x2="736.0" y1="472.4145" y2="483.9615"/>
    <line x1="756.0" x2="796.0" y1="467.2825" y2="444.1885"/>
    <line x1="796.0" x2="756.0" y1="441.6225" y2="464.7165"/>
    <line x1="756.0" x2="796.0" y1="462.1505" y2="439.0565"/>
    <line x1="796.0" x2="756.0" y1="436.4905" y2="459.5845"/>
    <line x1="756.0" x2="796.0" y1="457.0185" y2="433.9245"/>
    <line x1="796.0" x2="756.0" y1="431.3585" y2="454.4525"/>
    <line x1="756.0" x2="796.0" y1="451.8865" y2="428.7925"/>
    <polyline points="796.0,426.2265 756.0,449.3205 776.0,437.7735"/>
    <line x1="776.0" x2="756.0" y1="435.2075" y2="446.7545"/>
    <line x1="756.0" x2="776.0" y1="444.1885" y2="432.6415"/>
    <line x1="776.0" x2="756.0" y1="430.0755" y2="441.6225"/>
    <line x1="756.0" x2="776.0" y1="439.0565" y2="427.5095"/>
    <line x1="776.0" x2="756.0" y1="424.9435" y2="436.4905"/>
    <line x1="756.0" x2="776.0" y1="433.9245" y2="422.3775"/>
    <line x1="776.0" x2="756.0" y1="419.8115" y2="431.3585"/>
    <line x1="756.0" x2="776.0" y1="428.7925" y2="417.2455"/>
    <line x1="776.0" x2="756.0" y1="414.6795" y2="426.2265"/>
    <line x1="767.1111" x2="776.0" y1="409.5475" y2="404.4155"/>
    <line x1="776.0" x2="769.3333" y1="406.9815" y2="410.8305"/>
    <line x1="771.5556" x2="776.0" y1="412.1135" y2="409.5475"/>
    <line x1="776.0" x2="773.7778" y1="412.1135" y2="413.3965"/>
    <line x1="764.8889" x2="776.0" y1="408.2645" y2="401.8495"/>
    <line x1="776.0" x2="762.6667" y1="399.2835" y2="406.9815"/>
    <line x1="760.4444" x2="776.0" y1="405.6985" y2="396.7175"/>
    <line x1="776.0" x2="758.2222" y1="394.1515" y2="404.4155"/>
    <line x1="756.0" x2="776.0" y1="403.1325" y2="391.5855"/>
    <line x1="756.0" x2="736.0" y1="380.0385" y2="391.5855"/>
    <line x1="736.0" x2="756.0" y1="389.0195" y2="377.4725"/>
    <line x1="756.0" x2="736.0" y1="374.9065" y2="386.4535"/>
    <line x1="736.0" x2="756.0" y1="383.8875" y2="372.3405"/>
    <line x1="756.0" x2="736.0" y1="369.7745" y2="381.3215"/>
    <line x1="736.0" x2="756.0" y1="378.7555" y2="367.2085"/>
    <line x1="756.0" x2="736.0" y1="364.6425" y2="376.1895"/>
    <line x1="736.0" x2="756.0" y1="373.6235" y2="362.0765"/>
    <line x1="756.0" x2="736.0" y1="359.5105" y2="371.0575"/>
    <line x1="736.0" x2="756.0" y1="368.4915" y2="356.9445"/>
    <line x1="796.0" x2="760.4444" y1="477.5465" y2="498.0745"/>
    <line x1="762.6667" x2="796.0" y1="499.3575" y2="480.1125"/>
    <line x1="796.0" x2="764.8889" y1="482.6785" y2="500.6405"/>
    <line x1="767.1111" x2="796.0" y1="501.9235" y2="485.2445"/>
    <line x1="796.0" x2="769.3333" y1="487.8105" y2="503.2065"/>
    <line x1="771.5556" x2="796.0" y1="504.4895" y2="490.3765"/>
    <line x1="796.0" x2="773.7778" y1="492.9425" y2="505.7725"/>
    <polygon points="776.0,507.0555 796.0,495.5085"/>
    <line x1="776.0" x2="756.0" y1="507.0555" y2="518.6025"/>
    <line x1="756.0" x2="796.0" y1="521.1685" y2="498.0745"/>
    <line x1="796.0" x2="756.0" y1="500.6405" y2="523.7345"/>
    <line x1="756.0" x2="796.0" y1="526.3005" y2="503.2065"/>
    <line x1="796.0" x2="756.0" y1="505.7725" y2="528.8665"/>
    <line x1="756.0" x2="796.0" y1="531.4325" y2="508.3385"/>
    <line x1="796.0" x2="756.0" y1="510.9045" y2="533.9985"/>
    <line x1="756.0" x2="796.0" y1="536.5645" y2="513.4705"/>
    <line x1="796.0" x2="756.0" y1="516.0365" y2="539.1305"/>
    <line x1="753.7778" x2="736.0" y1="540.4136" y2="550.6776"/>
    <line x1="736.0" x2="751.5556" y1="548.1116" y2="539.1305"/>
    <line x1="749.3333" x2="736.0" y1="537.8475" y2="545.5456"/>
    <line x1="736.0" x2="747.1111" y1="542.9796" y2="536.5645"/>
    <line x1="744.8889" x2="736.0" y1="535.2815" y2="540.4136"/>
    <line x1="736.0" x2="742.6667" y1="537.8475" y2="533.9985"/>
    <line x1="740.4444" x2="736.0" y1="532.7155" y2="535.2815"/>
    <line x1="736.0" x2="738.2222" y1="532.7155" y2="531.4325"/>
    <line x1="736.0" x2="736.0" y1="530.1495" y2="530.1495"/>
    <line x1="716.0" x2="636.0" y1="528.8665" y2="575.0546"/>
    <line x1="636.0" x2="716.0" y1="572.4886" y2="526.3005"/>
    <line x1="716.0" x2="636.0" y1="523.7345" y2="569.9226"/>
    <line x1="636.0" x2="716.0" y1="567.3566" y2="521.1685"/>
    <line x1="716.0" x2="636.0" y1="531.4325" y2="577.6206"/>
    <line x1="636.0" x2="716.0" y1="580.1866" y2="533.9985"/>
    <line x1="716.0" x2="636.0" y1="536.5645" y2="582.7526"/>
    <line x1="636.0" x2="716.0" y1="585.3186" y2="539.1305"/>
    <polyline points="716.0,541.6966 676.0,564.7906 696.0,553.2436"/>
    <line x1="696.0" x2="636.0" y1="555.8096" y2="590.4506"/>
    <polygon points="636.0,587.8846 676.0,564.7906"/>
    <line x1="636.0" x2="636.0" y1="587.8846" y2="587.8846"/>
    <line x1="636.0" x2="696.0" y1="593.0166" y2="558.3756"/>
    <line x1="696.0" x2="636.0" y1="560.9416" y2="595.5826"/>
    <line x1="636.0" x2="696.0" y1="598.1486" y2="563.5076"/>
    <line x1="696.0" x2="636.0" y1="566.0736" y2="600.7146"/>
    <line x1="636.0" x2="696.0" y1="603.2806" y2="568.6396"/>
    <line x1="696.0" x2="636.0" y1="571.2056" y2="605.8466"/>
    <line x1="636.0" x2="696.0" y1="608.4126" y2="573.7716"/>
    <polygon points="696.0,576.3376 676.0,587.8846"/>
    <line x1="696.0" x2="636.0" y1="578.9036" y2="613.5446"/>
    <polygon points="636.0,610.9786 656.0,599.4316"/>
    <line x1="636.0" x2="696.0" y1="616.1106" y2="581.4696"/>
    <line x1="696.0" x2="636.0" y1="584.0356" y2="618.6766"/>
    <line x1="636.0" x2="696.0" y1="621.2426" y2="586.6016"/>
    <line x1="696.0" x2="636.0" y1="589.1676" y2="623.8086"/>
    <line x1="636.0" x2="696.0" y1="626.3746" y2="591.7336"/>
    <line x1="696.0" x2="636.0" y1="594.2996" y2="628.9406"/>
    <line x1="636.0" x2="696.0" y1="631.5066" y2="596.8656"/>
    <line x1="696.0" x2="636.0" y1="599.4316" y2="634.0726"/>
    <polygon points="676.0,587.8846 656.0,599.4316"/>
    <line x1="736.0" x2="756.0" y1="576.3376" y2="564.7906"/>
    <line x1="756.0" x2="736.0" y1="562.2246" y2="573.7716"/>
    <line x1="736.0" x2="756.0" y1="571.2056" y2="559.6586"/>
    <line x1="756.0" x2="736.0" y1="557.0926" y2="568.6396"/>
    <line x1="736.0" x2="756.0" y1="566.0736" y2="554.5266"/>
    <line x1="756.0" x2="736.0" y1="551.9606" y2="563.5076"/>
    <line x1="736.0" x2="756.0" y1="560.9416" y2="549.3946"/>
    <line x1="756.0" x2="736.0" y1="546.8286" y2="558.3756"/>
    <line x1="736.0" x2="756.0" y1="555.8096" y2="544.2626"/>
    <polyline points="756.0,541.6966 736.0,553.2436 776.0,530.1495"/>
    <polygon points="776.0,530.1495 796.0,518.6025"/>
    <line x1="778.2222" x2="796.0" y1="531.4325" y2="521.1685"/>
    <line x1="796.0" x2="780.4444" y1="523.7345" y2="532.7155"/>
    <line x1="782.6667" x2="796.0" y1="533.9985" y2="526.3005"/>
    <line x1="796.0" x2="784.8889" y1="528.8665" y2="535.2815"/>
    <line x1="787.1111" x2="796.0" y1="536.5645" y2="531.4325"/>
    <line x1="796.0" x2="789.3333" y1="533.9985" y2="537.8475"/>
    <line x1="791.5556" x2="796.0" y1="539.1305" y2="536.5645"/>
    <line x1="796.0" x2="793.7778" y1="539.1305" y2="540.4136"/>
    <line x1="796.0" x2="776.0" y1="541.6966" y2="553.2436"/>
    <line x1="776.0" x2="796.0" y1="555.8096" y2="544.2626"/>
    <line x1="796.0" x2="776.0" y1="546.8286" y2="558.3756"/>
    <line x1="776.0" x2="796.0" y1="560.9416" y2="549.3946"/>
    <line x1="796.0" x2="776.0" y1="551.9606" y2="563.5076"/>
    <line x1="776.0" x2="796.0" y1="566.0736" y2="554.5266"/>
    <line x1="796.0" x2="776.0" y1="557.0926" y2="568.6396"/>
    <line x1="776.0" x2="796.0" y1="571.2056" y2="559.6586"/>
    <line x1="796.0" x2="776.0" y1="562.2246" y2="573.7716"/>
    <line x1="776.0" x2="796.0" y1="576.3376" y2="564.7906"/>
    <line x1="536.0" x2="516.0" y1="507.0555" y2="518.6025"/>
    <line x1="516.0" x2="536.0" y1="516.0365" y2="504.4895"/>
    <line x1="536.0" x2="516.0" y1="501.9235" y2="513.4705"/>
    <line x1="516.0" x2="536.0" y1="510.9045" y2="499.3575"/>
    <line x1="536.0" x2="516.0" y1="496.7915" y2="508.3385"/>
    <line x1="516.0" x2="536.0" y1="505.7725" y2="494.2255"/>
    <line x1="536.0" x2="516.0" y1="491.6595" y2="503.2065"/>
    <line x1="516.0" x2="536.0" y1="500.6405" y2="489.0935"/>
    <line x1="536.0" x2="516.0" y1="486.5275" y2="498.0745"/>
    <line x1="516.0" x2="516.0" y1="495.5085" y2="495.5085"/>
    <line x1="516.0" x2="496.0" y1="492.9425" y2="504.4895"/>
    <line x1="496.0" x2="516.0" y1="501.9235" y2="490.3765"/>
    <line x1="516.0" x2="496.0" y1="487.8105" y2="499.3575"/>
    <line x1="496.0" x2="516.0" y1="496.7915" y2="485.2445"/>
    <line x1="516.0" x2="496.0" y1="482.6785" y2="494.2255"/>
    <line x1="496.0" x2="516.0" y1="491.6595" y2="480.1125"/>
    <line x1="516.0" x2="496.0" y1="477.5465" y2="489.0935"/>
    <line x1="496.0" x2="516.0" y1="486.5275" y2="474.9805"/>
    <line x1="516.0" x2="476.0" y1="469.8485" y2="492.9425"/>
    <line x1="476.0" x2="516.0" y1="490.3765" y2="467.2825"/>
    <line x1="516.0" x2="476.0" y1="464.7165" y2="487.8105"/>
    <line x1="476.0" x2="516.0" y1="485.2445" y2="462.1505"/>
    <line x1="516.0" x2="476.0" y1="459.5845" y2="482.6785"/>
    <line x1="476.0" x2="516.0" y1="480.1125" y2="457.0185"/>
    <line x1="516.0" x2="476.0" y1="454.4525" y2="477.5465"/>
    <line x1="476.0" x2="516.0" y1="474.9805" y2="451.8865"/>
    <polygon points="516.0,449.3205 496.0,460.8675"/>
    <line x1="516.0" x2="496.0" y1="446.7545" y2="458.3015"/>
    <line x1="496.0" x2="516.0" y1="455.7355" y2="444.1885"/>
    <line x1="516.0" x2="496.0" y1="441.6225" y2="453.1695"/>
    <line x1="496.0" x2="516.0" y1="450.6035" y2="439.0565"/>
    <line x1="516.0" x2="496.0" y1="436.4905" y2="448.0375"/>
    <line x1="496.0" x2="516.0" y1="445.4715" y2="433.9245"/>
    <line x1="516.0" x2="496.0" y1="431.3585" y2="442.9055"/>
    <line x1="496.0" x2="516.0" y1="440.3395" y2="428.7925"/>
    <line x1="516.0" x2="496.0" y1="426.2265" y2="437.7735"/>
    <line x1="476.0" x2="456.0" y1="439.0565" y2="450.6035"/>
    <line x1="456.0" x2="476.0" y1="453.1695" y2="441.6225"/>
    <line x1="476.0" x2="456.0" y1="444.1885" y2="455.7355"/>
    <line x1="456.0" x2="476.0" y1="458.3015" y2="446.7545"/>
    <line x1="476.0" x2="456.0" y1="449.3205" y2="460.8675"/>
    <line x1="456.0" x2="476.0" y1="448.0375" y2="436.4905"/>
    <line x1="476.0" x2="456.0" y1="433.9245" y2="445.4715"/>
    <line x1="456.0" x2="476.0" y1="442.9055" y2="431.3585"/>
    <line x1="476.0" x2="456.0" y1="428.7925" y2="440.3395"/>
    <line x1="456.0" x2="476.0" y1="437.7735" y2="426.2265"/>
    <line x1="476.0" x2="376.0" y1="403.1325" y2="460.8675"/>
    <line x1="376.0" x2="433.7778" y1="458.3015" y2="424.9435"/>
    <line x1="436.0" x2="476.0" y1="423.6605" y2="400.5665"/>
    <line x1="476.0" x2="436.0" y1="398.0005" y2="421.0945"/>
    <line x1="436.0" x2="476.0" y1="418.5285" y2="395.4345"/>
    <line x1="476.0" x2="436.0" y1="392.8685" y2="415.9625"/>
    <line x1="436.0" x2="476.0" y1="413.3965" y2="390.3025"/>
    <line x1="476.0" x2="436.0" y1="387.7365" y2="410.8305"/>
    <line x1="436.0" x2="476.0" y1="408.2645" y2="385.1705"/>
    <line x1="476.0" x2="436.0" y1="382.6045" y2="405.6985"/>
    <line x1="436.0" x2="476.0" y1="403.1325" y2="380.0385"/>
    <line x1="431.5556" x2="376.0" y1="423.6605" y2="455.7355"/>
    <line x1="376.0" x2="429.3333" y1="453.1695" y2="422.3775"/>
    <line x1="427.1111" x2="376.0" y1="421.0945" y2="450.6035"/>
    <line x1="376.0" x2="424.8889" y1="448.0375" y2="419.8115"/>
    <line x1="422.6667" x2="376.0" y1="418.5285" y2="445.4715"/>
    <line x1="376.0" x2="420.4444" y1="442.9055" y2="417.2455"/>
    <line x1="418.2222" x2="376.0" y1="415.9625" y2="440.3395"/>
    <line x1="376.0" x2="416.0" y1="437.7735" y2="414.6795"/>
    <line x1="396.0" x2="396.0" y1="449.3205" y2="449.3205"/>
    <line x1="476.0" x2="496.0" y1="472.4145" y2="460.8675"/>
    <polygon points="496.0,483.9615 516.0,472.4145"/>
    <line x1="496.0" x2="456.0" y1="483.9615" y2="507.0555"/>
    <line x1="456.0" x2="476.0" y1="509.6215" y2="498.0745"/>
    <line x1="476.0" x2="456.0" y1="500.6405" y2="512.1875"/>
    <line x1="456.0" x2="476.0" y1="514.7535" y2="503.2065"/>
    <line x1="476.0" x2="456.0" y1="505.7725" y2="517.3195"/>
    <line x1="456.0" x2="476.0" y1="519.8855" y2="508.3385"/>
    <line x1="476.0" x2="456.0" y1="510.9045" y2="522.4515"/>
    <line x1="456.0" x2="476.0" y1="525.0175" y2="513.4705"/>
    <line x1="476.0" x2="456.0" y1="516.0365" y2="527.5835"/>
    <polygon points="456.0,530.1495 476.0,518.6025"/>
    <line x1="456.0" x2="476.0" y1="532.7155" y2="521.1685"/>
    <line x1="476.0" x2="456.0" y1="523.7345" y2="535.2815"/>
    <line x1="456.0" x2="476.0" y1="537.8475" y2="526.3005"/>
    <line x1="476.0" x2="456.0" y1="528.8665" y2="540.4136"/>
    <line x1="456.0" x2="476.0" y1="542.9796" y2="531.4325"/>
    <line x1="476.0" x2="456.0" y1="533.9985" y2="545.5456"/>
    <line x1="456.0" x2="476.0" y1="548.1116" y2="536.5645"/>
    <line x1="476.0" x2="456.0" y1="539.1305" y2="550.6776"/>
    <polygon points="456.0,553.2436 476.0,541.6966"/>
    <line x1="456.0" x2="476.0" y1="555.8096" y2="544.2626"/>
    <line x1="476.0" x2="456.0" y1="546.8286" y2="558.3756"/>
    <line x1="456.0" x2="476.0" y1="560.9416" y2="549.3946"/>
    <line x1="476.0" x2="456.0" y1="551.9606" y2="563.5076"/>
    <line x1="456.0" x2="476.0" y1="566.0736" y2="554.5266"/>
    <line x1="476.0" x2="456.0" y1="557.0926" y2="568.6396"/>
    <line x1="456.0" x2="476.0" y1="571.2056" y2="559.6586"/>
    <line x1="476.0" x2="456.0" y1="562.2246" y2="573.7716"/>
    <line x1="456.0" x2="476.0" y1="576.3376" y2="564.7906"/>
    <line x1="496.0" x2="536.0" y1="507.0555" y2="483.9615"/>
  </g>
  <g fill="none" id="layer3.0" inkscape:groupmode="layer" inkscape:label="3" stroke="#f00" style="display:inline">
    <line x1="556.0" x2="556.0" y1="310.7564" y2="241.4744"/>
    <line x1="558.2222" x2="558.2222" y1="242.7574" y2="312.0394"/>
    <line x1="560.4444" x2="560.4444" y1="313.3224" y2="244.0404"/>
    <line x1="562.6667" x2="562.6667" y1="245.3234" y2="314.6054"/>
    <line x1="564.8889" x2="564.8889" y1="315.8884" y2="246.6064"/>
    <line x1="567.1111" x2="567.1111" y1="247.8894" y2="317.1714"/>
    <line x1="569.3333" x2="569.3333" y1="318.4544" y2="249.1724"/>
    <line x1="571.5556" x2="571.5556" y1="250.4554" y2="319.7374"/>
    <line x1="573.7778" x2="573.7778" y1="321.0204" y2="251.7384"/>
    <polyline points="576.0,253.0214 576.0,322.3034 576.0,299.2094"/>
    <line x1="578.2222" x2="578.2222" y1="300.4924" y2="323.5864"/>
    <line x1="580.4444" x2="580.4444" y1="324.8695" y2="301.7754"/>
    <line x1="582.6667" x2="582.6667" y1="303.0584" y2="326.1525"/>
    <line x1="584.8889" x2="584.8889" y1="327.4355" y2="304.3414"/>
    <line x1="587.1111" x2="587.1111" y1="305.6244" y2="328.7185"/>
    <line x1="589.3333" x2="589.3333" y1="330.0015" y2="306.9074"/>
    <line x1="591.5556" x2="591.5556" y1="308.1904" y2="331.2845"/>
    <line x1="593.7778" x2="593.7778" y1="332.5675" y2="309.4734"/>
    <line x1="596.0" x2="596.0" y1="310.7564" y2="333.8505"/>
    <line x1="576.0" x2="576.0" y1="345.3975" y2="345.3975"/>
    <line x1="573.7778" x2="573.7778" y1="346.6805" y2="344.1145"/>
    <line x1="571.5556" x2="571.5556" y1="342.8315" y2="347.9635"/>
    <line x1="569.3333" x2="569.3333" y1="349.2465" y2="341.5485"/>
    <line x1="567.1111" x2="567.1111" y1="340.2655" y2="350.5295"/>
    <line x1="564.8889" x2="564.8889" y1="351.8125" y2="338.9825"/>
    <line x1="562.6667" x2="562.6667" y1="337.6995" y2="353.0955"/>
    <line x1="560.4444" x2="560.4444" y1="354.3785" y2="336.4165"/>
    <line x1="558.2222" x2="558.2222" y1="335.1335" y2="355.6615"/>
    <line x1="556.0" x2="556.0" y1="356.9445" y2="333.8505"/>
    <line x1="536.0" x2="536.0" y1="368.4915" y2="391.5855"/>
    <line x1="538.2222" x2="538.2222" y1="392.8685" y2="369.7745"/>
    <line x1="540.4444" x2="540.4444" y1="371.0575" y2="394.1515"/>
    <line x1="542.6667" x2="542.6667" y1="395.4345" y2="372.3405"/>
    <line x1="544.8889" x2="544.8889" y1="373.6235" y2="396.7175"/>
    <line x1="547.1111" x2="547.1111" y1="398.0005" y2="374.9065"/>
    <line x1="549.3333" x2="549.3333" y1="376.1895" y2="399.2835"/>
    <line x1="551.5556" x2="551.5556" y1="400.5665" y2="377.4725"/>
    <line x1="553.7778" x2="553.7778" y1="378.7555" y2="401.8495"/>
    <line x1="556.0" x2="556.0" y1="403.1325" y2="380.0385"/>
    <line x1="576.0" x2="576.0" y1="391.5855" y2="437.7735"/>
    <line x1="578.2222" x2="578.2222" y1="439.0565" y2="390.3025"/>
    <line x1="580.4444" x2="580.4444" y1="389.0195" y2="440.3395"/>
    <line x1="582.6667" x2="582.6667" y1="441.6225" y2="387.7365"/>
    <line x1="584.8889" x2="584.8889" y1="386.4535" y2="442.9055"/>
    <line x1="587.1111" x2="587.1111" y1="444.1885" y2="385.1705"/>
    <line x1="589.3333" x2="589.3333" y1="383.8875" y2="445.4715"/>
    <line x1="591.5556" x2="591.5556" y1="446.7545" y2="382.6045"/>
    <line x1="593.7778" x2="593.7778" y1="381.3215" y2="448.0375"/>
    <line x1="596.0" x2="596.0" y1="449.3205" y2="380.0385"/>
    <line x1="596.0" x2="596.0" y1="403.1325" y2="403.1325"/>
    <line x1="616.0" x2="616.0" y1="391.5855" y2="414.6795"/>
    <line x1="618.2222" x2="618.2222" y1="415.9625" y2="392.8685"/>
    <line x1="620.4444" x2="620.4444" y1="394.1515" y2="417.2455"/>
    <line x1="622.6667" x2="622.6667" y1="418.5285" y2="395.4345"/>
    <line x1="624.8889" x2="624.8889" y1="396.7175" y2="419.8115"/>
    <line x1="627.1111" x2="627.1111" y1="421.0945" y2="398.0005"/>
    <line x1="629.3333" x2="629.3333" y1="399.2835" y2="422.3775"/>
    <line x1="631.5556" x2="631.5556" y1="423.6605" y2="400.5665"/>
    <line x1="633.7778" x2="633.7778" y1="401.8495" y2="424.9435"/>
    <line x1="636.0" x2="636.0" y1="426.2265" y2="403.1325"/>
    <line x1="656.0" x2="656.0" y1="460.8675" y2="483.9615"/>
    <line x1="658.2222" x2="658.2222" y1="485.2445" y2="462.1505"/>
    <line x1="660.4444" x2="660.4444" y1="463.4335" y2="486.5275"/>
    <line x1="662.6667" x2="662.6667" y1="487.8105" y2="464.7165"/>
    <line x1="664.8889" x2="664.8889" y1="465.9995" y2="489.0935"/>
    <line x1="667.1111" x2="667.1111" y1="490.3765" y2="467.2825"/>
    <line x1="669.3333" x2="669.3333" y1="468.5655" y2="491.6595"/>
    <line x1="671.5556" x2="671.5556" y1="492.9425" y2="469.8485"/>
    <line x1="673.7778" x2="673.7778" y1="471.1315" y2="494.2255"/>
    <polyline points="676.0,495.5085 676.0,472.4145 676.0,518.6025"/>
    <line x1="678.2222" x2="678.2222" y1="517.3195" y2="473.6975"/>
    <line x1="680.4444" x2="680.4444" y1="474.9805" y2="516.0365"/>
    <line x1="682.6667" x2="682.6667" y1="514.7535" y2="476.2635"/>
    <line x1="684.8889" x2="684.8889" y1="477.5465" y2="513.4705"/>
    <line x1="687.1111" x2="687.1111" y1="512.1875" y2="478.8295"/>
    <line x1="689.3333" x2="689.3333" y1="480.1125" y2="510.9045"/>
    <line x1="691.5556" x2="691.5556" y1="509.6215" y2="481.3955"/>
    <line x1="693.7778" x2="693.7778" y1="482.6785" y2="508.3385"/>
    <polygon points="696.0,507.0555 696.0,483.9615"/>
    <line x1="698.2222" x2="698.2222" y1="508.3385" y2="485.2445"/>
    <line x1="700.4444" x2="700.4444" y1="486.5275" y2="509.6215"/>
    <line x1="702.6667" x2="702.6667" y1="510.9045" y2="487.8105"/>
    <line x1="704.8889" x2="704.8889" y1="489.0935" y2="512.1875"/>
    <line x1="707.1111" x2="707.1111" y1="513.4705" y2="490.3765"/>
    <line x1="709.3333" x2="709.3333" y1="491.6595" y2="514.7535"/>
    <line x1="711.5556" x2="711.5556" y1="516.0365" y2="492.9425"/>
    <line x1="713.7778" x2="713.7778" y1="494.2255" y2="517.3195"/>
    <line x1="718.2222" x2="718.2222" y1="517.3195" y2="566.0736"/>
    <line x1="720.4444" x2="720.4444" y1="567.3566" y2="516.0365"/>
    <line x1="722.6667" x2="722.6667" y1="514.7535" y2="568.6396"/>
    <line x1="724.8889" x2="724.8889" y1="569.9226" y2="513.4705"/>
    <line x1="727.1111" x2="727.1111" y1="512.1875" y2="571.2056"/>
    <line x1="729.3333" x2="729.3333" y1="572.4886" y2="510.9045"/>
    <line x1="731.5556" x2="731.5556" y1="509.6215" y2="573.7716"/>
    <line x1="733.7778" x2="733.7778" y1="575.0546" y2="508.3385"/>
    <line x1="736.0" x2="736.0" y1="507.0555" y2="530.1495"/>
    <line x1="738.2222" x2="738.2222" y1="531.4325" y2="508.3385"/>
    <line x1="740.4444" x2="740.4444" y1="509.6215" y2="532.7155"/>
    <line x1="742.6667" x2="742.6667" y1="533.9985" y2="510.9045"/>
    <line x1="744.8889" x2="744.8889" y1="512.1875" y2="535.2815"/>
    <line x1="747.1111" x2="747.1111" y1="536.5645" y2="513.4705"/>
    <line x1="749.3333" x2="749.3333" y1="514.7535" y2="537.8475"/>
    <line x1="751.5556" x2="751.5556" y1="539.1305" y2="516.0365"/>
    <line x1="753.7778" x2="753.7778" y1="517.3195" y2="540.4136"/>
    <line x1="758.2222" x2="758.2222" y1="542.9796" y2="566.0736"/>
    <line x1="756.0" x2="756.0" y1="564.7906" y2="518.6025"/>
    <line x1="733.7778" x2="733.7778" y1="505.7725" y2="482.6785"/>
    <line x1="736.0" x2="736.0" y1="483.9615" y2="576.3376"/>
    <line x1="736.0" x2="736.0" y1="553.2436" y2="553.2436"/>
    <polyline points="716.0,541.6966 716.0,564.7906 716.0,472.4145"/>
    <line x1="718.2222" x2="718.2222" y1="473.6975" y2="496.7915"/>
    <line x1="716.0" x2="716.0" y1="495.5085" y2="495.5085"/>
    <line x1="720.4444" x2="720.4444" y1="498.0745" y2="474.9805"/>
    <line x1="722.6667" x2="722.6667" y1="476.2635" y2="499.3575"/>
    <line x1="724.8889" x2="724.8889" y1="500.6405" y2="477.5465"/>
    <line x1="727.1111" x2="727.1111" y1="478.8295" y2="501.9235"/>
    <line x1="729.3333" x2="729.3333" y1="503.2065" y2="480.1125"/>
    <line x1="731.5556" x2="731.5556" y1="481.3955" y2="504.4895"/>
    <line x1="751.5556" x2="751.5556" y1="469.8485" y2="423.6605"/>
    <line x1="753.7778" x2="753.7778" y1="424.9435" y2="471.1315"/>
    <line x1="756.0" x2="756.0" y1="472.4145" y2="426.2265"/>
    <line x1="749.3333" x2="749.3333" y1="422.3775" y2="468.5655"/>
    <line x1="747.1111" x2="747.1111" y1="467.2825" y2="421.0945"/>
    <line x1="744.8889" x2="744.8889" y1="419.8115" y2="465.9995"/>
    <line x1="742.6667" x2="742.6667" y1="464.7165" y2="418.5285"/>
    <line x1="740.4444" x2="740.4444" y1="417.2455" y2="463.4335"/>
    <line x1="738.2222" x2="738.2222" y1="462.1505" y2="415.9625"/>
    <line x1="738.2222" x2="738.2222" y1="413.3965" y2="392.8685"/>
    <line x1="740.4444" x2="740.4444" y1="394.1515" y2="412.1135"/>
    <line x1="742.6667" x2="742.6667" y1="410.8305" y2="395.4345"/>
    <line x1="744.8889" x2="744.8889" y1="396.7175" y2="409.5475"/>
    <line x1="747.1111" x2="747.1111" y1="408.2645" y2="398.0005"/>
    <line x1="749.3333" x2="749.3333" y1="399.2835" y2="406.9815"/>
    <line x1="751.5556" x2="751.5556" y1="405.6985" y2="400.5665"/>
    <line x1="753.7778" x2="753.7778" y1="401.8495" y2="404.4155"/>
    <line x1="756.0" x2="756.0" y1="403.1325" y2="403.1325"/>
    <line x1="733.7778" x2="733.7778" y1="390.3025" y2="367.2085"/>
    <line x1="736.0" x2="736.0" y1="368.4915" y2="460.8675"/>
    <line x1="736.0" x2="736.0" y1="437.7735" y2="437.7735"/>
    <line x1="756.0" x2="756.0" y1="449.3205" y2="449.3205"/>
    <line x1="731.5556" x2="731.5556" y1="389.0195" y2="365.9255"/>
    <line x1="729.3333" x2="729.3333" y1="364.6425" y2="387.7365"/>
    <line x1="727.1111" x2="727.1111" y1="386.4535" y2="363.3595"/>
    <line x1="724.8889" x2="724.8889" y1="362.0765" y2="385.1705"/>
    <line x1="722.6667" x2="722.6667" y1="383.8875" y2="360.7935"/>
    <line x1="720.4444" x2="720.4444" y1="359.5105" y2="382.6045"/>
    <line x1="718.2222" x2="718.2222" y1="381.3215" y2="358.2275"/>
    <line x1="716.0" x2="716.0" y1="356.9445" y2="380.0385"/>
    <line x1="713.7778" x2="713.7778" y1="542.9796" y2="563.5076"/>
    <line x1="711.5556" x2="711.5556" y1="562.2246" y2="544.2626"/>
    <line x1="709.3333" x2="709.3333" y1="545.5456" y2="560.9416"/>
    <line x1="707.1111" x2="707.1111" y1="559.6586" y2="546.8286"/>
    <line x1="704.8889" x2="704.8889" y1="548.1116" y2="558.3756"/>
    <line x1="702.6667" x2="702.6667" y1="557.0926" y2="549.3946"/>
    <line x1="700.4444" x2="700.4444" y1="550.6776" y2="555.8096"/>
    <line x1="698.2222" x2="698.2222" y1="554.5266" y2="551.9606"/>
    <line x1="696.0" x2="696.0" y1="553.2436" y2="553.2436"/>
    <line x1="636.0" x2="636.0" y1="564.7906" y2="634.0726"/>
    <line x1="633.7778" x2="633.7778" y1="632.7896" y2="563.5076"/>
    <line x1="631.5556" x2="631.5556" y1="562.2246" y2="631.5066"/>
    <line x1="629.3333" x2="629.3333" y1="630.2236" y2="560.9416"/>
    <line x1="627.1111" x2="627.1111" y1="559.6586" y2="628.9406"/>
    <line x1="624.8889" x2="624.8889" y1="627.6576" y2="558.3756"/>
    <line x1="622.6667" x2="622.6667" y1="557.0926" y2="626.3746"/>
    <line x1="620.4444" x2="620.4444" y1="625.0916" y2="555.8096"/>
    <line x1="618.2222" x2="618.2222" y1="554.5266" y2="623.8086"/>
    <line x1="613.7778" x2="613.7778" y1="621.2426" y2="554.5266"/>
    <polygon points="616.0,553.2436 616.0,622.5256"/>
    <line x1="611.5556" x2="611.5556" y1="555.8096" y2="619.9596"/>
    <line x1="609.3333" x2="609.3333" y1="618.6766" y2="557.0926"/>
    <line x1="607.1111" x2="607.1111" y1="558.3756" y2="617.3936"/>
    <line x1="604.8889" x2="604.8889" y1="616.1106" y2="559.6586"/>
    <line x1="602.6667" x2="602.6667" y1="560.9416" y2="614.8276"/>
    <line x1="600.4444" x2="600.4444" y1="613.5446" y2="562.2246"/>
    <line x1="598.2222" x2="598.2222" y1="563.5076" y2="612.2616"/>
    <line x1="593.7778" x2="593.7778" y1="609.6956" y2="494.2255"/>
    <polyline points="596.0,495.5085 596.0,610.9786 596.0,564.7906"/>
    <polyline points="576.0,553.2436 576.0,483.9615 576.0,599.4316"/>
    <line x1="578.2222" x2="578.2222" y1="600.7146" y2="485.2445"/>
    <line x1="580.4444" x2="580.4444" y1="486.5275" y2="601.9976"/>
    <line x1="582.6667" x2="582.6667" y1="603.2806" y2="487.8105"/>
    <line x1="584.8889" x2="584.8889" y1="489.0935" y2="604.5636"/>
    <line x1="587.1111" x2="587.1111" y1="605.8466" y2="490.3765"/>
    <line x1="589.3333" x2="589.3333" y1="491.6595" y2="607.1296"/>
    <line x1="591.5556" x2="591.5556" y1="608.4126" y2="492.9425"/>
    <line x1="573.7778" x2="573.7778" y1="482.6785" y2="551.9606"/>
    <line x1="571.5556" x2="571.5556" y1="550.6776" y2="481.3955"/>
    <line x1="569.3333" x2="569.3333" y1="480.1125" y2="549.3946"/>
    <line x1="567.1111" x2="567.1111" y1="548.1116" y2="478.8295"/>
    <line x1="564.8889" x2="564.8889" y1="477.5465" y2="546.8286"/>
    <line x1="562.6667" x2="562.6667" y1="545.5456" y2="476.2635"/>
    <line x1="560.4444" x2="560.4444" y1="474.9805" y2="544.2626"/>
    <line x1="558.2222" x2="558.2222" y1="542.9796" y2="473.6975"/>
    <line x1="553.7778" x2="553.7778" y1="471.1315" y2="540.4136"/>
    <polygon points="556.0,541.6966 556.0,472.4145"/>
    <line x1="551.5556" x2="551.5556" y1="539.1305" y2="469.8485"/>
    <line x1="549.3333" x2="549.3333" y1="468.5655" y2="537.8475"/>
    <line x1="547.1111" x2="547.1111" y1="536.5645" y2="467.2825"/>
    <line x1="544.8889" x2="544.8889" y1="465.9995" y2="535.2815"/>
    <line x1="542.6667" x2="542.6667" y1="533.9985" y2="464.7165"/>
    <line x1="540.4444" x2="540.4444" y1="463.4335" y2="532.7155"/>
    <line x1="538.2222" x2="538.2222" y1="531.4325" y2="462.1505"/>
    <line x1="538.2222" x2="538.2222" y1="459.5845" y2="439.0565"/>
    <line x1="536.0" x2="536.0" y1="437.7735" y2="530.1495"/>
    <line x1="536.0" x2="536.0" y1="507.0555" y2="507.0555"/>
    <line x1="516.0" x2="516.0" y1="518.6025" y2="495.5085"/>
    <line x1="513.7778" x2="513.7778" y1="496.7915" y2="517.3195"/>
    <line x1="511.5556" x2="511.5556" y1="516.0365" y2="498.0745"/>
    <line x1="509.3333" x2="509.3333" y1="499.3575" y2="514.7535"/>
    <line x1="507.1111" x2="507.1111" y1="513.4705" y2="500.6405"/>
    <line x1="504.8889" x2="504.8889" y1="501.9235" y2="512.1875"/>
    <line x1="502.6667" x2="502.6667" y1="510.9045" y2="503.2065"/>
    <line x1="500.4444" x2="500.4444" y1="504.4895" y2="509.6215"/>
    <line x1="498.2222" x2="498.2222" y1="508.3385" y2="505.7725"/>
    <line x1="496.0" x2="496.0" y1="507.0555" y2="483.9615"/>
    <line x1="493.7778" x2="493.7778" y1="485.2445" y2="505.7725"/>
    <line x1="491.5556" x2="491.5556" y1="504.4895" y2="486.5275"/>
    <line x1="489.3333" x2="489.3333" y1="487.8105" y2="503.2065"/>
    <line x1="487.1111" x2="487.1111" y1="501.9235" y2="489.0935"/>
    <line x1="484.8889" x2="484.8889" y1="490.3765" y2="500.6405"/>
    <line x1="482.6667" x2="482.6667" y1="499.3575" y2="491.6595"/>
    <line x1="480.4444" x2="480.4444" y1="492.9425" y2="498.0745"/>
    <line x1="478.2222" x2="478.2222" y1="496.7915" y2="494.2255"/>
    <line x1="476.0" x2="476.0" y1="495.5085" y2="472.4145"/>
    <line x1="473.7778" x2="473.7778" y1="471.1315" y2="494.2255"/>
    <line x1="471.5556" x2="471.5556" y1="492.9425" y2="469.8485"/>
    <line x1="469.3333" x2="469.3333" y1="468.5655" y2="491.6595"/>
    <line x1="467.1111" x2="467.1111" y1="490.3765" y2="467.2825"/>
    <line x1="464.8889" x2="464.8889" y1="465.9995" y2="489.0935"/>
    <line x1="462.6667" x2="462.6667" y1="487.8105" y2="464.7165"/>
    <line x1="460.4444" x2="460.4444" y1="463.4335" y2="486.5275"/>
    <line x1="458.2222" x2="458.2222" y1="485.2445" y2="462.1505"/>
    <line x1="453.7778" x2="453.7778" y1="459.5845" y2="436.4905"/>
    <line x1="451.5556" x2="451.5556" y1="435.2075" y2="458.3015"/>
    <line x1="449.3333" x2="449.3333" y1="457.0185" y2="433.9245"/>
    <line x1="447.1111" x2="447.1111" y1="432.6415" y2="455.7355"/>
    <line x1="444.8889" x2="444.8889" y1="454.4525" y2="431.3585"/>
    <line x1="442.6667" x2="442.6667" y1="430.0755" y2="453.1695"/>
    <line x1="440.4444" x2="440.4444" y1="451.8865" y2="428.7925"/>
    <line x1="438.2222" x2="438.2222" y1="427.5095" y2="450.6035"/>
    <line x1="436.0" x2="436.0" y1="449.3205" y2="403.1325"/>
    <line x1="433.7778" x2="433.7778" y1="401.8495" y2="424.9435"/>
    <line x1="431.5556" x2="431.5556" y1="423.6605" y2="400.5665"/>
    <line x1="429.3333" x2="429.3333" y1="399.2835" y2="422.3775"/>
    <line x1="427.1111" x2="427.1111" y1="421.0945" y2="398.0005"/>
    <line x1="424.8889" x2="424.8889" y1="396.7175" y2="419.8115"/>
    <line x1="422.6667" x2="422.6667" y1="418.5285" y2="395.4345"/>
    <line x1="420.4444" x2="420.4444" y1="394.1515" y2="417.2455"/>
    <line x1="418.2222" x2="418.2222" y1="415.9625" y2="392.8685"/>
    <line x1="418.2222" x2="418.2222" y1="390.3025" y2="369.7745"/>
    <line x1="416.0" x2="416.0" y1="368.4915" y2="414.6795"/>
    <line x1="396.0" x2="396.0" y1="403.1325" y2="403.1325"/>
    <line x1="393.7778" x2="393.7778" y1="401.8495" y2="404.4155"/>
    <line x1="391.5556" x2="391.5556" y1="405.6985" y2="400.5665"/>
    <line x1="389.3333" x2="389.3333" y1="399.2835" y2="406.9815"/>
    <line x1="387.1111" x2="387.1111" y1="408.2645" y2="398.0005"/>
    <line x1="384.8889" x2="384.8889" y1="396.7175" y2="409.5475"/>
    <line x1="382.6667" x2="382.6667" y1="410.8305" y2="395.4345"/>
    <line x1="380.4444" x2="380.4444" y1="394.1515" y2="412.1135"/>
    <line x1="378.2222" x2="378.2222" y1="413.3965" y2="392.8685"/>
    <line x1="376.0" x2="376.0" y1="391.5855" y2="414.6795"/>
    <line x1="364.8889" x2="364.8889" y1="431.3585" y2="454.4525"/>
    <line x1="367.1111" x2="367.1111" y1="455.7355" y2="432.6415"/>
    <line x1="369.3333" x2="369.3333" y1="433.9245" y2="457.0185"/>
    <line x1="371.5556" x2="371.5556" y1="458.3015" y2="435.2075"/>
    <line x1="373.7778" x2="373.7778" y1="436.4905" y2="459.5845"/>
    <line x1="376.0" x2="376.0" y1="460.8675" y2="437.7735"/>
    <line x1="362.6667" x2="362.6667" y1="430.0755" y2="453.1695"/>
    <line x1="360.4444" x2="360.4444" y1="451.8865" y2="428.7925"/>
    <line x1="358.2222" x2="358.2222" y1="427.5095" y2="450.6035"/>
    <line x1="356.0" x2="356.0" y1="449.3205" y2="426.2265"/>
    <line x1="420.4444" x2="420.4444" y1="389.0195" y2="371.0575"/>
    <line x1="422.6667" x2="422.6667" y1="372.3405" y2="387.7365"/>
    <line x1="424.8889" x2="424.8889" y1="386.4535" y2="373.6235"/>
    <line x1="427.1111" x2="427.1111" y1="374.9065" y2="385.1705"/>
    <line x1="429.3333" x2="429.3333" y1="383.8875" y2="376.1895"/>
    <line x1="431.5556" x2="431.5556" y1="377.4725" y2="382.6045"/>
    <line x1="433.7778" x2="433.7778" y1="381.3215" y2="378.7555"/>
    <line x1="436.0" x2="436.0" y1="380.0385" y2="380.0385"/>
    <line x1="456.0" x2="456.0" y1="437.7735" y2="483.9615"/>
    <line x1="447.1111" x2="447.1111" y1="501.9235" y2="571.2056"/>
    <line x1="444.8889" x2="444.8889" y1="569.9226" y2="500.6405"/>
    <line x1="442.6667" x2="442.6667" y1="499.3575" y2="568.6396"/>
    <line x1="440.4444" x2="440.4444" y1="567.3566" y2="498.0745"/>
    <line x1="438.2222" x2="438.2222" y1="496.7915" y2="566.0736"/>
    <line x1="436.0" x2="436.0" y1="564.7906" y2="495.5085"/>
    <line x1="449.3333" x2="449.3333" y1="503.2065" y2="572.4886"/>
    <line x1="451.5556" x2="451.5556" y1="573.7716" y2="504.4895"/>
    <line x1="453.7778" x2="453.7778" y1="505.7725" y2="575.0546"/>
    <line x1="456.0" x2="456.0" y1="576.3376" y2="507.0555"/>
    <line x1="456.0" x2="456.0" y1="530.1495" y2="530.1495"/>
    <line x1="436.0" x2="436.0" y1="541.6966" y2="541.6966"/>
    <line x1="456.0" x2="456.0" y1="553.2436" y2="553.2436"/>
    <line x1="496.0" x2="496.0" y1="460.8675" y2="437.7735"/>
    <line x1="493.7778" x2="493.7778" y1="436.4905" y2="459.5845"/>
    <line x1="491.5556" x2="491.5556" y1="458.3015" y2="435.2075"/>
    <line x1="489.3333" x2="489.3333" y1="433.9245" y2="457.0185"/>
    <line x1="487.1111" x2="487.1111" y1="455.7355" y2="432.6415"/>
    <line x1="484.8889" x2="484.8889" y1="431.3585" y2="454.4525"/>
    <line x1="482.6667" x2="482.6667" y1="453.1695" y2="430.0755"/>
    <line x1="480.4444" x2="480.4444" y1="428.7925" y2="451.8865"/>
    <line x1="478.2222" x2="478.2222" y1="450.6035" y2="427.5095"/>
    <line x1="476.0" x2="476.0" y1="426.2265" y2="449.3205"/>
    <line x1="540.4444" x2="540.4444" y1="458.3015" y2="440.3395"/>
    <line x1="542.6667" x2="542.6667" y1="441.6225" y2="457.0185"/>
    <line x1="544.8889" x2="544.8889" y1="455.7355" y2="442.9055"/>
    <line x1="547.1111" x2="547.1111" y1="444.1885" y2="454.4525"/>
    <line x1="549.3333" x2="549.3333" y1="453.1695" y2="445.4715"/>
    <line x1="551.5556" x2="551.5556" y1="446.7545" y2="451.8865"/>
    <line x1="553.7778" x2="553.7778" y1="450.6035" y2="448.0375"/>
    <line x1="556.0" x2="556.0" y1="449.3205" y2="449.3205"/>
    <line x1="596.0" x2="596.0" y1="518.6025" y2="518.6025"/>
    <line x1="576.0" x2="576.0" y1="530.1495" y2="530.1495"/>
    <line x1="596.0" x2="596.0" y1="541.6966" y2="541.6966"/>
    <line x1="636.0" x2="636.0" y1="587.8846" y2="587.8846"/>
    <line x1="760.4444" x2="760.4444" y1="567.3566" y2="544.2626"/>
    <line x1="762.6667" x2="762.6667" y1="545.5456" y2="568.6396"/>
    <line x1="764.8889" x2="764.8889" y1="569.9226" y2="546.8286"/>
    <line x1="767.1111" x2="767.1111" y1="548.1116" y2="571.2056"/>
    <line x1="769.3333" x2="769.3333" y1="572.4886" y2="549.3946"/>
    <line x1="771.5556" x2="771.5556" y1="550.6776" y2="573.7716"/>
    <line x1="773.7778" x2="773.7778" y1="575.0546" y2="551.9606"/>
    <line x1="776.0" x2="776.0" y1="553.2436" y2="576.3376"/>
    <line x1="576.0" x2="576.0" y1="276.1154" y2="276.1154"/>
    <line x1="556.0" x2="556.0" y1="264.5684" y2="264.5684"/>
    <line x1="556.0" x2="556.0" y1="287.6624" y2="287.6624"/>
  </g>
</svg>
