<?xml version="1.0" encoding="utf-8" ?>
<svg xmlns="http://www.w3.org/2000/svg" xmlns:cc="http://creativecommons.org/ns#" xmlns:dc="http://purl.org/dc/elements/1.1/" xmlns:ev="http://www.w3.org/2001/xml-events" xmlns:inkscape="http://www.inkscape.org/namespaces/inkscape" xmlns:rdf="http://www.w3.org/1999/02/22-rdf-syntax-ns#" xmlns:sodipodi="http://sodipodi.sourceforge.net/DTD/sodipodi-0.dtd" xmlns:xlink="http://www.w3.org/1999/xlink" baseProfile="tiny" height="22.86cm" version="1.2" viewBox="0 0 1152.0 864.0" width="30.48cm">
  <metadata>
    <rdf:RDF>
      <cc:Work>
        <dc:format>image/svg+xml</dc:format>
        <dc:source/>
        <dc:date>2021-10-05T20:11:27.584639</dc:date>
      </cc:Work>
    </rdf:RDF>
  </metadata>
  <defs/>
  <g fill="none" id="layer3.0" inkscape:groupmode="layer" inkscape:label="3" stroke="#00f" style="display:inline">
    <line x1="566.0" x2="566.0" y1="304.9829" y2="235.7009"/>
    <line x1="568.2222" x2="568.2222" y1="236.9839" y2="306.2659"/>
    <line x1="570.4444" x2="570.4444" y1="307.5489" y2="238.2669"/>
    <line x1="572.6667" x2="572.6667" y1="239.5499" y2="308.8319"/>
    <line x1="574.8889" x2="574.8889" y1="310.1149" y2="240.8329"/>
    <line x1="577.1111" x2="577.1111" y1="242.1159" y2="311.3979"/>
    <line x1="579.3333" x2="579.3333" y1="312.6809" y2="243.3989"/>
    <line x1="581.5556" x2="581.5556" y1="244.6819" y2="313.9639"/>
    <line x1="583.7778" x2="583.7778" y1="315.2469" y2="245.9649"/>
    <polyline points="586.0,247.2479 586.0,316.5299 586.0,293.4359"/>
    <line x1="588.2222" x2="588.2222" y1="294.7189" y2="317.8129"/>
    <line x1="590.4444" x2="590.4444" y1="319.0959" y2="296.0019"/>
    <line x1="592.6667" x2="592.6667" y1="297.2849" y2="320.3789"/>
    <line x1="594.8889" x2="594.8889" y1="321.6619" y2="298.5679"/>
    <line x1="597.1111" x2="597.1111" y1="299.8509" y2="322.9449"/>
    <line x1="599.3333" x2="599.3333" y1="324.2279" y2="301.1339"/>
    <line x1="601.5556" x2="601.5556" y1="302.4169" y2="325.511"/>
    <line x1="603.7778" x2="603.7778" y1="326.794" y2="303.6999"/>
    <line x1="606.0" x2="606.0" y1="304.9829" y2="328.077"/>
    <line x1="586.0" x2="586.0" y1="339.624" y2="339.624"/>
    <line x1="583.7778" x2="583.7778" y1="340.907" y2="338.341"/>
    <line x1="581.5556" x2="581.5556" y1="337.058" y2="342.19"/>
    <line x1="579.3333" x2="579.3333" y1="343.473" y2="335.775"/>
    <line x1="577.1111" x2="577.1111" y1="334.492" y2="344.756"/>
    <line x1="574.8889" x2="574.8889" y1="346.039" y2="333.209"/>
    <line x1="572.6667" x2="572.6667" y1="331.926" y2="347.322"/>
    <line x1="570.4444" x2="570.4444" y1="348.605" y2="330.643"/>
    <line x1="568.2222" x2="568.2222" y1="329.36" y2="349.888"/>
    <line x1="566.0" x2="566.0" y1="351.171" y2="328.077"/>
    <line x1="546.0" x2="546.0" y1="362.718" y2="385.812"/>
    <line x1="548.2222" x2="548.2222" y1="387.095" y2="364.001"/>
    <line x1="550.4444" x2="550.4444" y1="365.284" y2="388.378"/>
    <line x1="552.6667" x2="552.6667" y1="389.661" y2="366.567"/>
    <line x1="554.8889" x2="554.8889" y1="367.85" y2="390.944"/>
    <line x1="557.1111" x2="557.1111" y1="392.227" y2="369.133"/>
    <line x1="559.3333" x2="559.3333" y1="370.416" y2="393.51"/>
    <line x1="561.5556" x2="561.5556" y1="394.793" y2="371.699"/>
    <line x1="563.7778" x2="563.7778" y1="372.982" y2="396.076"/>
    <line x1="566.0" x2="566.0" y1="397.359" y2="374.265"/>
    <line x1="586.0" x2="586.0" y1="385.812" y2="432.0"/>
    <line x1="588.2222" x2="588.2222" y1="433.283" y2="384.529"/>
    <line x1="590.4444" x2="590.4444" y1="383.246" y2="434.566"/>
    <line x1="592.6667" x2="592.6667" y1="435.849" y2="381.963"/>
    <line x1="594.8889" x2="594.8889" y1="380.68" y2="437.132"/>
    <line x1="597.1111" x2="597.1111" y1="438.415" y2="379.397"/>
    <line x1="599.3333" x2="599.3333" y1="378.114" y2="439.698"/>
    <line x1="601.5556" x2="601.5556" y1="440.981" y2="376.831"/>
    <line x1="603.7778" x2="603.7778" y1="375.548" y2="442.264"/>
    <line x1="606.0" x2="606.0" y1="443.547" y2="374.265"/>
    <line x1="606.0" x2="606.0" y1="397.359" y2="397.359"/>
    <line x1="626.0" x2="626.0" y1="385.812" y2="408.906"/>
    <line x1="628.2222" x2="628.2222" y1="410.189" y2="387.095"/>
    <line x1="630.4444" x2="630.4444" y1="388.378" y2="411.472"/>
    <line x1="632.6667" x2="632.6667" y1="412.755" y2="389.661"/>
    <line x1="634.8889" x2="634.8889" y1="390.944" y2="414.038"/>
    <line x1="637.1111" x2="637.1111" y1="415.321" y2="392.227"/>
    <line x1="639.3333" x2="639.3333" y1="393.51" y2="416.604"/>
    <line x1="641.5556" x2="641.5556" y1="417.887" y2="394.793"/>
    <line x1="643.7778" x2="643.7778" y1="396.076" y2="419.17"/>
    <line x1="646.0" x2="646.0" y1="420.453" y2="397.359"/>
    <line x1="666.0" x2="666.0" y1="455.094" y2="478.188"/>
    <line x1="668.2222" x2="668.2222" y1="479.471" y2="456.377"/>
    <line x1="670.4444" x2="670.4444" y1="457.66" y2="480.754"/>
    <line x1="672.6667" x2="672.6667" y1="482.037" y2="458.943"/>
    <line x1="674.8889" x2="674.8889" y1="460.226" y2="483.32"/>
    <line x1="677.1111" x2="677.1111" y1="484.603" y2="461.509"/>
    <line x1="679.3333" x2="679.3333" y1="462.792" y2="485.886"/>
    <line x1="681.5556" x2="681.5556" y1="487.169" y2="464.075"/>
    <line x1="683.7778" x2="683.7778" y1="465.358" y2="488.452"/>
    <polyline points="686.0,489.735 686.0,466.641 686.0,512.829"/>
    <line x1="688.2222" x2="688.2222" y1="511.546" y2="467.924"/>
    <line x1="690.4444" x2="690.4444" y1="469.207" y2="510.263"/>
    <line x1="692.6667" x2="692.6667" y1="508.98" y2="470.49"/>
    <line x1="694.8889" x2="694.8889" y1="471.773" y2="507.697"/>
    <line x1="697.1111" x2="697.1111" y1="506.414" y2="473.056"/>
    <line x1="699.3333" x2="699.3333" y1="474.339" y2="505.131"/>
    <line x1="701.5556" x2="701.5556" y1="503.848" y2="475.622"/>
    <line x1="703.7778" x2="703.7778" y1="476.905" y2="502.565"/>
    <polygon points="706.0,501.282 706.0,478.188"/>
    <line x1="708.2222" x2="708.2222" y1="502.565" y2="479.471"/>
    <line x1="710.4444" x2="710.4444" y1="480.754" y2="503.848"/>
    <line x1="712.6667" x2="712.6667" y1="505.131" y2="482.037"/>
    <line x1="714.8889" x2="714.8889" y1="483.32" y2="506.414"/>
    <line x1="717.1111" x2="717.1111" y1="507.697" y2="484.603"/>
    <line x1="719.3333" x2="719.3333" y1="485.886" y2="508.98"/>
    <line x1="721.5556" x2="721.5556" y1="510.263" y2="487.169"/>
    <line x1="723.7778" x2="723.7778" y1="488.452" y2="511.546"/>
    <line x1="728.2222" x2="728.2222" y1="511.546" y2="560.3001"/>
    <line x1="730.4444" x2="730.4444" y1="561.5831" y2="510.263"/>
    <line x1="732.6667" x2="732.6667" y1="508.98" y2="562.8661"/>
    <line x1="734.8889" x2="734.8889" y1="564.1491" y2="507.697"/>
    <line x1="737.1111" x2="737.1111" y1="506.414" y2="565.4321"/>
    <line x1="739.3333" x2="739.3333" y1="566.7151" y2="505.131"/>
    <line x1="741.5556" x2="741.5556" y1="503.848" y2="567.9981"/>
    <line x1="743.7778" x2="743.7778" y1="569.2811" y2="502.565"/>
    <line x1="746.0" x2="746.0" y1="501.282" y2="524.376"/>
    <line x1="748.2222" x2="748.2222" y1="525.659" y2="502.565"/>
    <line x1="750.4444" x2="750.4444" y1="503.848" y2="526.942"/>
    <line x1="752.6667" x2="752.6667" y1="528.225" y2="505.131"/>
    <line x1="754.8889" x2="754.8889" y1="506.414" y2="529.508"/>
    <line x1="757.1111" x2="757.1111" y1="530.791" y2="507.697"/>
    <line x1="759.3333" x2="759.3333" y1="508.98" y2="532.074"/>
    <line x1="761.5556" x2="761.5556" y1="533.357" y2="510.263"/>
    <line x1="763.7778" x2="763.7778" y1="511.546" y2="534.64"/>
    <line x1="768.2222" x2="768.2222" y1="537.206" y2="560.3001"/>
    <line x1="766.0" x2="766.0" y1="559.0171" y2="512.829"/>
    <line x1="743.7778" x2="743.7778" y1="499.999" y2="476.905"/>
    <line x1="746.0" x2="746.0" y1="478.188" y2="570.5641"/>
    <line x1="746.0" x2="746.0" y1="547.4701" y2="547.4701"/>
    <polyline points="726.0,535.923 726.0,559.0171 726.0,466.641"/>
    <line x1="728.2222" x2="728.2222" y1="467.924" y2="491.018"/>
    <line x1="726.0" x2="726.0" y1="489.735" y2="489.735"/>
    <line x1="730.4444" x2="730.4444" y1="492.301" y2="469.207"/>
    <line x1="732.6667" x2="732.6667" y1="470.49" y2="493.584"/>
    <line x1="734.8889" x2="734.8889" y1="494.867" y2="471.773"/>
    <line x1="737.1111" x2="737.1111" y1="473.056" y2="496.15"/>
    <line x1="739.3333" x2="739.3333" y1="497.433" y2="474.339"/>
    <line x1="741.5556" x2="741.5556" y1="475.622" y2="498.716"/>
    <line x1="761.5556" x2="761.5556" y1="464.075" y2="417.887"/>
    <line x1="763.7778" x2="763.7778" y1="419.17" y2="465.358"/>
    <line x1="766.0" x2="766.0" y1="466.641" y2="420.453"/>
    <line x1="759.3333" x2="759.3333" y1="416.604" y2="462.792"/>
    <line x1="757.1111" x2="757.1111" y1="461.509" y2="415.321"/>
    <line x1="754.8889" x2="754.8889" y1="414.038" y2="460.226"/>
    <line x1="752.6667" x2="752.6667" y1="458.943" y2="412.755"/>
    <line x1="750.4444" x2="750.4444" y1="411.472" y2="457.66"/>
    <line x1="748.2222" x2="748.2222" y1="456.377" y2="410.189"/>
    <line x1="748.2222" x2="748.2222" y1="407.623" y2="387.095"/>
    <line x1="750.4444" x2="750.4444" y1="388.378" y2="406.34"/>
    <line x1="752.6667" x2="752.6667" y1="405.057" y2="389.661"/>
    <line x1="754.8889" x2="754.8889" y1="390.944" y2="403.774"/>
    <line x1="757.1111" x2="757.1111" y1="402.491" y2="392.227"/>
    <line x1="759.3333" x2="759.3333" y1="393.51" y2="401.208"/>
    <line x1="761.5556" x2="761.5556" y1="399.925" y2="394.793"/>
    <line x1="763.7778" x2="763.7778" y1="396.076" y2="398.642"/>
    <line x1="766.0" x2="766.0" y1="397.359" y2="397.359"/>
    <line x1="743.7778" x2="743.7778" y1="384.529" y2="361.435"/>
    <line x1="746.0" x2="746.0" y1="362.718" y2="455.094"/>
    <line x1="746.0" x2="746.0" y1="432.0" y2="432.0"/>
    <line x1="766.0" x2="766.0" y1="443.547" y2="443.547"/>
    <line x1="741.5556" x2="741.5556" y1="383.246" y2="360.152"/>
    <line x1="739.3333" x2="739.3333" y1="358.869" y2="381.963"/>
    <line x1="737.1111" x2="737.1111" y1="380.68" y2="357.586"/>
    <line x1="734.8889" x2="734.8889" y1="356.303" y2="379.397"/>
    <line x1="732.6667" x2="732.6667" y1="378.114" y2="355.02"/>
    <line x1="730.4444" x2="730.4444" y1="353.737" y2="376.831"/>
    <line x1="728.2222" x2="728.2222" y1="375.548" y2="352.454"/>
    <line x1="726.0" x2="726.0" y1="351.171" y2="374.265"/>
    <line x1="723.7778" x2="723.7778" y1="537.206" y2="557.7341"/>
    <line x1="721.5556" x2="721.5556" y1="556.4511" y2="538.489"/>
    <line x1="719.3333" x2="719.3333" y1="539.7721" y2="555.1681"/>
    <line x1="717.1111" x2="717.1111" y1="553.8851" y2="541.0551"/>
    <line x1="714.8889" x2="714.8889" y1="542.3381" y2="552.6021"/>
    <line x1="712.6667" x2="712.6667" y1="551.3191" y2="543.6211"/>
    <line x1="710.4444" x2="710.4444" y1="544.9041" y2="550.0361"/>
    <line x1="708.2222" x2="708.2222" y1="548.7531" y2="546.1871"/>
    <line x1="706.0" x2="706.0" y1="547.4701" y2="547.4701"/>
    <line x1="646.0" x2="646.0" y1="559.0171" y2="628.2991"/>
    <line x1="643.7778" x2="643.7778" y1="627.0161" y2="557.7341"/>
    <line x1="641.5556" x2="641.5556" y1="556.4511" y2="625.7331"/>
    <line x1="639.3333" x2="639.3333" y1="624.4501" y2="555.1681"/>
    <line x1="637.1111" x2="637.1111" y1="553.8851" y2="623.1671"/>
    <line x1="634.8889" x2="634.8889" y1="621.8841" y2="552.6021"/>
    <line x1="632.6667" x2="632.6667" y1="551.3191" y2="620.6011"/>
    <line x1="630.4444" x2="630.4444" y1="619.3181" y2="550.0361"/>
    <line x1="628.2222" x2="628.2222" y1="548.7531" y2="618.0351"/>
    <polygon points="626.0,616.7521 626.0,547.4701"/>
    <line x1="623.7778" x2="623.7778" y1="615.4691" y2="548.7531"/>
    <line x1="621.5556" x2="621.5556" y1="550.0361" y2="614.1861"/>
    <line x1="619.3333" x2="619.3333" y1="612.9031" y2="551.3191"/>
    <line x1="617.1111" x2="617.1111" y1="552.6021" y2="611.6201"/>
    <line x1="614.8889" x2="614.8889" y1="610.3371" y2="553.8851"/>
    <line x1="612.6667" x2="612.6667" y1="555.1681" y2="609.0541"/>
    <line x1="610.4444" x2="610.4444" y1="607.7711" y2="556.4511"/>
    <line x1="608.2222" x2="608.2222" y1="557.7341" y2="606.4881"/>
    <line x1="603.7778" x2="603.7778" y1="603.9221" y2="488.452"/>
    <polyline points="606.0,489.735 606.0,605.2051 606.0,559.0171"/>
    <polyline points="586.0,547.4701 586.0,478.188 586.0,593.6581"/>
    <line x1="588.2222" x2="588.2222" y1="594.9411" y2="479.471"/>
    <line x1="590.4444" x2="590.4444" y1="480.754" y2="596.2241"/>
    <line x1="592.6667" x2="592.6667" y1="597.5071" y2="482.037"/>
    <line x1="594.8889" x2="594.8889" y1="483.32" y2="598.7901"/>
    <line x1="597.1111" x2="597.1111" y1="600.0731" y2="484.603"/>
    <line x1="599.3333" x2="599.3333" y1="485.886" y2="601.3561"/>
    <line x1="601.5556" x2="601.5556" y1="602.6391" y2="487.169"/>
    <line x1="583.7778" x2="583.7778" y1="476.905" y2="546.1871"/>
    <line x1="581.5556" x2="581.5556" y1="544.9041" y2="475.622"/>
    <line x1="579.3333" x2="579.3333" y1="474.339" y2="543.6211"/>
    <line x1="577.1111" x2="577.1111" y1="542.3381" y2="473.056"/>
    <line x1="574.8889" x2="574.8889" y1="471.773" y2="541.0551"/>
    <line x1="572.6667" x2="572.6667" y1="539.7721" y2="470.49"/>
    <line x1="570.4444" x2="570.4444" y1="469.207" y2="538.489"/>
    <line x1="568.2222" x2="568.2222" y1="537.206" y2="467.924"/>
    <line x1="563.7778" x2="563.7778" y1="465.358" y2="534.64"/>
    <polygon points="566.0,535.923 566.0,466.641"/>
    <line x1="561.5556" x2="561.5556" y1="533.357" y2="464.075"/>
    <line x1="559.3333" x2="559.3333" y1="462.792" y2="532.074"/>
    <line x1="557.1111" x2="557.1111" y1="530.791" y2="461.509"/>
    <line x1="554.8889" x2="554.8889" y1="460.226" y2="529.508"/>
    <line x1="552.6667" x2="552.6667" y1="528.225" y2="458.943"/>
    <line x1="550.4444" x2="550.4444" y1="457.66" y2="526.942"/>
    <line x1="548.2222" x2="548.2222" y1="525.659" y2="456.377"/>
    <line x1="548.2222" x2="548.2222" y1="453.811" y2="433.283"/>
    <line x1="546.0" x2="546.0" y1="432.0" y2="524.376"/>
    <line x1="546.0" x2="546.0" y1="501.282" y2="501.282"/>
    <line x1="526.0" x2="526.0" y1="512.829" y2="489.735"/>
    <line x1="523.7778" x2="523.7778" y1="491.018" y2="511.546"/>
    <line x1="521.5556" x2="521.5556" y1="510.263" y2="492.301"/>
    <line x1="519.3333" x2="519.3333" y1="493.584" y2="508.98"/>
    <line x1="517.1111" x2="517.1111" y1="507.697" y2="494.867"/>
    <line x1="514.8889" x2="514.8889" y1="496.15" y2="506.414"/>
    <line x1="512.6667" x2="512.6667" y1="505.131" y2="497.433"/>
    <line x1="510.4444" x2="510.4444" y1="498.716" y2="503.848"/>
    <line x1="508.2222" x2="508.2222" y1="502.565" y2="499.999"/>
    <line x1="506.0" x2="506.0" y1="501.282" y2="478.188"/>
    <line x1="503.7778" x2="503.7778" y1="479.471" y2="499.999"/>
    <line x1="501.5556" x2="501.5556" y1="498.716" y2="480.754"/>
    <line x1="499.3333" x2="499.3333" y1="482.037" y2="497.433"/>
    <line x1="497.1111" x2="497.1111" y1="496.15" y2="483.32"/>
    <line x1="494.8889" x2="494.8889" y1="484.603" y2="494.867"/>
    <line x1="492.6667" x2="492.6667" y1="493.584" y2="485.886"/>
    <line x1="490.4444" x2="490.4444" y1="487.169" y2="492.301"/>
    <line x1="488.2222" x2="488.2222" y1="491.018" y2="488.452"/>
    <line x1="486.0" x2="486.0" y1="489.735" y2="466.641"/>
    <line x1="483.7778" x2="483.7778" y1="465.358" y2="488.452"/>
    <line x1="481.5556" x2="481.5556" y1="487.169" y2="464.075"/>
    <line x1="479.3333" x2="479.3333" y1="462.792" y2="485.886"/>
    <line x1="477.1111" x2="477.1111" y1="484.603" y2="461.509"/>
    <line x1="474.8889" x2="474.8889" y1="460.226" y2="483.32"/>
    <line x1="472.6667" x2="472.6667" y1="482.037" y2="458.943"/>
    <line x1="470.4444" x2="470.4444" y1="457.66" y2="480.754"/>
    <line x1="468.2222" x2="468.2222" y1="479.471" y2="456.377"/>
    <line x1="463.7778" x2="463.7778" y1="453.811" y2="430.717"/>
    <line x1="461.5556" x2="461.5556" y1="429.434" y2="452.528"/>
    <line x1="459.3333" x2="459.3333" y1="451.245" y2="428.151"/>
    <line x1="457.1111" x2="457.1111" y1="426.868" y2="449.962"/>
    <line x1="454.8889" x2="454.8889" y1="448.679" y2="425.585"/>
    <line x1="452.6667" x2="452.6667" y1="424.302" y2="447.396"/>
    <line x1="450.4444" x2="450.4444" y1="446.113" y2="423.019"/>
    <line x1="448.2222" x2="448.2222" y1="421.736" y2="444.83"/>
    <line x1="446.0" x2="446.0" y1="443.547" y2="397.359"/>
    <line x1="443.7778" x2="443.7778" y1="396.076" y2="419.17"/>
    <line x1="441.5556" x2="441.5556" y1="417.887" y2="394.793"/>
    <line x1="439.3333" x2="439.3333" y1="393.51" y2="416.604"/>
    <line x1="437.1111" x2="437.1111" y1="415.321" y2="392.227"/>
    <line x1="434.8889" x2="434.8889" y1="390.944" y2="414.038"/>
    <line x1="432.6667" x2="432.6667" y1="412.755" y2="389.661"/>
    <line x1="430.4444" x2="430.4444" y1="388.378" y2="411.472"/>
    <line x1="428.2222" x2="428.2222" y1="410.189" y2="387.095"/>
    <line x1="428.2222" x2="428.2222" y1="384.529" y2="364.001"/>
    <line x1="426.0" x2="426.0" y1="362.718" y2="408.906"/>
    <line x1="406.0" x2="406.0" y1="397.359" y2="397.359"/>
    <line x1="403.7778" x2="403.7778" y1="396.076" y2="398.642"/>
    <line x1="401.5556" x2="401.5556" y1="399.925" y2="394.793"/>
    <line x1="399.3333" x2="399.3333" y1="393.51" y2="401.208"/>
    <line x1="397.1111" x2="397.1111" y1="402.491" y2="392.227"/>
    <line x1="394.8889" x2="394.8889" y1="390.944" y2="403.774"/>
    <line x1="392.6667" x2="392.6667" y1="405.057" y2="389.661"/>
    <line x1="390.4444" x2="390.4444" y1="388.378" y2="406.34"/>
    <line x1="388.2222" x2="388.2222" y1="407.623" y2="387.095"/>
    <line x1="386.0" x2="386.0" y1="385.812" y2="408.906"/>
    <line x1="374.8889" x2="374.8889" y1="425.585" y2="448.679"/>
    <line x1="377.1111" x2="377.1111" y1="449.962" y2="426.868"/>
    <line x1="379.3333" x2="379.3333" y1="428.151" y2="451.245"/>
    <line x1="381.5556" x2="381.5556" y1="452.528" y2="429.434"/>
    <line x1="383.7778" x2="383.7778" y1="430.717" y2="453.811"/>
    <line x1="386.0" x2="386.0" y1="455.094" y2="432.0"/>
    <line x1="372.6667" x2="372.6667" y1="424.302" y2="447.396"/>
    <line x1="370.4444" x2="370.4444" y1="446.113" y2="423.019"/>
    <line x1="368.2222" x2="368.2222" y1="421.736" y2="444.83"/>
    <line x1="366.0" x2="366.0" y1="443.547" y2="420.453"/>
    <line x1="430.4444" x2="430.4444" y1="383.246" y2="365.284"/>
    <line x1="432.6667" x2="432.6667" y1="366.567" y2="381.963"/>
    <line x1="434.8889" x2="434.8889" y1="380.68" y2="367.85"/>
    <line x1="437.1111" x2="437.1111" y1="369.133" y2="379.397"/>
    <line x1="439.3333" x2="439.3333" y1="378.114" y2="370.416"/>
    <line x1="441.5556" x2="441.5556" y1="371.699" y2="376.831"/>
    <line x1="443.7778" x2="443.7778" y1="375.548" y2="372.982"/>
    <line x1="446.0" x2="446.0" y1="374.265" y2="374.265"/>
    <line x1="466.0" x2="466.0" y1="432.0" y2="478.188"/>
    <line x1="457.1111" x2="457.1111" y1="496.15" y2="565.4321"/>
    <line x1="454.8889" x2="454.8889" y1="564.1491" y2="494.867"/>
    <line x1="452.6667" x2="452.6667" y1="493.584" y2="562.8661"/>
    <line x1="450.4444" x2="450.4444" y1="561.5831" y2="492.301"/>
    <line x1="448.2222" x2="448.2222" y1="491.018" y2="560.3001"/>
    <line x1="446.0" x2="446.0" y1="559.0171" y2="489.735"/>
    <line x1="459.3333" x2="459.3333" y1="497.433" y2="566.7151"/>
    <line x1="461.5556" x2="461.5556" y1="567.9981" y2="498.716"/>
    <line x1="463.7778" x2="463.7778" y1="499.999" y2="569.2811"/>
    <line x1="466.0" x2="466.0" y1="570.5641" y2="501.282"/>
    <line x1="466.0" x2="466.0" y1="524.376" y2="524.376"/>
    <line x1="446.0" x2="446.0" y1="535.923" y2="535.923"/>
    <line x1="466.0" x2="466.0" y1="547.4701" y2="547.4701"/>
    <line x1="506.0" x2="506.0" y1="455.094" y2="432.0"/>
    <line x1="503.7778" x2="503.7778" y1="430.717" y2="453.811"/>
    <line x1="501.5556" x2="501.5556" y1="452.528" y2="429.434"/>
    <line x1="499.3333" x2="499.3333" y1="428.151" y2="451.245"/>
    <line x1="497.1111" x2="497.1111" y1="449.962" y2="426.868"/>
    <line x1="494.8889" x2="494.8889" y1="425.585" y2="448.679"/>
    <line x1="492.6667" x2="492.6667" y1="447.396" y2="424.302"/>
    <line x1="490.4444" x2="490.4444" y1="423.019" y2="446.113"/>
    <line x1="488.2222" x2="488.2222" y1="444.83" y2="421.736"/>
    <line x1="486.0" x2="486.0" y1="420.453" y2="443.547"/>
    <line x1="550.4444" x2="550.4444" y1="452.528" y2="434.566"/>
    <line x1="552.6667" x2="552.6667" y1="435.849" y2="451.245"/>
    <line x1="554.8889" x2="554.8889" y1="449.962" y2="437.132"/>
    <line x1="557.1111" x2="557.1111" y1="438.415" y2="448.679"/>
    <line x1="559.3333" x2="559.3333" y1="447.396" y2="439.698"/>
    <line x1="561.5556" x2="561.5556" y1="440.981" y2="446.113"/>
    <line x1="563.7778" x2="563.7778" y1="444.83" y2="442.264"/>
    <line x1="566.0" x2="566.0" y1="443.547" y2="443.547"/>
    <line x1="606.0" x2="606.0" y1="512.829" y2="512.829"/>
    <line x1="586.0" x2="586.0" y1="524.376" y2="524.376"/>
    <line x1="606.0" x2="606.0" y1="535.923" y2="535.923"/>
    <line x1="646.0" x2="646.0" y1="582.1111" y2="582.1111"/>
    <line x1="770.4444" x2="770.4444" y1="561.5831" y2="538.489"/>
    <line x1="772.6667" x2="772.6667" y1="539.7721" y2="562.8661"/>
    <line x1="774.8889" x2="774.8889" y1="564.1491" y2="541.0551"/>
    <line x1="777.1111" x2="777.1111" y1="542.3381" y2="565.4321"/>
    <line x1="779.3333" x2="779.3333" y1="566.7151" y2="543.6211"/>
    <line x1="781.5556" x2="781.5556" y1="544.9041" y2="567.9981"/>
    <line x1="783.7778" x2="783.7778" y1="569.2811" y2="546.1871"/>
    <line x1="786.0" x2="786.0" y1="547.4701" y2="570.5641"/>
    <line x1="586.0" x2="586.0" y1="270.3419" y2="270.3419"/>
    <line x1="566.0" x2="566.0" y1="258.7949" y2="258.7949"/>
    <line x1="566.0" x2="566.0" y1="281.8889" y2="281.8889"/>
  </g>
</svg>
