<svg height="816" viewBox="0 0 1056 816" width="1056" xmlns="http://www.w3.org/2000/svg">
<path d="M528,672 L561.08795,667.32385 M561.08795,667.32385 L593.6541,653.461 M593.6541,653.461 L625.1849,630.9026 M625.1849,630.9026 L655.183,600.4477 M655.183,600.4477 L683.1753,563.1753 M683.1753,563.1753 L708.72046,520.40576 M708.72046,520.40576 L731.4155,473.6541 M731.4155,473.6541 L750.9026,424.57666 M750.9026,424.57666 L766.8743,374.91205 M766.8743,374.91205 L779.0789,326.4195 M779.0789,326.4195 L787.32385,280.81702 M787.32385,280.81702 L791.47906,239.72006 M791.47906,239.72006 L791.47906,204.58449 M791.47906,204.58449 L787.32385,176.65503 M787.32385,176.65503 L779.0789,156.92105 M779.0789,156.92105 L766.8743,146.08173 M766.8743,146.08173 L750.9026,144.52094 M750.9026,144.52094 L731.4155,152.29404 M731.4155,152.29404 L708.72046,169.12566 M708.72046,169.12566 L683.1753,194.41953 M683.1753,194.41953 L655.1829,227.2796 M655.1829,227.2796 L625.1848,266.5418 M625.1848,266.5418 L593.6541,310.81506 M593.6541,310.81506 L561.08795,358.5313 M561.08795,358.5313 L528,408 M528,408 L494.912,457.4687 M494.912,457.4687 L462.34583,505.18494 M462.34583,505.18494 L430.81506,549.4583 M430.81506,549.4583 L400.81702,588.7205 M400.81702,588.7205 L372.82465,621.58057 M372.82465,621.58057 L347.27954,646.8744 M347.27954,646.8744 L324.58447,663.706 M324.58447,663.706 L305.0974,671.47906 M305.0974,671.47906 L289.1256,669.9182 M289.1256,669.9182 L276.92105,659.07886 M276.92105,659.07886 L268.67618,639.345 M268.67618,639.345 L264.52094,611.4155 M264.52094,611.4155 L264.52094,576.2799 M264.52094,576.2799 L268.67618,535.1829 M268.67618,535.1829 L276.92108,489.58044 M276.92108,489.58044 L289.12567,441.0879 M289.12567,441.0879 L305.09747,391.42322 M305.09747,391.42322 L324.58453,342.34576 M324.58453,342.34576 L347.27963,295.59415 M347.27963,295.59415 L372.82477,252.82457 M372.82477,252.82457 L400.81702,215.55234 M400.81702,215.55234 L430.81525,185.09732 M430.81525,185.09732 L462.3459,162.53902 M462.3459,162.53902 L494.91217,148.67612 M494.91217,148.67612 L528.00006,144 M528.00006,144 L561.08813,148.67621 M561.08813,148.67621 L593.6542,162.53902 M593.6542,162.53902 L625.1848,185.09746 M625.1848,185.09746 L655.18304,215.55235 M655.18304,215.55235 L683.1753,252.82477 M683.1753,252.82477 L708.7205,295.59436 M708.7205,295.59436 L731.4155,342.346 M731.4155,342.346 L750.9026,391.42346 M750.9026,391.42346 L766.8744,441.08817 M766.8744,441.08817 L779.079,489.5807 M779.079,489.5807 L787.32385,535.18317 M787.32385,535.18317 L791.47906,576.28015 M791.47906,576.28015 L791.47906,611.41565 M791.47906,611.41565 L787.32385,639.3451 M787.32385,639.3451 L779.079,659.07886 M779.079,659.07886 L766.87427,669.91833 M766.87427,669.91833 L750.9026,671.47906 M750.9026,671.47906 L731.4154,663.7059 M731.4154,663.7059 L708.72046,646.8744 M708.72046,646.8744 L683.1752,621.5802 M683.1752,621.5802 L655.183,588.72046 M655.183,588.72046 L625.18494,549.4583 M625.18494,549.4583 L593.6542,505.1849 M593.6542,505.1849 L561.088,457.4687 M561.088,457.4687 L528,408 M528,408 L494.91202,358.5313 M494.91202,358.5313 L462.34583,310.81506 M462.34583,310.81506 L430.81506,266.54166 M430.81506,266.54166 L400.81696,227.2795 M400.81696,227.2795 L372.82465,194.41945 M372.82465,194.41945 L347.27948,169.12561 M347.27948,169.12561 L324.58444,152.294 M324.58444,152.294 L305.09735,144.52094 M305.09735,144.52094 L289.1256,146.08176 M289.1256,146.08176 L276.92114,156.92099 M276.92114,156.92099 L268.67615,176.65515 M268.67615,176.65515 L264.52094,204.58466 M264.52094,204.58466 L264.52097,239.72028 M264.52097,239.72028 L268.67615,280.81683 M268.67615,280.81683 L276.92114,326.4198 M276.92114,326.4198 L289.12573,374.91235 M289.12573,374.91235 L305.0974,424.57654 M305.0974,424.57654 L324.5845,473.654 M324.5845,473.654 L347.2798,520.40607 M347.2798,520.40607 L372.82492,563.17566 M372.82492,563.17566 L400.81708,600.44763 M400.81708,600.44763 L430.8152,630.9025 M430.8152,630.9025 L462.3462,653.4612 M462.3462,653.4612 L494.9121,667.32385 M494.9121,667.32385 L528.0001,672 M528.0001,672 z" fill="none" stroke="black" stroke-width="3"/>
</svg>