<?xml version="1.0" encoding="utf-8" ?>
<svg xmlns="http://www.w3.org/2000/svg" xmlns:cc="http://creativecommons.org/ns#" xmlns:dc="http://purl.org/dc/elements/1.1/" xmlns:ev="http://www.w3.org/2001/xml-events" xmlns:inkscape="http://www.inkscape.org/namespaces/inkscape" xmlns:rdf="http://www.w3.org/1999/02/22-rdf-syntax-ns#" xmlns:sodipodi="http://sodipodi.sourceforge.net/DTD/sodipodi-0.dtd" xmlns:xlink="http://www.w3.org/1999/xlink" baseProfile="tiny" height="22.86cm" version="1.2" viewBox="0 0 1152.0 864.0" width="30.48cm">
  <metadata>
    <rdf:RDF>
      <cc:Work>
        <dc:format>image/svg+xml</dc:format>
        <dc:source/>
        <dc:date>2021-10-05T20:34:51.251581</dc:date>
      </cc:Work>
    </rdf:RDF>
  </metadata>
  <defs/>
  <g fill="none" id="layer2.0" inkscape:groupmode="layer" inkscape:label="2" stroke="#00f" style="display:inline">
    <line x1="568.5" x2="573.5" y1="52.3922" y2="49.5054"/>
    <line x1="573.5" x2="568.5" y1="50.9488" y2="53.8356"/>
    <line x1="568.5" x2="573.5" y1="55.2789" y2="52.3922"/>
    <line x1="573.5" x2="568.5" y1="53.8356" y2="56.7223"/>
    <polygon points="568.5,58.1657 573.5,55.2789"/>
    <line x1="568.5" x2="568.5" y1="58.1657" y2="58.1657"/>
    <line x1="568.5" x2="573.5" y1="59.6091" y2="56.7223"/>
    <line x1="573.5" x2="568.5" y1="58.1657" y2="61.0525"/>
    <line x1="568.5" x2="573.5" y1="62.4958" y2="59.6091"/>
    <line x1="573.5" x2="568.5" y1="61.0525" y2="63.9392"/>
    <line x1="573.5" x2="578.5" y1="66.826" y2="63.9392"/>
    <line x1="578.5" x2="573.5" y1="65.3826" y2="68.2693"/>
    <line x1="573.5" x2="578.5" y1="69.7127" y2="66.826"/>
    <line x1="578.5" x2="573.5" y1="68.2693" y2="71.1561"/>
    <line x1="573.5" x2="568.5" y1="74.0428" y2="76.9296"/>
    <line x1="568.5" x2="578.5" y1="75.4862" y2="69.7127"/>
    <polyline points="578.5,75.4862 568.5,81.2597 573.5,78.373"/>
    <line x1="573.5" x2="568.5" y1="76.9296" y2="79.8163"/>
    <line x1="568.5" x2="573.5" y1="78.373" y2="75.4862"/>
    <line x1="578.5" x2="568.5" y1="76.9296" y2="82.7031"/>
    <line x1="568.5" x2="578.5" y1="84.1465" y2="78.373"/>
    <line x1="578.5" x2="568.5" y1="79.8163" y2="85.5898"/>
    <line x1="568.5" x2="573.5" y1="88.4766" y2="85.5898"/>
    <line x1="573.5" x2="568.5" y1="87.0332" y2="89.92"/>
    <line x1="568.5" x2="573.5" y1="91.3633" y2="88.4766"/>
    <line x1="573.5" x2="568.5" y1="89.92" y2="92.8067"/>
    <polyline points="573.5,84.1465 568.5,87.0332 578.5,81.2597"/>
    <line x1="568.5" x2="568.5" y1="81.2597" y2="81.2597"/>
    <line x1="578.5" x2="573.5" y1="110.1272" y2="113.014"/>
    <line x1="573.5" x2="578.5" y1="114.4574" y2="111.5706"/>
    <line x1="578.5" x2="573.5" y1="113.014" y2="115.9007"/>
    <line x1="573.5" x2="578.5" y1="117.3441" y2="114.4574"/>
    <polygon points="578.5,115.9007 573.5,118.7875"/>
    <line x1="578.5" x2="573.5" y1="117.3441" y2="120.2309"/>
    <line x1="573.5" x2="578.5" y1="121.6742" y2="118.7875"/>
    <line x1="578.5" x2="573.5" y1="120.2309" y2="123.1176"/>
    <line x1="573.5" x2="588.5" y1="126.0044" y2="117.3441"/>
    <polyline points="588.5,115.9007 573.5,124.561 578.5,121.6742"/>
    <line x1="573.5" x2="588.5" y1="127.4477" y2="118.7875"/>
    <line x1="588.5" x2="573.5" y1="120.2309" y2="128.8911"/>
    <line x1="573.5" x2="588.5" y1="130.3345" y2="121.6742"/>
    <line x1="578.5" x2="573.5" y1="138.9947" y2="141.8815"/>
    <line x1="573.5" x2="578.5" y1="143.3249" y2="140.4381"/>
    <line x1="578.5" x2="573.5" y1="141.8815" y2="144.7682"/>
    <line x1="573.5" x2="578.5" y1="146.2116" y2="143.3249"/>
    <line x1="578.5" x2="573.5" y1="146.2116" y2="149.0984"/>
    <line x1="573.5" x2="578.5" y1="150.5417" y2="147.655"/>
    <line x1="578.5" x2="573.5" y1="149.0984" y2="151.9851"/>
    <line x1="573.5" x2="578.5" y1="153.4285" y2="150.5417"/>
    <line x1="573.5" x2="573.5" y1="147.655" y2="147.655"/>
    <polygon points="573.5,147.655 578.5,144.7682"/>
    <line x1="578.5" x2="583.5" y1="156.3152" y2="153.4285"/>
    <line x1="583.5" x2="578.5" y1="154.8719" y2="157.7586"/>
    <line x1="578.5" x2="583.5" y1="159.202" y2="156.3152"/>
    <line x1="583.5" x2="578.5" y1="157.7586" y2="160.6454"/>
    <line x1="578.5" x2="583.5" y1="162.0887" y2="159.202"/>
    <line x1="593.5" x2="578.5" y1="176.5225" y2="185.1828"/>
    <line x1="578.5" x2="593.5" y1="186.6261" y2="177.9659"/>
    <line x1="593.5" x2="578.5" y1="179.4093" y2="188.0695"/>
    <line x1="578.5" x2="593.5" y1="189.5129" y2="180.8526"/>
    <line x1="593.5" x2="578.5" y1="182.296" y2="190.9563"/>
    <line x1="593.5" x2="578.5" y1="205.39" y2="214.0503"/>
    <line x1="578.5" x2="593.5" y1="215.4936" y2="206.8334"/>
    <line x1="593.5" x2="578.5" y1="208.2768" y2="216.937"/>
    <line x1="578.5" x2="593.5" y1="218.3804" y2="209.7201"/>
    <line x1="593.5" x2="578.5" y1="211.1635" y2="219.8238"/>
    <line x1="583.5" x2="583.5" y1="216.937" y2="216.937"/>
    <line x1="583.5" x2="598.5" y1="228.484" y2="219.8238"/>
    <line x1="598.5" x2="583.5" y1="221.2672" y2="229.9274"/>
    <line x1="583.5" x2="598.5" y1="231.3708" y2="222.7105"/>
    <line x1="598.5" x2="583.5" y1="224.1539" y2="232.8142"/>
    <line x1="583.5" x2="598.5" y1="234.2575" y2="225.5973"/>
    <line x1="588.5" x2="588.5" y1="231.3708" y2="231.3708"/>
    <line x1="588.5" x2="583.5" y1="254.4648" y2="257.3515"/>
    <line x1="583.5" x2="588.5" y1="258.7949" y2="255.9082"/>
    <line x1="588.5" x2="583.5" y1="257.3515" y2="260.2383"/>
    <line x1="583.5" x2="588.5" y1="261.6817" y2="258.7949"/>
    <line x1="588.5" x2="573.5" y1="261.6817" y2="270.3419"/>
    <line x1="573.5" x2="588.5" y1="271.7853" y2="263.125"/>
    <line x1="588.5" x2="573.5" y1="264.5684" y2="273.2287"/>
    <line x1="573.5" x2="588.5" y1="274.6721" y2="266.0118"/>
    <polygon points="583.5,263.125 588.5,260.2383"/>
    <line x1="583.5" x2="573.5" y1="263.125" y2="268.8985"/>
    <line x1="583.5" x2="583.5" y1="268.8985" y2="268.8985"/>
    <line x1="578.5" x2="563.5" y1="294.8793" y2="303.5396"/>
    <line x1="563.5" x2="578.5" y1="304.9829" y2="296.3227"/>
    <line x1="578.5" x2="563.5" y1="297.7661" y2="306.4263"/>
    <line x1="563.5" x2="578.5" y1="307.8697" y2="299.2094"/>
    <line x1="578.5" x2="563.5" y1="300.6528" y2="309.3131"/>
    <line x1="578.5" x2="586.0" y1="309.3131" y2="304.9829"/>
    <line x1="587.25" x2="578.5" y1="305.7046" y2="310.7564"/>
    <line x1="578.5" x2="593.5" y1="312.1998" y2="303.5396"/>
    <line x1="592.25" x2="588.5" y1="302.8179" y2="304.9829"/>
    <line x1="588.5" x2="591.0" y1="303.5396" y2="302.0962"/>
    <line x1="589.75" x2="588.5" y1="301.3745" y2="302.0962"/>
    <line x1="588.5" x2="588.5" y1="300.6528" y2="300.6528"/>
    <line x1="584.75" x2="578.5" y1="304.2613" y2="307.8697"/>
    <line x1="578.5" x2="583.5" y1="306.4263" y2="303.5396"/>
    <line x1="583.5" x2="583.5" y1="309.3131" y2="309.3131"/>
    <line x1="598.5" x2="603.5" y1="306.4263" y2="303.5396"/>
    <line x1="603.5" x2="598.5" y1="302.0962" y2="304.9829"/>
    <line x1="598.5" x2="603.5" y1="303.5396" y2="300.6528"/>
    <line x1="603.5" x2="598.5" y1="299.2094" y2="302.0962"/>
    <line x1="598.5" x2="603.5" y1="300.6528" y2="297.7661"/>
    <line x1="583.5" x2="568.5" y1="338.1806" y2="346.8408"/>
    <line x1="568.5" x2="583.5" y1="348.2842" y2="339.624"/>
    <line x1="583.5" x2="568.5" y1="341.0673" y2="349.7276"/>
    <line x1="568.5" x2="583.5" y1="351.171" y2="342.5107"/>
    <line x1="583.5" x2="568.5" y1="343.9541" y2="352.6143"/>
    <line x1="573.5" x2="573.5" y1="349.7276" y2="349.7276"/>
    <line x1="578.5" x2="578.5" y1="346.8408" y2="346.8408"/>
    <line x1="583.5" x2="578.5" y1="361.2746" y2="364.1613"/>
    <line x1="578.5" x2="583.5" y1="365.6047" y2="362.718"/>
    <line x1="583.5" x2="578.5" y1="364.1613" y2="367.0481"/>
    <line x1="578.5" x2="583.5" y1="368.4915" y2="365.6047"/>
    <polygon points="583.5,367.0481 578.5,369.9348"/>
    <line x1="583.5" x2="568.5" y1="368.4915" y2="377.1517"/>
    <line x1="568.5" x2="583.5" y1="378.5951" y2="369.9348"/>
    <line x1="583.5" x2="568.5" y1="371.3782" y2="380.0385"/>
    <line x1="568.5" x2="583.5" y1="381.4819" y2="372.8216"/>
    <line x1="578.5" x2="578.5" y1="375.7083" y2="375.7083"/>
    <line x1="578.5" x2="568.5" y1="369.9348" y2="375.7083"/>
    <line x1="623.5" x2="633.5" y1="390.1421" y2="384.3686"/>
    <line x1="633.5" x2="638.5" y1="382.9252" y2="380.0385"/>
    <polyline points="638.5,381.4819 633.5,384.3686 643.5,378.5951"/>
    <line x1="643.5" x2="623.5" y1="380.0385" y2="391.5855"/>
    <line x1="623.5" x2="643.5" y1="393.0289" y2="381.4819"/>
    <line x1="643.5" x2="623.5" y1="382.9252" y2="394.4722"/>
    <line x1="623.5" x2="643.5" y1="395.9156" y2="384.3686"/>
    <line x1="648.5" x2="653.5" y1="381.4819" y2="378.5951"/>
    <line x1="653.5" x2="648.5" y1="377.1517" y2="380.0385"/>
    <line x1="648.5" x2="653.5" y1="378.5951" y2="375.7083"/>
    <line x1="653.5" x2="648.5" y1="374.265" y2="377.1517"/>
    <polygon points="648.5,375.7083 653.5,372.8216"/>
    <line x1="648.5" x2="648.5" y1="375.7083" y2="375.7083"/>
    <line x1="648.5" x2="653.5" y1="374.265" y2="371.3782"/>
    <line x1="653.5" x2="648.5" y1="369.9348" y2="372.8216"/>
    <line x1="648.5" x2="653.5" y1="371.3782" y2="368.4915"/>
    <polyline points="653.5,367.0481 648.5,369.9348 668.5,358.3878"/>
    <line x1="668.5" x2="663.5" y1="356.9445" y2="359.8312"/>
    <line x1="662.25" x2="648.5" y1="360.5529" y2="368.4915"/>
    <line x1="648.5" x2="661.0" y1="367.0481" y2="359.8312"/>
    <line x1="659.75" x2="648.5" y1="359.1095" y2="365.6047"/>
    <line x1="648.5" x2="658.5" y1="364.1613" y2="358.3878"/>
    <line x1="663.5" x2="668.5" y1="358.3878" y2="355.5011"/>
    <line x1="668.5" x2="663.5" y1="354.0577" y2="356.9445"/>
    <line x1="663.5" x2="673.5" y1="355.5011" y2="349.7276"/>
    <line x1="673.5" x2="668.5" y1="348.2842" y2="351.171"/>
    <line x1="668.5" x2="673.5" y1="349.7276" y2="346.8408"/>
    <line x1="673.5" x2="668.5" y1="345.3975" y2="348.2842"/>
    <line x1="668.5" x2="668.5" y1="346.8408" y2="346.8408"/>
    <line x1="668.5" x2="663.5" y1="345.3975" y2="348.2842"/>
    <line x1="662.25" x2="658.5" y1="349.0059" y2="351.171"/>
    <line x1="658.5" x2="661.0" y1="349.7276" y2="348.2842"/>
    <line x1="659.75" x2="658.5" y1="347.5625" y2="348.2842"/>
    <line x1="658.5" x2="658.5" y1="346.8408" y2="346.8408"/>
    <line x1="663.5" x2="668.5" y1="346.8408" y2="343.9541"/>
    <line x1="668.5" x2="663.5" y1="342.5107" y2="345.3975"/>
    <line x1="663.5" x2="663.5" y1="343.9541" y2="343.9541"/>
    <line x1="663.5" x2="668.5" y1="342.5107" y2="339.624"/>
    <polygon points="668.5,341.0673 663.5,343.9541"/>
    <line x1="668.5" x2="663.5" y1="338.1806" y2="341.0673"/>
    <line x1="663.5" x2="668.5" y1="339.624" y2="336.7372"/>
    <line x1="668.5" x2="653.5" y1="333.8505" y2="342.5107"/>
    <polyline points="653.5,343.9541 668.5,335.2938 663.5,338.1806"/>
    <line x1="668.5" x2="653.5" y1="332.4071" y2="341.0673"/>
    <line x1="653.5" x2="668.5" y1="339.624" y2="330.9637"/>
    <line x1="668.5" x2="653.5" y1="329.5203" y2="338.1806"/>
    <line x1="648.5" x2="663.5" y1="323.7468" y2="315.0866"/>
    <line x1="663.5" x2="648.5" y1="313.6432" y2="322.3034"/>
    <line x1="648.5" x2="663.5" y1="320.8601" y2="312.1998"/>
    <line x1="663.5" x2="648.5" y1="310.7564" y2="319.4167"/>
    <polygon points="648.5,317.9733 663.5,309.3131"/>
    <line x1="648.5" x2="648.5" y1="317.9733" y2="317.9733"/>
    <line x1="648.5" x2="663.5" y1="316.5299" y2="307.8697"/>
    <line x1="663.5" x2="648.5" y1="306.4263" y2="315.0866"/>
    <line x1="648.5" x2="663.5" y1="313.6432" y2="304.9829"/>
    <polygon points="663.5,303.5396 653.5,309.3131"/>
    <line x1="663.5" x2="648.5" y1="302.0962" y2="310.7564"/>
    <polygon points="648.5,312.1998 653.5,309.3131"/>
    <line x1="648.5" x2="663.5" y1="309.3131" y2="300.6528"/>
    <line x1="663.5" x2="648.5" y1="299.2094" y2="307.8697"/>
    <line x1="648.5" x2="663.5" y1="306.4263" y2="297.7661"/>
    <line x1="658.5" x2="658.5" y1="306.4263" y2="306.4263"/>
    <line x1="658.5" x2="658.5" y1="312.1998" y2="312.1998"/>
    <line x1="673.5" x2="658.5" y1="343.9541" y2="352.6143"/>
    <line x1="658.5" x2="658.5" y1="364.1613" y2="364.1613"/>
    <line x1="643.5" x2="638.5" y1="364.1613" y2="367.0481"/>
    <line x1="638.5" x2="643.5" y1="368.4915" y2="365.6047"/>
    <line x1="643.5" x2="638.5" y1="367.0481" y2="369.9348"/>
    <line x1="638.5" x2="643.5" y1="365.6047" y2="362.718"/>
    <line x1="642.25" x2="638.5" y1="360.5529" y2="362.718"/>
    <line x1="638.5" x2="641.0" y1="361.2746" y2="359.8312"/>
    <line x1="639.75" x2="638.5" y1="359.1095" y2="359.8312"/>
    <line x1="638.5" x2="638.5" y1="358.3878" y2="358.3878"/>
    <polygon points="638.5,364.1613 643.5,361.2746"/>
    <line x1="638.5" x2="638.5" y1="364.1613" y2="364.1613"/>
    <line x1="638.5" x2="633.5" y1="375.7083" y2="378.5951"/>
    <line x1="633.5" x2="638.5" y1="380.0385" y2="377.1517"/>
    <line x1="638.5" x2="633.5" y1="378.5951" y2="381.4819"/>
    <line x1="638.5" x2="633.5" y1="387.2554" y2="390.1421"/>
    <line x1="633.5" x2="638.5" y1="391.5855" y2="388.6987"/>
    <line x1="638.5" x2="633.5" y1="390.1421" y2="393.0289"/>
    <line x1="633.5" x2="638.5" y1="394.4722" y2="391.5855"/>
    <line x1="638.5" x2="628.5" y1="393.0289" y2="398.8024"/>
    <line x1="628.5" x2="633.5" y1="400.2457" y2="397.359"/>
    <line x1="633.5" x2="628.5" y1="398.8024" y2="401.6891"/>
    <line x1="628.5" x2="633.5" y1="403.1325" y2="400.2457"/>
    <polygon points="633.5,401.6891 628.5,404.5759"/>
    <line x1="633.5" x2="628.5" y1="403.1325" y2="406.0192"/>
    <line x1="628.5" x2="633.5" y1="407.4626" y2="404.5759"/>
    <line x1="633.5" x2="628.5" y1="406.0192" y2="408.906"/>
    <line x1="628.5" x2="633.5" y1="410.3494" y2="407.4626"/>
    <line x1="633.5" x2="638.5" y1="413.2361" y2="410.3494"/>
    <line x1="638.5" x2="633.5" y1="411.7927" y2="414.6795"/>
    <line x1="633.5" x2="638.5" y1="416.1229" y2="413.2361"/>
    <line x1="638.5" x2="633.5" y1="414.6795" y2="417.5662"/>
    <polygon points="633.5,419.0096 638.5,416.1229"/>
    <line x1="633.5" x2="633.5" y1="419.0096" y2="419.0096"/>
    <line x1="633.5" x2="638.5" y1="420.453" y2="417.5662"/>
    <line x1="638.5" x2="633.5" y1="419.0096" y2="421.8964"/>
    <line x1="633.5" x2="638.5" y1="423.3397" y2="420.453"/>
    <line x1="638.5" x2="618.5" y1="421.8964" y2="433.4434"/>
    <line x1="618.5" x2="633.5" y1="434.8868" y2="426.2265"/>
    <line x1="633.5" x2="618.5" y1="427.6699" y2="436.3301"/>
    <line x1="618.5" x2="633.5" y1="437.7735" y2="429.1132"/>
    <line x1="633.5" x2="618.5" y1="432.0" y2="440.6603"/>
    <polygon points="618.5,439.2169 633.5,430.5566"/>
    <line x1="618.5" x2="618.5" y1="439.2169" y2="439.2169"/>
    <line x1="618.5" x2="633.5" y1="442.1036" y2="433.4434"/>
    <line x1="633.5" x2="618.5" y1="434.8868" y2="443.547"/>
    <line x1="618.5" x2="618.5" y1="444.9904" y2="444.9904"/>
    <line x1="618.5" x2="633.5" y1="446.4338" y2="437.7735"/>
    <line x1="633.5" x2="618.5" y1="439.2169" y2="447.8771"/>
    <line x1="618.5" x2="633.5" y1="449.3205" y2="440.6603"/>
    <line x1="633.5" x2="618.5" y1="442.1036" y2="450.7639"/>
    <line x1="623.5" x2="628.5" y1="453.6506" y2="450.7639"/>
    <line x1="628.5" x2="623.5" y1="452.2073" y2="455.094"/>
    <line x1="623.5" x2="628.5" y1="456.5374" y2="453.6506"/>
    <line x1="628.5" x2="623.5" y1="455.094" y2="457.9808"/>
    <line x1="623.5" x2="628.5" y1="459.4241" y2="456.5374"/>
    <line x1="628.5" x2="628.5" y1="444.9904" y2="444.9904"/>
    <polygon points="623.5,442.1036 628.5,439.2169 618.5,444.9904"/>
    <line x1="628.5" x2="628.5" y1="439.2169" y2="439.2169"/>
    <polygon points="628.5,439.2169 633.5,436.3301"/>
    <line x1="628.5" x2="628.5" y1="433.4434" y2="433.4434"/>
    <line x1="623.5" x2="623.5" y1="436.3301" y2="436.3301"/>
    <line x1="623.5" x2="628.5" y1="424.7831" y2="421.8964"/>
    <line x1="627.25" x2="623.5" y1="421.1747" y2="423.3397"/>
    <line x1="623.5" x2="626.0" y1="421.8964" y2="420.453"/>
    <line x1="624.75" x2="623.5" y1="419.7313" y2="420.453"/>
    <line x1="623.5" x2="623.5" y1="419.0096" y2="419.0096"/>
    <line x1="628.5" x2="628.5" y1="393.0289" y2="393.0289"/>
    <line x1="653.5" x2="668.5" y1="390.1421" y2="381.4819"/>
    <line x1="668.5" x2="658.5" y1="380.0385" y2="385.812"/>
    <line x1="657.25" x2="653.5" y1="386.5337" y2="388.6987"/>
    <line x1="653.5" x2="656.0" y1="387.2554" y2="385.812"/>
    <line x1="654.75" x2="653.5" y1="385.0903" y2="385.812"/>
    <line x1="653.5" x2="653.5" y1="384.3686" y2="384.3686"/>
    <line x1="658.5" x2="668.5" y1="384.3686" y2="378.5951"/>
    <line x1="668.5" x2="658.5" y1="377.1517" y2="382.9252"/>
    <line x1="658.5" x2="668.5" y1="381.4819" y2="375.7083"/>
    <line x1="678.5" x2="673.5" y1="410.3494" y2="413.2361"/>
    <line x1="673.5" x2="678.5" y1="414.6795" y2="411.7927"/>
    <line x1="678.5" x2="673.5" y1="413.2361" y2="416.1229"/>
    <line x1="673.5" x2="678.5" y1="417.5662" y2="414.6795"/>
    <line x1="678.5" x2="673.5" y1="416.1229" y2="419.0096"/>
    <line x1="668.5" x2="663.5" y1="416.1229" y2="419.0096"/>
    <line x1="663.5" x2="667.25" y1="417.5662" y2="415.4012"/>
    <line x1="666.0" x2="663.5" y1="414.6795" y2="416.1229"/>
    <line x1="663.5" x2="664.75" y1="414.6795" y2="413.9578"/>
    <line x1="663.5" x2="663.5" y1="413.2361" y2="413.2361"/>
    <line x1="663.5" x2="658.5" y1="424.7831" y2="427.6699"/>
    <line x1="658.5" x2="663.5" y1="429.1132" y2="426.2265"/>
    <line x1="663.5" x2="658.5" y1="427.6699" y2="430.5566"/>
    <line x1="658.5" x2="663.5" y1="432.0" y2="429.1132"/>
    <line x1="663.5" x2="658.5" y1="432.0" y2="434.8868"/>
    <polygon points="658.5,433.4434 663.5,430.5566"/>
    <line x1="658.5" x2="663.5" y1="436.3301" y2="433.4434"/>
    <line x1="663.5" x2="658.5" y1="434.8868" y2="437.7735"/>
    <line x1="658.5" x2="663.5" y1="439.2169" y2="436.3301"/>
    <line x1="668.5" x2="663.5" y1="439.2169" y2="442.1036"/>
    <line x1="663.5" x2="668.5" y1="443.547" y2="440.6603"/>
    <line x1="668.5" x2="663.5" y1="442.1036" y2="444.9904"/>
    <line x1="663.5" x2="668.5" y1="446.4338" y2="443.547"/>
    <line x1="668.5" x2="663.5" y1="444.9904" y2="447.8771"/>
    <line x1="638.5" x2="623.5" y1="537.3664" y2="546.0267"/>
    <line x1="623.5" x2="638.5" y1="547.4701" y2="538.8098"/>
    <line x1="638.5" x2="623.5" y1="540.2532" y2="548.9134"/>
    <line x1="623.5" x2="638.5" y1="550.3568" y2="541.6966"/>
    <polygon points="638.5,543.1399 633.5,546.0267"/>
    <line x1="638.5" x2="623.5" y1="544.5833" y2="553.2436"/>
    <line x1="623.5" x2="623.5" y1="551.8002" y2="551.8002"/>
    <line x1="623.5" x2="638.5" y1="554.6869" y2="546.0267"/>
    <line x1="638.5" x2="623.5" y1="547.4701" y2="556.1303"/>
    <line x1="623.5" x2="623.5" y1="557.5737" y2="557.5737"/>
    <polygon points="623.5,557.5737 638.5,548.9134"/>
    <line x1="623.5" x2="638.5" y1="559.0171" y2="550.3568"/>
    <line x1="638.5" x2="623.5" y1="551.8002" y2="560.4604"/>
    <line x1="623.5" x2="638.5" y1="561.9038" y2="553.2436"/>
    <line x1="638.5" x2="623.5" y1="554.6869" y2="563.3472"/>
    <line x1="628.5" x2="628.5" y1="560.4604" y2="560.4604"/>
    <line x1="628.5" x2="628.5" y1="554.6869" y2="554.6869"/>
    <line x1="633.5" x2="633.5" y1="551.8002" y2="551.8002"/>
    <polygon points="628.5,548.9134 633.5,546.0267 623.5,551.8002"/>
    <line x1="623.5" x2="618.5" y1="569.1207" y2="572.0074"/>
    <line x1="618.5" x2="623.5" y1="573.4508" y2="570.5641"/>
    <line x1="623.5" x2="618.5" y1="572.0074" y2="574.8942"/>
    <line x1="618.5" x2="623.5" y1="576.3376" y2="573.4508"/>
    <line x1="623.5" x2="618.5" y1="576.3376" y2="579.2243"/>
    <line x1="618.5" x2="623.5" y1="580.6677" y2="577.7809"/>
    <line x1="623.5" x2="618.5" y1="579.2243" y2="582.1111"/>
    <line x1="618.5" x2="623.5" y1="583.5544" y2="580.6677"/>
    <polygon points="618.5,577.7809 623.5,574.8942"/>
    <line x1="618.5" x2="618.5" y1="577.7809" y2="577.7809"/>
    <line x1="613.5" x2="608.5" y1="577.7809" y2="580.6677"/>
    <line x1="608.5" x2="613.5" y1="582.1111" y2="579.2243"/>
    <polygon points="613.5,580.6677 608.5,583.5544"/>
    <line x1="613.5" x2="608.5" y1="582.1111" y2="584.9978"/>
    <line x1="608.5" x2="613.5" y1="586.4412" y2="583.5544"/>
    <line x1="613.5" x2="608.5" y1="584.9978" y2="587.8846"/>
    <line x1="608.5" x2="613.5" y1="589.3279" y2="586.4412"/>
    <line x1="611.0" x2="608.5" y1="590.7713" y2="592.2147"/>
    <line x1="608.5" x2="609.75" y1="590.7713" y2="590.0496"/>
    <line x1="612.25" x2="608.5" y1="591.493" y2="593.6581"/>
    <line x1="608.5" x2="613.5" y1="595.1015" y2="592.2147"/>
    <line x1="608.5" x2="613.5" y1="579.2243" y2="576.3376"/>
    <line x1="613.5" x2="608.5" y1="573.4508" y2="576.3376"/>
    <line x1="608.5" x2="608.5" y1="577.7809" y2="577.7809"/>
    <polygon points="608.5,577.7809 613.5,574.8942"/>
    <line x1="608.5" x2="613.5" y1="574.8942" y2="572.0074"/>
    <line x1="613.5" x2="608.5" y1="570.5641" y2="573.4508"/>
    <line x1="608.5" x2="613.5" y1="572.0074" y2="569.1207"/>
    <line x1="628.5" x2="643.5" y1="595.1015" y2="586.4412"/>
    <line x1="643.5" x2="628.5" y1="587.8846" y2="596.5448"/>
    <line x1="628.5" x2="643.5" y1="597.9882" y2="589.3279"/>
    <line x1="643.5" x2="628.5" y1="590.7713" y2="599.4316"/>
    <line x1="628.5" x2="628.5" y1="600.875" y2="600.875"/>
    <line x1="628.5" x2="653.5" y1="602.3183" y2="587.8846"/>
    <line x1="653.5" x2="628.5" y1="589.3279" y2="603.7617"/>
    <line x1="628.5" x2="653.5" y1="605.2051" y2="590.7713"/>
    <polyline points="653.5,592.2147 638.5,600.875 643.5,597.9882"/>
    <line x1="643.5" x2="628.5" y1="599.4316" y2="608.0918"/>
    <line x1="628.5" x2="643.5" y1="609.5352" y2="600.875"/>
    <line x1="643.5" x2="628.5" y1="602.3183" y2="610.9786"/>
    <line x1="627.25" x2="613.5" y1="611.7003" y2="619.6388"/>
    <line x1="612.25" x2="608.5" y1="620.3605" y2="622.5256"/>
    <line x1="608.5" x2="611.0" y1="621.0822" y2="619.6388"/>
    <line x1="609.75" x2="608.5" y1="618.9171" y2="619.6388"/>
    <line x1="608.5" x2="608.5" y1="618.1955" y2="618.1955"/>
    <line x1="613.5" x2="626.0" y1="618.1955" y2="610.9786"/>
    <line x1="624.75" x2="613.5" y1="610.2569" y2="616.7521"/>
    <line x1="613.5" x2="623.5" y1="615.3087" y2="609.5352"/>
    <polyline points="623.5,615.3087 618.5,618.1955 643.5,603.7617"/>
    <polygon points="638.5,600.875 628.5,606.6485"/>
    <polygon points="638.5,595.1015 628.5,600.875 633.5,597.9882"/>
    <polyline points="643.5,592.2147 638.5,595.1015 653.5,586.4412"/>
    <line x1="648.5" x2="648.5" y1="595.1015" y2="595.1015"/>
    <line x1="633.5" x2="633.5" y1="609.5352" y2="609.5352"/>
    <line x1="623.5" x2="618.5" y1="616.7521" y2="619.6388"/>
    <line x1="618.5" x2="623.5" y1="621.0822" y2="618.1955"/>
    <line x1="623.5" x2="618.5" y1="619.6388" y2="622.5256"/>
    <line x1="618.5" x2="623.5" y1="623.969" y2="621.0822"/>
    <line x1="618.5" x2="608.5" y1="618.1955" y2="623.969"/>
    <line x1="618.5" x2="603.5" y1="641.2895" y2="649.9497"/>
    <line x1="603.5" x2="618.5" y1="651.3931" y2="642.7328"/>
    <line x1="618.5" x2="603.5" y1="644.1762" y2="652.8365"/>
    <line x1="603.5" x2="618.5" y1="654.2799" y2="645.6196"/>
    <polygon points="618.5,647.063 608.5,652.8365"/>
    <line x1="618.5" x2="604.75" y1="648.5064" y2="656.4449"/>
    <line x1="606.0" x2="618.5" y1="657.1666" y2="649.9497"/>
    <line x1="618.5" x2="607.25" y1="651.3931" y2="657.8883"/>
    <polyline points="608.5,658.61 613.5,655.7232 603.5,661.4967"/>
    <line x1="603.5" x2="618.5" y1="662.9401" y2="654.2799"/>
    <line x1="618.5" x2="603.5" y1="655.7232" y2="664.3835"/>
    <line x1="603.5" x2="618.5" y1="665.8269" y2="657.1666"/>
    <polyline points="618.5,658.61 603.5,667.2702 608.5,664.3835"/>
    <line x1="608.5" x2="603.5" y1="665.8269" y2="668.7136"/>
    <line x1="603.5" x2="608.5" y1="670.157" y2="667.2702"/>
    <line x1="608.5" x2="603.5" y1="668.7136" y2="671.6004"/>
    <line x1="603.5" x2="608.5" y1="673.0437" y2="670.157"/>
    <line x1="603.5" x2="588.5" y1="678.8172" y2="687.4775"/>
    <line x1="588.5" x2="603.5" y1="688.9209" y2="680.2606"/>
    <line x1="603.5" x2="588.5" y1="681.704" y2="690.3642"/>
    <line x1="588.5" x2="603.5" y1="691.8076" y2="683.1474"/>
    <line x1="603.5" x2="588.5" y1="684.5907" y2="693.251"/>
    <line x1="593.5" x2="593.5" y1="690.3642" y2="690.3642"/>
    <line x1="598.5" x2="598.5" y1="687.4775" y2="687.4775"/>
    <line x1="608.5" x2="618.5" y1="699.0245" y2="693.251"/>
    <polygon points="618.5,693.251 623.5,690.3642"/>
    <line x1="618.5" x2="623.5" y1="691.8076" y2="688.9209"/>
    <line x1="623.5" x2="618.5" y1="687.4775" y2="690.3642"/>
    <line x1="618.5" x2="623.5" y1="688.9209" y2="686.0341"/>
    <line x1="622.25" x2="633.5" y1="683.8691" y2="677.3739"/>
    <line x1="633.5" x2="621.0" y1="675.9305" y2="683.1474"/>
    <line x1="619.75" x2="633.5" y1="682.4257" y2="674.4871"/>
    <line x1="633.5" x2="618.5" y1="673.0437" y2="681.704"/>
    <line x1="618.5" x2="633.5" y1="687.4775" y2="678.8172"/>
    <line x1="628.5" x2="628.5" y1="681.704" y2="681.704"/>
    <line x1="623.5" x2="608.5" y1="691.8076" y2="700.4679"/>
    <line x1="608.5" x2="623.5" y1="701.9113" y2="693.251"/>
    <line x1="623.5" x2="608.5" y1="694.6944" y2="703.3546"/>
    <line x1="608.5" x2="623.5" y1="704.798" y2="696.1377"/>
    <line x1="618.5" x2="618.5" y1="699.0245" y2="699.0245"/>
    <line x1="613.5" x2="613.5" y1="701.9113" y2="701.9113"/>
    <line x1="613.5" x2="598.5" y1="713.4583" y2="722.1185"/>
    <line x1="598.5" x2="613.5" y1="723.5619" y2="714.9016"/>
    <line x1="613.5" x2="598.5" y1="716.345" y2="725.0053"/>
    <line x1="598.5" x2="613.5" y1="726.4486" y2="717.7884"/>
    <line x1="613.5" x2="598.5" y1="719.2318" y2="727.892"/>
    <polygon points="613.5,655.7232 618.5,652.8365"/>
    <polygon points="608.5,652.8365 603.5,655.7232"/>
    <line x1="613.5" x2="613.5" y1="649.9497" y2="649.9497"/>
    <line x1="688.5" x2="703.5" y1="727.892" y2="719.2318"/>
    <line x1="703.5" x2="688.5" y1="720.6751" y2="729.3354"/>
    <line x1="688.5" x2="703.5" y1="730.7788" y2="722.1185"/>
    <line x1="703.5" x2="688.5" y1="723.5619" y2="732.2221"/>
    <line x1="688.5" x2="688.5" y1="733.6655" y2="733.6655"/>
    <line x1="688.5" x2="703.5" y1="735.1089" y2="726.4486"/>
    <line x1="703.5" x2="688.5" y1="727.892" y2="736.5523"/>
    <line x1="688.5" x2="703.5" y1="737.9956" y2="729.3354"/>
    <polygon points="703.5,730.7788 698.5,733.6655"/>
    <line x1="703.5" x2="689.75" y1="732.2221" y2="740.1607"/>
    <line x1="691.0" x2="703.5" y1="740.8824" y2="733.6655"/>
    <line x1="703.5" x2="692.25" y1="735.1089" y2="741.6041"/>
    <line x1="693.5" x2="703.5" y1="742.3258" y2="736.5523"/>
    <polygon points="698.5,733.6655 688.5,739.439"/>
    <line x1="693.5" x2="693.5" y1="736.5523" y2="736.5523"/>
    <polygon points="693.5,730.7788 688.5,733.6655"/>
    <polygon points="693.5,730.7788 703.5,725.0053"/>
    <line x1="698.5" x2="693.5" y1="745.2125" y2="748.0993"/>
    <line x1="693.5" x2="698.5" y1="749.5426" y2="746.6559"/>
    <line x1="698.5" x2="693.5" y1="748.0993" y2="750.986"/>
    <line x1="693.5" x2="698.5" y1="752.4294" y2="749.5426"/>
    <polyline points="698.5,750.986 688.5,756.7595 693.5,753.8728"/>
    <line x1="692.25" x2="687.25" y1="753.1511" y2="756.0378"/>
    <line x1="688.5" x2="688.5" y1="756.7595" y2="756.7595"/>
    <line x1="689.75" x2="693.5" y1="757.4812" y2="755.3162"/>
    <line x1="693.5" x2="691.0" y1="756.7595" y2="758.2029"/>
    <line x1="692.25" x2="693.5" y1="758.9246" y2="758.2029"/>
    <line x1="693.5" x2="703.5" y1="759.6463" y2="753.8728"/>
    <line x1="703.5" x2="694.75" y1="755.3162" y2="760.368"/>
    <line x1="696.0" x2="703.5" y1="761.0897" y2="756.7595"/>
    <line x1="703.5" x2="697.25" y1="758.2029" y2="761.8113"/>
    <line x1="698.5" x2="693.5" y1="763.9764" y2="766.8632"/>
    <line x1="693.5" x2="703.5" y1="765.4198" y2="759.6463"/>
    <line x1="698.5" x2="693.5" y1="765.4198" y2="768.3065"/>
    <line x1="693.5" x2="698.5" y1="769.7499" y2="766.8632"/>
    <polyline points="698.5,768.3065 688.5,774.08 693.5,771.1933"/>
    <line x1="692.25" x2="687.25" y1="770.4716" y2="773.3583"/>
    <line x1="686.0" x2="691.0" y1="772.6367" y2="769.7499"/>
    <line x1="689.75" x2="684.75" y1="769.0282" y2="771.915"/>
    <line x1="683.5" x2="687.25" y1="769.7499" y2="767.5848"/>
    <polygon points="688.5,768.3065 683.5,771.1933"/>
    <line x1="686.0" x2="683.5" y1="766.8632" y2="768.3065"/>
    <line x1="683.5" x2="684.75" y1="766.8632" y2="766.1415"/>
    <line x1="683.5" x2="683.5" y1="765.4198" y2="765.4198"/>
    <line x1="688.5" x2="678.5" y1="774.08" y2="779.8535"/>
    <line x1="678.5" x2="693.5" y1="781.2969" y2="772.6367"/>
    <line x1="693.5" x2="678.5" y1="774.08" y2="782.7403"/>
    <line x1="678.5" x2="693.5" y1="784.1837" y2="775.5234"/>
    <polyline points="693.5,776.9668 683.5,782.7403 688.5,779.8535"/>
    <line x1="688.5" x2="678.5" y1="781.2969" y2="787.0704"/>
    <line x1="678.5" x2="688.5" y1="788.5138" y2="782.7403"/>
    <line x1="688.5" x2="678.5" y1="784.1837" y2="789.9572"/>
    <polyline points="678.5,791.4005 688.5,785.627 683.5,788.5138"/>
    <line x1="684.75" x2="688.5" y1="789.2355" y2="787.0704"/>
    <line x1="688.5" x2="686.0" y1="788.5138" y2="789.9572"/>
    <line x1="687.25" x2="688.5" y1="790.6789" y2="789.9572"/>
    <line x1="688.5" x2="683.5" y1="791.4005" y2="794.2873"/>
    <line x1="683.5" x2="688.5" y1="795.7307" y2="792.8439"/>
    <line x1="688.5" x2="683.5" y1="794.2873" y2="797.174"/>
    <line x1="683.5" x2="688.5" y1="798.6174" y2="795.7307"/>
    <line x1="688.5" x2="683.5" y1="797.174" y2="800.0608"/>
    <polyline points="678.5,797.174 668.5,802.9475 673.5,800.0608"/>
    <line x1="672.25" x2="668.5" y1="799.3391" y2="801.5042"/>
    <line x1="668.5" x2="671.0" y1="800.0608" y2="798.6174"/>
    <line x1="669.75" x2="668.5" y1="797.8957" y2="798.6174"/>
    <line x1="668.5" x2="658.5" y1="797.174" y2="802.9475"/>
    <line x1="658.5" x2="667.25" y1="801.5042" y2="796.4524"/>
    <line x1="666.0" x2="658.5" y1="795.7307" y2="800.0608"/>
    <line x1="658.5" x2="664.75" y1="798.6174" y2="795.009"/>
    <line x1="663.5" x2="658.5" y1="794.2873" y2="797.174"/>
    <line x1="668.5" x2="658.5" y1="802.9475" y2="808.7211"/>
    <line x1="658.5" x2="673.5" y1="810.1644" y2="801.5042"/>
    <line x1="673.5" x2="658.5" y1="802.9475" y2="811.6078"/>
    <line x1="658.5" x2="673.5" y1="813.0512" y2="804.3909"/>
    <line x1="673.5" x2="658.5" y1="805.8343" y2="814.4946"/>
    <line x1="673.5" x2="677.25" y1="798.6174" y2="796.4524"/>
    <line x1="676.0" x2="673.5" y1="795.7307" y2="797.174"/>
    <line x1="673.5" x2="674.75" y1="795.7307" y2="795.009"/>
    <line x1="673.5" x2="673.5" y1="794.2873" y2="794.2873"/>
    <line x1="678.5" x2="678.5" y1="785.627" y2="785.627"/>
    <polygon points="678.5,785.627 683.5,782.7403"/>
    <line x1="693.5" x2="708.5" y1="785.627" y2="776.9668"/>
    <line x1="708.5" x2="693.5" y1="775.5234" y2="784.1837"/>
    <line x1="693.5" x2="708.5" y1="782.7403" y2="774.08"/>
    <line x1="708.5" x2="693.5" y1="778.4102" y2="787.0704"/>
    <line x1="693.5" x2="703.5" y1="788.5138" y2="782.7403"/>
    <line x1="703.5" x2="708.5" y1="784.1837" y2="781.2969"/>
    <polygon points="708.5,779.8535 703.5,782.7403"/>
    <line x1="708.5" x2="703.5" y1="782.7403" y2="785.627"/>
    <line x1="703.5" x2="708.5" y1="787.0704" y2="784.1837"/>
    <line x1="708.5" x2="703.5" y1="785.627" y2="788.5138"/>
    <line x1="698.5" x2="698.5" y1="785.627" y2="785.627"/>
    <line x1="708.5" x2="713.5" y1="791.4005" y2="788.5138"/>
    <line x1="713.5" x2="708.5" y1="789.9572" y2="792.8439"/>
    <line x1="708.5" x2="713.5" y1="794.2873" y2="791.4005"/>
    <line x1="713.5" x2="708.5" y1="792.8439" y2="795.7307"/>
    <line x1="708.5" x2="713.5" y1="797.174" y2="794.2873"/>
    <line x1="693.5" x2="683.5" y1="800.0608" y2="805.8343"/>
    <line x1="684.75" x2="693.5" y1="806.556" y2="801.5042"/>
    <line x1="693.5" x2="686.0" y1="802.9475" y2="807.2777"/>
    <line x1="687.25" x2="693.5" y1="807.9994" y2="804.3909"/>
    <line x1="693.5" x2="688.5" y1="805.8343" y2="808.7211"/>
    <polyline points="678.5,756.7595 688.5,750.986 683.5,753.8728"/>
    <line x1="682.25" x2="678.5" y1="753.1511" y2="755.3162"/>
    <line x1="678.5" x2="681.0" y1="753.8728" y2="752.4294"/>
    <line x1="679.75" x2="678.5" y1="751.7077" y2="752.4294"/>
    <line x1="678.5" x2="678.5" y1="750.986" y2="750.986"/>
    <line x1="683.5" x2="686.0" y1="750.986" y2="749.5426"/>
    <line x1="684.75" x2="683.5" y1="748.821" y2="749.5426"/>
    <line x1="683.5" x2="683.5" y1="748.0993" y2="748.0993"/>
    <line x1="687.25" x2="683.5" y1="750.2643" y2="752.4294"/>
    <line x1="684.75" x2="689.75" y1="754.5945" y2="751.7077"/>
    <line x1="691.0" x2="686.0" y1="752.4294" y2="755.3162"/>
    <line x1="678.5" x2="673.5" y1="745.2125" y2="748.0993"/>
    <line x1="673.5" x2="678.5" y1="746.6559" y2="743.7691"/>
    <line x1="678.5" x2="673.5" y1="742.3258" y2="745.2125"/>
    <line x1="673.5" x2="678.5" y1="743.7691" y2="740.8824"/>
    <line x1="678.5" x2="673.5" y1="739.439" y2="742.3258"/>
    <line x1="733.5" x2="748.5" y1="673.0437" y2="664.3835"/>
    <line x1="748.5" x2="733.5" y1="662.9401" y2="671.6004"/>
    <line x1="733.5" x2="748.5" y1="670.157" y2="661.4967"/>
    <line x1="748.5" x2="733.5" y1="660.0534" y2="668.7136"/>
    <line x1="733.5" x2="748.5" y1="667.2702" y2="658.61"/>
    <line x1="743.5" x2="743.5" y1="667.2702" y2="667.2702"/>
    <line x1="738.5" x2="738.5" y1="670.157" y2="670.157"/>
    <line x1="723.5" x2="738.5" y1="655.7232" y2="647.063"/>
    <line x1="738.5" x2="723.5" y1="645.6196" y2="654.2799"/>
    <line x1="723.5" x2="738.5" y1="652.8365" y2="644.1762"/>
    <line x1="738.5" x2="723.5" y1="642.7328" y2="651.3931"/>
    <line x1="723.5" x2="732.25" y1="648.5064" y2="643.4545"/>
    <line x1="733.5" x2="748.5" y1="642.7328" y2="634.0726"/>
    <line x1="748.5" x2="733.5" y1="632.6292" y2="641.2895"/>
    <line x1="733.5" x2="748.5" y1="639.8461" y2="631.1858"/>
    <line x1="748.5" x2="733.5" y1="629.7425" y2="638.4027"/>
    <line x1="731.0" x2="723.5" y1="642.7328" y2="647.063"/>
    <line x1="723.5" x2="729.75" y1="645.6196" y2="642.0112"/>
    <line x1="727.25" x2="723.5" y1="640.5678" y2="642.7328"/>
    <polygon points="723.5,644.1762 728.5,641.2895"/>
    <line x1="723.5" x2="723.5" y1="644.1762" y2="644.1762"/>
    <line x1="723.5" x2="726.0" y1="641.2895" y2="639.8461"/>
    <line x1="724.75" x2="723.5" y1="639.1244" y2="639.8461"/>
    <line x1="723.5" x2="723.5" y1="638.4027" y2="638.4027"/>
    <line x1="733.5" x2="748.5" y1="632.6292" y2="623.969"/>
    <line x1="748.5" x2="733.5" y1="622.5256" y2="631.1858"/>
    <line x1="733.5" x2="748.5" y1="629.7425" y2="621.0822"/>
    <line x1="748.5" x2="733.5" y1="619.6388" y2="628.2991"/>
    <line x1="733.5" x2="748.5" y1="626.8557" y2="618.1955"/>
    <line x1="751.0" x2="763.5" y1="613.8653" y2="606.6485"/>
    <line x1="763.5" x2="749.75" y1="605.2051" y2="613.1436"/>
    <polyline points="748.5,612.422 753.5,609.5352 743.5,615.3087"/>
    <line x1="743.5" x2="763.5" y1="613.8653" y2="602.3183"/>
    <line x1="763.5" x2="743.5" y1="600.875" y2="612.422"/>
    <line x1="743.5" x2="763.5" y1="610.9786" y2="599.4316"/>
    <line x1="763.5" x2="748.5" y1="596.5448" y2="605.2051"/>
    <line x1="748.5" x2="763.5" y1="603.7617" y2="595.1015"/>
    <line x1="763.5" x2="748.5" y1="593.6581" y2="602.3183"/>
    <line x1="748.5" x2="763.5" y1="600.875" y2="592.2147"/>
    <line x1="753.5" x2="733.5" y1="592.2147" y2="603.7617"/>
    <line x1="733.5" x2="743.5" y1="605.2051" y2="599.4316"/>
    <line x1="743.5" x2="733.5" y1="600.875" y2="606.6485"/>
    <line x1="733.5" x2="743.5" y1="608.0918" y2="602.3183"/>
    <line x1="743.5" x2="733.5" y1="603.7617" y2="609.5352"/>
    <line x1="743.5" x2="748.5" y1="609.5352" y2="606.6485"/>
    <polygon points="748.5,606.6485 763.5,597.9882"/>
    <polygon points="753.5,609.5352 758.5,606.6485"/>
    <line x1="752.25" x2="763.5" y1="614.587" y2="608.0918"/>
    <line x1="763.5" x2="753.5" y1="609.5352" y2="615.3087"/>
    <polygon points="758.5,606.6485 763.5,603.7617"/>
    <line x1="758.5" x2="758.5" y1="600.875" y2="600.875"/>
    <line x1="753.5" x2="743.5" y1="590.7713" y2="596.5448"/>
    <line x1="743.5" x2="753.5" y1="595.1015" y2="589.3279"/>
    <line x1="753.5" x2="743.5" y1="587.8846" y2="593.6581"/>
    <line x1="743.5" x2="758.5" y1="592.2147" y2="583.5544"/>
    <line x1="758.5" x2="753.5" y1="582.1111" y2="584.9978"/>
    <line x1="753.5" x2="758.5" y1="583.5544" y2="580.6677"/>
    <line x1="758.5" x2="753.5" y1="579.2243" y2="582.1111"/>
    <line x1="753.5" x2="758.5" y1="580.6677" y2="577.7809"/>
    <line x1="753.5" x2="738.5" y1="569.1207" y2="577.7809"/>
    <line x1="738.5" x2="753.5" y1="576.3376" y2="567.6773"/>
    <line x1="753.5" x2="738.5" y1="566.2339" y2="574.8942"/>
    <line x1="738.5" x2="753.5" y1="573.4508" y2="564.7906"/>
    <polygon points="753.5,563.3472 738.5,572.0074"/>
    <line x1="753.5" x2="738.5" y1="561.9038" y2="570.5641"/>
    <line x1="738.5" x2="738.5" y1="572.0074" y2="572.0074"/>
    <line x1="738.5" x2="753.5" y1="569.1207" y2="560.4604"/>
    <line x1="753.5" x2="738.5" y1="559.0171" y2="567.6773"/>
    <polygon points="738.5,566.2339 753.5,557.5737"/>
    <line x1="738.5" x2="738.5" y1="566.2339" y2="566.2339"/>
    <line x1="738.5" x2="753.5" y1="564.7906" y2="556.1303"/>
    <line x1="753.5" x2="738.5" y1="554.6869" y2="563.3472"/>
    <line x1="738.5" x2="753.5" y1="561.9038" y2="553.2436"/>
    <line x1="753.5" x2="738.5" y1="551.8002" y2="560.4604"/>
    <line x1="748.5" x2="748.5" y1="560.4604" y2="560.4604"/>
    <line x1="743.5" x2="743.5" y1="569.1207" y2="569.1207"/>
    <line x1="743.5" x2="738.5" y1="580.6677" y2="583.5544"/>
    <line x1="738.5" x2="743.5" y1="584.9978" y2="582.1111"/>
    <line x1="743.5" x2="738.5" y1="583.5544" y2="586.4412"/>
    <line x1="738.5" x2="743.5" y1="587.8846" y2="584.9978"/>
    <line x1="743.5" x2="728.5" y1="586.4412" y2="595.1015"/>
    <line x1="728.5" x2="738.5" y1="596.5448" y2="590.7713"/>
    <line x1="738.5" x2="728.5" y1="592.2147" y2="597.9882"/>
    <line x1="728.5" x2="738.5" y1="599.4316" y2="593.6581"/>
    <line x1="738.5" x2="728.5" y1="595.1015" y2="600.875"/>
    <line x1="748.5" x2="748.5" y1="595.1015" y2="595.1015"/>
    <line x1="763.5" x2="758.5" y1="621.0822" y2="623.969"/>
    <line x1="758.5" x2="763.5" y1="625.4123" y2="622.5256"/>
    <line x1="763.5" x2="758.5" y1="623.969" y2="626.8557"/>
    <line x1="758.5" x2="763.5" y1="628.2991" y2="625.4123"/>
    <line x1="763.5" x2="758.5" y1="626.8557" y2="629.7425"/>
    <line x1="763.5" x2="758.5" y1="632.6292" y2="635.516"/>
    <line x1="758.5" x2="763.5" y1="636.9593" y2="634.0726"/>
    <line x1="763.5" x2="758.5" y1="635.516" y2="638.4027"/>
    <line x1="758.5" x2="763.5" y1="639.8461" y2="636.9593"/>
    <line x1="763.5" x2="758.5" y1="639.8461" y2="642.7328"/>
    <polygon points="758.5,641.2895 763.5,638.4027"/>
    <line x1="758.5" x2="763.5" y1="644.1762" y2="641.2895"/>
    <line x1="763.5" x2="758.5" y1="642.7328" y2="645.6196"/>
    <line x1="758.5" x2="763.5" y1="647.063" y2="644.1762"/>
    <line x1="768.5" x2="763.5" y1="647.063" y2="649.9497"/>
    <line x1="763.5" x2="768.5" y1="651.3931" y2="648.5064"/>
    <line x1="768.5" x2="763.5" y1="649.9497" y2="652.8365"/>
    <line x1="763.5" x2="768.5" y1="654.2799" y2="651.3931"/>
    <polygon points="768.5,652.8365 763.5,655.7232"/>
    <line x1="768.5" x2="763.5" y1="654.2799" y2="657.1666"/>
    <line x1="763.5" x2="768.5" y1="658.61" y2="655.7232"/>
    <line x1="768.5" x2="763.5" y1="657.1666" y2="660.0534"/>
    <polygon points="763.5,661.4967 768.5,658.61"/>
    <line x1="763.5" x2="768.5" y1="662.9401" y2="660.0534"/>
    <line x1="768.5" x2="763.5" y1="661.4967" y2="664.3835"/>
    <line x1="763.5" x2="768.5" y1="665.8269" y2="662.9401"/>
    <line x1="768.5" x2="763.5" y1="664.3835" y2="667.2702"/>
    <line x1="763.5" x2="763.5" y1="655.7232" y2="655.7232"/>
    <polyline points="748.5,635.516 733.5,644.1762 738.5,641.2895"/>
    <polygon points="733.5,644.1762 728.5,647.063 723.5,649.9497"/>
    <line x1="733.5" x2="733.5" y1="649.9497" y2="649.9497"/>
    <line x1="738.5" x2="738.5" y1="629.7425" y2="629.7425"/>
    <line x1="883.5" x2="888.5" y1="661.4967" y2="658.61"/>
    <line x1="888.5" x2="883.5" y1="660.0534" y2="662.9401"/>
    <line x1="883.5" x2="888.5" y1="664.3835" y2="661.4967"/>
    <line x1="888.5" x2="883.5" y1="662.9401" y2="665.8269"/>
    <line x1="883.5" x2="888.5" y1="667.2702" y2="664.3835"/>
    <line x1="893.5" x2="888.5" y1="684.5907" y2="687.4775"/>
    <line x1="888.5" x2="893.5" y1="688.9209" y2="686.0341"/>
    <line x1="893.5" x2="888.5" y1="687.4775" y2="690.3642"/>
    <line x1="888.5" x2="893.5" y1="691.8076" y2="688.9209"/>
    <line x1="893.5" x2="888.5" y1="690.3642" y2="693.251"/>
    <line x1="928.5" x2="933.5" y1="664.3835" y2="661.4967"/>
    <line x1="933.5" x2="928.5" y1="660.0534" y2="662.9401"/>
    <line x1="928.5" x2="933.5" y1="661.4967" y2="658.61"/>
    <line x1="933.5" x2="928.5" y1="657.1666" y2="660.0534"/>
    <line x1="928.5" x2="938.5" y1="658.61" y2="652.8365"/>
    <line x1="938.5" x2="933.5" y1="651.3931" y2="654.2799"/>
    <line x1="933.5" x2="938.5" y1="652.8365" y2="649.9497"/>
    <line x1="938.5" x2="933.5" y1="648.5064" y2="651.3931"/>
    <line x1="933.5" x2="943.5" y1="649.9497" y2="644.1762"/>
    <line x1="942.25" x2="938.5" y1="643.4545" y2="645.6196"/>
    <line x1="938.5" x2="941.0" y1="644.1762" y2="642.7328"/>
    <line x1="939.75" x2="938.5" y1="642.0112" y2="642.7328"/>
    <line x1="938.5" x2="938.5" y1="641.2895" y2="641.2895"/>
    <line x1="933.5" x2="938.5" y1="638.4027" y2="635.516"/>
    <line x1="938.5" x2="933.5" y1="634.0726" y2="636.9593"/>
    <line x1="933.5" x2="938.5" y1="635.516" y2="632.6292"/>
    <line x1="938.5" x2="933.5" y1="631.1858" y2="634.0726"/>
    <line x1="933.5" x2="938.5" y1="632.6292" y2="629.7425"/>
    <line x1="937.25" x2="938.5" y1="629.0208" y2="628.2991"/>
    <line x1="938.5" x2="936.0" y1="626.8557" y2="628.2991"/>
    <line x1="934.75" x2="938.5" y1="627.5774" y2="625.4123"/>
    <line x1="938.5" x2="953.5" y1="622.5256" y2="613.8653"/>
    <line x1="953.5" x2="923.5" y1="615.3087" y2="632.6292"/>
    <line x1="923.5" x2="928.5" y1="634.0726" y2="631.1858"/>
    <line x1="928.5" x2="923.5" y1="632.6292" y2="635.516"/>
    <line x1="923.5" x2="928.5" y1="636.9593" y2="634.0726"/>
    <line x1="928.5" x2="923.5" y1="635.516" y2="638.4027"/>
    <line x1="918.5" x2="923.5" y1="629.7425" y2="626.8557"/>
    <line x1="923.5" x2="918.5" y1="625.4123" y2="628.2991"/>
    <line x1="918.5" x2="923.5" y1="626.8557" y2="623.969"/>
    <line x1="923.5" x2="918.5" y1="622.5256" y2="625.4123"/>
    <line x1="918.5" x2="933.5" y1="623.969" y2="615.3087"/>
    <line x1="933.5" x2="929.75" y1="616.7521" y2="618.9171"/>
    <line x1="931.0" x2="933.5" y1="619.6388" y2="618.1955"/>
    <line x1="933.5" x2="932.25" y1="619.6388" y2="620.3605"/>
    <line x1="933.5" x2="928.5" y1="621.0822" y2="623.969"/>
    <line x1="928.5" x2="933.5" y1="625.4123" y2="622.5256"/>
    <line x1="933.5" x2="928.5" y1="623.969" y2="626.8557"/>
    <line x1="928.5" x2="933.5" y1="628.2991" y2="625.4123"/>
    <line x1="938.5" x2="953.5" y1="621.0822" y2="612.422"/>
    <line x1="953.5" x2="938.5" y1="610.9786" y2="619.6388"/>
    <line x1="938.5" x2="953.5" y1="618.1955" y2="609.5352"/>
    <line x1="948.5" x2="948.5" y1="606.6485" y2="606.6485"/>
    <line x1="943.5" x2="943.5" y1="609.5352" y2="609.5352"/>
    <line x1="938.5" x2="953.5" y1="609.5352" y2="600.875"/>
    <line x1="953.5" x2="938.5" y1="599.4316" y2="608.0918"/>
    <line x1="938.5" x2="938.5" y1="606.6485" y2="606.6485"/>
    <line x1="938.5" x2="953.5" y1="605.2051" y2="596.5448"/>
    <polygon points="953.5,597.9882 938.5,606.6485"/>
    <line x1="953.5" x2="938.5" y1="595.1015" y2="603.7617"/>
    <line x1="938.5" x2="953.5" y1="602.3183" y2="593.6581"/>
    <line x1="953.5" x2="938.5" y1="590.7713" y2="599.4316"/>
    <line x1="938.5" x2="938.5" y1="600.875" y2="600.875"/>
    <polygon points="938.5,600.875 953.5,592.2147"/>
    <line x1="938.5" x2="953.5" y1="597.9882" y2="589.3279"/>
    <line x1="953.5" x2="938.5" y1="587.8846" y2="596.5448"/>
    <line x1="938.5" x2="953.5" y1="595.1015" y2="586.4412"/>
    <line x1="958.5" x2="973.5" y1="589.3279" y2="580.6677"/>
    <line x1="973.5" x2="958.5" y1="582.1111" y2="590.7713"/>
    <line x1="958.5" x2="973.5" y1="592.2147" y2="583.5544"/>
    <line x1="973.5" x2="958.5" y1="584.9978" y2="593.6581"/>
    <line x1="958.5" x2="973.5" y1="596.5448" y2="587.8846"/>
    <polygon points="973.5,586.4412 958.5,595.1015"/>
    <line x1="973.5" x2="958.5" y1="589.3279" y2="597.9882"/>
    <line x1="958.5" x2="973.5" y1="599.4316" y2="590.7713"/>
    <line x1="973.5" x2="958.5" y1="593.6581" y2="602.3183"/>
    <line x1="958.5" x2="973.5" y1="603.7617" y2="595.1015"/>
    <line x1="973.5" x2="958.5" y1="596.5448" y2="605.2051"/>
    <line x1="958.5" x2="973.5" y1="606.6485" y2="597.9882"/>
    <line x1="968.5" x2="968.5" y1="600.875" y2="600.875"/>
    <polygon points="963.5,597.9882 968.5,595.1015"/>
    <polygon points="963.5,597.9882 958.5,600.875"/>
    <polygon points="968.5,595.1015 973.5,592.2147"/>
    <line x1="963.5" x2="963.5" y1="592.2147" y2="592.2147"/>
    <line x1="953.5" x2="938.5" y1="602.3183" y2="610.9786"/>
    <line x1="938.5" x2="953.5" y1="612.422" y2="603.7617"/>
    <line x1="948.5" x2="948.5" y1="600.875" y2="600.875"/>
    <line x1="943.5" x2="943.5" y1="603.7617" y2="603.7617"/>
    <line x1="943.5" x2="943.5" y1="597.9882" y2="597.9882"/>
    <line x1="948.5" x2="948.5" y1="595.1015" y2="595.1015"/>
    <line x1="928.5" x2="923.5" y1="595.1015" y2="597.9882"/>
    <line x1="923.5" x2="928.5" y1="599.4316" y2="596.5448"/>
    <line x1="928.5" x2="923.5" y1="597.9882" y2="600.875"/>
    <line x1="923.5" x2="928.5" y1="602.3183" y2="599.4316"/>
    <line x1="928.5" x2="923.5" y1="600.875" y2="603.7617"/>
    <line x1="918.5" x2="913.5" y1="603.7617" y2="606.6485"/>
    <line x1="913.5" x2="918.5" y1="608.0918" y2="605.2051"/>
    <line x1="918.5" x2="908.5" y1="606.6485" y2="612.422"/>
    <line x1="908.5" x2="912.25" y1="610.9786" y2="608.8135"/>
    <line x1="911.0" x2="908.5" y1="608.0918" y2="609.5352"/>
    <line x1="908.5" x2="909.75" y1="608.0918" y2="607.3701"/>
    <line x1="908.5" x2="908.5" y1="606.6485" y2="606.6485"/>
    <line x1="913.5" x2="918.5" y1="605.2051" y2="602.3183"/>
    <line x1="918.5" x2="913.5" y1="600.875" y2="603.7617"/>
    <line x1="908.5" x2="903.5" y1="600.875" y2="603.7617"/>
    <line x1="903.5" x2="908.5" y1="602.3183" y2="599.4316"/>
    <line x1="908.5" x2="903.5" y1="597.9882" y2="600.875"/>
    <line x1="903.5" x2="908.5" y1="599.4316" y2="596.5448"/>
    <line x1="908.5" x2="903.5" y1="593.6581" y2="596.5448"/>
    <polygon points="903.5,597.9882 908.5,595.1015"/>
    <line x1="903.5" x2="908.5" y1="595.1015" y2="592.2147"/>
    <line x1="908.5" x2="903.5" y1="590.7713" y2="593.6581"/>
    <line x1="903.5" x2="908.5" y1="592.2147" y2="589.3279"/>
    <line x1="913.5" x2="918.5" y1="586.4412" y2="583.5544"/>
    <line x1="918.5" x2="913.5" y1="582.1111" y2="584.9978"/>
    <line x1="913.5" x2="918.5" y1="583.5544" y2="580.6677"/>
    <line x1="918.5" x2="913.5" y1="579.2243" y2="582.1111"/>
    <line x1="913.5" x2="923.5" y1="580.6677" y2="574.8942"/>
    <line x1="922.25" x2="918.5" y1="574.1725" y2="576.3376"/>
    <line x1="918.5" x2="921.0" y1="574.8942" y2="573.4508"/>
    <line x1="919.75" x2="918.5" y1="572.7291" y2="573.4508"/>
    <line x1="918.5" x2="918.5" y1="572.0074" y2="572.0074"/>
    <line x1="918.5" x2="923.5" y1="566.2339" y2="563.3472"/>
    <line x1="923.5" x2="918.5" y1="561.9038" y2="564.7906"/>
    <line x1="918.5" x2="923.5" y1="563.3472" y2="560.4604"/>
    <line x1="923.5" x2="918.5" y1="559.0171" y2="561.9038"/>
    <line x1="918.5" x2="923.5" y1="560.4604" y2="557.5737"/>
    <line x1="928.5" x2="933.5" y1="557.5737" y2="554.6869"/>
    <line x1="933.5" x2="928.5" y1="556.1303" y2="559.0171"/>
    <line x1="928.5" x2="933.5" y1="560.4604" y2="557.5737"/>
    <line x1="933.5" x2="928.5" y1="553.2436" y2="556.1303"/>
    <line x1="928.5" x2="933.5" y1="554.6869" y2="551.8002"/>
    <line x1="928.5" x2="933.5" y1="548.9134" y2="546.0267"/>
    <line x1="933.5" x2="928.5" y1="544.5833" y2="547.4701"/>
    <line x1="928.5" x2="933.5" y1="546.0267" y2="543.1399"/>
    <line x1="933.5" x2="928.5" y1="541.6966" y2="544.5833"/>
    <line x1="928.5" x2="933.5" y1="543.1399" y2="540.2532"/>
    <line x1="932.25" x2="933.5" y1="539.5315" y2="538.8098"/>
    <line x1="933.5" x2="931.0" y1="537.3664" y2="538.8098"/>
    <line x1="929.75" x2="933.5" y1="538.0881" y2="535.923"/>
    <line x1="933.5" x2="928.5" y1="534.4797" y2="537.3664"/>
    <line x1="923.5" x2="938.5" y1="534.4797" y2="525.8194"/>
    <line x1="938.5" x2="923.5" y1="524.376" y2="533.0363"/>
    <line x1="923.5" x2="938.5" y1="531.5929" y2="522.9327"/>
    <line x1="938.5" x2="923.5" y1="521.4893" y2="530.1495"/>
    <line x1="923.5" x2="938.5" y1="528.7062" y2="520.0459"/>
    <line x1="933.5" x2="933.5" y1="528.7062" y2="528.7062"/>
    <line x1="948.5" x2="943.5" y1="548.9134" y2="551.8002"/>
    <line x1="943.5" x2="948.5" y1="553.2436" y2="550.3568"/>
    <line x1="948.5" x2="943.5" y1="551.8002" y2="554.6869"/>
    <line x1="943.5" x2="948.5" y1="556.1303" y2="553.2436"/>
    <polyline points="948.5,554.6869 943.5,557.5737 953.5,551.8002"/>
    <line x1="953.5" x2="938.5" y1="553.2436" y2="561.9038"/>
    <line x1="938.5" x2="943.5" y1="560.4604" y2="557.5737"/>
    <polyline points="948.5,560.4604 943.5,563.3472 953.5,557.5737"/>
    <line x1="953.5" x2="938.5" y1="556.1303" y2="564.7906"/>
    <line x1="938.5" x2="953.5" y1="563.3472" y2="554.6869"/>
    <line x1="948.5" x2="933.5" y1="561.9038" y2="570.5641"/>
    <line x1="933.5" x2="948.5" y1="572.0074" y2="563.3472"/>
    <line x1="948.5" x2="933.5" y1="564.7906" y2="573.4508"/>
    <line x1="933.5" x2="948.5" y1="576.3376" y2="567.6773"/>
    <polygon points="948.5,566.2339 943.5,569.1207"/>
    <line x1="948.5" x2="933.5" y1="569.1207" y2="577.7809"/>
    <line x1="933.5" x2="948.5" y1="579.2243" y2="570.5641"/>
    <line x1="948.5" x2="933.5" y1="572.0074" y2="580.6677"/>
    <line x1="928.5" x2="918.5" y1="583.5544" y2="589.3279"/>
    <line x1="918.5" x2="928.5" y1="590.7713" y2="584.9978"/>
    <line x1="928.5" x2="918.5" y1="586.4412" y2="592.2147"/>
    <line x1="918.5" x2="928.5" y1="593.6581" y2="587.8846"/>
    <line x1="928.5" x2="918.5" y1="589.3279" y2="595.1015"/>
    <line x1="928.5" x2="923.5" y1="612.422" y2="615.3087"/>
    <line x1="923.5" x2="928.5" y1="616.7521" y2="613.8653"/>
    <line x1="928.5" x2="923.5" y1="615.3087" y2="618.1955"/>
    <line x1="923.5" x2="928.5" y1="619.6388" y2="616.7521"/>
    <line x1="953.5" x2="963.5" y1="632.6292" y2="626.8557"/>
    <line x1="963.5" x2="958.5" y1="625.4123" y2="628.2991"/>
    <line x1="958.5" x2="963.5" y1="626.8557" y2="623.969"/>
    <line x1="963.5" x2="958.5" y1="622.5256" y2="625.4123"/>
    <line x1="958.5" x2="968.5" y1="623.969" y2="618.1955"/>
    <line x1="968.5" x2="963.5" y1="616.7521" y2="619.6388"/>
    <line x1="963.5" x2="968.5" y1="618.1955" y2="615.3087"/>
    <line x1="968.5" x2="963.5" y1="613.8653" y2="616.7521"/>
    <line x1="963.5" x2="973.5" y1="615.3087" y2="609.5352"/>
    <line x1="973.5" x2="968.5" y1="608.0918" y2="610.9786"/>
    <line x1="968.5" x2="973.5" y1="609.5352" y2="606.6485"/>
    <line x1="973.5" x2="968.5" y1="605.2051" y2="608.0918"/>
    <line x1="968.5" x2="973.5" y1="606.6485" y2="603.7617"/>
    <line x1="983.5" x2="1003.5" y1="580.6677" y2="569.1207"/>
    <line x1="1003.5" x2="983.5" y1="567.6773" y2="579.2243"/>
    <line x1="983.5" x2="1003.5" y1="577.7809" y2="566.2339"/>
    <line x1="1003.5" x2="983.5" y1="564.7906" y2="576.3376"/>
    <line x1="983.5" x2="1003.5" y1="573.4508" y2="561.9038"/>
    <polygon points="1003.5,563.3472 993.5,569.1207"/>
    <line x1="1003.5" x2="983.5" y1="560.4604" y2="572.0074"/>
    <line x1="983.5" x2="1003.5" y1="570.5641" y2="559.0171"/>
    <polygon points="1003.5,557.5737 998.5,560.4604"/>
    <line x1="1003.5" x2="983.5" y1="556.1303" y2="567.6773"/>
    <line x1="983.5" x2="1003.5" y1="566.2339" y2="554.6869"/>
    <line x1="1003.5" x2="983.5" y1="553.2436" y2="564.7906"/>
    <line x1="983.5" x2="1003.5" y1="563.3472" y2="551.8002"/>
    <line x1="1008.5" x2="1013.5" y1="554.6869" y2="551.8002"/>
    <line x1="1013.5" x2="1008.5" y1="553.2436" y2="556.1303"/>
    <line x1="1008.5" x2="1013.5" y1="557.5737" y2="554.6869"/>
    <line x1="1013.5" x2="1008.5" y1="556.1303" y2="559.0171"/>
    <line x1="1008.5" x2="1008.5" y1="560.4604" y2="560.4604"/>
    <line x1="1008.5" x2="1013.5" y1="561.9038" y2="559.0171"/>
    <polygon points="1013.5,557.5737 1008.5,560.4604"/>
    <line x1="1013.5" x2="1008.5" y1="560.4604" y2="563.3472"/>
    <line x1="1008.5" x2="1013.5" y1="564.7906" y2="561.9038"/>
    <polygon points="1013.5,563.3472 1008.5,566.2339"/>
    <line x1="1013.5" x2="1008.5" y1="564.7906" y2="567.6773"/>
    <line x1="1008.5" x2="1013.5" y1="569.1207" y2="566.2339"/>
    <line x1="1013.5" x2="1008.5" y1="567.6773" y2="570.5641"/>
    <line x1="1008.5" x2="1013.5" y1="572.0074" y2="569.1207"/>
    <line x1="1008.5" x2="1008.5" y1="566.2339" y2="566.2339"/>
    <polygon points="993.5,563.3472 983.5,569.1207 998.5,560.4604"/>
    <line x1="988.5" x2="988.5" y1="566.2339" y2="566.2339"/>
    <polygon points="988.5,572.0074 983.5,574.8942 993.5,569.1207"/>
    <line x1="993.5" x2="993.5" y1="574.8942" y2="574.8942"/>
    <line x1="988.5" x2="988.5" y1="577.7809" y2="577.7809"/>
    <line x1="983.5" x2="1013.5" y1="546.0267" y2="528.7062"/>
    <line x1="1013.5" x2="998.5" y1="527.2628" y2="535.923"/>
    <line x1="997.25" x2="983.5" y1="536.6447" y2="544.5833"/>
    <line x1="983.5" x2="996.0" y1="543.1399" y2="535.923"/>
    <line x1="994.75" x2="983.5" y1="535.2014" y2="541.6966"/>
    <line x1="983.5" x2="993.5" y1="540.2532" y2="534.4797"/>
    <line x1="998.5" x2="1013.5" y1="534.4797" y2="525.8194"/>
    <line x1="1013.5" x2="998.5" y1="524.376" y2="533.0363"/>
    <line x1="998.5" x2="1013.5" y1="531.5929" y2="522.9327"/>
    <line x1="1013.5" x2="998.5" y1="517.1592" y2="525.8194"/>
    <line x1="998.5" x2="1013.5" y1="524.376" y2="515.7158"/>
    <line x1="1013.5" x2="998.5" y1="514.2724" y2="522.9327"/>
    <line x1="998.5" x2="1013.5" y1="521.4893" y2="512.829"/>
    <line x1="1013.5" x2="998.5" y1="511.3857" y2="520.0459"/>
    <line x1="1003.5" x2="1003.5" y1="522.9327" y2="522.9327"/>
    <line x1="1008.5" x2="1003.5" y1="531.5929" y2="534.4797"/>
    <line x1="1003.5" x2="1008.5" y1="535.923" y2="533.0363"/>
    <line x1="1008.5" x2="1003.5" y1="534.4797" y2="537.3664"/>
    <line x1="1003.5" x2="1008.5" y1="538.8098" y2="535.923"/>
    <line x1="1008.5" x2="1003.5" y1="538.8098" y2="541.6966"/>
    <polygon points="1003.5,540.2532 1008.5,537.3664"/>
    <line x1="1003.5" x2="1008.5" y1="543.1399" y2="540.2532"/>
    <line x1="1008.5" x2="1003.5" y1="541.6966" y2="544.5833"/>
    <line x1="1003.5" x2="1008.5" y1="546.0267" y2="543.1399"/>
    <line x1="993.5" x2="993.5" y1="540.2532" y2="540.2532"/>
    <line x1="988.5" x2="993.5" y1="514.2724" y2="511.3857"/>
    <line x1="993.5" x2="988.5" y1="509.9423" y2="512.829"/>
    <line x1="988.5" x2="993.5" y1="511.3857" y2="508.4989"/>
    <line x1="993.5" x2="988.5" y1="507.0555" y2="509.9423"/>
    <line x1="988.5" x2="993.5" y1="508.4989" y2="505.6122"/>
    <line x1="998.5" x2="1003.5" y1="502.7254" y2="499.8387"/>
    <line x1="1003.5" x2="998.5" y1="498.3953" y2="501.282"/>
    <line x1="998.5" x2="1003.5" y1="499.8387" y2="496.9519"/>
    <line x1="1003.5" x2="998.5" y1="495.5085" y2="498.3953"/>
    <line x1="998.5" x2="1003.5" y1="496.9519" y2="494.0652"/>
    <line x1="1008.5" x2="1013.5" y1="496.9519" y2="494.0652"/>
    <line x1="1013.5" x2="1008.5" y1="495.5085" y2="498.3953"/>
    <line x1="1008.5" x2="1013.5" y1="499.8387" y2="496.9519"/>
    <line x1="1013.5" x2="1008.5" y1="498.3953" y2="501.282"/>
    <line x1="1008.5" x2="1003.5" y1="502.7254" y2="505.6122"/>
    <line x1="1004.75" x2="1013.5" y1="506.3338" y2="501.282"/>
    <line x1="1013.5" x2="1006.0" y1="502.7254" y2="507.0555"/>
    <line x1="1007.25" x2="1013.5" y1="507.7772" y2="504.1688"/>
    <line x1="1013.5" x2="1008.5" y1="505.6122" y2="508.4989"/>
    <polygon points="1008.5,502.7254 1013.5,499.8387"/>
    <line x1="1003.5" x2="1008.5" y1="476.7446" y2="473.8579"/>
    <line x1="1008.5" x2="1003.5" y1="472.4145" y2="475.3013"/>
    <line x1="1003.5" x2="1008.5" y1="473.8579" y2="470.9711"/>
    <line x1="1008.5" x2="1003.5" y1="469.5278" y2="472.4145"/>
    <polygon points="1003.5,470.9711 1008.5,468.0844"/>
    <line x1="1003.5" x2="1008.5" y1="469.5278" y2="466.641"/>
    <line x1="1008.5" x2="1003.5" y1="465.1976" y2="468.0844"/>
    <line x1="1003.5" x2="1008.5" y1="466.641" y2="463.7543"/>
    <line x1="1008.5" x2="1003.5" y1="460.8675" y2="463.7543"/>
    <line x1="1003.5" x2="1008.5" y1="462.3109" y2="459.4241"/>
    <line x1="1008.5" x2="1003.5" y1="457.9808" y2="460.8675"/>
    <line x1="1003.5" x2="1008.5" y1="459.4241" y2="456.5374"/>
    <polygon points="1003.5,465.1976 1008.5,462.3109"/>
    <line x1="1003.5" x2="1023.5" y1="442.1036" y2="430.5566"/>
    <line x1="1023.5" x2="1003.5" y1="429.1132" y2="440.6603"/>
    <line x1="1003.5" x2="1023.5" y1="439.2169" y2="427.6699"/>
    <line x1="1023.5" x2="1003.5" y1="426.2265" y2="437.7735"/>
    <line x1="1003.5" x2="1013.5" y1="436.3301" y2="430.5566"/>
    <line x1="1013.5" x2="1018.5" y1="429.1132" y2="426.2265"/>
    <polyline points="1018.5,427.6699 1013.5,430.5566 1023.5,424.7831"/>
    <line x1="1022.25" x2="1023.5" y1="424.0614" y2="423.3397"/>
    <line x1="1023.5" x2="1021.0" y1="421.8964" y2="423.3397"/>
    <line x1="1019.75" x2="1023.5" y1="422.6181" y2="420.453"/>
    <line x1="1023.5" x2="1013.5" y1="419.0096" y2="424.7831"/>
    <line x1="1013.5" x2="1018.5" y1="426.2265" y2="423.3397"/>
    <line x1="1018.5" x2="1013.5" y1="424.7831" y2="427.6699"/>
    <line x1="1017.25" x2="1018.5" y1="421.1747" y2="420.453"/>
    <line x1="1018.5" x2="1016.0" y1="419.0096" y2="420.453"/>
    <line x1="1014.75" x2="1018.5" y1="419.7313" y2="417.5662"/>
    <line x1="1018.5" x2="1013.5" y1="416.1229" y2="419.0096"/>
    <line x1="1018.5" x2="1018.5" y1="433.4434" y2="433.4434"/>
    <line x1="1013.5" x2="1013.5" y1="436.3301" y2="436.3301"/>
    <line x1="1023.5" x2="1028.5" y1="436.3301" y2="433.4434"/>
    <line x1="1028.5" x2="1023.5" y1="434.8868" y2="437.7735"/>
    <line x1="1023.5" x2="1028.5" y1="439.2169" y2="436.3301"/>
    <line x1="1028.5" x2="1023.5" y1="437.7735" y2="440.6603"/>
    <line x1="1023.5" x2="1028.5" y1="442.1036" y2="439.2169"/>
    <line x1="1008.5" x2="1023.5" y1="398.8024" y2="390.1421"/>
    <line x1="1023.5" x2="1008.5" y1="388.6987" y2="397.359"/>
    <line x1="1008.5" x2="1023.5" y1="395.9156" y2="387.2554"/>
    <line x1="1023.5" x2="1008.5" y1="385.812" y2="394.4722"/>
    <line x1="1008.5" x2="1023.5" y1="393.0289" y2="384.3686"/>
    <line x1="1022.25" x2="1023.5" y1="383.6469" y2="382.9252"/>
    <line x1="1023.5" x2="1021.0" y1="381.4819" y2="382.9252"/>
    <line x1="1019.75" x2="1023.5" y1="382.2035" y2="380.0385"/>
    <line x1="1023.5" x2="1028.5" y1="377.1517" y2="374.265"/>
    <line x1="1028.5" x2="1023.5" y1="372.8216" y2="375.7083"/>
    <line x1="1023.5" x2="1028.5" y1="374.265" y2="371.3782"/>
    <line x1="1028.5" x2="1023.5" y1="369.9348" y2="372.8216"/>
    <line x1="1018.5" x2="1013.5" y1="372.8216" y2="375.7083"/>
    <line x1="1013.5" x2="1018.5" y1="377.1517" y2="374.265"/>
    <line x1="1018.5" x2="1013.5" y1="375.7083" y2="378.5951"/>
    <line x1="1013.5" x2="1018.5" y1="374.265" y2="371.3782"/>
    <line x1="1018.5" x2="1013.5" y1="369.9348" y2="372.8216"/>
    <line x1="1008.5" x2="1003.5" y1="375.7083" y2="378.5951"/>
    <line x1="1003.5" x2="1007.25" y1="377.1517" y2="374.9867"/>
    <line x1="1006.0" x2="1003.5" y1="374.265" y2="375.7083"/>
    <line x1="1003.5" x2="1004.75" y1="374.265" y2="373.5433"/>
    <line x1="1003.5" x2="1003.5" y1="372.8216" y2="372.8216"/>
    <line x1="1018.5" x2="1028.5" y1="381.4819" y2="375.7083"/>
    <line x1="1018.5" x2="1018.5" y1="393.0289" y2="393.0289"/>
    <line x1="1013.5" x2="1013.5" y1="395.9156" y2="395.9156"/>
    <line x1="1013.5" x2="1018.5" y1="355.5011" y2="352.6143"/>
    <line x1="1018.5" x2="1013.5" y1="351.171" y2="354.0577"/>
    <line x1="1013.5" x2="1018.5" y1="352.6143" y2="349.7276"/>
    <line x1="1018.5" x2="1013.5" y1="348.2842" y2="351.171"/>
    <line x1="1013.5" x2="1018.5" y1="349.7276" y2="346.8408"/>
    <line x1="1013.5" x2="1008.5" y1="343.9541" y2="346.8408"/>
    <line x1="1008.5" x2="1013.5" y1="345.3975" y2="342.5107"/>
    <line x1="1013.5" x2="1008.5" y1="341.0673" y2="343.9541"/>
    <line x1="1008.5" x2="1013.5" y1="342.5107" y2="339.624"/>
    <line x1="1013.5" x2="1008.5" y1="338.1806" y2="341.0673"/>
    <line x1="1003.5" x2="1008.5" y1="338.1806" y2="335.2938"/>
    <line x1="1008.5" x2="1003.5" y1="333.8505" y2="336.7372"/>
    <line x1="1003.5" x2="1008.5" y1="335.2938" y2="332.4071"/>
    <line x1="1008.5" x2="1003.5" y1="330.9637" y2="333.8505"/>
    <line x1="1003.5" x2="1008.5" y1="332.4071" y2="329.5203"/>
    <line x1="798.5" x2="783.5" y1="346.8408" y2="355.5011"/>
    <line x1="783.5" x2="798.5" y1="356.9445" y2="348.2842"/>
    <line x1="798.5" x2="783.5" y1="349.7276" y2="358.3878"/>
    <line x1="783.5" x2="798.5" y1="359.8312" y2="351.171"/>
    <line x1="798.5" x2="783.5" y1="352.6143" y2="361.2746"/>
    <line x1="793.5" x2="793.5" y1="355.5011" y2="355.5011"/>
    <line x1="783.5" x2="778.5" y1="378.5951" y2="381.4819"/>
    <line x1="778.5" x2="783.5" y1="382.9252" y2="380.0385"/>
    <line x1="783.5" x2="778.5" y1="381.4819" y2="384.3686"/>
    <line x1="778.5" x2="783.5" y1="385.812" y2="382.9252"/>
    <line x1="783.5" x2="768.5" y1="385.812" y2="394.4722"/>
    <line x1="768.5" x2="783.5" y1="395.9156" y2="387.2554"/>
    <line x1="783.5" x2="768.5" y1="388.6987" y2="397.359"/>
    <line x1="768.5" x2="783.5" y1="398.8024" y2="390.1421"/>
    <polygon points="778.5,387.2554 783.5,384.3686"/>
    <line x1="778.5" x2="768.5" y1="387.2554" y2="393.0289"/>
    <line x1="778.5" x2="778.5" y1="393.0289" y2="393.0289"/>
    <line x1="773.5" x2="788.5" y1="332.4071" y2="323.7468"/>
    <line x1="788.5" x2="773.5" y1="322.3034" y2="330.9637"/>
    <line x1="773.5" x2="788.5" y1="329.5203" y2="320.8601"/>
    <line x1="788.5" x2="773.5" y1="319.4167" y2="328.077"/>
    <line x1="773.5" x2="788.5" y1="326.6336" y2="317.9733"/>
    <line x1="783.5" x2="783.5" y1="326.6336" y2="326.6336"/>
    <line x1="778.5" x2="778.5" y1="329.5203" y2="329.5203"/>
    <line x1="538.5" x2="523.5" y1="433.4434" y2="442.1036"/>
    <line x1="523.5" x2="538.5" y1="443.547" y2="434.8868"/>
    <line x1="538.5" x2="523.5" y1="436.3301" y2="444.9904"/>
    <line x1="523.5" x2="538.5" y1="446.4338" y2="437.7735"/>
    <line x1="538.5" x2="523.5" y1="439.2169" y2="447.8771"/>
    <line x1="533.5" x2="533.5" y1="442.1036" y2="442.1036"/>
    <line x1="528.5" x2="523.5" y1="462.3109" y2="465.1976"/>
    <line x1="523.5" x2="528.5" y1="466.641" y2="463.7543"/>
    <line x1="528.5" x2="523.5" y1="465.1976" y2="468.0844"/>
    <line x1="523.5" x2="528.5" y1="469.5278" y2="466.641"/>
    <line x1="528.5" x2="523.5" y1="468.0844" y2="470.9711"/>
    <polygon points="533.5,470.9711 538.5,468.0844"/>
    <line x1="534.75" x2="538.5" y1="471.6928" y2="469.5278"/>
    <line x1="538.5" x2="536.0" y1="470.9711" y2="472.4145"/>
    <line x1="537.25" x2="538.5" y1="473.1362" y2="472.4145"/>
    <line x1="538.5" x2="538.5" y1="473.8579" y2="473.8579"/>
    <line x1="543.5" x2="528.5" y1="476.7446" y2="485.4049"/>
    <line x1="528.5" x2="543.5" y1="486.8483" y2="478.188"/>
    <line x1="543.5" x2="528.5" y1="479.6314" y2="488.2917"/>
    <line x1="528.5" x2="543.5" y1="489.735" y2="481.0748"/>
    <line x1="543.5" x2="528.5" y1="482.5181" y2="491.1784"/>
    <line x1="533.5" x2="533.5" y1="488.2917" y2="488.2917"/>
    <line x1="538.5" x2="538.5" y1="485.4049" y2="485.4049"/>
    <line x1="538.5" x2="533.5" y1="496.9519" y2="499.8387"/>
    <line x1="533.5" x2="538.5" y1="501.282" y2="498.3953"/>
    <line x1="538.5" x2="533.5" y1="499.8387" y2="502.7254"/>
    <line x1="533.5" x2="538.5" y1="504.1688" y2="501.282"/>
    <line x1="538.5" x2="523.5" y1="504.1688" y2="512.829"/>
    <line x1="523.5" x2="538.5" y1="514.2724" y2="505.6122"/>
    <line x1="538.5" x2="523.5" y1="507.0555" y2="515.7158"/>
    <line x1="523.5" x2="538.5" y1="517.1592" y2="508.4989"/>
    <line x1="533.5" x2="533.5" y1="511.3857" y2="511.3857"/>
    <polygon points="533.5,505.6122 538.5,502.7254"/>
    <line x1="533.5" x2="523.5" y1="505.6122" y2="511.3857"/>
    <line x1="533.5" x2="538.5" y1="469.5278" y2="466.641"/>
    <line x1="538.5" x2="533.5" y1="465.1976" y2="468.0844"/>
    <line x1="533.5" x2="538.5" y1="466.641" y2="463.7543"/>
    <line x1="538.5" x2="533.5" y1="462.3109" y2="465.1976"/>
    <line x1="403.5" x2="388.5" y1="505.6122" y2="514.2724"/>
    <line x1="388.5" x2="403.5" y1="515.7158" y2="507.0555"/>
    <line x1="403.5" x2="388.5" y1="508.4989" y2="517.1592"/>
    <line x1="388.5" x2="403.5" y1="518.6025" y2="509.9423"/>
    <line x1="403.5" x2="388.5" y1="512.829" y2="521.4893"/>
    <line x1="388.5" x2="388.5" y1="520.0459" y2="520.0459"/>
    <line x1="388.5" x2="403.5" y1="522.9327" y2="514.2724"/>
    <line x1="403.5" x2="388.5" y1="515.7158" y2="524.376"/>
    <polygon points="388.5,525.8194 398.5,520.0459"/>
    <line x1="388.5" x2="388.5" y1="525.8194" y2="525.8194"/>
    <line x1="388.5" x2="403.5" y1="527.2628" y2="518.6025"/>
    <line x1="403.5" x2="388.5" y1="520.0459" y2="528.7062"/>
    <line x1="388.5" x2="403.5" y1="530.1495" y2="521.4893"/>
    <line x1="403.5" x2="388.5" y1="522.9327" y2="531.5929"/>
    <line x1="383.5" x2="373.5" y1="528.7062" y2="534.4797"/>
    <line x1="374.75" x2="378.5" y1="535.2014" y2="533.0363"/>
    <line x1="378.5" x2="376.0" y1="534.4797" y2="535.923"/>
    <line x1="377.25" x2="378.5" y1="536.6447" y2="535.923"/>
    <line x1="378.5" x2="373.5" y1="537.3664" y2="540.2532"/>
    <line x1="373.5" x2="378.5" y1="541.6966" y2="538.8098"/>
    <line x1="378.5" x2="373.5" y1="540.2532" y2="543.1399"/>
    <line x1="373.5" x2="378.5" y1="544.5833" y2="541.6966"/>
    <polygon points="378.5,543.1399 373.5,546.0267"/>
    <line x1="378.5" x2="373.5" y1="544.5833" y2="547.4701"/>
    <line x1="373.5" x2="378.5" y1="548.9134" y2="546.0267"/>
    <line x1="378.5" x2="373.5" y1="547.4701" y2="550.3568"/>
    <polygon points="373.5,551.8002 378.5,548.9134"/>
    <line x1="373.5" x2="373.5" y1="551.8002" y2="551.8002"/>
    <line x1="373.5" x2="378.5" y1="553.2436" y2="550.3568"/>
    <line x1="378.5" x2="373.5" y1="551.8002" y2="554.6869"/>
    <line x1="373.5" x2="378.5" y1="556.1303" y2="553.2436"/>
    <line x1="378.5" x2="368.5" y1="554.6869" y2="560.4604"/>
    <line x1="368.5" x2="372.25" y1="559.0171" y2="556.852"/>
    <line x1="371.0" x2="368.5" y1="556.1303" y2="557.5737"/>
    <line x1="368.5" x2="369.75" y1="556.1303" y2="555.4086"/>
    <line x1="368.5" x2="363.5" y1="554.6869" y2="557.5737"/>
    <line x1="363.5" x2="368.5" y1="556.1303" y2="553.2436"/>
    <line x1="368.5" x2="363.5" y1="551.8002" y2="554.6869"/>
    <line x1="363.5" x2="368.5" y1="553.2436" y2="550.3568"/>
    <line x1="368.5" x2="363.5" y1="548.9134" y2="551.8002"/>
    <line x1="373.5" x2="378.5" y1="563.3472" y2="560.4604"/>
    <line x1="378.5" x2="373.5" y1="561.9038" y2="564.7906"/>
    <line x1="373.5" x2="378.5" y1="566.2339" y2="563.3472"/>
    <line x1="378.5" x2="373.5" y1="564.7906" y2="567.6773"/>
    <line x1="373.5" x2="378.5" y1="569.1207" y2="566.2339"/>
    <line x1="383.5" x2="378.5" y1="592.2147" y2="595.1015"/>
    <line x1="378.5" x2="383.5" y1="596.5448" y2="593.6581"/>
    <line x1="383.5" x2="378.5" y1="595.1015" y2="597.9882"/>
    <line x1="378.5" x2="383.5" y1="599.4316" y2="596.5448"/>
    <line x1="383.5" x2="378.5" y1="597.9882" y2="600.875"/>
    <line x1="373.5" x2="363.5" y1="597.9882" y2="603.7617"/>
    <line x1="363.5" x2="373.5" y1="602.3183" y2="596.5448"/>
    <line x1="373.5" x2="363.5" y1="595.1015" y2="600.875"/>
    <line x1="363.5" x2="373.5" y1="599.4316" y2="593.6581"/>
    <line x1="373.5" x2="363.5" y1="592.2147" y2="597.9882"/>
    <line x1="373.5" x2="368.5" y1="632.6292" y2="635.516"/>
    <line x1="368.5" x2="373.5" y1="636.9593" y2="634.0726"/>
    <line x1="373.5" x2="368.5" y1="635.516" y2="638.4027"/>
    <line x1="368.5" x2="373.5" y1="639.8461" y2="636.9593"/>
    <line x1="373.5" x2="368.5" y1="638.4027" y2="641.2895"/>
    <line x1="363.5" x2="358.5" y1="638.4027" y2="641.2895"/>
    <line x1="358.5" x2="362.25" y1="639.8461" y2="637.681"/>
    <line x1="361.0" x2="358.5" y1="636.9593" y2="638.4027"/>
    <line x1="358.5" x2="359.75" y1="636.9593" y2="636.2377"/>
    <line x1="358.5" x2="358.5" y1="635.516" y2="635.516"/>
    <line x1="308.5" x2="303.5" y1="641.2895" y2="644.1762"/>
    <line x1="303.5" x2="308.5" y1="645.6196" y2="642.7328"/>
    <line x1="308.5" x2="303.5" y1="644.1762" y2="647.063"/>
    <line x1="303.5" x2="308.5" y1="648.5064" y2="645.6196"/>
    <line x1="308.5" x2="303.5" y1="648.5064" y2="651.3931"/>
    <polygon points="303.5,649.9497 308.5,647.063"/>
    <line x1="303.5" x2="308.5" y1="652.8365" y2="649.9497"/>
    <line x1="308.5" x2="303.5" y1="651.3931" y2="654.2799"/>
    <polygon points="303.5,655.7232 308.5,652.8365"/>
    <line x1="303.5" x2="308.5" y1="657.1666" y2="654.2799"/>
    <line x1="308.5" x2="303.5" y1="655.7232" y2="658.61"/>
    <line x1="303.5" x2="308.5" y1="660.0534" y2="657.1666"/>
    <line x1="308.5" x2="303.5" y1="658.61" y2="661.4967"/>
    <line x1="378.5" x2="382.25" y1="530.1495" y2="527.9845"/>
    <line x1="381.0" x2="378.5" y1="527.2628" y2="528.7062"/>
    <line x1="378.5" x2="379.75" y1="527.2628" y2="526.5411"/>
    <line x1="378.5" x2="378.5" y1="525.8194" y2="525.8194"/>
    <line x1="368.5" x2="368.5" y1="514.2724" y2="514.2724"/>
    <line x1="363.5" x2="373.5" y1="514.2724" y2="508.4989"/>
    <line x1="373.5" x2="363.5" y1="509.9423" y2="515.7158"/>
    <line x1="363.5" x2="373.5" y1="517.1592" y2="511.3857"/>
    <line x1="373.5" x2="363.5" y1="507.0555" y2="512.829"/>
    <line x1="363.5" x2="363.5" y1="511.3857" y2="511.3857"/>
    <line x1="363.5" x2="372.25" y1="509.9423" y2="504.8905"/>
    <line x1="373.5" x2="378.5" y1="504.1688" y2="501.282"/>
    <line x1="378.5" x2="373.5" y1="499.8387" y2="502.7254"/>
    <line x1="373.5" x2="378.5" y1="501.282" y2="498.3953"/>
    <line x1="378.5" x2="383.5" y1="495.5085" y2="492.6218"/>
    <line x1="383.5" x2="373.5" y1="494.0652" y2="499.8387"/>
    <line x1="368.5" x2="363.5" y1="499.8387" y2="502.7254"/>
    <line x1="363.5" x2="368.5" y1="504.1688" y2="501.282"/>
    <line x1="369.75" x2="363.5" y1="503.4471" y2="507.0555"/>
    <line x1="363.5" x2="363.5" y1="505.6122" y2="505.6122"/>
    <polygon points="363.5,505.6122 368.5,502.7254"/>
    <line x1="363.5" x2="371.0" y1="508.4989" y2="504.1688"/>
    <polyline points="373.5,505.6122 368.5,508.4989 378.5,502.7254"/>
    <line x1="378.5" x2="383.5" y1="494.0652" y2="491.1784"/>
    <line x1="383.5" x2="378.5" y1="489.735" y2="492.6218"/>
    <line x1="378.5" x2="388.5" y1="491.1784" y2="485.4049"/>
    <line x1="388.5" x2="383.5" y1="483.9615" y2="486.8483"/>
    <line x1="383.5" x2="388.5" y1="485.4049" y2="482.5181"/>
    <line x1="388.5" x2="383.5" y1="481.0748" y2="483.9615"/>
    <line x1="383.5" x2="388.5" y1="482.5181" y2="479.6314"/>
    <line x1="378.5" x2="373.5" y1="473.8579" y2="476.7446"/>
    <line x1="373.5" x2="378.5" y1="475.3013" y2="472.4145"/>
    <line x1="378.5" x2="373.5" y1="470.9711" y2="473.8579"/>
    <line x1="373.5" x2="378.5" y1="472.4145" y2="469.5278"/>
    <polygon points="378.5,468.0844 373.5,470.9711"/>
    <line x1="378.5" x2="373.5" y1="466.641" y2="469.5278"/>
    <line x1="373.5" x2="373.5" y1="470.9711" y2="470.9711"/>
    <line x1="373.5" x2="378.5" y1="468.0844" y2="465.1976"/>
    <line x1="378.5" x2="373.5" y1="463.7543" y2="466.641"/>
    <line x1="373.5" x2="378.5" y1="463.7543" y2="460.8675"/>
    <line x1="378.5" x2="373.5" y1="459.4241" y2="462.3109"/>
    <line x1="373.5" x2="378.5" y1="460.8675" y2="457.9808"/>
    <line x1="378.5" x2="373.5" y1="456.5374" y2="459.4241"/>
    <polygon points="378.5,462.3109 373.5,465.1976"/>
    <line x1="368.5" x2="363.5" y1="496.9519" y2="499.8387"/>
    <line x1="363.5" x2="368.5" y1="501.282" y2="498.3953"/>
    <polygon points="368.5,508.4989 363.5,511.3857"/>
    <line x1="393.5" x2="393.5" y1="522.9327" y2="522.9327"/>
    <line x1="398.5" x2="398.5" y1="525.8194" y2="525.8194"/>
    <polygon points="403.5,517.1592 398.5,520.0459"/>
    <polygon points="398.5,514.2724 403.5,511.3857"/>
    <polygon points="398.5,514.2724 388.5,520.0459"/>
    <line x1="293.5" x2="278.5" y1="453.6506" y2="462.3109"/>
    <line x1="278.5" x2="293.5" y1="460.8675" y2="452.2073"/>
    <line x1="293.5" x2="278.5" y1="450.7639" y2="459.4241"/>
    <line x1="278.5" x2="293.5" y1="457.9808" y2="449.3205"/>
    <line x1="293.5" x2="278.5" y1="447.8771" y2="456.5374"/>
    <line x1="283.5" x2="283.5" y1="459.4241" y2="459.4241"/>
    <line x1="258.5" x2="253.5" y1="462.3109" y2="465.1976"/>
    <line x1="253.5" x2="258.5" y1="466.641" y2="463.7543"/>
    <line x1="258.5" x2="253.5" y1="465.1976" y2="468.0844"/>
    <line x1="253.5" x2="258.5" y1="469.5278" y2="466.641"/>
    <line x1="258.5" x2="253.5" y1="468.0844" y2="470.9711"/>
    <line x1="213.5" x2="208.5" y1="470.9711" y2="473.8579"/>
    <line x1="208.5" x2="213.5" y1="472.4145" y2="469.5278"/>
    <line x1="213.5" x2="208.5" y1="468.0844" y2="470.9711"/>
    <line x1="208.5" x2="213.5" y1="469.5278" y2="466.641"/>
    <line x1="213.5" x2="208.5" y1="465.1976" y2="468.0844"/>
    <line x1="203.5" x2="208.5" y1="465.1976" y2="462.3109"/>
    <line x1="208.5" x2="203.5" y1="460.8675" y2="463.7543"/>
    <line x1="203.5" x2="208.5" y1="462.3109" y2="459.4241"/>
    <line x1="208.5" x2="203.5" y1="457.9808" y2="460.8675"/>
    <line x1="203.5" x2="208.5" y1="459.4241" y2="456.5374"/>
    <line x1="203.5" x2="198.5" y1="453.6506" y2="456.5374"/>
    <line x1="198.5" x2="203.5" y1="455.094" y2="452.2073"/>
    <line x1="203.5" x2="198.5" y1="450.7639" y2="453.6506"/>
    <line x1="198.5" x2="203.5" y1="452.2073" y2="449.3205"/>
    <line x1="203.5" x2="198.5" y1="447.8771" y2="450.7639"/>
    <line x1="203.5" x2="208.5" y1="442.1036" y2="439.2169"/>
    <line x1="208.5" x2="203.5" y1="437.7735" y2="440.6603"/>
    <line x1="203.5" x2="208.5" y1="439.2169" y2="436.3301"/>
    <line x1="208.5" x2="203.5" y1="434.8868" y2="437.7735"/>
    <line x1="203.5" x2="208.5" y1="436.3301" y2="433.4434"/>
    <line x1="207.25" x2="208.5" y1="432.7217" y2="432.0"/>
    <line x1="208.5" x2="206.0" y1="430.5566" y2="432.0"/>
    <line x1="204.75" x2="208.5" y1="431.2783" y2="429.1132"/>
    <polygon points="208.5,427.6699 203.5,430.5566"/>
    <line x1="208.5" x2="198.5" y1="426.2265" y2="432.0"/>
    <line x1="198.5" x2="203.5" y1="433.4434" y2="430.5566"/>
    <line x1="198.5" x2="208.5" y1="430.5566" y2="424.7831"/>
    <line x1="208.5" x2="198.5" y1="423.3397" y2="429.1132"/>
    <line x1="198.5" x2="198.5" y1="427.6699" y2="427.6699"/>
    <line x1="198.5" x2="203.5" y1="426.2265" y2="423.3397"/>
    <polyline points="203.5,424.7831 198.5,427.6699 208.5,421.8964"/>
    <line x1="203.5" x2="198.5" y1="421.8964" y2="424.7831"/>
    <line x1="198.5" x2="203.5" y1="423.3397" y2="420.453"/>
    <line x1="203.5" x2="198.5" y1="419.0096" y2="421.8964"/>
    <line x1="198.5" x2="183.5" y1="416.1229" y2="424.7831"/>
    <line x1="183.5" x2="198.5" y1="423.3397" y2="414.6795"/>
    <line x1="198.5" x2="183.5" y1="413.2361" y2="421.8964"/>
    <line x1="183.5" x2="198.5" y1="420.453" y2="411.7927"/>
    <line x1="198.5" x2="202.25" y1="408.906" y2="406.7409"/>
    <line x1="203.5" x2="213.5" y1="406.0192" y2="400.2457"/>
    <line x1="213.5" x2="203.5" y1="398.8024" y2="404.5759"/>
    <line x1="203.5" x2="213.5" y1="403.1325" y2="397.359"/>
    <line x1="213.5" x2="203.5" y1="395.9156" y2="401.6891"/>
    <line x1="201.0" x2="198.5" y1="406.0192" y2="407.4626"/>
    <line x1="198.5" x2="199.75" y1="406.0192" y2="405.2976"/>
    <line x1="198.5" x2="198.5" y1="404.5759" y2="404.5759"/>
    <line x1="198.5" x2="203.5" y1="398.8024" y2="395.9156"/>
    <line x1="203.5" x2="198.5" y1="394.4722" y2="397.359"/>
    <line x1="198.5" x2="203.5" y1="395.9156" y2="393.0289"/>
    <line x1="203.5" x2="198.5" y1="391.5855" y2="394.4722"/>
    <line x1="198.5" x2="203.5" y1="393.0289" y2="390.1421"/>
    <line x1="208.5" x2="213.5" y1="390.1421" y2="387.2554"/>
    <line x1="213.5" x2="208.5" y1="385.812" y2="388.6987"/>
    <line x1="208.5" x2="213.5" y1="387.2554" y2="384.3686"/>
    <line x1="213.5" x2="208.5" y1="388.6987" y2="391.5855"/>
    <line x1="208.5" x2="213.5" y1="393.0289" y2="390.1421"/>
    <line x1="213.5" x2="183.5" y1="401.6891" y2="419.0096"/>
    <line x1="188.5" x2="188.5" y1="421.8964" y2="421.8964"/>
    <line x1="193.5" x2="193.5" y1="419.0096" y2="419.0096"/>
    <line x1="193.5" x2="193.5" y1="436.3301" y2="436.3301"/>
    <line x1="194.75" x2="193.5" y1="437.0518" y2="437.7735"/>
    <line x1="193.5" x2="196.0" y1="439.2169" y2="437.7735"/>
    <line x1="197.25" x2="193.5" y1="438.4952" y2="440.6603"/>
    <line x1="193.5" x2="198.5" y1="442.1036" y2="439.2169"/>
    <line x1="198.5" x2="193.5" y1="468.0844" y2="470.9711"/>
    <line x1="193.5" x2="198.5" y1="472.4145" y2="469.5278"/>
    <line x1="198.5" x2="193.5" y1="470.9711" y2="473.8579"/>
    <line x1="193.5" x2="198.5" y1="475.3013" y2="472.4145"/>
    <line x1="198.5" x2="193.5" y1="473.8579" y2="476.7446"/>
    <line x1="173.5" x2="168.5" y1="470.9711" y2="473.8579"/>
    <line x1="168.5" x2="173.5" y1="472.4145" y2="469.5278"/>
    <line x1="173.5" x2="168.5" y1="468.0844" y2="470.9711"/>
    <line x1="168.5" x2="173.5" y1="469.5278" y2="466.641"/>
    <line x1="173.5" x2="168.5" y1="465.1976" y2="468.0844"/>
    <line x1="163.5" x2="158.5" y1="470.9711" y2="473.8579"/>
    <line x1="158.5" x2="162.25" y1="472.4145" y2="470.2495"/>
    <line x1="161.0" x2="158.5" y1="469.5278" y2="470.9711"/>
    <line x1="158.5" x2="159.75" y1="469.5278" y2="468.8061"/>
    <line x1="158.5" x2="158.5" y1="468.0844" y2="468.0844"/>
    <line x1="153.5" x2="158.5" y1="459.4241" y2="456.5374"/>
    <line x1="158.5" x2="153.5" y1="455.094" y2="457.9808"/>
    <line x1="153.5" x2="158.5" y1="456.5374" y2="453.6506"/>
    <line x1="158.5" x2="153.5" y1="452.2073" y2="455.094"/>
    <line x1="153.5" x2="163.5" y1="453.6506" y2="447.8771"/>
    <line x1="163.5" x2="158.5" y1="446.4338" y2="449.3205"/>
    <line x1="158.5" x2="163.5" y1="447.8771" y2="444.9904"/>
    <line x1="163.5" x2="158.5" y1="443.547" y2="446.4338"/>
    <line x1="158.5" x2="168.5" y1="444.9904" y2="439.2169"/>
    <line x1="168.5" x2="163.5" y1="437.7735" y2="440.6603"/>
    <line x1="163.5" x2="168.5" y1="439.2169" y2="436.3301"/>
    <line x1="168.5" x2="163.5" y1="434.8868" y2="437.7735"/>
    <line x1="163.5" x2="168.5" y1="436.3301" y2="433.4434"/>
    <line x1="158.5" x2="133.5" y1="434.8868" y2="449.3205"/>
    <line x1="133.5" x2="158.5" y1="450.7639" y2="436.3301"/>
    <line x1="158.5" x2="133.5" y1="437.7735" y2="452.2073"/>
    <line x1="133.5" x2="133.5" y1="453.6506" y2="453.6506"/>
    <line x1="133.5" x2="148.5" y1="455.094" y2="446.4338"/>
    <line x1="148.5" x2="133.5" y1="447.8771" y2="456.5374"/>
    <line x1="133.5" x2="148.5" y1="457.9808" y2="449.3205"/>
    <line x1="148.5" x2="133.5" y1="450.7639" y2="459.4241"/>
    <polygon points="133.5,447.8771 138.5,444.9904"/>
    <line x1="133.5" x2="158.5" y1="446.4338" y2="432.0"/>
    <line x1="158.5" x2="133.5" y1="430.5566" y2="444.9904"/>
    <line x1="133.5" x2="158.5" y1="443.547" y2="429.1132"/>
    <line x1="158.5" x2="147.25" y1="426.2265" y2="432.7217"/>
    <line x1="146.0" x2="158.5" y1="432.0" y2="424.7831"/>
    <line x1="158.5" x2="144.75" y1="423.3397" y2="431.2783"/>
    <line x1="143.5" x2="158.5" y1="430.5566" y2="421.8964"/>
    <line x1="153.5" x2="153.5" y1="413.2361" y2="413.2361"/>
    <polygon points="148.5,410.3494 153.5,407.4626"/>
    <polygon points="148.5,410.3494 143.5,413.2361"/>
    <line x1="143.5" x2="138.5" y1="407.4626" y2="410.3494"/>
    <line x1="138.5" x2="158.5" y1="411.7927" y2="400.2457"/>
    <polygon points="158.5,398.8024 143.5,407.4626"/>
    <line x1="158.5" x2="143.5" y1="397.359" y2="406.0192"/>
    <line x1="143.5" x2="158.5" y1="404.5759" y2="395.9156"/>
    <line x1="158.5" x2="143.5" y1="394.4722" y2="403.1325"/>
    <line x1="143.5" x2="153.5" y1="401.6891" y2="395.9156"/>
    <line x1="153.5" x2="168.5" y1="394.4722" y2="385.812"/>
    <line x1="168.5" x2="153.5" y1="384.3686" y2="393.0289"/>
    <line x1="153.5" x2="168.5" y1="391.5855" y2="382.9252"/>
    <polygon points="168.5,381.4819 158.5,387.2554"/>
    <line x1="168.5" x2="153.5" y1="380.0385" y2="388.6987"/>
    <line x1="153.5" x2="153.5" y1="390.1421" y2="390.1421"/>
    <polygon points="153.5,390.1421 158.5,387.2554"/>
    <line x1="153.5" x2="168.5" y1="387.2554" y2="378.5951"/>
    <line x1="168.5" x2="153.5" y1="377.1517" y2="385.812"/>
    <line x1="153.5" x2="153.5" y1="384.3686" y2="384.3686"/>
    <line x1="153.5" x2="168.5" y1="382.9252" y2="374.265"/>
    <line x1="168.5" x2="153.5" y1="372.8216" y2="381.4819"/>
    <line x1="153.5" x2="168.5" y1="380.0385" y2="371.3782"/>
    <line x1="168.5" x2="153.5" y1="369.9348" y2="378.5951"/>
    <line x1="158.5" x2="158.5" y1="381.4819" y2="381.4819"/>
    <line x1="163.5" x2="163.5" y1="384.3686" y2="384.3686"/>
    <polygon points="163.5,378.5951 168.5,375.7083"/>
    <polygon points="163.5,378.5951 153.5,384.3686"/>
    <polyline points="168.5,387.2554 153.5,395.9156 158.5,393.0289"/>
    <line x1="158.5" x2="138.5" y1="401.6891" y2="413.2361"/>
    <line x1="138.5" x2="158.5" y1="414.6795" y2="403.1325"/>
    <polygon points="158.5,404.5759 153.5,407.4626"/>
    <line x1="158.5" x2="143.5" y1="406.0192" y2="414.6795"/>
    <line x1="143.5" x2="158.5" y1="416.1229" y2="407.4626"/>
    <line x1="158.5" x2="143.5" y1="408.906" y2="417.5662"/>
    <line x1="143.5" x2="158.5" y1="419.0096" y2="410.3494"/>
    <line x1="148.5" x2="148.5" y1="416.1229" y2="416.1229"/>
    <line x1="143.5" x2="138.5" y1="413.2361" y2="416.1229"/>
    <polygon points="148.5,433.4434 158.5,427.6699"/>
    <line x1="148.5" x2="133.5" y1="433.4434" y2="442.1036"/>
    <polygon points="138.5,444.9904 158.5,433.4434"/>
    <polygon points="143.5,447.8771 133.5,453.6506"/>
    <polyline points="148.5,444.9904 143.5,447.8771 158.5,439.2169"/>
    <line x1="153.5" x2="153.5" y1="442.1036" y2="442.1036"/>
    <line x1="153.5" x2="153.5" y1="436.3301" y2="436.3301"/>
    <line x1="128.5" x2="123.5" y1="444.9904" y2="447.8771"/>
    <line x1="123.5" x2="127.25" y1="446.4338" y2="444.2687"/>
    <line x1="126.0" x2="123.5" y1="443.547" y2="444.9904"/>
    <line x1="123.5" x2="124.75" y1="443.547" y2="442.8253"/>
    <line x1="123.5" x2="123.5" y1="442.1036" y2="442.1036"/>
    <line x1="183.5" x2="188.5" y1="395.9156" y2="393.0289"/>
    <line x1="188.5" x2="183.5" y1="391.5855" y2="394.4722"/>
    <line x1="183.5" x2="188.5" y1="393.0289" y2="390.1421"/>
    <line x1="188.5" x2="183.5" y1="388.6987" y2="391.5855"/>
    <line x1="183.5" x2="183.5" y1="390.1421" y2="390.1421"/>
    <line x1="183.5" x2="188.5" y1="388.6987" y2="385.812"/>
    <polygon points="188.5,387.2554 183.5,390.1421"/>
    <line x1="188.5" x2="183.5" y1="384.3686" y2="387.2554"/>
    <line x1="183.5" x2="188.5" y1="385.812" y2="382.9252"/>
    <polyline points="188.5,381.4819 183.5,384.3686 203.5,372.8216"/>
    <line x1="203.5" x2="188.5" y1="371.3782" y2="380.0385"/>
    <line x1="187.25" x2="183.5" y1="380.7602" y2="382.9252"/>
    <line x1="183.5" x2="186.0" y1="381.4819" y2="380.0385"/>
    <line x1="184.75" x2="183.5" y1="379.3168" y2="380.0385"/>
    <line x1="183.5" x2="183.5" y1="378.5951" y2="378.5951"/>
    <line x1="188.5" x2="203.5" y1="378.5951" y2="369.9348"/>
    <line x1="203.5" x2="188.5" y1="368.4915" y2="377.1517"/>
    <line x1="188.5" x2="203.5" y1="375.7083" y2="367.0481"/>
    <line x1="202.25" x2="203.5" y1="366.3264" y2="365.6047"/>
    <line x1="203.5" x2="201.0" y1="364.1613" y2="365.6047"/>
    <line x1="199.75" x2="203.5" y1="364.883" y2="362.718"/>
    <line x1="203.5" x2="208.5" y1="359.8312" y2="356.9445"/>
    <line x1="208.5" x2="203.5" y1="355.5011" y2="358.3878"/>
    <line x1="203.5" x2="208.5" y1="356.9445" y2="354.0577"/>
    <line x1="208.5" x2="213.5" y1="351.171" y2="348.2842"/>
    <line x1="213.5" x2="208.5" y1="346.8408" y2="349.7276"/>
    <line x1="208.5" x2="213.5" y1="348.2842" y2="345.3975"/>
    <line x1="213.5" x2="208.5" y1="343.9541" y2="346.8408"/>
    <line x1="203.5" x2="198.5" y1="343.9541" y2="346.8408"/>
    <line x1="198.5" x2="203.5" y1="345.3975" y2="342.5107"/>
    <line x1="203.5" x2="198.5" y1="341.0673" y2="343.9541"/>
    <line x1="198.5" x2="203.5" y1="342.5107" y2="339.624"/>
    <line x1="203.5" x2="198.5" y1="338.1806" y2="341.0673"/>
    <line x1="193.5" x2="178.5" y1="341.0673" y2="349.7276"/>
    <line x1="178.5" x2="193.5" y1="351.171" y2="342.5107"/>
    <polyline points="193.5,343.9541 183.5,349.7276 188.5,346.8408"/>
    <line x1="188.5" x2="183.5" y1="348.2842" y2="351.171"/>
    <line x1="183.5" x2="188.5" y1="352.6143" y2="349.7276"/>
    <line x1="188.5" x2="183.5" y1="351.171" y2="354.0577"/>
    <line x1="183.5" x2="188.5" y1="356.9445" y2="354.0577"/>
    <polygon points="188.5,352.6143 183.5,355.5011"/>
    <line x1="188.5" x2="183.5" y1="355.5011" y2="358.3878"/>
    <line x1="183.5" x2="188.5" y1="359.8312" y2="356.9445"/>
    <line x1="188.5" x2="183.5" y1="358.3878" y2="361.2746"/>
    <line x1="178.5" x2="183.5" y1="352.6143" y2="349.7276"/>
    <line x1="178.5" x2="193.5" y1="348.2842" y2="339.624"/>
    <polygon points="193.5,338.1806 183.5,343.9541"/>
    <line x1="193.5" x2="178.5" y1="336.7372" y2="345.3975"/>
    <polygon points="178.5,346.8408 183.5,343.9541"/>
    <line x1="178.5" x2="178.5" y1="346.8408" y2="346.8408"/>
    <line x1="178.5" x2="193.5" y1="343.9541" y2="335.2938"/>
    <line x1="193.5" x2="178.5" y1="333.8505" y2="342.5107"/>
    <line x1="178.5" x2="193.5" y1="339.624" y2="330.9637"/>
    <line x1="193.5" x2="178.5" y1="329.5203" y2="338.1806"/>
    <line x1="178.5" x2="193.5" y1="336.7372" y2="328.077"/>
    <line x1="193.5" x2="178.5" y1="326.6336" y2="335.2938"/>
    <polygon points="193.5,332.4071 178.5,341.0673"/>
    <line x1="198.5" x2="203.5" y1="323.7468" y2="320.8601"/>
    <line x1="203.5" x2="198.5" y1="319.4167" y2="322.3034"/>
    <line x1="198.5" x2="203.5" y1="320.8601" y2="317.9733"/>
    <line x1="203.5" x2="198.5" y1="316.5299" y2="319.4167"/>
    <line x1="198.5" x2="198.5" y1="317.9733" y2="317.9733"/>
    <line x1="198.5" x2="218.5" y1="316.5299" y2="304.9829"/>
    <line x1="218.5" x2="198.5" y1="303.5396" y2="315.0866"/>
    <line x1="198.5" x2="218.5" y1="313.6432" y2="302.0962"/>
    <line x1="218.5" x2="198.5" y1="299.2094" y2="310.7564"/>
    <line x1="198.5" x2="218.5" y1="309.3131" y2="297.7661"/>
    <line x1="218.5" x2="198.5" y1="296.3227" y2="307.8697"/>
    <line x1="198.5" x2="218.5" y1="306.4263" y2="294.8793"/>
    <polygon points="213.5,303.5396 218.5,300.6528"/>
    <line x1="213.5" x2="208.5" y1="309.3131" y2="312.1998"/>
    <line x1="209.75" x2="213.5" y1="312.9215" y2="310.7564"/>
    <line x1="213.5" x2="211.0" y1="312.1998" y2="313.6432"/>
    <line x1="212.25" x2="213.5" y1="314.3649" y2="313.6432"/>
    <line x1="213.5" x2="208.5" y1="315.0866" y2="317.9733"/>
    <line x1="208.5" x2="213.5" y1="319.4167" y2="316.5299"/>
    <line x1="213.5" x2="208.5" y1="317.9733" y2="320.8601"/>
    <line x1="208.5" x2="213.5" y1="322.3034" y2="319.4167"/>
    <polygon points="213.5,320.8601 208.5,323.7468"/>
    <line x1="213.5" x2="208.5" y1="322.3034" y2="325.1902"/>
    <line x1="208.5" x2="213.5" y1="326.6336" y2="323.7468"/>
    <line x1="213.5" x2="208.5" y1="325.1902" y2="328.077"/>
    <line x1="208.5" x2="213.5" y1="329.5203" y2="326.6336"/>
    <line x1="213.5" x2="218.5" y1="332.4071" y2="329.5203"/>
    <line x1="218.5" x2="213.5" y1="330.9637" y2="333.8505"/>
    <line x1="213.5" x2="218.5" y1="335.2938" y2="332.4071"/>
    <line x1="218.5" x2="213.5" y1="333.8505" y2="336.7372"/>
    <line x1="213.5" x2="218.5" y1="338.1806" y2="335.2938"/>
    <line x1="223.5" x2="228.5" y1="338.1806" y2="335.2938"/>
    <line x1="228.5" x2="223.5" y1="336.7372" y2="339.624"/>
    <line x1="223.5" x2="228.5" y1="341.0673" y2="338.1806"/>
    <line x1="228.5" x2="223.5" y1="339.624" y2="342.5107"/>
    <line x1="223.5" x2="203.5" y1="343.9541" y2="355.5011"/>
    <line x1="208.5" x2="208.5" y1="358.3878" y2="358.3878"/>
    <line x1="208.5" x2="213.5" y1="359.8312" y2="356.9445"/>
    <line x1="213.5" x2="208.5" y1="358.3878" y2="361.2746"/>
    <line x1="208.5" x2="213.5" y1="362.718" y2="359.8312"/>
    <line x1="213.5" x2="208.5" y1="361.2746" y2="364.1613"/>
    <line x1="198.5" x2="228.5" y1="364.1613" y2="346.8408"/>
    <line x1="228.5" x2="213.5" y1="345.3975" y2="354.0577"/>
    <line x1="213.5" x2="228.5" y1="352.6143" y2="343.9541"/>
    <line x1="228.5" x2="213.5" y1="342.5107" y2="351.171"/>
    <line x1="218.5" x2="218.5" y1="352.6143" y2="352.6143"/>
    <line x1="228.5" x2="233.5" y1="358.3878" y2="355.5011"/>
    <line x1="233.5" x2="228.5" y1="356.9445" y2="359.8312"/>
    <line x1="228.5" x2="233.5" y1="361.2746" y2="358.3878"/>
    <line x1="233.5" x2="228.5" y1="359.8312" y2="362.718"/>
    <line x1="229.75" x2="233.5" y1="364.883" y2="362.718"/>
    <polygon points="233.5,361.2746 228.5,364.1613"/>
    <line x1="233.5" x2="231.0" y1="364.1613" y2="365.6047"/>
    <line x1="232.25" x2="233.5" y1="366.3264" y2="365.6047"/>
    <line x1="233.5" x2="233.5" y1="367.0481" y2="367.0481"/>
    <line x1="238.5" x2="223.5" y1="369.9348" y2="378.5951"/>
    <line x1="223.5" x2="238.5" y1="380.0385" y2="371.3782"/>
    <line x1="238.5" x2="223.5" y1="372.8216" y2="381.4819"/>
    <line x1="223.5" x2="238.5" y1="382.9252" y2="374.265"/>
    <line x1="238.5" x2="223.5" y1="375.7083" y2="384.3686"/>
    <line x1="233.5" x2="233.5" y1="378.5951" y2="378.5951"/>
    <line x1="198.5" x2="198.5" y1="375.7083" y2="375.7083"/>
    <line x1="198.5" x2="193.5" y1="381.4819" y2="384.3686"/>
    <line x1="193.5" x2="198.5" y1="385.812" y2="382.9252"/>
    <line x1="198.5" x2="193.5" y1="384.3686" y2="387.2554"/>
    <line x1="193.5" x2="198.5" y1="388.6987" y2="385.812"/>
    <line x1="198.5" x2="193.5" y1="387.2554" y2="390.1421"/>
    <line x1="153.5" x2="138.5" y1="349.7276" y2="358.3878"/>
    <line x1="138.5" x2="153.5" y1="356.9445" y2="348.2842"/>
    <line x1="153.5" x2="138.5" y1="346.8408" y2="355.5011"/>
    <line x1="138.5" x2="153.5" y1="354.0577" y2="345.3975"/>
    <line x1="153.5" x2="138.5" y1="343.9541" y2="352.6143"/>
    <line x1="198.5" x2="198.5" y1="312.1998" y2="312.1998"/>
    <polygon points="203.5,309.3131 208.5,306.4263"/>
    <polygon points="203.5,309.3131 198.5,312.1998"/>
    <polygon points="208.5,306.4263 213.5,303.5396"/>
    <polyline points="218.5,306.4263 198.5,317.9733 203.5,315.0866"/>
    <line x1="208.5" x2="208.5" y1="323.7468" y2="323.7468"/>
    <line x1="218.5" x2="223.5" y1="317.9733" y2="315.0866"/>
    <line x1="223.5" x2="218.5" y1="313.6432" y2="316.5299"/>
    <line x1="218.5" x2="223.5" y1="315.0866" y2="312.1998"/>
    <line x1="223.5" x2="218.5" y1="310.7564" y2="313.6432"/>
    <line x1="218.5" x2="223.5" y1="312.1998" y2="309.3131"/>
    <polygon points="228.5,341.0673 223.5,343.9541"/>
    <line x1="268.5" x2="273.5" y1="387.2554" y2="384.3686"/>
    <line x1="273.5" x2="268.5" y1="385.812" y2="388.6987"/>
    <line x1="268.5" x2="273.5" y1="390.1421" y2="387.2554"/>
    <line x1="273.5" x2="268.5" y1="388.6987" y2="391.5855"/>
    <line x1="268.5" x2="273.5" y1="393.0289" y2="390.1421"/>
    <line x1="273.5" x2="278.5" y1="395.9156" y2="393.0289"/>
    <line x1="278.5" x2="273.5" y1="394.4722" y2="397.359"/>
    <line x1="273.5" x2="278.5" y1="398.8024" y2="395.9156"/>
    <line x1="278.5" x2="273.5" y1="397.359" y2="400.2457"/>
    <line x1="273.5" x2="278.5" y1="401.6891" y2="398.8024"/>
    <line x1="283.5" x2="278.5" y1="401.6891" y2="404.5759"/>
    <line x1="278.5" x2="283.5" y1="406.0192" y2="403.1325"/>
    <line x1="283.5" x2="278.5" y1="404.5759" y2="407.4626"/>
    <line x1="278.5" x2="283.5" y1="408.906" y2="406.0192"/>
    <line x1="283.5" x2="278.5" y1="407.4626" y2="410.3494"/>
    <line x1="273.5" x2="271.0" y1="410.3494" y2="411.7927"/>
    <line x1="269.75" x2="273.5" y1="411.0711" y2="408.906"/>
    <line x1="273.5" x2="268.5" y1="407.4626" y2="410.3494"/>
    <line x1="272.25" x2="273.5" y1="412.5144" y2="411.7927"/>
    <line x1="273.5" x2="268.5" y1="413.2361" y2="416.1229"/>
    <line x1="268.5" x2="273.5" y1="417.5662" y2="414.6795"/>
    <line x1="273.5" x2="268.5" y1="416.1229" y2="419.0096"/>
    <line x1="268.5" x2="273.5" y1="420.453" y2="417.5662"/>
    <line x1="273.5" x2="278.5" y1="420.453" y2="417.5662"/>
    <line x1="278.5" x2="253.5" y1="416.1229" y2="430.5566"/>
    <line x1="253.5" x2="257.25" y1="429.1132" y2="426.9482"/>
    <line x1="258.5" x2="267.25" y1="426.2265" y2="421.1747"/>
    <line x1="266.0" x2="258.5" y1="420.453" y2="424.7831"/>
    <line x1="258.5" x2="264.75" y1="423.3397" y2="419.7313"/>
    <line x1="263.5" x2="258.5" y1="419.0096" y2="421.8964"/>
    <line x1="256.0" x2="253.5" y1="426.2265" y2="427.6699"/>
    <line x1="253.5" x2="254.75" y1="426.2265" y2="425.5048"/>
    <line x1="253.5" x2="253.5" y1="424.7831" y2="424.7831"/>
    <line x1="273.5" x2="278.5" y1="424.7831" y2="421.8964"/>
    <line x1="278.5" x2="273.5" y1="420.453" y2="423.3397"/>
    <line x1="273.5" x2="278.5" y1="421.8964" y2="419.0096"/>
    <line x1="198.5" x2="213.5" y1="283.3323" y2="274.6721"/>
    <line x1="213.5" x2="198.5" y1="273.2287" y2="281.8889"/>
    <line x1="198.5" x2="213.5" y1="280.4456" y2="271.7853"/>
    <line x1="213.5" x2="198.5" y1="270.3419" y2="279.0022"/>
    <line x1="198.5" x2="213.5" y1="277.5588" y2="268.8985"/>
    <line x1="933.5" x2="938.5" y1="569.1207" y2="566.2339"/>
    <polygon points="938.5,572.0074 933.5,574.8942"/>
    <polygon points="943.5,569.1207 938.5,572.0074"/>
    <polygon points="943.5,563.3472 938.5,566.2339"/>
    <line x1="958.5" x2="953.5" y1="631.1858" y2="634.0726"/>
    <line x1="953.5" x2="958.5" y1="635.516" y2="632.6292"/>
    <line x1="958.5" x2="953.5" y1="634.0726" y2="636.9593"/>
    <line x1="953.5" x2="948.5" y1="639.8461" y2="642.7328"/>
    <line x1="948.5" x2="958.5" y1="641.2895" y2="635.516"/>
    <line x1="958.5" x2="943.5" y1="641.2895" y2="649.9497"/>
    <line x1="943.5" x2="948.5" y1="651.3931" y2="648.5064"/>
    <line x1="948.5" x2="943.5" y1="649.9497" y2="652.8365"/>
    <line x1="943.5" x2="948.5" y1="654.2799" y2="651.3931"/>
    <line x1="948.5" x2="943.5" y1="654.2799" y2="657.1666"/>
    <line x1="943.5" x2="948.5" y1="658.61" y2="655.7232"/>
    <line x1="948.5" x2="943.5" y1="657.1666" y2="660.0534"/>
    <line x1="943.5" x2="948.5" y1="661.4967" y2="658.61"/>
    <line x1="953.5" x2="958.5" y1="655.7232" y2="652.8365"/>
    <line x1="958.5" x2="953.5" y1="651.3931" y2="654.2799"/>
    <line x1="953.5" x2="958.5" y1="652.8365" y2="649.9497"/>
    <line x1="958.5" x2="953.5" y1="648.5064" y2="651.3931"/>
    <line x1="953.5" x2="963.5" y1="649.9497" y2="644.1762"/>
    <line x1="962.25" x2="957.25" y1="643.4545" y2="646.3413"/>
    <line x1="956.0" x2="961.0" y1="645.6196" y2="642.7328"/>
    <line x1="959.75" x2="954.75" y1="642.0112" y2="644.8979"/>
    <line x1="953.5" x2="948.5" y1="642.7328" y2="645.6196"/>
    <line x1="948.5" x2="953.5" y1="644.1762" y2="641.2895"/>
    <polygon points="943.5,655.7232 948.5,652.8365"/>
    <line x1="943.5" x2="943.5" y1="655.7232" y2="655.7232"/>
  </g>
</svg>
