<?xml version="1.0" encoding="utf-8" ?>
<svg xmlns="http://www.w3.org/2000/svg" xmlns:cc="http://creativecommons.org/ns#" xmlns:dc="http://purl.org/dc/elements/1.1/" xmlns:ev="http://www.w3.org/2001/xml-events" xmlns:inkscape="http://www.inkscape.org/namespaces/inkscape" xmlns:rdf="http://www.w3.org/1999/02/22-rdf-syntax-ns#" xmlns:sodipodi="http://sodipodi.sourceforge.net/DTD/sodipodi-0.dtd" xmlns:xlink="http://www.w3.org/1999/xlink" baseProfile="tiny" height="22.86cm" version="1.2" viewBox="0 0 1152.0 864.0" width="30.48cm">
  <metadata>
    <rdf:RDF>
      <cc:Work>
        <dc:format>image/svg+xml</dc:format>
        <dc:source/>
        <dc:date>2021-10-05T22:19:43.546405</dc:date>
      </cc:Work>
    </rdf:RDF>
  </metadata>
  <defs/>
  <g fill="none" id="layer1.0" inkscape:groupmode="layer" inkscape:label="1" stroke="#00f" style="display:inline">
    <line x1="439.343" x2="440.395" y1="48.0" y2="48.7316"/>
    <line x1="439.9133" x2="433.6198" y1="52.3577" y2="48.0"/>
    <line x1="427.8501" x2="439.4406" y1="48.0" y2="55.991"/>
    <line x1="438.977" x2="422.0343" y1="59.6315" y2="48.0"/>
    <line x1="416.1728" x2="438.5226" y1="48.0" y2="63.2789"/>
    <line x1="438.0774" x2="410.2661" y1="66.9332" y2="48.0"/>
    <polyline points="404.3149,48.0 437.6417,70.5942 479.9033,95.2774 529.6729,120.3237 586.9858,145.7758 650.7195,171.6716 718.766,198.0443"/>
    <polyline points="715.8622,200.0147 647.8584,173.738 587.4068,149.2791"/>
    <polyline points="584.2026,147.9321 526.9908,122.5629 479.7514,98.8965 435.1685,72.9741"/>
    <line x1="437.6417" x2="437.6417" y1="70.5942" y2="70.5942"/>
    <polyline points="432.6966,75.3659 479.6108,102.5229 524.3103,124.8174 581.4206,150.1053"/>
    <polyline points="578.6399,152.2951 521.6312,127.087 479.4816,106.1566 472.1884,102.2601 436.392,81.6158 430.2259,77.7692"/>
    <polyline points="427.7565,80.1835 435.9948,85.3021 469.6198,104.6141 479.3637,109.7974 518.9537,129.3713 530.3234,134.6294 575.8606,154.5011"/>
    <polyline points="573.0826,156.7232 530.5142,138.2259 516.2777,131.67 479.2573,113.4451 467.0527,106.9807 435.6076,88.9943 425.2884,82.6086"/>
    <polyline points="422.8215,85.044 435.2303,92.6924 464.4871,109.3595 479.1623,117.0997 513.6033,133.9827 530.716,141.8301 570.3058,158.961"/>
    <polyline points="567.5305,161.2141 530.929,145.442 510.9304,136.3092 479.0788,120.761 461.9229,111.7502 434.8631,96.3961 420.3559,87.4893"/>
    <polyline points="417.8914,89.9441 434.5061,100.1053 459.3603,114.1525 479.0068,124.4288 508.259,138.649 531.153,149.0614 564.7564,163.4823"/>
    <polyline points="561.9836,165.7653 531.3881,152.6881 505.5891,141.0018 478.9462,128.103 456.7992,116.5658 434.1592,103.8198 415.4283,92.4081"/>
    <polyline points="412.9663,94.8807 433.8227,107.5396 454.2396,118.99 478.8972,131.7834 502.9208,143.3672 531.6341,156.3221 559.2122,168.0627"/>
    <polyline points="556.4422,170.3742 531.8909,159.9633 500.254,145.745 478.8597,135.47 451.6815,121.4244 433.4966,111.2643 410.5056,97.3617"/>
    <polyline points="408.0461,99.8505 433.1809,114.994 449.1248,123.8688 478.8337,139.1625 497.5887,148.1347 532.1586,163.6113 553.6734,172.6994"/>
    <polyline points="550.9061,175.038 532.4371,167.2662 494.925,150.5359 478.8192,142.8608 446.5697,126.3228 432.8757,118.7284 405.5878,102.3468"/>
    <polyline points="403.1307,104.8502 432.5812,122.4673 444.016,128.7859 478.8163,146.5648 492.2628,152.9482 532.7263,170.9278 548.14,177.3896"/>
    <polyline points="545.3754,179.7539 533.0261,174.5959 489.6021,155.3714 478.825,150.2742 441.4638,131.2578 432.2973,126.2106 400.6748,107.3602"/>
    <polyline points="398.2201,109.8764 432.0242,129.9582 438.9131,133.738 478.8451,153.989 486.943,157.8049 542.6121,182.1306"/>
    <polyline points="539.8501,184.5192 478.8769,157.709 436.3639,136.2262 395.7666,112.3983"/>
    <polyline points="393.3142,114.9256 433.8161,138.7218 478.9201,161.434 537.0895,186.9193"/>
    <polyline points="534.3303,189.3307 478.9749,165.1639 431.2699,141.2246 390.8631,117.4578 356.282,93.8068"/>
    <line x1="353.899" x2="388.4131" y1="96.3594" y2="119.9945"/>
    <line x1="385.9643" x2="351.5166" y1="122.5352" y2="98.9137"/>
    <line x1="349.135" x2="383.5167" y1="101.4694" y2="125.0795"/>
    <polyline points="381.0702,127.6269 353.6127,108.9917 346.754,104.026"/>
    <polyline points="344.3737,106.583 352.9595,112.7896 378.6249,130.177"/>
    <polyline points="376.1807,132.7294 352.3123,116.5878 341.9941,109.14"/>
    <polyline points="339.6151,111.6965 351.6712,120.3861 373.7376,135.2837"/>
    <polyline points="371.2957,137.8392 351.0364,124.1844 337.2367,114.2521"/>
    <polyline points="334.859,116.8064 350.408,127.9825 368.8549,140.3957"/>
    <polyline points="366.4153,142.9527 349.7861,131.7802 332.4819,119.3589"/>
    <polyline points="330.1055,121.9091 349.171,135.5774 363.9767,145.5097"/>
    <polyline points="361.5393,148.0663 348.5627,139.3738 327.7296,124.4567"/>
    <polyline points="325.3544,127.0011 347.9614,143.1693 359.103,150.6221"/>
    <polyline points="356.6677,153.1765 347.3672,146.9637 322.9797,129.542"/>
    <polyline points="320.6056,132.0788 346.7803,150.7568 354.2336,155.7291"/>
    <line x1="351.8005" x2="318.2321" y1="158.2796" y2="134.6112"/>
    <line x1="315.8592" x2="349.3685" y1="137.1387" y2="160.8274"/>
    <line x1="346.9376" x2="313.4868" y1="163.3722" y2="139.6609"/>
    <polygon points="311.115,142.1774 344.5078,165.9134"/>
    <line x1="308.7438" x2="342.079" y1="144.6876" y2="168.4506"/>
    <line x1="339.6513" x2="306.3731" y1="170.9834" y2="147.1913"/>
    <line x1="304.0029" x2="337.2246" y1="149.6879" y2="173.5114"/>
    <polyline points="334.799,176.0341 308.3076,157.2147 301.6332,152.1771"/>
    <polyline points="299.2641,154.6584 307.6171,160.9645 332.3744,178.5511"/>
    <polyline points="329.9508,181.0619 306.9316,164.7102 296.8954,157.1314"/>
    <polyline points="294.5273,159.5957 306.2511,168.4515 327.5283,183.5662"/>
    <polyline points="325.1068,186.0635 305.5758,172.1884 292.1597,162.0509"/>
    <polyline points="289.7925,164.4966 304.9059,175.9207 322.6862,188.5533"/>
    <polyline points="320.2667,191.0354 304.2415,179.6481 287.4258,166.9325"/>
    <polyline points="285.0596,169.358 303.5828,183.3707 317.8482,193.5092"/>
    <polyline points="315.4307,195.9743 302.9299,187.0881 282.6938,171.7728"/>
    <polyline points="280.3285,174.1765 302.283,190.8002 313.0142,198.4304"/>
    <polyline points="310.5986,200.8769 301.6422,194.507 277.9636,176.5688"/>
    <polyline points="275.5992,178.9493 301.0077,198.2081 308.184,203.3137"/>
    <line x1="305.7704" x2="273.2351" y1="205.7401" y2="181.3175"/>
    <line x1="270.8715" x2="303.3577" y1="183.6732" y2="208.156"/>
    <line x1="300.946" x2="268.5083" y1="210.5607" y2="186.016"/>
    <line x1="263.7832" x2="296.1253" y1="190.6613" y2="215.3356"/>
    <line x1="293.7164" x2="261.4211" y1="217.705" y2="192.9632"/>
    <line x1="259.0595" x2="291.3084" y1="195.2507" y2="220.0618"/>
    <line x1="288.9014" x2="256.6982" y1="222.4058" y2="197.5236"/>
    <polyline points="254.3373,199.7816 262.5113,206.3853 286.4952,224.7365"/>
    <polyline points="284.0899,227.0536 261.795,209.9699 251.9767,202.0242"/>
    <polyline points="249.6165,204.2513 261.0827,213.5464 281.6855,229.3567"/>
    <polyline points="279.2821,231.6456 260.3745,217.1147 247.2566,206.4624"/>
    <polyline points="244.897,208.6574 259.6705,220.6747 276.8795,233.9199"/>
    <polyline points="274.4777,236.1792 258.971,224.2262 242.5378,210.8358"/>
    <polyline points="240.1789,212.9975 258.276,227.7691 272.0769,238.4232"/>
    <polyline points="269.6769,240.6517 257.5858,231.3034 237.8202,215.1422"/>
    <polyline points="235.4619,217.2695 256.9005,234.8288 267.2777,242.8643"/>
    <polyline points="264.8794,245.0608 256.2203,238.3453 233.1038,219.3792"/>
    <polyline points="230.746,221.4711 255.5452,241.8528 262.482,247.2408"/>
    <line x1="260.0853" x2="228.3885" y1="249.404" y2="223.5449"/>
    <line x1="226.0312" x2="257.6895" y1="225.6004" y2="251.5502"/>
    <line x1="255.2945" x2="223.6742" y1="253.6791" y2="227.6373"/>
    <line x1="221.3174" x2="252.9003" y1="229.6554" y2="255.7904"/>
    <line x1="207.5545" x2="241.7998" y1="292.2782" y2="319.8126"/>
    <line x1="239.3557" x2="206.8694" y1="321.6363" y2="295.4639"/>
    <line x1="206.1894" x2="236.9127" y1="298.6383" y2="323.4394"/>
    <line x1="234.4709" x2="205.5146" y1="325.2216" y2="301.8013"/>
    <line x1="204.8452" x2="232.0303" y1="304.9529" y2="326.983"/>
    <line x1="229.5907" x2="204.1813" y1="328.7234" y2="308.0931"/>
    <line x1="203.5231" x2="227.1522" y1="311.2218" y2="330.4426"/>
    <line x1="224.7149" x2="202.8708" y1="332.1408" y2="314.3391"/>
    <line x1="202.2244" x2="222.2787" y1="317.4449" y2="333.8176"/>
    <line x1="219.8435" x2="201.5842" y1="335.4732" y2="320.5391"/>
    <line x1="200.9502" x2="217.4095" y1="323.6219" y2="337.1073"/>
    <line x1="214.9765" x2="200.3227" y1="338.72" y2="326.6931"/>
    <line x1="199.7017" x2="212.5447" y1="329.7528" y2="340.3113"/>
    <line x1="210.1138" x2="199.0875" y1="341.8811" y2="332.801"/>
    <line x1="198.4802" x2="207.6841" y1="335.8376" y2="343.4293"/>
    <line x1="205.2554" x2="197.8798" y1="344.956" y2="338.8626"/>
    <line x1="197.2866" x2="202.8278" y1="341.8762" y2="346.4612"/>
    <line x1="200.4012" x2="196.7007" y1="347.9448" y2="344.8782"/>
    <line x1="196.1222" x2="197.9757" y1="347.8686" y2="349.407"/>
    <line x1="195.5512" x2="195.5512" y1="350.8476" y2="350.8476"/>
    <line x1="149.6736" x2="186.3007" y1="374.2363" y2="405.2946"/>
    <line x1="183.8161" x2="147.2685" y1="406.4239" y2="375.2663"/>
    <line x1="144.8642" x2="181.3329" y1="376.2775" y2="407.5333"/>
    <polyline points="178.8509,408.623 147.8527,382.2529 142.4608,377.2699"/>
    <polyline points="140.0582,378.244 147.2598,384.9051 176.3702,409.6932"/>
    <polyline points="173.8909,410.7441 146.6742,387.5474 137.6566,379.1998"/>
    <polyline points="135.2558,380.1377 146.096,390.1798 171.4128,411.7759"/>
    <polyline points="168.936,412.7887 145.5254,392.8026 132.8559,381.0579"/>
    <polyline points="130.4568,381.9606 144.9624,395.4157 166.4605,413.7829"/>
    <polyline points="163.9862,414.7586 144.4073,398.0194 128.0586,382.8461"/>
    <polyline points="125.6612,383.7147 143.8601,400.6136 161.5133,415.7161"/>
    <polyline points="159.0416,416.6556 143.321,403.1985 123.2646,384.5667"/>
    <polyline points="120.8689,385.4023 142.7901,405.7742 156.5712,417.5774"/>
    <polyline points="154.102,418.4817 142.2675,408.3408 118.474,386.2219"/>
    <polyline points="116.0799,387.0257 141.7533,410.8985 151.6341,419.3688"/>
    <polyline points="149.1674,420.2389 141.2477,413.4472 113.6866,387.8141"/>
    <polyline points="111.294,388.5874 140.7508,415.9872 146.702,421.0924"/>
    <line x1="144.2378" x2="108.9023" y1="421.9295" y2="389.3458"/>
    <line x1="106.5113" x2="141.7748" y1="390.0898" y2="422.7505"/>
    <line x1="139.3131" x2="104.1212" y1="423.5557" y2="390.8196"/>
    <line x1="58.8441" x2="48.0" y1="402.4832" y2="390.5393"/>
    <line x1="48.0" x2="56.4678" y1="393.6679" y2="403.0085"/>
    <line x1="54.092" x2="48.0" y1="403.5278" y2="396.7984"/>
    <line x1="48.0" x2="51.7169" y1="399.9303" y2="404.0416"/>
    <line x1="49.3423" x2="48.0" y1="404.5503" y2="403.0637"/>
    <line x1="48.6937" x2="48.0" y1="302.7877" y2="302.0855"/>
    <line x1="49.3885" x2="48.0" y1="300.3634" y2="298.962"/>
    <line x1="48.0" x2="50.0785" y1="295.8406" y2="297.9322"/>
    <line x1="50.7635" x2="48.0" y1="295.494" y2="292.7214"/>
    <line x1="48.0" x2="51.4436" y1="289.6045" y2="293.0486"/>
    <line x1="52.1183" x2="48.0" y1="290.596" y2="286.4899"/>
    <line x1="48.0" x2="52.7878" y1="283.3779" y2="288.136"/>
    <polyline points="53.4516,285.6684 48.2165,280.4829 48.0,280.2818"/>
    <line x1="48.0" x2="54.1098" y1="277.547" y2="283.1932"/>
    <line x1="54.7622" x2="48.0" y1="280.7101" y2="274.4819"/>
    <line x1="48.0" x2="55.4085" y1="271.4189" y2="278.2192"/>
    <line x1="100.7946" x2="131.8534" y1="260.42" y2="291.1005"/>
    <line x1="134.2074" x2="103.1761" y1="289.8751" y2="259.2979"/>
    <line x1="105.5569" x2="136.5613" y1="258.1559" y2="288.6291"/>
    <line x1="138.9151" x2="107.9371" y1="287.3622" y2="256.9938"/>
    <line x1="110.3165" x2="141.2688" y1="255.8113" y2="286.0743"/>
    <line x1="143.6225" x2="112.6954" y1="284.7654" y2="254.6084"/>
    <line x1="115.0736" x2="145.9762" y1="253.385" y2="283.4354"/>
    <line x1="148.3298" x2="117.4512" y1="282.0842" y2="252.1408"/>
    <line x1="119.8281" x2="150.6834" y1="250.8758" y2="280.7117"/>
    <line x1="153.0369" x2="122.2044" y1="279.3178" y2="249.5899"/>
    <line x1="124.5802" x2="155.3904" y1="248.2829" y2="277.9025"/>
    <line x1="157.744" x2="126.9553" y1="276.4658" y2="246.9548"/>
    <line x1="129.3298" x2="160.0975" y1="245.6055" y2="275.0076"/>
    <line x1="162.451" x2="131.7037" y1="273.5278" y2="244.2349"/>
    <line x1="134.0771" x2="164.8046" y1="242.843" y2="272.0266"/>
    <line x1="167.1581" x2="136.4499" y1="270.5038" y2="241.4297"/>
    <line x1="138.8221" x2="169.5117" y1="239.9949" y2="268.9595"/>
    <line x1="171.8654" x2="141.1938" y1="267.3936" y2="238.5387"/>
    <line x1="143.5649" x2="174.2191" y1="237.0609" y2="265.8063"/>
    <line x1="176.5729" x2="145.9355" y1="264.1975" y2="235.5616"/>
    <line x1="148.3056" x2="146.6473" y1="234.0408" y2="232.5239"/>
    <line x1="147.3549" x2="150.6751" y1="229.4747" y2="232.4984"/>
    <line x1="153.0442" x2="148.0583" y1="230.9345" y2="226.414"/>
    <line x1="148.7572" x2="155.4127" y1="223.3417" y2="229.3491"/>
    <line x1="157.7807" x2="149.4515" y1="227.7423" y2="220.2579"/>
    <line x1="150.141" x2="160.1482" y1="217.1626" y2="226.114"/>
    <line x1="162.5153" x2="150.8257" y1="224.4642" y2="214.0558"/>
    <line x1="151.5052" x2="164.8819" y1="210.9375" y2="222.7932"/>
    <line x1="167.248" x2="152.1795" y1="221.1009" y2="207.8077"/>
    <line x1="152.8484" x2="169.6137" y1="204.6665" y2="219.3874"/>
    <line x1="171.9789" x2="153.5118" y1="217.6528" y2="201.5138"/>
    <line x1="154.1695" x2="174.3437" y1="198.3498" y2="215.8971"/>
    <line x1="176.708" x2="154.8213" y1="214.1205" y2="195.1744"/>
    <line x1="155.4671" x2="179.0719" y1="191.9876" y2="212.3232"/>
    <line x1="181.4354" x2="156.1067" y1="210.5051" y2="188.7896"/>
    <line x1="156.7401" x2="183.7985" y1="185.5803" y2="208.6665"/>
    <line x1="186.1612" x2="157.367" y1="206.8074" y2="182.3597"/>
    <line x1="157.9873" x2="188.5235" y1="179.128" y2="204.9281"/>
    <line x1="193.247" x2="161.0087" y1="201.1093" y2="174.0689"/>
    <polyline points="158.6009,175.8851 190.8855,203.0287 158.6009,175.8851 121.7445,148.2055"/>
    <line x1="119.2548" x2="156.1922" y1="149.894" y2="177.6806"/>
    <line x1="153.7826" x2="116.7638" y1="179.4553" y2="151.5611"/>
    <polyline points="114.2714,153.2069 120.5318,157.665 151.372,181.209"/>
    <polyline points="148.9605,182.9417 120.1082,160.7953 111.7777,154.8313"/>
    <polyline points="109.2827,156.4343 119.6751,163.9141 146.5481,184.6533"/>
    <polyline points="144.1347,186.3437 119.2325,167.0215 106.7863,158.0158"/>
    <polyline points="104.2885,159.5758 118.7807,170.1173 141.7203,188.0128"/>
    <polyline points="139.3049,189.6605 118.3196,173.2016 101.7894,161.1142"/>
    <polyline points="99.289,162.6311 117.8493,176.2744 136.8886,191.2869"/>
    <polyline points="134.4713,192.8918 117.3701,179.3357 96.7872,164.1265"/>
    <polyline points="94.284,165.6003 116.8819,182.3854 132.053,194.4752"/>
    <polyline points="129.6338,196.0372 116.385,185.4236 91.7794,167.0527"/>
    <polyline points="89.2735,168.4835 115.8794,188.4502 127.2135,197.5776"/>
    <polyline points="124.7922,199.0964 115.3653,191.4653 86.7661,169.893"/>
    <polyline points="84.2574,171.281 114.8427,194.4689 122.3699,200.5938"/>
    <polyline points="119.9465,202.0696 114.3117,197.461 81.7473,172.6477"/>
    <line x1="79.2358" x2="117.5222" y1="173.9931" y2="203.5239"/>
    <line x1="115.0968" x2="76.7229" y1="204.9567" y2="175.3174"/>
    <line x1="74.2086" x2="112.6704" y1="176.6205" y2="206.3681"/>
    <line x1="163.4156" x2="195.6082" y1="172.2322" y2="199.1701"/>
    <line x1="197.9691" x2="165.8215" y1="197.2113" y2="170.375"/>
    <line x1="168.2266" x2="200.3295" y1="168.4975" y2="195.2331"/>
    <line x1="202.6897" x2="170.6307" y1="193.2357" y2="166.5999"/>
    <line x1="173.034" x2="205.0495" y1="164.6823" y2="191.2193"/>
    <line x1="207.409" x2="175.4364" y1="189.184" y2="162.7449"/>
    <line x1="177.838" x2="209.7682" y1="160.7879" y2="187.1302"/>
    <line x1="212.1271" x2="180.2386" y1="185.0581" y2="158.8115"/>
    <line x1="182.6384" x2="214.4856" y1="156.8158" y2="182.9678"/>
    <line x1="216.8439" x2="185.0374" y1="180.8597" y2="154.8011"/>
    <line x1="187.4355" x2="219.2019" y1="152.7675" y2="178.734"/>
    <line x1="221.5597" x2="189.8328" y1="176.5909" y2="150.7154"/>
    <line x1="192.2292" x2="223.9171" y1="148.6449" y2="174.4308"/>
    <line x1="226.2743" x2="194.6248" y1="172.2538" y2="146.5563"/>
    <line x1="197.0196" x2="228.6313" y1="144.4498" y2="170.0604"/>
    <line x1="230.988" x2="199.4136" y1="167.8507" y2="142.3257"/>
    <line x1="201.8068" x2="233.3445" y1="140.1842" y2="165.6251"/>
    <line x1="235.7008" x2="204.1993" y1="163.3838" y2="138.0256"/>
    <polyline points="127.2659,85.9677 78.2935,59.2046 55.0646,48.0"/>
    <line x1="55.0646" x2="78.2935" y1="48.0" y2="59.2046"/>
    <line x1="78.1783" x2="61.7292" y1="55.895" y2="48.0"/>
    <line x1="68.4732" x2="78.0516" y1="48.0" y2="52.5746"/>
    <line x1="77.9136" x2="75.2969" y1="49.2436" y2="48.0"/>
    <polyline points="48.6416,48.0 75.6211,61.0766 124.7023,87.9406"/>
    <polyline points="122.1372,89.894 72.9471,62.9282 48.0,50.8457"/>
    <polyline points="48.0,53.9712 78.5706,69.0684 119.5706,91.8278"/>
    <polyline points="117.0024,93.7418 78.64,72.3344 67.5946,66.5699 48.0,56.9334"/>
    <polyline points="48.0,59.9998 64.9161,68.3597 78.698,75.5893 114.4328,95.6358"/>
    <polyline points="111.8616,97.5096 78.7444,78.8332 62.236,70.1287 48.0,63.0587"/>
    <polyline points="48.0,66.1103 59.5544,71.8767 78.7792,82.066 109.289,99.363"/>
    <polyline points="106.7148,101.1961 78.8026,85.2875 56.8713,73.6036 48.0,69.1544"/>
    <polyline points="48.0,72.1913 54.1867,75.3094 78.8144,88.4979 104.1391,103.0085"/>
    <polyline points="101.5619,104.8002 78.8147,91.697 51.5005,76.994 48.0,75.221"/>
    <polyline points="48.0,78.2435 48.8129,78.6573 78.8034,94.8847 98.9832,106.571"/>
    <polyline points="96.4029,108.321 78.7806,98.0612 48.0,81.3197"/>
    <polyline points="48.0,84.4166 78.7462,101.2263 93.8212,110.0498"/>
    <polyline points="91.2379,111.7576 78.7004,104.38 48.0,87.5082"/>
    <polyline points="48.0,90.5945 78.643,107.5222 88.6531,113.4441"/>
    <polyline points="86.0667,115.1093 78.5741,110.653 48.0,93.6757"/>
    <line x1="48.0" x2="83.4789" y1="96.9487" y2="116.7532"/>
    <line x1="80.8895" x2="48.0" y1="118.3756" y2="99.9222"/>
    <line x1="48.0" x2="78.2986" y1="102.8894" y2="119.9766"/>
    <polyline points="899.212,48.0 997.7204,96.5633 1064.6355,130.7082"/>
    <polyline points="1067.4745,130.2216 1000.6147,96.0817 903.1094,48.0"/>
    <polyline points="907.0004,48.0 1003.5084,95.6 1070.3125,129.7326"/>
    <polyline points="1073.1495,129.2408 1006.4016,95.1177 910.886,48.0"/>
    <polyline points="914.7672,48.0 1009.2943,94.6345 1075.9854,128.7458"/>
    <polyline points="1078.8203,128.2471 1058.2373,117.4883 1012.1865,94.1499 918.6451,48.0"/>
    <polyline points="922.5209,48.0 1015.0781,93.6634 1057.6197,115.1988 1081.6541,127.7443"/>
    <polyline points="1084.4868,127.237 1056.9954,112.9074 1017.9691,93.1747 926.3954,48.0"/>
    <polyline points="930.2699,48.0 1020.8596,92.6832 1056.3647,110.6137 1087.3185,126.7247"/>
    <polyline points="1090.1491,126.207 1055.7276,108.3178 1023.7496,92.1885 934.1453,48.0"/>
    <polyline points="938.0228,48.0 1026.6389,91.6901 1055.0842,106.0193 1092.9786,125.6834"/>
    <polyline points="1095.8071,125.1536 1054.4348,103.7181 1029.5277,91.1877 941.9034,48.0"/>
    <polyline points="945.7881,48.0 1032.4159,90.6809 1053.7795,101.4141 1098.6344,124.617"/>
    <polyline points="1101.4606,124.0734 1035.3034,90.169 949.6781,48.0"/>
    <polyline points="953.5745,48.0 1038.1904,89.6518 1104.0,123.3757"/>
    <polyline points="1104.0,121.3696 1041.0768,89.1288 957.4781,48.0"/>
    <polyline points="961.3903,48.0 1043.9625,88.5995 1104.0,119.3562"/>
    <polyline points="1104.0,117.3354 1046.8476,88.0636 965.3119,48.0"/>
    <polyline points="969.2442,48.0 1049.7321,87.5206 1104.0,115.3069"/>
    <line x1="1076.9619" x2="1018.0842" y1="218.8893" y2="185.5557"/>
    <line x1="1015.2799" x2="1074.2546" y1="186.2341" y2="219.5083"/>
    <line x1="1071.5458" x2="1012.4744" y1="220.1382" y2="186.9254"/>
    <polyline points="1009.6676,187.6298 1019.4537,192.8418 1068.8355,220.7794"/>
    <polyline points="1066.1237,221.4322 1019.8916,195.2845 1006.8597,188.3477"/>
    <polyline points="1004.0506,189.0794 1020.32,197.7345 1063.4104,222.0971"/>
    <polyline points="1060.6956,222.7744 1020.7388,200.1918 1001.2403,189.8254"/>
    <polyline points="998.4288,190.5858 1021.1479,202.6565 1057.9794,223.4644"/>
    <polyline points="1055.2617,224.1676 1021.5473,205.129 995.6161,191.3612"/>
    <polyline points="992.8023,192.1516 1021.9368,207.6091 1052.5426,224.8843"/>
    <polyline points="1049.8219,225.6148 1022.3164,210.0972 989.9873,192.9576"/>
    <polyline points="987.1711,193.7794 1022.6859,212.5933 1047.0998,226.3594"/>
    <polyline points="1044.3763,227.1185 1023.0453,215.0975 984.3538,194.6173"/>
    <polyline points="981.5354,195.4715 1023.3944,217.61 1041.6513,227.8925"/>
    <polyline points="1038.9248,228.6816 1023.7333,220.1308 978.7158,196.3425"/>
    <polyline points="975.895,197.2303 1024.0619,222.6602 1036.1969,229.4861"/>
    <polyline points="1033.4675,230.3065 1024.3799,225.1982 973.0732,198.1355"/>
    <line x1="970.2502" x2="1030.7367" y1="199.0581" y2="231.1429"/>
    <line x1="1028.0044" x2="967.4261" y1="231.9956" y2="199.9984"/>
    <line x1="964.6008" x2="1025.2707" y1="200.9568" y2="232.865"/>
    <polyline points="1025.9555,284.5734 970.2996,254.1242 911.2996,225.7757 840.5807,194.858"/>
    <polyline points="843.4784,193.391 910.7183,222.8572 973.0614,252.8734 1028.6129,283.4268 1076.5207,314.4985 1104.0,335.8708"/>
    <line x1="1104.0" x2="1076.5207" y1="335.8708" y2="314.4985"/>
    <line x1="1079.0682" x2="1104.0" y1="313.471" y2="332.8752"/>
    <line x1="1104.0" x2="1081.6143" y1="329.8961" y2="312.4624"/>
    <line x1="1084.1589" x2="1104.0" y1="311.4724" y2="326.9336"/>
    <line x1="1104.0" x2="1086.7021" y1="323.9875" y2="310.5008"/>
    <line x1="1089.2438" x2="1104.0" y1="309.5474" y2="321.0581"/>
    <line x1="1104.0" x2="1091.784" y1="318.1454" y2="308.612"/>
    <line x1="1094.3228" x2="1104.0" y1="307.6942" y2="315.2493"/>
    <line x1="1104.0" x2="1096.8601" y1="312.37" y2="306.7938"/>
    <line x1="1099.3959" x2="1104.0" y1="305.9106" y2="309.5073"/>
    <line x1="1104.0" x2="1101.9303" y1="306.6615" y2="305.0442"/>
    <polyline points="1104.0,338.775 1073.9716,315.5451 1028.6755,286.1906"/>
    <polyline points="1028.7267,288.9653 1071.4211,316.6109 1076.0437,319.8902 1104.0,341.6151"/>
    <polyline points="1104.0,344.5139 1075.7888,322.6016 1068.8691,317.6962 1028.7663,291.7508"/>
    <polyline points="1028.7944,294.5472 1066.3157,318.8011 1075.5231,325.3234 1104.0,347.4305"/>
    <polyline points="1104.0,350.3649 1075.2465,328.0558 1063.7607,319.9259 1028.8109,297.3545"/>
    <polyline points="1028.8159,300.1729 1061.2042,321.0707 1074.9593,330.7987 1102.3678,352.0515"/>
    <polyline points="1099.9072,353.1156 1074.6614,333.5523 1058.6463,322.2356 1028.8094,303.0024"/>
    <polyline points="1028.7913,305.843 1056.0869,323.4209 1074.353,336.3167 1097.4454,354.1991"/>
    <polyline points="1094.9824,355.3023 1074.034,339.0918 1053.5259,324.6266 1028.7617,308.6947"/>
    <polyline points="1028.7206,311.5577 1050.9635,325.8529 1073.7046,341.8778 1092.5182,356.4252"/>
    <polyline points="1090.0527,357.5682 1073.3648,344.6747 1048.3996,327.1 1028.668,314.4319"/>
    <polyline points="1028.6038,317.3174 1045.8342,328.3679 1073.0148,347.4826 1087.5859,358.7313"/>
    <polyline points="1085.1179,359.9147 1072.6545,350.3015 1043.2672,329.6567 1028.5281,320.2142"/>
    <polyline points="1028.441,323.1224 1040.6988,330.9666 1072.2841,353.1315 1082.6487,361.1186"/>
    <polyline points="1080.1782,362.343 1071.9037,355.9725 1038.1289,332.2976 1028.3424,326.0419"/>
    <polyline points="1028.2324,328.9729 1035.5574,333.6498 1071.5134,358.8248 1077.7064,363.5881"/>
    <polyline points="1075.2334,364.8541 1071.1132,361.6883 1032.9845,335.0234 1028.111,331.9153"/>
    <line x1="1027.9782" x2="1072.7591" y1="334.8692" y2="366.1411"/>
    <line x1="1070.2835" x2="1027.834" y1="367.449" y2="337.8345"/>
    <polyline points="1007.3108,293.1725 975.5586,275.9088 950.9292,263.4694 915.151,246.526 887.9219,234.3209 849.1661,217.7004 820.2852,205.7301"/>
    <polyline points="823.1858,204.1124 848.4698,214.6213 890.7748,232.8127 914.625,243.5272 953.7005,262.0707 975.2835,272.9898 1009.9789,291.8818"/>
    <polyline points="1012.6455,290.612 974.9977,270.0821 956.4704,260.6932 914.0907,240.5399 893.6267,231.3261 847.7691,211.5538 826.086,202.5162"/>
    <polyline points="828.9858,200.9415 896.4777,229.861 913.5482,237.5641 959.2389,259.3371 974.7012,267.1858 1015.3106,289.3631"/>
    <polyline points="1017.9741,288.1349 974.3942,264.3008 962.0061,258.0023 912.9978,234.5998 899.3278,228.4174 831.8852,199.3884"/>
    <polyline points="834.7841,197.8567 902.1769,226.9953 912.4394,231.647 964.772,256.6885 974.0766,261.4271 1020.6361,286.9273"/>
    <polyline points="1023.2966,285.7402 967.5365,255.3959 911.8733,228.7056 837.6826,196.3466"/>
    <polyline points="817.3843,207.3691 849.8576,220.791 885.068,235.8506 915.6687,249.5364 948.1567,264.8896 975.8229,278.8393 1004.6411,294.4843"/>
    <polyline points="1001.9699,295.8173 976.0764,281.7811 945.3828,266.3313 916.1778,252.5583 882.2133,237.4018 850.5443,223.8931 814.4829,209.0296"/>
    <polyline points="811.5812,210.7113 851.2259,227.0066 879.3576,238.9745 916.6783,255.5917 942.6075,267.7944 976.3189,284.7345 999.2971,297.1715"/>
    <polyline points="996.6229,298.5469 976.5505,287.6993 939.831,269.2791 917.1701,258.6367 876.501,240.5688 851.9024,230.1317 808.6791,212.4143"/>
    <polyline points="805.7767,214.1384 852.5736,233.2682 873.6435,242.1845 917.653,261.6932 937.0531,270.7853 976.7711,290.6756 993.9471,299.9437"/>
    <polyline points="991.2698,301.362 976.9806,293.6635 934.2739,272.313 918.127,264.7612 870.7852,243.8216 802.8739,215.8836"/>
    <polyline points="799.9708,217.6498 867.9259,245.4801 918.5918,267.8408 931.4935,273.8622 977.1789,296.6628 988.5909,302.8017"/>
    <polyline points="985.9106,304.2629 977.3661,299.6737 928.7117,275.433 919.0475,270.9319 865.0657,247.1599 797.0673,219.4368"/>
    <polyline points="794.1636,221.2446 862.2047,248.8609 919.494,274.0345 977.5421,302.6961 983.2287,305.7456"/>
    <polyline points="980.5453,307.2498 919.931,277.1486 859.3428,250.5831 791.2595,223.073"/>
    <polyline points="788.3551,224.9219 856.48,252.3264 920.3585,280.2742 977.8604,308.7756"/>
    <polyline points="978.6006,368.815 1022.9986,396.3637 1060.6147,424.4591"/>
    <line x1="1063.0312" x2="1095.715" y1="422.8532" y2="451.6133"/>
    <line x1="1098.0799" x2="1065.4467" y1="450.1385" y2="421.2687"/>
    <line x1="1067.8613" x2="1100.4443" y1="419.7058" y2="448.6851"/>
    <polyline points="1102.8083,447.2532 1096.2286,441.0829 1070.2749,418.1643"/>
    <polyline points="1072.6875,416.6445 1096.9387,438.1051 1104.0,444.7414"/>
    <polyline points="1104.0,441.1243 1097.6446,435.1387 1075.0992,415.1461"/>
    <polyline points="1077.5099,413.6693 1098.3461,432.1838 1104.0,437.5198"/>
    <polyline points="1104.0,433.9279 1099.0432,429.2403 1079.9198,412.214"/>
    <polyline points="1082.3286,410.7802 1099.7355,426.3083 1104.0,430.3491"/>
    <polyline points="1104.0,426.7836 1100.4231,423.3877 1084.7366,409.3678"/>
    <polyline points="1087.1436,407.9768 1101.1056,420.4785 1104.0,423.2315"/>
    <polyline points="1104.0,419.6931 1101.783,417.5806 1089.5498,406.6071"/>
    <polyline points="1091.955,405.2588 1102.4552,414.6941 1104.0,416.1688"/>
    <polyline points="1104.0,412.6586 1103.1218,411.8189 1094.3594,403.9316"/>
    <polyline points="1096.7628,402.6256 1103.7828,408.9549 1104.0,409.1629"/>
    <line x1="1104.0" x2="1099.1654" y1="405.9336" y2="401.3406"/>
    <line x1="1101.5671" x2="1104.0" y1="400.0765" y2="402.3989"/>
    <line x1="1104.0" x2="1103.9679" y1="398.864" y2="398.8332"/>
    <polyline points="1104.0,463.2773 1093.3497,453.1097 1060.6147,424.4591 1093.3497,453.1097"/>
    <polyline points="1014.5068,458.9486 1048.3143,485.5887 1079.1288,512.7463 1104.0,535.1337"/>
    <polyline points="1104.0,535.1337 1079.1288,512.7463 1048.3143,485.5887 1014.5068,458.9486 975.2208,432.8009 928.8119,407.1155"/>
    <polyline points="931.4462,404.9363 977.7482,430.7098 1016.9431,456.952 1050.6895,483.692 1079.8884,509.5055 1104.0,531.2848"/>
    <polyline points="1104.0,527.442 1080.6478,506.2758 1053.0642,481.8154 1019.3783,454.9746 980.2741,428.6368 975.765,425.8926 934.0791,402.7738"/>
    <polyline points="936.7103,400.6284 976.0209,422.453 982.7985,426.5822 1016.0652,448.8097 1021.8124,453.0167 1050.3919,475.6703 1055.4382,479.9591 1081.4067,503.0573 1104.0,523.6055"/>
    <polyline points="1104.0,519.7756 1082.165,499.8501 1057.8117,478.1233 1051.0747,472.3859 1024.2454,451.0784 1016.5677,445.4508 985.3216,424.5461 976.2659,419.0233 939.3401,398.5002"/>
    <polyline points="941.9682,396.3897 976.4999,415.6035 987.8432,422.5287 1017.0614,442.1025 1026.6773,449.1599 1051.7523,469.1124 1060.1846,476.308 1082.9226,496.6541 1104.0,515.9524"/>
    <polyline points="1104.0,512.1362 1083.6792,493.4694 1062.5569,474.5134 1052.4247,465.85 1029.1082,447.2613 1017.5463,438.7647 990.3634,420.5304 976.7229,412.1937 944.5949,394.2969"/>
    <polyline points="947.22,392.2223 976.9349,408.794 992.8822,418.5513 1018.0223,435.4375 1031.538,445.3829 1053.0916,462.5985 1064.9287,472.7397 1084.4346,490.2961 1104.0,508.3273"/>
    <polyline points="1104.0,504.5259 1085.1888,487.1342 1067.2999,470.9868 1053.7529,459.3582 1033.9667,443.5247 1018.4892,432.1211 995.3996,416.5916 977.1357,405.4046 949.8435,390.1659"/>
    <polyline points="952.4655,388.1281 977.3254,402.0254 997.9155,414.6515 1018.9469,428.8154 1036.3944,441.687 1054.4084,456.1291 1069.6706,469.2551 1085.9415,483.9836 1104.0,500.7322"/>
    <polyline points="1104.0,497.106 1072.0408,467.5444 1055.0581,452.9111 1038.8211,439.8698 1019.3954,425.5206 1000.4301,412.7311 977.5039,398.6566 955.086,386.1091"/>
    <polyline points="957.7049,384.109 977.6712,395.2982 1002.9433,410.8308 1019.8345,422.2367 1041.2467,438.0734 1055.7016,449.7044 1074.4104,465.855 1104.0,493.3247"/>
    <polyline points="1104.0,489.5486 1076.7796,464.1868 1056.339,446.5089 1043.6712,436.2977 1020.2642,418.9637 1005.455,408.9505 977.8272,391.9503 960.3222,382.1281"/>
    <polyline points="962.9381,380.1666 977.9719,388.613 1007.9654,407.0905 1020.6843,415.7017 1046.0947,434.543 1056.97,443.3247 1079.1482,462.54 1104.0,485.778"/>
    <polyline points="1104.0,482.013 1081.5163,460.9145 1057.5946,440.1519 1048.5173,432.8093 1021.0947,412.4508 1010.4744,405.2509 978.1052,385.2863 965.5523,378.2247"/>
    <polyline points="968.1651,376.3026 978.2271,381.9704 1012.982,403.4319 1021.4954,409.211 1050.9387,431.0967 1058.2124,436.9905 1083.8839,459.3106 1104.0,478.2538"/>
    <polyline points="1104.0,474.5004 1086.2511,457.7281 1058.8235,433.8405 1053.3592,429.4053 1021.8862,405.9823 1015.4882,401.6335 978.3377,378.6652 970.7763,374.4004"/>
    <polyline points="973.3859,372.5183 978.4368,375.3709 1017.993,399.856 1022.267,402.7649 1055.7787,427.7352 1088.6178,456.1671 1104.0,470.7531"/>
    <polyline points="1104.0,467.012 1090.984,454.6276 1058.1972,426.0865 1020.4965,398.0993 975.994,370.6564"/>
    <line x1="1022.9986" x2="1022.9986" y1="396.3637" y2="396.3637"/>
    <line x1="975.2208" x2="975.2208" y1="432.8009" y2="432.8009"/>
    <polyline points="1004.7505,467.1229 1012.3141,472.6094 1038.8072,493.3737 1045.4819,498.9628 1100.4032,547.394"/>
    <polyline points="1102.7754,545.624 1046.1962,495.6035 1012.8742,469.1792 1007.1913,465.0516"/>
    <polyline points="1009.6309,462.9986 1046.9064,492.2546 1104.0,542.8574"/>
    <polyline points="1104.0,538.9874 1076.7753,514.5597 1047.6125,488.9164 1012.0694,460.9642"/>
    <polyline points="1002.3086,469.2124 1011.7463,476.0494 1036.4289,495.3686 1067.3609,522.0178 1098.0315,549.1848"/>
    <polyline points="1095.6604,550.9963 1065.0072,523.9327 1034.0499,497.3824 1011.1709,479.4992 999.8656,471.3197"/>
    <polyline points="997.4215,473.4447 1010.588,482.9586 1031.6703,499.4151 1043.3166,509.1031 1093.2899,552.8284"/>
    <polyline points="1090.9198,554.681 1042.588,512.5037 1029.29,501.4665 1009.9978,486.4276 994.9762,475.587"/>
    <polyline points="992.5298,477.7464 1009.4003,489.9061 1026.9091,503.5361 1041.8561,515.9144 1088.5503,556.5539"/>
    <polyline points="1086.1813,558.447 1041.1213,519.3351 1024.5275,505.624 1008.7959,493.3939 990.0822,479.9226"/>
    <polyline points="987.6334,482.1153 1008.1845,496.891 1022.1452,507.7297 1040.3836,522.7657 1083.8128,560.3601"/>
    <polyline points="1081.4448,562.293 1039.6432,526.2062 1019.7622,509.853 1007.5663,500.3972 985.1835,484.3243"/>
    <polyline points="982.7324,486.5493 1006.9414,503.9125 1017.3785,511.9938 1038.9003,529.6564 1079.0773,564.2456"/>
    <polyline points="1076.7103,566.2177 1038.1551,533.1163 1014.9941,514.1516 1006.3101,507.4367 980.2801,488.7898"/>
    <polyline points="977.8266,491.0457 1005.6725,510.9697 1012.609,516.3263 1037.4078,536.5857 1074.3437,568.209"/>
    <polyline points="1071.9776,570.2194 1036.6585,540.0646 1010.2232,518.5176 1005.0286,514.5115 975.372,493.3166"/>
    <polyline points="972.9161,495.6022 1007.8367,520.7251 1035.9073,543.5529 1069.612,572.2487"/>
    <polyline points="1067.2468,574.2967 1035.1545,547.0504 1005.4494,522.9486 970.4591,497.9022"/>
    <polygon points="968.0008,500.2161 1003.0613,525.1878 1034.4003,550.557 1064.8821,576.363 1034.4003,550.557 1003.0613,525.1878"/>
    <polyline points="965.5413,502.5438 1002.3942,528.7631 1032.0449,552.7302 1062.5177,578.4476"/>
    <polyline points="1060.1538,580.5501 1029.6894,554.92 1001.7216,532.3466 963.0806,504.8848"/>
    <polyline points="960.6187,507.2387 966.545,511.1249 995.8927,531.9961 1001.0437,535.9381 1027.3337,557.126 1057.7903,582.6702"/>
    <polyline points="1055.4273,584.8078 1024.9778,559.3481 1000.3607,539.5374 993.5017,534.2948 966.0422,514.7751 958.1556,509.6053"/>
    <polyline points="955.6912,511.9842 965.5307,518.4321 991.1098,536.6075 999.6727,543.1444 1022.6217,561.5858 1053.0646,586.9626"/>
    <polyline points="1050.7023,589.1342 1020.2653,563.8389 998.9799,546.7591 988.7172,538.9339 965.0108,522.0958 953.2256,514.3749"/>
    <polyline points="950.7588,516.7771 964.4826,525.766 986.3238,541.2737 998.2824,550.3812 1017.9088,566.1071 1048.3404,591.3225"/>
    <polyline points="1045.9788,593.5271 1015.552,568.3901 997.5805,554.0106 983.9295,543.6265 963.9461,529.4425 948.2907,519.1904"/>
    <polyline points="945.8213,521.6145 963.4015,533.1252 981.5345,545.9919 996.8742,557.6472 1013.1949,570.6874 1043.6177,595.7477"/>
    <polyline points="1041.2569,597.984 1010.8376,572.9989 996.1638,561.2909 979.1386,548.3696 962.8489,536.8139 943.3507,524.049"/>
    <polyline points="940.8788,526.4934 962.2884,540.5085 976.7419,550.7593 995.4493,564.9414 1038.8964,600.2357"/>
    <polyline points="1036.5363,602.5026 994.731,568.5988 974.3444,553.1605 961.7203,544.2089 938.4057,528.9473"/>
    <polyline points="935.9313,531.4105 961.1445,547.9149 971.9461,555.5728 994.009,572.2627 1034.1765,604.7842"/>
    <polyline points="1031.817,607.0803 993.2836,575.9332 969.5469,557.996 960.5613,551.6263 933.4556,533.8823"/>
    <polyline points="930.9786,536.3625 959.9707,555.343 967.1468,560.4295 992.5547,579.61 1029.4578,609.3904"/>
    <polyline points="1027.099,611.7144 991.8227,583.2929 964.7459,562.873 959.373,559.0648 928.5003,538.8507"/>
    <polyline points="926.0208,541.3463 962.3442,565.3261 991.0878,586.9819 1024.7404,614.0518"/>
    <polyline points="1022.3821,616.4022 990.3499,590.6768 959.9415,567.7884 923.5399,543.849"/>
    <polyline points="921.0577,546.3584 957.538,570.2595 989.6094,594.3775 1020.0242,618.7654"/>
    <line x1="989.6094" x2="989.6094" y1="594.3775" y2="594.3775"/>
    <line x1="957.538" x2="957.538" y1="570.2595" y2="570.2595"/>
    <line x1="911.6942" x2="944.6982" y1="618.3167" y2="641.9124"/>
    <line x1="942.33" x2="911.1181" y1="644.4642" y2="622.115"/>
    <line x1="910.5346" x2="939.9614" y1="625.9132" y2="647.018"/>
    <line x1="937.5922" x2="909.9437" y1="649.5732" y2="629.7112"/>
    <line x1="909.3456" x2="935.2225" y1="633.5086" y2="652.1295"/>
    <line x1="932.8523" x2="908.7405" y1="654.6864" y2="637.3055"/>
    <line x1="908.1285" x2="930.4816" y1="641.1015" y2="657.2435"/>
    <line x1="928.1103" x2="907.5097" y1="659.8002" y2="644.8965"/>
    <line x1="906.8842" x2="925.7384" y1="648.6904" y2="662.3562"/>
    <line x1="923.366" x2="906.2523" y1="664.9111" y2="652.4829"/>
    <line x1="905.6141" x2="920.9931" y1="656.2739" y2="667.4642"/>
    <line x1="918.6196" x2="904.9697" y1="670.0154" y2="660.0632"/>
    <line x1="904.3193" x2="916.2455" y1="663.8507" y2="672.5639"/>
    <line x1="913.8708" x2="903.6629" y1="675.1096" y2="667.6361"/>
    <line x1="903.0008" x2="911.4955" y1="671.4193" y2="677.6518"/>
    <line x1="909.1196" x2="902.3332" y1="680.1901" y2="675.2002"/>
    <line x1="901.6601" x2="906.7431" y1="678.9785" y2="682.7242"/>
    <line x1="904.366" x2="900.9817" y1="685.2536" y2="682.754"/>
    <line x1="900.2983" x2="901.9882" y1="686.5267" y2="687.7778"/>
    <line x1="899.6098" x2="899.6098" y1="690.2964" y2="690.2964"/>
    <line x1="930.5441" x2="961.2131" y1="714.023" y2="737.6511"/>
    <line x1="963.5847" x2="932.8978" y1="735.096" y2="711.4805"/>
    <line x1="935.2514" x2="965.9569" y1="708.9346" y2="732.5398"/>
    <line x1="968.3296" x2="937.605" y1="729.983" y2="706.3858"/>
    <line x1="939.9585" x2="970.7028" y1="703.8344" y2="727.4259"/>
    <line x1="973.0767" x2="942.312" y1="724.8691" y2="701.2811"/>
    <line x1="944.6656" x2="975.4511" y1="698.7261" y2="722.313"/>
    <line x1="977.8262" x2="947.0191" y1="719.758" y2="696.17"/>
    <line x1="949.3726" x2="980.2018" y1="693.6132" y2="717.2045"/>
    <line x1="982.578" x2="951.7262" y1="714.6531" y2="691.0562"/>
    <line x1="954.0797" x2="984.9549" y1="688.4993" y2="712.1041"/>
    <line x1="987.3324" x2="956.4333" y1="709.5581" y2="685.9431"/>
    <line x1="958.787" x2="989.7105" y1="683.388" y2="707.0154"/>
    <line x1="992.0892" x2="961.1407" y1="704.4765" y2="680.8344"/>
    <line x1="963.4944" x2="994.4686" y1="678.2827" y2="701.9418"/>
    <line x1="996.8487" x2="965.8482" y1="699.4118" y2="675.7335"/>
    <line x1="968.2021" x2="999.2294" y1="673.1872" y2="696.8869"/>
    <line x1="1001.6108" x2="970.5561" y1="694.3675" y2="670.6442"/>
    <line x1="972.9102" x2="1003.9928" y1="668.1049" y2="691.8541"/>
    <line x1="1006.3756" x2="975.2643" y1="689.3471" y2="665.5698"/>
    <line x1="1033.5863" x2="1039.484" y1="720.7299" y2="724.5114"/>
    <line x1="1039.9575" x2="1036.0335" y1="720.77" y2="718.2453"/>
    <line x1="1038.4819" x2="1040.44" y1="715.7688" y2="717.0332"/>
    <line x1="1040.9314" x2="1081.3024" y1="713.3009" y2="737.4861"/>
    <line x1="1083.8481" x2="1043.3821" y1="735.0788" y2="710.8419"/>
    <line x1="1045.834" x2="1086.3953" y1="708.3922" y2="732.6828"/>
    <polyline points="1088.944,730.2986 1082.0613,726.4349 1048.2871,705.9523"/>
    <polyline points="1050.7413,703.5226 1082.3359,722.7636 1091.4941,727.9264"/>
    <polyline points="1094.0458,725.5667 1082.6212,719.0987 1053.1967,701.1033"/>
    <polyline points="1055.6534,698.695 1082.9172,715.4404 1096.5989,723.2197"/>
    <polyline points="1099.1535,720.886 1083.2238,711.7889 1058.1112,696.2979"/>
    <polyline points="1060.5703,693.9126 1083.5409,708.1443 1101.7095,718.5658"/>
    <polyline points="1104.0,716.1055 1083.8685,704.5068 1063.0306,691.5393"/>
    <polyline points="1065.4921,689.1784 1084.2065,700.8764 1104.0,712.3316"/>
    <polyline points="1104.0,708.558 1084.5547,697.2532 1067.9548,686.8303"/>
    <polyline points="1070.4187,684.4953 1084.9132,693.6376 1104.0,704.7847"/>
    <polyline points="1104.0,701.0117 1085.2818,690.0295 1072.8839,682.1739"/>
    <polyline points="1075.3503,679.8662 1085.6604,686.4291 1104.0,697.239"/>
    <polyline points="1104.0,693.4669 1086.049,682.8366 1077.818,677.5728"/>
    <polyline points="1080.2869,675.2938 1086.4475,679.252 1104.0,689.6952"/>
    <line x1="1104.0" x2="1082.7571" y1="685.8274" y2="673.0297"/>
    <line x1="1085.2286" x2="1104.0" y1="670.7808" y2="682.0993"/>
    <polygon points="1104.0,678.3838 1087.7013,668.5473"/>
    <line x1="1104.0" x2="1090.1753" y1="674.7152" y2="666.3296"/>
    <line x1="1092.6505" x2="1104.0" y1="664.1279" y2="671.0472"/>
    <line x1="1104.0" x2="1095.1271" y1="667.3798" y2="661.9427"/>
    <line x1="1097.6049" x2="1104.0" y1="659.7741" y2="663.713"/>
    <line x1="1104.0" x2="1100.084" y1="660.0469" y2="657.6224"/>
    <line x1="1102.5644" x2="1104.0" y1="655.488" y2="656.3814"/>
    <line x1="1102.3318" x2="1104.0" y1="48.0" y2="48.7802"/>
    <line x1="1104.0" x2="1097.5302" y1="51.0328" y2="48.0"/>
    <line x1="1092.7731" x2="1104.0" y1="48.0" y2="53.2746"/>
    <line x1="1104.0" x2="1088.0595" y1="55.5058" y2="48.0"/>
    <line x1="1083.3882" x2="1104.0" y1="48.0" y2="57.7265"/>
    <line x1="1104.0" x2="1078.7582" y1="59.9367" y2="48.0"/>
    <line x1="1074.1684" x2="1104.0" y1="48.0" y2="62.1366"/>
    <line x1="1104.0" x2="1069.6176" y1="64.3264" y2="48.0"/>
    <line x1="1065.1047" x2="1104.0" y1="48.0" y2="66.5061"/>
    <line x1="1104.0" x2="1060.6286" y1="68.6758" y2="48.0"/>
    <line x1="1056.1883" x2="1104.0" y1="48.0" y2="70.8357"/>
    <line x1="1104.0" x2="1051.7826" y1="72.986" y2="48.0"/>
    <line x1="1047.4104" x2="1104.0" y1="48.0" y2="75.1267"/>
    <line x1="1049.7321" x2="1049.7321" y1="87.5206" y2="87.5206"/>
    <polyline points="1056.1122,132.1586 996.2574,101.6056 887.3554,48.0"/>
    <polyline points="891.335,48.0 995.5435,99.3252 1058.9543,131.6763"/>
    <polyline points="1053.2691,132.6404 986.1385,98.4982 883.3922,48.0"/>
    <polyline points="879.4014,48.0 983.2418,98.9862 1050.425,133.122"/>
    <polyline points="1047.5799,133.604 980.3447,99.4769 875.3992,48.0"/>
    <polyline points="871.3846,48.0 977.4471,99.9705 1044.7338,134.0868"/>
    <polyline points="1041.8868,134.5708 999.7635,113.0232 974.549,100.4677 867.3568,48.0"/>
    <polyline points="863.3145,48.0 971.6505,100.9688 1000.4508,115.311 1039.0387,135.0565"/>
    <polyline points="1036.1897,135.5442 1001.1332,117.6007 968.7516,101.4742 862.8032,49.7319"/>
    <polyline points="863.5246,52.0691 965.8523,101.9845 1001.8103,119.8923 1033.3398,136.0346"/>
    <polyline points="1030.4888,136.528 1002.4822,122.1862 962.9525,102.5 864.2496,54.4109"/>
    <polyline points="864.978,56.7573 960.0524,103.0212 1003.1487,124.4824 1027.637,137.0248"/>
    <polyline points="1024.7842,137.5255 957.1519,103.5485 865.7096,59.1085"/>
    <polyline points="866.4442,61.4647 954.2509,104.0823 1021.9304,138.0306"/>
    <polyline points="1019.0757,138.5404 951.3496,104.6231 867.1816,63.8261"/>
    <polyline points="867.9218,66.1928 948.4479,105.1713 1016.2202,139.0554"/>
    <polyline points="1013.3637,139.5761 945.5459,105.7272 868.6644,68.5649"/>
    <polyline points="869.4094,70.9427 942.6435,106.2914 1010.5063,140.1028"/>
    <polyline points="1004.7887,141.1761 940.4807,109.2157 870.9057,75.7157"/>
    <polyline points="871.6567,78.1112 941.2181,111.5721 1001.9287,141.7236"/>
    <polyline points="999.0677,142.2788 941.9525,113.9337 872.4094,80.5129"/>
    <polyline points="873.1635,82.921 942.684,116.3007 996.2059,142.8422"/>
    <polyline points="993.3432,143.4142 943.4122,118.673 873.9189,85.3356"/>
    <polyline points="874.6755,87.7568 944.1371,121.0511 990.4796,143.9952"/>
    <polyline points="987.6152,144.5856 944.8584,123.4348 875.433,90.1848"/>
    <polyline points="876.1913,92.6198 945.5761,125.8246 984.75,145.1858"/>
    <polyline points="981.8839,145.7961 946.2898,128.2203 876.9502,95.0619"/>
    <polyline points="877.7095,97.5111 946.9995,130.6224 979.017,146.4171"/>
    <polyline points="976.1493,147.049 947.7051,133.0307 878.4691,99.9678"/>
    <polyline points="879.2287,102.4318 948.4062,135.4456 973.2808,147.6923"/>
    <polyline points="970.4114,148.3473 949.1029,137.8672 879.9883,104.9036"/>
    <line x1="880.7476" x2="967.5413" y1="107.383" y2="149.0144"/>
    <line x1="964.6703" x2="881.5065" y1="149.694" y2="109.8704"/>
    <line x1="882.2647" x2="961.7986" y1="112.3657" y2="150.3864"/>
    <line x1="958.9261" x2="883.0221" y1="151.092" y2="114.8692"/>
    <line x1="883.7786" x2="956.0529" y1="117.3809" y2="151.8112"/>
    <line x1="953.1789" x2="884.5339" y1="152.5442" y2="119.901"/>
    <polygon points="939.7407,106.8642 1007.6479,140.636 939.7407,106.8642 870.1566,73.3262"/>
    <polyline points="994.8257,97.0454 1061.7954,131.193 994.8257,97.0454 895.307,48.0"/>
    <line x1="895.307" x2="994.8257" y1="48.0" y2="97.0454"/>
    <polyline points="520.9262,761.0042 457.3372,727.5451 389.3703,693.8366 319.7832,659.9326"/>
    <line x1="320.5314" x2="316.8783" y1="662.2343" y2="660.4445"/>
    <line x1="313.9737" x2="321.2815" y1="660.9514" y2="664.5332"/>
    <line x1="322.0334" x2="311.0693" y1="666.8297" y2="661.4539"/>
    <line x1="308.1653" x2="322.7868" y1="661.9522" y2="669.1237"/>
    <line x1="323.5416" x2="305.2616" y1="671.4156" y2="662.4469"/>
    <line x1="302.3582" x2="324.2976" y1="662.9385" y2="673.7054"/>
    <line x1="325.0546" x2="299.4551" y1="675.9934" y2="663.4273"/>
    <line x1="296.5524" x2="325.8126" y1="663.9138" y2="678.2797"/>
    <line x1="326.5712" x2="293.65" y1="680.5645" y2="664.3984"/>
    <line x1="290.748" x2="327.3303" y1="664.8816" y2="682.8479"/>
    <line x1="328.0898" x2="287.8463" y1="685.1302" y2="665.3639"/>
    <line x1="284.945" x2="328.8494" y1="665.8456" y2="687.4115"/>
    <line x1="329.6091" x2="282.0441" y1="689.692" y2="666.3272"/>
    <line x1="279.1436" x2="330.3685" y1="666.8093" y2="691.9719"/>
    <line x1="331.1276" x2="276.2435" y1="694.2513" y2="667.2921"/>
    <line x1="273.3437" x2="331.8862" y1="667.7762" y2="696.5305"/>
    <line x1="332.644" x2="270.4444" y1="698.8095" y2="668.2621"/>
    <line x1="267.5455" x2="333.401" y1="668.7501" y2="701.0886"/>
    <polyline points="334.1569,703.3679 264.6471,669.2407 197.3121,635.1923"/>
    <line x1="194.4651" x2="261.7491" y1="635.7082" y2="669.7343"/>
    <line x1="258.8515" x2="191.6191" y1="670.2314" y2="636.2299"/>
    <line x1="188.774" x2="255.9544" y1="636.7577" y2="670.7325"/>
    <line x1="253.0577" x2="185.93" y1="671.2379" y2="637.2921"/>
    <line x1="183.087" x2="250.1615" y1="637.8334" y2="671.7481"/>
    <line x1="247.2658" x2="180.2449" y1="672.2636" y2="638.3822"/>
    <polyline points="177.4039,638.9388 201.6117,651.3864 244.3706,672.7847"/>
    <polyline points="241.4759,673.3119 202.2522,653.7145 174.5639,639.5037"/>
    <polyline points="171.7249,640.0772 202.8989,656.0468 238.5817,673.8457"/>
    <polyline points="235.688,674.3864 203.5515,658.3834 168.8869,640.6597"/>
    <polyline points="166.05,641.2518 204.2099,660.7245 232.7948,674.9345"/>
    <line x1="229.9021" x2="163.2142" y1="675.4904" y2="641.8537"/>
    <line x1="160.3794" x2="227.01" y1="642.4658" y2="676.0544"/>
    <line x1="224.1184" x2="157.5456" y1="676.6271" y2="643.0887"/>
    <line x1="154.7129" x2="221.2274" y1="643.7225" y2="677.2089"/>
    <line x1="218.3369" x2="151.8813" y1="677.8" y2="644.3678"/>
    <line x1="149.0508" x2="215.447" y1="645.0248" y2="678.401"/>
    <line x1="212.5577" x2="146.2213" y1="679.0122" y2="645.6941"/>
    <line x1="140.5657" x2="206.7808" y1="647.0705" y2="680.2669"/>
    <polygon points="209.669,679.6341 143.3929,646.3759"/>
    <line x1="203.8933" x2="137.7395" y1="680.9111" y2="647.7784"/>
    <line x1="134.9144" x2="201.0063" y1="648.4999" y2="681.5671"/>
    <line x1="198.12" x2="132.0905" y1="682.2352" y2="649.2354"/>
    <line x1="129.2677" x2="195.2343" y1="649.9851" y2="682.9158"/>
    <polyline points="192.3493,683.6093 146.7524,661.0865 126.446,650.7495"/>
    <polyline points="123.6254,651.5288 147.339,663.5645 189.4648,684.316"/>
    <polyline points="186.5811,685.0362 147.9328,666.0504 120.806,652.3233"/>
    <polyline points="117.9877,653.1334 148.5338,668.5443 183.6979,685.7704"/>
    <polyline points="180.8155,686.5188 149.1418,671.0462 115.1705,653.9594"/>
    <polyline points="112.3545,654.8015 149.7566,673.5564 177.9337,687.2818"/>
    <polyline points="175.0526,688.0597 150.3781,676.075 109.5397,655.6602"/>
    <line x1="106.7261" x2="172.1721" y1="656.5355" y2="688.8529"/>
    <line x1="169.2924" x2="103.9136" y1="689.6615" y2="657.4279"/>
    <line x1="101.1022" x2="166.4134" y1="658.3376" y2="690.4861"/>
    <line x1="163.5351" x2="98.2921" y1="691.3267" y2="659.2648"/>
    <line x1="95.4832" x2="160.6575" y1="660.2099" y2="692.1838"/>
    <line x1="157.7806" x2="92.6754" y1="693.0577" y2="661.173"/>
    <line x1="87.0635" x2="152.029" y1="663.1544" y2="694.8566"/>
    <polygon points="154.9044,693.9485 89.8689,662.1545"/>
    <line x1="149.1544" x2="84.2594" y1="695.7822" y2="664.1731"/>
    <line x1="81.4565" x2="146.2804" y1="665.2108" y2="696.7257"/>
    <line x1="143.4073" x2="78.6548" y1="697.6871" y2="666.2677"/>
    <line x1="75.8543" x2="140.5349" y1="667.3439" y2="698.6669"/>
    <polyline points="137.6633,699.6651 92.885,678.2462 73.0551,668.4397"/>
    <polyline points="70.257,669.5553 93.4174,680.9642 134.7925,700.6821"/>
    <polyline points="131.9225,701.7181 93.9579,683.6927 67.4603,670.6907"/>
    <polyline points="64.6648,671.8463 94.5066,686.4318 129.0533,702.7732"/>
    <polyline points="126.1849,703.8477 95.0631,689.1815 61.8705,673.0221"/>
    <polyline points="59.0775,674.2184 95.6274,691.9419 123.3172,704.9417"/>
    <polyline points="120.4505,706.0554 96.1994,694.7131 56.2857,675.4351"/>
    <polyline points="53.4953,676.6725 96.779,697.4951 117.5845,707.1891"/>
    <line x1="114.7194" x2="50.706" y1="708.3428" y2="677.9307"/>
    <line x1="48.0" x2="111.8551" y1="679.2487" y2="709.5168"/>
    <line x1="108.9917" x2="48.0" y1="710.7112" y2="681.8666"/>
    <line x1="48.0" x2="106.1291" y1="684.4989" y2="711.926"/>
    <line x1="103.2674" x2="48.0" y1="713.1616" y2="687.1456"/>
    <line x1="48.0" x2="100.4066" y1="689.8067" y2="714.4179"/>
    <line x1="168.3947" x2="237.9825" y1="744.8395" y2="775.7847"/>
    <line x1="240.8873" x2="171.2984" y1="774.7331" y2="743.6876"/>
    <line x1="174.2024" x2="243.7918" y1="742.5558" y2="773.7006"/>
    <line x1="246.696" x2="177.1067" y1="772.6871" y2="741.4438"/>
    <line x1="180.0113" x2="249.5998" y1="740.3516" y2="771.6922"/>
    <line x1="252.5034" x2="182.9162" y1="770.7158" y2="739.2789"/>
    <line x1="185.8214" x2="255.4066" y1="738.2255" y2="769.7576"/>
    <line x1="258.3096" x2="188.7269" y1="768.8175" y2="737.1913"/>
    <line x1="191.6326" x2="261.2121" y1="736.176" y2="767.8951"/>
    <line x1="264.1143" x2="194.5385" y1="766.9901" y2="735.1795"/>
    <line x1="197.4448" x2="267.0162" y1="734.2014" y2="766.1024"/>
    <line x1="269.9177" x2="200.3512" y1="765.2316" y2="733.2416"/>
    <line x1="203.2579" x2="272.8188" y1="732.2998" y2="764.3775"/>
    <line x1="275.7195" x2="206.1648" y1="763.5398" y2="731.3758"/>
    <line x1="209.0719" x2="278.6198" y1="730.4692" y2="762.7182"/>
    <line x1="281.5198" x2="211.9792" y1="761.9124" y2="729.58"/>
    <line x1="214.8867" x2="284.4193" y1="728.7077" y2="761.1221"/>
    <line x1="287.3184" x2="217.7944" y1="760.3469" y2="727.8521"/>
    <line x1="220.7023" x2="290.2171" y1="727.0129" y2="759.5866"/>
    <polygon points="293.1153,758.8408 223.6103,726.1898"/>
    <line x1="292.3857" x2="226.5185" y1="756.3774" y2="725.3826"/>
    <line x1="229.4269" x2="291.653" y1="724.5908" y2="753.9214"/>
    <line x1="290.9174" x2="232.3354" y1="751.4728" y2="723.8143"/>
    <line x1="235.244" x2="290.1789" y1="723.0526" y2="749.0314"/>
    <line x1="289.4378" x2="238.1528" y1="746.5971" y2="722.3055"/>
    <line x1="241.0617" x2="288.6943" y1="721.5726" y2="744.1697"/>
    <line x1="287.9485" x2="243.9707" y1="741.7491" y2="720.8536"/>
    <line x1="246.8798" x2="287.2006" y1="720.1481" y2="739.3351"/>
    <line x1="286.4507" x2="249.789" y1="736.9276" y2="719.4559"/>
    <line x1="252.6982" x2="285.6991" y1="718.7764" y2="734.5265"/>
    <line x1="284.9459" x2="255.6076" y1="732.1315" y2="718.1094"/>
    <line x1="258.517" x2="284.1913" y1="717.4545" y2="729.7426"/>
    <line x1="283.4354" x2="261.4265" y1="727.3597" y2="716.8113"/>
    <line x1="264.336" x2="282.6785" y1="716.1795" y2="724.9824"/>
    <line x1="281.9207" x2="267.2455" y1="722.6108" y2="715.5587"/>
    <line x1="270.1551" x2="281.1622" y1="714.9484" y2="720.2446"/>
    <line x1="280.4031" x2="273.0647" y1="717.8837" y2="714.3483"/>
    <line x1="275.9744" x2="279.6436" y1="713.7581" y2="715.528"/>
    <line x1="278.884" x2="278.884" y1="713.1772" y2="713.1772"/>
    <polyline points="322.6884,659.4153 392.2735,693.2853 456.71,725.1833 523.7071,760.353"/>
    <polyline points="526.4866,759.6898 456.0763,722.8161 395.1763,692.7261 325.5939,658.8923"/>
    <polyline points="328.4996,658.3629 398.0789,692.1584 455.4364,720.4434 519.6542,753.7789 529.2649,759.0142"/>
    <polyline points="532.0418,758.3259 519.2112,751.3573 454.7903,718.0652 400.981,691.582 331.4056,657.827"/>
    <polyline points="334.3119,657.2839 454.1382,715.6811 471.6259,724.4604 518.7589,748.9289 534.8174,757.6245"/>
    <polyline points="537.5916,756.9098 518.2973,746.4936 474.4809,723.8102 453.4802,713.2911 337.2183,656.7333"/>
    <polyline points="340.125,656.1748 452.8166,710.895 477.3349,723.1481 517.8266,744.0512 540.3645,756.1812"/>
    <polyline points="543.1362,755.4385 517.347,741.6016 480.1881,722.4737 412.5861,689.1804 343.032,655.6079"/>
    <polyline points="345.9391,655.0323 415.4864,688.554 483.0403,721.7866 516.8584,739.1447 545.9064,754.6814"/>
    <polyline points="548.6753,753.9095 516.3611,736.6802 485.8916,721.0864 450.7931,703.6688 348.8464,654.4476"/>
    <polyline points="351.754,653.8532 450.1082,701.2469 488.7419,720.3728 515.855,734.2081 551.4429,753.1225"/>
    <polyline points="554.2091,752.32 515.3405,731.7283 491.5913,719.6455 449.4184,698.8183 354.6617,653.2489"/>
    <polyline points="357.5696,652.6343 448.7239,696.3826 494.4396,718.9042 514.8175,729.2406 556.974,751.5019"/>
    <polyline points="559.7375,750.6677 514.2862,726.7449 497.2871,718.1484 448.0248,693.9399 360.4776,652.0089"/>
    <polyline points="363.3858,651.3724 447.3212,691.49 500.1335,717.3778 513.7467,724.241 562.4997,749.8172"/>
    <polyline points="565.2604,748.9501 502.979,716.5922 446.6134,689.0327 366.2942,650.7244"/>
    <polyline points="369.2027,650.0645 445.9014,686.5679 505.8234,715.7912 568.0198,748.0661"/>
    <polyline points="570.7779,747.1649 508.6669,714.9745 445.1855,684.0954 372.1114,649.3923"/>
    <polyline points="377.929,648.0098 447.3613,680.846 510.9309,711.5954 576.2898,745.3101"/>
    <polyline points="579.0437,744.3558 510.3449,709.0402 450.2562,680.0618 380.838,647.2987"/>
    <polyline points="383.7471,646.5739 453.1507,679.2622 509.7517,706.4761 572.469,738.3872 581.7962,743.3834"/>
    <polyline points="584.5473,742.3926 572.0935,735.7481 509.1513,703.9029 456.0446,678.4469 386.6563,645.8351"/>
    <polyline points="389.5656,645.082 458.938,677.6157 508.544,701.3205 525.7064,709.7282 571.7081,733.0991 587.297,741.3831"/>
    <polyline points="590.0453,740.3548 571.3127,730.4401 528.5427,708.7935 507.9298,698.7288 461.8309,676.7682 392.475,644.3141"/>
    <polyline points="395.3844,643.5313 464.7232,675.9041 507.3088,696.1277 531.378,707.8409 570.9076,727.7711 592.7922,739.3074"/>
    <polyline points="595.5376,738.2407 570.4927,725.092 534.2122,706.8702 506.6813,693.5172 398.2939,642.7331"/>
    <polyline points="401.2034,641.9193 506.0473,690.8971 537.0453,705.881 570.0682,722.4027 598.2817,737.1545"/>
    <polyline points="601.0244,736.0487 569.6342,719.7031 539.8774,704.8733 473.397,673.2098 404.1129,641.0895"/>
    <polyline points="407.0225,640.2435 476.2871,672.2768 542.7083,703.8466 569.1908,716.9931 603.7656,734.923"/>
    <polyline points="606.5054,733.7773 568.738,714.2727 545.5383,702.801 504.1084,682.9783 409.9322,639.3809"/>
    <polyline points="412.8418,638.5016 503.4502,680.3189 548.3671,701.736 568.2761,711.5418 609.2438,732.6114"/>
    <polyline points="611.9808,731.4252 567.805,708.8002 551.1948,700.6516 502.7863,677.6494 415.7514,637.6051"/>
    <polyline points="418.6611,636.6913 502.1168,674.9698 554.0214,699.5476 567.3249,706.0481 614.7163,730.2186"/>
    <polyline points="617.4504,728.9913 556.847,698.4237 501.442,672.28 421.5707,635.7599"/>
    <polyline points="424.4803,634.8106 500.762,669.58 559.6714,697.2799 620.183,727.7433"/>
    <polyline points="622.9142,726.4745 562.4947,696.1158 500.0769,666.8695 427.3899,633.8432"/>
    <polyline points="430.2994,632.8574 499.3869,664.1486 565.3169,694.9315 625.644,725.1847 565.3169,694.9315 499.3869,664.1486 360.9842,601.0849 294.4061,568.8635 233.1098,536.2307"/>
    <polyline points="235.8548,535.4815 293.8589,566.3334 360.2765,598.4924 429.5399,630.1976 502.2716,663.0464 564.7935,692.1251 628.3723,723.8739"/>
    <polyline points="631.0992,722.5419 564.2618,689.3077 505.1557,661.9243 428.7803,627.5277 359.5732,595.8905 293.3198,563.7946 238.6013,534.7177"/>
    <polyline points="241.3491,533.939 292.7889,561.247 358.8743,593.2791 428.0206,624.8476 508.0391,660.7823 563.722,686.4792 624.7968,716.4988 633.8246,721.1887"/>
    <polyline points="636.5486,719.8142 624.4931,713.5808 563.174,683.6396 510.9218,659.6201 427.2612,622.1574 358.18,590.6581 305.7478,565.4579 292.2663,558.6906 244.0983,533.145"/>
    <polyline points="246.849,532.3355 291.7522,556.1252 308.5858,564.5646 357.4904,588.0274 426.5021,619.4568 513.8039,658.4376 562.6182,680.7889 579.4107,688.7005 624.1789,710.6513 639.271,718.4184"/>
    <polyline points="641.9921,717.0011 623.8542,707.7105 582.226,687.3915 562.0545,677.9269 516.6853,657.2347 425.7435,616.7459 356.8058,585.3869 311.4249,563.6539 291.2466,553.5508 249.601,531.5101"/>
    <polyline points="252.3544,530.6685 290.7497,550.9671 314.265,562.7257 356.1263,582.7366 424.9857,614.0245 519.566,656.0112 561.4832,675.0537 585.0402,686.0615 623.519,704.7581 644.7116,715.5624"/>
    <polyline points="647.4297,714.1022 623.1736,701.7943 587.8531,684.7102 560.9043,672.1692 522.446,654.767 424.2287,611.2926 355.452,580.0763 317.1061,561.7797 290.2615,548.3742 255.1093,529.8105"/>
    <polyline points="257.8655,528.9358 289.7823,545.7718 319.9483,560.8156 354.783,577.4059 423.4728,608.5501 525.3253,653.502 560.3181,669.2734 590.665,683.3377 622.8179,698.819 650.1464,712.6205"/>
    <polyline points="652.8615,711.1173 622.4521,695.8322 593.4756,681.9438 559.7245,666.3662 528.204,652.216 422.7181,605.797 354.1197,574.7254 322.7914,559.8332 289.3121,543.16 260.623,528.0441"/>
    <polyline points="263.382,527.135 288.851,540.5385 325.6355,558.8322 353.462,572.0347 421.9649,603.0331 559.1238,663.4477 596.285,680.5285 622.0762,692.8339 655.5752,709.5925"/>
    <polyline points="658.2874,708.0462 621.6903,689.8241 599.0933,679.0917 558.5162,660.5177 421.2132,600.2584 352.8102,569.3337 328.4807,557.8125 288.3991,537.9074 266.1423,526.2084"/>
    <polyline points="268.904,525.264 287.9565,535.2665 331.3268,556.7738 352.1644,566.6223 420.4632,597.4729 557.9016,657.5763 601.9003,677.6335 621.2945,686.8027 660.9981,706.4783"/>
    <polyline points="663.7073,704.889 620.8889,683.7697 557.2804,654.6235 419.7152,594.6765 351.5248,563.9004 334.1739,555.7159 287.5234,532.6157 271.6671,524.3016"/>
    <polyline points="274.4315,523.3209 287.0998,529.9549 337.022,554.6386 350.8914,561.168 418.9693,591.8691 556.6526,651.6592 620.4736,680.7253 666.4151,703.2782"/>
    <polyline points="669.1213,701.6459 620.0487,677.6693 556.0183,648.6833 418.2257,589.0507 350.2645,558.4251 286.6859,527.2841 277.1973,522.3216"/>
    <polyline points="279.9644,521.3036 349.6442,555.6714 417.4845,586.2212 555.3778,645.696 619.6142,674.6017 671.8261,699.9923"/>
    <polyline points="674.5294,698.3174 615.9175,670.0194 554.7312,642.6972 413.11,581.79 349.0306,552.9071 282.7329,520.2666"/>
    <polyline points="285.5027,519.2105 348.4239,550.1319 416.0102,580.5288 554.0785,639.6868 618.7172,668.432 677.2312,696.6212 618.7172,668.432"/>
    <line x1="621.5157" x2="679.9314" y1="666.8232" y2="694.9038"/>
    <line x1="682.6302" x2="624.313" y1="693.1653" y2="665.1929"/>
    <line x1="627.1091" x2="685.3275" y1="663.5412" y2="691.4058"/>
    <polyline points="688.0233,689.6254 676.3833,683.827 629.9039,661.8682"/>
    <polyline points="632.6974,660.1739 676.1437,680.6004 690.7176,687.8242"/>
    <polyline points="693.4103,686.0024 675.8932,677.3626 635.4897,658.4584"/>
    <polyline points="638.2807,656.7219 675.6319,674.1136 696.1016,684.16"/>
    <polyline points="698.7913,682.2972 675.3597,670.8536 641.0704,654.9643"/>
    <polyline points="643.8589,653.1858 675.0768,667.5826 701.4796,680.4142"/>
    <polyline points="704.1663,678.5111 674.7832,664.3007 646.6461,651.3865"/>
    <polyline points="649.432,649.5665 674.4791,661.0078 706.8515,676.588"/>
    <polyline points="709.5352,674.6452 674.1643,657.7041 652.2166,647.726"/>
    <polyline points="655.0,645.8651 673.8391,654.3896 712.2173,672.6829"/>
    <polyline points="714.898,670.7011 673.5035,651.0644 657.782,643.9839"/>
    <polyline points="660.5627,642.0826 673.1576,647.7285 717.5771,668.7002"/>
    <line x1="720.2547" x2="663.3421" y1="666.6803" y2="640.1614"/>
    <line x1="666.1202" x2="722.9307" y1="638.2204" y2="664.6417"/>
    <line x1="725.6053" x2="668.897" y1="662.5845" y2="636.2598"/>
    <polyline points="671.6725,634.2798 728.2783,660.509 777.2917,686.2705"/>
    <line x1="779.8544" x2="730.9498" y1="684.089" y2="658.4155"/>
    <line x1="733.6197" x2="782.4156" y1="656.3041" y2="681.891"/>
    <polyline points="784.9753,679.6769 777.7996,675.6786 736.2881,654.1752"/>
    <polyline points="738.955,652.0289 777.9464,672.1306 787.5335,677.447"/>
    <polyline points="790.0903,675.2015 778.0817,668.5741 741.6204,649.8657"/>
    <polyline points="744.2842,647.6857 778.2058,665.0092 792.6455,672.9408"/>
    <polyline points="795.1993,670.6652 778.3184,661.436 746.9465,645.4892"/>
    <polyline points="749.6072,643.2766 778.4196,657.8547 797.7515,668.375"/>
    <polyline points="800.3023,666.0705 778.5093,654.2654 752.2664,641.0481"/>
    <polyline points="754.9241,638.804 778.5876,650.6682 802.8516,663.7521"/>
    <polyline points="805.3994,661.4202 778.6544,647.0633 757.5802,636.5447"/>
    <polyline points="760.2348,634.2704 778.7096,643.4507 807.9458,659.0751"/>
    <polyline points="810.4907,656.717 778.7534,639.8306 762.8878,631.9815"/>
    <polyline points="765.5393,629.6783 778.7856,636.2031 813.0341,654.3465"/>
    <polyline points="815.576,651.9639 778.8063,632.5685 768.1893,627.3612"/>
    <polyline points="770.8377,625.0305 778.8155,628.9267 818.1165,649.5694"/>
    <line x1="820.6556" x2="773.4846" y1="647.1636" y2="622.6865"/>
    <line x1="776.1299" x2="823.1931" y1="620.3297" y2="644.7468"/>
    <line x1="825.7293" x2="778.7737" y1="642.3194" y2="617.9603"/>
    <line x1="781.4159" x2="778.7367" y1="615.5787" y2="614.2916"/>
    <line x1="778.6882" x2="784.0566" y1="610.6165" y2="613.1854"/>
    <line x1="786.6958" x2="778.6282" y1="610.7806" y2="606.9352"/>
    <line x1="778.5566" x2="789.3334" y1="603.2478" y2="608.3647"/>
    <line x1="791.9694" x2="778.4736" y1="605.9383" y2="599.5545"/>
    <line x1="778.3791" x2="794.6039" y1="595.8554" y2="603.5015"/>
    <line x1="797.2369" x2="778.2732" y1="601.0549" y2="592.1506"/>
    <line x1="778.1559" x2="799.8683" y1="588.4404" y2="598.5988"/>
    <line x1="802.4982" x2="778.0272" y1="596.1337" y2="584.7249"/>
    <line x1="777.8871" x2="805.1265" y1="581.0042" y2="593.6599"/>
    <line x1="807.7533" x2="777.7357" y1="591.1778" y2="577.2785"/>
    <line x1="777.573" x2="810.3785" y1="573.548" y2="588.688"/>
    <line x1="813.0022" x2="777.399" y1="586.1907" y2="569.8128"/>
    <line x1="777.2138" x2="815.6243" y1="566.073" y2="583.6864"/>
    <line x1="818.2449" x2="777.0175" y1="581.1755" y2="562.3289"/>
    <line x1="776.81" x2="820.864" y1="558.5806" y2="578.6585"/>
    <line x1="823.4815" x2="776.5915" y1="576.1358" y2="554.8283"/>
    <line x1="776.3619" x2="826.0975" y1="551.072" y2="573.6079"/>
    <line x1="831.3248" x2="778.8423" y1="568.5378" y2="544.8018"/>
    <polyline points="776.1214,547.3121 828.7119,571.075 776.1214,547.3121 716.2696,523.3781"/>
    <line x1="713.4532" x2="773.399" y1="525.8416" y2="549.8158"/>
    <line x1="770.6752" x2="710.6357" y1="552.3124" y2="528.296"/>
    <line x1="707.817" x2="767.9499" y1="530.7408" y2="554.8016"/>
    <line x1="765.2232" x2="704.9972" y1="557.2829" y2="533.1757"/>
    <polyline points="702.1763,535.6003 718.6755,541.9819 762.495,559.7559"/>
    <polyline points="759.7653,562.2203 719.1295,545.6869 699.3542,538.0142"/>
    <polyline points="696.531,540.4169 719.5742,549.3862 757.0343,564.6755"/>
    <polyline points="754.3017,567.1212 720.0095,553.0798 693.7067,542.8081"/>
    <polyline points="690.8813,545.1875 720.4353,556.7675 751.5678,569.557"/>
    <polyline points="748.8324,571.9826 720.8515,560.4491 688.0547,547.5547"/>
    <polyline points="685.2271,549.9092 721.258,564.1244 746.0956,574.3974"/>
    <polyline points="743.3573,576.8012 721.6547,567.7934 682.3984,552.2508"/>
    <polyline points="679.5686,554.579 722.0415,571.4559 740.6176,579.1935"/>
    <polyline points="737.8765,581.5739 722.4183,575.1117 676.7377,556.8936"/>
    <line x1="673.9057" x2="735.134" y1="559.1942" y2="583.9422"/>
    <line x1="732.39" x2="671.0727" y1="586.2979" y2="561.4805"/>
    <line x1="668.2386" x2="729.6447" y1="563.7521" y2="588.6407"/>
    <line x1="726.8979" x2="665.4034" y1="590.9702" y2="566.0087"/>
    <line x1="662.5672" x2="724.1498" y1="568.2499" y2="593.286"/>
    <line x1="719.0848" x2="715.762" y1="520.9058" y2="519.6427"/>
    <line x1="715.2459" x2="721.8988" y1="515.9027" y2="518.4253"/>
    <line x1="724.7117" x2="714.7214" y1="515.9368" y2="512.1584"/>
    <line x1="714.1886" x2="727.5234" y1="508.4099" y2="513.4408"/>
    <line x1="730.3339" x2="713.6476" y1="510.9378" y2="504.6574"/>
    <line x1="713.0986" x2="733.1433" y1="500.901" y2="508.4281"/>
    <line x1="735.9514" x2="712.5417" y1="505.9122" y2="497.1409"/>
    <line x1="711.977" x2="738.7583" y1="493.3773" y2="503.3905"/>
    <line x1="741.5641" x2="711.4046" y1="500.8634" y2="489.6103"/>
    <line x1="710.8247" x2="744.3686" y1="485.8401" y2="498.3314"/>
    <line x1="747.1719" x2="710.2374" y1="495.795" y2="482.0668"/>
    <line x1="709.6429" x2="749.974" y1="478.2908" y2="493.2545"/>
    <line x1="752.7749" x2="709.0413" y1="490.7103" y2="474.512"/>
    <line x1="708.4327" x2="755.5746" y1="470.7307" y2="488.163"/>
    <line x1="758.373" x2="707.8172" y1="485.613" y2="466.9471"/>
    <line x1="707.195" x2="761.1702" y1="463.1613" y2="483.0607"/>
    <line x1="763.9661" x2="706.5663" y1="480.5066" y2="459.3735"/>
    <line x1="705.9312" x2="766.7608" y1="455.5838" y2="477.9511"/>
    <polyline points="769.5542,475.3946 705.2899,451.7925 567.3835,404.3156 499.56,380.3263 436.2272,356.0965 379.4317,331.5746"/>
    <line x1="376.7573" x2="433.4506" y1="333.9089" y2="358.4941"/>
    <polyline points="436.6301,359.7792 496.7034,382.7772 568.1243,408.0685"/>
    <polyline points="568.8676,411.8173 493.8477,385.2185 437.0427,363.4557"/>
    <polyline points="437.465,367.1259 490.9929,387.6497 569.6132,415.562"/>
    <polyline points="570.361,419.3024 502.0767,395.1813 437.8968,370.7896"/>
    <polyline points="438.3381,374.4466 485.2861,392.4802 502.7217,398.8814 571.1107,423.0382"/>
    <polyline points="571.8621,426.7694 503.3727,402.5758 482.4341,394.8788 438.7887,378.0969"/>
    <polyline points="439.2486,381.7403 479.5831,397.2658 504.0295,406.2643 572.6152,430.4958"/>
    <polyline points="573.3697,434.2172 504.6921,409.9467 476.733,399.6408 439.7175,385.3766"/>
    <polyline points="440.1956,389.0057 473.8838,402.0034 505.3603,413.6229 574.1254,437.9334"/>
    <polyline points="574.8823,441.6443 506.0339,417.2928 471.0357,404.3532 440.6825,392.6274"/>
    <polyline points="441.1782,396.2417 468.1885,406.69 506.7127,420.9562 575.64,445.3498"/>
    <polyline points="576.3985,449.0497 507.3966,424.6129 465.3423,409.0133 441.6826,399.8485"/>
    <polyline points="442.1956,403.4474 462.4971,411.3229 508.0855,428.2629 577.1575,452.7438"/>
    <polyline points="577.9169,456.432 508.7792,431.9059 459.6528,413.6183 442.7171,407.0386"/>
    <polyline points="443.2468,410.6217 509.4775,435.5419 578.6765,460.1142"/>
    <polyline points="579.4362,463.7901 510.1802,439.1707 443.7848,414.1967"/>
    <polyline points="444.3309,417.7635 510.8873,442.7921 580.1957,467.4597"/>
    <polyline points="580.9549,471.1228 511.5985,446.4061 444.8849,421.3219"/>
    <line x1="445.4468" x2="445.4468" y1="424.8719" y2="424.8719"/>
    <line x1="442.6087" x2="509.4199" y1="427.0757" y2="452.2947"/>
    <line x1="506.5266" x2="439.7716" y1="454.5622" y2="429.2632"/>
    <line x1="436.9355" x2="503.6338" y1="431.4341" y2="456.8147"/>
    <line x1="500.7416" x2="434.1005" y1="459.0517" y2="433.5881"/>
    <polyline points="431.2666,435.7249 448.369,442.4905 497.8499,461.273"/>
    <polyline points="494.9588,463.4783 448.9751,445.9872 428.4337,437.8443"/>
    <polyline points="425.6019,439.9459 449.588,449.4746 492.0682,465.6673"/>
    <polyline points="489.1782,467.8397 450.2077,452.9526 422.7711,442.0297"/>
    <polyline points="419.9415,444.0952 450.8341,456.4212 486.2888,469.9953"/>
    <polyline points="483.4,472.1337 451.4668,459.8803 417.1129,446.1423"/>
    <polyline points="414.2854,448.1707 452.1059,463.3296 480.5117,474.2546"/>
    <polyline points="477.6241,476.3579 452.7512,466.7692 411.4591,450.1803"/>
    <polyline points="408.6338,452.1707 453.4024,470.199 474.737,478.4433"/>
    <polyline points="471.8506,480.5104 454.0596,473.6188 405.8097,454.1419"/>
    <line x1="402.9866" x2="468.9648" y1="456.0936" y2="482.5592"/>
    <line x1="466.0796" x2="400.1647" y1="484.5894" y2="458.0256"/>
    <line x1="397.3439" x2="463.195" y1="459.9378" y2="486.6006"/>
    <line x1="460.3111" x2="394.5243" y1="488.5929" y2="461.83"/>
    <polyline points="388.8884,465.5536 454.5453,492.5193 527.1921,520.3549"/>
    <polyline points="527.9515,523.7742 451.6634,494.4531 386.0722,467.3848"/>
    <polyline points="383.2572,469.1954 448.7822,496.3671 528.7111,527.1836"/>
    <polyline points="529.4708,530.5828 445.9016,498.2611 393.8095,476.7719 380.4433,470.9852"/>
    <polyline points="377.6306,472.7542 394.3559,480.0117 443.0218,500.1349 530.2303,533.9718"/>
    <polyline points="530.9894,537.3505 461.631,510.5573 440.1426,501.9884 394.9103,483.2404 374.8191,474.5022"/>
    <polyline points="372.0087,476.2292 395.4725,486.4579 437.2641,503.8215 462.3463,513.8517 531.7481,540.7189"/>
    <polyline points="532.5061,544.0768 463.0655,517.1351 434.3864,505.6339 396.0425,489.6641 369.1996,477.935"/>
    <polyline points="366.3916,479.6196 396.6199,492.8591 431.5094,507.4257 463.7882,520.4076 533.2633,547.4243"/>
    <polyline points="534.0194,550.7611 464.5145,523.6691 428.6331,509.1966 397.2049,496.0427 363.5849,481.2829"/>
    <polyline points="360.7793,482.9249 397.7971,499.215 425.7576,510.9465 465.2441,526.9196 534.7743,554.0873"/>
    <polyline points="535.5278,557.4028 465.9767,530.1589 422.8828,512.6754 398.3964,502.376 357.9749,484.5454"/>
    <polyline points="355.1718,486.1445 399.0028,505.5255 420.0087,514.3832 466.7124,533.3871 536.2798,560.7075"/>
    <polyline points="537.0301,564.0014 467.4508,536.604 417.1354,516.0697 399.6161,508.6636 352.3699,487.7221"/>
    <polyline points="349.5692,489.2782 400.2361,511.7902 414.2629,517.7349 468.1919,539.8098 537.7785,567.2843"/>
    <polyline points="538.5248,570.5563 468.9354,543.0042 411.3912,519.3788 346.7697,490.8127"/>
    <polyline points="343.9715,492.3258 408.5202,521.0013 469.6812,546.1874 539.2688,573.8173"/>
    <polyline points="540.0105,577.0673 470.4291,549.3592 405.6501,522.6024 341.1745,493.8172"/>
    <polyline points="338.3787,495.2872 402.7807,524.1819 471.179,552.5196 540.7496,580.3061"/>
    <polyline points="526.433,516.9256 457.4279,490.5658 391.7058,463.702 457.4279,490.5658"/>
    <line x1="471.179" x2="471.179" y1="552.5196" y2="552.5196"/>
    <line x1="402.7807" x2="402.7807" y1="524.1819" y2="524.1819"/>
    <polyline points="339.8596,430.9479 330.969,426.6241 286.746,403.3363"/>
    <line x1="284.1256" x2="337.1316" y1="405.0382" y2="432.7566"/>
    <line x1="334.4051" x2="281.5068" y1="434.5446" y2="406.719"/>
    <line x1="276.2737" x2="328.9564" y1="410.0165" y2="438.0578"/>
    <polyline points="326.2343,439.7828 278.8302,414.6223 273.6596,411.6331"/>
    <polyline points="271.0469,413.2283 278.8178,417.727 323.5136,441.4867"/>
    <polyline points="320.7944,443.1694 278.817,420.8203 268.4358,414.8019"/>
    <polyline points="265.8262,416.3541 278.8278,423.902 318.0766,444.8308"/>
    <polyline points="315.3603,446.4708 278.8501,426.9721 263.2182,417.8847"/>
    <polyline points="260.6117,419.3938 278.8839,430.0308 312.6455,448.0894"/>
    <polyline points="309.9322,449.6865 278.9292,433.0779 258.0068,420.8814"/>
    <polyline points="255.4034,422.3474 278.9861,436.1134 307.2204,451.2621"/>
    <polyline points="304.51,452.8162 279.0544,439.1374 252.8015,423.792"/>
    <polyline points="250.2012,425.2151 279.1343,442.1499 301.8011,454.3488"/>
    <polyline points="299.0937,455.8599 279.2256,445.1509 247.6024,426.6167"/>
    <polyline points="245.0051,427.997 279.3283,448.1403 296.3878,457.3494"/>
    <polyline points="293.6834,458.8174 279.4425,451.1182 242.4094,429.356"/>
    <polyline points="239.8152,430.6937 279.5681,454.0846 290.9805,460.2639"/>
    <polyline points="288.2791,461.6889 279.7051,457.0396 237.2226,432.0103"/>
    <polyline points="234.6314,433.3058 279.8533,459.983 285.5791,463.0926"/>
    <line x1="282.8807" x2="232.0418" y1="464.4748" y2="434.5803"/>
    <line x1="229.4538" x2="280.1838" y1="435.8339" y2="465.8357"/>
    <polygon points="331.68,436.3116 278.8895,408.3784"/>
    <polyline points="342.589,429.1186 330.754,423.3727 289.3679,401.6131"/>
    <polyline points="291.9913,399.8689 330.5501,420.1102 345.3199,427.2688"/>
    <polyline points="348.0522,425.3987 330.3573,416.8367 294.6163,398.1038"/>
    <polyline points="297.2429,396.3177 330.1758,413.5522 350.7859,423.5084"/>
    <polyline points="353.5211,421.598 330.0054,410.2569 299.871,394.5109"/>
    <polyline points="302.5006,392.6835 329.8464,406.9507 356.2577,419.6678"/>
    <polyline points="358.9958,417.7179 329.6986,403.6337 305.1318,390.8355"/>
    <polyline points="307.7645,388.9672 329.5621,400.3061 361.7352,415.7484"/>
    <polyline points="364.4761,413.7597 329.4371,396.9678 310.3988,387.0787"/>
    <polyline points="313.0347,385.1702 329.3234,393.6189 367.2185,411.7519"/>
    <polyline points="369.9622,409.7252 329.2212,390.2596 315.672,383.2418"/>
    <polyline points="318.311,381.2936 329.1304,386.8898 372.7073,407.6798"/>
    <polyline points="375.4539,405.6159 329.0511,383.5096 320.9514,379.326"/>
    <line x1="323.5934" x2="378.2019" y1="377.339" y2="403.5338"/>
    <line x1="380.9512" x2="326.237" y1="401.4338" y2="375.3329"/>
    <line x1="331.5287" x2="386.4542" y1="371.2642" y2="397.1808"/>
    <polygon points="383.702,399.316 328.8821,373.3079"/>
    <line x1="389.2077" x2="334.1769" y1="395.0284" y2="369.202"/>
    <polyline points="336.8267,367.1216 382.7666,388.8248 391.9627,392.859"/>
    <polyline points="394.719,390.673 382.476,385.3095 339.4779,365.0232"/>
    <polyline points="342.1307,362.907 382.196,381.7853 397.4767,388.4707"/>
    <polyline points="400.2358,386.2522 381.9268,378.2523 344.7851,360.7734"/>
    <polyline points="347.441,358.6225 381.6685,374.7105 402.9962,384.018"/>
    <polyline points="405.758,381.7684 381.421,371.1602 350.0984,356.4547"/>
    <polyline points="352.7574,354.2702 381.1845,367.6013 408.5212,379.5036"/>
    <polyline points="411.2858,377.224 380.959,364.0342 355.4179,352.0693"/>
    <polyline points="358.08,349.8523 380.7445,360.4588 414.0517,374.9299"/>
    <polyline points="416.8189,372.6216 380.5411,356.8753 360.7436,347.6195"/>
    <polyline points="363.4087,345.3713 380.3488,353.2838 419.5875,370.2995"/>
    <polyline points="422.3575,367.9639 380.1678,349.6845 366.0754,343.1078"/>
    <polyline points="368.7436,340.8296 379.9979,346.0774 425.1288,365.6153"/>
    <polyline points="427.9014,363.2538 379.8394,342.4627 371.4133,338.5368"/>
    <line x1="374.0846" x2="430.6753" y1="336.2298" y2="360.88"/>
    <line x1="392.8261" x2="378.9804" y1="319.7127" y2="313.2885"/>
    <line x1="379.0477" x2="390.1442" y1="316.959" y2="322.1092"/>
    <line x1="387.4638" x2="379.1265" y1="324.494" y2="320.623"/>
    <line x1="379.2168" x2="384.7849" y1="324.2803" y2="326.8668"/>
    <line x1="382.1075" x2="379.3185" y1="329.2271" y2="327.9309"/>
    <line x1="378.9246" x2="395.5096" y1="309.6117" y2="317.3049"/>
    <line x1="398.1946" x2="378.8803" y1="314.8861" y2="305.9287"/>
    <line x1="378.8476" x2="400.8811" y1="302.2397" y2="312.4568"/>
    <line x1="403.5691" x2="378.8263" y1="310.0174" y2="298.5448"/>
    <line x1="378.8166" x2="406.2586" y1="294.8441" y2="307.5681"/>
    <line x1="408.9496" x2="378.8185" y1="305.1096" y2="291.1379"/>
    <line x1="378.8319" x2="411.6422" y1="287.4262" y2="302.642"/>
    <line x1="414.3362" x2="378.8568" y1="300.1659" y2="283.7093"/>
    <line x1="378.8933" x2="417.0318" y1="279.9872" y2="297.6817"/>
    <line x1="419.7288" x2="378.9413" y1="295.1898" y2="276.2602"/>
    <line x1="379.0008" x2="422.4274" y1="272.5284" y2="292.6906"/>
    <line x1="425.1275" x2="379.0718" y1="290.1844" y2="268.7919"/>
    <line x1="379.1542" x2="427.829" y1="265.0509" y2="287.6719"/>
    <line x1="430.5321" x2="379.2482" y1="285.1533" y2="261.3057"/>
    <polygon points="298.5352,212.9541 266.1456,188.3455"/>
    <polyline points="489.2274,308.8561 553.9995,332.4716 692.1193,379.6755"/>
    <line x1="689.2195" x2="619.6735" y1="382.221" y2="358.6145"/>
    <line x1="622.5809" x2="622.5809" y1="356.0585" y2="356.0585"/>
    <polyline points="625.4884,353.5036 553.3429,328.674 492.0295,306.3102"/>
    <polyline points="494.8327,303.7613 552.6922,324.8759 628.3962,350.9503"/>
    <polyline points="631.3041,348.3991 552.0475,321.0777 497.6372,301.21"/>
    <polyline points="500.4429,298.6567 551.409,317.2793 634.2122,345.8504"/>
    <polyline points="637.1204,343.3046 568.3738,319.6886 503.2497,296.1017"/>
    <polyline points="506.0578,293.5456 571.2509,317.1335 640.0288,340.7622"/>
    <polyline points="642.9374,338.2237 574.1287,314.5801 508.8671,290.9888"/>
    <polyline points="511.6775,288.4318 548.9196,302.0887 577.0072,312.0287 645.846,335.6894"/>
    <polyline points="648.7548,333.1598 579.8864,309.4797 548.3142,298.2927 514.4892,285.8749"/>
    <polyline points="517.302,283.3187 547.7158,294.4976 582.7664,306.9337 651.6638,330.6354"/>
    <polyline points="654.5728,328.1165 585.647,304.391 547.1246,290.7037 520.116,280.7635"/>
    <polyline points="522.9311,278.2099 588.5283,301.852 657.4819,325.6037"/>
    <polyline points="660.3911,323.0972 591.4102,299.3174 525.7474,275.6583"/>
    <polyline points="528.5649,273.1091 594.2929,296.7873 663.3004,320.5977"/>
    <polyline points="666.2098,318.1054 597.1762,294.2624 531.3835,270.5628"/>
    <polyline points="534.2032,268.0197 600.0601,291.743 669.1192,315.6208"/>
    <polyline points="672.0287,313.1443 602.9447,289.2296 537.0241,265.4805"/>
    <polyline points="539.8461,262.9454 605.83,286.7226 674.9382,310.6764"/>
    <polyline points="677.8478,308.2174 608.7158,284.2224 542.6692,260.4149"/>
    <line x1="596.5142" x2="663.6564" y1="213.7775" y2="238.5536"/>
    <line x1="666.5532" x2="595.9381" y1="236.2733" y2="210.1292"/>
    <line x1="595.3696" x2="669.4504" y1="206.4877" y2="234.0078"/>
    <line x1="672.3481" x2="594.8088" y1="231.7575" y2="202.8534"/>
    <line x1="594.2559" x2="675.2462" y1="199.2263" y2="229.5225"/>
    <line x1="678.1448" x2="593.7109" y1="227.3034" y2="195.6066"/>
    <line x1="593.174" x2="681.0438" y1="191.9943" y2="225.1002"/>
    <polyline points="683.9432,222.9134 616.4451,197.6109 592.6454,188.3897"/>
    <polyline points="592.1251,184.7929 619.2962,195.3592 686.8431,220.7433"/>
    <polyline points="689.7433,218.5901 622.1483,193.1228 591.6132,181.204"/>
    <polyline points="591.11,177.6231 625.0013,190.9022 692.6439,216.454"/>
    <polyline points="695.545,214.3354 627.8553,188.6976 590.6155,174.0503"/>
    <polyline points="590.1298,170.4858 630.7101,186.5093 698.4464,212.2345"/>
    <polyline points="701.3481,210.1516 633.5659,184.3376 589.653,166.9297"/>
    <polyline points="589.1852,163.3821 636.4226,182.1828 704.2503,208.0869"/>
    <polyline points="707.1527,206.0406 639.2802,180.0452 588.7266,159.8431"/>
    <polyline points="588.2773,156.3129 642.1387,177.925 710.0556,204.013"/>
    <polyline points="712.9587,202.0043 644.9981,175.8225 587.8373,152.7915"/>
    <line x1="650.7195" x2="650.7195" y1="171.6716" y2="171.6716"/>
    <line x1="928.8158" x2="926.176" y1="410.6478" y2="409.3112"/>
    <line x1="923.5385" x2="928.8083" y1="411.5232" y2="414.1887"/>
    <line x1="928.7891" x2="920.8995" y1="417.7382" y2="413.751"/>
    <line x1="918.2589" x2="928.7585" y1="415.9943" y2="421.2963"/>
    <line x1="928.7163" x2="915.6168" y1="424.8627" y2="418.253"/>
    <line x1="912.9732" x2="928.6626" y1="420.5266" y2="428.4373"/>
    <line x1="928.5974" x2="910.328" y1="432.0201" y2="422.8148"/>
    <line x1="907.6813" x2="928.5207" y1="425.1174" y2="435.6108"/>
    <line x1="928.4325" x2="905.033" y1="439.2094" y2="427.4339"/>
    <line x1="902.3832" x2="928.3329" y1="429.764" y2="442.8158"/>
    <line x1="928.2218" x2="899.7318" y1="446.4297" y2="432.1073"/>
    <line x1="897.0789" x2="928.0994" y1="434.4636" y2="450.0511"/>
    <line x1="927.9655" x2="894.4245" y1="453.6799" y2="436.8325"/>
    <line x1="891.7685" x2="927.8203" y1="439.2135" y2="457.3159"/>
    <line x1="927.6638" x2="889.111" y1="460.9589" y2="441.6063"/>
    <line x1="886.4519" x2="927.4961" y1="444.0106" y2="464.6088"/>
    <line x1="927.317" x2="883.7913" y1="468.2655" y2="446.4259"/>
    <line x1="881.1292" x2="927.1268" y1="448.8519" y2="471.9289"/>
    <line x1="924.3689" x2="875.8003" y1="477.9906" y2="453.7344"/>
    <polygon points="878.4655,451.2882 926.9255,475.5988"/>
    <line x1="873.1335" x2="921.8108" y1="456.1901" y2="480.3938"/>
    <polyline points="919.2513,482.8081 878.6832,462.4522 870.4652,458.6548"/>
    <polyline points="867.7954,461.1282 878.7328,466.1833 916.6902,485.2332"/>
    <polyline points="914.1276,487.6686 878.7708,469.9192 865.1241,463.6099"/>
    <polyline points="862.4512,466.0994 878.7973,473.6595 911.5636,490.1138"/>
    <polyline points="908.998,492.5687 878.8123,477.4042 859.7768,468.5964"/>
    <polyline points="857.1009,471.1004 878.8157,481.1531 906.4309,495.0326"/>
    <polyline points="903.8624,497.5052 878.8076,484.906 854.4234,473.6109"/>
    <polyline points="851.7445,476.1277 878.788,488.6627 901.2923,499.9862"/>
    <polyline points="898.7207,502.475 878.7568,492.4231 849.0639,478.6501"/>
    <polyline points="846.3819,481.1779 878.7141,496.187 896.1476,504.9713"/>
    <polyline points="893.573,507.4747 878.6599,499.9543 843.6984,483.7105"/>
    <polyline points="841.0133,486.2475 878.5941,503.7248 890.9969,509.9847"/>
    <polyline points="888.4193,512.5008 878.5169,507.4983 838.3267,488.7886"/>
    <polyline points="835.6386,491.3331 878.4282,511.2746 885.8401,515.0228"/>
    <line x1="883.2594" x2="832.949" y1="517.5501" y2="493.8808"/>
    <line x1="830.2579" x2="880.6772" y1="496.4312" y2="520.0823"/>
    <polygon points="878.0935,522.6189 827.5653,498.9838"/>
    <line x1="875.5083" x2="824.8712" y1="525.1596" y2="501.5381"/>
    <line x1="822.1755" x2="872.9215" y1="504.0938" y2="527.7039"/>
    <polyline points="870.3332,530.2513 828.021,510.3746 819.4784,506.6504"/>
    <polyline points="816.7797,509.2074 828.1503,514.1726 867.7434,532.8015"/>
    <polyline points="865.152,535.3539 828.2681,517.9709 814.0796,511.7644"/>
    <polyline points="811.3779,514.3209 828.3746,521.7692 862.5591,537.9081"/>
    <polyline points="859.9647,540.4636 828.4696,525.5675 808.6748,516.8765"/>
    <polyline points="805.9702,519.4308 828.5531,529.3654 857.3688,543.0202"/>
    <polyline points="854.7713,545.5771 828.6251,533.163 803.264,521.9833"/>
    <polyline points="800.5564,524.5336 828.6857,536.9599 852.1723,548.1341"/>
    <polyline points="849.5717,550.6907 828.7347,540.756 797.8473,527.0811"/>
    <polyline points="795.1368,529.6255 828.7723,544.5511 846.9696,553.2465"/>
    <polyline points="844.366,555.8009 828.7983,548.3451 792.4247,532.1664"/>
    <polyline points="789.7112,534.7033 828.8127,552.1377 841.7608,558.3536"/>
    <polyline points="839.1541,560.904 828.8156,555.9289 786.9961,537.2357"/>
    <polyline points="784.2796,539.7632 828.807,559.7184 836.5459,563.4519"/>
    <line x1="833.9361" x2="781.5617" y1="565.9966" y2="542.2854"/>
    <line x1="702.422" x2="634.0558" y1="454.3395" y2="430.6449"/>
    <line x1="631.1495" x2="699.5533" y1="433.1656" y2="456.8834"/>
    <line x1="696.6838" x2="628.243" y1="459.4235" y2="435.6804"/>
    <line x1="625.3363" x2="693.8135" y1="438.1889" y2="461.9596"/>
    <line x1="690.9425" x2="622.4293" y1="464.4911" y2="440.6907"/>
    <line x1="619.5221" x2="688.0706" y1="443.1853" y2="467.0177"/>
    <line x1="685.198" x2="616.6147" y1="469.5389" y2="445.6724"/>
    <line x1="613.7072" x2="682.3246" y1="448.1515" y2="472.0543"/>
    <line x1="679.4504" x2="610.7994" y1="474.5634" y2="450.6222"/>
    <line x1="607.8915" x2="676.5755" y1="453.0841" y2="477.0658"/>
    <line x1="673.6999" x2="604.9834" y1="479.5611" y2="455.5368"/>
    <line x1="602.0751" x2="670.8235" y1="457.9798" y2="482.0489"/>
    <line x1="667.9464" x2="599.1667" y1="484.5287" y2="460.4129"/>
    <line x1="596.2582" x2="665.0685" y1="462.8355" y2="487.0002"/>
    <line x1="662.19" x2="593.3495" y1="489.4629" y2="465.2474"/>
    <line x1="590.4407" x2="659.3107" y1="467.648" y2="491.9164"/>
    <line x1="656.4307" x2="587.5318" y1="494.3604" y2="470.0372"/>
    <line x1="584.6227" x2="653.5501" y1="472.4143" y2="496.7944"/>
    <polyline points="650.6688,499.218 512.3137,450.0124 445.4468,424.8719 512.3137,450.0124"/>
    <line x1="499.56" x2="499.56" y1="380.3263" y2="380.3263"/>
    <line x1="553.9995" x2="553.9995" y1="332.4716" y2="332.4716"/>
    <line x1="596.4225" x2="666.0071" y1="379.0514" y2="402.655"/>
    <line x1="663.1039" x2="593.5173" y1="405.2113" y2="381.5979"/>
    <line x1="590.6123" x2="660.2005" y1="384.141" y2="407.7667"/>
    <line x1="657.2967" x2="587.7076" y1="410.3205" y2="386.6805"/>
    <line x1="584.8032" x2="654.3926" y1="389.2158" y2="412.8724"/>
    <line x1="651.4882" x2="581.8991" y1="415.422" y2="391.7465"/>
    <line x1="578.9953" x2="648.5835" y1="394.2721" y2="417.9687"/>
    <line x1="645.6785" x2="576.0919" y1="420.5122" y2="396.7922"/>
    <line x1="573.1887" x2="642.7732" y1="399.3065" y2="423.052"/>
    <line x1="639.8677" x2="570.286" y1="425.5877" y2="401.8144"/>
    <line x1="599.328" x2="668.9099" y1="376.5021" y2="400.0981"/>
    <line x1="671.8124" x2="602.2338" y1="397.5411" y2="373.9503"/>
    <line x1="605.1398" x2="674.7145" y1="371.3967" y2="394.9843"/>
    <line x1="677.6162" x2="608.0461" y1="392.4284" y2="368.8415"/>
    <line x1="610.9526" x2="680.5176" y1="366.2852" y2="389.8736"/>
    <line x1="683.4186" x2="613.8594" y1="387.3205" y2="363.7283"/>
    <line x1="616.7663" x2="686.3192" y1="361.1713" y2="384.7695"/>
    <line x1="636.9619" x2="636.9619" y1="428.1188" y2="428.1188"/>
    <line x1="759.6157" x2="822.3844" y1="403.3814" y2="427.2337"/>
    <line x1="822.0067" x2="762.4658" y1="423.4892" y2="400.8636"/>
    <line x1="765.315" x2="821.619" y1="398.3519" y2="419.749"/>
    <line x1="821.2214" x2="768.1632" y1="416.0134" y2="395.8467"/>
    <line x1="771.0105" x2="820.814" y1="393.3484" y2="412.2824"/>
    <line x1="820.397" x2="773.8567" y1="408.5563" y2="390.8575"/>
    <line x1="776.702" x2="819.9703" y1="388.3744" y2="404.8352"/>
    <line x1="819.5341" x2="779.5463" y1="401.1192" y2="385.8994"/>
    <line x1="782.3896" x2="819.0886" y1="383.4331" y2="397.4085"/>
    <line x1="818.6337" x2="785.2319" y1="393.7033" y2="380.9757"/>
    <line x1="788.0731" x2="818.1697" y1="378.5278" y2="390.0037"/>
    <line x1="817.6965" x2="790.9134" y1="386.3098" y2="376.0897"/>
    <line x1="793.7526" x2="817.2144" y1="373.6618" y2="382.6219"/>
    <line x1="816.7234" x2="796.5908" y1="378.9401" y2="371.2445"/>
    <line x1="799.428" x2="816.2237" y1="368.8381" y2="375.2644"/>
    <line x1="815.7154" x2="802.2641" y1="371.5951" y2="366.4432"/>
    <line x1="805.0991" x2="815.1985" y1="364.06" y2="367.9324"/>
    <line x1="814.6732" x2="807.9331" y1="364.2763" y2="361.6889"/>
    <line x1="810.7661" x2="814.1397" y1="359.3303" y2="360.6269"/>
    <line x1="813.598" x2="813.598" y1="356.9846" y2="356.9846"/>
    <line x1="854.2895" x2="885.8046" y1="736.5337" y2="761.1187"/>
    <line x1="883.4483" x2="851.8968" y1="763.5046" y2="738.8545"/>
    <line x1="849.5033" x2="881.0917" y1="741.1615" y2="765.8785"/>
    <line x1="878.7349" x2="847.109" y1="768.24" y2="743.4544"/>
    <line x1="844.7139" x2="876.3778" y1="745.7327" y2="770.5887"/>
    <line x1="874.0205" x2="842.3179" y1="772.9242" y2="747.9961"/>
    <line x1="839.9212" x2="871.6629" y1="750.2444" y2="775.2463"/>
    <line x1="869.3051" x2="837.5236" y1="777.5546" y2="752.4772"/>
    <line x1="835.1252" x2="866.947" y1="754.6942" y2="779.8488"/>
    <line x1="864.5886" x2="832.7259" y1="782.1284" y2="756.8951"/>
    <line x1="830.3258" x2="862.2299" y1="759.0796" y2="784.3932"/>
    <line x1="859.8709" x2="827.9248" y1="786.6429" y2="761.2475"/>
    <line x1="825.5229" x2="857.5116" y1="763.3983" y2="788.8771"/>
    <line x1="855.152" x2="823.1202" y1="791.0955" y2="765.532"/>
    <line x1="820.7166" x2="852.7921" y1="767.6482" y2="793.2979"/>
    <line x1="850.4318" x2="818.3121" y1="795.484" y2="769.7466"/>
    <line x1="815.9067" x2="848.0712" y1="771.8271" y2="797.6533"/>
    <line x1="845.7102" x2="813.5004" y1="799.8058" y2="773.8893"/>
    <line x1="811.0932" x2="843.3489" y1="775.933" y2="801.941"/>
    <polyline points="840.9872,804.0588 808.685,777.9581 840.9872,804.0588 855.16,816.0"/>
    <polyline points="850.2678,816.0 838.6251,806.1589 808.0724,781.355 769.3079,753.2743"/>
    <polyline points="766.8164,755.161 807.453,784.7417 836.2626,808.241 845.4124,816.0"/>
    <polyline points="840.5938,816.0 833.8998,810.3049 806.827,788.118 770.5895,761.308 764.3235,757.0274"/>
    <polyline points="761.8293,758.8735 770.1672,764.5999 799.0432,785.867 806.1945,791.484 831.5365,812.3503 835.8124,816.0"/>
    <polyline points="831.068,816.0 829.1729,814.377 805.5557,794.8396 796.6304,787.7955 769.7354,767.8809 759.3338,760.6991"/>
    <polyline points="756.8369,762.5041 769.2942,771.1509 794.2166,789.7041 804.9107,798.1846 826.3457,816.0"/>
    <polyline points="821.6017,816.0 804.2597,801.5191 791.8019,791.5926 768.8436,774.4099 754.3386,764.2883"/>
    <polyline points="751.839,766.0516 768.3837,777.6578 789.3862,793.4609 803.6029,804.8428 816.9023,816.0"/>
    <polyline points="812.2473,816.0 802.9403,808.1559 786.9695,795.3089 767.9147,780.8946 749.3381,767.7939"/>
    <polyline points="746.8357,769.5151 767.4367,784.1202 784.5518,797.1363 802.2721,811.4581 807.6362,816.0"/>
    <polyline points="803.0415,816.0 801.5986,814.7495 782.1332,798.9432 766.9498,787.3346 744.332,771.2152"/>
    <polyline points="741.8269,772.894 766.4541,790.5378 779.7135,800.7292 798.4315,816.0"/>
    <polyline points="793.7702,816.0 777.2929,802.4945 765.9497,793.7297 739.3205,774.5515"/>
    <polyline points="736.8126,776.1877 765.4367,796.9102 774.8712,804.2387 789.1541,816.0"/>
    <polyline points="784.5828,816.0 772.4485,805.9618 764.9153,800.0794 734.3034,777.8024"/>
    <polyline points="731.7927,779.3956 764.3855,803.2373 770.0248,807.6639 780.0556,816.0"/>
    <polyline points="775.572,816.0 767.6,809.3446 729.2807,780.9674"/>
    <polyline points="726.7673,782.5176 765.1742,811.0041 771.1314,816.0"/>
    <polyline points="766.7334,816.0 762.7474,812.6422 724.2525,784.0463 678.7832,754.8928"/>
    <line x1="676.1609" x2="721.7363" y1="756.2906" y2="785.5535"/>
    <line x1="719.2186" x2="673.5371" y1="787.0391" y2="757.667"/>
    <polyline points="670.9117,759.0221 678.6488,763.7138 716.6996,788.5032"/>
    <polyline points="714.1791,789.9458 678.5809,766.6314 668.2848,760.356"/>
    <polyline points="665.6563,761.6688 678.5016,769.5375 711.6572,791.367"/>
    <polyline points="709.1339,792.7667 678.4108,772.4323 663.0263,762.9605"/>
    <polyline points="660.3947,764.2312 678.3086,775.3157 706.6092,794.1451"/>
    <polyline points="704.0831,795.5022 678.1949,778.1879 657.7616,765.4811"/>
    <polyline points="655.127,766.7102 678.0699,781.0488 701.5555,796.838"/>
    <polyline points="699.0264,798.1527 677.9335,783.8986 652.4908,767.9188"/>
    <polyline points="649.853,769.1068 677.7857,786.7372 696.496,799.4463"/>
    <polyline points="693.9641,800.719 677.6266,789.5646 647.2138,770.2745"/>
    <polyline points="644.5729,771.422 677.4563,792.381 691.4307,801.9707"/>
    <polyline points="688.8959,803.2017 677.2747,795.1864 641.9305,772.5495"/>
    <polyline points="639.2866,773.6572 677.082,797.9809 686.3597,804.4121"/>
    <polyline points="683.8219,805.602 676.8781,800.7644 636.6412,774.7451"/>
    <line x1="633.9941" x2="681.2828" y1="775.8136" y2="806.7716"/>
    <line x1="678.7422" x2="631.3456" y1="807.9209" y2="776.8628"/>
    <line x1="628.6955" x2="676.2001" y1="777.8928" y2="809.0503"/>
    <line x1="808.685" x2="771.7981" y1="777.9581" y2="751.3675"/>
    <line x1="994.5841" x2="1033.2096" y1="761.2389" y2="784.8454"/>
    <line x1="1033.5263" x2="997.0136" y1="781.0553" y2="758.6829"/>
    <line x1="999.4441" x2="1033.8534" y1="756.128" y2="777.2669"/>
    <line x1="1034.1909" x2="1001.8756" y1="773.4804" y2="753.5747"/>
    <line x1="1004.3083" x2="1034.5386" y1="751.0235" y2="769.696"/>
    <line x1="1034.8966" x2="1006.742" y1="765.914" y2="748.4748"/>
    <line x1="1009.1768" x2="1035.2648" y1="745.929" y2="762.1344"/>
    <line x1="1035.643" x2="1011.6128" y1="758.3575" y2="743.3866"/>
    <line x1="1014.0498" x2="1036.0311" y1="740.8481" y2="754.5833"/>
    <line x1="1036.4292" x2="1016.4879" y1="750.8122" y2="738.3138"/>
    <line x1="1018.9271" x2="1036.837" y1="735.7843" y2="747.0441"/>
    <line x1="1037.2545" x2="1021.3675" y1="743.2794" y2="733.2598"/>
    <line x1="1023.809" x2="1037.6816" y1="730.741" y2="739.5182"/>
    <line x1="1038.1182" x2="1026.2516" y1="735.7606" y2="728.2281"/>
    <line x1="1028.6954" x2="1038.5642" y1="725.7217" y2="732.0068"/>
    <line x1="1039.0195" x2="1031.1403" y1="728.257" y2="723.2222"/>
    <line x1="389.3703" x2="389.3703" y1="693.8366" y2="693.8366"/>
    <polygon points="444.4659,681.6152 375.0202,648.7075 444.4659,681.6152 511.5094,714.1418 573.5345,746.2463 511.5094,714.1418"/>
    <line x1="479.9033" x2="479.9033" y1="95.2774" y2="95.2774"/>
  </g>
</svg>
