<?xml version="1.0" encoding="utf-8" ?>
<svg xmlns="http://www.w3.org/2000/svg" xmlns:cc="http://creativecommons.org/ns#" xmlns:dc="http://purl.org/dc/elements/1.1/" xmlns:ev="http://www.w3.org/2001/xml-events" xmlns:inkscape="http://www.inkscape.org/namespaces/inkscape" xmlns:rdf="http://www.w3.org/1999/02/22-rdf-syntax-ns#" xmlns:sodipodi="http://sodipodi.sourceforge.net/DTD/sodipodi-0.dtd" xmlns:xlink="http://www.w3.org/1999/xlink" baseProfile="tiny" height="22.86cm" version="1.2" viewBox="0 0 1152.0 864.0" width="30.48cm">
  <metadata>
    <rdf:RDF>
      <cc:Work>
        <dc:format>image/svg+xml</dc:format>
        <dc:source/>
        <dc:date>2021-10-05T22:19:50.295274</dc:date>
      </cc:Work>
    </rdf:RDF>
  </metadata>
  <defs/>
  <g fill="none" id="layer2.0" inkscape:groupmode="layer" inkscape:label="2" stroke="#00f" style="display:inline">
    <line x1="145.3617" x2="148.5546" y1="50.6797" y2="48.0"/>
    <line x1="152.035" x2="144.8312" y1="48.0" y2="54.0414"/>
    <line x1="144.2925" x2="155.5013" y1="57.3927" y2="48.0"/>
    <line x1="158.954" x2="143.7457" y1="48.0" y2="60.7334"/>
    <line x1="143.1909" x2="162.3936" y1="64.0635" y2="48.0"/>
    <line x1="165.8207" x2="142.6283" y1="48.0" y2="67.3829"/>
    <line x1="142.0581" x2="169.2359" y1="70.6915" y2="48.0"/>
    <line x1="172.6398" x2="141.4802" y1="48.0" y2="73.9893"/>
    <line x1="140.895" x2="176.0329" y1="77.2763" y2="48.0"/>
    <line x1="179.4159" x2="140.3024" y1="48.0" y2="80.5523"/>
    <line x1="139.7027" x2="182.5855" y1="83.8173" y2="48.0"/>
    <polyline points="185.9464,48.0 184.6944,49.2117 139.096,87.0712 93.1655,117.5542"/>
    <line x1="92.6025" x2="138.4824" y1="120.5003" y2="90.3141"/>
    <polyline points="137.8621,93.5458 96.8726,120.6534 92.0319,123.4349"/>
    <polyline points="91.4538,126.3581 98.7051,122.2007 137.2352,96.7664"/>
    <polyline points="136.6018,99.9757 100.524,123.7465 90.8682,129.27"/>
    <polyline points="90.2753,132.1704 102.3298,125.2907 135.9622,103.1738"/>
    <polyline points="135.3164,106.3605 104.1226,126.8334 89.6753,135.0595"/>
    <polyline points="89.0683,137.9374 105.903,128.3745 134.6646,109.5359"/>
    <polyline points="134.0069,112.7 107.6712,129.9141 88.4544,140.8039"/>
    <polyline points="87.8337,143.6593 109.4277,131.4521 133.3435,115.8526"/>
    <polyline points="132.6746,118.9938 111.1728,132.9887 87.2065,146.5034"/>
    <polyline points="86.5729,149.3365 112.9068,134.5236 132.0003,122.1236"/>
    <polyline points="131.3208,125.2419 114.6303,136.057 85.9329,152.1584"/>
    <polyline points="85.2868,154.9693 116.3435,137.5889 130.6361,128.3487"/>
    <polyline points="129.9466,131.4441 118.0469,139.1193 84.6348,157.7692"/>
    <polyline points="83.9768,160.5582 119.7409,140.648 129.2523,134.5279"/>
    <polyline points="128.5534,137.6001 121.4259,142.1753 83.3132,163.3363"/>
    <polyline points="82.644,166.1037 123.1022,143.701 127.85,140.6609"/>
    <line x1="127.1424" x2="81.9695" y1="143.7101" y2="168.8602"/>
    <polyline points="81.2897,171.6061 126.4306,146.7477 171.3806,114.2148 216.1959,74.5699"/>
    <polyline points="215.4427,78.1386 170.642,117.5337 128.0836,148.2688"/>
    <polyline points="129.7296,149.7883 169.9008,120.8419 174.6198,117.0416 214.6881,81.699"/>
    <polyline points="213.9322,85.2509 176.2328,118.4528 169.1572,124.1392 131.3691,151.3063"/>
    <polyline points="133.0024,152.8227 168.4113,127.4256 177.8418,119.8626 213.1753,88.7942"/>
    <polyline points="212.4175,92.3288 179.4474,121.271 167.6633,130.7011 134.6301,154.3376"/>
    <polyline points="136.2526,155.8509 166.9134,133.9656 181.0499,122.678 211.659,95.8547"/>
    <polyline points="210.8999,99.3716 182.65,124.0836 166.1617,137.2191 137.8703,157.3627"/>
    <polyline points="139.4836,158.8729 165.4084,140.4614 184.2479,125.4877 210.1405,102.8795"/>
    <polyline points="209.3808,106.3783 185.8441,126.8905 164.6537,143.6927 141.0929,160.3816"/>
    <polyline points="142.6988,161.8887 163.8978,146.9127 187.4391,128.2919 208.6212,109.8678"/>
    <polyline points="207.8617,113.348 189.0333,129.6918 163.1408,150.1215 144.3016,163.3943"/>
    <polyline points="145.9019,164.8984 162.383,153.3191 190.6272,131.0904 207.1025,116.8188"/>
    <polyline points="206.3439,120.28 192.2212,132.4875 161.6244,156.5053 147.4999,166.4009"/>
    <polyline points="149.0963,167.9019 160.8653,159.6802 193.8157,133.8833 205.5859,123.7316"/>
    <polyline points="204.8288,127.1734 195.4113,135.2777 160.1059,162.8437 150.6914,169.4013"/>
    <polyline points="152.2856,170.8992 159.3462,165.9958 197.0083,136.6707 204.0727,130.6054"/>
    <polyline points="203.3179,134.0275 198.6072,138.0624 158.5866,169.1365 153.8795,172.3955"/>
    <line x1="155.4735" x2="202.5644" y1="173.8903" y2="137.4396"/>
    <polyline points="201.0623,144.2334 156.3094,178.4899 111.5899,205.097"/>
    <polyline points="110.8308,207.8964 115.538,205.4854 155.5514,181.5847 160.2603,178.3655 200.314,147.6149"/>
    <polyline points="199.5678,150.9861 161.859,179.8541 154.7944,184.6679 117.1319,207.0826 110.0713,210.6849"/>
    <polyline points="109.3117,213.4625 118.7258,208.6783 154.0384,187.7397 163.46,181.3412 198.8239,154.3469"/>
    <polyline points="198.0823,157.6972 165.0638,182.8268 153.2836,190.7999 120.3203,210.2725 108.552,216.2294"/>
    <polyline points="107.7926,218.9854 121.9156,211.8652 152.5302,193.8486 166.6708,184.3109 197.3434,161.037"/>
    <polyline points="196.6072,164.3661 168.2814,185.7934 151.7783,196.8857 123.5123,213.4564 107.0334,221.7308"/>
    <polyline points="106.2748,224.4656 125.1108,215.0461 151.0282,199.9113 169.896,187.2743 195.874,167.6845"/>
    <polyline points="195.1438,170.9922 171.5152,188.7538 150.28,202.9254 126.7116,216.6344 105.517,227.1898"/>
    <polyline points="104.7599,229.9036 128.3151,218.2211 149.5339,205.9279 173.1393,190.2317 194.417,174.289"/>
    <polyline points="193.6935,177.5749 174.7688,191.7081 148.7901,208.9189 129.9218,219.8063 104.004,232.607"/>
    <polyline points="103.2492,235.3 131.532,221.3901 148.0486,211.8984 176.4041,193.183 192.9737,180.8499"/>
    <polyline points="192.2576,184.1139 178.0457,194.6563 147.3098,214.8664 133.1463,222.9723 102.4959,237.9829"/>
    <polyline points="101.7441,240.6555 134.7651,224.553 146.5738,217.8229 179.6939,196.1281 191.5455,187.3669"/>
    <polyline points="190.8375,190.6088 181.3492,197.5984 145.8407,220.7679 136.3887,226.1322 100.9941,243.3181"/>
    <polyline points="100.246,245.9707 138.0177,227.7099 145.1107,223.7015 183.012,199.0671 190.1337,193.8395"/>
    <polyline points="189.4344,197.059 184.6827,200.5344 144.3839,226.6237 139.6525,229.2861 99.5,248.6134"/>
    <polyline points="98.7563,251.2463 143.6607,229.5345 188.7396,200.2673"/>
    <polyline points="187.3646,206.6501 142.2251,235.322 97.2763,256.4831"/>
    <polyline points="96.5403,259.0872 101.2666,257.2133 141.5132,238.1988 146.2578,235.5756 186.6845,209.8244"/>
    <polyline points="186.0097,212.9874 147.9278,237.1442 140.8053,241.0643 102.9008,258.8833 95.8074,261.6818"/>
    <polyline points="95.0775,264.2672 104.5412,260.5519 140.1018,243.9186 149.6061,238.7113 185.3403,216.139"/>
    <polyline points="184.6764,219.2792 151.2931,240.2768 139.4027,246.7618 106.1882,262.2193 94.3509,266.8433"/>
    <polyline points="93.6278,269.4103 107.8422,263.8853 138.7081,249.5938 152.9892,241.8409 184.0182,222.408"/>
    <polyline points="183.3659,225.5252 154.6949,243.4034 138.0184,252.4147 109.5036,265.55 92.9083,271.9684"/>
    <polyline points="92.1926,274.5175 111.1728,267.2134 137.3335,255.2247 156.4105,244.9643 182.7195,228.631"/>
    <polyline points="182.0793,231.7253 158.1364,246.5237 136.6537,258.0236 112.8504,268.8755 91.4809,277.0579"/>
    <polyline points="90.7732,279.5896 114.5366,270.5362 135.9791,260.8116 159.873,248.0817 181.4453,234.808"/>
    <polyline points="180.8178,237.8792 161.6207,249.638 135.31,263.5887 116.2319,272.1956 90.0699,282.1128"/>
    <polyline points="89.3709,284.6276 117.9367,273.8537 134.6463,266.355 163.3799,251.1929 180.1969,240.9389"/>
    <polyline points="179.5826,243.9871 165.1509,252.7462 133.9884,269.1106 119.6513,275.5104 88.6766,287.1341"/>
    <polyline points="87.9871,289.6324 121.3763,277.1658 133.3363,271.8555 166.9341,254.2979 178.9753,247.0237"/>
    <polyline points="178.3749,250.0488 168.73,255.8482 132.6902,274.5898 123.1119,278.8199 87.3024,292.1226"/>
    <polyline points="86.6229,294.605 124.8586,280.4725 132.0503,277.3136 170.5388,257.3969 177.7817,253.0623"/>
    <polyline points="177.1958,256.0643 172.3608,258.944 131.4166,280.0269 126.6167,282.1238 85.9486,297.0795"/>
    <polyline points="85.2796,299.5464 130.7894,282.7298 176.6173,259.0548"/>
    <polyline points="176.0463,262.0337 130.1688,285.4224 176.0463,262.0337 222.2949,230.9988"/>
    <polygon points="222.2949,230.9988 268.9563,192.6502"/>
    <polyline points="222.8098,227.7242 269.4095,189.1163 313.9666,147.171 363.9771,96.9363"/>
    <polyline points="364.3027,93.1392 311.8836,145.898 269.8719,185.5738 264.953,189.9684 223.3332,224.4388"/>
    <polyline points="223.8649,221.1425 262.9767,188.6257 270.3434,182.0227 309.8188,144.6242 364.6388,89.3415"/>
    <polyline points="364.9852,85.5434 307.772,143.3498 270.8239,178.4631 261.017,187.2818 224.4047,217.8353"/>
    <polyline points="224.9526,214.5174 259.0735,185.9368 271.3132,174.8952 305.7427,142.0746 365.3418,81.7451"/>
    <polyline points="365.7085,77.9468 318.5325,126.0667 303.7309,140.7986 271.8113,171.319 257.1461,184.5905 225.5085,211.1888"/>
    <polyline points="226.0721,207.8495 255.2343,183.243 272.3181,167.7348 301.7363,139.5219 318.9768,122.3212 366.0853,74.1486"/>
    <polyline points="366.4721,70.3506 319.4304,118.5716 299.7585,138.2444 272.8335,164.1426 253.3378,181.8943 226.6434,204.4997"/>
    <polyline points="227.2223,201.1393 251.4564,180.5443 273.3572,160.5425 297.7973,136.9662 319.8932,114.818 366.8688,66.5532"/>
    <polyline points="367.2753,62.7565 320.3651,111.0606 295.8523,135.6872 273.8893,156.9348 249.5897,179.1932 227.8086,197.7686"/>
    <polyline points="228.4021,194.3875 247.7374,177.8408 274.4295,153.3194 293.9234,134.4074 320.8459,107.2995 367.6914,58.9605"/>
    <polyline points="368.1172,55.1656 321.3357,103.5349 292.0102,133.1269 274.9778,149.6967 245.8991,176.4871 229.0028,190.9962"/>
    <polyline points="229.6105,187.5947 244.0746,175.1322 275.534,146.0666 290.1124,131.8455 321.8342,99.767 368.5525,51.3719"/>
    <polyline points="368.592,48.0 322.3414,95.996 288.2296,130.5633 276.098,142.4293 242.2634,173.7761 230.225,184.183"/>
    <polyline points="230.8462,180.7614 240.4652,172.4187 276.6696,138.785 286.3616,129.2804 322.8571,92.222 365.3998,48.0"/>
    <polyline points="362.2297,48.0 323.3812,88.4451 284.508,127.9966 277.2488,135.1338 238.6797,171.0601 231.474,177.3298"/>
    <polyline points="232.1083,173.8884 236.9065,169.7002 282.6684,126.7119 323.9137,84.6657 359.0807,48.0"/>
    <polyline points="355.9516,48.0 324.4543,80.8837 280.8427,125.4265 232.7488,170.4373"/>
    <polyline points="233.3954,166.9765 279.0303,124.1402 325.0029,77.0995 352.8411,48.0"/>
    <polyline points="1010.0597,48.0 988.1431,51.8221 933.674,63.7303"/>
    <polyline points="934.3345,66.2024 988.7604,54.1433 1023.8511,48.0"/>
    <polyline points="1037.5495,48.0 989.3709,56.4683 940.728,67.1886 934.9893,68.6822"/>
    <polyline points="935.6382,71.1699 944.2384,68.9193 989.9744,58.7974 1051.1506,48.0"/>
    <polyline points="1064.3503,48.0 1055.8196,49.5653 990.5709,61.1306 947.7371,70.651 936.2809,73.6656"/>
    <polyline points="936.9175,76.1694 951.2237,72.3837 991.1602,63.4682 1005.3774,60.7415 1059.1639,51.3615 1077.5204,48.0"/>
    <polyline points="1090.4782,48.0 1008.7831,62.5268 991.7421,65.8104 954.698,74.1173 937.5476,78.6815"/>
    <polyline points="938.1713,81.202 958.1595,75.852 992.3165,68.1572 1012.1743,64.3125 1099.4604,48.8126 1103.4005,48.0"/>
    <polyline points="1104.0,50.2947 1099.9085,51.1371 1015.5507,66.0987 992.8833,70.5089 961.6079,77.5876 938.7883,83.731"/>
    <polyline points="939.3985,86.2686 965.0429,79.3242 993.4424,72.8656 1018.9119,67.8853 1100.3472,53.4578 1104.0,52.7068"/>
    <polyline points="1104.0,55.113 1100.7765,55.7747 1022.2576,69.6723 993.9936,75.2275 968.4641,81.0617 940.0017,88.8149"/>
    <polyline points="940.5979,91.3701 971.8711,82.8002 994.5367,77.5946 1025.5876,71.4597 1101.1962,58.0882 1104.0,57.5133"/>
    <polyline points="1104.0,59.9081 1101.6062,60.3982 1028.9015,73.2475 995.0718,79.9673 975.2636,84.5397 941.1868,93.9342"/>
    <polyline points="941.7684,96.5074 978.6414,86.2801 995.5986,82.3456 1032.199,75.0358 1102.0065,62.7051 1104.0,62.2974"/>
    <polyline points="1104.0,64.6815 1102.3969,65.009 1035.4798,76.8244 996.117,84.7296 982.004,88.0214 942.3425,99.0898"/>
    <polyline points="942.9089,101.6814 985.3511,89.7637 996.6269,87.1196 1038.7437,78.6134 1102.7774,67.3101 1104.0,67.0605"/>
    <polyline points="1104.0,69.4346 1103.1478,69.6084 1041.9904,80.4028 997.1282,89.5157 988.6825,91.5068 943.4676,104.2825"/>
    <polyline points="944.0185,106.893 991.9979,93.2509 997.6208,91.918 1045.2197,82.1925 1103.5081,71.9043 1104.0,71.804"/>
    <polyline points="1104.0,74.169 1103.8582,74.1978 1048.4311,83.9826 998.1045,94.3266 944.5613,109.5131"/>
    <polyline points="945.096,112.1429 998.5793,96.7418 1051.6246,85.7731 1104.0,76.5242"/>
    <polyline points="1104.0,299.0456 1085.0914,307.1959 1041.6923,332.541"/>
    <polyline points="1042.2674,329.4484 1083.3075,305.5965 1088.1179,303.191 1104.0,296.447"/>
    <polyline points="1104.0,293.9596 1088.7355,300.4045 1081.5111,303.9986 1042.8349,326.3672"/>
    <polyline points="1043.3946,323.2976 1079.7017,302.4021 1089.3463,297.6289 1104.0,291.4771"/>
    <polyline points="1104.0,288.9996 1089.9501,294.864 1077.8789,300.8072 1043.9465,320.2395"/>
    <polyline points="1044.4904,317.1929 1076.0425,299.2137 1090.5469,292.1099 1104.0,286.527"/>
    <polyline points="1104.0,284.059 1091.1365,289.3665 1074.1921,297.6217 1045.0261,314.1579"/>
    <polyline points="1045.5536,311.1345 1072.3274,296.0312 1091.7187,286.6337 1104.0,281.5958"/>
    <polyline points="1104.0,279.1373 1092.2934,283.9114 1070.448,294.4422 1046.0728,308.1225"/>
    <polyline points="1046.5834,305.1221 1068.5535,292.8548 1092.8605,281.1995 1104.0,276.6832"/>
    <polyline points="1104.0,274.2337 1093.4199,278.4981 1066.6438,291.2688 1047.0855,302.1333"/>
    <polyline points="1047.5788,299.1559 1064.7184,289.6843 1093.9714,275.8069 1104.0,271.7886"/>
    <polyline points="1104.0,269.3478 1094.5149,273.126 1062.7771,288.1013 1048.0633,296.19"/>
    <polyline points="1048.5388,293.2356 1060.8196,286.5198 1095.0503,270.4552 1104.0,266.9113"/>
    <polyline points="1104.0,264.479 1095.5774,267.7944 1058.8456,284.9399 1049.0053,290.2927"/>
    <polyline points="1049.4627,287.3612 1056.8547,283.3614 1096.0962,265.1436 1103.4208,262.2775"/>
    <polyline points="1101.4969,260.6004 1096.6064,262.5027 1054.8468,281.7845 1049.9107,284.4412"/>
    <line x1="1050.3494" x2="1099.5571" y1="281.5325" y2="258.9247"/>
    <line x1="1097.601" x2="1050.7786" y1="257.2502" y2="278.6351"/>
    <line x1="1086.863" x2="1104.0" y1="308.7968" y2="301.4371"/>
    <line x1="1104.0" x2="1088.6227" y1="303.7622" y2="310.3991"/>
    <line x1="1090.371" x2="1104.0" y1="312.003" y2="306.0914"/>
    <line x1="1104.0" x2="1092.1081" y1="308.4246" y2="313.6083"/>
    <line x1="1093.8345" x2="1104.0" y1="315.2151" y2="310.762"/>
    <line x1="1104.0" x2="1095.5506" y1="313.1038" y2="316.8233"/>
    <line x1="1097.2567" x2="1104.0" y1="318.433" y2="315.45"/>
    <line x1="1104.0" x2="1098.9533" y1="317.8008" y2="320.0442"/>
    <line x1="1100.6408" x2="1104.0" y1="321.6568" y2="320.1563"/>
    <line x1="1104.0" x2="1102.3195" y1="322.5166" y2="323.2709"/>
    <line x1="1103.9899" x2="1104.0" y1="324.8865" y2="324.8819"/>
    <line x1="1104.0" x2="1073.8448" y1="347.6269" y2="364.2958"/>
    <line x1="1075.4804" x2="1104.0" y1="365.8192" y2="350.1133"/>
    <line x1="1104.0" x2="1077.1102" y1="352.3583" y2="367.3441"/>
    <line x1="1078.7346" x2="1104.0" y1="368.8706" y2="354.7332"/>
    <line x1="1104.0" x2="1080.354" y1="357.1144" y2="370.3986"/>
    <line x1="1081.9688" x2="1104.0" y1="371.9282" y2="359.5021"/>
    <line x1="1104.0" x2="1083.5796" y1="361.8965" y2="373.4593"/>
    <line x1="1085.1868" x2="1104.0" y1="374.992" y2="364.2978"/>
    <line x1="1104.0" x2="1086.7907" y1="366.7061" y2="376.5262"/>
    <line x1="1088.3918" x2="1104.0" y1="378.0619" y2="369.1216"/>
    <line x1="1104.0" x2="1089.9906" y1="371.5445" y2="379.5992"/>
    <line x1="1091.5876" x2="1104.0" y1="381.138" y2="373.975"/>
    <line x1="1104.0" x2="1093.1831" y1="376.4131" y2="382.6784"/>
    <line x1="1094.7776" x2="1104.0" y1="384.2203" y2="378.8592"/>
    <line x1="1104.0" x2="1096.3716" y1="381.3133" y2="385.7638"/>
    <line x1="1097.9655" x2="1104.0" y1="387.3088" y2="383.7757"/>
    <line x1="1104.0" x2="1099.5597" y1="386.2465" y2="388.8553"/>
    <line x1="1101.1548" x2="1104.0" y1="390.4034" y2="388.7259"/>
    <line x1="1104.0" x2="1102.751" y1="391.3138" y2="391.953"/>
    <polyline points="1104.0,469.0249 1083.6037,483.8706 1062.0972,501.3184 1038.2699,522.4779 1016.8813,542.9127 993.1709,566.8677"/>
    <polyline points="993.8918,563.1506 1015.2157,541.6124 1038.9615,518.9441 1060.3862,499.9355 1084.2582,480.5961 1104.0,466.2504"/>
    <polyline points="1104.0,463.4902 1084.9185,477.3326 1058.685,498.5539 1039.6577,515.4191 1013.5578,540.313 994.6162,559.4387"/>
    <polyline points="995.344,555.7322 1011.9071,539.0146 1040.3585,511.903 1056.9932,497.1737 1085.5844,474.0802 1102.3106,461.9675 1104.0,460.891"/>
    <polyline points="1104.0,458.3098 1100.578,460.4856 1086.2558,470.8389 1055.3103,495.7948 1041.0636,508.3959 1010.2633,537.7171 996.075,552.0313"/>
    <polyline points="996.809,548.3361 1008.6258,536.4206 1041.773,504.898 1053.6359,494.4172 1086.9325,467.6087 1098.856,459.0053 1104.0,455.7417"/>
    <polyline points="1104.0,453.1866 1097.1441,457.5264 1087.6144,464.3897 1051.9696,493.0409 1042.4864,501.4093 1006.9943,535.125 997.546,544.6468"/>
    <polyline points="998.2857,540.9636 1005.3683,533.8302 1043.2037,497.93 1050.311,491.666 1088.3013,461.1819 1095.4421,456.0492 1104.0,450.6443"/>
    <polyline points="1104.0,448.1145 1093.7494,454.5734 1088.9931,457.9854 1048.6597,490.2924 1043.9247,494.4601 999.0279,537.2865"/>
    <polyline points="999.7725,533.6158 1047.0152,488.9201 1092.0656,453.0991 1104.0,445.5971"/>
    <line x1="1104.0" x2="1059.3578" y1="674.5151" y2="715.9412"/>
    <line x1="1056.739" x2="1009.8641" y1="718.4661" y2="764.3594"/>
    <polyline points="1009.7572,768.1501 1059.3307,719.7154 1104.0,678.2154"/>
    <polyline points="93.7905,681.8808 148.8898,656.0256 204.1054,637.3759 259.3791,624.3633"/>
    <polyline points="258.6195,622.0173 200.443,635.6685 148.1481,653.254 93.0702,678.8154"/>
    <polyline points="92.3536,675.7615 141.6064,652.7983 147.4089,650.493 196.7832,633.9621 202.597,632.3464 257.86,619.676"/>
    <polyline points="257.1008,617.3392 248.3731,619.0502 201.845,629.8441 193.1265,632.257 146.6725,647.7429 137.9724,651.1869 91.6409,672.7192"/>
    <polyline points="90.9323,669.6884 134.3443,649.5769 145.939,645.0033 189.4734,630.5529 201.0947,627.3499 244.7064,617.2805 256.3422,615.0067"/>
    <polyline points="255.5842,612.6784 241.0415,615.5114 200.3464,624.8636 185.8244,628.85 145.2085,642.2743 130.7224,647.9684 90.228,666.6691"/>
    <polyline points="89.528,663.6614 127.1072,646.3613 144.4814,639.5559 182.1797,627.1483 199.6001,622.3852 237.3788,613.7431 254.8271,610.3541"/>
    <polyline points="254.0711,608.0337 233.7188,611.9754 198.856,619.9146 178.54,625.4478 143.7576,636.8478 123.499,644.7557 88.8327,660.6652"/>
    <polyline points="88.142,657.6806 119.8983,643.1516 143.0375,634.1501 174.9056,623.7484 198.1144,617.4515 230.0618,610.2084 253.3162,605.7169"/>
    <polyline points="252.5627,603.4036 226.4084,608.4422 197.3753,614.9959 171.2769,622.0503 142.321,631.4627 116.3055,641.5489 87.4563,654.7074"/>
    <polyline points="86.7756,651.7457 112.721,639.9477 141.6086,628.7855 167.6544,620.3533 196.639,612.5477 222.7589,606.6766 251.8108,601.0937"/>
    <polyline points="251.0606,598.7869 219.1139,604.9118 195.9056,610.1066 164.0385,618.6575 140.9002,626.1184 109.1453,638.348 86.1001,648.7955"/>
    <polyline points="85.4299,645.8568 105.5787,636.7498 140.196,623.4613 160.4297,616.9629 195.1754,607.6726 215.4737,603.1477 250.3124,596.4832"/>
    <polyline points="249.5662,594.1823 211.8387,601.3844 194.4483,605.2455 156.8283,615.2695 139.4963,620.8141 102.0216,635.1531 84.7653,642.9295"/>
    <polyline points="84.1063,640.0136 98.4745,633.5579 138.8011,618.1768 153.2347,613.5773 193.7248,602.8252 208.2095,599.6218 248.8222,591.884"/>
    <polyline points="248.0807,589.5883 204.5864,597.8599 193.0048,600.4115 149.6495,611.8863 138.1107,615.5493 94.9377,631.9641 83.4531,637.109"/>
    <polyline points="82.806,634.2159 91.4117,630.3718 137.4252,612.9314 146.073,610.1965 192.2885,598.0043 200.9699,596.0988 247.3417,587.2949"/>
    <polyline points="246.6056,585.0036 191.5762,595.6034 142.5055,608.508 136.7447,610.323 87.8967,628.7811 82.1649,631.334"/>
    <polyline points="81.5301,628.4634 138.9476,606.8207 190.868,593.2088 245.8723,582.7143"/>
    <polyline points="245.1422,580.4268 190.1641,590.8202 135.3995,605.1346 80.9017,625.604"/>
    <line x1="148.8898" x2="148.8898" y1="656.0256" y2="656.0256"/>
    <line x1="204.1054" x2="204.1054" y1="637.3759" y2="637.3759"/>
    <line x1="218.4776" x2="273.6104" y1="686.9709" y2="670.0269"/>
    <line x1="274.3367" x2="219.2233" y1="672.4979" y2="689.6794"/>
    <polyline points="219.9667,692.3983 225.7726,690.2578 275.0595,674.9766"/>
    <polyline points="275.7786,677.4632 229.413,691.9034 220.7077,695.1278"/>
    <polyline points="221.446,697.8678 233.0482,693.5503 276.494,679.9578"/>
    <polyline points="277.2054,682.4605 236.6778,695.1986 222.1816,700.6185"/>
    <polyline points="222.9141,703.3799 240.3012,696.8482 277.9126,684.9715"/>
    <polyline points="278.6156,687.4908 243.918,698.4993 223.6435,706.152"/>
    <polyline points="224.3697,708.9351 247.5279,700.1517 279.3141,690.0186"/>
    <polyline points="280.008,692.555 251.1304,701.8054 225.0923,711.729"/>
    <polyline points="225.8113,714.5338 254.725,703.4605 280.6971,695.1001"/>
    <polyline points="281.3813,697.6541 258.3115,705.117 226.5265,717.3497"/>
    <polyline points="227.2377,720.1766 261.8893,706.7747 282.0604,700.2169"/>
    <polyline points="282.7342,702.7889 265.458,708.4339 227.9447,723.0147"/>
    <polyline points="228.6475,725.8638 269.0174,710.0943 283.4027,705.37"/>
    <polyline points="284.0655,707.9603 272.5668,711.7561 229.3458,728.7242"/>
    <polyline points="230.0395,731.5959 276.106,713.4192 284.7227,710.5601"/>
    <polyline points="285.374,713.1693 279.6346,715.0837 230.7284,734.4788"/>
    <line x1="231.4123" x2="286.0192" y1="737.373" y2="715.7881"/>
    <line x1="286.6583" x2="232.0912" y1="718.4165" y2="740.2786"/>
    <line x1="403.3786" x2="403.3786" y1="736.3847" y2="736.3847"/>
    <line x1="403.7324" x2="406.4909" y1="738.7625" y2="738.1474"/>
    <line x1="409.5841" x2="404.0759" y1="739.9108" y2="741.146"/>
    <line x1="404.4092" x2="412.6578" y1="743.5354" y2="741.675"/>
    <line x1="415.712" x2="404.732" y1="743.4399" y2="745.9309"/>
    <line x1="405.0443" x2="418.7464" y1="748.3326" y2="745.2055"/>
    <line x1="421.7609" x2="405.3461" y1="746.9718" y2="750.7407"/>
    <line x1="405.6373" x2="424.7553" y1="753.1553" y2="748.7388"/>
    <line x1="427.7295" x2="405.9177" y1="750.5066" y2="755.5765"/>
    <line x1="406.1874" x2="430.6832" y1="758.0046" y2="752.275"/>
    <line x1="433.6164" x2="406.4463" y1="754.0441" y2="760.4395"/>
    <line x1="406.6943" x2="436.529" y1="762.8816" y2="755.8139"/>
    <line x1="439.4207" x2="406.9314" y1="757.5843" y2="765.3308"/>
    <line x1="407.1574" x2="442.2915" y1="767.7874" y2="759.3554"/>
    <line x1="445.1414" x2="407.3725" y1="761.1272" y2="770.2515"/>
    <line x1="407.5764" x2="447.9701" y1="772.7232" y2="762.8996"/>
    <line x1="450.7776" x2="407.7692" y1="764.6726" y2="775.2027"/>
    <line x1="407.9508" x2="453.5639" y1="777.69" y2="766.4463"/>
    <line x1="456.3288" x2="408.1211" y1="768.2206" y2="780.1853"/>
    <line x1="408.2803" x2="459.0724" y1="782.6888" y2="769.9955"/>
    <polyline points="509.3095,760.3068 558.9889,750.6789 608.1142,738.1585"/>
    <polyline points="608.2738,735.6554 559.0693,748.3417 509.3098,758.0278"/>
    <polyline points="509.2985,755.7487 559.1382,745.9999 603.2603,734.7226 608.4221,733.144"/>
    <polyline points="608.559,730.6243 600.8016,733.003 559.1955,743.6535 509.2756,753.4693"/>
    <polyline points="509.2412,751.1895 559.2414,741.3023 598.3216,731.2824 608.6846,728.0961"/>
    <polyline points="608.7988,725.5593 595.8202,729.5607 559.2757,738.946 546.1508,741.7873 509.1954,748.9091"/>
    <polyline points="509.1379,746.6279 543.5186,740.0073 559.2985,736.5846 593.2975,727.8379 608.9015,723.0137"/>
    <polyline points="608.9928,720.4593 590.7534,726.1141 559.3098,734.2179 540.8649,738.2268 509.069,744.3458"/>
    <polyline points="508.9886,742.0625 538.1897,736.4458 559.3095,731.8458 588.1877,724.3892 609.0727,717.896"/>
    <polyline points="609.141,715.3236 585.6006,722.6634 559.2977,729.468 535.4929,734.6642 508.8968,739.7779"/>
    <polyline points="508.7934,737.4918 532.7747,732.8821 559.2743,727.0845 582.9919,720.9364 609.1979,712.7421"/>
    <polyline points="609.2432,710.1512 580.3617,719.2085 559.2394,724.695 530.035,731.0995 508.6787,735.2041"/>
    <polyline points="508.5526,732.9145 527.274,729.3165 559.193,722.2995 577.7099,717.4795 609.277,707.551"/>
    <polyline points="609.2993,704.9414 575.0366,715.7495 559.1351,719.8978 524.4916,727.5329 508.4151,730.6229"/>
    <polyline points="508.2662,728.3292 521.6879,725.7489 559.0656,717.4897 572.3419,714.0185 609.31,702.3221"/>
    <polyline points="609.3092,699.6932 569.6256,712.2865 558.9847,715.0751 518.863,723.9644 508.1061,726.0331"/>
    <polyline points="507.9347,723.7345 516.017,722.1794 558.8923,712.6538 566.8879,710.5535 609.2969,697.0545"/>
    <polyline points="609.273,694.406 564.1288,708.8196 558.7885,710.2258 507.7521,721.4332"/>
    <polyline points="507.5583,719.129 561.3483,707.0846 609.2375,691.7475"/>
    <polyline points="609.1906,689.079 558.5466,705.3487 507.3533,716.8218 558.5466,705.3487 609.1906,689.079 659.2783,666.0789"/>
    <polygon points="659.2783,666.0789 708.8086,635.4479"/>
    <line x1="661.8615" x2="708.6955" y1="667.6272" y2="638.6963"/>
    <line x1="708.5709" x2="664.4232" y1="641.9336" y2="669.1739"/>
    <line x1="666.9635" x2="708.435" y1="670.7191" y2="645.1597"/>
    <line x1="708.2878" x2="669.4823" y1="648.3747" y2="672.2628"/>
    <line x1="671.9798" x2="708.1292" y1="673.8049" y2="651.5783"/>
    <line x1="707.9594" x2="674.4559" y1="654.7707" y2="675.3455"/>
    <line x1="676.9108" x2="707.7784" y1="676.8845" y2="657.9518"/>
    <line x1="707.5861" x2="679.3444" y1="661.1216" y2="678.422"/>
    <line x1="681.757" x2="707.3827" y1="679.9579" y2="664.2799"/>
    <line x1="707.1683" x2="684.1486" y1="667.4268" y2="681.4923"/>
    <line x1="686.5193" x2="706.9427" y1="683.0252" y2="670.5623"/>
    <line x1="706.7062" x2="688.8691" y1="673.6864" y2="684.5565"/>
    <line x1="691.1984" x2="706.4588" y1="686.0863" y2="676.7989"/>
    <line x1="706.2004" x2="693.5071" y1="679.9" y2="687.6145"/>
    <line x1="695.7953" x2="705.9312" y1="689.1412" y2="682.9895"/>
    <line x1="705.6513" x2="698.0634" y1="686.0676" y2="690.6663"/>
    <line x1="700.3113" x2="705.3607" y1="692.1899" y2="689.1341"/>
    <line x1="705.0594" x2="702.5393" y1="692.189" y2="693.7119"/>
    <line x1="704.7476" x2="656.6952" y1="695.2324" y2="720.2364"/>
    <line x1="656.4472" x2="704.4253" y1="722.9769" y2="698.2643"/>
    <polyline points="704.0926,701.2847 661.2552,723.4866 656.1884,725.7069"/>
    <polyline points="655.9187,728.4264 663.505,725.1095 703.7495,704.2935"/>
    <polyline points="703.3962,707.2907 665.7348,726.731 655.6383,731.1354"/>
    <polyline points="655.3472,733.8341 667.9448,728.3511 703.0327,710.2765"/>
    <polyline points="702.6591,713.2508 670.1353,729.9697 655.0455,736.5225"/>
    <polyline points="654.7332,739.2006 672.3064,731.5869 702.2755,716.2135"/>
    <polyline points="701.882,719.1648 674.4582,733.2026 654.4104,741.8687"/>
    <polyline points="654.0772,744.5267 676.5911,734.8169 701.4787,722.1046"/>
    <polyline points="701.0656,725.033 678.7052,736.4297 653.7337,747.1748"/>
    <polyline points="653.3799,749.8131 680.8008,738.0411 700.6429,727.95"/>
    <polyline points="700.2107,730.8556 682.878,739.651 653.0159,752.4416"/>
    <polyline points="652.6419,755.0604 684.9371,741.2594 699.769,733.7499"/>
    <polyline points="699.3179,736.6328 686.9784,742.8664 652.2578,757.6696"/>
    <polyline points="651.8639,760.2694 689.0021,744.4719 698.8577,739.5045"/>
    <polyline points="698.3883,742.3649 691.0085,746.0759 651.4601,762.8598"/>
    <polyline points="651.0466,765.4409 692.9978,747.6785 697.9099,745.2142"/>
    <line x1="697.4226" x2="650.6234" y1="748.0522" y2="768.0129"/>
    <polyline points="650.1908,770.5758 602.9991,784.3258 555.3202,794.4497"/>
    <polyline points="555.0175,796.7318 605.1166,786.0898 649.7486,773.1298 696.4216,753.6951"/>
    <polyline points="695.9083,756.5 654.224,773.9636 649.2972,775.6749 607.2155,787.8531 554.7042,799.0129"/>
    <polyline points="554.3805,801.2933 601.8457,791.4094 609.2961,789.6157 648.8365,778.2114 656.2149,775.6558 695.3864,759.294"/>
    <polyline points="694.8563,762.077 658.1889,777.3467 648.3667,780.7392 611.3585,791.3775 601.4415,793.7604 554.0463,803.5731"/>
    <polyline points="553.7019,805.8524 601.0275,796.1066 613.403,793.1385 647.8879,783.2585 660.1465,779.0363 694.3179,764.8492"/>
    <polyline points="693.7715,767.6106 662.0878,780.7248 647.4002,785.7695 615.4299,794.8988 600.604,798.4482 553.3472,808.1315"/>
    <polyline points="552.9823,810.4106 600.1708,800.7852 617.4394,796.6583 646.9036,788.2723 664.0132,782.412 693.2171,770.3614"/>
    <polyline points="692.6549,773.1014 665.923,784.098 646.3984,790.7669 619.4318,798.417 599.7283,803.1179 552.6073,812.6897"/>
    <polyline points="552.2224,814.9691 599.2764,805.4464 621.4074,800.175 645.8847,793.2535 667.8174,785.7828 692.085,775.8309"/>
    <polyline points="691.5075,778.5499 669.6969,787.4663 645.3625,795.7323 623.3664,801.9321 598.8153,807.7709 558.0191,816.0"/>
    <polyline points="568.9699,816.0 598.3451,810.0915 625.3092,803.6884 644.832,798.2033 671.5616,789.1485 690.9226,781.2585"/>
    <polyline points="690.3304,783.9567 673.412,790.8295 644.2932,800.6667 627.236,805.4439 597.8659,812.4085 579.9669,816.0"/>
    <polyline points="590.9957,816.0 597.3778,814.7219 629.1472,807.1986 643.7465,803.1227 675.2485,792.5093 689.7311,786.6446"/>
    <polyline points="689.1247,789.3223 677.0712,794.1877 643.1917,805.5713 631.043,808.9525 601.2444,816.0"/>
    <polyline points="610.5102,816.0 632.9238,810.7055 642.6291,808.0127 678.8806,795.865 688.5114,791.9899"/>
    <polyline points="687.8914,794.6475 680.6771,797.5409 642.0589,810.4471 634.7899,812.4577 619.7768,816.0"/>
    <polyline points="629.043,816.0 636.6416,814.2091 641.4811,812.8745 682.461,799.2155 687.2648,797.2951"/>
    <polyline points="686.6317,799.9329 638.4793,815.9595 638.3075,816.0"/>
    <line x1="520.7322" x2="513.89" y1="814.5439" y2="816.0"/>
    <line x1="505.8811" x2="518.515" y1="815.4311" y2="812.7563"/>
    <line x1="516.2779" x2="506.1522" y1="810.9691" y2="813.102"/>
    <line x1="506.4125" x2="514.0208" y1="810.777" y2="809.1823"/>
    <line x1="511.7436" x2="506.662" y1="807.396" y2="808.4559"/>
    <line x1="506.9005" x2="509.446" y1="806.1384" y2="805.61"/>
    <line x1="507.128" x2="507.128" y1="803.8245" y2="803.8245"/>
    <polyline points="645.4584,816.0 685.9924,802.561 731.3838,780.9876"/>
    <line x1="730.6997" x2="685.3468" y1="783.8813" y2="805.1793"/>
    <polyline points="684.6953,807.7881 689.4778,805.9012 730.0106,786.7638"/>
    <polyline points="729.3167,789.6349 691.2042,807.5694 684.0379,810.3875"/>
    <polyline points="683.3748,812.9775 692.9203,809.2363 728.6182,792.4949"/>
    <polyline points="727.9152,795.3436 694.6264,810.9018 682.7061,815.5582"/>
    <polyline points="687.5025,816.0 696.323,812.566 727.208,798.1811"/>
    <polyline points="726.4966,801.0076 698.0105,814.229 693.446,816.0"/>
    <polyline points="699.4062,816.0 699.6892,815.8905 725.7813,803.823"/>
    <line x1="725.0621" x2="704.7247" y1="806.6274" y2="816.0"/>
    <line x1="710.0119" x2="724.3393" y1="816.0" y2="809.4209"/>
    <line x1="723.6131" x2="715.3152" y1="812.2034" y2="816.0"/>
    <line x1="720.6353" x2="722.8835" y1="816.0" y2="814.9751"/>
    <line x1="825.0165" x2="838.1446" y1="816.0" y2="806.3307"/>
    <line x1="838.8352" x2="821.3169" y1="802.9761" y2="816.0"/>
    <line x1="765.8546" x2="767.2367" y1="816.0" y2="815.1644"/>
    <line x1="765.6428" x2="761.7312" y1="813.6271" y2="816.0"/>
    <line x1="761.6946" x2="764.0484" y1="813.5209" y2="812.0882"/>
    <line x1="762.4531" x2="762.4531" y1="810.5477" y2="810.5477"/>
    <polyline points="800.6095,816.0 826.5045,796.4565 843.0728,782.6316"/>
    <polyline points="842.3562,786.0477 828.1454,797.8713 804.0448,816.0"/>
    <polyline points="807.496,816.0 829.7929,799.2848 841.6435,789.4539"/>
    <polyline points="840.9349,792.8498 831.4475,800.6968 810.9639,816.0"/>
    <polyline points="814.4491,816.0 833.1095,802.1074 840.2306,796.2356"/>
    <polyline points="839.5306,799.611 834.7794,803.5166 817.9524,816.0"/>
    <polyline points="798.8926,814.7103 824.8698,795.0402 843.7931,779.2054"/>
    <polyline points="844.517,775.7694 823.2408,793.6224 799.6367,811.5535"/>
    <polyline points="800.3831,808.3853 821.6172,792.2032 845.2444,772.3235"/>
    <polyline points="845.975,768.868 819.9985,790.7826 801.1316,805.2058"/>
    <polyline points="801.882,802.0149 818.3843,789.3605 846.7086,765.4029"/>
    <polyline points="847.4452,761.9283 816.7741,787.937 802.634,798.8128"/>
    <polyline points="803.3876,795.5994 815.1675,786.512 848.1845,758.4443"/>
    <polyline points="848.9264,754.9509 813.564,785.0855 804.1426,792.3748"/>
    <polyline points="804.8988,789.139 811.9632,783.6576 849.6707,751.4484"/>
    <polyline points="850.4172,747.9368 810.3647,782.2283 805.656,785.8921"/>
    <line x1="806.414" x2="851.1657" y1="782.6341" y2="744.4162"/>
    <line x1="851.9162" x2="807.1727" y1="740.8868" y2="779.3651"/>
    <line x1="843.9204" x2="855.6905" y1="734.1815" y2="723.1106"/>
    <line x1="854.9332" x2="845.5159" y1="726.6826" y2="735.5249"/>
    <line x1="847.1127" x2="854.177" y1="736.8672" y2="730.2464"/>
    <line x1="853.422" x2="848.7114" y1="733.8017" y2="738.2082"/>
    <line x1="850.3124" x2="852.6683" y1="739.5481" y2="737.3486"/>
    <line x1="842.3259" x2="856.4485" y1="732.8369" y2="719.5304"/>
    <line x1="857.2072" x2="840.732" y1="715.9421" y2="731.491"/>
    <line x1="839.1381" x2="857.9665" y1="730.144" y2="712.346"/>
    <line x1="858.726" x2="837.5438" y1="708.7421" y2="728.7957"/>
    <line x1="835.9487" x2="859.4856" y1="727.4462" y2="705.1305"/>
    <line x1="860.2453" x2="834.3523" y1="701.5115" y2="726.0955"/>
    <line x1="832.7543" x2="861.0047" y1="724.7435" y2="697.885"/>
    <line x1="861.7637" x2="831.154" y1="694.2513" y2="723.3903"/>
    <line x1="829.5511" x2="862.5221" y1="722.0359" y2="690.6105"/>
    <line x1="863.2798" x2="827.9452" y1="686.9627" y2="720.6802"/>
    <line x1="826.3358" x2="864.0366" y1="719.3233" y2="683.3082"/>
    <line x1="864.7923" x2="824.7225" y1="679.6469" y2="717.9651"/>
    <line x1="823.1048" x2="865.5467" y1="716.6057" y2="675.979"/>
    <line x1="867.0511" x2="911.7982" y1="668.6244" y2="621.4218"/>
    <polyline points="911.0392,625.2092 866.2997,672.3048 821.4823,715.245"/>
    <polyline points="789.1802,689.1442 834.7846,647.7198 880.1049,601.4825 925.1933,553.0985"/>
    <line x1="924.4712" x2="879.4117" y1="556.8928" y2="605.2489"/>
    <line x1="878.7138" x2="923.7456" y1="609.0119" y2="560.6882"/>
    <line x1="923.0166" x2="878.0115" y1="564.4846" y2="612.7713"/>
    <line x1="877.3048" x2="922.2845" y1="616.527" y2="568.2816"/>
    <line x1="921.5493" x2="876.594" y1="572.0793" y2="620.2788"/>
    <line x1="875.8792" x2="920.8114" y1="624.0266" y2="575.8774"/>
    <line x1="920.0708" x2="875.1605" y1="579.6757" y2="627.7701"/>
    <line x1="874.4382" x2="919.3277" y1="631.5092" y2="583.474"/>
    <line x1="918.5823" x2="873.7125" y1="587.2722" y2="635.2438"/>
    <line x1="872.9833" x2="917.8348" y1="638.9737" y2="591.0702"/>
    <line x1="917.0853" x2="872.2511" y1="594.8676" y2="642.6987"/>
    <line x1="871.5158" x2="916.334" y1="646.4187" y2="598.6644"/>
    <line x1="915.581" x2="870.7777" y1="602.4604" y2="650.1335"/>
    <line x1="870.037" x2="914.8267" y1="653.843" y2="606.2554"/>
    <line x1="914.071" x2="869.2938" y1="610.0492" y2="657.547"/>
    <line x1="868.5483" x2="913.3143" y1="661.2453" y2="613.8416"/>
    <line x1="912.5566" x2="867.8007" y1="617.6326" y2="664.9378"/>
    <polyline points="880.7934,597.7129 833.0404,646.4165 787.3743,687.7571"/>
    <polyline points="785.5552,686.3687 790.3846,682.3201 831.2849,645.1123 881.4769,593.9402"/>
    <polyline points="882.1552,590.1646 836.7185,636.7965 829.5177,643.8071 790.9762,678.893 783.7226,684.979"/>
    <polyline points="781.876,683.5878 791.5604,675.4561 827.7383,642.5009 837.3507,633.1416 882.8283,586.3863"/>
    <polyline points="883.496,582.6055 871.5454,595.215 837.9764,629.4801 825.9464,641.1938 792.1372,672.0094 780.0152,682.1953"/>
    <polyline points="778.1398,680.8014 792.7064,668.553 824.1418,639.8856 838.5955,625.8119 869.8022,593.9601 884.158,578.8222"/>
    <polyline points="884.8144,575.0368 868.0477,592.7047 839.2079,622.1374 822.3239,638.5764 793.2679,665.087 776.2495,679.4061"/>
    <polyline points="774.3439,678.0095 793.8216,661.6115 820.4925,637.2662 839.8133,618.4567 866.2816,591.4489 885.4648,571.2494"/>
    <polyline points="886.1092,567.46 864.5033,590.1925 840.4117,614.7698 818.6472,635.9549 794.3673,658.1266 772.4228,676.6114"/>
    <polyline points="770.4859,675.212 794.9049,654.6325 816.7877,634.6427 841.0029,611.0771 862.7126,588.9357 886.7475,563.669"/>
    <polyline points="887.3794,559.8765 860.9091,587.6783 841.5868,607.3785 814.9137,633.3294 795.4343,651.1291 768.5328,673.8111"/>
    <polyline points="766.5633,672.4089 795.9553,647.6167 813.0247,632.015 842.1633,603.6743 859.0925,586.4204 888.0048,556.0827"/>
    <polyline points="888.6236,552.2876 857.2624,585.162 842.7321,599.9645 811.1206,630.6997 796.4679,644.0953 764.577,671.0052"/>
    <polyline points="762.5738,669.6002 796.972,640.565 809.2009,629.3832 843.2933,596.2495 889.2356,548.4916"/>
    <polyline points="889.8407,544.6948 843.8466,592.5293 807.2654,628.0657 797.4673,637.026 760.5532,668.1937"/>
    <polyline points="758.5152,666.7858 797.9538,633.4784 805.3138,626.7472 844.3919,588.804 890.4388,540.8973"/>
    <polyline points="891.0297,537.0994 844.9292,585.0739 803.3458,625.4275 798.4314,629.9223 756.4593,665.3765"/>
    <polyline points="754.3854,663.9658 801.3611,624.1068 845.4582,581.3391 891.6132,533.3011"/>
    <polyline points="892.7579,525.7045 844.0448,576.3374 799.8096,619.2041 752.6763,659.2187"/>
    <polyline points="753.0495,655.8732 795.304,620.1381 800.2504,615.6151 842.0947,575.0745 893.3187,521.9064"/>
    <polyline points="893.8716,518.1088 840.1282,573.8109 800.6818,612.0182 793.2497,618.813 753.4125,652.5172"/>
    <polyline points="753.7654,649.1507 791.1775,617.4868 801.1036,608.4136 838.145,572.5467 894.4166,514.3117"/>
    <polyline points="894.9534,510.5154 848.4529,558.8407 836.1449,571.2819 801.5158,604.8014 789.087,616.1595 754.1079,645.7739"/>
    <polyline points="754.4402,642.3867 786.978,614.831 801.9183,601.1816 834.1275,570.0165 848.9211,555.0775 895.4821,506.7201"/>
    <polyline points="896.0024,502.9258 849.3801,551.311 832.0926,568.7505 802.3109,597.5545 784.8502,613.5015 754.762,638.9893"/>
    <polyline points="755.0734,635.5818 782.7036,612.1708 802.6935,593.9202 830.04,567.4838 849.8298,547.5412 896.5142,499.1329"/>
    <polyline points="897.0174,495.3414 850.2702,543.7684 827.9694,566.2164 803.0662,590.2787 780.5378,610.8389 755.3741,632.1643"/>
    <polyline points="755.6643,628.7368 778.3526,609.5059 803.4288,586.6303 825.8806,564.9484 850.7012,539.9927 897.5119,491.5515"/>
    <polyline points="897.9976,487.7634 851.1226,536.2143 823.7733,563.6797 803.7812,582.9751 776.1479,608.1718 755.9437,625.2994"/>
    <polyline points="756.2124,621.8523 773.9235,606.8365 804.1233,579.3132 821.6473,562.4104 851.5343,532.4333 898.4744,483.9773"/>
    <polyline points="898.9422,480.1934 851.9363,528.65 819.5023,561.1404 804.4551,575.6448 771.6792,605.5 756.4703,618.3954"/>
    <polyline points="756.7172,614.929 769.4149,604.1624 804.7764,571.97 817.3383,559.8697 852.3285,524.8645 899.4008,476.4118"/>
    <polyline points="899.8501,472.6327 852.7107,521.0769 815.1549,558.5983 805.0873,568.289 767.1303,602.8236 756.9532,611.4531"/>
    <polyline points="757.1783,607.9678 764.8253,601.4836 805.3876,564.6019 812.952,557.3261 853.0829,517.2875 900.2901,468.8562"/>
    <polyline points="900.7206,465.0826 853.445,513.4964 810.7294,556.0533 762.4998,600.1425 757.3922,604.4732"/>
    <polyline points="757.5951,600.9694 808.4869,554.7798 853.797,509.7039 901.1415,461.312"/>
    <polyline points="901.5529,457.5446 854.1386,505.9099 901.5529,457.5446 948.4959,411.4023"/>
    <polyline points="946.5004,410.0982 901.9544,453.7805 851.957,504.6672 803.9416,552.2305"/>
    <polyline points="806.2244,553.5055 854.1386,505.9099 806.2244,553.5055 757.7868,597.4566"/>
    <polyline points="709.2952,598.9972 680.1772,619.5116 658.8833,632.8491 629.4442,648.9466 607.9185,659.0401 578.1639,670.815 556.4116,677.9808 526.3503,686.1912 504.3793,691.1951"/>
    <polyline points="504.703,693.5466 529.3793,687.9374 556.6611,680.5094 581.0896,672.482 608.091,661.8241 632.2633,650.5118 658.9768,635.9277 682.8876,620.9679 709.3086,602.3642"/>
    <polyline points="709.3104,605.7207 685.5765,622.4226 659.0587,638.9947 635.0612,652.0754 608.2521,664.5973 583.9945,674.1477 556.8996,683.0295 532.3884,689.6827 505.0163,695.8932"/>
    <polyline points="505.3191,698.2352 535.3772,691.4271 557.1272,685.5413 586.8787,675.8121 608.402,667.3597 637.8378,653.6374 659.1292,642.0502 688.2439,623.8759 709.3007,609.0667"/>
    <polyline points="709.2795,612.4021 690.8897,625.3276 659.1882,645.0942 640.593,655.198 608.5405,670.1114 589.7419,677.4751 557.3437,688.0448 538.3458,693.1705 505.6112,700.5726"/>
    <polyline points="505.8926,702.9057 541.294,694.9131 557.5492,690.5401 592.584,679.1368 608.6677,672.8524 643.3268,656.757 659.2357,648.1266 693.5141,626.7778 709.2468,615.7268"/>
    <polyline points="709.2025,619.0408 696.1169,628.2266 659.2716,651.1474 646.0392,658.3145 608.7835,675.5829 595.405,680.7972 557.7435,693.0275 544.2215,696.6547 506.1633,705.2346"/>
    <polyline points="506.4232,707.5594 547.1284,698.3954 557.9266,695.5069 598.2048,682.4562 608.8878,678.3028 648.73,659.8704 659.296,654.1568 698.6981,629.6738 709.1467,622.344"/>
    <polyline points="709.0794,625.6364 701.2579,631.1196 659.3089,657.1546 651.3994,661.4249 608.9807,681.0123 600.9834,684.1139 558.0985,697.9787 550.0144,700.1352 506.6722,709.8804"/>
    <polyline points="506.9102,712.1977 552.8795,701.874 558.2592,700.4428 603.7405,685.7703 609.0622,683.7115 654.0472,662.9777 659.3102,660.1408 703.7962,632.5638 709.0006,628.9179"/>
    <polyline points="708.9103,632.1884 659.3,663.1156 609.1321,686.4003 558.4085,702.8994 507.1373,714.5115"/>
    <polyline points="504.0451,688.8387 523.3015,684.4442 556.1512,675.4436 575.2176,669.1468 607.7349,656.2451 626.604,647.38 658.7784,629.7591 677.4453,618.0539 709.2702,595.6199"/>
    <polyline points="709.2338,592.2323 674.692,616.5946 658.6621,626.6575 623.7427,645.8118 607.5401,653.4392 572.2509,667.4772 555.8801,672.8976 520.2331,682.6962 503.7006,686.477"/>
    <polyline points="503.3458,684.1101 517.1452,680.9474 555.5981,670.3429 569.2638,665.8063 607.3341,650.6223 620.8605,644.2421 658.5345,623.5444 671.9174,615.1339 709.1858,588.8345"/>
    <polyline points="709.1262,585.4265 669.1215,613.6716 658.3954,620.4198 617.9574,642.6709 607.1171,647.7943 566.2566,664.1341 555.3055,667.7791 514.0381,679.1977 502.9809,681.7377"/>
    <polyline points="502.6059,679.3597 510.9119,677.4471 555.0023,665.2063 563.2294,662.4606 606.889,644.9552 615.0336,641.0981 658.245,617.2838 666.3043,612.2078 709.0552,582.0085"/>
    <polyline points="708.9727,578.5805 663.466,610.7425 658.0834,614.1364 612.0892,639.5239 606.65,642.105 560.1824,660.7858 554.6885,662.6243 507.7669,675.6957 502.221,676.9759"/>
    <polyline points="501.8261,674.5861 557.1158,659.1098 609.1243,637.9481 657.9104,610.9775 708.8788,575.1427"/>
    <line x1="708.6566" x2="759.2318" y1="568.2378" y2="525.4777"/>
    <line x1="759.2688" x2="759.2688" y1="529.1464" y2="529.1464"/>
    <polyline points="761.9323,530.4359 809.1522,486.0422 861.0338,435.0514 909.7592,388.0725"/>
    <polyline points="912.0772,389.3609 863.4579,436.298 809.086,489.8208 764.5742,531.7245"/>
    <polyline points="767.1946,533.0123 809.0082,493.5966 865.8609,437.545 914.3747,390.6502"/>
    <polyline points="916.6519,391.9404 868.2429,438.7922 808.919,497.3695 769.7935,534.2992"/>
    <polyline points="772.3709,535.5853 808.8183,501.1394 870.6041,440.0398 906.2482,405.2265 918.9089,393.2314"/>
    <polyline points="921.146,394.5233 905.981,408.9322 872.9446,441.2877 808.7062,504.9061 774.9268,536.8705"/>
    <polyline points="777.4612,538.1549 808.5827,508.6695 875.2645,442.536 905.7031,412.6434 923.3632,395.8162"/>
    <polyline points="925.5607,397.1099 905.4144,416.3598 808.4479,512.4292 779.9741,539.4385"/>
    <polyline points="782.4658,540.7212 808.3017,516.1853 905.1151,420.0814 927.7388,398.4045"/>
    <polyline points="929.8976,399.7001 904.8052,423.808 833.7875,494.7184 808.1441,519.9374 784.9361,542.0032"/>
    <polyline points="787.3851,543.2843 807.9753,523.6856 836.1299,495.9628 904.4848,427.5394 932.0374,400.9965"/>
    <polyline points="934.1583,402.2939 904.1539,431.2755 838.4516,497.2068 807.7953,527.4295 789.813,544.5647"/>
    <polyline points="792.2199,545.8442 807.6041,531.169 840.7528,498.4507 903.8127,435.016 936.2605,403.5923"/>
    <polyline points="938.3443,404.8915 903.4613,438.7609 843.0337,499.6944 807.4017,534.904 794.6057,547.123"/>
    <polyline points="796.9707,548.401 807.1882,538.6344 845.2944,500.9379 903.0996,442.5099 940.41,406.1918"/>
    <polyline points="942.4577,407.4929 902.7279,446.263 847.5351,502.1811 799.3149,549.6783"/>
    <polyline points="801.6385,550.9548 849.7559,503.4242 902.3461,450.0199 944.4878,408.7951"/>
    <polyline points="907.4206,386.7849 858.5886,433.8051 809.207,482.2612 759.2688,529.1464 708.7734,571.6951 657.7263,607.8073 606.1391,636.3708 554.0296,657.4325 501.4214,672.1903"/>
    <line x1="558.5466" x2="558.5466" y1="705.3487" y2="705.3487"/>
    <line x1="558.9889" x2="558.9889" y1="750.6789" y2="750.6789"/>
    <line x1="685.9924" x2="685.9924" y1="802.561" y2="802.561"/>
    <polygon points="696.9264,750.8792 650.1908,770.5758"/>
    <polygon points="799.3594,622.785 752.2932,662.5536"/>
    <polygon points="845.9789,577.5998 799.3594,622.785 845.9789,577.5998 892.1893,529.5028"/>
    <line x1="845.9789" x2="845.9789" y1="577.5998" y2="577.5998"/>
    <polyline points="759.1833,521.8026 753.8773,526.5648 708.5284,564.771"/>
    <polyline points="708.3888,561.2946 751.1494,525.2727 759.1233,518.1213"/>
    <polyline points="759.0517,514.4339 748.4,523.9796 708.2379,557.8089"/>
    <polyline points="708.0757,554.3139 745.6292,522.6857 758.9687,510.7406"/>
    <polyline points="758.8742,507.0415 742.8372,521.3909 707.9023,550.8097"/>
    <polyline points="707.7176,547.2965 740.0239,520.0951 758.7683,503.3368"/>
    <polyline points="758.651,499.6266 737.1894,518.7984 707.5218,543.7743"/>
    <polyline points="707.3148,540.2432 734.3339,517.5008 758.5223,495.911"/>
    <polyline points="758.3822,492.1904 731.4573,516.2023 707.0968,536.7034"/>
    <polyline points="706.8677,533.155 728.5599,514.9028 758.2308,488.4647"/>
    <polyline points="758.0681,484.7341 725.6418,513.6024 706.6277,529.5981"/>
    <polyline points="706.3767,526.0329 722.703,512.301 757.8941,480.9989"/>
    <polyline points="757.709,477.2592 719.7437,510.9986 706.1148,522.4593"/>
    <polyline points="705.8422,518.8777 716.764,509.6953 757.5126,473.5151"/>
    <polyline points="757.3051,469.7667 713.7641,508.391 705.5588,515.288"/>
    <line x1="705.2647" x2="757.0866" y1="511.6904" y2="466.0144"/>
    <line x1="756.857" x2="704.9601" y1="462.2582" y2="508.0851"/>
    <line x1="704.6449" x2="756.6165" y1="504.4722" y2="458.4982"/>
    <line x1="753.6386" x2="756.365" y1="457.2433" y2="454.7348"/>
    <line x1="756.1027" x2="750.6406" y1="450.9679" y2="455.9879"/>
    <line x1="747.6225" x2="755.8295" y1="454.732" y2="447.1979"/>
    <line x1="755.5457" x2="744.5845" y1="443.4248" y2="453.4756"/>
    <line x1="741.5267" x2="755.2511" y1="452.2187" y2="439.6488"/>
    <line x1="754.946" x2="738.4495" y1="435.8702" y2="450.9613"/>
    <line x1="735.3528" x2="754.6303" y1="449.7033" y2="432.089"/>
    <line x1="754.3041" x2="732.237" y1="428.3055" y2="448.4448"/>
    <line x1="729.1023" x2="753.9676" y1="447.1858" y2="424.5198"/>
    <line x1="753.6208" x2="725.9488" y1="420.732" y2="445.9262"/>
    <line x1="722.7769" x2="753.2637" y1="444.6661" y2="416.9425"/>
    <line x1="752.8965" x2="719.5866" y1="413.1512" y2="443.4054"/>
    <line x1="716.3784" x2="752.5192" y1="442.1442" y2="409.3585"/>
    <line x1="752.1319" x2="713.1524" y1="405.5645" y2="440.8824"/>
    <line x1="709.9088" x2="751.7348" y1="439.6199" y2="401.7693"/>
    <line x1="751.3279" x2="706.648" y1="397.9732" y2="438.3569"/>
    <line x1="703.3702" x2="750.9113" y1="437.0933" y2="394.1763"/>
    <line x1="750.485" x2="700.0756" y1="390.3787" y2="435.8291"/>
    <line x1="696.7647" x2="696.7647" y1="434.5642" y2="434.5642"/>
    <line x1="696.2571" x2="642.4979" y1="430.8288" y2="475.8704"/>
    <polyline points="643.0623,479.436 696.7647,434.5642 750.0493,386.5807"/>
    <line x1="746.8073" x2="749.6042" y1="385.3393" y2="382.7825"/>
    <line x1="749.1497" x2="743.5481" y1="378.9841" y2="384.0979"/>
    <line x1="740.2718" x2="748.6861" y1="382.8564" y2="375.1858"/>
    <line x1="748.2134" x2="736.9788" y1="371.3878" y2="381.6149"/>
    <line x1="733.6693" x2="747.7317" y1="380.3733" y2="367.5903"/>
    <line x1="747.2411" x2="730.3437" y1="363.7933" y2="379.1316"/>
    <line x1="727.0022" x2="746.7418" y1="377.8898" y2="359.9971"/>
    <line x1="746.2338" x2="723.6452" y1="356.2019" y2="376.648"/>
    <line x1="720.2729" x2="745.7173" y1="375.406" y2="352.4078"/>
    <line x1="745.1924" x2="716.8857" y1="348.615" y2="374.1639"/>
    <line x1="713.4839" x2="744.6592" y1="372.9217" y2="344.8237"/>
    <line x1="744.1179" x2="710.0678" y1="341.0341" y2="371.6794"/>
    <line x1="706.6378" x2="743.5685" y1="370.4369" y2="337.2463"/>
    <line x1="743.0112" x2="703.1942" y1="333.4605" y2="369.1943"/>
    <line x1="699.7374" x2="742.4462" y1="367.9515" y2="329.6769"/>
    <line x1="741.8735" x2="696.2677" y1="325.8956" y2="366.7085"/>
    <line x1="692.7855" x2="741.2933" y1="365.4654" y2="322.1168"/>
    <line x1="740.7057" x2="689.2911" y1="318.3408" y2="364.2221"/>
    <line x1="685.785" x2="631.1639" y1="362.9786" y2="410.4041"/>
    <line x1="631.8446" x2="686.4263" y1="414.0979" y2="366.7699"/>
    <line x1="687.0615" x2="632.5201" y1="370.5596" y2="417.7859"/>
    <line x1="633.1903" x2="687.6902" y1="421.4677" y2="374.3474"/>
    <polyline points="688.3123,378.1332 645.3441,415.5119 633.8549,425.1434"/>
    <polyline points="634.5139,428.8127 648.8627,416.7869 688.9278,381.9168"/>
    <polyline points="689.5364,385.6981 652.3699,418.0613 635.1671,432.4755"/>
    <polyline points="635.8143,436.1316 655.8653,419.3349 690.138,389.4769"/>
    <polyline points="690.7326,393.253 659.3487,420.6078 636.4554,439.7809"/>
    <polyline points="637.0902,443.4233 662.8195,421.8799 691.3198,397.0262"/>
    <polyline points="691.8997,400.7964 666.2775,423.1514 637.7186,447.0587"/>
    <polyline points="638.3405,450.6868 669.7223,424.4222 692.4721,404.5634"/>
    <polyline points="693.0368,408.327 673.1536,425.6923 638.9556,454.3075"/>
    <polyline points="639.5639,457.9208 676.5709,426.9617 693.5937,412.0871"/>
    <polyline points="694.1427,415.8435 679.974,428.2304 640.1652,461.5265"/>
    <polyline points="640.7594,465.1244 683.3626,429.4985 694.6837,419.596"/>
    <polyline points="695.2165,423.3445 686.7362,430.7659 641.3464,468.7144"/>
    <line x1="641.9259" x2="695.741" y1="472.2965" y2="427.0888"/>
    <polyline points="682.2674,361.735 739.5088,310.7974 793.5433,264.5354"/>
    <polyline points="792.9857,260.9073 738.8999,307.0304 678.7389,360.4911"/>
    <polyline points="675.1997,359.2469 738.2841,303.2667 783.8959,264.2759 792.4203,257.2865"/>
    <polyline points="791.8472,253.6733 780.4684,262.9796 737.6617,299.5067 671.6502,358.0026"/>
    <polyline points="668.0909,356.758 737.0327,295.7503 777.0273,261.6841 791.2667,250.0676"/>
    <polyline points="790.6787,246.4697 773.5728,260.3895 736.3973,291.9977 664.5222,355.5132"/>
    <polyline points="660.9444,354.2682 735.7556,288.2493 770.1055,259.0959 790.0836,242.8797"/>
    <polyline points="789.4813,239.2977 766.6255,257.8031 735.1079,284.505 657.3579,353.0229"/>
    <polyline points="653.7633,351.7773 734.4542,280.765 763.1333,256.5113 788.872,235.7238"/>
    <polyline points="788.2559,232.1582 759.6293,255.2203 733.7947,277.0296 650.1608,350.5314"/>
    <polyline points="646.5509,349.2853 701.45,300.8289 733.1295,273.2989 756.1138,253.9302 787.6332,228.6009"/>
    <polyline points="787.0039,225.0521 752.5872,252.641 732.4588,269.573 697.873,299.582 642.9341,348.0389"/>
    <polyline points="639.3107,346.7921 694.2873,298.3354 731.7828,265.852 749.0499,251.3527 786.3682,221.512"/>
    <polyline points="785.7263,217.9805 745.5023,250.0652 731.1016,262.1363 690.6934,297.0891 635.6812,345.5451"/>
    <polyline points="632.046,344.2977 687.0916,295.843 730.4154,258.4259 741.9447,248.7785 785.0783,214.4579"/>
    <polyline points="784.4243,210.9443 738.3777,247.4927 729.7243,254.7209 683.4824,294.5973 628.4056,343.05"/>
    <polyline points="624.7603,341.802 679.8662,293.3518 729.0285,251.0215 783.7645,207.4397"/>
    <polyline points="783.0991,203.9443 728.3282,247.328 676.2434,292.1066 621.1106,340.5537"/>
    <line x1="617.457" x2="672.6144" y1="339.3049" y2="290.8617"/>
    <polygon points="672.6144,290.8617 727.6234,243.6403"/>
    <polyline points="668.9797,289.617 726.9144,239.9587 781.7519,196.9814"/>
    <polyline points="781.0705,193.5142 775.3053,197.7461 726.2014,236.2834 665.3397,288.3725"/>
    <polyline points="661.6948,287.1282 725.4845,232.6144 771.73,196.392 780.3841,190.0565"/>
    <polyline points="779.6928,186.6085 768.1459,195.0391 724.7638,228.9519 713.176,238.5151 658.0456,285.8842"/>
    <polyline points="654.3923,284.6404 709.5475,237.2358 724.0396,225.2961 764.5534,193.6874 778.9967,183.1702"/>
    <polyline points="778.2962,179.7418 760.953,192.337 723.3119,221.6471 705.9134,235.9573 650.7355,283.3968"/>
    <polyline points="647.0755,282.1534 667.4229,264.3959 702.2738,234.6795 722.5811,218.0051 757.3451,190.9877 777.5912,176.3234"/>
    <polyline points="776.8821,172.915 753.7302,189.6397 721.8471,214.3701 698.6294,233.4025 666.6724,260.6258 643.4129,280.9102"/>
    <polyline points="639.7481,279.6671 665.9201,256.859 694.9805,232.1262 721.1103,210.7423 750.1085,188.293 776.1689,169.5167"/>
    <polyline points="775.4518,166.1287 746.4806,186.9474 720.3708,207.1219 691.3276,230.8507 665.1664,253.0955 636.0815,278.4242"/>
    <polyline points="632.4136,277.1815 664.4113,249.3356 687.671,229.5759 719.6287,203.509 742.847,185.603 774.7309,162.7509"/>
    <polyline points="774.0065,159.3835 739.2079,184.2599 718.8842,199.9037 684.0114,228.3019 663.655,245.5794 628.7448,275.939"/>
    <polyline points="625.0756,274.6965 662.8978,241.827 680.349,227.0286 718.1375,196.3061 735.5639,182.9179 773.2787,156.0265"/>
    <polyline points="772.5477,152.6801 731.9154,181.5771 717.3887,192.7165 676.6844,225.756 621.4063,273.4543"/>
    <polyline points="617.7376,272.2121 673.0179,224.4841 716.6381,189.1348 728.2628,180.2375 771.8137,149.3442"/>
    <polyline points="771.0767,146.019 724.6066,178.8991 715.8859,185.5613 669.3501,223.2129 614.0697,270.9701"/>
    <polyline points="610.4032,269.7281 665.6814,221.9424 715.1321,181.9961 720.9472,177.5618 770.337,142.7046"/>
    <polyline points="769.5948,139.4009 714.3769,178.4392 662.0121,220.6726 606.7385,268.4863"/>
    <line x1="603.076" x2="658.3429" y1="267.2446" y2="219.4035"/>
    <polyline points="657.5835,215.6828 712.8633,171.351 768.1034,132.8261"/>
    <polyline points="767.3546,129.5551 761.5421,133.2543 712.1051,167.82 706.2866,172.2244 656.8245,211.9673"/>
    <polyline points="656.0661,208.2571 702.6179,170.8929 711.3464,164.2978 757.883,131.8297 766.6039,126.2951"/>
    <polyline points="765.8516,123.0462 754.2211,130.4064 710.5871,160.7846 698.9487,169.5626 655.3084,204.5524"/>
    <polyline points="654.5517,200.8533 695.2794,168.2333 709.8276,157.2804 750.5568,128.9847 765.0977,119.8084"/>
    <polyline points="764.3425,116.5818 746.8907,127.5644 709.0679,153.7854 691.6106,166.9053 653.796,197.16"/>
    <polyline points="653.0417,193.4726 687.9425,165.5783 708.3083,150.2997 743.2231,126.1455 763.5861,113.3664"/>
    <polyline points="762.8288,110.1622 739.5544,124.7281 707.5489,146.8234 684.2757,164.2524 652.2887,189.7913"/>
    <polyline points="651.5374,186.1163 680.6106,162.9277 706.79,143.3566 735.8853,123.3121 762.0706,106.9694"/>
    <polyline points="761.3118,103.7878 732.216,121.8975 706.0316,139.8993 676.9477,161.604 650.7879,182.4476"/>
    <polyline points="650.0404,178.7854 673.2874,160.2815 705.274,136.4517 728.5471,120.4844 760.5526,100.6176"/>
    <polyline points="759.793,97.4587 724.8789,119.0727 704.5173,133.0139 669.6301,158.96 649.295,175.1299"/>
    <polyline points="648.5519,171.4812 665.9763,157.6396 703.7617,129.586 721.212,117.6624 759.0333,94.3113"/>
    <polyline points="758.2737,91.1753 717.5467,116.2536 703.0074,126.168 662.3265,156.3203 647.8113,167.8394"/>
    <polyline points="647.0734,164.2048 658.681,155.0021 702.2545,122.7601 713.8836,114.8461 757.5144,88.0508"/>
    <polyline points="756.7554,84.9377 710.223,113.4401 701.5033,119.3623 655.0403,153.6849 646.3382,160.5774"/>
    <polyline points="645.6061,156.9573 651.4049,152.3688 700.7539,115.9747 706.5655,112.0355 755.9971,81.8362"/>
    <polyline points="755.2395,78.7461 702.9113,110.6323 644.8771,153.3447"/>
    <line x1="644.1515" x2="699.2611" y1="149.7398" y2="109.2305"/>
    <polyline points="698.5181,105.874 753.7273,72.6006 806.0891,48.158 806.5585,48.0"/>
    <polyline points="799.2934,48.0 752.9731,69.5451 747.1587,72.6569 697.7777,102.528"/>
    <polyline points="697.0398,99.1926 743.5008,71.1539 752.2203,66.5012 792.1382,48.0"/>
    <polyline points="784.9628,48.0 751.4691,63.4688 739.8464,69.6525 696.3048,95.8679"/>
    <polyline points="695.5728,92.5539 736.1958,68.1525 750.7198,60.448 777.7676,48.0"/>
    <polyline points="770.5533,48.0 749.9724,57.4387 732.5495,66.6542 694.844,89.2507"/>
    <polyline points="694.1185,85.9584 728.9079,65.1573 749.2272,54.4409 763.3204,48.0"/>
    <polyline points="756.0695,48.0 748.4844,51.4546 725.2715,63.662 693.3966,82.6769"/>
    <polyline points="692.6783,79.4065 721.6407,62.1683 747.744,48.4799 748.8013,48.0"/>
    <polyline points="742.2572,48.0 718.0159,60.6761 691.9638,76.147"/>
    <polyline points="691.2534,72.8986 714.3975,59.1854 735.8482,48.0"/>
    <polyline points="729.4328,48.0 710.786,57.6962 690.5471,69.6613"/>
    <polyline points="689.8451,66.4352 707.1819,56.2086 723.0115,48.0"/>
    <polyline points="716.5848,48.0 703.5854,54.7226 689.1477,63.2203"/>
    <polyline points="688.4548,60.0167 699.9971,53.238 710.1534,48.0"/>
    <polyline points="703.7178,48.0 696.4173,51.755 687.7669,56.8243"/>
    <polyline points="687.0838,53.6432 692.8465,50.2736 697.2786,48.0"/>
    <line x1="691.2404" x2="686.4059" y1="48.0" y2="50.4735"/>
    <line x1="809.7584" x2="809.7584" y1="49.7719" y2="49.7719"/>
    <polyline points="814.9997,48.0 809.7584,49.7719 754.4828,75.6676 699.2611,109.2305 754.4828,75.6676"/>
    <polygon points="768.8502,136.108 713.6206,174.8908"/>
    <polygon points="713.6206,174.8908 658.3429,219.4035"/>
    <polygon points="727.6234,243.6403 782.4282,200.4582"/>
    <polyline points="794.0931,268.1707 740.1108,314.5675 685.785,362.9786 740.1108,314.5675"/>
    <polyline points="856.3416,307.4512 867.2338,298.327 907.8695,266.4367 918.6489,258.6288"/>
    <polyline points="921.4949,260.0435 908.045,269.8257 870.1857,299.6508 856.594,311.0723"/>
    <polyline points="856.8356,314.7007 873.1169,300.9756 908.2092,273.2249 924.3197,261.4596"/>
    <polyline points="927.1234,262.8771 908.3622,276.6342 876.0276,302.3016 857.0661,318.3363"/>
    <polyline points="857.2857,321.979 878.9174,303.6287 908.5038,280.0535 929.9058,264.2961"/>
    <polyline points="932.6668,265.7166 908.6341,283.4828 881.7863,304.9568 857.4942,325.6287"/>
    <polyline points="857.6915,329.2851 884.6341,306.2862 908.753,286.9219 935.4064,267.1385"/>
    <polyline points="938.1246,268.5618 908.8605,290.3708 887.4609,307.6166 857.8777,332.9481"/>
    <polyline points="858.0527,336.6177 890.2665,308.9482 908.9565,293.8294 940.8213,269.9866"/>
    <polyline points="943.4965,271.4129 909.0411,297.2976 893.0508,310.2809 858.2164,340.2936"/>
    <polyline points="858.3689,343.9758 895.8138,311.6148 909.1142,300.7752 946.1502,272.8406"/>
    <polyline points="948.7824,274.2698 909.1758,304.2621 898.5554,312.9498 858.51,347.664"/>
    <polyline points="858.6397,351.3581 901.2755,314.286 909.2259,307.7584 951.393,275.7004"/>
    <polyline points="953.982,277.1325 909.2644,311.2638 858.7581,355.0579"/>
    <polyline points="858.8651,358.7634 909.2915,314.7782 956.5496,278.5661"/>
    <line x1="959.1604" x2="1008.4733" y1="276.7396" y2="246.0553"/>
    <polyline points="1008.6061,243.1014 1003.4329,245.9356 959.2136,273.4892"/>
    <polyline points="959.2552,270.2499 1000.953,244.3953 1008.7275,240.159"/>
    <polyline points="1008.8375,237.2281 998.4517,242.8566 959.2854,267.0218"/>
    <polyline points="959.304,263.8048 995.929,241.3195 1008.9361,234.3085"/>
    <polyline points="1009.0232,231.4003 993.3848,239.7839 959.311,260.5991"/>
    <polyline points="959.3065,257.4047 990.8192,238.2498 1009.0989,228.5035"/>
    <polyline points="1009.1631,225.618 988.2321,236.7173 959.2905,254.2216"/>
    <polyline points="959.2629,251.0498 985.6234,235.1864 1009.2157,222.7438"/>
    <polyline points="1009.2569,219.8809 982.9933,233.6569 959.2238,247.8894"/>
    <polyline points="959.1732,244.7404 980.3415,232.1291 1009.2865,217.0291"/>
    <polyline points="1009.3045,214.1885 977.6683,230.6027 959.1111,241.6029"/>
    <polyline points="959.0375,238.4768 974.9735,229.0779 1009.3111,211.3591"/>
    <polyline points="1009.306,208.5407 972.2573,227.5547 958.9524,235.3621"/>
    <polyline points="958.8558,232.259 969.5196,226.033 1009.2895,205.7333"/>
    <polyline points="1009.2614,202.9369 966.7605,224.5128 958.7478,229.1674"/>
    <polyline points="958.6284,226.0873 963.9801,222.9942 1009.2218,200.1514"/>
    <line x1="1009.1706" x2="958.4976" y1="197.3767" y2="223.0187"/>
    <polyline points="958.3555,219.9617 1009.108,194.6129 1059.3051,176.3978"/>
    <line x1="1059.2875" x2="1104.0" y1="178.9106" y2="167.2842"/>
    <polygon points="1104.0,164.9479 1059.3051,176.3978"/>
    <polyline points="1104.0,162.6253 1056.6788,174.685 1009.0338,191.8597"/>
    <polyline points="1008.9482,189.1173 1054.031,172.9733 1059.3055,171.3968 1104.0,160.2795"/>
    <polyline points="1104.0,157.7872 1101.3296,158.3591 1059.2885,168.9083 1051.3617,171.2628 1008.8511,186.3854"/>
    <polyline points="1008.7426,183.6641 1048.6708,169.5534 1059.2599,166.4278 1098.7484,156.5863 1104.0,155.4672"/>
    <polyline points="1104.0,153.1487 1096.1456,154.8141 1059.2197,163.955 1045.9585,167.8451 1008.6227,180.9532"/>
    <polyline points="1008.4914,178.2526 1043.2247,166.138 1059.168,161.4899 1093.5213,153.0426 1104.0,150.8315"/>
    <polyline points="1104.0,148.5155 1090.8755,151.2718 1059.1049,159.0323 1040.4695,164.432 1008.3487,175.5624"/>
    <polyline points="1008.1947,172.8824 1037.693,162.7271 1059.0302,156.582 1088.2081,149.5016 1104.0,146.2006"/>
    <polyline points="1104.0,143.8867 1085.5192,147.7321 1058.9441,154.139 1034.8952,161.0234 1008.0295,170.2125"/>
    <polyline points="1007.853,167.5527 1032.0761,159.3209 1058.8465,151.7031 1082.8089,145.9632 1104.0,141.5736"/>
    <polyline points="1104.0,139.2611 1080.077,144.1951 1058.7374,149.2741 1029.2359,157.6195 1007.6652,164.9028"/>
    <polyline points="1007.4664,162.2628 1026.3746,155.9193 1058.617,146.8519 1077.3238,142.4276 1104.0,136.9492"/>
    <polyline points="1104.0,134.6377 1074.5492,140.6608 1058.4851,144.4364 1023.4924,154.2203 1007.2564,159.6326"/>
    <polyline points="1007.0353,157.012 1020.5894,152.5224 1058.342,142.0275 1071.7533,138.8948 1104.0,132.3264"/>
    <polyline points="1104.0,130.0152 1068.9361,137.1294 1058.1875,139.6249 1017.6656,150.8258 1006.8032,154.4011"/>
    <polyline points="1006.5602,151.7996 1014.7212,149.1303 1058.0217,137.2285 1066.0979,135.3648 1104.0,127.704"/>
    <polyline points="1104.0,125.4069 1057.8447,134.8383 1011.7564,147.436 1006.3062,149.2075"/>
    <polyline points="1006.0414,146.6248 1057.6564,132.4539 1104.0,123.0876"/>
    <line x1="1104.0" x2="1054.5352" y1="118.4556" y2="128.3138"/>
    <line x1="1057.4571" x2="1104.0" y1="130.0754" y2="120.7685"/>
    <line x1="1104.0" x2="1057.4571" y1="120.7685" y2="130.0754"/>
    <line x1="1057.4571" x2="1005.7659" y1="130.0754" y2="144.0511"/>
    <polyline points="1024.2074,110.7406 1054.5422,104.249 1104.0,95.2262"/>
    <polyline points="1104.0,97.5536 1054.8608,106.5742 1027.3284,112.4942"/>
    <polyline points="1030.4303,114.2488 1055.1688,108.9035 1104.0,99.8795"/>
    <polyline points="1104.0,102.2039 1055.4663,111.2369 1033.5128,116.0041"/>
    <polyline points="1036.5759,117.7602 1055.7531,113.5748 1104.0,104.527"/>
    <polyline points="1104.0,106.8491 1056.0291,115.9171 1039.6193,119.5172"/>
    <polyline points="1042.6428,121.2749 1056.2944,118.2642 1104.0,109.1703"/>
    <polyline points="1104.0,111.4908 1056.5489,120.6161 1045.6463,123.0335"/>
    <polyline points="1048.6297,124.7928 1056.7924,122.973 1104.0,113.8107"/>
    <line x1="1104.0" x2="1051.5926" y1="116.1419" y2="126.5529"/>
    <polyline points="1021.0676,108.9877 1054.2132,101.9277 1104.0,92.897"/>
    <polyline points="1104.0,90.5657 1053.8739,99.6101 1017.9091,107.2357"/>
    <polyline points="1014.7321,105.4846 1053.5242,97.296 1104.0,88.2323"/>
    <polyline points="1104.0,85.8964 1053.1644,94.9854 1011.537,103.7343"/>
    <polyline points="1008.3239,101.9848 1052.7944,92.6779 1104.0,83.5578"/>
    <polyline points="1104.0,81.2164 1052.4144,90.3735 1005.093,100.2363"/>
    <polyline points="1001.8448,98.4886 1052.0245,88.0719 1104.0,78.872"/>
    <polyline points="1104.0,76.5242 1051.6246,85.7731 998.5793,96.7418"/>
    <polyline points="1059.2585,181.4319 1064.493,179.8266 1104.0,169.5978"/>
    <polyline points="1104.0,171.9253 1067.0547,181.5427 1059.2178,183.9616"/>
    <polyline points="1059.1657,186.5 1069.5949,183.2599 1104.0,174.2546"/>
    <polyline points="1104.0,176.5857 1072.1137,184.9782 1059.1021,189.0472"/>
    <polyline points="1059.0269,191.6031 1074.6112,186.6975 1104.0,178.9189"/>
    <polyline points="1104.0,181.2543 1077.0872,188.4179 1058.9403,194.1681"/>
    <polyline points="1058.8423,196.7421 1079.5421,190.1394 1104.0,183.5918"/>
    <polyline points="1104.0,185.9317 1081.9757,191.8619 1058.7328,199.3253"/>
    <polyline points="1058.6119,201.9178 1084.3883,193.5855 1104.0,188.274"/>
    <polyline points="1104.0,190.6188 1086.7798,195.3101 1058.4796,204.5197"/>
    <polyline points="1058.3359,207.1311 1089.1505,197.0358 1104.0,192.9663"/>
    <polyline points="1104.0,195.3164 1091.5003,198.7625 1058.181,209.7521"/>
    <polyline points="1058.0147,212.3828 1093.8295,200.4902 1104.0,197.6693"/>
    <polyline points="1104.0,200.0251 1096.1382,202.2189 1057.8373,215.0232"/>
    <polyline points="1057.6486,217.6735 1098.4264,203.9487 1104.0,202.3839"/>
    <polyline points="1104.0,204.7457 1100.6944,205.6795 1057.4487,220.3338"/>
    <line x1="1057.2378" x2="1104.0" y1="223.0042" y2="207.1898"/>
    <line x1="1104.0" x2="1057.0158" y1="209.546" y2="225.6846"/>
    <polyline points="1008.3291,249.0207 959.0957,280.0011 909.307,318.3016 858.9606,362.4743"/>
    <polyline points="856.0782,303.8376 864.2615,297.0044 907.6828,263.058 915.7819,257.2155"/>
    <polyline points="912.894,255.8037 907.4849,259.6896 861.269,295.6828 855.8041,300.2316"/>
    <line x1="855.5193" x2="909.9853" y1="296.6333" y2="254.3933"/>
    <polygon points="907.0559,252.9843 855.2238,293.0429"/>
    <line x1="904.1059" x2="854.9177" y1="251.5767" y2="289.4605"/>
    <line x1="854.601" x2="901.1355" y1="285.8863" y2="250.1706"/>
    <line x1="898.1448" x2="854.2739" y1="248.7658" y2="282.3203"/>
    <line x1="853.9364" x2="895.134" y1="278.7626" y2="247.3625"/>
    <line x1="892.1032" x2="853.5887" y1="245.9606" y2="275.2135"/>
    <line x1="853.2307" x2="889.0526" y1="271.6729" y2="244.56"/>
    <line x1="885.9824" x2="852.8625" y1="243.1609" y2="268.1411"/>
    <line x1="852.4844" x2="882.8928" y1="264.6181" y2="241.7632"/>
    <line x1="879.784" x2="852.0962" y1="240.3668" y2="261.104"/>
    <line x1="851.6982" x2="876.6561" y1="257.599" y2="238.9718"/>
    <line x1="873.5094" x2="851.2904" y1="237.5782" y2="254.1032"/>
    <line x1="850.8729" x2="870.3442" y1="250.6167" y2="236.186"/>
    <line x1="867.1606" x2="850.4458" y1="234.7952" y2="247.1395"/>
    <line x1="850.0092" x2="863.9589" y1="243.6718" y2="233.4057"/>
    <line x1="860.7393" x2="849.5632" y1="232.0176" y2="240.2137"/>
    <line x1="849.1079" x2="857.5021" y1="236.7652" y2="230.6309"/>
    <line x1="854.2475" x2="848.6434" y1="229.2455" y2="233.3265"/>
    <line x1="848.1699" x2="850.9758" y1="229.8977" y2="227.8615"/>
    <line x1="847.6874" x2="847.6874" y1="226.4788" y2="226.4788"/>
    <line x1="909.307" x2="909.307" y1="318.3016" y2="318.3016"/>
    <polyline points="1041.1098,335.6452 1086.863,308.7968 1104.0,301.4371"/>
    <polyline points="1104.0,443.0919 1090.3905,451.6264 1045.3772,487.5492 1000.5193,529.9515"/>
    <polyline points="1032.2835,554.6593 986.8707,600.5332 1032.2835,554.6593 1077.9977,513.826"/>
    <line x1="1077.4091" x2="1104.0" y1="517.2071" y2="497.463"/>
    <polygon points="1104.0,494.6583 1077.9977,513.826"/>
    <polyline points="1104.0,491.8642 1078.5936,510.4553 1032.9257,551.0516 987.5521,596.7758"/>
    <polyline points="988.2386,593.0222 1033.574,547.4515 1074.3791,511.0369 1079.1965,507.095 1104.0,488.8565"/>
    <polyline points="1104.0,485.9786 1079.8064,503.7452 1072.5892,509.6445 1034.2283,543.8594 1027.0586,550.7349 988.9299,589.2726"/>
    <polyline points="989.6259,585.5271 1025.3385,549.4287 1034.8883,540.2751 1070.8117,508.2534 1080.4231,500.406 1104.0,483.1158"/>
    <polyline points="1104.0,480.268 1081.0464,497.0773 1069.0462,506.8637 1035.554,536.699 1023.6284,548.1236 990.3265,581.786"/>
    <polyline points="991.0314,578.0493 1021.9281,546.8194 1036.2251,533.1311 1067.2924,505.4753 1081.6763,493.7594 1104.0,477.4352"/>
    <polyline points="1104.0,474.6171 1082.3126,490.4523 1065.5498,504.0883 1036.9016,529.5716 1020.2371,545.5162 991.7406,574.3173"/>
    <polyline points="992.4538,570.59 1018.5549,544.214 1037.5833,526.0205 1063.8182,502.7027 1082.9551,487.156 1104.0,471.8137"/>
    <polyline points="1104.0,500.1147 1081.6703,516.6206 1076.8279,520.5984"/>
    <polyline points="1076.2541,523.9999 1083.5277,518.02 1104.0,502.8671"/>
    <polyline points="1104.0,505.6357 1085.3995,519.4208 1075.688,527.4115"/>
    <polyline points="1075.1297,530.8331 1087.2862,520.823 1104.0,508.4207"/>
    <polyline points="1104.0,511.2223 1089.1881,522.2266 1074.5792,534.2646"/>
    <polyline points="1074.0368,537.706 1091.1054,523.6316 1104.0,514.0405"/>
    <polyline points="1104.0,516.8756 1093.0385,525.038 1073.5025,541.1571"/>
    <polyline points="1072.9764,544.6179 1094.9877,526.4458 1104.0,519.7275"/>
    <polyline points="1104.0,522.5964 1096.9533,527.855 1072.4588,548.0882"/>
    <polyline points="1071.9496,551.5679 1098.9355,529.2657 1104.0,525.4824"/>
    <polyline points="1104.0,528.3856 1100.9346,530.6778 1071.4491,555.057"/>
    <polyline points="1070.9573,558.5554 1102.951,532.0913 1104.0,531.3062"/>
    <line x1="1104.0" x2="1070.4744" y1="534.3212" y2="562.0628"/>
    <line x1="1070.0004" x2="1104.0" y1="565.5793" y2="537.436"/>
    <line x1="1104.0" x2="1069.5355" y1="540.5682" y2="569.1048"/>
    <line x1="1069.0798" x2="1104.0" y1="572.639" y2="543.7177"/>
    <line x1="1104.0" x2="1068.6334" y1="547.0279" y2="576.1819"/>
    <polyline points="1066.1642,578.4039 1019.4803,623.221 975.6369,668.6273 929.7227,716.8687"/>
    <polyline points="929.1138,720.6202 975.0792,672.425 1021.4265,624.487 1068.1964,579.7334 1104.0,550.0686"/>
    <polyline points="1064.1494,577.0755 1017.5501,621.9556 976.2023,664.8302 930.3385,713.1134"/>
    <polyline points="930.9609,709.3543 976.7753,661.0338 1015.6356,620.6908 1022.9527,613.3196 1062.1518,575.7482"/>
    <polyline points="1060.1711,574.422 1023.4783,609.6075 1013.7365,619.4267 977.3559,657.2383 931.5899,705.5916"/>
    <polyline points="932.2253,701.8255 977.9439,653.4439 1011.8525,618.1632 1024.0123,605.9008 1058.207,573.097"/>
    <polyline points="1056.2593,571.773 1024.5543,602.1996 1009.9833,616.9002 978.539,649.6507 932.867,698.0561"/>
    <polyline points="933.5147,694.2837 979.1413,645.859 1008.1286,615.6379 1025.1044,598.5042 1054.3277,570.4502"/>
    <polyline points="1052.4118,569.1284 1025.6624,594.8146 1006.2879,614.3761 979.7506,642.0689 934.1685,690.5084"/>
    <polyline points="934.828,686.7304 980.3667,638.2806 1004.4611,613.1149 1026.2282,591.1311 1050.5113,567.8078"/>
    <polyline points="1048.626,566.4882 1026.8016,587.4538 1002.6476,611.8543 980.9894,634.4942 935.4931,682.9498"/>
    <polyline points="936.1638,679.1667 1000.8472,610.5943 1027.3825,583.7827 1046.7554,565.1696"/>
    <polyline points="1044.8994,563.8522 1027.9708,580.1182 999.0596,609.3348 936.8398,675.3815"/>
    <polyline points="937.521,671.5942 997.2842,608.0758 1028.5663,576.4602 1043.0575,562.5358"/>
    <polyline points="1041.2293,561.2204 1029.1689,572.809 995.5209,606.8174 938.2072,667.8051"/>
    <polyline points="938.8983,664.0142 993.7692,605.5596 1029.7785,569.1647 1039.4147,559.9061"/>
    <polyline points="1037.6131,558.5929 1030.3949,565.5275 992.0287,604.3022 939.5941,660.2218"/>
    <polyline points="940.2945,656.4281 990.299,603.0454 1035.8243,557.2807"/>
    <polyline points="1034.0479,555.9695 988.5798,601.789 940.9992,652.6331"/>
    <line x1="941.7082" x2="986.8707" y1="648.8372" y2="600.5332"/>
    <line x1="1061.7975" x2="1104.0" y1="648.6723" y2="610.9541"/>
    <line x1="1104.0" x2="1061.5664" y1="614.4691" y2="652.368"/>
    <line x1="1061.3464" x2="1104.0" y1="656.0694" y2="617.7281"/>
    <polyline points="1104.0,621.0927 1068.8154,652.5156 1061.1374,659.7764"/>
    <polyline points="1060.9395,663.4887 1071.1963,653.7983 1104.0,624.5103"/>
    <polyline points="1104.0,627.9468 1073.5981,655.0819 1060.7528,667.2064"/>
    <polyline points="1060.5773,670.9291 1076.0209,656.3662 1104.0,631.4022"/>
    <polyline points="1104.0,634.8764 1078.4649,657.6514 1060.4131,674.6568"/>
    <polyline points="1060.2601,678.3893 1080.9301,658.9375 1104.0,638.3691"/>
    <polyline points="1104.0,641.8804 1083.4165,660.2243 1060.1185,682.1264"/>
    <polyline points="1059.9882,685.8679 1085.9244,661.5121 1104.0,645.41"/>
    <polyline points="1104.0,648.958 1088.4536,662.8007 1059.8693,689.6138"/>
    <polyline points="1059.7618,693.3637 1091.0044,664.0901 1104.0,652.5241"/>
    <polyline points="1104.0,656.1082 1093.5765,665.3804 1059.6657,697.1177"/>
    <polyline points="1059.5812,700.8754 1096.1703,666.6716 1104.0,659.7102"/>
    <polyline points="1104.0,663.33 1098.7855,667.9637 1059.508,704.6368"/>
    <polyline points="1059.4464,708.4017 1101.4223,669.2567 1104.0,666.9673"/>
    <line x1="1104.0" x2="1059.3963" y1="670.8322" y2="712.1699"/>
    <line x1="1054.1687" x2="1009.9825" y1="717.217" y2="760.5671"/>
    <line x1="1010.1123" x2="1051.62" y1="756.7735" y2="715.9684"/>
    <line x1="1049.0927" x2="1010.2534" y1="714.7201" y2="752.9787"/>
    <line x1="1010.4058" x2="1046.5868" y1="749.1828" y2="713.4721"/>
    <line x1="1044.1022" x2="1010.5696" y1="712.2244" y2="745.3861"/>
    <line x1="1010.7446" x2="1041.639" y1="741.5887" y2="710.9771"/>
    <line x1="1039.1969" x2="1010.9308" y1="709.7301" y2="737.7909"/>
    <line x1="1011.1281" x2="1036.776" y1="733.9927" y2="708.4834"/>
    <line x1="1034.3761" x2="1011.3366" y1="707.237" y2="730.1943"/>
    <line x1="1011.5562" x2="1031.9972" y1="726.396" y2="705.9909"/>
    <line x1="1029.6391" x2="1011.7868" y1="704.7451" y2="722.5979"/>
    <line x1="1012.0283" x2="1027.3017" y1="718.8002" y2="703.4996"/>
    <line x1="1024.9849" x2="1012.2808" y1="702.2543" y2="715.003"/>
    <line x1="1012.5441" x2="1022.6886" y1="711.2066" y2="701.0093"/>
    <line x1="1020.4126" x2="1012.8182" y1="699.7645" y2="707.411"/>
    <line x1="1013.1031" x2="1018.1567" y1="703.6166" y2="698.5199"/>
    <line x1="1015.9208" x2="1013.3986" y1="697.2756" y2="699.8233"/>
    <line x1="1013.7047" x2="1013.7047" y1="696.0316" y2="696.0316"/>
    <line x1="652.1676" x2="599.2123" y1="545.4659" y2="579.6181"/>
    <line x1="598.7499" x2="648.9923" y1="576.516" y2="544.0719"/>
    <line x1="645.7988" x2="598.2785" y1="542.6765" y2="573.4024"/>
    <line x1="597.798" x2="642.5873" y1="570.2774" y2="541.2797"/>
    <line x1="639.358" x2="597.3086" y1="539.8815" y2="567.1408"/>
    <line x1="596.8105" x2="636.1113" y1="563.9928" y2="538.482"/>
    <line x1="632.8474" x2="596.3037" y1="537.081" y2="560.8335"/>
    <line x1="595.7883" x2="629.5665" y1="557.6627" y2="535.6786"/>
    <line x1="626.2689" x2="595.2646" y1="534.2748" y2="554.4806"/>
    <line x1="594.7325" x2="622.955" y1="551.2872" y2="532.8696"/>
    <line x1="619.6251" x2="594.1923" y1="531.463" y2="548.0825"/>
    <line x1="593.644" x2="616.2793" y1="544.8665" y2="530.055"/>
    <line x1="612.9181" x2="593.0878" y1="528.6456" y2="541.6394"/>
    <line x1="592.5238" x2="609.5417" y1="538.401" y2="527.2347"/>
    <line x1="606.1504" x2="591.9521" y1="525.8225" y2="535.1516"/>
    <line x1="591.3729" x2="602.7447" y1="531.8911" y2="524.4088"/>
    <line x1="599.3248" x2="590.7863" y1="522.9936" y2="528.6196"/>
    <line x1="590.1924" x2="595.8911" y1="525.3372" y2="521.577"/>
    <line x1="592.4438" x2="589.5914" y1="520.159" y2="522.0438"/>
    <line x1="588.9835" x2="588.9835" y1="518.7396" y2="518.7396"/>
    <line x1="506.9281" x2="506.9281" y1="428.1117" y2="428.1117"/>
    <line x1="506.1696" x2="503.2606" y1="424.6725" y2="426.7365"/>
    <line x1="499.5945" x2="505.4118" y1="425.3599" y2="421.2236"/>
    <line x1="504.655" x2="495.9304" y1="417.765" y2="423.9821"/>
    <line x1="492.2686" x2="503.8992" y1="422.6028" y2="414.2968"/>
    <line x1="503.1446" x2="488.6096" y1="410.8192" y2="421.2223"/>
    <line x1="484.9539" x2="502.3915" y1="419.8404" y2="407.3322"/>
    <line x1="501.6399" x2="481.3018" y1="403.8359" y2="418.4572"/>
    <line x1="477.6539" x2="500.8902" y1="417.0726" y2="400.3305"/>
    <line x1="500.1424" x2="474.0106" y1="396.816" y2="415.6867"/>
    <line x1="470.3722" x2="499.3966" y1="414.2994" y2="393.2926"/>
    <line x1="498.6532" x2="466.7393" y1="389.7604" y2="412.9107"/>
    <line x1="463.1123" x2="497.9123" y1="411.5207" y2="386.2194"/>
    <line x1="497.174" x2="459.4915" y1="382.6698" y2="410.1293"/>
    <line x1="455.8775" x2="496.4384" y1="408.7365" y2="379.1118"/>
    <line x1="495.7059" x2="452.2707" y1="375.5454" y2="407.3424"/>
    <line x1="448.6714" x2="494.9765" y1="405.9469" y2="371.9707"/>
    <line x1="494.2504" x2="445.08" y1="368.388" y2="404.5499"/>
    <line x1="441.4971" x2="493.5278" y1="403.1516" y2="364.7972"/>
    <line x1="492.8088" x2="437.923" y1="361.1986" y2="401.7519"/>
    <polyline points="425.9419,336.058 372.2009,374.8881 318.8738,406.4733 265.9978,430.3966"/>
    <polyline points="265.6233,427.6847 318.4317,403.4729 368.8819,373.4598 425.38,332.5081"/>
    <polyline points="424.826,328.9496 419.1623,333.3882 371.2,368.2875 365.5792,372.03 317.999,400.4609 312.4252,403.3993 265.2589,424.9624"/>
    <polyline points="264.9046,422.2295 309.2276,401.86 317.5759,397.4375 362.293,370.5988 370.7126,364.9711 415.7949,332.0515 424.2799,325.3828"/>
    <polyline points="423.7419,321.8078 412.4428,330.7137 370.2342,361.6439 359.0237,369.1661 317.1624,394.4024 306.0482,400.3191 264.5606,419.4861"/>
    <polyline points="264.227,416.732 302.8872,398.7768 316.7586,391.3558 355.7716,367.7319 369.7648,358.3061 409.1064,329.3747 423.2122,318.2247"/>
    <polyline points="422.6907,314.6336 405.7859,328.0345 369.3045,354.9577 352.5368,366.2963 316.3646,388.2977 299.7448,397.2328 263.9037,413.9671"/>
    <polyline points="263.5909,411.1914 296.6213,395.6873 315.9806,385.2281 349.3197,364.8592 368.8535,351.5988 402.4817,326.6931 422.1777,311.0346"/>
    <polyline points="421.6733,307.4279 399.194,325.3505 368.4118,348.2295 346.1205,363.4206 315.6065,382.1469 293.5169,394.1403 263.2887,408.4049"/>
    <polyline points="262.9971,405.6075 290.4318,392.5918 315.2425,379.0542 342.9394,361.9805 367.9796,344.8498 395.9232,324.0068 421.1776,303.8136"/>
    <polyline points="420.6907,300.1918 392.6695,322.6618 367.5568,341.4599 339.7767,360.5389 314.8888,375.95 287.3661,391.0417 262.7162,402.7991"/>
    <polyline points="262.446,399.9797 284.32,389.49 314.5452,372.8343 336.6327,359.0959 367.1438,338.0597 389.4331,321.3156 420.2127,296.5627"/>
    <polyline points="419.7437,292.9264 386.2144,319.9682 366.7404,334.6495 333.5074,357.6514 314.212,369.7071 281.2938,387.9369 262.1867,397.1492"/>
    <polyline points="261.9382,394.3075 278.2876,386.3822 313.8892,366.5685 330.4013,356.2053 366.3469,331.2292 383.0135,318.6196 419.2838,289.283"/>
    <polyline points="418.8332,285.6328 379.8308,317.2698 365.9633,327.799 327.3144,354.7578 313.5769,363.4185 275.3016,384.8259 261.7007,391.4547"/>
    <polyline points="261.4741,388.5907 272.3359,383.2682 313.2752,360.257 324.2469,353.3088 365.5897,324.3589 376.6664,315.9188 418.3919,281.9757"/>
    <polyline points="417.9601,278.312 373.5207,314.5665 365.2262,320.9091 321.199,351.8583 312.9841,357.0842 269.3906,381.7089 261.2586,385.7155"/>
    <polyline points="261.0542,382.8289 266.4659,380.1481 312.7036,353.9 318.171,350.4063 364.8729,317.4497 370.3937,313.213 417.5378,274.6419"/>
    <polyline points="417.1252,270.9653 364.5298,313.9806 315.163,348.9528 260.861,379.9311"/>
    <polyline points="260.6789,377.0218 312.1751,347.4978 364.1971,310.5022 416.7223,267.2826"/>
    <line x1="413.5563" x2="416.3292" y1="265.9997" y2="263.5939"/>
    <line x1="415.9461" x2="410.4088" y1="259.8992" y2="264.716"/>
    <line x1="407.2801" x2="415.573" y1="263.4315" y2="256.1988"/>
    <line x1="415.2099" x2="404.1705" y1="252.4928" y2="262.1461"/>
    <line x1="401.08" x2="414.8571" y1="260.8599" y2="248.7814"/>
    <line x1="414.5145" x2="398.009" y1="245.0647" y2="259.5728"/>
    <line x1="394.9576" x2="414.1822" y1="258.2849" y2="241.3429"/>
    <line x1="413.8604" x2="391.9259" y1="237.6161" y2="256.9961"/>
    <line x1="388.9143" x2="413.549" y1="255.7065" y2="233.8845"/>
    <line x1="413.2482" x2="385.9227" y1="230.1482" y2="254.4159"/>
    <line x1="382.9514" x2="412.9581" y1="253.1245" y2="226.4074"/>
    <line x1="412.6786" x2="380.0006" y1="222.6623" y2="251.8322"/>
    <line x1="377.0703" x2="412.41" y1="250.539" y2="218.9131"/>
    <line x1="412.1521" x2="374.1606" y1="215.1599" y2="249.245"/>
    <line x1="371.2718" x2="411.9051" y1="247.9499" y2="211.4028"/>
    <line x1="411.6691" x2="368.4039" y1="207.642" y2="246.654"/>
    <line x1="365.5571" x2="411.4441" y1="245.3572" y2="203.8778"/>
    <line x1="411.2301" x2="362.7313" y1="200.1102" y2="244.0594"/>
    <polyline points="359.8136,239.117 306.703,283.112 259.4315,316.4254 210.0755,344.1779"/>
    <polyline points="209.9489,347.0201 259.3846,319.5645 309.3772,284.494 359.9268,242.7607 411.0272,196.3394 462.6662,147.9246"/>
    <line x1="459.6709" x2="410.8355" y1="146.6811" y2="192.5657"/>
    <line x1="410.6549" x2="456.696" y1="188.7891" y2="145.4377"/>
    <line x1="453.7414" x2="410.4856" y1="144.1945" y2="185.0098"/>
    <line x1="410.3275" x2="450.8073" y1="181.2281" y2="142.9514"/>
    <line x1="447.8939" x2="410.1808" y1="141.7086" y2="177.4441"/>
    <line x1="410.0454" x2="445.0013" y1="173.6579" y2="140.4659"/>
    <line x1="442.1296" x2="409.9214" y1="139.2233" y2="169.8697"/>
    <line x1="409.8088" x2="439.2789" y1="166.0798" y2="137.9809"/>
    <line x1="436.4493" x2="409.7076" y1="136.7386" y2="162.2882"/>
    <line x1="409.6178" x2="433.6409" y1="158.4952" y2="135.4965"/>
    <line x1="430.8537" x2="409.5395" y1="134.2545" y2="154.7009"/>
    <line x1="409.4727" x2="428.0879" y1="150.9055" y2="133.0125"/>
    <line x1="425.3435" x2="409.4175" y1="131.7707" y2="147.1091"/>
    <line x1="409.3737" x2="422.6204" y1="143.312" y2="130.529"/>
    <line x1="419.9189" x2="409.3415" y1="129.2874" y2="139.5144"/>
    <line x1="409.3207" x2="417.2388" y1="135.7163" y2="128.0458"/>
    <line x1="414.5803" x2="409.3116" y1="126.8043" y2="131.918"/>
    <line x1="409.314" x2="411.9433" y1="128.1197" y2="125.5628"/>
    <line x1="409.3279" x2="409.3279" y1="124.3214" y2="124.3214"/>
    <polyline points="362.2453,119.6973 314.2877,166.9471 279.2733,199.3341 266.8323,210.185 232.1701,238.1556 219.8506,247.2053 185.5163,269.731 173.3092,276.7564 139.2748,293.6447"/>
    <polyline points="137.4263,292.003 173.8405,273.8348 183.5917,268.1946 220.3217,243.9863 230.1614,236.7271 267.2378,206.6963 277.1737,197.9996 314.6233,163.2578 362.5071,115.9072"/>
    <polyline points="362.7798,112.1156 314.9692,159.5626 275.0924,196.664 267.6531,203.1984 228.1699,235.2972 220.8018,240.7561 181.6827,266.6567 174.38,270.9017 135.5919,290.3599"/>
    <polyline points="133.771,288.7154 174.9275,267.9572 179.7891,265.1173 221.2907,237.5147 226.1951,233.8659 268.0781,199.6913 273.0292,195.3272 315.3253,155.8617 363.0632,108.3225"/>
    <polyline points="363.3572,104.5281 315.6916,152.1552 270.984,193.9893 224.2369,232.4331 177.9103,263.5763 131.9634,287.0696"/>
    <polyline points="130.1688,285.4224 84.6163,302.0057 48.0,311.4383"/>
    <line x1="48.0" x2="82.8923" y1="309.2954" y2="300.2725"/>
    <line x1="81.1785" x2="48.0" y1="298.5382" y2="307.1513"/>
    <line x1="48.0" x2="79.4746" y1="305.0059" y2="296.803"/>
    <line x1="77.7802" x2="48.0" y1="295.0668" y2="302.859"/>
    <line x1="48.0" x2="76.0948" y1="300.7104" y2="293.3297"/>
    <line x1="74.418" x2="48.0" y1="291.5916" y2="298.56"/>
    <line x1="48.0" x2="72.7495" y1="296.4077" y2="289.8525"/>
    <line x1="71.0888" x2="48.0" y1="288.1125" y2="294.2532"/>
    <line x1="48.0" x2="69.4354" y1="292.0964" y2="286.3715"/>
    <line x1="67.7891" x2="48.0" y1="284.6297" y2="289.9372"/>
    <line x1="48.0" x2="66.1493" y1="287.7753" y2="282.8869"/>
    <line x1="64.5156" x2="48.0" y1="281.1432" y2="285.6107"/>
    <line x1="48.7225" x2="62.8876" y1="283.2468" y2="279.3985"/>
    <line x1="61.2649" x2="49.4661" y1="277.653" y2="280.8724"/>
    <line x1="50.212" x2="59.647" y1="278.4923" y2="275.9066"/>
    <line x1="58.0335" x2="50.96" y1="274.1593" y2="276.1064"/>
    <line x1="51.71" x2="56.4239" y1="273.7144" y2="272.4111"/>
    <line x1="54.8179" x2="52.4616" y1="270.662" y2="271.3164"/>
    <line x1="53.2149" x2="53.2149" y1="268.9121" y2="268.9121"/>
    <line x1="567.4809" x2="514.8254" y1="56.9619" y2="100.5168"/>
    <line x1="515.1774" x2="567.9019" y1="104.2154" y2="60.4652"/>
    <line x1="568.3324" x2="515.5395" y1="63.9776" y2="107.9196"/>
    <polyline points="515.9117,111.6293 524.2267,104.3569 568.7724,67.499"/>
    <polyline points="569.2217,71.0292 527.3978,105.6386 516.2939,115.3443"/>
    <polyline points="516.6861,119.0646 530.5871,106.921 569.6803,74.5682"/>
    <polyline points="570.1481,78.1158 533.7945,108.2042 517.0881,122.7898"/>
    <polyline points="517.4999,126.5199 537.0197,109.4883 570.6249,81.6719"/>
    <polyline points="571.1106,85.2364 540.2624,110.7732 517.9213,130.2547"/>
    <polyline points="518.3522,133.994 543.5224,112.0589 571.6051,88.8092"/>
    <polyline points="572.1084,92.3901 546.7994,113.3455 518.7926,137.7377"/>
    <polyline points="519.2424,141.4856 550.0932,114.6329 572.6202,95.979"/>
    <polyline points="573.1405,99.5759 553.4033,115.9212 519.7014,145.2376"/>
    <polyline points="520.1696,148.9935 556.7296,117.2103 573.6691,103.1805"/>
    <polyline points="574.206,106.7927 560.0718,118.5003 520.6468,152.7531"/>
    <polyline points="521.1329,156.5162 563.4295,119.7912 574.751,110.4124"/>
    <polyline points="575.3039,114.0395 566.8024,121.083 521.6278,160.2828"/>
    <line x1="522.1315" x2="575.8647" y1="164.0525" y2="117.6739"/>
    <line x1="576.4332" x2="522.6437" y1="121.3153" y2="167.8253"/>
    <line x1="519.8236" x2="469.2631" y1="170.3521" y2="216.2523"/>
    <polyline points="469.7225,220.0422 523.1644,171.601 577.0094,124.9637"/>
    <line x1="516.4988" x2="468.8129" y1="169.1036" y2="212.4608"/>
    <line x1="468.3721" x2="513.1901" y1="208.6678" y2="167.8554"/>
    <line x1="509.8979" x2="467.9407" y1="166.6076" y2="204.8736"/>
    <line x1="467.5188" x2="506.6224" y1="201.0782" y2="165.36"/>
    <line x1="503.364" x2="467.1066" y1="164.1128" y2="197.2819"/>
    <line x1="466.7042" x2="500.1228" y1="193.4849" y2="162.866"/>
    <line x1="496.8993" x2="466.3116" y1="161.6194" y2="189.6872"/>
    <line x1="465.9289" x2="493.6935" y1="185.8892" y2="160.3731"/>
    <line x1="490.5058" x2="465.5562" y1="159.1271" y2="182.0909"/>
    <line x1="465.1936" x2="487.3364" y1="178.2925" y2="157.8814"/>
    <line x1="484.1855" x2="464.8412" y1="156.6359" y2="174.4943"/>
    <line x1="464.4991" x2="481.0534" y1="170.6964" y2="155.3907"/>
    <line x1="477.9403" x2="464.1673" y1="154.1458" y2="166.8989"/>
    <line x1="463.846" x2="474.8463" y1="163.1021" y2="152.9011"/>
    <line x1="471.7718" x2="463.5351" y1="151.6567" y2="159.3061"/>
    <line x1="463.2348" x2="468.7168" y1="155.511" y2="150.4124"/>
    <line x1="465.6815" x2="462.9451" y1="149.1684" y2="151.7172"/>
    <polyline points="360.7198,146.1677 342.7942,163.6581 312.2337,192.595 294.5038,208.6433 264.2727,234.3385 246.7308,248.1139 216.814,269.4219 199.4504,280.4423 169.8294,296.8909 152.6323,305.0974"/>
    <polyline points="150.677,303.4655 170.3001,294.0483 197.4084,278.9168 217.2192,266.2822 244.5955,246.6956 264.6078,230.9174 292.2695,207.3168 312.495,188.951 340.4566,162.3937 360.9044,142.3938"/>
    <polyline points="361.1002,138.6171 338.1396,161.1288 312.7671,185.3001 290.0551,205.9892 264.9532,227.4862 242.4789,245.2759 217.634,263.1311 195.384,277.3897 170.7797,291.1945 148.7379,301.8322"/>
    <polyline points="146.8148,300.1975 171.2683,288.3295 193.3769,275.861 218.0585,259.9686 240.3809,243.8547 265.3089,224.0453 287.8602,204.6604 313.05,181.6425 335.843,159.8632 361.3072,134.8378"/>
    <polyline points="361.5252,131.0559 333.5668,158.597 313.3436,177.9782 285.6849,203.3305 265.6747,220.5946 238.3013,242.4321 218.4925,256.7948 191.3869,274.3308 171.7656,285.4532 144.9072,298.5614"/>
    <polyline points="143.0149,296.9239 172.2716,282.5656 189.4136,272.7991 218.9359,253.6096 236.2398,241.0081 266.0506,217.1343 283.5287,201.9995 313.6478,174.3074 331.3107,157.3301 361.7543,127.2718"/>
    <polyline points="361.9943,123.4855 329.0746,156.0626 313.9625,170.6303 281.3916,200.6674 266.4365,213.6644 234.1961,239.5825 219.3887,250.4131 187.4569,271.2658 172.7862,279.6667 141.1375,295.285"/>
    <polyline points="154.604,306.7278 169.3679,299.7225 201.5103,281.9663 216.4187,272.5501 248.8852,249.5307 263.9479,237.7497 296.758,209.9687 311.9832,196.2319 345.1525,164.9218 360.5463,149.9386"/>
    <polyline points="360.3841,153.7063 347.5316,166.1849 311.7436,199.8617 299.0324,211.293 263.6337,241.1508 251.0589,250.9461 216.0333,275.6668 203.5883,283.4888 168.9156,302.5429 156.5925,308.3569"/>
    <polyline points="158.598,309.9845 168.4726,305.3523 205.6846,285.0097 215.6578,278.7721 253.2519,252.3601 263.33,244.5416 301.3271,212.6162 311.5151,203.4842 360.2333,157.4708"/>
    <polyline points="360.0937,161.2317 311.2975,207.0992 303.6423,213.9383 263.0369,247.9223 255.4646,253.7726 215.2925,281.8658 207.7995,286.5291 168.039,308.1507 160.6209,311.6107"/>
    <polyline points="162.6613,313.2355 167.6149,310.9382 209.9331,288.0469 214.9373,284.9481 257.697,255.1838 262.7545,251.2925 305.978,215.2593 359.9655,164.9889"/>
    <polyline points="359.8487,168.7423 308.3344,216.5792 259.9495,256.5934 212.0858,289.5632 164.7195,314.8588"/>
    <line x1="166.4009" x2="119.3471" y1="319.2358" y2="337.248"/>
    <polyline points="118.8952,339.7459 123.8334,338.1652 166.016,321.9802"/>
    <polyline points="165.641,324.714 125.8722,339.8752 118.4526,342.2358"/>
    <polyline points="118.0195,344.7178 127.9289,341.584 165.2761,327.4373"/>
    <polyline points="164.9213,330.1501 130.0035,343.2917 117.5959,347.192"/>
    <polyline points="117.1819,349.6585 132.0965,344.9983 164.5768,332.8526"/>
    <polyline points="164.2427,335.5447 134.2079,346.7037 116.7776,352.1175"/>
    <polyline points="116.3832,354.5691 136.3382,348.408 163.9189,338.2266"/>
    <polyline points="163.6056,340.8983 138.4873,350.1111 115.9987,357.0134"/>
    <polyline points="115.6241,359.4507 140.6557,351.8131 163.3029,343.56"/>
    <polyline points="163.0108,346.2117 142.8434,353.5138 115.2597,361.8809"/>
    <polyline points="114.9054,364.3043 145.0507,355.2135 162.7293,348.8535"/>
    <polyline points="162.4587,351.4855 147.2778,356.9119 114.5614,366.721"/>
    <polyline points="114.2277,369.1312 149.5247,358.6091 162.1988,354.1079"/>
    <polyline points="161.9498,356.7206 151.7917,360.3052 113.9044,371.535"/>
    <polyline points="113.5916,373.9324 154.079,362.0 161.7118,359.3238"/>
    <polyline points="161.4847,361.9176 156.3867,363.6937 113.2894,376.3238"/>
    <line x1="112.9977" x2="161.2687" y1="378.7092" y2="364.5021"/>
    <line x1="161.0638" x2="112.7168" y1="367.0774" y2="381.0888"/>
    <polyline points="119.8082,334.7419 166.7958,316.4807 214.2577,291.0779"/>
    <polyline points="213.9334,294.1256 264.5148,259.4086 310.5387,221.482 359.6494,176.2371"/>
    <polyline points="359.5669,179.978 310.377,225.0577 266.8281,260.814 261.733,264.6686 218.6598,294.1028 213.6196,297.1616"/>
    <polyline points="213.3164,300.1862 220.8904,295.6128 261.5049,267.9861 269.1619,262.218 310.2267,228.6253 317.9693,221.8483 359.4959,183.7145"/>
    <polyline points="359.4364,187.4463 320.4309,223.1629 310.0876,232.1845 271.5165,263.6207 261.2879,271.2927 223.141,297.1214 213.0238,303.1992"/>
    <polyline points="212.7419,306.2007 225.4118,298.6284 261.0819,274.5886 273.8918,265.0219 309.9599,235.7352 322.9137,224.4765 359.3884,191.1733"/>
    <polyline points="359.3519,194.8954 325.4178,225.789 309.8436,239.2774 276.2881,266.4217 260.8871,277.8735 227.7027,300.1339 212.4708,309.1906"/>
    <polyline points="212.2104,312.169 230.0141,301.6378 260.7035,281.1475 278.7053,267.8202 309.7388,242.8108 327.9434,227.1005 359.327,198.6124"/>
    <polyline points="359.3136,202.324 330.4904,228.411 309.6454,246.3354 281.1438,269.2172 260.5311,284.4105 232.3461,303.1401 211.9609,315.136"/>
    <polyline points="211.7224,318.0914 234.6987,304.641 260.3699,287.6625 283.6034,270.6129 309.5634,249.8511 333.0589,229.7205 359.3117,206.0303"/>
    <polyline points="359.3214,209.7309 335.6489,231.029 309.4929,253.3578 286.0842,272.0071 260.2201,290.9033 237.0722,306.1403 211.4948,321.0354"/>
    <polyline points="211.2783,323.968 239.4665,307.638 260.0816,294.133 288.5865,273.4 309.4339,256.8553 338.2605,232.3364 359.3427,213.4258"/>
    <polyline points="359.3754,217.1149 340.8935,233.6429 309.3865,260.3436 291.1101,274.7916 259.9544,297.3515 241.8819,309.1342 211.0728,326.8891"/>
    <polyline points="210.8785,329.7989 244.3184,310.6289 259.8386,300.5588 293.6551,276.1817 309.3505,263.8225 343.5481,234.9483 359.4197,220.7979"/>
    <polyline points="359.4755,224.4746 346.2242,236.2528 309.3261,267.292 296.2217,277.5705 259.7343,303.7548 246.776,312.122 210.6954,332.6973"/>
    <polyline points="210.5235,335.5843 249.255,313.6136 259.6414,306.9395 298.8097,278.9579 309.3133,270.7519 348.9219,237.5563 359.5428,228.1451"/>
    <polyline points="359.6216,231.8091 351.641,238.8589 309.3119,274.2021 301.4193,280.344 259.5599,310.1128 251.7552,315.1036 210.3629,338.4601"/>
    <polyline points="210.2135,341.3246 254.2769,316.5921 259.49,313.2748 304.0504,281.7287 309.3222,277.6426 359.7119,235.4664"/>
    <polygon points="310.7116,217.8981 359.7433,172.4918"/>
    <line x1="262.222" x2="262.222" y1="258.0017" y2="258.0017"/>
    <polygon points="262.222,258.0017 310.7116,217.8981 262.222,258.0017 214.2577,291.0779"/>
    <line x1="259.3846" x2="259.3846" y1="319.5645" y2="319.5645"/>
    <line x1="318.8738" x2="318.8738" y1="406.4733" y2="406.4733"/>
    <polygon points="142.941,232.4339 98.015,253.8695 142.941,232.4339 188.0496,203.4643"/>
    <line x1="142.941" x2="142.941" y1="232.4339" y2="232.4339"/>
    <line x1="112.3485" x2="157.068" y1="202.2866" y2="175.3836"/>
    <polygon points="157.068,175.3836 201.8125,140.8416"/>
    <line x1="102.2396" x2="54.7038" y1="59.3916" y2="87.8066"/>
    <line x1="55.017" x2="102.6241" y1="84.9283" y2="56.2157"/>
    <polyline points="102.9986,53.0284 98.0032,56.4462 55.3197,82.0386"/>
    <polyline points="55.6118,79.1377 95.8567,54.9712 103.363,49.8299"/>
    <polyline points="101.7047,48.0 93.6911,53.4947 55.8932,76.2253"/>
    <polyline points="56.1639,73.3016 91.5062,52.0166 97.358,48.0"/>
    <polyline points="92.9942,48.0 89.3017,50.537 56.4237,70.3664"/>
    <polyline points="56.6727,67.4198 87.0775,49.0559 88.6128,48.0"/>
    <line x1="84.1279" x2="56.9108" y1="48.0" y2="64.4618"/>
    <line x1="57.1378" x2="79.4142" y1="61.4922" y2="48.0"/>
    <line x1="74.6845" x2="57.3538" y1="48.0" y2="58.5111"/>
    <line x1="57.5587" x2="69.9385" y1="55.5186" y2="48.0"/>
    <line x1="65.1759" x2="57.7525" y1="48.0" y2="52.5145"/>
    <line x1="57.9351" x2="60.3965" y1="49.4988" y2="48.0"/>
    <polygon points="316.0679,148.4433 363.6619,100.7327 316.0679,148.4433 268.9563,192.6502"/>
  </g>
</svg>
