<?xml version="1.0" encoding="utf-8" ?>
<svg xmlns="http://www.w3.org/2000/svg" xmlns:cc="http://creativecommons.org/ns#" xmlns:dc="http://purl.org/dc/elements/1.1/" xmlns:ev="http://www.w3.org/2001/xml-events" xmlns:inkscape="http://www.inkscape.org/namespaces/inkscape" xmlns:rdf="http://www.w3.org/1999/02/22-rdf-syntax-ns#" xmlns:sodipodi="http://sodipodi.sourceforge.net/DTD/sodipodi-0.dtd" xmlns:xlink="http://www.w3.org/1999/xlink" baseProfile="tiny" height="22.86cm" version="1.2" viewBox="0 0 1152.0 864.0" width="30.48cm">
  <metadata>
    <rdf:RDF>
      <cc:Work>
        <dc:format>image/svg+xml</dc:format>
        <dc:source/>
        <dc:date>2021-10-05T22:23:58.134419</dc:date>
      </cc:Work>
    </rdf:RDF>
  </metadata>
  <defs/>
  <g fill="none" id="layer1.0" inkscape:groupmode="layer" inkscape:label="1" stroke="#00f" style="display:inline">
    <line x1="1104.0" x2="1081.2004" y1="59.4085" y2="48.0"/>
    <line x1="1083.8801" x2="1104.0" y1="48.0" y2="58.5533"/>
    <line x1="1104.0" x2="1085.1766" y1="58.1682" y2="48.0"/>
    <line x1="1085.1392" x2="1104.0" y1="48.0" y2="58.3364"/>
    <line x1="1104.0" x2="1083.7532" y1="59.1104" y2="48.0"/>
    <line x1="1080.9634" x2="1104.0" y1="48.0" y2="60.51"/>
    <line x1="1104.0" x2="1070.8588" y1="62.0738" y2="48.0"/>
    <line x1="1076.9795" x2="1104.0" y1="48.0" y2="60.6246"/>
    <line x1="1104.0" x2="1076.6853" y1="62.5216" y2="48.0"/>
    <line x1="1070.8104" x2="1104.0" y1="48.0" y2="65.0997"/>
    <line x1="1104.0" x2="1048.9257" y1="65.1317" y2="48.0"/>
    <line x1="1062.0727" x2="1104.0" y1="48.0" y2="63.6199"/>
    <line x1="1104.0" x2="1063.2063" y1="68.1697" y2="48.0"/>
    <line x1="1053.7127" x2="1104.0" y1="48.0" y2="71.631"/>
    <polyline points="1104.0,68.6326 1102.478,67.4027 1009.804,52.2872"/>
    <line x1="1027.1927" x2="1104.0" y1="48.0" y2="66.499"/>
    <line x1="1104.0" x2="1046.4634" y1="75.362" y2="49.9152"/>
    <line x1="1049.5101" x2="1104.0" y1="56.7723" y2="79.2248"/>
    <polyline points="1104.0,72.3621 1097.5943,68.0627 1008.2921,60.9453"/>
    <polyline points="1006.8699,69.9789 1093.1311,69.3972 1104.0,75.3421"/>
    <line x1="1104.0" x2="1052.6381" y1="83.0702" y2="63.5644"/>
    <line x1="1055.8453" x2="1104.0" y1="70.0855" y2="86.7437"/>
    <polyline points="1104.0,77.885 1089.1503,71.4205 1005.5361,79.1847"/>
    <polyline points="1004.2895,88.3555 1085.707,74.1371 1104.0,80.281"/>
    <line x1="1104.0" x2="1062.4888" y1="92.9624" y2="81.5308"/>
    <line x1="1065.9202" x2="1104.0" y1="86.0982" y2="95.2191"/>
    <line x1="1104.0" x2="1069.4215" y1="96.7369" y2="89.6902"/>
    <line x1="1072.9897" x2="1104.0" y1="92.1836" y2="97.4103"/>
    <line x1="1104.0" x2="1076.6222" y1="97.1561" y2="93.4834"/>
    <line x1="1080.3158" x2="1104.0" y1="93.5255" y2="95.9158"/>
    <line x1="1104.0" x2="1084.0677" y1="93.6575" y2="92.2785"/>
    <line x1="1087.8745" x2="1104.0" y1="89.7442" y2="90.3768"/>
    <line x1="1104.0" x2="1091.733" y1="86.0967" y2="85.9574"/>
    <line x1="1095.6399" x2="1104.0" y1="80.9858" y2="80.8674"/>
    <line x1="1104.0" x2="1099.5915" y1="74.7639" y2="74.9273"/>
    <line x1="1103.5845" x2="1104.0" y1="67.9081" y2="67.8844"/>
    <line x1="1102.9719" x2="1104.0" y1="498.5219" y2="499.486"/>
    <polyline points="1104.0,473.362 1085.6348,451.1986 1092.1684,449.5542"/>
    <polyline points="1092.5704,447.345 1089.0652,448.4661 1104.0,467.8011"/>
    <line x1="1104.0" x2="1093.5632" y1="462.0193" y2="446.7931"/>
    <line x1="1093.0343" x2="1104.0" y1="446.4269" y2="461.5134"/>
    <line x1="1104.0" x2="1093.0343" y1="461.5134" y2="446.4269"/>
    <line x1="1094.1597" x2="1104.0" y1="448.4036" y2="463.3948"/>
    <line x1="1104.0" x2="1094.8266" y1="465.5452" y2="451.1865"/>
    <polyline points="1091.8252,453.0277 1082.7908,454.6192 1104.0,478.2369"/>
    <polyline points="1104.0,482.5122 1080.5725,458.7132 1091.5378,457.7062"/>
    <line x1="1095.5664" x2="1104.0" y1="455.0392" y2="468.37"/>
    <line x1="1104.0" x2="1096.3815" y1="471.7706" y2="459.8317"/>
    <line x1="1097.2743" x2="1104.0" y1="465.4098" y2="475.6554"/>
    <line x1="1104.0" x2="1098.2468" y1="479.9413" y2="471.5986"/>
    <line x1="1099.3011" x2="1104.0" y1="478.2079" y2="484.5511"/>
    <line x1="1104.0" x2="1100.4389" y1="489.4064" y2="485.0362"/>
    <line x1="1101.6621" x2="1104.0" y1="491.8767" y2="494.4195"/>
    <polyline points="1104.0,486.31 1079.0108,463.4565 1091.3029,463.4993"/>
    <polyline points="1091.1171,470.2877 1078.1272,468.8159 1104.0,489.7789"/>
    <polyline points="1104.0,493.0848 1077.9341,474.7499 1090.977,477.9263"/>
    <polyline points="1090.879,486.2482 1078.4341,481.2089 1104.0,496.4035"/>
    <polyline points="1104.0,499.9131 1079.6203,488.1359 1090.8195,495.0686"/>
    <line x1="1089.0867" x2="1104.0" y1="494.4827" y2="514.1205"/>
    <polyline points="1104.0,640.062 1007.2433,638.8528 1043.0152,607.641"/>
    <polyline points="1045.8871,611.5361 1012.7383,636.8353 1104.0,631.7482"/>
    <line x1="1104.0" x2="1087.796" y1="514.1477" y2="492.4138"/>
    <line x1="1088.4768" x2="1104.0" y1="492.8271" y2="513.5261"/>
    <line x1="1104.0" x2="1091.4156" y1="537.9852" y2="524.4548"/>
    <polyline points="1090.8349,522.5122 1087.0853,511.0642 1104.0,513.3083"/>
    <polyline points="1104.0,519.2698 1090.7608,519.1783 1090.892,531.3001"/>
    <line x1="1091.6106" x2="1104.0" y1="531.2873" y2="543.8745"/>
    <line x1="1104.0" x2="1091.7593" y1="549.7793" y2="538.1242"/>
    <polyline points="1090.9687,539.5744 1094.9515,527.3973 1104.0,526.2477"/>
    <polyline points="1104.0,534.4344 1099.5993,535.6399 1091.0609,547.1514"/>
    <line x1="1091.8652" x2="1104.0" y1="544.7583" y2="555.484"/>
    <line x1="1104.0" x2="1091.9319" y1="560.7763" y2="550.9876"/>
    <line x1="1091.1647" x2="1104.0" y1="553.8659" y2="544.3014"/>
    <line x1="1104.0" x2="1091.2762" y1="554.3401" y2="559.5746"/>
    <line x1="1091.9623" x2="1104.0" y1="561.4814" y2="569.3246"/>
    <line x1="1104.0" x2="1091.963" y1="565.4531" y2="556.6207"/>
    <line x1="1091.3912" x2="1104.0" y1="564.1606" y2="561.838"/>
    <line x1="1104.0" x2="1091.5059" y1="567.4091" y2="567.5356"/>
    <line x1="1091.8807" x2="1104.0" y1="568.2854" y2="573.9836"/>
    <line x1="1104.0" x2="1091.8076" y1="574.4888" y2="569.9919"/>
    <line x1="1091.6162" x2="1104.0" y1="569.643" y2="571.296"/>
    <line x1="1104.0" x2="1091.7181" y1="573.6246" y2="570.4586"/>
    <line x1="1091.9336" x2="1104.0" y1="565.4137" y2="572.2188"/>
    <polyline points="1104.0,592.8102 1041.768,616.5878 1058.9231,613.4289"/>
    <polyline points="1056.4962,615.5839 1036.0243,621.9286 1104.0,599.6978"/>
    <line x1="1104.0" x2="1083.2451" y1="534.2018" y2="509.2618"/>
    <line x1="1084.3155" x2="1104.0" y1="503.5081" y2="528.2964"/>
    <polyline points="1104.0,607.1837 1030.1682,626.652 1053.9781,616.4475"/>
    <polyline points="1051.3699,616.0279 1024.2808,630.7252 1104.0,615.1298"/>
    <line x1="1104.0" x2="1085.3037" y1="523.1775" y2="498.8728"/>
    <line x1="1086.2117" x2="1104.0" y1="495.4454" y2="519.0324"/>
    <polyline points="1104.0,623.3763 1018.4439,634.1245 1048.6725,614.3663"/>
    <polyline points="1061.2582,610.0076 1047.3197,610.671 1104.0,586.6313"/>
    <line x1="1104.0" x2="1079.5242" y1="553.9021" y2="531.9253"/>
    <line x1="1080.8511" x2="1104.0" y1="523.6256" y2="547.3374"/>
    <line x1="1104.0" x2="1082.0909" y1="540.6497" y2="516.0157"/>
    <polyline points="1090.8012,513.4072 1083.9761,503.1348 1104.0,508.2004"/>
    <polyline points="1104.0,503.7891 1081.4762,495.4675 1090.7948,504.19"/>
    <line x1="1090.5185" x2="1104.0" y1="506.0219" y2="522.5068"/>
    <line x1="1104.0" x2="1090.1047" y1="518.716" y2="501.1973"/>
    <line x1="1089.6284" x2="1104.0" y1="497.3072" y2="515.88"/>
    <line x1="1104.0" x2="1090.8728" y1="527.1015" y2="511.6259"/>
    <line x1="1091.1707" x2="1104.0" y1="517.8338" y2="532.3254"/>
    <polyline points="1104.0,648.1319 1002.0349,640.1817 1040.0583,602.812"/>
    <polyline points="1037.0181,597.2046 997.1854,640.8361 1104.0,655.776"/>
    <polyline points="1104.0,662.8219 992.762,640.8397 1033.8964,590.9941"/>
    <polyline points="1030.6953,584.3715 988.8262,640.2252 1104.0,669.1118"/>
    <polyline points="1104.0,674.5076 985.4324,639.0337 1027.417,577.5385"/>
    <polyline points="1024.0636,570.7021 982.6278,637.3144 1104.0,678.8943"/>
    <polyline points="1104.0,682.1835 980.4512,635.1239 1020.6377,564.0695"/>
    <polyline points="1017.1419,557.8428 978.9328,632.5252 1104.0,684.316"/>
    <polyline points="1104.0,685.2631 978.0937,629.587 1013.5788,552.2132"/>
    <polyline points="1009.9513,547.3567 977.9455,626.3828 1104.0,685.0278"/>
    <polyline points="1104.0,683.6443 978.4903,622.9896 1006.2623,543.4294"/>
    <polyline points="1002.5149,540.5633 979.7204,619.4872 1104.0,681.1775"/>
    <polyline points="1104.0,677.7205 981.6189,615.9568 998.7123,538.8628"/>
    <polyline points="994.8577,538.4025 984.1594,612.4801 1104.0,673.3927"/>
    <polyline points="1104.0,668.3364 987.3067,609.1379 990.9545,539.2246"/>
    <polyline points="987.0062,541.3384 991.0172,606.0094 1104.0,662.7124"/>
    <polyline points="1104.0,656.6962 995.2393,603.1704 983.0164,544.7197"/>
    <polyline points="978.9886,549.3115 999.9146,600.6932 1104.0,650.473"/>
    <polyline points="1104.0,644.2322 1004.9782,598.6447 974.9265,555.0256"/>
    <polyline points="970.834,561.7448 1010.3599,597.0859 1103.8906,638.1149"/>
    <polyline points="1102.4916,631.8245 1015.985,596.0713 966.7147,569.3258"/>
    <polyline points="962.5727,577.603 1021.7756,595.6475 1101.0032,626.1073"/>
    <polyline points="1099.4244,621.1415 1027.6514,595.8531 958.4117,586.3931"/>
    <polyline points="954.2358,595.4992 1033.5309,596.718 1097.7543,617.0859"/>
    <polyline points="1095.9924,614.0758 1039.3325,598.2627 950.0489,604.7163"/>
    <polyline points="945.855,613.8368 1044.9758,600.4987 1094.138,612.2195"/>
    <polyline points="1092.1908,611.5955 1050.3826,603.4274 941.6581,622.6552"/>
    <line x1="941.4011" x2="979.1151" y1="625.2068" y2="672.3033"/>
    <line x1="974.9298" x2="935.6477" y1="667.3066" y2="627.8654"/>
    <polyline points="937.4622,630.974 1055.4778,607.0411 1090.1507,612.2503"/>
    <polyline points="1088.0176,614.1974 1060.1909,611.3222 933.2713,638.6088"/>
    <polyline points="929.0895,645.3925 1064.4564,616.2441 1085.7917,617.4171"/>
    <polyline points="1083.4733,621.8565 1068.2152,621.7713 924.9206,651.1803"/>
    <polyline points="920.7687,655.853 1071.4152,627.8597 1081.063,627.4313"/>
    <polyline points="1078.5615,634.0278 1074.012,634.4575 916.6377,659.3203"/>
    <polyline points="912.5315,661.523 1075.9696,641.5061 912.5315,661.523 780.8727,530.0858"/>
    <line x1="783.1898" x2="782.2271" y1="533.0658" y2="536.2653"/>
    <line x1="786.1271" x2="783.6702" y1="536.3012" y2="542.8687"/>
    <line x1="789.6439" x2="785.2032" y1="539.7146" y2="549.6949"/>
    <line x1="786.8271" x2="793.6915" y1="556.5369" y2="543.2258"/>
    <line x1="798.2136" x2="788.5425" y1="546.7536" y2="563.1876"/>
    <line x1="790.3502" x2="803.1477" y1="569.4443" y2="550.2163"/>
    <line x1="808.4252" x2="792.2504" y1="553.5332" y2="575.1151"/>
    <line x1="794.2436" x2="813.9731" y1="580.0228" y2="556.6257"/>
    <line x1="819.7143" x2="796.3297" y1="559.4182" y2="584.0101"/>
    <line x1="798.5088" x2="825.5692" y1="586.9434" y2="561.8393"/>
    <line x1="822.202" x2="870.3505" y1="558.8" y2="558.3255"/>
    <line x1="866.9475" x2="819.2189" y1="561.3509" y2="566.3336"/>
    <line x1="816.3202" x2="863.0032" y1="572.996" y2="563.684"/>
    <line x1="858.5723" x2="813.5076" y1="565.3252" y2="578.6455"/>
    <line x1="810.7826" x2="853.7164" y1="583.1665" y2="566.2842"/>
    <line x1="848.5027" x2="808.1463" y1="566.5806" y2="586.4727"/>
    <line x1="805.5999" x2="843.0035" y1="588.509" y2="566.2429"/>
    <line x1="837.2951" x2="803.1444" y1="565.3084" y2="589.2532"/>
    <line x1="800.7805" x2="831.4567" y1="588.7166" y2="563.8228"/>
    <line x1="825.2679" x2="873.1652" y1="550.5597" y2="554.6171"/>
    <line x1="875.3524" x2="828.4147" y1="550.2444" y2="541.7951"/>
    <line x1="831.6402" x2="876.8818" y1="532.7023" y2="545.2353"/>
    <line x1="877.7322" x2="834.9423" y1="539.6267" y2="523.486"/>
    <line x1="838.3186" x2="877.8918" y1="514.3538" y2="533.4637"/>
    <line x1="877.3584" x2="841.7666" y1="526.799" y2="505.5115"/>
    <line x1="845.2838" x2="876.1394" y1="497.1572" y2="519.6924"/>
    <line x1="874.2517" x2="848.8674" y1="512.2097" y2="489.4763"/>
    <line x1="852.5144" x2="871.7215" y1="482.6369" y2="504.4221"/>
    <line x1="868.5838" x2="856.222" y1="496.4048" y2="476.7854"/>
    <line x1="855.9997" x2="867.6764" y1="471.7693" y2="466.2207"/>
    <line x1="871.5941" x2="850.9419" y1="465.2311" y2="463.6338"/>
    <line x1="845.5649" x2="875.5558" y1="455.6708" y2="465.527"/>
    <line x1="879.5579" x2="839.9431" y1="467.0704" y2="447.9581"/>
    <line x1="834.1546" x2="883.5968" y1="440.57" y2="469.7908"/>
    <line x1="887.6688" x2="828.2795" y1="473.5876" y2="433.5763"/>
    <line x1="822.3994" x2="891.7702" y1="427.0413" y2="478.332"/>
    <line x1="895.8969" x2="816.5959" y1="483.871" y2="421.0228"/>
    <line x1="810.9493" x2="900.0453" y1="415.5717" y2="490.031"/>
    <line x1="904.2114" x2="805.5381" y1="496.6222" y2="410.731"/>
    <line x1="800.4371" x2="908.3912" y1="406.535" y2="503.4438"/>
    <line x1="912.5807" x2="795.7173" y1="510.289" y2="403.0092"/>
    <line x1="791.4439" x2="916.776" y1="400.17" y2="516.9504"/>
    <line x1="920.973" x2="787.6763" y1="523.2253" y2="398.0239"/>
    <line x1="784.4668" x2="925.1677" y1="396.568" y2="528.9211"/>
    <line x1="929.3562" x2="781.8597" y1="533.8601" y2="395.7899"/>
    <line x1="779.8914" x2="933.5344" y1="395.6677" y2="537.8841"/>
    <polyline points="937.6984,540.8586 778.589,396.1703 721.3681,379.4633 677.6743,366.3211 531.2055,221.5171 377.9444,209.0859 327.9032,191.6448"/>
    <line x1="327.409" x2="355.6875" y1="192.499" y2="187.9114"/>
    <polyline points="351.475,191.1684 335.7758,178.5248 317.507,200.7629"/>
    <polyline points="316.1892,209.1788 341.526,185.072 351.4408,191.6069"/>
    <polyline points="351.5452,192.0032 329.9167,172.4929 318.7379,191.8798"/>
    <line x1="327.3542" x2="360.3827" y1="188.8703" y2="185.1281"/>
    <line x1="364.6278" x2="327.3231" y1="181.6575" y2="184.0463"/>
    <polyline points="328.129,183.2372 316.2296,188.845 373.9062,227.1678"/>
    <polyline points="379.7112,225.4208 522.8136,218.4016 542.7633,221.7437 673.8316,358.6019 675.15,364.0444"/>
    <polyline points="676.7507,365.4615 675.7994,362.9641 537.0477,221.3099 527.0106,219.3519 378.4851,217.3054"/>
    <polyline points="375.8788,218.2514 322.0256,190.5115 328.0181,187.9198"/>
    <line x1="327.7883" x2="333.781" y1="194.2855" y2="192.1964"/>
    <line x1="339.5775" x2="327.6774" y1="192.126" y2="195.7431"/>
    <line x1="327.5746" x2="345.2122" y1="195.9496" y2="191.4019"/>
    <line x1="350.6072" x2="327.4838" y1="190.0015" y2="194.8691"/>
    <polyline points="319.8834,182.7286 324.0298,167.0272 351.6548,194.0592"/>
    <polyline points="351.4388,193.3378 347.0874,192.0763 314.7832,216.9404"/>
    <polyline points="313.2877,223.8776 352.383,199.4733 351.4651,196.3469"/>
    <polyline points="351.8076,197.2529 318.1968,162.1709 320.9452,173.5156"/>
    <line x1="327.3478" x2="371.5388" y1="171.2176" y2="172.7251"/>
    <line x1="368.3637" x2="327.3197" y1="177.5149" y2="178.1211"/>
    <polyline points="328.2319,177.7486 310.5958,186.7009 372.0264,235.6349"/>
    <polyline points="370.2392,243.4644 305.2021,184.1418 328.3229,171.6262"/>
    <polyline points="328.3979,165.0588 300.1235,181.2358 368.5441,250.4844"/>
    <polyline points="366.9405,256.5437 295.4302,178.0558 328.4531,158.2467"/>
    <line x1="327.5133" x2="376.0386" y1="155.0887" y2="161.3476"/>
    <line x1="374.1089" x2="327.4111" y1="167.322" y2="163.4836"/>
    <polyline points="321.925,164.4484 312.4987,157.9585 352.0071,201.4713"/>
    <polyline points="351.5159,200.5869 357.3394,207.1931 311.7017,229.8414"/>
    <polyline points="310.0245,234.7082 361.8877,215.1614 351.5874,205.9784"/>
    <polyline points="352.2566,206.5748 307.0143,154.4159 322.8249,155.7309"/>
    <polyline points="328.4845,151.3964 291.1875,174.6787 365.4274,261.5163"/>
    <polyline points="364.004,265.3041 287.4541,171.184 328.4882,144.7154"/>
    <line x1="327.658" x2="377.3009" y1="146.2195" y2="154.8523"/>
    <line x1="377.8784" x2="327.8487" y1="147.8934" y2="137.0746"/>
    <polyline points="328.4606,138.4068 284.2818,167.6527 362.6691,267.8396"/>
    <polyline points="361.4214,269.0876 281.7145,164.1666 328.3978,132.6643"/>
    <polyline points="325.0669,133.5505 292.5835,147.9233 353.3386,225.4835"/>
    <polyline points="351.8861,227.8428 372.4875,239.7677 304.4391,241.9287"/>
    <polyline points="302.3917,241.7696 374.8422,247.9334 352.0006,236.5005"/>
    <polyline points="354.3686,239.1326 285.3002,146.9904 326.2045,123.623"/>
    <polyline points="328.152,123.5738 278.5289,157.652 359.1815,267.7478"/>
    <polyline points="360.2594,269.0465 279.788,160.8066 328.2961,127.6668"/>
    <line x1="328.0889" x2="377.7631" y1="127.8602" y2="140.5347"/>
    <line x1="376.0055" x2="290.0217" y1="138.2496" y2="48.0"/>
    <line x1="289.5498" x2="373.1414" y1="48.0" y2="143.0308"/>
    <line x1="370.364" x2="289.262" y1="146.6137" y2="48.0"/>
    <line x1="289.2575" x2="367.6746" y1="48.0" y2="148.9362"/>
    <line x1="365.0744" x2="289.6001" y1="149.9687" y2="48.0"/>
    <line x1="290.3266" x2="362.5646" y1="48.0" y2="149.7149"/>
    <line x1="360.1459" x2="291.4531" y1="148.2119" y2="48.0"/>
    <line x1="292.9777" x2="357.8191" y1="48.0" y2="145.5291"/>
    <line x1="355.5847" x2="294.8832" y1="141.7661" y2="48.0"/>
    <line x1="297.1391" x2="353.4431" y1="48.0" y2="137.0507"/>
    <line x1="351.3945" x2="299.7025" y1="131.5354" y2="48.0"/>
    <line x1="302.5205" x2="349.4388" y1="48.0" y2="125.393"/>
    <line x1="347.5759" x2="305.5318" y1="118.813" y2="48.0"/>
    <line x1="308.6691" x2="345.8055" y1="48.0" y2="111.9957"/>
    <line x1="344.1271" x2="311.8631" y1="105.1479" y2="48.0"/>
    <line x1="315.0486" x2="342.54" y1="48.0" y2="98.4772"/>
    <line x1="341.0433" x2="318.1753" y1="92.1863" y2="48.0"/>
    <line x1="321.2283" x2="339.6361" y1="48.0" y2="86.4683"/>
    <line x1="338.3172" x2="324.2704" y1="81.5016" y2="48.0"/>
    <line x1="327.5405" x2="337.0852" y1="48.0" y2="77.445"/>
    <line x1="335.9386" x2="331.832" y1="74.4338" y2="48.734"/>
    <line x1="337.6645" x2="334.8758" y1="54.9397" y2="72.5763"/>
    <line x1="333.8949" x2="343.3619" y1="71.9509" y2="61.6424"/>
    <line x1="348.8451" x2="332.994" y1="68.782" y2="72.6044"/>
    <line x1="332.1709" x2="354.038" y1="74.5502" y2="76.2921"/>
    <line x1="358.8688" x2="331.4234" y1="84.1011" y2="77.7686"/>
    <line x1="330.7491" x2="363.2703" y1="82.2067" y2="92.1336"/>
    <line x1="367.1816" x2="330.1455" y1="100.3108" y2="87.7804"/>
    <line x1="329.6098" x2="370.5484" y1="94.3759" y2="108.5519"/>
    <line x1="373.324" x2="329.1393" y1="116.7755" y2="101.8534"/>
    <line x1="328.731" x2="375.47" y1="110.0498" y2="124.9"/>
    <line x1="381.9876" x2="298.5493" y1="125.4936" y2="54.5628"/>
    <line x1="293.9959" x2="378.9548" y1="51.31" y2="132.3633"/>
    <line x1="376.9566" x2="328.3819" y1="132.8456" y2="118.7839"/>
    <polyline points="327.7223,118.6197 278.0732,152.261 357.2705,261.6642"/>
    <polyline points="358.1858,265.2554 277.9546,154.7793 327.9618,120.5216"/>
    <polyline points="326.6742,120.4511 282.5217,147.478 354.9849,245.6534"/>
    <polyline points="352.1158,245.5338 376.5463,255.9459 300.2513,240.3573"/>
    <polyline points="298.0181,237.759 377.576,263.7268 352.2277,254.7396"/>
    <polyline points="355.6724,251.704 280.3727,148.5519 327.0817,118.5531"/>
    <polyline points="327.43,117.9476 278.883,150.1646 356.4334,257.0976"/>
    <polyline points="352.3324,263.9104 377.917,271.201 295.6925,234.0721"/>
    <polyline points="293.275,229.4225 377.5648,278.2974 352.4258,272.8397"/>
    <polyline points="347.9068,271.7329 268.1382,182.1582 235.6314,179.3221"/>
    <polyline points="239.4285,173.8292 271.3511,178.882 348.6399,278.5913"/>
    <polyline points="352.5041,281.327 376.524,284.9504 290.7663,223.9609"/>
    <polyline points="288.1673,217.8587 374.8092,291.1003 352.5631,289.1833"/>
    <polyline points="349.8904,291.8837 275.9336,174.4031 246.8528,166.3538"/>
    <polyline points="250.4738,164.5036 277.2397,173.197 350.4132,297.9132"/>
    <polyline points="352.5991,296.2362 372.4442,296.6945 285.4791,211.3044"/>
    <polyline points="282.7028,204.4977 369.4617,301.6882 352.6082,302.3336"/>
    <polyline points="350.8713,303.279 277.8619,172.6617 254.0301,163.946"/>
    <polyline points="257.5188,164.6648 277.7916,172.772 351.2678,307.8119"/>
    <polyline points="352.5866,307.3485 365.9031,306.0447 279.8397,197.645"/>
    <polyline points="276.8915,190.9541 361.8178,309.7364 352.5304,311.1817"/>
    <polyline points="351.6057,311.3643 277.0296,173.4937 260.9373,166.6111"/>
    <polyline points="264.283,169.704 275.5865,174.7841 351.8882,313.8139"/>
    <polyline points="352.4361,313.7644 357.2623,312.7447 273.8598,184.6282"/>
    <polyline points="267.5535,173.8332 273.4824,176.5925 352.1185,315.0669"/>
    <polygon points="352.2999,315.0605 270.7465,178.8614"/>
    <polyline points="376.4325,317.0893 475.3932,404.5715 420.9367,460.6665"/>
    <polyline points="422.8502,461.5981 473.2202,407.6873 376.3262,321.4655"/>
    <polyline points="376.6618,318.9991 471.6588,381.1613 410.1024,426.7744"/>
    <polyline points="411.3817,433.5074 474.2028,384.1147 376.7114,314.9596"/>
    <polyline points="376.5283,313.7163 476.9079,401.2383 419.1159,458.5191"/>
    <polyline points="417.3873,455.2417 477.7431,397.7664 376.6096,311.464"/>
    <polyline points="376.7272,312.1611 476.1049,387.3304 412.7486,439.9092"/>
    <polyline points="414.2045,445.7841 477.3389,390.7311 376.7129,310.6454"/>
    <polyline points="376.6724,310.4213 477.8875,394.2368 415.7504,450.9495"/>
    <polyline points="424.8566,461.2592 470.419,410.5096 376.2134,326.7013"/>
    <polyline points="376.5747,324.2055 468.5082,378.5438 408.9093,419.9149"/>
    <polyline points="407.801,413.1366 464.7947,376.3311 376.4464,330.4748"/>
    <polyline points="376.098,332.6308 467.0284,412.9668 426.956,459.6282"/>
    <polyline points="429.1483,456.7167 463.0955,414.992 375.9841,339.0704"/>
    <polyline points="376.2735,337.6754 460.5699,374.5866 406.7756,406.6452"/>
    <polyline points="405.8313,400.6389 455.8923,373.3672 376.0523,345.6516"/>
    <polyline points="375.8758,345.823 458.6747,416.5244 431.4332,452.5696"/>
    <polyline points="433.8102,447.2636 453.8274,417.5103 375.7769,352.6837"/>
    <polyline points="375.7796,354.2276 450.8267,372.7224 404.966,395.3036"/>
    <polyline points="404.1776,390.8074 445.4434,372.694 375.452,363.2122"/>
    <polyline points="375.6234,365.9007 443.1271,417.6648 438.838,433.629"/>
    <polyline points="436.2788,440.9055 448.6208,417.9031 375.6914,359.4447"/>
    <polyline points="378.0339,361.4128 380.9168,356.4576 479.7049,339.1758"/>
    <polyline points="483.3608,337.7796 379.2374,348.4577 378.594,353.4646"/>
    <polyline points="379.2231,344.9091 378.2331,340.2995 487.0768,337.6741"/>
    <polyline points="490.8497,338.8315 377.9178,332.0635 379.9237,335.9371"/>
    <polyline points="380.6985,326.75 378.2958,323.8312 494.6764,341.1915"/>
    <polyline points="498.5536,344.6626 379.3619,315.6841 381.5496,317.5549"/>
    <polyline points="382.4794,308.5589 381.1013,307.7024 502.4777,349.1246"/>
    <polyline points="506.4454,354.4317 383.4899,299.9642 506.4454,354.4317 673.7512,488.3717 746.3853,470.6945"/>
    <polyline points="745.2608,468.7915 769.8786,423.4955 707.1455,383.66"/>
    <polyline points="708.6374,377.5779 766.3915,425.3161 745.2356,475.6004"/>
    <polyline points="745.2388,482.4521 762.3709,427.5956 710.04,372.5801"/>
    <polyline points="711.3544,368.7653 757.8725,430.2696 745.2744,489.1391"/>
    <polyline points="745.346,495.458 752.9587,433.2684 712.5819,366.2016"/>
    <polyline points="713.7241,364.9249 747.6977,436.5177 745.4573,501.215"/>
    <polyline points="749.4982,500.5824 693.0554,465.3861 720.8938,408.3646"/>
    <polyline points="721.6959,406.3419 704.6139,403.909 771.8248,392.0812"/>
    <polyline points="773.9869,392.2121 709.9758,395.8796 721.5811,397.6947"/>
    <polyline points="720.0215,394.7185 702.3873,461.9817 748.1888,510.4596"/>
    <polyline points="745.8132,510.3454 736.4295,443.4546 715.7592,366.2093"/>
    <polyline points="714.7826,364.9377 742.1624,439.9399 745.6119,506.2309"/>
    <polyline points="748.8079,506.0917 697.5105,463.9347 720.4887,401.5067"/>
    <polyline points="721.4705,388.6676 715.5864,387.7041 776.2418,393.5973"/>
    <polyline points="769.7555,393.2384 699.5751,411.7139 721.8109,414.416"/>
    <polyline points="721.2398,415.0845 689.0837,466.2832 750.2622,494.0437"/>
    <polyline points="751.1023,486.6142 685.6505,466.581 721.53,421.4623"/>
    <polyline points="721.922,421.7388 694.9294,419.2185 767.7793,395.6842"/>
    <polyline points="765.8959,399.3857 690.7411,426.3515 722.0254,428.1515"/>
    <polyline points="721.7675,427.3025 682.8035,466.2424 752.0207,478.4554"/>
    <polyline points="753.0196,469.7479 680.582,465.2397 721.9557,432.4238"/>
    <polyline points="722.1169,433.5187 687.0684,433.0467 764.1051,404.278"/>
    <polyline points="762.4064,410.2648 683.9621,439.2439 722.1926,437.7321"/>
    <polyline points="722.0981,436.6634 679.0169,463.554 754.1008,460.6862"/>
    <polyline points="746.4057,462.944 751.7193,463.4524 676.6109,486.6214"/>
    <polyline points="679.3838,483.5934 756.7233,456.6304 746.3955,456.0204"/>
    <polyline points="745.3815,456.1215 775.0669,421.4553 703.8895,398.5451"/>
    <polyline points="705.5631,390.6995 772.7838,422.1916 745.3108,462.2318"/>
    <polyline points="745.4691,450.6489 776.6961,421.3293 702.1239,407.0242"/>
    <polyline points="700.2659,415.9483 777.6489,421.8482 745.5696,445.9859"/>
    <polyline points="746.2986,445.2227 765.4689,444.488 684.664,473.9275"/>
    <polyline points="682.0685,479.3356 761.3278,450.2906 746.3585,450.0722"/>
    <polyline points="745.679,442.2836 777.912,423.0374 698.315,425.117"/>
    <polyline points="696.2712,434.3239 777.4819,424.9132 745.7933,439.6682"/>
    <polyline points="746.1258,439.1684 772.1389,434.678 689.583,460.1248"/>
    <polyline points="687.1691,467.4784 769.0894,439.2706 746.2197,441.5667"/>
    <polyline points="745.9086,438.2376 776.3644,427.4821 694.1345,443.3613"/>
    <polyline points="691.9049,452.0261 774.5752,430.7412 746.0207,438.0593"/>
    <polyline points="756.5173,442.3194 677.9333,458.1059 722.2596,441.9633"/>
    <polyline points="722.281,442.4157 679.6127,449.9389 759.2825,424.9999"/>
    <polyline points="760.7991,417.2219 681.4653,444.8899 722.2486,440.7133"/>
    <polyline points="722.1982,439.8811 678.1299,461.1759 755.2661,451.4742"/>
    <polyline points="757.8556,433.4282 678.4299,454.3538 722.2859,442.8258"/>
    <polyline points="736.398,396.8201 726.6075,323.6598 698.1379,256.7701"/>
    <polyline points="697.3628,254.1319 767.5884,299.0061 726.8252,362.1151"/>
    <polyline points="721.2038,361.3527 733.1224,363.1121 681.147,369.5799"/>
    <polyline points="682.7459,369.3365 738.9321,355.163 721.1498,352.8535"/>
    <polyline points="725.9991,355.256 770.8909,297.3477 697.0627,259.318"/>
    <polyline points="698.0859,262.02 720.7408,327.0225 737.9887,396.4579"/>
    <polyline points="739.6707,394.8034 714.9738,330.181 698.0135,267.9604"/>
    <polyline points="696.7061,265.5691 773.5975,296.2235 725.2487,348.4744"/>
    <polyline points="721.1197,344.9813 744.589,347.4691 684.2542,367.8014"/>
    <polyline points="685.673,364.9839 750.0148,340.1045 721.1175,337.9089"/>
    <polyline points="723.9652,335.9592 777.0815,295.7624 695.8111,280.7177"/>
    <polyline points="697.8231,281.1639 704.0555,335.5835 743.3112,387.7002"/>
    <polyline points="741.4447,391.8691 709.3861,333.0588 697.9246,274.4074"/>
    <polyline points="696.2899,272.7541 775.6706,295.6817 724.5716,341.976"/>
    <polyline points="721.1469,331.7889 755.1341,333.1386 687.0033,360.9263"/>
    <polyline points="688.2465,355.703 759.876,326.6353 721.2117,326.7489"/>
    <polyline points="722.9539,326.0974 777.848,297.9088 694.6541,298.2635"/>
    <polyline points="697.7304,296.4918 693.5121,295.9221 785.495,274.3558"/>
    <polyline points="788.8445,272.983 698.0156,288.5309 668.949,233.2338 555.1298,99.6988"/>
    <polyline points="558.9538,99.1645 672.0233,235.7331 669.7197,238.5859 702.9338,280.8158 698.3565,279.9662"/>
    <polyline points="697.7131,288.0246 699.0557,337.6872 745.2706,382.3741"/>
    <polyline points="747.3229,375.998 694.4562,339.3081 697.5985,294.7819"/>
    <polyline points="695.2667,289.2845 777.8107,296.4973 723.4269,330.6101"/>
    <polyline points="721.3155,322.8887 764.1747,320.6521 689.4041,349.4187"/>
    <polyline points="690.4776,342.2053 767.9706,315.2394 721.4619,320.2778"/>
    <polyline points="722.1919,320.1441 775.8544,302.8045 693.2133,316.646"/>
    <polyline points="697.1748,316.8232 681.2347,339.9769 756.4589,343.011"/>
    <polyline points="754.0366,352.0276 683.6638,340.7608 697.2675,312.4263"/>
    <polyline points="697.3135,309.9205 685.9922,309.4589 779.0234,280.9193"/>
    <polyline points="782.2205,277.0139 689.4857,302.9196 697.4974,303.6734"/>
    <polyline points="697.4834,301.2305 690.3207,340.3911 749.4682,368.7062"/>
    <polyline points="751.7062,360.6569 686.7065,340.8885 697.3717,307.1734"/>
    <polyline points="693.9704,307.453 777.1928,300.01 722.5432,322.5682"/>
    <polyline points="721.8967,318.9184 773.8513,306.2862 692.3802,325.6352"/>
    <polyline points="697.0048,323.5682 677.9212,333.5177 764.2688,315.6817"/>
    <polyline points="767.0497,307.1629 678.1923,329.9861 696.9972,323.3725"/>
    <polyline points="697.0395,322.4979 678.3434,336.363 761.5759,324.6309"/>
    <polyline points="758.9723,333.8096 679.453,338.5151 697.0974,320.2198"/>
    <polyline points="697.0786,319.1149 680.7897,320.9382 772.8698,292.1592"/>
    <polyline points="775.9058,286.0014 683.0801,315.482 697.1751,315.1022"/>
    <polyline points="697.0206,321.8854 679.1529,325.7844 769.9172,299.2641"/>
    <polyline points="751.2288,275.9676 722.6446,200.2822 673.0361,147.729 578.3953,81.6423 640.7557,82.6326"/>
    <polyline points="641.8597,75.1999 579.5496,77.9835 673.1666,154.105 716.8362,203.5157 754.3317,273.2442"/>
    <polyline points="757.5145,269.2765 711.1815,206.4932 673.342,160.824 581.3746,75.0087 642.8808,68.6574"/>
    <polyline points="643.8209,63.1437 583.8451,72.7265 673.5657,167.6818 705.7589,209.1405 760.775,264.1365"/>
    <polyline points="764.1111,257.9268 700.6435,211.3884 673.8412,174.4707 586.9267,71.1359 644.6821,58.7711"/>
    <polyline points="645.4666,55.622 590.5767,70.2263 674.1717,180.9847 695.9063,213.173 767.5203,250.7772"/>
    <polyline points="771.0001,242.8423 691.613,214.4368 674.5605,187.025 594.7445,69.9776 646.1767,53.7474"/>
    <polyline points="646.8149,53.1652 599.3723,70.3605 675.0105,192.405 687.8232,215.1297 774.5478,234.2966"/>
    <polyline points="778.1605,225.3307 684.5893,215.2094 675.5247,196.9552 604.396,71.3371 647.3838,53.8602"/>
    <polyline points="647.8862,55.7838 609.7458,72.8611 676.106,200.5274 681.9563,214.642 781.8354,216.1457"/>
    <polyline points="785.5695,206.9488 679.9606,213.4029 676.7571,202.9989 615.3476,74.8788 648.3248,58.8559"/>
    <polyline points="648.7027,62.9666 621.1237,77.3295 677.4805,204.2754 678.6299,211.4764 789.3596,197.9472"/>
    <polyline points="793.2023,189.3431 677.9827,208.8566 678.2788,204.2933 626.994,80.1465 649.023,67.9792"/>
    <polyline points="649.2889,73.7336 632.8771,83.2581 679.1542,203.0217 678.0279,205.5472 797.0945,181.3285"/>
    <polyline points="801.0326,174.08 678.7649,201.5614 680.1089,200.4631 638.6914,86.5885 649.5036,80.0506"/>
    <polyline points="649.6706,86.7365 644.3563,90.0587 681.1449,196.6532 680.1836,196.9217 805.0131,167.7547"/>
    <polyline points="809.0324,162.4856 682.2641,191.6599 649.7933,93.588"/>
    <polyline points="639.5671,90.7939 577.9277,85.9671 672.9469,141.8913 728.5261,196.87 748.2079,277.4066"/>
    <polyline points="745.2706,277.5547 734.3992,193.3593 672.8954,136.7732 578.1533,90.9306 638.2924,99.5033"/>
    <polyline points="636.9301,108.5659 579.0689,96.4966 672.878,132.5375 740.1823,189.8313 742.4188,276.4384"/>
    <polyline points="739.6538,274.117 745.7954,186.3677 672.8907,129.3241 580.662,102.6207 635.4788,117.7782"/>
    <polyline points="633.9376,126.9323 582.9103,109.2505 672.93,127.2465 751.1606,183.0492 736.977,270.6809"/>
    <polyline points="734.3897,266.2496 756.2034,179.9544 672.9917,126.389 585.7828,116.3268 632.3055,135.822"/>
    <polyline points="630.5818,144.2481 589.2395,123.7843 673.0722,126.8042 760.854,177.159 731.8928,260.9679"/>
    <polyline points="729.4873,255.0029 765.0478,174.7344 673.1673,128.5117 593.2326,131.552 628.7658,152.0232"/>
    <polyline points="626.8571,158.9767 597.7066,139.5551 673.2731,131.498 768.7268,172.7469 727.1736,248.5392"/>
    <polyline points="724.9524,241.7744 771.8398,171.2567 673.3857,135.7161 602.5996,147.7152 624.8556,164.9594"/>
    <polyline points="622.761,169.8471 607.8437,155.9517 673.5011,141.0877 774.3438,170.3173 722.8241,234.9138"/>
    <polyline points="720.7887,228.1652 776.204,169.9742 673.6151,147.5043 613.3661,164.1833 620.5735,173.5438"/>
    <polyline points="618.2935,175.9845 619.0903,172.3284 673.7239,154.8304 777.3945,170.2649 718.8463,221.7336"/>
    <polyline points="716.9966,215.8156 777.899,171.2182 673.8234,162.9071 624.9369,180.3068 615.9213,177.1365"/>
    <polyline points="613.4575,177.0005 630.8248,188.0404 673.9096,171.5562 777.7104,172.8533 715.2394,210.5946"/>
    <polyline points="713.574,206.2362 776.8312,175.1804 673.9786,180.5845 636.6724,195.4547 610.903,175.6105"/>
    <polyline points="608.2586,173.0329 642.3986,202.4797 674.0265,189.789 775.2738,178.1999 711.9999,202.8834"/>
    <polyline points="710.516,200.6534 773.0597,181.9025 674.0493,198.9624 647.9239,209.0504 605.5256,169.3648"/>
    <polyline points="602.7052,164.7314 653.1719,215.1086 674.0433,207.8978 770.2196,186.2695 709.1215,199.6342"/>
    <polyline points="707.815,199.8827 766.7929,191.2732 658.0696,220.6029 599.7988,159.283"/>
    <polyline points="596.8081,153.1908 662.5492,225.4897 673.9296,224.2642 762.827,196.8768 706.5953,201.423"/>
    <polyline points="705.4608,204.2455 758.3771,203.0353 673.8145,231.3331 666.5486,229.7341 593.7348,146.6429"/>
    <polyline points="590.5808,139.839 673.6559,237.449 753.5048,209.6959 704.4097,208.3079"/>
    <polyline points="703.4404,213.5356 748.2777,216.7989 673.4501,242.4845 672.8921,236.1997 587.3483,132.9853"/>
    <polyline points="584.0394,126.2896 675.1484,238.3967 673.1938,246.3398 742.7682,224.2786 702.5507,219.8239"/>
    <polyline points="701.7386,227.0408 737.0528,232.064 672.8837,248.9457 676.7496,239.9029 580.6565,119.9553"/>
    <polyline points="577.2021,114.1767 677.6738,240.7301 672.5165,250.2653 731.2107,240.0796 701.0017,235.03"/>
    <polyline points="700.3376,243.6156 725.3229,248.2471 672.0891,250.2949 677.9079,240.8996 573.6788,109.1336"/>
    <polyline points="570.0894,104.9868 677.4488,240.4416 671.5986,249.0643 719.4711,256.4858 699.7438,252.606"/>
    <polyline points="698.1656,252.3769 732.4922,320.1723 734.8978,395.9112"/>
    <polyline points="733.4871,393.7852 738.3136,316.641 698.1651,248.9846"/>
    <polyline points="697.6096,250.1143 763.7357,301.1429 727.7292,368.8438"/>
    <polyline points="728.7133,375.2378 759.3864,303.6958 697.8066,247.3388"/>
    <polyline points="698.1327,246.7111 743.9907,313.1475 732.1647,390.5273"/>
    <polyline points="730.9293,386.2524 749.445,309.7729 698.0646,245.6458"/>
    <polyline points="697.957,245.8466 754.6007,306.5968 729.7794,381.1014"/>
    <line x1="721.3681" x2="721.3681" y1="379.4633" y2="379.4633"/>
    <polyline points="718.8892,382.1679 713.1303,456.8164 747.1536,515.4732"/>
    <polyline points="746.7319,516.0502 718.8477,453.7411 718.2187,376.7908"/>
    <polyline points="717.4751,372.2443 724.6907,450.4364 746.3699,515.3503"/>
    <polyline points="746.0648,513.4219 730.5786,446.9807 716.656,368.6762"/>
    <polyline points="721.2779,370.2895 727.2406,371.2389 679.4566,368.5558"/>
    <polyline points="672.8944,362.1222 671.7709,353.3779 548.273,222.845 518.6185,218.7212 381.6059,233.3521"/>
    <polyline points="384.1427,241.022 514.4293,220.3329 553.5004,224.6312 669.6172,347.4575 670.015,359.7542"/>
    <polyline points="666.5518,357.0059 667.3708,341.0242 558.373,227.1103 510.25,223.2253 387.2866,248.3569"/>
    <polyline points="390.9939,255.2876 506.0845,227.3544 562.8234,230.2805 665.0321,334.2747 662.5529,353.948"/>
    <polyline points="658.0737,350.6558 662.6016,327.4141 566.7896,234.1306 501.9369,232.6437 395.2132,261.7509"/>
    <polyline points="399.886,267.6896 497.8111,238.987 570.2168,238.6399 660.08,320.6501 653.1763,347.2074"/>
    <polyline points="647.9287,343.6835 657.4682,314.188 573.0575,243.7784 493.7108,246.2508 404.9475,273.0543"/>
    <polyline points="403.7254,267.3631 389.8145,269.0916 484.9751,370.727 526.8086,387.266 654.9226,468.4178"/>
    <polyline points="659.682,473.7048 522.6785,380.5247 488.2837,367.1969 388.3749,273.1759 398.7492,272.8669"/>
    <polyline points="394.1775,278.9338 387.0239,278.4239 492.1419,363.7226 518.5733,373.6644 664.0009,478.3712"/>
    <polyline points="667.8194,482.3849 514.4969,366.8931 496.4961,360.3848 385.7605,284.7303 390.0736,285.5124"/>
    <polyline points="386.4945,292.5442 384.583,291.9626 501.2861,357.2625 510.453,360.4163 671.0846,485.723"/>
    <polyline points="649.7887,462.5507 530.9597,393.6837 482.262,374.231 391.344,266.2461 409.0371,262.4662"/>
    <polyline points="414.6106,258.2112 392.9642,264.6824 480.182,377.6279 535.128,399.5815 644.3515,456.1523"/>
    <polyline points="638.6864,449.2787 539.3094,404.7763 478.764,380.8378 394.676,264.4106 420.3686,254.6247"/>
    <polyline points="426.2313,251.7235 396.48,265.4071 478.0275,383.7835 543.5,409.1036 632.872,441.9923"/>
    <polyline points="626.9889,434.3618 547.6957,412.4209 477.9829,386.3915 398.3767,267.6159 432.1173,249.5153"/>
    <polyline points="437.9451,247.9979 400.3662,270.9493 478.6307,388.5929 551.8927,414.612 621.1186,426.46"/>
    <polyline points="615.3426,418.364 556.0868,415.5899 479.962,390.3246 402.4487,275.2906 443.6339,247.1599"/>
    <polyline points="449.1047,246.98 404.6241,280.4973 481.9583,391.5298 560.274,415.2988 609.741,410.1534"/>
    <polyline points="604.3914,401.9093 564.4505,413.7157 484.5919,392.1592 406.8921,286.4043 454.2817,247.4282"/>
    <polyline points="459.0931,248.4655 409.2524,292.8284 487.8262,392.1714 568.6121,410.8512 599.3681,393.7133"/>
    <polyline points="594.7407,385.6465 572.7549,406.7488 491.6166,391.5334 411.7044,299.573 463.4721,250.0449"/>
    <polyline points="467.3582,252.1117 414.2472,306.4334 495.9103,390.2215 576.8751,401.4841 590.5733,377.788"/>
    <polyline points="586.9237,370.2141 580.9688,395.1627 500.6478,388.2212 416.8799,313.2018 470.6973,254.6047"/>
    <polyline points="473.4431,257.4567 419.6015,319.6727 505.7635,385.5276 585.0321,387.9177 583.8427,362.9972"/>
    <polyline points="581.3728,356.2047 589.0614,379.9058 511.1864,382.1453 422.4107,325.6485 475.5577,260.5952"/>
    <polyline points="477.0116,263.9443 425.306,330.9441 516.8412,378.0885 593.0528,371.3036 579.5483,349.898"/>
    <polyline points="578.3946,344.132 597.0028,362.3032 522.6497,373.3808 428.2859,335.3922 477.7847,267.4247"/>
    <polyline points="477.8663,270.9555 431.3485,338.8475 528.5312,368.0549 600.9078,353.1066 577.9275,338.9539"/>
    <polyline points="578.1538,334.4029 604.7643,343.9212 534.4043,362.1519 434.4921,341.19 477.2553,274.4551"/>
    <polyline points="475.96,277.8423 437.7146,342.3288 540.1873,355.721 608.5691,334.954 579.07,330.5094"/>
    <polyline points="580.6637,327.2947 612.3187,326.4063 545.8002,348.8186 441.0137,342.204 473.9986,281.0374"/>
    <polyline points="471.3982,283.9634 444.3871,340.7884 551.1651,341.5079 616.01,318.4686 582.9126,324.7707"/>
    <polyline points="585.7855,322.9398 619.64,311.3156 556.2076,333.8575 447.8324,338.0881 468.1948,286.5471"/>
    <polyline points="464.4328,288.7199 451.3469,334.1424 560.8578,325.9408 623.2057,305.1018 589.2428,321.7946"/>
    <polyline points="593.2363,321.3183 626.7043,299.9574 565.0513,317.835 454.9279,329.0229 460.1645,290.4192"/>
    <polyline points="455.449,291.5885 458.5726,322.8315 568.7298,309.6197 630.1329,295.9849 597.7107,321.4849"/>
    <polyline points="602.604,322.2594 633.4892,293.2564 462.2778,315.6977 450.3518,292.1791"/>
    <polyline points="444.9434,292.15 466.0406,307.7755 574.3457,293.1862 636.7706,291.8122 607.8484,323.5983"/>
    <polyline points="613.371,325.4505 639.9747,291.6591 576.2053,285.1305 469.8578,299.2392 439.2989,291.4691"/>
    <polyline points="433.4966,290.1129 473.726,290.2792 577.3953,277.2881 643.0996,292.7705 619.0953,327.7575"/>
    <polyline points="624.942,330.4547 646.143,295.0873 577.8991,269.7352 477.6419,281.0964 427.6169,288.0678"/>
    <polyline points="421.7414,285.3293 481.6019,271.8978 577.7099,262.5438 649.1032,298.5191 630.8299,333.472"/>
    <polyline points="636.6774,336.735 651.9785,302.9467 576.8302,255.7809 485.6025,262.8908 415.9515,281.9028"/>
    <polyline points="410.3275,277.803 489.64,254.2777 575.2722,249.5077 654.7673,308.2254 642.4035,340.1655"/>
    <polyline points="691.4691,334.2188 771.2111,310.4394 721.6545,318.9531"/>
    <line x1="698.0156" x2="698.0156" y1="288.5309" y2="288.5309"/>
    <polyline points="698.7561,270.9885 708.1984,272.851 670.4166,243.1022 674.486,237.8074 562.7238,99.9062"/>
    <polyline points="566.4367,101.874 676.3029,239.3951 671.042,246.6356 713.7364,264.7143 699.2176,261.7994"/>
    <line x1="682.2641" x2="682.2641" y1="191.6599" y2="191.6599"/>
    <line x1="678.1177" x2="834.0207" y1="84.1223" y2="63.4141"/>
    <polyline points="838.1954,56.0265 828.1446,56.4302 680.3977,81.7765 677.937,81.0365"/>
    <polyline points="678.4493,77.2689 682.7699,78.1712 822.2654,49.9063 842.3548,49.5375"/>
    <polyline points="798.2079,48.0 685.2336,73.3691 679.6477,72.8392"/>
    <polyline points="681.5154,67.776 687.7882,67.4638 770.3617,48.0"/>
    <line x1="744.1964" x2="684.0265" y1="48.0" y2="62.1169"/>
    <polyline points="687.1463,55.9076 693.1655,52.8578 715.4093,48.0"/>
    <line x1="692.1416" x2="690.8315" y1="48.0" y2="49.2017"/>
    <line x1="877.3031" x2="882.2629" y1="48.0" y2="49.4922"/>
    <line x1="886.0052" x2="864.3223" y1="55.2826" y2="48.0"/>
    <line x1="852.8539" x2="889.6888" y1="48.0" y2="61.6252"/>
    <line x1="893.3106" x2="842.8117" y1="68.3256" y2="48.0"/>
    <line x1="834.1193" x2="896.8677" y1="48.0" y2="75.1802"/>
    <line x1="900.3574" x2="826.7035" y1="81.9814" y2="48.0"/>
    <line x1="820.4894" x2="903.7768" y1="48.0" y2="88.5228"/>
    <line x1="907.1235" x2="815.3971" y1="94.6048" y2="48.0"/>
    <line x1="811.339" x2="910.395" y1="48.0" y2="100.0399"/>
    <line x1="913.589" x2="808.2172" y1="104.6571" y2="48.0"/>
    <line x1="805.9209" x2="916.7034" y1="48.0" y2="108.3065"/>
    <line x1="919.7362" x2="804.3228" y1="110.8633" y2="48.0"/>
    <polyline points="805.5651,48.0 806.7952,49.8942 922.6855,112.2311"/>
    <polyline points="925.5497,112.3439 812.2692,53.0628 808.8097,48.0"/>
    <polyline points="812.1446,48.0 817.9601,55.9538 928.3271,111.1684"/>
    <polyline points="931.0166,108.7045 823.7891,58.4947 815.4515,48.0"/>
    <polyline points="818.6266,48.0 829.6754,60.6173 933.6167,104.9855"/>
    <polyline points="936.1266,100.0771 835.5373,62.2596 821.5841,48.0"/>
    <polyline points="824.2636,48.0 841.2935,63.3661 938.5453,94.0756"/>
    <polyline points="940.8721,87.1057 846.8642,63.8889 826.6419,48.0"/>
    <polyline points="828.7534,48.0 852.1722,63.788 943.1065,79.3173"/>
    <polyline points="945.2481,70.881 857.1438,63.032 830.7256,48.0"/>
    <polyline points="832.8458,48.0 861.7101,61.5989 947.2968,61.9847"/>
    <polyline points="949.2525,52.8277 865.8079,59.4758 835.6928,48.0"/>
    <polyline points="840.4239,48.0 869.3802,56.6595 923.6451,48.0"/>
    <polyline points="894.6986,48.0 872.3775,53.1564 849.476,48.0"/>
    <polyline points="868.5912,48.0 874.7583,48.9823 878.1481,48.0"/>
    <polyline points="1003.1286,97.2844 1082.849,77.5421 1104.0,82.7878"/>
    <polyline points="1104.0,85.6232 1080.6161,81.621 1002.0518,105.7712"/>
    <polyline points="1001.0572,113.627 1079.039,86.3497 1104.0,88.9615"/>
    <polyline points="1104.0,92.9316 1078.1398,91.6955 1000.1429,120.6791"/>
    <polyline points="999.3069,126.7757 1077.9308,97.6169 1104.0,97.6171"/>
    <polyline points="1104.0,103.0579 1078.4149,104.0644 998.5468,131.7896"/>
    <polyline points="997.8603,135.6217 1079.5855,110.9814 1104.0,109.2522"/>
    <polyline points="1104.0,117.4525 1101.4082,116.4064 1081.4264,118.3045 997.2449,138.2035"/>
    <polyline points="996.6979,139.4985 1083.9119,125.9649 1097.7644,124.4086 1104.0,126.3569"/>
    <polyline points="1104.0,135.2673 1094.1843,133.0037 1087.0076,133.8891 996.2166,139.5038"/>
    <polyline points="995.798,138.2497 1090.6707,141.9999 1104.0,144.1022"/>
    <polyline points="1044.5032,776.1543 916.3558,788.8058 874.6408,781.4133"/>
    <polyline points="877.8164,781.5737 910.7176,786.2917 1048.3392,767.496"/>
    <polyline points="1052.1221,759.4066 905.3178,783.0868 881.0701,780.4465"/>
    <polyline points="884.3994,778.0304 900.2314,779.2028 1055.8486,752.0645"/>
    <polyline points="1059.5156,745.6291 895.529,774.661 887.8021,774.3572"/>
    <line x1="891.2757" x2="1063.12" y1="769.4916" y2="740.2364"/>
    <line x1="1041.9015" x2="969.5338" y1="728.5193" y2="653.3244"/>
    <line x1="972.5031" x2="1038.3505" y1="649.9956" y2="732.1467"/>
    <line x1="1034.7345" x2="974.8541" y1="734.5154" y2="646.5262"/>
    <line x1="976.5543" x2="1031.0564" y1="642.9971" y2="735.5946"/>
    <line x1="1027.3194" x2="977.58" y1="735.3868" y2="639.4897"/>
    <line x1="977.917" x2="1023.5266" y1="636.0855" y2="733.9278"/>
    <line x1="1019.6812" x2="977.5607" y1="731.286" y2="632.8643"/>
    <line x1="976.5159" x2="1015.7867" y1="629.9034" y2="727.5599"/>
    <line x1="1011.8463" x2="974.7973" y1="722.8764" y2="627.2767"/>
    <line x1="972.4285" x2="1007.8638" y1="625.0532" y2="717.387"/>
    <line x1="1003.8426" x2="969.4425" y1="711.2641" y2="623.2963"/>
    <line x1="965.8807" x2="999.7865" y1="622.0633" y2="704.6964"/>
    <line x1="995.6992" x2="961.7924" y1="697.8841" y2="621.4037"/>
    <line x1="957.2344" x2="991.5845" y1="621.3596" y2="691.0338"/>
    <line x1="987.4463" x2="952.2698" y1="684.3531" y2="621.964"/>
    <line x1="946.9675" x2="983.2885" y1="623.2414" y2="678.0451"/>
    <line x1="970.7369" x2="929.787" y1="663.2146" y2="631.2132"/>
    <line x1="923.9005" x2="966.5403" y1="635.2364" y2="660.1636"/>
    <line x1="965.9874" x2="1045.3849" y1="656.4338" y2="723.6964"/>
    <line x1="1048.7977" x2="961.913" y1="717.7723" y2="659.2479"/>
    <line x1="962.3439" x2="918.0696" y1="658.2629" y2="639.9119"/>
    <line x1="912.3753" x2="958.1518" y1="645.2075" y2="657.5921"/>
    <line x1="957.3673" x2="1052.1376" y1="661.6951" y2="710.8697"/>
    <line x1="1055.4021" x2="952.4131" y1="703.1366" y2="663.7088"/>
    <line x1="949.7965" x2="901.7092" y1="660.0983" y2="657.488"/>
    <polyline points="900.3996,660.4455 777.9186,523.3948 777.3286,515.9094"/>
    <polyline points="776.3149,513.147 778.3119,522.1262 896.4303,657.657"/>
    <polyline points="892.5043,653.7992 779.393,521.4282 775.382,511.5584"/>
    <polyline points="774.5278,511.2153 781.147,521.3431 888.6253,649.0024"/>
    <polyline points="884.7965,643.4208 783.5495,521.9047 773.7501,512.1569"/>
    <polyline points="773.0466,514.3893 786.5674,523.138 881.0214,637.2294"/>
    <polyline points="877.3031,630.6185 790.1586,525.0585 772.4147,517.8853"/>
    <polyline points="771.852,522.585 794.2734,527.6723 873.6448,623.7896"/>
    <polyline points="870.0495,616.9496 798.8547,530.9758 771.3555,528.3973"/>
    <polyline points="770.9225,535.2024 803.8391,534.9558 866.52,610.3058"/>
    <polyline points="863.0592,604.0605 809.1573,539.5899 770.5499,542.855"/>
    <polyline points="770.2347,551.1876 814.7357,544.8465 859.6696,598.4055"/>
    <polyline points="856.3539,593.5174 820.4969,550.6854 769.9736,560.0153"/>
    <polyline points="769.5886,559.2252 827.4872,688.2002 798.7959,703.7765"/>
    <polyline points="799.6642,706.5231 833.3676,690.0277 769.8592,562.0294"/>
    <polyline points="767.9275,560.2797 804.8323,676.9802 796.0678,683.464"/>
    <polyline points="796.6429,689.6362 810.2062,680.2326 768.4357,558.0949"/>
    <polyline points="769.2633,557.5916 821.6127,685.9146 798.0044,699.9562"/>
    <polyline points="797.2876,695.1916 815.8256,683.2355 768.88,557.2013"/>
    <polyline points="767.3525,563.7297 799.7786,673.5562 795.5595,676.8652"/>
    <line x1="795.1151" x2="766.7079" y1="670.0407" y2="568.3861"/>
    <polyline points="769.7634,569.1403 826.361,557.0582 853.1142,589.5531"/>
    <polyline points="849.953,586.6455 832.2466,563.9093 769.6005,578.3572"/>
    <polyline points="770.3761,576.3015 850.2357,692.219 802.7519,707.4604"/>
    <polyline points="801.6403,708.42 844.8213,692.0841 770.2496,570.7102"/>
    <polyline points="770.0784,565.9012 839.1725,691.3393 800.6117,708.0946"/>
    <polyline points="803.9483,705.2101 855.3406,691.7095 770.4617,582.5002"/>
    <polyline points="769.4816,587.4583 838.0722,571.1764 846.8723,584.9003"/>
    <polyline points="843.8739,584.3929 843.757,578.7913 769.4031,596.2386"/>
    <polyline points="770.5244,595.946 864.3441,688.6641 806.6015,696.9808"/>
    <polyline points="805.231,701.6968 860.0652,690.5299 770.5099,589.1155"/>
    <polyline points="770.5091,602.7846 868.1177,686.105 808.0609,691.1538"/>
    <polyline points="809.6104,684.3357 871.334,682.8557 770.4676,609.4242"/>
    <polyline points="769.3524,612.0646 854.3918,594.7692 838.1314,587.2331"/>
    <polyline points="840.9597,585.1671 849.2221,586.6812 769.3612,604.5018"/>
    <polyline points="770.404,615.6626 873.9481,678.9284 811.2508,676.6725"/>
    <polyline points="812.983,668.3317 875.9239,674.3449 770.3221,621.3081"/>
    <polyline points="769.3727,618.762 859.1944,602.976 835.3903,590.5682"/>
    <polyline points="832.7378,595.1165 863.5633,611.2204 769.4185,624.4514"/>
    <polyline points="770.2258,626.1843 877.2341,669.1361 814.8075,659.4985"/>
    <polyline points="816.7246,650.3707 877.8603,663.3416 770.1192,630.1347"/>
    <polyline points="769.4857,629.0161 867.4378,619.4207 830.175,600.7908"/>
    <polyline points="827.7029,607.4751 870.7643,627.496 769.5705,632.3685"/>
    <polyline points="770.0061,633.0267 877.794,657.009 818.7347,641.154"/>
    <polyline points="820.8378,632.056 877.036,650.1935 769.8908,634.7551"/>
    <polyline points="769.669,634.4526 873.4966,635.3669 825.3222,615.0269"/>
    <polyline points="823.0337,623.2815 875.5969,642.9569 769.777,635.2447"/>
    <polyline points="777.1698,677.0573 817.6959,809.8108 824.4051,816.0"/>
    <line x1="818.681" x2="817.636" y1="816.0" y2="815.2461"/>
    <polyline points="818.5799,815.2853 898.4124,787.7425 909.1317,786.0539"/>
    <polyline points="912.5474,781.8572 903.3622,781.0105 818.9156,809.284"/>
    <line x1="816.3569" x2="792.6911" y1="813.6905" y2="816.0"/>
    <line x1="692.2268" x2="715.1322" y1="816.0" y2="796.0109"/>
    <line x1="718.7156" x2="691.0139" y1="798.6734" y2="816.0"/>
    <line x1="727.8147" x2="816.8416" y1="816.0" y2="804.4811"/>
    <line x1="817.7747" x2="775.4545" y1="803.7286" y2="679.0279"/>
    <polyline points="773.647,682.2702 773.7978,683.3649 817.8687,797.1872"/>
    <line x1="817.2633" x2="686.2588" y1="795.4327" y2="816.0"/>
    <line x1="684.7742" x2="722.2327" y1="816.0" y2="800.1545"/>
    <polyline points="725.6807,800.3854 686.9908,810.1855 817.6251,786.7485"/>
    <polyline points="820.2858,786.0899 919.9576,763.9829 923.2059,776.8172"/>
    <polyline points="919.5873,777.2093 914.2101,769.0806 819.7656,794.526"/>
    <polyline points="817.9737,790.386 771.1435,687.5333 771.7468,686.731"/>
    <polyline points="769.7538,692.3255 767.8897,692.3477 818.0859,783.5314"/>
    <polyline points="817.9301,778.6228 690.6511,803.5011 729.0569,799.3297"/>
    <polyline points="732.3589,796.9843 694.8282,796.3773 818.1817,771.2351"/>
    <polyline points="818.3154,770.4885 759.7721,703.7697 765.4888,706.4322"/>
    <polyline points="767.6678,698.9393 764.0817,697.774 818.2011,776.831"/>
    <polyline points="820.8734,777.1936 925.8156,759.5168 926.8864,777.6972"/>
    <polyline points="930.6257,779.7959 931.7027,755.7115 821.5311,768.0367"/>
    <polyline points="818.5254,759.6405 749.8937,717.26 760.8535,723.3832"/>
    <polyline points="763.2173,714.6407 755.0208,710.2843 818.4249,764.6983 699.4641,788.8804 735.5843,793.3792"/>
    <polyline points="738.7309,788.5773 704.4946,781.0817 818.5375,759.2924"/>
    <polyline points="822.2613,758.8253 937.5372,752.5871 934.4208,783.0287"/>
    <polyline points="938.2682,787.2816 943.2384,750.1543 823.0665,749.7672"/>
    <polyline points="818.759,749.5906 727.1057,748.4175 750.4907,759.6826"/>
    <polyline points="747.6783,768.0665 721.2344,756.6432 818.7558,750.1017"/>
    <polyline points="818.7337,750.3547 732.9883,740.2876 753.2157,750.8206"/>
    <polyline points="755.8518,741.6791 738.8005,732.3335 818.6837,752.344"/>
    <polyline points="818.7203,751.9053 715.4557,764.8834 744.7797,775.7861"/>
    <polyline points="741.7967,782.6722 709.8499,773.0565 818.6487,754.9852"/>
    <polyline points="818.613,755.4764 744.4618,724.633 758.3981,732.4641"/>
    <polyline points="769.4319,795.5925 621.2523,803.6345 601.8353,805.3571 478.6082,765.5387 479.6805,759.8806 437.813,625.0161 448.7289,621.9893 366.3591,634.7551 214.8326,590.1955 196.1554,584.3859 80.1141,451.33 83.1255,448.545"/>
    <polyline points="83.9526,448.4638 82.1687,450.1524 200.0172,589.4619 209.2504,592.1709 369.4943,626.0225 374.8886,625.1099 448.8771,622.3565 443.5058,624.1627 480.751,764.661 479.924,767.2818 605.8324,796.4811 615.4732,795.5421 772.3149,796.4032"/>
    <polyline points="766.4641,796.0557 627.1237,811.5309 597.8791,813.7622 477.9762,763.3272 478.6922,754.3124 431.9829,626.5492 448.5345,622.9063 377.5915,640.8928 363.1448,642.9496 220.5962,587.7813 192.3451,578.5814 78.7223,453.1939 82.3742,449.9167"/>
    <polyline points="84.8577,449.6447 203.9271,593.6476 372.5484,616.9469 448.9824,623.9681 481.9053,768.4996 609.8667,787.3332 775.1116,798.4365 609.8667,787.3332"/>
    <polyline points="613.9347,778.1194 772.8432,799.1594 777.8205,801.6094"/>
    <polyline points="780.4403,805.8093 769.9518,800.4508 618.0324,769.0474"/>
    <polyline points="622.1561,760.3213 766.4775,802.2602 782.9701,810.8973"/>
    <polyline points="784.0693,816.0 762.4685,804.5298 626.3019,752.1362"/>
    <polyline points="630.4659,744.6733 757.9804,807.1956 774.4941,816.0"/>
    <polyline points="764.0324,816.0 753.0754,810.1878 634.6441,738.0949"/>
    <polyline points="638.8326,732.5407 747.8215,813.4322 752.7293,816.0"/>
    <line x1="741.3392" x2="643.0274" y1="816.0" y2="728.1238"/>
    <line x1="647.2244" x2="732.4765" y1="724.9279" y2="816.0"/>
    <line x1="724.5108" x2="651.4197" y1="816.0" y2="723.0051"/>
    <line x1="655.6092" x2="717.3418" y1="722.3749" y2="816.0"/>
    <line x1="710.9191" x2="659.7889" y1="816.0" y2="723.0228"/>
    <line x1="663.955" x2="705.2228" y1="724.9018" y2="816.0"/>
    <line x1="700.2513" x2="668.1033" y1="816.0" y2="727.9328"/>
    <line x1="672.2301" x2="696.0128" y1="732.0071" y2="816.0"/>
    <line x1="692.519" x2="676.3313" y1="816.0" y2="736.9887"/>
    <line x1="680.4033" x2="689.7804" y1="742.7185" y2="816.0"/>
    <line x1="687.8016" x2="684.4422" y1="816.0" y2="749.018"/>
    <line x1="688.4443" x2="686.5766" y1="755.6938" y2="816.0"/>
    <line x1="686.0841" x2="692.4059" y1="816.0" y2="762.5428"/>
    <line x1="696.3235" x2="686.2803" y1="769.3576" y2="816.0"/>
    <line x1="687.0883" x2="700.1936" y1="816.0" y2="775.9316"/>
    <line x1="704.0127" x2="688.3816" y1="782.0643" y2="816.0"/>
    <line x1="689.9517" x2="707.7777" y1="816.0" y2="787.5668"/>
    <line x1="711.4852" x2="691.4459" y1="792.2663" y2="816.0"/>
    <polyline points="830.8326,816.0 893.8717,794.9074 905.7888,791.4057"/>
    <polyline points="902.5212,797.8046 889.8031,802.4384 844.5015,816.0"/>
    <line x1="889.1158" x2="896.2209" y1="816.0" y2="813.1805"/>
    <polyline points="899.3312,805.1157 886.263,810.2638 861.9213,816.0"/>
    <polyline points="819.3098,802.3144 908.6526,774.7719 916.0336,778.8936"/>
    <line x1="894.8173" x2="887.5304" y1="763.5289" y2="763.7337"/>
    <line x1="884.3453" x2="898.4243" y1="757.4343" y2="756.5926"/>
    <line x1="902.0938" x2="881.7643" y1="748.8318" y2="750.6483"/>
    <line x1="879.8233" x2="905.8226" y1="743.437" y2="740.4164"/>
    <line x1="909.6078" x2="878.5493" y1="731.5337" y2="735.8677"/>
    <line x1="877.9598" x2="913.4459" y1="728.0127" y2="722.3828"/>
    <line x1="917.3338" x2="878.0631" y1="713.1697" y2="719.9483"/>
    <line x1="878.8578" x2="921.2678" y1="711.7536" y2="704.1022"/>
    <line x1="925.2447" x2="880.3327" y1="695.3842" y2="703.5096"/>
    <line x1="882.4675" x2="929.2606" y1="695.2979" y2="687.2106"/>
    <line x1="933.312" x2="885.2325" y1="679.7623" y2="687.1997"/>
    <line x1="888.5895" x2="937.3951" y1="679.2947" y2="673.2014"/>
    <line x1="935.8099" x2="1064.7211" y1="666.5776" y2="676.7287"/>
    <line x1="1061.6959" x2="941.5592" y1="685.8734" y2="666.2"/>
    <line x1="941.5061" x2="892.4918" y1="667.6669" y2="671.6597"/>
    <line x1="896.8853" x2="945.6412" y1="664.368" y2="663.2714"/>
    <line x1="947.1193" x2="1058.5889" y1="665.2283" y2="694.7423"/>
    <line x1="1067.6626" x2="929.9512" y1="667.5143" y2="666.3232"/>
    <line x1="924.0642" x2="1070.5189" y1="665.4078" y2="658.4377"/>
    <line x1="1073.2883" x2="918.2307" y1="649.7032" y2="663.8112"/>
    <polyline points="908.4539,662.4347 779.208,527.4353 779.6058,524.5205"/>
    <polyline points="778.425,519.7437 778.2187,525.1837 904.4087,662.0621"/>
    <line x1="906.8965" x2="953.968" y1="651.0825" y2="658.1989"/>
    <polyline points="1063.501,605.3783 1052.6023,604.2277 1104.0,581.2379"/>
    <line x1="1104.0" x2="1078.109" y1="559.9229" y2="540.7306"/>
    <polyline points="1075.0088,559.0618 1074.9285,558.0877 1104.0,565.2717"/>
    <polyline points="1104.0,572.928 1062.072,589.9944 1067.7081,592.8807"/>
    <polyline points="1065.651,599.6299 1057.5425,597.3144 1104.0,576.6697"/>
    <polyline points="1104.0,564.9311 1076.6042,549.8445 1104.0,564.9311"/>
    <polyline points="1104.0,569.9787 1066.1278,582.3365 1069.6721,585.2747"/>
    <polyline points="1071.5434,576.978 1069.6538,574.4142 1104.0,567.7623"/>
    <polyline points="1104.0,566.2109 1072.601,566.3046 1073.3221,568.1747"/>
    <line x1="1104.0" x2="1087.0417" y1="515.9948" y2="493.2839"/>
    <line x1="1064.8624" x2="960.3788" y1="459.1997" y2="408.8188"/>
    <line x1="964.0291" x2="1068.5667" y1="413.8954" y2="451.3551"/>
    <line x1="1071.7073" x2="967.6159" y1="443.2979" y2="418.0819"/>
    <line x1="971.1366" x2="1074.2406" y1="421.2395" y2="435.1071"/>
    <line x1="1076.1316" x2="974.5882" y1="426.8635" y2="423.2563"/>
    <line x1="977.9683" x2="1077.354" y1="424.0495" y2="418.6488"/>
    <line x1="1077.8908" x2="981.2742" y1="410.5443" y2="423.5683"/>
    <line x1="984.5037" x2="1077.7347" y1="421.7945" y2="402.6296"/>
    <line x1="1076.8877" x2="987.6545" y1="394.9818" y2="418.7437"/>
    <line x1="990.7246" x2="1075.3616" y1="414.4642" y2="387.6743"/>
    <line x1="1073.1777" x2="993.712" y1="380.7758" y2="409.0361"/>
    <line x1="996.615" x2="1070.3661" y1="402.5694" y2="374.3492"/>
    <line x1="1066.9658" x2="999.432" y1="368.451" y2="395.2007"/>
    <line x1="998.8308" x2="1042.5137" y1="389.3558" y2="371.948"/>
    <line x1="1043.6751" x2="1032.2173" y1="372.8832" y2="373.7503"/>
    <line x1="1026.3316" x2="1043.5945" y1="378.0534" y2="375.8873"/>
    <line x1="1042.8318" x2="1003.8133" y1="375.146" y2="388.4685"/>
    <line x1="1002.1616" x2="1063.0241" y1="387.0901" y2="363.1302"/>
    <line x1="1058.5955" x2="1004.8024" y1="358.4281" y2="378.4168"/>
    <line x1="1007.3534" x2="1053.7415" y1="369.3745" y2="354.3771"/>
    <line x1="1048.5294" x2="1009.8136" y1="351.0007" y2="360.1665"/>
    <line x1="1012.1822" x2="1043.0315" y1="351.0004" y2="348.313"/>
    <line x1="1040.6359" x2="983.536" y1="350.4206" y2="386.6429"/>
    <line x1="981.1366" x2="1040.0005" y1="384.6098" y2="343.7051"/>
    <line x1="1037.324" x2="1014.4586" y1="346.3187" y2="342.0826"/>
    <line x1="1014.0013" x2="1022.6362" y1="345.0327" y2="312.694"/>
    <line x1="1024.4486" x2="1008.4523" y1="307.7168" y2="346.2427"/>
    <line x1="1003.1732" x2="1026.1687" y1="347.9787" y2="303.9242"/>
    <line x1="1027.7972" x2="998.2373" y1="301.3837" y2="350.184"/>
    <line x1="993.7129" x2="1029.3349" y1="352.7952" y2="300.1305"/>
    <line x1="1030.7826" x2="989.6628" y1="300.1665" y2="355.7435"/>
    <line x1="986.1432" x2="1032.1415" y1="358.9553" y2="301.4604"/>
    <line x1="1033.4128" x2="983.2029" y1="303.9482" y2="362.3535"/>
    <line x1="980.8827" x2="1034.598" y1="365.8581" y2="307.5352"/>
    <line x1="1035.6987" x2="979.2146" y1="312.0982" y2="369.388"/>
    <line x1="978.222" x2="1036.7165" y1="372.8615" y2="317.4888"/>
    <line x1="1037.6535" x2="977.9184" y1="323.5372" y2="376.1978"/>
    <line x1="978.3082" x2="1038.5117" y1="379.3179" y2="330.0565"/>
    <line x1="1039.2932" x2="979.3859" y1="336.8478" y2="382.1459"/>
    <line x1="986.5508" x2="1041.2021" y1="388.1842" y2="356.7903"/>
    <line x1="1041.7019" x2="990.1393" y1="362.6191" y2="389.1798"/>
    <line x1="994.2516" x2="1042.1381" y1="389.5831" y2="367.7258"/>
    <line x1="1043.7187" x2="1038.0435" y1="368.648" y2="368.8075"/>
    <line x1="1043.7291" x2="1043.7291" y1="363.2608" y2="363.2608"/>
    <line x1="1043.0955" x2="1009.1301" y1="377.2068" y2="386.9008"/>
    <line x1="1014.7074" x2="1043.3083" y1="384.6416" y2="378.0465"/>
    <line x1="1043.4735" x2="1020.4678" y1="377.6131" y2="381.6897"/>
    <line x1="1019.7432" x2="1020.7312" y1="344.3982" y2="318.7574"/>
    <line x1="1018.7333" x2="1025.5985" y1="325.7809" y2="344.3805"/>
    <line x1="1031.486" x2="1016.6424" y1="345.0127" y2="333.6133"/>
    <line x1="1104.0" x2="1059.1297" y1="90.0909" y2="76.1366"/>
    <line x1="1090.6707" x2="1090.6707" y1="141.9999" y2="141.9999"/>
    <line x1="863.8063" x2="860.668" y1="468.5007" y2="479.9973"/>
    <line x1="859.9871" x2="864.8822" y1="472.0426" y2="488.2363"/>
    <polyline points="747.6383,513.6037 707.6181,459.587 719.4892,388.2059"/>
    <polyline points="571.2759,491.6889 443.5587,498.3692 401.6098,520.9546 400.6303,507.6046 286.2821,421.2804 342.4023,367.6416"/>
    <polyline points="339.9267,363.2308 283.3161,417.7556 400.7145,506.7194 406.7905,526.1089 441.8134,507.267 573.9024,497.0382"/>
    <polyline points="575.8911,502.9628 440.1599,516.4246 412.2643,530.6347 400.781,504.6157 280.9687,414.3043 337.3605,359.8182"/>
    <polyline points="334.7046,357.5226 279.2722,411.007 400.8258,501.3784 417.9551,534.5021 438.5975,525.6358 577.2147,509.4133"/>
    <polyline points="577.8546,516.3328 437.1253,534.6929 423.784,537.6899 400.8452,497.1216 278.2503,407.9422 331.9601,356.4337"/>
    <polyline points="329.1285,356.6101 277.9172,405.185 400.8351,491.9857 429.6702,540.1868 435.7423,543.3921 577.802,523.6581"/>
    <polyline points="577.0577,531.3203 434.4471,551.5392 435.5322,541.9908 400.7919,486.134 278.2774,402.8064 326.2111,358.0778"/>
    <polyline points="323.2096,360.8293 279.3259,400.8719 400.7119,479.7483 441.2885,543.1095 433.2385,558.9539 575.632,539.2458"/>
    <polyline points="573.5445,547.3575 432.1149,565.4751 446.8594,543.5601 400.5914,473.024 281.0483,399.4412 320.1257,364.8238"/>
    <polyline points="316.9615,369.9886 283.4206,398.5667 400.4269,466.1655 452.1677,543.3691 431.0746,570.9646 570.8244,555.5754"/>
    <polyline points="567.5093,563.8183 430.1156,575.311 457.1396,542.5717 400.2147,459.3805 286.41,398.2932 313.719,376.2207"/>
    <polyline points="310.4003,383.3893 289.9749,398.6572 399.9516,452.8748 461.7064,541.2117 429.2361,578.4323 563.6451,572.0046"/>
    <polyline points="559.2855,580.0534 428.4339,580.2784 465.8045,539.3406 399.6343,446.8471 294.0659,399.6863 307.008,391.3397"/>
    <polyline points="303.5446,399.8968 298.6264,401.399 399.2595,441.4837 469.3773,537.0171 427.7066,580.832 554.4909,587.8859"/>
    <polyline points="549.3278,595.426 427.0517,580.1093 472.3752,534.306 398.8241,436.9537 303.5931,403.8041 300.0125,408.8698"/>
    <polyline points="296.4148,418.0572 308.897,406.901 398.3252,433.4045 474.7565,531.2777 426.4668,578.1593 543.8678,602.6019"/>
    <polyline points="538.1866,609.3467 425.9492,575.0629 476.4883,528.0067 397.7598,430.9586 314.4647,410.6794 292.7541,427.2521"/>
    <polyline points="289.0336,436.2471 320.219,415.1197 397.1253,429.7094 477.5466,524.5712 425.4959,570.9307 532.363,615.5997"/>
    <polyline points="526.4778,621.3067 425.104,565.8999 477.9167,521.0515 396.4191,429.7198 326.08,420.1928 285.2564,444.8402"/>
    <polyline points="281.4257,452.8397 331.9665,425.8612 395.6385,431.02 477.5934,517.529 424.7705,560.1311 520.6125,626.4214"/>
    <polyline points="514.8485,630.9054 424.4922,553.8037 476.5812,514.0852 394.7814,433.6067 337.7968,432.0789 277.5448,460.0693"/>
    <polyline points="273.6171,466.3726 343.4901,438.7924 393.8454,437.4437 474.8943,510.8007 424.2658,547.1119 509.2657,634.7292"/>
    <polyline points="503.9416,637.8726 424.088,540.2591 472.5559,507.7536 392.8286,442.4622 348.9675,445.9412 269.6463,471.6171"/>
    <polyline points="265.6357,475.6976 354.1529,453.4589 391.7291,448.5628 469.5984,505.0188 423.9552,533.4529 498.9499,640.3246"/>
    <polyline points="494.3599,642.0839 423.864,526.8996 466.063,502.667 390.545,455.6184 261.5892,478.5392"/>
    <polyline points="257.5104,480.0988 363.3656,469.3106 389.2748,463.4771 461.9986,500.7634 423.8106,520.7992 490.2353,643.1587"/>
    <polyline points="486.6332,643.5669 423.7915,515.3398 457.4616,499.3672 387.9171,471.966 367.265,477.4902 253.4032,480.3666"/>
    <polyline points="249.2713,479.3661 370.6187,485.7318 386.4705,480.8963 452.5149,498.5303 423.8027,510.693 483.6035,643.3354"/>
    <polyline points="481.1884,642.5001 423.8407,507.0094 447.2271,498.2971 384.9341,490.0676 373.3803,493.954 245.1187,477.1537"/>
    <polyline points="240.9493,473.8169 375.5115,502.0754 383.3068,499.2732 441.6716,498.7034 423.9014,504.4146 479.4213,641.1054"/>
    <polyline points="478.3267,639.2032 423.9809,503.0063 435.9253,499.7764 381.5879,508.3056 376.9827,510.0159 236.767,469.4726"/>
    <polyline points="232.5759,464.2634 377.7735,517.6983 430.0679,501.5337 424.0753,502.8511 477.9197,636.8525"/>
    <polyline points="478.206,634.1187 424.1807,503.9837 377.8729,525.0486 228.3799,458.3546"/>
    <polyline points="146.5257,399.008 173.8115,368.7232 48.0,297.7035"/>
    <polyline points="48.0,301.8964 94.8541,325.6902 94.1277,345.1794"/>
    <polyline points="91.5392,339.987 90.6741,324.5565 48.0,308.2726"/>
    <polyline points="48.0,309.2233 177.1757,369.0715 154.2619,387.7359"/>
    <polyline points="150.3692,393.9089 175.8258,369.2102 48.0,303.4759"/>
    <polyline points="48.0,314.7578 177.8426,368.2762 158.2006,380.6179"/>
    <polyline points="162.1816,372.7085 177.8171,366.8027 48.0,319.8966"/>
    <polyline points="48.0,324.4673 177.0997,364.6388 166.2014,364.1817"/>
    <polyline points="170.2563,355.2276 175.7002,361.7818 48.0,328.3122"/>
    <polyline points="48.0,331.2928 173.6382,358.2386 174.3424,346.047"/>
    <polyline points="178.4561,336.8469 170.9421,354.0256 48.0,333.2935"/>
    <polyline points="48.0,334.2244 167.6494,349.1687 182.5935,327.8346"/>
    <polyline points="186.7506,319.2126 163.8057,343.7025 48.0,334.0237"/>
    <polyline points="48.0,332.6592 159.4644,337.6701 190.9236,311.1734"/>
    <polyline points="195.1084,303.8943 154.6855,331.1225 49.6911,330.1446"/>
    <polyline points="51.5251,326.3791 149.5355,324.1179 199.3011,297.533"/>
    <polyline points="203.4977,292.2235 144.0857,316.7205 53.4518,321.4272"/>
    <polyline points="55.4715,315.3865 138.4117,309.0005 207.6942,288.0727"/>
    <polyline points="211.8865,285.1573 132.5922,301.0321 57.5842,308.3827"/>
    <polyline points="59.7897,300.5664 126.7078,292.8931 216.0707,283.5222"/>
    <polyline points="220.2427,283.1793 120.8402,284.6638 62.0878,292.1092"/>
    <polyline points="64.4779,283.1992 115.0707,276.4256 224.3987,284.1069"/>
    <polyline points="228.5346,286.2507 109.4794,268.2601 66.9594,274.0364"/>
    <polyline points="69.5315,264.8271 104.1438,260.2477 232.6466,289.5247"/>
    <polyline points="236.7309,293.8139 99.1378,252.467 72.1933,255.7789"/>
    <polyline points="74.9434,247.0952 94.5309,244.9931 240.7835,298.9768"/>
    <polyline points="244.8009,304.8497 90.3869,237.897 77.7807,238.9702"/>
    <polyline points="80.7037,231.5833 86.7634,231.2445 248.7793,311.2502"/>
    <polygon points="252.715,317.9825 83.7106,225.0951"/>
    <polyline points="256.6047,324.8419 247.4392,321.5092 86.7998,219.6428"/>
    <polyline points="89.9692,215.3369 241.8927,325.0226 260.4448,331.6208"/>
    <polyline points="264.232,338.1134 236.1523,328.4413 93.2168,212.2582"/>
    <polyline points="96.5403,210.4559 230.2978,331.6852 267.963,344.1215"/>
    <polyline points="271.6348,349.4592 224.4103,334.6765 99.9373,209.9462"/>
    <polyline points="103.4053,210.7117 218.5713,337.3413 275.2442,353.9582"/>
    <polyline points="278.7884,357.4717 212.862,339.6097 106.9417,212.7021"/>
    <polyline points="110.5437,215.8356 207.3615,341.4178 282.2646,359.8784"/>
    <polyline points="285.67,361.0856 202.146,342.7077 114.2084,220.0008"/>
    <polyline points="117.9327,225.0594 197.2878,343.4288 289.0022,361.0317"/>
    <polyline points="292.2588,359.6875 192.8544,343.5386 121.7135,230.8503"/>
    <polyline points="125.5476,237.1933 188.9072,343.0028 295.4374,357.0575"/>
    <polyline points="298.5361,353.179 185.501,341.7961 129.4316,243.8939"/>
    <polyline points="133.3622,250.7486 182.683,339.9026 301.5527,348.122"/>
    <polyline points="304.4855,341.9867 180.4922,337.3159 137.3358,257.5496"/>
    <polyline points="141.3488,264.0907 178.959,334.0391 307.3329,334.9012"/>
    <polyline points="310.0933,327.0182 178.1048,330.0852 145.3975,270.1723"/>
    <polyline points="149.4783,275.6068 177.9413,325.476 312.7654,318.511"/>
    <polyline points="315.348,309.5692 178.4708,320.2431 153.5873,280.2232"/>
    <polyline points="157.7206,283.8717 179.686,314.4261 317.8401,300.3933"/>
    <polyline points="320.2409,291.1902 181.5701,308.0731 161.8744,286.4276"/>
    <polyline points="166.0448,287.7943 184.0968,301.2396 322.5498,282.1673"/>
    <polyline points="324.7661,273.5273 187.2312,293.9875 170.2278,287.906"/>
    <polyline points="174.4194,286.7294 190.9297,286.3849 326.8896,265.4632"/>
    <polyline points="328.9201,258.1529 195.1412,278.5043 178.6155,284.2645"/>
    <polyline points="182.8123,280.5445 199.8072,270.4225 330.8577,251.755"/>
    <polyline points="332.7025,246.4044 204.863,262.2189 187.0057,275.6351"/>
    <polyline points="191.1916,269.6327 210.2384,253.9744 334.455,242.209"/>
    <polyline points="336.1155,239.2467 215.8591,245.7708 195.3662,262.6621"/>
    <polyline points="199.5254,254.873 221.6469,237.6892 337.685,237.5636"/>
    <polyline points="339.1641,237.1729 227.5217,229.8089 203.6652,246.4364"/>
    <polyline points="207.7819,237.5397 233.4019,222.2065 340.554,238.0542"/>
    <polyline points="341.8559,240.1542 239.2061,214.9547 211.8715,228.3826"/>
    <polyline points="215.9302,219.1712 244.8538,208.1216 343.0711,243.3881"/>
    <polyline points="344.2013,247.642 250.2666,201.7691 219.9542,210.1134"/>
    <polyline points="223.94,201.4127 255.3695,195.9526 345.248,252.7753"/>
    <polyline points="346.2131,258.625 260.0917,190.7201 227.8837,193.2636"/>
    <polyline points="231.7821,185.8463 264.3677,186.1116 347.0987,265.0094"/>
    <polyline points="349.3002,285.3769 273.9616,176.2959 243.17,169.4791"/>
    <polyline points="323.647,147.558 301.8198,151.5595 352.5596,212.401"/>
    <polyline points="351.6755,212.4128 365.965,223.3002 308.2553,238.3826"/>
    <polyline points="306.3936,240.8001 369.5146,231.5295 351.7765,219.754"/>
    <polyline points="352.9192,218.7689 296.9872,149.3962 324.3935,140.1105"/>
    <polyline points="325.6697,128.0171 288.6697,147.1286 353.8208,232.3406"/>
    <line x1="385.102" x2="303.5099" y1="117.7875" y2="57.5663"/>
    <polyline points="344.7864,372.9062 289.8254,424.7971 400.5323,507.2179 396.7938,515.2108 445.3964,489.9308 568.0481,486.9564"/>
    <polyline points="564.2639,482.8737 447.3268,482.1394 392.4094,508.9242 400.4245,505.5389 293.8969,428.2244 347.0784,378.858"/>
    <polyline points="349.2778,385.3128 298.4402,431.4819 400.3109,502.5806 388.5174,502.1496 449.3502,475.166 559.9756,479.4647"/>
    <polyline points="555.2428,476.744 451.4665,469.1604 385.1718,494.948 400.1955,498.3889 303.3923,434.492 351.3844,392.0731"/>
    <polyline points="353.3981,398.9339 308.6844,437.18 400.0823,493.0418 382.4189,487.3867 453.6756,464.2474 550.1311,474.7167"/>
    <polyline points="544.7113,473.3781 455.9773,460.5235 380.2969,479.5379 399.9754,486.647 314.2432,439.4761 355.3187,405.6872"/>
    <polyline points="357.1467,412.128 319.9917,441.3158 399.8787,479.3393 378.8353,471.4778 458.3711,458.0546 539.0586,472.7142"/>
    <polyline points="533.2515,472.7015 460.8562,456.874 378.0543,463.2854 399.7961,471.2773 325.85,442.6409 358.8824,418.0594"/>
    <polyline points="360.5263,423.2976 331.7371,443.4002 399.7317,462.6388 377.9648,455.0416 463.4318,456.9817 527.3703,473.3075"/>
    <polyline points="521.4967,474.4912 466.097,458.3445 378.568,446.8281 399.6893,453.6168 337.5711,443.5507 362.0792,427.6767"/>
    <polyline points="363.5421,431.0531 343.2713,443.0575 399.6729,444.4139 379.8554,438.7261 468.8507,460.8968 515.7122,476.2033"/>
    <polyline points="510.0969,478.3875 471.6914,464.5421 381.8094,430.8154 399.6862,435.2376 348.7585,441.8949 364.9159,433.3091"/>
    <polyline points="366.2019,434.3557 353.9568,440.0462 399.7331,426.2947 384.4027,423.1728 474.6176,469.1557 504.7287,480.9809"/>
    <polyline points="499.6821,483.9147 477.6278,474.5879 387.5994,415.8717 399.8172,417.7859 358.7939,437.5044 367.4015,434.1356"/>
    <polyline points="368.5163,432.624 363.2029,434.272 399.9421,409.9007 391.3553,408.9807 480.7202,480.6677 495.027,487.1157"/>
    <polyline points="490.828,490.5068 483.8927,487.2077 395.6181,402.5627 400.1115,402.8124 367.1226,430.3613 369.548,429.8295"/>
    <polyline points="371.3699,420.5908 405.4221,391.3634 400.5974,391.6133"/>
    <polyline points="400.9206,387.7311 410.8273,386.6721 372.1642,414.3247"/>
    <polyline points="372.8838,407.1268 416.4696,382.6324 401.3016,385.097"/>
    <polyline points="401.7435,383.7488 422.2705,379.2676 373.5312,399.1528"/>
    <polyline points="374.1089,390.5784 428.1498,376.5918 402.2493,383.6909"/>
    <polyline points="402.8217,384.8942 434.0258,374.6093 374.6197,381.5947"/>
    <polyline points="375.563,381.5352 425.6988,412.9156 447.0496,407.9601"/>
    <polyline points="444.2246,416.9715 431.5861,415.1866 375.5554,377.1214"/>
    <polyline points="377.1094,374.8076 386.1985,371.6727 472.5853,345.7845"/>
    <polyline points="476.1121,341.8571 383.2479,364.2209 377.54,368.5787"/>
    <polyline points="375.5768,371.8544 437.4225,416.7661 441.487,425.5919"/>
    <polyline points="449.9604,398.7602 419.8423,409.952 375.6035,384.9511"/>
    <polyline points="376.4261,383.9596 393.7862,385.3645 465.7405,357.0634"/>
    <polyline points="469.1272,350.8871 389.7275,378.7424 376.7392,379.9689"/>
    <polyline points="376.1671,386.7071 398.3181,391.4799 462.4277,364.1841"/>
    <polyline points="459.1911,372.0957 403.2605,397.0365 375.9588,388.1707"/>
    <polyline points="375.7977,388.3432 408.5448,401.9899 456.033,380.6241"/>
    <polyline points="452.9555,389.5793 414.0977,406.3041 375.6805,387.2504"/>
    <polyline points="375.0664,372.4036 439.8171,373.3149 403.4636,387.2973"/>
    <polyline points="400.3288,396.6739 370.4986,425.7938 400.3288,396.6739 487.1434,494.0082"/>
    <line x1="424.1807" x2="424.1807" y1="503.9837" y2="503.9837"/>
    <line x1="377.8729" x2="377.8729" y1="525.0486" y2="525.0486"/>
    <polyline points="355.8786,707.4807 468.4293,755.4794 481.1961,816.0"/>
    <polyline points="481.1961,816.0 468.4293,755.4794 355.8786,707.4807 185.5726,718.8224 102.7303,580.031 71.912,536.9079"/>
    <polyline points="78.2636,536.2125 111.4034,522.4206 151.7211,521.6671 275.627,551.7396 319.333,658.2931 341.3044,694.6318 441.445,706.8556 379.3298,692.8602 472.3842,695.1701 517.7135,726.8772 548.6377,816.0"/>
    <polyline points="548.3069,816.0 523.5383,725.3433 472.2354,695.9197 378.2794,701.0102 440.3758,715.1303 335.5485,694.8972 315.3365,652.5731 277.0547,550.4617 148.8369,522.8712 117.0658,530.6208 78.2337,544.2624"/>
    <polyline points="79.3641,544.412 177.4279,616.7993 117.9357,623.8639 233.2678,599.368 257.216,598.1739 278.0556,658.2698 416.0704,720.3263 425.8336,789.9665 472.9336,794.977 577.9151,770.1711 516.9058,770.8296 595.4412,816.0"/>
    <polyline points="597.3765,816.0 518.794,768.9547 577.516,763.1026 472.8297,787.2993 419.9754,787.0187 418.4043,726.5552 278.8385,661.2357 261.3822,595.8474 239.0747,592.1075 119.5441,616.464 176.2645,614.1836 79.3078,550.8056"/>
    <polyline points="78.2356,551.5548 122.8786,538.8651 146.039,525.3633 277.8009,549.7536 311.3027,646.2807 329.6867,694.53 439.2227,722.708 377.9172,709.2435 472.1295,697.9613 529.4238,724.3559 547.397,816.0"/>
    <polyline points="546.6207,816.0 545.6336,815.6033 535.2884,723.9613 472.0627,701.2727 378.2484,717.4786 437.984,729.4233 323.8004,693.5681 307.2352,639.6091 277.8554,549.6577 143.3288,529.1094 128.7613,547.0721 78.2653,557.9317"/>
    <polyline points="79.2318,556.6686 174.4306,610.8782 121.2441,608.3287 244.7268,585.264 265.5622,594.8108 280.302,664.4607 420.6459,732.1877 414.2274,783.3863 472.7183,778.9473 576.4292,756.4819 520.7751,768.3724 598.5563,816.0"/>
    <polyline points="598.9151,816.0 522.8492,769.0671 574.6696,750.368 472.6032,770.1067 408.6692,779.0871 422.7947,737.0477 282.4257,667.8674 269.7518,595.0606 250.1459,578.8998 123.0361,599.6377 171.9518,606.8963 79.1401,561.819"/>
    <polyline points="78.319,563.2588 134.6324,555.1606 140.7077,534.0432 277.2174,550.2081 303.1379,632.7611 317.9712,692.0575 436.6583,735.1329 379.2684,725.6341 472.0316,705.7987 541.0507,724.1978 542.746,808.7938 559.155,816.0"/>
    <polyline points="569.5589,816.0 539.9447,801.9423 546.631,725.0946 472.0322,711.4527 380.963,733.6294 435.2442,739.7198 312.2799,690.0518 299.0145,625.9442 275.8958,551.4298 138.1766,540.0676 140.4103,563.0512 78.3929,567.4287"/>
    <polyline points="79.0367,566.0931 168.8623,602.2604 124.9207,590.5854 255.2566,573.0705 273.9471,596.5598 285.1803,671.3758 424.8505,740.9792 403.3779,774.1479 472.4885,760.9753 572.2618,744.813 525.0163,770.9904 598.3657,816.0"/>
    <polyline points="596.8068,816.0 527.276,774.0623 569.239,739.8613 472.3782,751.7589 398.4269,768.6047 426.8134,743.85 288.5276,674.9046 278.1441,599.2391 259.9883,567.8242 126.8982,581.3752 165.205,597.0021 78.9255,569.35"/>
    <polyline points="78.4829,570.3641 146.0149,570.6669 135.7365,547.0572 273.9088,553.3385 294.869,619.3652 306.8055,687.6114 433.7406,743.0959 383.3087,741.3864 472.0609,718.119 551.9517,726.6722 537.231,795.2564 578.0748,816.0"/>
    <polyline points="584.8999,816.0 534.6064,788.9395 556.9392,728.9412 472.1138,725.6558 386.273,748.8302 432.1464,745.2044 301.6238,684.8029 290.7052,613.2246 271.2841,555.9405 133.3881,554.8619 151.3686,577.9351 78.5852,572.0197"/>
    <polyline points="78.6957,572.383 156.3971,584.7874 131.132,563.3104 268.058,559.2323 286.5272,607.7115 296.8067,681.698 430.4609,746.0211 389.8147,755.8903 472.1869,733.8988 561.5242,731.9029 532.0717,783.1852 590.2012,816.0"/>
    <polyline points="594.1259,816.0 529.628,778.1728 565.6431,735.5489 472.2764,742.6652 393.8849,762.5015 428.6834,745.5555 292.421,678.3723 282.3388,602.9989 264.2752,563.201 128.9686,572.2147 161.0306,591.1617 78.8105,571.4751"/>
    <polyline points="79.3968,537.6834 177.9048,618.7218 116.4179,630.3675 253.0673,601.7607 277.9641,655.6368 413.6447,713.6925 431.7206,792.2216 473.0258,801.8125 577.6208,777.622 515.1101,773.979 592.7786,816.0"/>
    <polyline points="589.3499,816.0 513.4065,778.3519 576.6373,785.3845 473.1024,807.6596 437.5549,793.7853 411.1278,706.8557 278.5653,653.4058 248.9402,606.5455 221.5131,614.8634 114.9898,635.8372 177.6884,619.957 79.4021,530.8244"/>
    <polyline points="78.3288,527.5828 105.97,514.3458 154.6901,521.7516 273.5378,553.5369 323.2886,663.2624 346.8747,693.7048 442.4322,698.0672 381.0541,684.8739 472.5793,695.7014 512.0303,728.9037 548.5997,816.0"/>
    <polyline points="548.3942,816.0 506.5673,731.362 472.8242,697.4695 383.4281,677.1293 443.3392,688.962 352.1821,692.0966 327.1996,667.3221 270.8159,555.7958 100.841,506.4756 78.4332,518.5659"/>
    <polyline points="79.3153,517.5439 175.1978,620.4371 112.3981,643.2605 210.1123,631.1542 240.7661,619.3077 281.803,650.3981 405.8245,693.4018 448.7435,794.8922 473.1933,815.9343 572.6664,801.5417 510.2732,790.4084 579.2087,816.0"/>
    <polyline points="570.7935,816.0 508.8416,797.8413 569.7341,809.7776 498.4915,816.0"/>
    <polyline points="471.4067,816.0 453.9427,794.4853 403.0403,687.1934 284.3946,649.7285 236.7268,627.0161 204.7433,639.3986 111.2316,645.0832 172.9581,619.7407 79.2158,511.5266"/>
    <polyline points="78.5802,509.3645 96.0874,498.8865 160.8754,525.6237 267.4992,558.4526 331.0626,670.3368 357.153,689.7966 444.1682,679.7449 386.4192,669.7011 473.1222,700.3982 501.4004,734.1853 548.2213,816.0"/>
    <polyline points="548.2883,816.0 496.6012,737.3017 473.4766,704.3814 389.9856,662.6597 444.9214,670.6236 361.7185,686.8041 334.8743,672.1981 263.6336,561.4375 164.0878,529.2502 91.7752,491.651 78.7734,500.1859"/>
    <polyline points="78.8864,501.6634 166.6445,616.6862 109.1494,644.8679 195.0395,655.6784 228.7619,644.2478 291.344,650.2667 397.2137,676.7636 463.1912,791.942 472.0507,816.0"/>
    <polyline points="512.5368,816.0 506.243,814.7122 517.6229,816.0"/>
    <polyline points="472.7286,816.0 467.1123,789.9062 394.1746,672.8726 295.6055,651.5325 224.8436,653.3866 190.8391,663.5534 108.2299,642.8963 162.6582,614.4358 78.6495,498.1333"/>
    <polyline points="76.6127,498.4486 136.8214,598.6482 104.7612,618.4682 178.451,697.3607 206.0309,696.158 322.2541,668.1455 377.7992,671.0057 477.7542,774.6771 471.8267,794.3651 488.7852,816.0"/>
    <polyline points="488.0427,816.0 472.1698,800.5273 476.9347,778.1512 381.2242,668.8453 316.4535,663.4808 209.6788,688.6533 179.6506,691.5566 105.3126,624.8039 142.5434,602.1593 77.1441,495.8387"/>
    <polyline points="78.3601,495.7082 158.1902,611.7863 107.3888,639.78 187.1529,671.1489 220.9728,662.6021 300.3151,653.486 391.054,670.0471 470.4899,787.4399 472.8777,814.6183 476.9249,816.0"/>
    <polyline points="482.7607,816.0 472.6919,810.8173 473.2771,784.61 387.8539,668.3906 305.4074,656.1328 217.1529,671.6866 184.032,678.3921 106.6238,635.6302 153.3024,608.8071 78.0148,494.4815"/>
    <polyline points="77.6105,494.5151 148.0626,605.5723 105.9326,630.5846 181.5196,685.2153 213.3872,680.4355 310.8119,659.469 384.5766,667.9762 475.4354,781.4885 472.4571,806.0693 486.1789,816.0"/>
    <polyline points="488.6782,816.0 471.4248,787.7725 477.8827,771.1471 374.3043,674.4321 328.1333,673.4308 202.4465,702.7859 177.9373,702.5798 104.2757,611.7717 130.9759,595.1204 76.0136,502.3077"/>
    <polyline points="79.074,506.1769 170.0937,618.4737 110.1493,645.6134 199.6957,647.6004 232.7241,635.3915 287.5897,649.6735 400.1695,681.5889 458.7809,793.4864 471.3872,816.0"/>
    <polyline points="556.3917,816.0 507.4986,806.0028 555.9662,816.0"/>
    <polyline points="584.9827,816.0 511.7945,783.8657 574.9781,793.3838 473.1596,812.3976 443.2556,794.6687 408.5208,700.0231 279.8509,651.6406 244.8386,612.4351 215.7282,622.9487 113.6503,640.162 176.7819,620.5204 79.3762,524.0426"/>
    <polyline points="73.7833,520.5376 113.511,585.2467 103.1845,591.5676 180.5351,714.374 192.1022,716.1355 345.428,692.5657 363.4272,691.5722 474.1516,761.035 469.8358,767.4453 485.0528,816.0"/>
    <polyline points="486.6664,816.0 470.4322,774.1055 476.0688,764.2455 367.1154,684.8191 339.8011,685.6933 195.4794,712.8746 178.9866,711.1129 103.4904,598.1144 119.2393,588.34 74.6014,513.466"/>
    <polyline points="75.344,507.3468 125.088,591.6574 103.8531,604.9178 178.1167,707.1742 198.9284,708.3964 334.0094,679.2963 370.7421,679.0663 477.3182,767.6428 470.9609,780.9504 487.9193,816.0"/>
    <polyline points="483.1951,816.0 469.169,761.1724 471.5933,758.0885 359.6805,699.1815 350.812,699.8509 188.7991,718.1251 182.7406,716.9448 102.9323,585.4772 107.9824,582.4533 72.8876,528.4092"/>
    <polyline points="79.0163,491.237 87.9642,484.8367 167.3771,533.8475 259.2727,564.6767 338.6312,672.8274 365.8153,683.1279 445.6013,661.8036 394.0781,656.07 473.8905,709.2855 492.2362,740.6354 548.8207,816.0"/>
    <polyline points="550.0769,816.0 488.3661,744.1076 474.3668,714.9535 398.6398,649.9908 446.2103,653.4822 369.3865,678.7863 342.3303,672.178 254.4769,568.0923 170.7411,539.2663 84.7072,478.5056 79.3122,482.7185"/>
    <polyline points="79.6643,474.8204 82.0494,472.7127 174.1772,545.336 249.3129,571.6046 345.9684,670.2362 372.3827,673.8068 446.7512,645.8443 403.6075,644.4736 474.9087,721.2082 485.0444,747.6372 552.3717,816.0"/>
    <line x1="753.7818" x2="734.2634" y1="810.5202" y2="816.0"/>
    <polyline points="556.1149,816.0 482.3172,751.1428 475.5187,727.8576 408.9123,639.5624 447.2266,639.0567 374.7623,668.2259 349.5426,667.0218 243.8522,575.1319 177.6829,551.8694 80.0277,467.5056 80.0757,467.7162"/>
    <polyline points="80.5496,461.5593 78.67,462.9239 181.2554,558.667 238.1705,578.5928 353.05,662.5873 376.4922,662.0882 447.6396,633.2644 414.4806,635.2924 476.1996,734.6993 480.2223,754.5431 561.8791,816.0"/>
    <line x1="713.5622" x2="757.07" y1="816.0" y2="805.1075"/>
    <line x1="760.2812" x2="688.3389" y1="800.8447" y2="816.0"/>
    <polyline points="570.5261,816.0 478.7889,757.7581 476.9539,741.526 420.2353,631.6903 447.9932,628.5869 377.5486,655.4461 356.4878,657.0171 232.3466,581.9066 184.892,565.5226 77.9953,458.9985 81.0888,456.4781"/>
    <polyline points="81.6961,452.5738 78.0128,455.751 188.5896,572.2287 226.4613,584.9946 359.8536,650.4245 377.9167,648.3591 448.2904,625.1144 426.0965,628.7733 477.784,748.1308 478.0367,760.7107 583.4619,816.0"/>
    <line x1="652.2799" x2="763.4133" y1="816.0" y2="797.8114"/>
    <polyline points="823.9491,741.066 948.7271,748.4141 942.1647,792.4141"/>
    <polyline points="946.1069,798.2632 953.9273,747.358 824.9112,732.9162"/>
    <polyline points="825.9548,725.4981 958.7668,746.9679 950.0911,804.647"/>
    <polyline points="954.1137,811.3703 963.1784,747.2165 827.0817,718.9729"/>
    <polyline points="828.2937,713.4788 967.1011,748.0679 958.4548,816.0"/>
    <polyline points="963.2407,816.0 970.4805,749.4774 829.5923,709.1275"/>
    <polyline points="830.9788,706.0009 973.2696,751.3928 967.7108,816.0"/>
    <polyline points="971.7786,816.0 975.4298,753.7549 832.4546,704.1494"/>
    <polyline points="834.0205,703.5904 976.9311,756.4983 975.3763,816.0"/>
    <polyline points="978.4554,816.0 977.7527,759.5522 835.6776,704.308"/>
    <polyline points="837.4266,706.253 977.8833,762.8417 980.988,816.0"/>
    <polyline points="982.9696,816.0 977.321,766.2884 839.2679,709.3448"/>
    <polyline points="841.2019,713.4729 976.0736,769.8118 984.424,816.0"/>
    <polyline points="985.4113,816.0 974.1585,773.3304 843.2289,718.5003"/>
    <polyline points="845.3489,724.2664 971.602,776.7628 986.0423,816.0"/>
    <polyline points="986.5036,816.0 968.4398,780.0287 847.5617,730.5918"/>
    <polyline points="849.867,737.2825 964.7157,783.05 987.1035,816.0"/>
    <polyline points="988.3656,816.0 960.4813,785.7523 852.2644,744.1351"/>
    <polyline points="854.753,750.9419 955.7953,788.0654 991.2279,816.0"/>
    <polyline points="997.5251,816.0 950.7227,789.9244 857.3322,757.4967"/>
    <polyline points="860.001,763.5994 945.3339,791.2711 1011.3507,816.0"/>
    <polyline points="1028.6954,812.4933 939.7036,792.0539 862.758,769.0618"/>
    <polyline points="865.6021,773.7123 933.9098,792.2294 1032.7099,803.5644"/>
    <polyline points="1036.685,794.3937 928.0329,791.7625 868.5317,777.4002"/>
    <polyline points="871.5452,779.9998 922.1544,790.627 1040.6173,785.1878"/>
    <polyline points="232.6532,816.0 266.8,811.8673 257.7387,816.0"/>
    <polyline points="256.8671,816.0 270.2256,808.3376 160.7308,816.0"/>
    <line x1="149.2663" x2="147.8663" y1="815.2457" y2="816.0"/>
    <line x1="139.3471" x2="148.7046" y1="816.0" y2="811.2438"/>
    <line x1="148.0737" x2="131.8136" y1="808.2939" y2="816.0"/>
    <line x1="125.5774" x2="147.3713" y1="816.0" y2="806.503"/>
    <line x1="146.5947" x2="121.073" y1="805.9477" y2="816.0"/>
    <line x1="118.9621" x2="145.7416" y1="816.0" y2="806.6728"/>
    <line x1="144.8099" x2="120.3671" y1="808.69" y2="816.0"/>
    <line x1="127.4585" x2="143.7974" y1="816.0" y2="811.9777"/>
    <polyline points="349.8321,816.0 337.929,809.2184 327.9081,809.5845 291.0488,816.0"/>
    <polyline points="342.5967,816.0 343.6182,815.9425 343.7325,816.0"/>
    <polyline points="369.5509,816.0 340.4593,792.9765 320.3523,792.22 206.2247,816.0"/>
    <polyline points="233.4629,816.0 326.2148,797.3072 336.286,797.4148 362.4652,816.0"/>
    <line x1="166.4163" x2="161.0807" y1="816.0" y2="812.7973"/>
    <line x1="159.8832" x2="176.0606" y1="806.1868" y2="816.0"/>
    <polyline points="374.6736,816.0 344.6169,789.7579 314.5947,787.7649 184.8508,814.1653"/>
    <polyline points="187.3241,806.5299 309.0219,783.9711 348.7548,787.8118 378.2693,816.0"/>
    <line x1="186.1497" x2="158.7704" y1="816.0" y2="799.3579"/>
    <line x1="157.7407" x2="196.6088" y1="792.5179" y2="816.0"/>
    <polyline points="380.6637,816.0 352.8691,787.1581 303.711,780.8584 189.8881,798.2106"/>
    <polyline points="192.5418,789.3918 298.7359,778.4374 356.956,787.7831 382.1155,816.0"/>
    <line x1="207.3618" x2="156.7922" y1="816.0" y2="785.8739"/>
    <line x1="155.9228" x2="218.334" y1="779.6281" y2="816.0"/>
    <polyline points="382.8416,816.0 361.0117,789.6404 294.1653,776.7089 195.284,780.2712"/>
    <polyline points="198.1135,771.0541 290.0629,775.6643 365.0324,792.6514 383.0345,816.0"/>
    <line x1="251.923" x2="153.767" y1="816.0" y2="765.1186"/>
    <polyline points="151.255,766.1275 276.201,802.5599 269.6333,816.0"/>
    <polyline points="269.6525,816.0 274.3396,804.1823 151.5264,762.7935"/>
    <polyline points="153.191,762.2101 260.8454,814.8509 260.7798,816.0"/>
    <polyline points="264.4249,816.0 265.0402,811.6917 152.6818,760.4638"/>
    <polyline points="152.2366,759.9554 268.7202,808.8129 267.0939,816.0"/>
    <polyline points="268.823,816.0 271.8344,806.2872 151.8525,760.7285"/>
    <line x1="154.4126" x2="240.6679" y1="769.0837" y2="816.0"/>
    <polyline points="268.8331,816.0 277.3929,801.4753 151.0351,770.6748"/>
    <line x1="155.1304" x2="229.4561" y1="773.9725" y2="816.0"/>
    <polyline points="267.3448,816.0 277.8987,800.9762 150.8632,776.3482"/>
    <polyline points="150.736,783.0317 277.7114,801.1022 265.298,816.0"/>
    <polyline points="262.8765,816.0 276.8336,801.8842 150.6499,790.5829"/>
    <polyline points="150.6012,798.837 275.2775,803.3441 260.349,816.0"/>
    <polyline points="258.1251,816.0 273.0646,805.4942 150.5862,807.6111"/>
    <polyline points="473.3032,816.0 400.2164,773.7935 451.279,779.5783 370.4277,802.8966 303.0261,792.01"/>
    <polyline points="298.8292,791.5914 367.0387,807.4494 449.333,788.3287 395.5152,779.695 477.706,816.0"/>
    <polyline points="483.7233,816.0 391.2634,786.1245 447.2941,797.4139 363.1072,811.3448 294.6333,789.9308"/>
    <polyline points="290.4424,787.1015 358.6877,814.5614 445.1622,806.6295 387.5198,793.0257 491.9059,816.0"/>
    <polyline points="497.0925,816.0 496.9283,815.113 384.3364,800.3353 442.9375,815.7677 427.2559,816.0"/>
    <line x1="351.6726" x2="286.2604" y1="816.0" y2="783.2072"/>
    <line x1="282.0913" x2="343.8425" y1="778.379" y2="816.0"/>
    <polyline points="410.1139,816.0 381.7574,807.9849 497.0338,814.3716 497.5516,816.0"/>
    <polyline points="497.6638,816.0 497.1285,814.9061 379.8184,815.9009 380.1568,816.0"/>
    <line x1="337.5354" x2="277.9392" y1="816.0" y2="772.7722"/>
    <line x1="273.8079" x2="332.0809" y1="766.5621" y2="816.0"/>
    <line x1="327.1161" x2="269.7013" y1="816.0" y2="759.9398"/>
    <line x1="265.6233" x2="322.4552" y1="753.1068" y2="816.0"/>
    <line x1="318.0208" x2="261.5776" y1="816.0" y2="746.2704"/>
    <line x1="257.568" x2="313.8046" y1="739.6376" y2="816.0"/>
    <polyline points="312.8324,816.0 308.56,814.1137 253.5981,733.4104"/>
    <polyline points="249.6716,727.7802 303.2748,811.4175 313.127,816.0"/>
    <polyline points="314.1174,816.0 298.3314,808.401 245.7919,722.923"/>
    <polyline points="241.9625,718.9949 293.7982,805.1386 315.9314,816.0"/>
    <polyline points="318.6856,816.0 289.7382,801.7084 238.1867,716.1278"/>
    <polyline points="234.4676,714.4263 286.2076,798.1906 322.489,816.0"/>
    <polyline points="327.4449,816.0 283.2553,794.6665 230.8085,713.9649"/>
    <polyline points="227.2123,714.786 280.9224,791.2179 333.6532,816.0"/>
    <polyline points="341.2139,816.0 279.2412,787.9251 223.682,716.8987"/>
    <polyline points="220.2202,720.2789 278.235,784.8665 350.2305,816.0"/>
    <polyline points="360.8156,816.0 277.9177,782.1172 216.8297,724.8698"/>
    <polyline points="213.513,730.583 278.2937,779.748 373.0992,816.0"/>
    <polyline points="382.0148,816.0 380.6928,813.683 279.3579,777.8244 210.2723,737.3014"/>
    <polyline points="207.1101,744.8817 281.0955,776.4059 376.8481,807.3922 382.1831,816.0"/>
    <polyline points="382.5305,816.0 372.9541,801.6744 283.4823,775.5446 204.0282,753.1585"/>
    <polyline points="201.0288,761.9482 286.4853,775.2854 369.0144,796.7079 382.8729,816.0"/>
    <polyline points="466.8894,816.0 422.1365,756.3281 458.1393,751.606 377.7445,778.8473 319.7432,780.9365"/>
    <polyline points="315.5825,785.5669 376.9112,785.6412 456.5617,757.22 416.3383,759.7085 467.1586,816.0"/>
    <polyline points="468.2179,816.0 410.7006,763.7634 454.8929,763.8512 375.3984,791.9493 311.4068,788.9891"/>
    <polyline points="307.22,791.1452 373.2272,797.7169 453.1322,771.3585 405.3017,768.4693 470.2106,816.0"/>
    <polyline points="467.2807,816.0 428.0149,753.6364 459.6266,747.1237 377.8869,771.6293 323.885,775.1872"/>
    <polyline points="328.0039,768.4373 377.3364,764.0546 461.0245,743.8587 433.8919,751.638 468.2128,816.0"/>
    <polyline points="469.5728,816.0 439.6861,750.3281 462.3343,741.8648 376.1005,756.1954 332.0961,760.8306"/>
    <polyline points="336.1577,752.5334 374.1965,748.1281 463.5573,741.1632 445.317,749.692 471.2542,816.0"/>
    <polyline points="473.1566,816.0 450.7067,749.7059 464.695,741.7414 371.6508,739.9319 340.1851,743.7297"/>
    <polyline points="344.1744,734.6167 368.4986,731.6877 465.7492,743.5542 455.7804,750.3369 475.1857,816.0"/>
    <polyline points="477.2539,816.0 460.4676,751.5437 466.7216,746.5241 364.7836,723.4773 348.1221,725.3994"/>
    <polyline points="352.0247,716.2857 360.5574,715.3817 467.6142,750.544 464.7035,753.2768 479.2812,816.0"/>
    <line x1="332.1009" x2="261.5507" y1="802.9887" y2="816.0"/>
    <polyline points="261.5507,816.0 332.1009,802.9887 352.7987,816.0"/>
    <line x1="352.7987" x2="332.1009" y1="816.0" y2="802.9887"/>
    <line x1="185.5726" x2="185.5726" y1="718.8224" y2="718.8224"/>
    <polyline points="135.3244,407.001 164.1055,363.9415 48.0,282.0823"/>
    <polyline points="48.0,284.6508 109.8821,332.0611 102.4247,364.2322"/>
    <polyline points="99.5717,357.4916 104.5251,329.5016 48.0,289.9277"/>
    <polyline points="48.0,286.8295 167.9105,366.0375 139.0001,405.6089"/>
    <polyline points="142.735,402.9316 171.1608,367.6497 48.0,292.0939"/>
    <polyline points="48.0,295.7297 99.4925,327.3572 96.8056,351.0752"/>
    <polyline points="89.0411,335.6627 87.0106,324.0043 48.0,314.7217"/>
    <polyline points="48.0,321.1385 83.9143,324.0742 86.6343,332.3487"/>
    <polyline points="84.3195,330.1613 81.4283,324.7977 48.0,327.4572"/>
    <polyline points="48.0,333.6517 79.5869,326.1975 82.0971,329.1873"/>
    <polyline points="79.9675,329.4825 78.4156,328.2869 48.0,339.7227"/>
    <line x1="48.0" x2="77.9309" y1="345.6749" y2="331.0696"/>
    <polyline points="105.3631,371.0924 115.4892,334.9673 48.0,280.0523"/>
    <polyline points="48.0,278.0084 159.7987,361.4235 131.7108,407.1025"/>
    <polyline points="128.1623,405.9412 155.0498,358.5511 48.0,274.7437"/>
    <polyline points="48.0,276.2685 121.2686,338.1475 108.3851,377.8643"/>
    <polyline points="111.489,384.3424 127.1402,341.5247 48.0,273.4114"/>
    <polyline points="48.0,272.3996 149.9247,355.3968 124.6816,403.5776"/>
    <polyline points="121.2714,400.1032 144.4944,352.0369 48.0,271.059"/>
    <polyline points="48.0,271.5633 133.0226,345.0196 114.6728,390.3288"/>
    <polyline points="117.9344,395.6383 138.8342,348.5509 48.0,270.774"/>
  </g>
</svg>
