<?xml version="1.0" encoding="utf-8" ?>
<svg xmlns="http://www.w3.org/2000/svg" xmlns:cc="http://creativecommons.org/ns#" xmlns:dc="http://purl.org/dc/elements/1.1/" xmlns:ev="http://www.w3.org/2001/xml-events" xmlns:inkscape="http://www.inkscape.org/namespaces/inkscape" xmlns:rdf="http://www.w3.org/1999/02/22-rdf-syntax-ns#" xmlns:sodipodi="http://sodipodi.sourceforge.net/DTD/sodipodi-0.dtd" xmlns:xlink="http://www.w3.org/1999/xlink" baseProfile="tiny" height="22.86cm" version="1.2" viewBox="0 0 1152.0 864.0" width="30.48cm">
  <metadata>
    <rdf:RDF>
      <cc:Work>
        <dc:format>image/svg+xml</dc:format>
        <dc:source/>
        <dc:date>2021-10-05T20:11:14.165958</dc:date>
      </cc:Work>
    </rdf:RDF>
  </metadata>
  <defs/>
  <g fill="none" id="layer1.0" inkscape:groupmode="layer" inkscape:label="1" stroke="#00f" style="display:inline">
    <line x1="576.0" x2="556.0" y1="287.6624" y2="276.1154"/>
    <line x1="558.2222" x2="578.2222" y1="274.8324" y2="286.3794"/>
    <line x1="580.4444" x2="560.4444" y1="285.0964" y2="273.5494"/>
    <line x1="562.6667" x2="582.6667" y1="272.2664" y2="283.8134"/>
    <line x1="584.8889" x2="564.8889" y1="282.5304" y2="270.9834"/>
    <line x1="567.1111" x2="587.1111" y1="269.7004" y2="281.2474"/>
    <line x1="589.3333" x2="569.3333" y1="279.9644" y2="268.4174"/>
    <line x1="571.5556" x2="591.5556" y1="267.1344" y2="278.6814"/>
    <line x1="593.7778" x2="573.7778" y1="277.3984" y2="265.8514"/>
    <line x1="576.0" x2="596.0" y1="264.5684" y2="276.1154"/>
    <line x1="596.0" x2="616.0" y1="322.3034" y2="333.8505"/>
    <line x1="613.7778" x2="593.7778" y1="335.1335" y2="323.5864"/>
    <line x1="591.5556" x2="611.5556" y1="324.8695" y2="336.4165"/>
    <line x1="609.3333" x2="589.3333" y1="337.6995" y2="326.1525"/>
    <line x1="587.1111" x2="607.1111" y1="327.4355" y2="338.9825"/>
    <line x1="604.8889" x2="584.8889" y1="340.2655" y2="328.7185"/>
    <line x1="582.6667" x2="602.6667" y1="330.0015" y2="341.5485"/>
    <line x1="600.4444" x2="580.4444" y1="342.8315" y2="331.2845"/>
    <line x1="578.2222" x2="598.2222" y1="332.5675" y2="344.1145"/>
    <line x1="596.0" x2="576.0" y1="345.3975" y2="333.8505"/>
    <polyline points="576.0,356.9445 636.0,391.5855 616.0,380.0385"/>
    <line x1="613.7778" x2="573.7778" y1="381.3215" y2="358.2275"/>
    <line x1="571.5556" x2="611.5556" y1="359.5105" y2="382.6045"/>
    <line x1="609.3333" x2="569.3333" y1="383.8875" y2="360.7935"/>
    <line x1="567.1111" x2="607.1111" y1="362.0765" y2="385.1705"/>
    <line x1="604.8889" x2="564.8889" y1="386.4535" y2="363.3595"/>
    <line x1="562.6667" x2="602.6667" y1="364.6425" y2="387.7365"/>
    <line x1="600.4444" x2="560.4444" y1="389.0195" y2="365.9255"/>
    <line x1="558.2222" x2="598.2222" y1="367.2085" y2="390.3025"/>
    <line x1="593.7778" x2="573.7778" y1="392.8685" y2="381.3215"/>
    <polyline points="576.0,380.0385 596.0,391.5855 556.0,368.4915"/>
    <line x1="567.1111" x2="587.1111" y1="385.1705" y2="396.7175"/>
    <line x1="584.8889" x2="564.8889" y1="398.0005" y2="386.4535"/>
    <line x1="562.6667" x2="582.6667" y1="387.7365" y2="399.2835"/>
    <line x1="580.4444" x2="560.4444" y1="400.5665" y2="389.0195"/>
    <line x1="558.2222" x2="578.2222" y1="390.3025" y2="401.8495"/>
    <polygon points="576.0,403.1325 556.0,391.5855"/>
    <line x1="573.7778" x2="553.7778" y1="404.4155" y2="392.8685"/>
    <line x1="551.5556" x2="571.5556" y1="394.1515" y2="405.6985"/>
    <line x1="569.3333" x2="549.3333" y1="406.9815" y2="395.4345"/>
    <line x1="547.1111" x2="567.1111" y1="396.7175" y2="408.2645"/>
    <line x1="564.8889" x2="544.8889" y1="409.5475" y2="398.0005"/>
    <line x1="542.6667" x2="562.6667" y1="399.2835" y2="410.8305"/>
    <line x1="560.4444" x2="540.4444" y1="412.1135" y2="400.5665"/>
    <line x1="538.2222" x2="558.2222" y1="401.8495" y2="413.3965"/>
    <line x1="556.0" x2="536.0" y1="414.6795" y2="403.1325"/>
    <line x1="569.3333" x2="589.3333" y1="383.8875" y2="395.4345"/>
    <line x1="591.5556" x2="571.5556" y1="394.1515" y2="382.6045"/>
    <line x1="616.0" x2="633.7778" y1="382.6045" y2="392.8685"/>
    <line x1="631.5556" x2="616.0" y1="394.1515" y2="385.1705"/>
    <line x1="616.0" x2="629.3333" y1="387.7365" y2="395.4345"/>
    <line x1="627.1111" x2="616.0" y1="396.7175" y2="390.3025"/>
    <line x1="616.0" x2="624.8889" y1="392.8685" y2="398.0005"/>
    <line x1="622.6667" x2="616.0" y1="399.2835" y2="395.4345"/>
    <line x1="616.0" x2="620.4444" y1="398.0005" y2="400.5665"/>
    <line x1="618.2222" x2="616.0" y1="401.8495" y2="400.5665"/>
    <line x1="616.0" x2="616.0" y1="403.1325" y2="403.1325"/>
    <line x1="627.1111" x2="647.1111" y1="419.8115" y2="431.3585"/>
    <line x1="644.8889" x2="624.8889" y1="432.6415" y2="421.0945"/>
    <line x1="622.6667" x2="642.6667" y1="422.3775" y2="433.9245"/>
    <line x1="640.4444" x2="620.4444" y1="435.2075" y2="423.6605"/>
    <line x1="618.2222" x2="638.2222" y1="424.9435" y2="436.4905"/>
    <line x1="636.0" x2="616.0" y1="437.7735" y2="426.2265"/>
    <line x1="629.3333" x2="649.3333" y1="418.5285" y2="430.0755"/>
    <line x1="651.5556" x2="631.5556" y1="428.7925" y2="417.2455"/>
    <line x1="633.7778" x2="653.7778" y1="415.9625" y2="427.5095"/>
    <polygon points="656.0,426.2265 636.0,414.6795"/>
    <line x1="658.2222" x2="638.2222" y1="424.9435" y2="413.3965"/>
    <line x1="640.4444" x2="660.4444" y1="412.1135" y2="423.6605"/>
    <line x1="662.6667" x2="642.6667" y1="422.3775" y2="410.8305"/>
    <line x1="644.8889" x2="664.8889" y1="409.5475" y2="421.0945"/>
    <line x1="667.1111" x2="647.1111" y1="419.8115" y2="408.2645"/>
    <line x1="649.3333" x2="669.3333" y1="406.9815" y2="418.5285"/>
    <line x1="671.5556" x2="651.5556" y1="417.2455" y2="405.6985"/>
    <line x1="653.7778" x2="673.7778" y1="404.4155" y2="415.9625"/>
    <polygon points="676.0,414.6795 656.0,403.1325"/>
    <line x1="678.2222" x2="658.2222" y1="413.3965" y2="401.8495"/>
    <line x1="660.4444" x2="680.4444" y1="400.5665" y2="412.1135"/>
    <line x1="682.6667" x2="662.6667" y1="410.8305" y2="399.2835"/>
    <line x1="664.8889" x2="684.8889" y1="398.0005" y2="409.5475"/>
    <line x1="687.1111" x2="667.1111" y1="408.2645" y2="396.7175"/>
    <line x1="669.3333" x2="689.3333" y1="395.4345" y2="406.9815"/>
    <line x1="691.5556" x2="671.5556" y1="405.6985" y2="394.1515"/>
    <line x1="673.7778" x2="693.7778" y1="392.8685" y2="404.4155"/>
    <line x1="696.0" x2="676.0" y1="403.1325" y2="391.5855"/>
    <line x1="656.0" x2="636.0" y1="380.0385" y2="368.4915"/>
    <line x1="633.7778" x2="653.7778" y1="369.7745" y2="381.3215"/>
    <line x1="651.5556" x2="631.5556" y1="382.6045" y2="371.0575"/>
    <line x1="629.3333" x2="649.3333" y1="372.3405" y2="383.8875"/>
    <line x1="647.1111" x2="627.1111" y1="385.1705" y2="373.6235"/>
    <line x1="624.8889" x2="644.8889" y1="374.9065" y2="386.4535"/>
    <line x1="642.6667" x2="622.6667" y1="387.7365" y2="376.1895"/>
    <line x1="620.4444" x2="640.4444" y1="377.4725" y2="389.0195"/>
    <line x1="638.2222" x2="618.2222" y1="390.3025" y2="378.7555"/>
    <line x1="616.0" x2="636.0" y1="472.4145" y2="483.9615"/>
    <line x1="638.2222" x2="716.0" y1="482.6785" y2="527.5835"/>
    <polyline points="716.0,530.1495 636.0,483.9615 656.0,495.5085"/>
    <line x1="653.7778" x2="613.7778" y1="496.7915" y2="473.6975"/>
    <line x1="611.5556" x2="651.5556" y1="474.9805" y2="498.0745"/>
    <line x1="649.3333" x2="609.3333" y1="499.3575" y2="476.2635"/>
    <line x1="607.1111" x2="647.1111" y1="477.5465" y2="500.6405"/>
    <line x1="644.8889" x2="604.8889" y1="501.9235" y2="478.8295"/>
    <line x1="602.6667" x2="642.6667" y1="480.1125" y2="503.2065"/>
    <line x1="640.4444" x2="600.4444" y1="504.4895" y2="481.3955"/>
    <line x1="598.2222" x2="638.2222" y1="482.6785" y2="505.7725"/>
    <line x1="633.7778" x2="553.7778" y1="508.3385" y2="462.1505"/>
    <polyline points="556.0,460.8675 636.0,507.0555 596.0,483.9615"/>
    <line x1="576.0" x2="576.0" y1="518.6025" y2="518.6025"/>
    <line x1="596.0" x2="536.0" y1="530.1495" y2="495.5085"/>
    <line x1="533.7778" x2="536.0" y1="496.7915" y2="498.0745"/>
    <line x1="536.0" x2="531.5556" y1="500.6405" y2="498.0745"/>
    <line x1="529.3333" x2="536.0" y1="499.3575" y2="503.2065"/>
    <line x1="536.0" x2="527.1111" y1="505.7725" y2="500.6405"/>
    <line x1="524.8889" x2="536.0" y1="501.9235" y2="508.3385"/>
    <line x1="536.0" x2="522.6667" y1="510.9045" y2="503.2065"/>
    <line x1="520.4444" x2="536.0" y1="504.4895" y2="513.4705"/>
    <line x1="536.0" x2="518.2222" y1="516.0365" y2="505.7725"/>
    <line x1="516.0" x2="533.7778" y1="509.6215" y2="519.8855"/>
    <polygon points="536.0,518.6025 516.0,507.0555"/>
    <line x1="531.5556" x2="516.0" y1="521.1685" y2="512.1875"/>
    <line x1="516.0" x2="529.3333" y1="514.7535" y2="522.4515"/>
    <line x1="527.1111" x2="516.0" y1="523.7345" y2="517.3195"/>
    <line x1="516.0" x2="524.8889" y1="519.8855" y2="525.0175"/>
    <line x1="522.6667" x2="516.0" y1="526.3005" y2="522.4515"/>
    <line x1="516.0" x2="520.4444" y1="525.0175" y2="527.5835"/>
    <line x1="518.2222" x2="516.0" y1="528.8665" y2="527.5835"/>
    <line x1="516.0" x2="516.0" y1="530.1495" y2="530.1495"/>
    <line x1="496.0" x2="476.0" y1="495.5085" y2="483.9615"/>
    <line x1="473.7778" x2="493.7778" y1="485.2445" y2="496.7915"/>
    <line x1="491.5556" x2="471.5556" y1="498.0745" y2="486.5275"/>
    <line x1="469.3333" x2="489.3333" y1="487.8105" y2="499.3575"/>
    <line x1="487.1111" x2="467.1111" y1="500.6405" y2="489.0935"/>
    <line x1="464.8889" x2="484.8889" y1="490.3765" y2="501.9235"/>
    <line x1="482.6667" x2="462.6667" y1="503.2065" y2="491.6595"/>
    <line x1="460.4444" x2="480.4444" y1="492.9425" y2="504.4895"/>
    <line x1="478.2222" x2="458.2222" y1="505.7725" y2="494.2255"/>
    <line x1="456.0" x2="476.0" y1="495.5085" y2="507.0555"/>
    <line x1="456.0" x2="476.0" y1="518.6025" y2="530.1495"/>
    <line x1="473.7778" x2="453.7778" y1="531.4325" y2="519.8855"/>
    <line x1="451.5556" x2="471.5556" y1="521.1685" y2="532.7155"/>
    <line x1="469.3333" x2="449.3333" y1="533.9985" y2="522.4515"/>
    <line x1="447.1111" x2="467.1111" y1="523.7345" y2="535.2815"/>
    <line x1="464.8889" x2="444.8889" y1="536.5645" y2="525.0175"/>
    <line x1="442.6667" x2="462.6667" y1="526.3005" y2="537.8475"/>
    <line x1="460.4444" x2="440.4444" y1="539.1305" y2="527.5835"/>
    <line x1="438.2222" x2="458.2222" y1="528.8665" y2="540.4136"/>
    <line x1="456.0" x2="436.0" y1="541.6966" y2="530.1495"/>
    <line x1="456.0" x2="436.0" y1="472.4145" y2="460.8675"/>
    <line x1="438.2222" x2="458.2222" y1="459.5845" y2="471.1315"/>
    <line x1="460.4444" x2="440.4444" y1="469.8485" y2="458.3015"/>
    <line x1="442.6667" x2="462.6667" y1="457.0185" y2="468.5655"/>
    <line x1="464.8889" x2="444.8889" y1="467.2825" y2="455.7355"/>
    <line x1="447.1111" x2="467.1111" y1="454.4525" y2="465.9995"/>
    <line x1="469.3333" x2="449.3333" y1="464.7165" y2="453.1695"/>
    <line x1="451.5556" x2="471.5556" y1="451.8865" y2="463.4335"/>
    <line x1="473.7778" x2="453.7778" y1="462.1505" y2="450.6035"/>
    <line x1="456.0" x2="496.0" y1="449.3205" y2="472.4145"/>
    <line x1="498.2222" x2="478.2222" y1="471.1315" y2="459.5845"/>
    <line x1="480.4444" x2="500.4444" y1="458.3015" y2="469.8485"/>
    <line x1="502.6667" x2="482.6667" y1="468.5655" y2="457.0185"/>
    <line x1="484.8889" x2="504.8889" y1="455.7355" y2="467.2825"/>
    <line x1="507.1111" x2="487.1111" y1="465.9995" y2="454.4525"/>
    <line x1="489.3333" x2="509.3333" y1="453.1695" y2="464.7165"/>
    <line x1="511.5556" x2="491.5556" y1="463.4335" y2="451.8865"/>
    <line x1="493.7778" x2="513.7778" y1="450.6035" y2="462.1505"/>
    <line x1="516.0" x2="496.0" y1="460.8675" y2="449.3205"/>
    <line x1="476.0" x2="436.0" y1="414.6795" y2="391.5855"/>
    <line x1="433.7778" x2="473.7778" y1="392.8685" y2="415.9625"/>
    <line x1="471.5556" x2="431.5556" y1="417.2455" y2="394.1515"/>
    <line x1="429.3333" x2="469.3333" y1="395.4345" y2="418.5285"/>
    <line x1="467.1111" x2="427.1111" y1="419.8115" y2="396.7175"/>
    <line x1="424.8889" x2="464.8889" y1="398.0005" y2="421.0945"/>
    <line x1="462.6667" x2="422.6667" y1="422.3775" y2="399.2835"/>
    <line x1="420.4444" x2="460.4444" y1="400.5665" y2="423.6605"/>
    <line x1="458.2222" x2="418.2222" y1="424.9435" y2="401.8495"/>
    <polyline points="416.0,403.1325 456.0,426.2265 436.0,414.6795"/>
    <line x1="433.7778" x2="453.7778" y1="415.9625" y2="427.5095"/>
    <line x1="451.5556" x2="431.5556" y1="428.7925" y2="417.2455"/>
    <line x1="429.3333" x2="449.3333" y1="418.5285" y2="430.0755"/>
    <line x1="447.1111" x2="427.1111" y1="431.3585" y2="419.8115"/>
    <line x1="424.8889" x2="444.8889" y1="421.0945" y2="432.6415"/>
    <line x1="442.6667" x2="422.6667" y1="433.9245" y2="422.3775"/>
    <line x1="420.4444" x2="440.4444" y1="423.6605" y2="435.2075"/>
    <line x1="438.2222" x2="418.2222" y1="436.4905" y2="424.9435"/>
    <line x1="416.0" x2="393.7778" y1="428.7925" y2="415.9625"/>
    <line x1="396.0" x2="436.0" y1="414.6795" y2="437.7735"/>
    <line x1="416.0" x2="384.8889" y1="439.0565" y2="421.0945"/>
    <line x1="382.6667" x2="416.0" y1="422.3775" y2="441.6225"/>
    <line x1="416.0" x2="380.4444" y1="444.1885" y2="423.6605"/>
    <line x1="378.2222" x2="416.0" y1="424.9435" y2="446.7545"/>
    <line x1="413.7778" x2="393.7778" y1="450.6035" y2="439.0565"/>
    <polyline points="396.0,437.7735 416.0,449.3205 376.0,426.2265"/>
    <line x1="387.1111" x2="416.0" y1="419.8115" y2="436.4905"/>
    <line x1="416.0" x2="389.3333" y1="433.9245" y2="418.5285"/>
    <line x1="391.5556" x2="416.0" y1="417.2455" y2="431.3585"/>
    <line x1="411.5556" x2="391.5556" y1="451.8865" y2="440.3395"/>
    <line x1="389.3333" x2="409.3333" y1="441.6225" y2="453.1695"/>
    <line x1="407.1111" x2="387.1111" y1="454.4525" y2="442.9055"/>
    <line x1="384.8889" x2="404.8889" y1="444.1885" y2="455.7355"/>
    <line x1="402.6667" x2="382.6667" y1="457.0185" y2="445.4715"/>
    <line x1="380.4444" x2="400.4444" y1="446.7545" y2="458.3015"/>
    <line x1="398.2222" x2="378.2222" y1="459.5845" y2="448.0375"/>
    <polygon points="376.0,449.3205 396.0,460.8675"/>
    <line x1="373.7778" x2="393.7778" y1="450.6035" y2="462.1505"/>
    <line x1="391.5556" x2="371.5556" y1="463.4335" y2="451.8865"/>
    <line x1="369.3333" x2="389.3333" y1="453.1695" y2="464.7165"/>
    <line x1="387.1111" x2="367.1111" y1="465.9995" y2="454.4525"/>
    <line x1="364.8889" x2="384.8889" y1="455.7355" y2="467.2825"/>
    <line x1="382.6667" x2="362.6667" y1="468.5655" y2="457.0185"/>
    <line x1="360.4444" x2="380.4444" y1="458.3015" y2="469.8485"/>
    <line x1="378.2222" x2="358.2222" y1="471.1315" y2="459.5845"/>
    <line x1="356.0" x2="376.0" y1="460.8675" y2="472.4145"/>
    <line x1="456.0" x2="456.0" y1="403.1325" y2="403.1325"/>
    <polyline points="536.0,472.4145 616.0,518.6025 556.0,483.9615"/>
    <line x1="553.7778" x2="613.7778" y1="485.2445" y2="519.8855"/>
    <line x1="611.5556" x2="551.5556" y1="521.1685" y2="486.5275"/>
    <line x1="549.3333" x2="609.3333" y1="487.8105" y2="522.4515"/>
    <line x1="607.1111" x2="547.1111" y1="523.7345" y2="489.0935"/>
    <line x1="544.8889" x2="604.8889" y1="490.3765" y2="525.0175"/>
    <line x1="602.6667" x2="542.6667" y1="526.3005" y2="491.6595"/>
    <line x1="540.4444" x2="600.4444" y1="492.9425" y2="527.5835"/>
    <line x1="598.2222" x2="538.2222" y1="528.8665" y2="494.2255"/>
    <line x1="538.2222" x2="618.2222" y1="471.1315" y2="517.3195"/>
    <line x1="620.4444" x2="540.4444" y1="516.0365" y2="469.8485"/>
    <line x1="542.6667" x2="622.6667" y1="468.5655" y2="514.7535"/>
    <line x1="624.8889" x2="544.8889" y1="513.4705" y2="467.2825"/>
    <line x1="547.1111" x2="627.1111" y1="465.9995" y2="512.1875"/>
    <line x1="629.3333" x2="549.3333" y1="510.9045" y2="464.7165"/>
    <line x1="551.5556" x2="631.5556" y1="463.4335" y2="509.6215"/>
    <line x1="640.4444" x2="716.0" y1="481.3955" y2="525.0175"/>
    <line x1="716.0" x2="642.6667" y1="522.4515" y2="480.1125"/>
    <line x1="644.8889" x2="716.0" y1="478.8295" y2="519.8855"/>
    <line x1="716.0" x2="647.1111" y1="517.3195" y2="477.5465"/>
    <line x1="649.3333" x2="716.0" y1="476.2635" y2="514.7535"/>
    <line x1="716.0" x2="651.5556" y1="512.1875" y2="474.9805"/>
    <line x1="653.7778" x2="716.0" y1="473.6975" y2="509.6215"/>
    <polyline points="716.0,507.0555 676.0,483.9615 736.0,518.6025"/>
    <line x1="738.2222" x2="678.2222" y1="517.3195" y2="482.6785"/>
    <line x1="676.0" x2="656.0" y1="483.9615" y2="472.4145"/>
    <line x1="680.4444" x2="740.4444" y1="481.3955" y2="516.0365"/>
    <line x1="742.6667" x2="682.6667" y1="514.7535" y2="480.1125"/>
    <line x1="684.8889" x2="744.8889" y1="478.8295" y2="513.4705"/>
    <line x1="747.1111" x2="687.1111" y1="512.1875" y2="477.5465"/>
    <line x1="689.3333" x2="749.3333" y1="476.2635" y2="510.9045"/>
    <line x1="751.5556" x2="691.5556" y1="509.6215" y2="474.9805"/>
    <line x1="693.7778" x2="753.7778" y1="473.6975" y2="508.3385"/>
    <polyline points="756.0,507.0555 696.0,472.4145 736.0,495.5085"/>
    <line x1="736.0" x2="698.2222" y1="492.9425" y2="471.1315"/>
    <line x1="700.4444" x2="736.0" y1="469.8485" y2="490.3765"/>
    <line x1="736.0" x2="702.6667" y1="487.8105" y2="468.5655"/>
    <line x1="704.8889" x2="736.0" y1="467.2825" y2="485.2445"/>
    <line x1="736.0" x2="707.1111" y1="482.6785" y2="465.9995"/>
    <line x1="709.3333" x2="736.0" y1="464.7165" y2="480.1125"/>
    <line x1="736.0" x2="711.5556" y1="477.5465" y2="463.4335"/>
    <line x1="713.7778" x2="736.0" y1="462.1505" y2="474.9805"/>
    <line x1="736.0" x2="716.0" y1="472.4145" y2="460.8675"/>
    <line x1="736.0" x2="756.0" y1="449.3205" y2="460.8675"/>
    <line x1="758.2222" x2="738.2222" y1="459.5845" y2="448.0375"/>
    <line x1="740.4444" x2="760.4444" y1="446.7545" y2="458.3015"/>
    <line x1="762.6667" x2="742.6667" y1="457.0185" y2="445.4715"/>
    <line x1="744.8889" x2="764.8889" y1="444.1885" y2="455.7355"/>
    <line x1="767.1111" x2="747.1111" y1="454.4525" y2="442.9055"/>
    <line x1="749.3333" x2="769.3333" y1="441.6225" y2="453.1695"/>
    <line x1="771.5556" x2="751.5556" y1="451.8865" y2="440.3395"/>
    <line x1="753.7778" x2="773.7778" y1="439.0565" y2="450.6035"/>
    <line x1="776.0" x2="793.7778" y1="451.8865" y2="462.1505"/>
    <line x1="796.0" x2="736.0" y1="460.8675" y2="426.2265"/>
    <line x1="738.2222" x2="758.2222" y1="424.9435" y2="436.4905"/>
    <line x1="756.0" x2="756.0" y1="437.7735" y2="437.7735"/>
    <line x1="760.4444" x2="740.4444" y1="435.2075" y2="423.6605"/>
    <line x1="742.6667" x2="762.6667" y1="422.3775" y2="433.9245"/>
    <line x1="764.8889" x2="744.8889" y1="432.6415" y2="421.0945"/>
    <line x1="747.1111" x2="767.1111" y1="419.8115" y2="431.3585"/>
    <line x1="769.3333" x2="749.3333" y1="430.0755" y2="418.5285"/>
    <line x1="751.5556" x2="771.5556" y1="417.2455" y2="428.7925"/>
    <line x1="773.7778" x2="753.7778" y1="427.5095" y2="415.9625"/>
    <line x1="756.0" x2="776.0" y1="414.6795" y2="426.2265"/>
    <line x1="776.0" x2="791.5556" y1="454.4525" y2="463.4335"/>
    <line x1="789.3333" x2="776.0" y1="464.7165" y2="457.0185"/>
    <line x1="776.0" x2="787.1111" y1="459.5845" y2="465.9995"/>
    <line x1="784.8889" x2="776.0" y1="467.2825" y2="462.1505"/>
    <line x1="776.0" x2="782.6667" y1="464.7165" y2="468.5655"/>
    <line x1="780.4444" x2="776.0" y1="469.8485" y2="467.2825"/>
    <line x1="776.0" x2="778.2222" y1="469.8485" y2="471.1315"/>
    <line x1="776.0" x2="776.0" y1="472.4145" y2="472.4145"/>
    <line x1="776.0" x2="796.0" y1="495.5085" y2="507.0555"/>
    <line x1="793.7778" x2="776.0" y1="508.3385" y2="498.0745"/>
    <line x1="776.0" x2="791.5556" y1="500.6405" y2="509.6215"/>
    <line x1="789.3333" x2="776.0" y1="510.9045" y2="503.2065"/>
    <line x1="776.0" x2="787.1111" y1="505.7725" y2="512.1875"/>
    <line x1="784.8889" x2="776.0" y1="513.4705" y2="508.3385"/>
    <line x1="776.0" x2="782.6667" y1="510.9045" y2="514.7535"/>
    <line x1="780.4444" x2="776.0" y1="516.0365" y2="513.4705"/>
    <line x1="776.0" x2="778.2222" y1="516.0365" y2="517.3195"/>
    <line x1="776.0" x2="776.0" y1="518.6025" y2="518.6025"/>
    <line x1="756.0" x2="776.0" y1="530.1495" y2="541.6966"/>
    <line x1="773.7778" x2="753.7778" y1="542.9796" y2="531.4325"/>
    <line x1="751.5556" x2="771.5556" y1="532.7155" y2="544.2626"/>
    <line x1="769.3333" x2="749.3333" y1="545.5456" y2="533.9985"/>
    <line x1="747.1111" x2="767.1111" y1="535.2815" y2="546.8286"/>
    <line x1="764.8889" x2="744.8889" y1="548.1116" y2="536.5645"/>
    <line x1="742.6667" x2="762.6667" y1="537.8475" y2="549.3946"/>
    <line x1="760.4444" x2="740.4444" y1="550.6776" y2="539.1305"/>
    <line x1="738.2222" x2="758.2222" y1="540.4136" y2="551.9606"/>
    <line x1="756.0" x2="736.0" y1="553.2436" y2="541.6966"/>
    <line x1="716.0" x2="696.0" y1="553.2436" y2="541.6966"/>
    <line x1="693.7778" x2="713.7778" y1="542.9796" y2="554.5266"/>
    <line x1="711.5556" x2="691.5556" y1="555.8096" y2="544.2626"/>
    <line x1="689.3333" x2="709.3333" y1="545.5456" y2="557.0926"/>
    <line x1="707.1111" x2="687.1111" y1="558.3756" y2="546.8286"/>
    <line x1="684.8889" x2="704.8889" y1="548.1116" y2="559.6586"/>
    <line x1="702.6667" x2="682.6667" y1="560.9416" y2="549.3946"/>
    <line x1="680.4444" x2="700.4444" y1="550.6776" y2="562.2246"/>
    <line x1="698.2222" x2="678.2222" y1="563.5076" y2="551.9606"/>
    <polyline points="676.0,553.2436 696.0,564.7906 656.0,541.6966"/>
    <line x1="656.0" x2="693.7778" y1="544.2626" y2="566.0736"/>
    <line x1="691.5556" x2="656.0" y1="567.3566" y2="546.8286"/>
    <line x1="656.0" x2="689.3333" y1="549.3946" y2="568.6396"/>
    <line x1="687.1111" x2="656.0" y1="569.9226" y2="551.9606"/>
    <line x1="656.0" x2="684.8889" y1="554.5266" y2="571.2056"/>
    <line x1="682.6667" x2="656.0" y1="572.4886" y2="557.0926"/>
    <line x1="656.0" x2="680.4444" y1="559.6586" y2="573.7716"/>
    <line x1="678.2222" x2="656.0" y1="575.0546" y2="562.2246"/>
    <polygon points="656.0,564.7906 676.0,576.3376"/>
    <line x1="653.7778" x2="673.7778" y1="566.0736" y2="577.6206"/>
    <line x1="671.5556" x2="651.5556" y1="578.9036" y2="567.3566"/>
    <line x1="649.3333" x2="669.3333" y1="568.6396" y2="580.1866"/>
    <line x1="667.1111" x2="647.1111" y1="581.4696" y2="569.9226"/>
    <line x1="644.8889" x2="664.8889" y1="571.2056" y2="582.7526"/>
    <line x1="662.6667" x2="642.6667" y1="584.0356" y2="572.4886"/>
    <line x1="640.4444" x2="660.4444" y1="573.7716" y2="585.3186"/>
    <line x1="658.2222" x2="638.2222" y1="586.6016" y2="575.0546"/>
    <polygon points="636.0,576.3376 656.0,587.8846"/>
    <line x1="633.7778" x2="653.7778" y1="577.6206" y2="589.1676"/>
    <line x1="651.5556" x2="631.5556" y1="590.4506" y2="578.9036"/>
    <line x1="629.3333" x2="649.3333" y1="580.1866" y2="591.7336"/>
    <line x1="647.1111" x2="627.1111" y1="593.0166" y2="581.4696"/>
    <line x1="624.8889" x2="644.8889" y1="582.7526" y2="594.2996"/>
    <line x1="642.6667" x2="622.6667" y1="595.5826" y2="584.0356"/>
    <line x1="620.4444" x2="640.4444" y1="585.3186" y2="596.8656"/>
    <line x1="638.2222" x2="618.2222" y1="598.1486" y2="586.6016"/>
    <line x1="616.0" x2="636.0" y1="587.8846" y2="599.4316"/>
    <line x1="696.0" x2="696.0" y1="495.5085" y2="495.5085"/>
    <line x1="756.0" x2="776.0" y1="576.3376" y2="587.8846"/>
    <line x1="778.2222" x2="758.2222" y1="586.6016" y2="575.0546"/>
    <line x1="760.4444" x2="780.4444" y1="573.7716" y2="585.3186"/>
    <line x1="782.6667" x2="762.6667" y1="584.0356" y2="572.4886"/>
    <line x1="764.8889" x2="784.8889" y1="571.2056" y2="582.7526"/>
    <line x1="787.1111" x2="767.1111" y1="581.4696" y2="569.9226"/>
    <line x1="769.3333" x2="789.3333" y1="568.6396" y2="580.1866"/>
    <line x1="791.5556" x2="771.5556" y1="578.9036" y2="567.3566"/>
    <line x1="773.7778" x2="793.7778" y1="566.0736" y2="577.6206"/>
    <line x1="796.0" x2="776.0" y1="576.3376" y2="564.7906"/>
    <line x1="736.0" x2="716.0" y1="403.1325" y2="391.5855"/>
    <line x1="718.2222" x2="738.2222" y1="390.3025" y2="401.8495"/>
    <line x1="740.4444" x2="720.4444" y1="400.5665" y2="389.0195"/>
    <line x1="722.6667" x2="742.6667" y1="387.7365" y2="399.2835"/>
    <line x1="744.8889" x2="724.8889" y1="398.0005" y2="386.4535"/>
    <line x1="727.1111" x2="747.1111" y1="385.1705" y2="396.7175"/>
    <line x1="749.3333" x2="729.3333" y1="395.4345" y2="383.8875"/>
    <line x1="731.5556" x2="751.5556" y1="382.6045" y2="394.1515"/>
    <line x1="753.7778" x2="733.7778" y1="392.8685" y2="381.3215"/>
    <line x1="736.0" x2="756.0" y1="380.0385" y2="391.5855"/>
  </g>
</svg>
