<?xml version="1.0" encoding="utf-8" ?>
<svg xmlns="http://www.w3.org/2000/svg" xmlns:cc="http://creativecommons.org/ns#" xmlns:dc="http://purl.org/dc/elements/1.1/" xmlns:ev="http://www.w3.org/2001/xml-events" xmlns:inkscape="http://www.inkscape.org/namespaces/inkscape" xmlns:rdf="http://www.w3.org/1999/02/22-rdf-syntax-ns#" xmlns:sodipodi="http://sodipodi.sourceforge.net/DTD/sodipodi-0.dtd" xmlns:xlink="http://www.w3.org/1999/xlink" baseProfile="tiny" height="22.86cm" version="1.2" viewBox="0 0 1152.0 864.0" width="30.48cm">
  <metadata>
    <rdf:RDF>
      <cc:Work>
        <dc:format>image/svg+xml</dc:format>
        <dc:source/>
        <dc:date>2021-10-05T20:34:57.106484</dc:date>
      </cc:Work>
    </rdf:RDF>
  </metadata>
  <defs/>
  <g fill="none" id="layer3.0" inkscape:groupmode="layer" inkscape:label="3" stroke="#00f" style="display:inline">
    <line x1="573.5" x2="573.5" y1="63.9392" y2="46.6187"/>
    <line x1="574.75" x2="574.75" y1="47.3404" y2="64.6609"/>
    <line x1="576.0" x2="576.0" y1="65.3826" y2="48.0621"/>
    <line x1="577.25" x2="577.25" y1="48.7838" y2="66.1043"/>
    <line x1="579.75" x2="579.75" y1="67.5476" y2="61.7741"/>
    <polyline points="578.5,61.0525 578.5,66.826 578.5,49.5054"/>
    <line x1="581.0" x2="581.0" y1="62.4958" y2="68.2693"/>
    <line x1="582.25" x2="582.25" y1="68.991" y2="63.2175"/>
    <line x1="583.5" x2="583.5" y1="63.9392" y2="69.7127"/>
    <line x1="578.5" x2="578.5" y1="72.5995" y2="89.92"/>
    <line x1="577.25" x2="577.25" y1="89.1983" y2="71.8778"/>
    <line x1="576.0" x2="576.0" y1="71.1561" y2="88.4766"/>
    <line x1="574.75" x2="574.75" y1="87.7549" y2="70.4344"/>
    <polyline points="573.5,69.7127 573.5,87.0332 573.5,81.2597"/>
    <line x1="572.25" x2="572.25" y1="80.538" y2="86.3115"/>
    <line x1="571.0" x2="571.0" y1="85.5898" y2="79.8163"/>
    <line x1="569.75" x2="569.75" y1="79.0946" y2="84.8682"/>
    <line x1="568.5" x2="568.5" y1="84.1465" y2="78.373"/>
    <line x1="573.5" x2="573.5" y1="75.4862" y2="75.4862"/>
    <line x1="578.5" x2="578.5" y1="84.1465" y2="84.1465"/>
    <line x1="578.5" x2="578.5" y1="107.2405" y2="124.561"/>
    <line x1="579.75" x2="579.75" y1="125.2827" y2="107.9622"/>
    <line x1="581.0" x2="581.0" y1="108.6838" y2="126.0044"/>
    <line x1="582.25" x2="582.25" y1="126.726" y2="109.4055"/>
    <line x1="583.5" x2="583.5" y1="110.1272" y2="127.4477"/>
    <line x1="583.5" x2="583.5" y1="121.6742" y2="121.6742"/>
    <line x1="578.5" x2="578.5" y1="118.7875" y2="118.7875"/>
    <line x1="583.5" x2="583.5" y1="115.9007" y2="115.9007"/>
    <line x1="578.5" x2="578.5" y1="136.108" y2="153.4285"/>
    <line x1="579.75" x2="579.75" y1="154.1502" y2="136.8297"/>
    <line x1="581.0" x2="581.0" y1="137.5514" y2="154.8719"/>
    <line x1="582.25" x2="582.25" y1="155.5936" y2="138.2731"/>
    <polyline points="583.5,138.9947 583.5,156.3152 583.5,150.5417"/>
    <line x1="584.75" x2="584.75" y1="151.2634" y2="157.0369"/>
    <line x1="586.0" x2="586.0" y1="157.7586" y2="151.9851"/>
    <line x1="587.25" x2="587.25" y1="152.7068" y2="158.4803"/>
    <line x1="588.5" x2="588.5" y1="159.202" y2="153.4285"/>
    <line x1="588.5" x2="588.5" y1="170.749" y2="176.5225"/>
    <line x1="589.75" x2="589.75" y1="175.8008" y2="171.4707"/>
    <line x1="591.0" x2="591.0" y1="172.1924" y2="175.0791"/>
    <line x1="592.25" x2="592.25" y1="174.3574" y2="172.9141"/>
    <line x1="593.5" x2="593.5" y1="173.6358" y2="173.6358"/>
    <line x1="588.5" x2="588.5" y1="182.296" y2="188.0695"/>
    <line x1="587.25" x2="587.25" y1="187.3478" y2="181.5743"/>
    <line x1="586.0" x2="586.0" y1="180.8526" y2="186.6261"/>
    <line x1="584.75" x2="584.75" y1="185.9044" y2="180.1309"/>
    <line x1="583.5" x2="583.5" y1="179.4093" y2="185.1828"/>
    <line x1="573.5" x2="573.5" y1="202.5033" y2="208.2768"/>
    <line x1="574.75" x2="574.75" y1="208.9985" y2="203.225"/>
    <line x1="576.0" x2="576.0" y1="203.9466" y2="209.7201"/>
    <line x1="577.25" x2="577.25" y1="210.4418" y2="204.6683"/>
    <line x1="579.75" x2="579.75" y1="206.1117" y2="211.8852"/>
    <line x1="581.0" x2="581.0" y1="212.6069" y2="206.8334"/>
    <line x1="582.25" x2="582.25" y1="207.5551" y2="213.3286"/>
    <polygon points="583.5,214.0503 583.5,208.2768"/>
    <line x1="584.75" x2="584.75" y1="214.772" y2="208.9985"/>
    <line x1="586.0" x2="586.0" y1="209.7201" y2="215.4936"/>
    <line x1="587.25" x2="587.25" y1="216.2153" y2="210.4418"/>
    <line x1="588.5" x2="588.5" y1="211.1635" y2="216.937"/>
    <line x1="593.5" x2="593.5" y1="219.8238" y2="214.0503"/>
    <line x1="594.75" x2="594.75" y1="214.772" y2="219.1021"/>
    <line x1="596.0" x2="596.0" y1="218.3804" y2="215.4936"/>
    <line x1="597.25" x2="597.25" y1="216.2153" y2="217.6587"/>
    <line x1="598.5" x2="598.5" y1="216.937" y2="216.937"/>
    <line x1="593.5" x2="593.5" y1="225.5973" y2="231.3708"/>
    <line x1="592.25" x2="592.25" y1="230.6491" y2="224.8756"/>
    <line x1="591.0" x2="591.0" y1="224.1539" y2="229.9274"/>
    <line x1="589.75" x2="589.75" y1="229.2057" y2="223.4322"/>
    <line x1="588.5" x2="588.5" y1="222.7105" y2="228.484"/>
    <polygon points="578.5,211.1635 578.5,205.39"/>
    <line x1="588.5" x2="588.5" y1="251.578" y2="257.3515"/>
    <line x1="589.75" x2="589.75" y1="258.0732" y2="252.2997"/>
    <line x1="591.0" x2="591.0" y1="253.0214" y2="258.7949"/>
    <line x1="592.25" x2="592.25" y1="259.5166" y2="253.7431"/>
    <line x1="593.5" x2="593.5" y1="254.4648" y2="260.2383"/>
    <line x1="583.5" x2="583.5" y1="266.0118" y2="271.7853"/>
    <line x1="582.25" x2="582.25" y1="271.0636" y2="265.2901"/>
    <line x1="581.0" x2="581.0" y1="264.5684" y2="270.3419"/>
    <line x1="579.75" x2="579.75" y1="269.6202" y2="263.8467"/>
    <line x1="578.5" x2="578.5" y1="263.125" y2="268.8985"/>
    <line x1="593.5" x2="593.5" y1="289.1058" y2="300.6528"/>
    <line x1="594.75" x2="594.75" y1="301.3745" y2="289.8275"/>
    <line x1="596.0" x2="596.0" y1="290.5492" y2="302.0962"/>
    <line x1="597.25" x2="597.25" y1="302.8179" y2="291.2709"/>
    <line x1="599.75" x2="599.75" y1="292.7142" y2="298.4878"/>
    <polyline points="598.5,297.7661 598.5,291.9926 598.5,303.5396"/>
    <line x1="601.0" x2="601.0" y1="299.2094" y2="293.4359"/>
    <line x1="602.25" x2="602.25" y1="294.1576" y2="299.9311"/>
    <polygon points="603.5,300.6528 603.5,294.8793"/>
    <line x1="604.75" x2="604.75" y1="301.3745" y2="295.601"/>
    <line x1="606.0" x2="606.0" y1="296.3227" y2="302.0962"/>
    <line x1="607.25" x2="607.25" y1="302.8179" y2="297.0444"/>
    <line x1="608.5" x2="608.5" y1="297.7661" y2="303.5396"/>
    <line x1="588.5" x2="588.5" y1="303.5396" y2="309.3131"/>
    <line x1="587.25" x2="587.25" y1="308.5914" y2="302.8179"/>
    <line x1="586.0" x2="586.0" y1="302.0962" y2="307.8697"/>
    <line x1="584.75" x2="584.75" y1="307.148" y2="301.3745"/>
    <line x1="583.5" x2="583.5" y1="300.6528" y2="306.4263"/>
    <line x1="573.5" x2="573.5" y1="306.4263" y2="300.6528"/>
    <line x1="572.25" x2="572.25" y1="299.9311" y2="305.7046"/>
    <line x1="571.0" x2="571.0" y1="304.9829" y2="299.2094"/>
    <line x1="569.75" x2="569.75" y1="298.4878" y2="304.2613"/>
    <line x1="568.5" x2="568.5" y1="303.5396" y2="297.7661"/>
    <line x1="578.5" x2="578.5" y1="332.4071" y2="338.1806"/>
    <line x1="579.75" x2="579.75" y1="337.4589" y2="333.1288"/>
    <line x1="581.0" x2="581.0" y1="333.8505" y2="336.7372"/>
    <line x1="582.25" x2="582.25" y1="336.0155" y2="334.5721"/>
    <line x1="583.5" x2="583.5" y1="335.2938" y2="335.2938"/>
    <line x1="578.5" x2="578.5" y1="343.9541" y2="349.7276"/>
    <line x1="577.25" x2="577.25" y1="349.0059" y2="343.2324"/>
    <line x1="576.0" x2="576.0" y1="342.5107" y2="348.2842"/>
    <line x1="574.75" x2="574.75" y1="347.5625" y2="341.789"/>
    <line x1="573.5" x2="573.5" y1="341.0673" y2="346.8408"/>
    <line x1="583.5" x2="583.5" y1="358.3878" y2="364.1613"/>
    <line x1="584.75" x2="584.75" y1="364.883" y2="359.1095"/>
    <line x1="586.0" x2="586.0" y1="359.8312" y2="365.6047"/>
    <line x1="587.25" x2="587.25" y1="366.3264" y2="360.5529"/>
    <line x1="588.5" x2="588.5" y1="361.2746" y2="367.0481"/>
    <line x1="578.5" x2="578.5" y1="372.8216" y2="378.5951"/>
    <line x1="577.25" x2="577.25" y1="377.8734" y2="372.0999"/>
    <line x1="576.0" x2="576.0" y1="371.3782" y2="377.1517"/>
    <line x1="574.75" x2="574.75" y1="376.43" y2="370.6565"/>
    <line x1="573.5" x2="573.5" y1="369.9348" y2="375.7083"/>
    <line x1="628.5" x2="628.5" y1="384.3686" y2="390.1421"/>
    <line x1="629.75" x2="629.75" y1="390.8638" y2="385.0903"/>
    <line x1="631.0" x2="631.0" y1="385.812" y2="391.5855"/>
    <line x1="632.25" x2="632.25" y1="392.3072" y2="386.5337"/>
    <line x1="633.5" x2="633.5" y1="387.2554" y2="421.8964"/>
    <line x1="632.25" x2="632.25" y1="421.1747" y2="409.6277"/>
    <line x1="631.0" x2="631.0" y1="408.906" y2="420.453"/>
    <line x1="629.75" x2="629.75" y1="419.7313" y2="408.1843"/>
    <line x1="628.5" x2="628.5" y1="407.4626" y2="419.0096"/>
    <line x1="633.5" x2="633.5" y1="416.1229" y2="410.3494"/>
    <line x1="633.5" x2="633.5" y1="404.5759" y2="398.8024"/>
    <line x1="632.25" x2="632.25" y1="398.0807" y2="403.8542"/>
    <line x1="631.0" x2="631.0" y1="403.1325" y2="397.359"/>
    <line x1="629.75" x2="629.75" y1="396.6373" y2="402.4108"/>
    <line x1="628.5" x2="628.5" y1="401.6891" y2="395.9156"/>
    <line x1="634.75" x2="634.75" y1="393.7505" y2="416.8446"/>
    <line x1="636.0" x2="636.0" y1="417.5662" y2="394.4722"/>
    <line x1="637.25" x2="637.25" y1="395.1939" y2="418.2879"/>
    <line x1="639.75" x2="639.75" y1="419.7313" y2="408.1843"/>
    <polyline points="638.5,407.4626 638.5,419.0096 638.5,395.9156"/>
    <line x1="641.0" x2="641.0" y1="391.5855" y2="388.6987"/>
    <line x1="642.25" x2="642.25" y1="387.977" y2="392.3072"/>
    <line x1="643.5" x2="643.5" y1="393.0289" y2="387.2554"/>
    <line x1="639.75" x2="639.75" y1="389.4204" y2="390.8638"/>
    <line x1="638.5" x2="638.5" y1="390.1421" y2="390.1421"/>
    <line x1="643.5" x2="643.5" y1="381.4819" y2="375.7083"/>
    <line x1="642.25" x2="642.25" y1="374.9867" y2="380.7602"/>
    <line x1="641.0" x2="641.0" y1="380.0385" y2="374.265"/>
    <line x1="639.75" x2="639.75" y1="373.5433" y2="379.3168"/>
    <line x1="638.5" x2="638.5" y1="378.5951" y2="372.8216"/>
    <line x1="643.5" x2="643.5" y1="364.1613" y2="346.8408"/>
    <line x1="644.75" x2="644.75" y1="347.5625" y2="364.883"/>
    <line x1="646.0" x2="646.0" y1="365.6047" y2="348.2842"/>
    <line x1="647.25" x2="647.25" y1="349.0059" y2="366.3264"/>
    <line x1="649.75" x2="649.75" y1="367.7698" y2="373.5433"/>
    <line x1="651.0" x2="651.0" y1="374.265" y2="368.4915"/>
    <line x1="652.25" x2="652.25" y1="369.2132" y2="374.9867"/>
    <line x1="654.75" x2="654.75" y1="376.43" y2="359.1095"/>
    <polyline points="653.5,358.3878 653.5,352.6143 653.5,375.7083 653.5,369.9348"/>
    <line x1="658.5" x2="658.5" y1="372.8216" y2="372.8216"/>
    <line x1="656.0" x2="656.0" y1="377.1517" y2="359.8312"/>
    <line x1="657.25" x2="657.25" y1="360.5529" y2="377.8734"/>
    <line x1="659.75" x2="659.75" y1="379.3168" y2="385.0903"/>
    <line x1="661.0" x2="661.0" y1="385.812" y2="380.0385"/>
    <line x1="662.25" x2="662.25" y1="380.7602" y2="386.5337"/>
    <line x1="663.5" x2="663.5" y1="387.2554" y2="369.9348"/>
    <line x1="664.75" x2="664.75" y1="370.6565" y2="374.9867"/>
    <line x1="666.0" x2="666.0" y1="374.265" y2="371.3782"/>
    <line x1="667.25" x2="667.25" y1="372.0999" y2="373.5433"/>
    <line x1="668.5" x2="668.5" y1="372.8216" y2="372.8216"/>
    <line x1="666.0" x2="666.0" y1="377.1517" y2="382.9252"/>
    <line x1="667.25" x2="667.25" y1="383.6469" y2="377.8734"/>
    <line x1="668.5" x2="668.5" y1="378.5951" y2="384.3686"/>
    <line x1="664.75" x2="664.75" y1="382.2035" y2="376.43"/>
    <line x1="663.5" x2="663.5" y1="381.4819" y2="381.4819"/>
    <line x1="658.5" x2="658.5" y1="384.3686" y2="361.2746"/>
    <line x1="656.0" x2="656.0" y1="356.9445" y2="354.0577"/>
    <line x1="654.75" x2="654.75" y1="353.336" y2="357.6662"/>
    <line x1="652.25" x2="652.25" y1="357.6662" y2="351.8927"/>
    <line x1="651.0" x2="651.0" y1="351.171" y2="356.9445"/>
    <line x1="649.75" x2="649.75" y1="356.2228" y2="350.4493"/>
    <polyline points="648.5,355.5011 648.5,349.7276 648.5,372.8216"/>
    <line x1="658.5" x2="658.5" y1="367.0481" y2="367.0481"/>
    <line x1="657.25" x2="657.25" y1="356.2228" y2="354.7794"/>
    <line x1="658.5" x2="658.5" y1="355.5011" y2="355.5011"/>
    <line x1="663.5" x2="663.5" y1="346.8408" y2="335.2938"/>
    <line x1="662.25" x2="662.25" y1="334.5721" y2="340.3456"/>
    <line x1="661.0" x2="661.0" y1="339.624" y2="333.8505"/>
    <line x1="659.75" x2="659.75" y1="333.1288" y2="338.9023"/>
    <line x1="658.5" x2="658.5" y1="338.1806" y2="332.4071"/>
    <line x1="663.5" x2="663.5" y1="329.5203" y2="323.7468"/>
    <line x1="664.75" x2="664.75" y1="324.4685" y2="328.7986"/>
    <line x1="666.0" x2="666.0" y1="328.077" y2="325.1902"/>
    <line x1="667.25" x2="667.25" y1="325.9119" y2="327.3553"/>
    <line x1="668.5" x2="668.5" y1="326.6336" y2="326.6336"/>
    <line x1="673.5" x2="673.5" y1="335.2938" y2="346.8408"/>
    <line x1="672.25" x2="672.25" y1="346.1191" y2="336.0155"/>
    <line x1="671.0" x2="671.0" y1="336.7372" y2="345.3975"/>
    <line x1="669.75" x2="669.75" y1="344.6758" y2="337.4589"/>
    <line x1="667.25" x2="667.25" y1="338.9023" y2="349.0059"/>
    <line x1="666.0" x2="666.0" y1="348.2842" y2="339.624"/>
    <line x1="664.75" x2="664.75" y1="340.3456" y2="347.5625"/>
    <polyline points="668.5,343.9541 668.5,338.1806 668.5,355.5011"/>
    <line x1="669.75" x2="669.75" y1="356.2228" y2="350.4493"/>
    <line x1="671.0" x2="671.0" y1="351.171" y2="356.9445"/>
    <line x1="672.25" x2="672.25" y1="357.6662" y2="351.8927"/>
    <line x1="673.5" x2="673.5" y1="352.6143" y2="358.3878"/>
    <line x1="678.5" x2="678.5" y1="349.7276" y2="343.9541"/>
    <line x1="677.25" x2="677.25" y1="344.6758" y2="349.0059"/>
    <line x1="676.0" x2="676.0" y1="348.2842" y2="345.3975"/>
    <line x1="674.75" x2="674.75" y1="346.1191" y2="347.5625"/>
    <line x1="658.5" x2="658.5" y1="320.8601" y2="303.5396"/>
    <line x1="657.25" x2="657.25" y1="302.8179" y2="320.1384"/>
    <line x1="656.0" x2="656.0" y1="319.4167" y2="302.0962"/>
    <line x1="654.75" x2="654.75" y1="301.3745" y2="318.695"/>
    <line x1="653.5" x2="653.5" y1="317.9733" y2="300.6528"/>
    <line x1="653.5" x2="653.5" y1="306.4263" y2="306.4263"/>
    <line x1="653.5" x2="653.5" y1="312.1998" y2="312.1998"/>
    <line x1="643.5" x2="643.5" y1="358.3878" y2="358.3878"/>
    <line x1="638.5" x2="638.5" y1="401.6891" y2="401.6891"/>
    <line x1="641.0" x2="641.0" y1="408.906" y2="420.453"/>
    <line x1="642.25" x2="642.25" y1="421.1747" y2="409.6277"/>
    <line x1="643.5" x2="643.5" y1="410.3494" y2="421.8964"/>
    <line x1="643.5" x2="643.5" y1="416.1229" y2="416.1229"/>
    <line x1="663.5" x2="663.5" y1="421.8964" y2="439.2169"/>
    <line x1="664.75" x2="664.75" y1="439.9386" y2="422.6181"/>
    <line x1="666.0" x2="666.0" y1="423.3397" y2="440.6603"/>
    <line x1="667.25" x2="667.25" y1="441.3819" y2="424.0614"/>
    <polyline points="668.5,424.7831 668.5,442.1036 668.5,436.3301"/>
    <line x1="669.75" x2="669.75" y1="437.0518" y2="442.8253"/>
    <line x1="671.0" x2="671.0" y1="443.547" y2="437.7735"/>
    <line x1="672.25" x2="672.25" y1="438.4952" y2="444.2687"/>
    <line x1="673.5" x2="673.5" y1="444.9904" y2="439.2169"/>
    <line x1="668.5" x2="668.5" y1="430.5566" y2="430.5566"/>
    <polyline points="673.5,416.1229 673.5,404.5759 673.5,410.3494"/>
    <line x1="674.75" x2="674.75" y1="411.0711" y2="405.2976"/>
    <line x1="676.0" x2="676.0" y1="406.0192" y2="411.7927"/>
    <line x1="677.25" x2="677.25" y1="412.5144" y2="406.7409"/>
    <polygon points="678.5,407.4626 678.5,413.2361"/>
    <line x1="679.75" x2="679.75" y1="408.1843" y2="413.9578"/>
    <line x1="681.0" x2="681.0" y1="414.6795" y2="408.906"/>
    <line x1="682.25" x2="682.25" y1="409.6277" y2="415.4012"/>
    <line x1="683.5" x2="683.5" y1="416.1229" y2="410.3494"/>
    <line x1="672.25" x2="672.25" y1="415.4012" y2="403.8542"/>
    <line x1="671.0" x2="671.0" y1="403.1325" y2="414.6795"/>
    <line x1="669.75" x2="669.75" y1="413.9578" y2="402.4108"/>
    <line x1="668.5" x2="668.5" y1="401.6891" y2="413.2361"/>
    <polyline points="628.5,430.5566 628.5,453.6506 628.5,447.8771"/>
    <line x1="629.75" x2="629.75" y1="448.5988" y2="454.3723"/>
    <line x1="631.0" x2="631.0" y1="455.094" y2="449.3205"/>
    <line x1="632.25" x2="632.25" y1="450.0422" y2="455.8157"/>
    <line x1="633.5" x2="633.5" y1="456.5374" y2="450.7639"/>
    <line x1="627.25" x2="627.25" y1="452.9289" y2="429.8349"/>
    <line x1="626.0" x2="626.0" y1="429.1132" y2="452.2073"/>
    <line x1="624.75" x2="624.75" y1="451.4856" y2="428.3916"/>
    <line x1="623.5" x2="623.5" y1="427.6699" y2="450.7639"/>
    <line x1="628.5" x2="628.5" y1="442.1036" y2="442.1036"/>
    <line x1="543.5" x2="543.5" y1="462.3109" y2="468.0844"/>
    <line x1="542.25" x2="542.25" y1="467.3627" y2="461.5892"/>
    <line x1="541.0" x2="541.0" y1="460.8675" y2="466.641"/>
    <line x1="539.75" x2="539.75" y1="465.9193" y2="460.1458"/>
    <line x1="538.5" x2="538.5" y1="459.4241" y2="465.1976"/>
    <line x1="533.5" x2="533.5" y1="468.0844" y2="462.3109"/>
    <line x1="532.25" x2="532.25" y1="461.5892" y2="468.8061"/>
    <line x1="531.0" x2="531.0" y1="469.5278" y2="460.8675"/>
    <line x1="529.75" x2="529.75" y1="460.1458" y2="470.2495"/>
    <line x1="528.5" x2="528.5" y1="470.9711" y2="459.4241"/>
    <line x1="528.5" x2="528.5" y1="465.1976" y2="465.1976"/>
    <line x1="523.5" x2="523.5" y1="473.8579" y2="479.6314"/>
    <line x1="524.75" x2="524.75" y1="480.3531" y2="474.5796"/>
    <line x1="526.0" x2="526.0" y1="475.3013" y2="481.0748"/>
    <line x1="527.25" x2="527.25" y1="481.7965" y2="476.023"/>
    <polygon points="528.5,476.7446 528.5,482.5181"/>
    <line x1="529.75" x2="529.75" y1="477.4663" y2="483.2398"/>
    <line x1="531.0" x2="531.0" y1="483.9615" y2="478.188"/>
    <line x1="532.25" x2="532.25" y1="478.9097" y2="484.6832"/>
    <line x1="534.75" x2="534.75" y1="486.1266" y2="480.3531"/>
    <polygon points="533.5,479.6314 533.5,485.4049"/>
    <line x1="536.0" x2="536.0" y1="481.0748" y2="486.8483"/>
    <line x1="537.25" x2="537.25" y1="487.57" y2="481.7965"/>
    <line x1="538.5" x2="538.5" y1="482.5181" y2="488.2917"/>
    <line x1="538.5" x2="538.5" y1="494.0652" y2="499.8387"/>
    <line x1="539.75" x2="539.75" y1="500.5603" y2="494.7868"/>
    <line x1="541.0" x2="541.0" y1="495.5085" y2="501.282"/>
    <line x1="542.25" x2="542.25" y1="502.0037" y2="496.2302"/>
    <line x1="543.5" x2="543.5" y1="496.9519" y2="502.7254"/>
    <line x1="533.5" x2="533.5" y1="508.4989" y2="514.2724"/>
    <line x1="532.25" x2="532.25" y1="513.5507" y2="507.7772"/>
    <line x1="531.0" x2="531.0" y1="507.0555" y2="512.829"/>
    <line x1="529.75" x2="529.75" y1="512.1073" y2="506.3338"/>
    <line x1="528.5" x2="528.5" y1="505.6122" y2="511.3857"/>
    <line x1="533.5" x2="533.5" y1="444.9904" y2="439.2169"/>
    <line x1="532.25" x2="532.25" y1="438.4952" y2="444.2687"/>
    <line x1="531.0" x2="531.0" y1="443.547" y2="437.7735"/>
    <line x1="529.75" x2="529.75" y1="437.0518" y2="442.8253"/>
    <line x1="528.5" x2="528.5" y1="442.1036" y2="436.3301"/>
    <line x1="533.5" x2="533.5" y1="433.4434" y2="427.6699"/>
    <line x1="534.75" x2="534.75" y1="428.3916" y2="432.7217"/>
    <line x1="536.0" x2="536.0" y1="432.0" y2="429.1132"/>
    <line x1="537.25" x2="537.25" y1="429.8349" y2="431.2783"/>
    <line x1="538.5" x2="538.5" y1="430.5566" y2="430.5566"/>
    <line x1="618.5" x2="618.5" y1="534.4797" y2="551.8002"/>
    <line x1="619.75" x2="619.75" y1="552.5219" y2="535.2014"/>
    <line x1="621.0" x2="621.0" y1="535.923" y2="553.2436"/>
    <line x1="622.25" x2="622.25" y1="553.9652" y2="536.6447"/>
    <polygon points="623.5,537.3664 623.5,554.6869"/>
    <line x1="624.75" x2="624.75" y1="538.0881" y2="555.4086"/>
    <line x1="626.0" x2="626.0" y1="556.1303" y2="538.8098"/>
    <line x1="627.25" x2="627.25" y1="539.5315" y2="556.852"/>
    <line x1="629.75" x2="629.75" y1="558.2954" y2="540.9749"/>
    <polygon points="628.5,540.2532 628.5,557.5737"/>
    <line x1="631.0" x2="631.0" y1="541.6966" y2="559.0171"/>
    <line x1="632.25" x2="632.25" y1="559.7387" y2="542.4182"/>
    <line x1="633.5" x2="633.5" y1="543.1399" y2="560.4604"/>
    <line x1="628.5" x2="628.5" y1="569.1207" y2="580.6677"/>
    <line x1="627.25" x2="627.25" y1="581.3894" y2="568.399"/>
    <line x1="626.0" x2="626.0" y1="567.6773" y2="582.1111"/>
    <line x1="624.75" x2="624.75" y1="582.8328" y2="566.9556"/>
    <line x1="623.5" x2="623.5" y1="566.2339" y2="600.875"/>
    <line x1="624.75" x2="624.75" y1="601.5966" y2="584.2761"/>
    <line x1="623.5" x2="623.5" y1="583.5544" y2="589.3279"/>
    <line x1="622.25" x2="622.25" y1="588.6063" y2="584.2761"/>
    <line x1="621.0" x2="621.0" y1="584.9978" y2="587.8846"/>
    <line x1="619.75" x2="619.75" y1="587.1629" y2="585.7195"/>
    <line x1="618.5" x2="618.5" y1="586.4412" y2="586.4412"/>
    <line x1="616.0" x2="616.0" y1="590.7713" y2="567.6773"/>
    <line x1="617.25" x2="617.25" y1="568.399" y2="591.493"/>
    <line x1="618.5" x2="618.5" y1="592.2147" y2="569.1207"/>
    <line x1="614.75" x2="614.75" y1="566.9556" y2="590.0496"/>
    <line x1="613.5" x2="613.5" y1="589.3279" y2="566.2339"/>
    <line x1="618.5" x2="618.5" y1="580.6677" y2="580.6677"/>
    <line x1="626.0" x2="626.0" y1="584.9978" y2="602.3183"/>
    <line x1="627.25" x2="627.25" y1="603.04" y2="585.7195"/>
    <polygon points="628.5,586.4412 628.5,603.7617"/>
    <line x1="629.75" x2="629.75" y1="587.1629" y2="604.4834"/>
    <line x1="631.0" x2="631.0" y1="605.2051" y2="587.8846"/>
    <line x1="632.25" x2="632.25" y1="588.6063" y2="605.9268"/>
    <polygon points="633.5,606.6485 633.5,589.3279"/>
    <line x1="634.75" x2="634.75" y1="607.3701" y2="590.0496"/>
    <line x1="636.0" x2="636.0" y1="590.7713" y2="608.0918"/>
    <line x1="637.25" x2="637.25" y1="608.8135" y2="591.493"/>
    <line x1="638.5" x2="638.5" y1="592.2147" y2="609.5352"/>
    <line x1="628.5" x2="628.5" y1="615.3087" y2="621.0822"/>
    <line x1="627.25" x2="627.25" y1="620.3605" y2="616.0304"/>
    <line x1="626.0" x2="626.0" y1="616.7521" y2="619.6388"/>
    <line x1="624.75" x2="624.75" y1="618.9171" y2="617.4738"/>
    <line x1="623.5" x2="623.5" y1="618.1955" y2="612.422"/>
    <line x1="622.25" x2="622.25" y1="611.7003" y2="617.4738"/>
    <line x1="621.0" x2="621.0" y1="616.7521" y2="610.9786"/>
    <line x1="619.75" x2="619.75" y1="610.2569" y2="616.0304"/>
    <polyline points="618.5,615.3087 618.5,609.5352 618.5,621.0822"/>
    <line x1="617.25" x2="617.25" y1="620.3605" y2="608.8135"/>
    <line x1="616.0" x2="616.0" y1="608.0918" y2="619.6388"/>
    <line x1="614.75" x2="614.75" y1="618.9171" y2="607.3701"/>
    <line x1="613.5" x2="613.5" y1="606.6485" y2="618.1955"/>
    <line x1="601.0" x2="601.0" y1="639.8461" y2="657.1666"/>
    <line x1="599.75" x2="599.75" y1="656.4449" y2="639.1244"/>
    <line x1="598.5" x2="598.5" y1="638.4027" y2="655.7232"/>
    <line x1="602.25" x2="602.25" y1="657.8883" y2="640.5678"/>
    <polygon points="603.5,641.2895 603.5,658.61"/>
    <line x1="604.75" x2="604.75" y1="642.0112" y2="659.3317"/>
    <line x1="606.0" x2="606.0" y1="660.0534" y2="642.7328"/>
    <line x1="607.25" x2="607.25" y1="643.4545" y2="660.775"/>
    <polyline points="608.5,661.4967 608.5,644.1762 608.5,673.0437"/>
    <line x1="609.75" x2="609.75" y1="673.7654" y2="656.4449"/>
    <line x1="608.5" x2="608.5" y1="655.7232" y2="655.7232"/>
    <line x1="609.75" x2="609.75" y1="655.0015" y2="644.8979"/>
    <line x1="611.0" x2="611.0" y1="645.6196" y2="654.2799"/>
    <line x1="612.25" x2="612.25" y1="653.5582" y2="646.3413"/>
    <line x1="613.5" x2="613.5" y1="647.063" y2="652.8365"/>
    <line x1="611.0" x2="611.0" y1="657.1666" y2="674.4871"/>
    <line x1="612.25" x2="612.25" y1="675.2088" y2="657.8883"/>
    <polyline points="613.5,658.61 613.5,675.9305 613.5,670.157"/>
    <line x1="614.75" x2="614.75" y1="670.8787" y2="676.6522"/>
    <line x1="616.0" x2="616.0" y1="677.3739" y2="671.6004"/>
    <line x1="617.25" x2="617.25" y1="672.322" y2="678.0956"/>
    <polygon points="618.5,678.8172 618.5,673.0437"/>
    <line x1="619.75" x2="619.75" y1="679.5389" y2="673.7654"/>
    <line x1="621.0" x2="621.0" y1="674.4871" y2="680.2606"/>
    <line x1="622.25" x2="622.25" y1="680.9823" y2="675.2088"/>
    <line x1="624.75" x2="624.75" y1="676.6522" y2="680.9823"/>
    <polyline points="623.5,681.704 623.5,675.9305 623.5,687.4775"/>
    <line x1="624.75" x2="624.75" y1="688.1992" y2="682.4257"/>
    <line x1="626.0" x2="626.0" y1="683.1474" y2="688.9209"/>
    <line x1="627.25" x2="627.25" y1="689.6426" y2="683.8691"/>
    <line x1="628.5" x2="628.5" y1="684.5907" y2="690.3642"/>
    <line x1="626.0" x2="626.0" y1="680.2606" y2="677.3739"/>
    <line x1="627.25" x2="627.25" y1="678.0956" y2="679.5389"/>
    <line x1="628.5" x2="628.5" y1="678.8172" y2="678.8172"/>
    <line x1="618.5" x2="618.5" y1="696.1377" y2="701.9113"/>
    <line x1="617.25" x2="617.25" y1="701.1896" y2="695.4161"/>
    <line x1="616.0" x2="616.0" y1="694.6944" y2="700.4679"/>
    <line x1="614.75" x2="614.75" y1="699.7462" y2="693.9727"/>
    <line x1="613.5" x2="613.5" y1="693.251" y2="699.0245"/>
    <line x1="598.5" x2="598.5" y1="690.3642" y2="684.5907"/>
    <line x1="597.25" x2="597.25" y1="683.8691" y2="689.6426"/>
    <line x1="596.0" x2="596.0" y1="688.9209" y2="683.1474"/>
    <line x1="594.75" x2="594.75" y1="682.4257" y2="688.1992"/>
    <line x1="593.5" x2="593.5" y1="687.4775" y2="681.704"/>
    <line x1="598.5" x2="598.5" y1="649.9497" y2="649.9497"/>
    <line x1="638.5" x2="638.5" y1="597.9882" y2="597.9882"/>
    <line x1="633.5" x2="633.5" y1="548.9134" y2="548.9134"/>
    <line x1="618.5" x2="618.5" y1="540.2532" y2="540.2532"/>
    <line x1="733.5" x2="733.5" y1="589.3279" y2="595.1015"/>
    <line x1="734.75" x2="734.75" y1="595.8231" y2="590.0496"/>
    <line x1="736.0" x2="736.0" y1="590.7713" y2="596.5448"/>
    <line x1="737.25" x2="737.25" y1="597.2665" y2="591.493"/>
    <line x1="738.5" x2="738.5" y1="592.2147" y2="603.7617"/>
    <line x1="739.75" x2="739.75" y1="604.4834" y2="598.7099"/>
    <line x1="741.0" x2="741.0" y1="599.4316" y2="605.2051"/>
    <line x1="742.25" x2="742.25" y1="605.9268" y2="600.1533"/>
    <line x1="743.5" x2="743.5" y1="600.875" y2="606.6485"/>
    <line x1="748.5" x2="748.5" y1="609.5352" y2="603.7617"/>
    <line x1="749.75" x2="749.75" y1="604.4834" y2="610.2569"/>
    <line x1="751.0" x2="751.0" y1="610.9786" y2="605.2051"/>
    <line x1="752.25" x2="752.25" y1="605.9268" y2="611.7003"/>
    <line x1="753.5" x2="753.5" y1="612.422" y2="606.6485"/>
    <line x1="756.0" x2="756.0" y1="602.3183" y2="596.5448"/>
    <line x1="757.25" x2="757.25" y1="597.2665" y2="603.04"/>
    <line x1="758.5" x2="758.5" y1="603.7617" y2="597.9882"/>
    <line x1="754.75" x2="754.75" y1="595.8231" y2="601.5966"/>
    <line x1="753.5" x2="753.5" y1="600.875" y2="589.3279"/>
    <line x1="752.25" x2="752.25" y1="588.6063" y2="594.3798"/>
    <line x1="751.0" x2="751.0" y1="593.6581" y2="587.8846"/>
    <line x1="749.75" x2="749.75" y1="587.1629" y2="592.9364"/>
    <line x1="748.5" x2="748.5" y1="592.2147" y2="580.6677"/>
    <line x1="747.25" x2="747.25" y1="579.946" y2="585.7195"/>
    <line x1="746.0" x2="746.0" y1="584.9978" y2="579.2243"/>
    <line x1="744.75" x2="744.75" y1="578.5026" y2="584.2761"/>
    <line x1="743.5" x2="743.5" y1="583.5544" y2="577.7809"/>
    <line x1="746.0" x2="746.0" y1="573.4508" y2="556.1303"/>
    <line x1="747.25" x2="747.25" y1="556.852" y2="574.1725"/>
    <line x1="748.5" x2="748.5" y1="574.8942" y2="557.5737"/>
    <line x1="744.75" x2="744.75" y1="555.4086" y2="572.7291"/>
    <line x1="743.5" x2="743.5" y1="572.0074" y2="554.6869"/>
    <line x1="743.5" x2="743.5" y1="560.4604" y2="560.4604"/>
    <line x1="748.5" x2="748.5" y1="569.1207" y2="569.1207"/>
    <line x1="758.5" x2="758.5" y1="574.8942" y2="580.6677"/>
    <line x1="759.75" x2="759.75" y1="581.3894" y2="575.6159"/>
    <line x1="761.0" x2="761.0" y1="576.3376" y2="582.1111"/>
    <line x1="762.25" x2="762.25" y1="582.8328" y2="577.0593"/>
    <line x1="763.5" x2="763.5" y1="577.7809" y2="583.5544"/>
    <line x1="758.5" x2="758.5" y1="615.3087" y2="621.0822"/>
    <line x1="759.75" x2="759.75" y1="621.8039" y2="616.0304"/>
    <line x1="761.0" x2="761.0" y1="616.7521" y2="622.5256"/>
    <line x1="762.25" x2="762.25" y1="623.2473" y2="617.4738"/>
    <polygon points="763.5,618.1955 763.5,623.969"/>
    <line x1="764.75" x2="764.75" y1="618.9171" y2="624.6907"/>
    <line x1="766.0" x2="766.0" y1="625.4123" y2="619.6388"/>
    <line x1="767.25" x2="767.25" y1="620.3605" y2="626.134"/>
    <line x1="768.5" x2="768.5" y1="626.8557" y2="621.0822"/>
    <line x1="763.5" x2="763.5" y1="629.7425" y2="647.063"/>
    <line x1="764.75" x2="764.75" y1="647.7847" y2="630.4642"/>
    <line x1="766.0" x2="766.0" y1="631.1858" y2="648.5064"/>
    <line x1="767.25" x2="767.25" y1="649.228" y2="631.9075"/>
    <line x1="768.5" x2="768.5" y1="632.6292" y2="661.4967"/>
    <line x1="769.75" x2="769.75" y1="662.2184" y2="644.8979"/>
    <line x1="771.0" x2="771.0" y1="645.6196" y2="662.9401"/>
    <line x1="772.25" x2="772.25" y1="663.6618" y2="646.3413"/>
    <line x1="773.5" x2="773.5" y1="647.063" y2="664.3835"/>
    <line x1="773.5" x2="773.5" y1="652.8365" y2="652.8365"/>
    <line x1="768.5" x2="768.5" y1="649.9497" y2="644.1762"/>
    <line x1="763.5" x2="763.5" y1="641.2895" y2="641.2895"/>
    <line x1="743.5" x2="743.5" y1="641.2895" y2="635.516"/>
    <line x1="742.25" x2="742.25" y1="634.7943" y2="640.5678"/>
    <line x1="741.0" x2="741.0" y1="639.8461" y2="634.0726"/>
    <line x1="739.75" x2="739.75" y1="633.3509" y2="639.1244"/>
    <polygon points="738.5,638.4027 738.5,632.6292"/>
    <line x1="737.25" x2="737.25" y1="637.681" y2="631.9075"/>
    <line x1="736.0" x2="736.0" y1="631.1858" y2="636.9593"/>
    <line x1="734.75" x2="734.75" y1="636.2377" y2="630.4642"/>
    <line x1="732.25" x2="732.25" y1="629.0208" y2="652.1148"/>
    <line x1="731.0" x2="731.0" y1="651.3931" y2="628.2991"/>
    <line x1="729.75" x2="729.75" y1="627.5774" y2="650.6714"/>
    <line x1="728.5" x2="728.5" y1="649.9497" y2="626.8557"/>
    <line x1="731.0" x2="731.0" y1="622.5256" y2="616.7521"/>
    <line x1="729.75" x2="729.75" y1="616.0304" y2="621.8039"/>
    <line x1="728.5" x2="728.5" y1="621.0822" y2="615.3087"/>
    <line x1="732.25" x2="732.25" y1="617.4738" y2="623.2473"/>
    <line x1="734.75" x2="734.75" y1="624.6907" y2="618.9171"/>
    <polygon points="733.5,618.1955 733.5,623.969"/>
    <line x1="736.0" x2="736.0" y1="619.6388" y2="625.4123"/>
    <line x1="737.25" x2="737.25" y1="626.134" y2="620.3605"/>
    <line x1="739.75" x2="739.75" y1="621.8039" y2="627.5774"/>
    <line x1="741.0" x2="741.0" y1="628.2991" y2="622.5256"/>
    <line x1="742.25" x2="742.25" y1="623.2473" y2="629.0208"/>
    <line x1="743.5" x2="743.5" y1="629.7425" y2="623.969"/>
    <polygon points="738.5,626.8557 738.5,621.0822"/>
    <polyline points="733.5,635.516 733.5,629.7425 733.5,652.8365"/>
    <line x1="733.5" x2="733.5" y1="647.063" y2="647.063"/>
    <line x1="743.5" x2="743.5" y1="652.8365" y2="658.61"/>
    <line x1="744.75" x2="744.75" y1="657.8883" y2="653.5582"/>
    <line x1="746.0" x2="746.0" y1="654.2799" y2="657.1666"/>
    <line x1="747.25" x2="747.25" y1="656.4449" y2="655.0015"/>
    <line x1="748.5" x2="748.5" y1="655.7232" y2="655.7232"/>
    <line x1="743.5" x2="743.5" y1="664.3835" y2="670.157"/>
    <line x1="742.25" x2="742.25" y1="669.4353" y2="663.6618"/>
    <line x1="741.0" x2="741.0" y1="662.9401" y2="668.7136"/>
    <line x1="739.75" x2="739.75" y1="667.9919" y2="662.2184"/>
    <line x1="738.5" x2="738.5" y1="661.4967" y2="667.2702"/>
    <line x1="698.5" x2="698.5" y1="725.0053" y2="736.5523"/>
    <line x1="697.25" x2="697.25" y1="735.8306" y2="724.2836"/>
    <line x1="696.0" x2="696.0" y1="723.5619" y2="735.1089"/>
    <line x1="694.75" x2="694.75" y1="734.3872" y2="722.8402"/>
    <line x1="692.25" x2="692.25" y1="721.3968" y2="734.3872"/>
    <polygon points="693.5,733.6655 693.5,722.1185"/>
    <line x1="691.0" x2="691.0" y1="735.1089" y2="720.6751"/>
    <line x1="689.75" x2="689.75" y1="719.9534" y2="735.8306"/>
    <polyline points="688.5,736.5523 688.5,719.2318 688.5,765.4198"/>
    <line x1="689.75" x2="689.75" y1="766.1415" y2="754.5945"/>
    <line x1="688.5" x2="688.5" y1="753.8728" y2="753.8728"/>
    <line x1="687.25" x2="687.25" y1="754.5945" y2="747.3776"/>
    <line x1="688.5" x2="688.5" y1="748.0993" y2="748.0993"/>
    <line x1="689.75" x2="689.75" y1="748.821" y2="737.274"/>
    <line x1="691.0" x2="691.0" y1="737.9956" y2="749.5426"/>
    <line x1="692.25" x2="692.25" y1="750.2643" y2="738.7173"/>
    <line x1="694.75" x2="694.75" y1="740.1607" y2="745.9342"/>
    <line x1="696.0" x2="696.0" y1="746.6559" y2="740.8824"/>
    <line x1="697.25" x2="697.25" y1="741.6041" y2="747.3776"/>
    <polygon points="698.5,748.0993 698.5,742.3258"/>
    <line x1="699.75" x2="699.75" y1="748.821" y2="743.0475"/>
    <line x1="701.0" x2="701.0" y1="743.7691" y2="749.5426"/>
    <line x1="702.25" x2="702.25" y1="750.2643" y2="744.4908"/>
    <line x1="703.5" x2="703.5" y1="745.2125" y2="750.986"/>
    <polyline points="693.5,750.986 693.5,739.439 693.5,745.2125"/>
    <line x1="686.0" x2="686.0" y1="746.6559" y2="755.3162"/>
    <line x1="684.75" x2="684.75" y1="756.0378" y2="745.9342"/>
    <line x1="682.25" x2="682.25" y1="744.4908" y2="738.7173"/>
    <line x1="681.0" x2="681.0" y1="737.9956" y2="743.7691"/>
    <line x1="679.75" x2="679.75" y1="743.0475" y2="737.274"/>
    <line x1="678.5" x2="678.5" y1="736.5523" y2="742.3258"/>
    <line x1="676.0" x2="676.0" y1="746.6559" y2="761.0897"/>
    <line x1="677.25" x2="677.25" y1="760.368" y2="747.3776"/>
    <line x1="679.75" x2="679.75" y1="748.821" y2="758.9246"/>
    <line x1="681.0" x2="681.0" y1="758.2029" y2="749.5426"/>
    <line x1="682.25" x2="682.25" y1="750.2643" y2="757.4812"/>
    <polygon points="678.5,759.6463 678.5,748.0993"/>
    <line x1="674.75" x2="674.75" y1="761.8113" y2="745.9342"/>
    <line x1="673.5" x2="673.5" y1="745.2125" y2="768.3065"/>
    <line x1="674.75" x2="674.75" y1="767.5848" y2="763.2547"/>
    <line x1="676.0" x2="676.0" y1="763.9764" y2="766.8632"/>
    <line x1="677.25" x2="677.25" y1="766.1415" y2="764.6981"/>
    <line x1="678.5" x2="678.5" y1="765.4198" y2="765.4198"/>
    <line x1="673.5" x2="673.5" y1="756.7595" y2="756.7595"/>
    <polyline points="683.5,750.986 683.5,756.7595 683.5,739.439"/>
    <line x1="686.0" x2="686.0" y1="735.1089" y2="717.7884"/>
    <line x1="684.75" x2="684.75" y1="717.0667" y2="734.3872"/>
    <line x1="683.5" x2="683.5" y1="733.6655" y2="716.345"/>
    <line x1="687.25" x2="687.25" y1="718.5101" y2="735.8306"/>
    <line x1="683.5" x2="683.5" y1="727.892" y2="727.892"/>
    <line x1="691.0" x2="691.0" y1="755.3162" y2="766.8632"/>
    <line x1="692.25" x2="692.25" y1="767.5848" y2="756.0378"/>
    <line x1="694.75" x2="694.75" y1="757.4812" y2="763.2547"/>
    <polyline points="693.5,762.533 693.5,756.7595 693.5,768.3065"/>
    <line x1="696.0" x2="696.0" y1="763.9764" y2="758.2029"/>
    <line x1="697.25" x2="697.25" y1="758.9246" y2="764.6981"/>
    <line x1="699.75" x2="699.75" y1="766.1415" y2="760.368"/>
    <polygon points="698.5,759.6463 698.5,765.4198"/>
    <line x1="701.0" x2="701.0" y1="761.0897" y2="766.8632"/>
    <line x1="702.25" x2="702.25" y1="767.5848" y2="761.8113"/>
    <line x1="703.5" x2="703.5" y1="762.533" y2="768.3065"/>
    <line x1="698.5" x2="698.5" y1="776.9668" y2="782.7403"/>
    <line x1="699.75" x2="699.75" y1="783.462" y2="777.6885"/>
    <line x1="701.0" x2="701.0" y1="778.4102" y2="784.1837"/>
    <line x1="702.25" x2="702.25" y1="784.9054" y2="779.1318"/>
    <line x1="703.5" x2="703.5" y1="779.8535" y2="785.627"/>
    <line x1="708.5" x2="708.5" y1="788.5138" y2="782.7403"/>
    <line x1="709.75" x2="709.75" y1="782.0186" y2="789.2355"/>
    <line x1="711.0" x2="711.0" y1="789.9572" y2="781.2969"/>
    <line x1="712.25" x2="712.25" y1="780.5752" y2="790.6789"/>
    <line x1="714.75" x2="714.75" y1="792.1222" y2="786.3487"/>
    <polyline points="713.5,785.627 713.5,791.4005 713.5,779.8535"/>
    <line x1="716.0" x2="716.0" y1="787.0704" y2="792.8439"/>
    <line x1="717.25" x2="717.25" y1="793.5656" y2="787.7921"/>
    <line x1="718.5" x2="718.5" y1="788.5138" y2="794.2873"/>
    <line x1="693.5" x2="693.5" y1="797.174" y2="791.4005"/>
    <line x1="692.25" x2="692.25" y1="790.6789" y2="797.8957"/>
    <line x1="691.0" x2="691.0" y1="798.6174" y2="789.9572"/>
    <line x1="689.75" x2="689.75" y1="789.2355" y2="799.3391"/>
    <line x1="688.5" x2="688.5" y1="800.0608" y2="776.9668"/>
    <line x1="687.25" x2="687.25" y1="776.2451" y2="793.5656"/>
    <line x1="686.0" x2="686.0" y1="792.8439" y2="775.5234"/>
    <line x1="684.75" x2="684.75" y1="774.8017" y2="792.1222"/>
    <line x1="683.5" x2="683.5" y1="791.4005" y2="779.8535"/>
    <line x1="682.25" x2="682.25" y1="779.1318" y2="796.4524"/>
    <line x1="681.0" x2="681.0" y1="795.7307" y2="778.4102"/>
    <line x1="679.75" x2="679.75" y1="777.6885" y2="795.009"/>
    <polyline points="678.5,794.2873 678.5,776.9668 678.5,800.0608"/>
    <line x1="677.25" x2="677.25" y1="799.3391" y2="795.009"/>
    <line x1="676.0" x2="676.0" y1="795.7307" y2="798.6174"/>
    <line x1="674.75" x2="674.75" y1="797.8957" y2="796.4524"/>
    <line x1="673.5" x2="673.5" y1="797.174" y2="797.174"/>
    <line x1="676.0" x2="676.0" y1="792.8439" y2="775.5234"/>
    <line x1="677.25" x2="677.25" y1="776.2451" y2="793.5656"/>
    <line x1="674.75" x2="674.75" y1="792.1222" y2="774.8017"/>
    <line x1="672.25" x2="672.25" y1="773.3583" y2="790.6789"/>
    <line x1="671.0" x2="671.0" y1="789.9572" y2="772.6367"/>
    <line x1="669.75" x2="669.75" y1="771.915" y2="789.2355"/>
    <line x1="668.5" x2="668.5" y1="788.5138" y2="771.1933"/>
    <line x1="668.5" x2="668.5" y1="776.9668" y2="776.9668"/>
    <line x1="678.5" x2="678.5" y1="782.7403" y2="782.7403"/>
    <line x1="678.5" x2="678.5" y1="788.5138" y2="788.5138"/>
    <polygon points="673.5,791.4005 673.5,774.08"/>
    <line x1="668.5" x2="668.5" y1="794.2873" y2="800.0608"/>
    <line x1="667.25" x2="667.25" y1="799.3391" y2="793.5656"/>
    <line x1="666.0" x2="666.0" y1="792.8439" y2="798.6174"/>
    <line x1="664.75" x2="664.75" y1="797.8957" y2="792.1222"/>
    <line x1="663.5" x2="663.5" y1="791.4005" y2="797.174"/>
    <line x1="663.5" x2="663.5" y1="802.9475" y2="808.7211"/>
    <line x1="664.75" x2="664.75" y1="809.4427" y2="803.6692"/>
    <line x1="666.0" x2="666.0" y1="804.3909" y2="810.1644"/>
    <line x1="667.25" x2="667.25" y1="810.8861" y2="805.1126"/>
    <line x1="668.5" x2="668.5" y1="805.8343" y2="811.6078"/>
    <line x1="678.5" x2="678.5" y1="811.6078" y2="817.3813"/>
    <line x1="679.75" x2="679.75" y1="816.6596" y2="812.3295"/>
    <line x1="681.0" x2="681.0" y1="813.0512" y2="815.9379"/>
    <line x1="682.25" x2="682.25" y1="815.2162" y2="813.7729"/>
    <line x1="683.5" x2="683.5" y1="814.4946" y2="814.4946"/>
    <line x1="683.5" x2="683.5" y1="808.7211" y2="802.9475"/>
    <line x1="684.75" x2="684.75" y1="803.6692" y2="807.9994"/>
    <line x1="686.0" x2="686.0" y1="807.2777" y2="804.3909"/>
    <line x1="687.25" x2="687.25" y1="805.1126" y2="806.556"/>
    <line x1="688.5" x2="688.5" y1="805.8343" y2="805.8343"/>
    <line x1="683.5" x2="683.5" y1="797.174" y2="774.08"/>
    <line x1="688.5" x2="688.5" y1="788.5138" y2="794.2873"/>
    <line x1="608.5" x2="608.5" y1="725.0053" y2="719.2318"/>
    <line x1="607.25" x2="607.25" y1="718.5101" y2="724.2836"/>
    <line x1="606.0" x2="606.0" y1="723.5619" y2="717.7884"/>
    <line x1="604.75" x2="604.75" y1="717.0667" y2="722.8402"/>
    <line x1="603.5" x2="603.5" y1="722.1185" y2="716.345"/>
    <line x1="378.5" x2="378.5" y1="638.4027" y2="632.6292"/>
    <line x1="377.25" x2="377.25" y1="631.9075" y2="637.681"/>
    <line x1="376.0" x2="376.0" y1="636.9593" y2="631.1858"/>
    <line x1="374.75" x2="374.75" y1="630.4642" y2="636.2377"/>
    <line x1="372.25" x2="372.25" y1="634.7943" y2="629.0208"/>
    <polygon points="373.5,629.7425 373.5,635.516"/>
    <line x1="371.0" x2="371.0" y1="628.2991" y2="634.0726"/>
    <line x1="369.75" x2="369.75" y1="633.3509" y2="627.5774"/>
    <line x1="367.25" x2="367.25" y1="626.134" y2="637.681"/>
    <line x1="366.0" x2="366.0" y1="636.9593" y2="625.4123"/>
    <line x1="364.75" x2="364.75" y1="624.6907" y2="636.2377"/>
    <line x1="363.5" x2="363.5" y1="635.516" y2="623.969"/>
    <polyline points="368.5,632.6292 368.5,626.8557 368.5,638.4027"/>
    <line x1="373.5" x2="373.5" y1="600.875" y2="595.1015"/>
    <line x1="372.25" x2="372.25" y1="594.3798" y2="600.1533"/>
    <line x1="371.0" x2="371.0" y1="599.4316" y2="593.6581"/>
    <line x1="369.75" x2="369.75" y1="592.9364" y2="598.7099"/>
    <polyline points="368.5,597.9882 368.5,586.4412 368.5,592.2147"/>
    <line x1="367.25" x2="367.25" y1="591.493" y2="585.7195"/>
    <line x1="366.0" x2="366.0" y1="584.9978" y2="590.7713"/>
    <line x1="364.75" x2="364.75" y1="590.0496" y2="584.2761"/>
    <line x1="363.5" x2="363.5" y1="583.5544" y2="589.3279"/>
    <line x1="369.75" x2="369.75" y1="591.493" y2="587.1629"/>
    <line x1="371.0" x2="371.0" y1="587.8846" y2="590.7713"/>
    <line x1="372.25" x2="372.25" y1="590.0496" y2="588.6063"/>
    <line x1="373.5" x2="373.5" y1="589.3279" y2="589.3279"/>
    <line x1="383.5" x2="383.5" y1="589.3279" y2="595.1015"/>
    <line x1="384.75" x2="384.75" y1="595.8231" y2="590.0496"/>
    <line x1="386.0" x2="386.0" y1="590.7713" y2="596.5448"/>
    <line x1="387.25" x2="387.25" y1="597.2665" y2="591.493"/>
    <line x1="388.5" x2="388.5" y1="592.2147" y2="597.9882"/>
    <line x1="383.5" x2="383.5" y1="566.2339" y2="560.4604"/>
    <line x1="382.25" x2="382.25" y1="559.7387" y2="565.5122"/>
    <line x1="381.0" x2="381.0" y1="564.7906" y2="559.0171"/>
    <line x1="379.75" x2="379.75" y1="558.2954" y2="564.0689"/>
    <line x1="377.25" x2="377.25" y1="562.6255" y2="552.5219"/>
    <line x1="378.5" x2="378.5" y1="551.8002" y2="551.8002"/>
    <line x1="379.75" x2="379.75" y1="552.5219" y2="535.2014"/>
    <line x1="381.0" x2="381.0" y1="535.923" y2="553.2436"/>
    <line x1="382.25" x2="382.25" y1="553.9652" y2="536.6447"/>
    <line x1="383.5" x2="383.5" y1="537.3664" y2="554.6869"/>
    <polyline points="378.5,557.5737 378.5,563.3472 378.5,528.7062"/>
    <line x1="379.75" x2="379.75" y1="529.4279" y2="533.758"/>
    <line x1="381.0" x2="381.0" y1="533.0363" y2="530.1495"/>
    <line x1="382.25" x2="382.25" y1="530.8712" y2="532.3146"/>
    <line x1="383.5" x2="383.5" y1="531.5929" y2="531.5929"/>
    <line x1="386.0" x2="386.0" y1="527.2628" y2="504.1688"/>
    <line x1="387.25" x2="387.25" y1="504.8905" y2="527.9845"/>
    <polyline points="388.5,528.7062 388.5,505.6122 388.5,522.9327"/>
    <line x1="389.75" x2="389.75" y1="523.6544" y2="506.3338"/>
    <line x1="391.0" x2="391.0" y1="507.0555" y2="524.376"/>
    <line x1="392.25" x2="392.25" y1="525.0977" y2="507.7772"/>
    <polygon points="393.5,508.4989 393.5,525.8194"/>
    <line x1="394.75" x2="394.75" y1="509.2206" y2="526.5411"/>
    <line x1="396.0" x2="396.0" y1="527.2628" y2="509.9423"/>
    <line x1="397.25" x2="397.25" y1="510.664" y2="527.9845"/>
    <line x1="398.5" x2="398.5" y1="528.7062" y2="511.3857"/>
    <line x1="398.5" x2="398.5" y1="517.1592" y2="517.1592"/>
    <line x1="383.5" x2="383.5" y1="514.2724" y2="514.2724"/>
    <line x1="383.5" x2="383.5" y1="520.0459" y2="520.0459"/>
    <line x1="383.5" x2="383.5" y1="525.8194" y2="496.9519"/>
    <line x1="382.25" x2="382.25" y1="496.2302" y2="502.0037"/>
    <line x1="381.0" x2="381.0" y1="501.282" y2="495.5085"/>
    <line x1="379.75" x2="379.75" y1="494.7868" y2="500.5603"/>
    <line x1="378.5" x2="378.5" y1="499.8387" y2="494.0652"/>
    <line x1="383.5" x2="383.5" y1="491.1784" y2="485.4049"/>
    <line x1="384.75" x2="384.75" y1="486.1266" y2="491.9001"/>
    <line x1="386.0" x2="386.0" y1="492.6218" y2="486.8483"/>
    <line x1="387.25" x2="387.25" y1="487.57" y2="493.3435"/>
    <line x1="388.5" x2="388.5" y1="494.0652" y2="488.2917"/>
    <line x1="391.0" x2="391.0" y1="483.9615" y2="478.188"/>
    <line x1="392.25" x2="392.25" y1="478.9097" y2="484.6832"/>
    <line x1="393.5" x2="393.5" y1="485.4049" y2="479.6314"/>
    <line x1="389.75" x2="389.75" y1="477.4663" y2="483.2398"/>
    <line x1="388.5" x2="388.5" y1="482.5181" y2="476.7446"/>
    <line x1="383.5" x2="383.5" y1="473.8579" y2="456.5374"/>
    <line x1="382.25" x2="382.25" y1="455.8157" y2="473.1362"/>
    <line x1="381.0" x2="381.0" y1="472.4145" y2="455.094"/>
    <line x1="379.75" x2="379.75" y1="454.3723" y2="471.6928"/>
    <line x1="378.5" x2="378.5" y1="470.9711" y2="453.6506"/>
    <line x1="383.5" x2="383.5" y1="462.3109" y2="462.3109"/>
    <line x1="378.5" x2="378.5" y1="465.1976" y2="465.1976"/>
    <line x1="383.5" x2="383.5" y1="468.0844" y2="468.0844"/>
    <line x1="368.5" x2="368.5" y1="494.0652" y2="511.3857"/>
    <line x1="369.75" x2="369.75" y1="512.1073" y2="494.7868"/>
    <line x1="371.0" x2="371.0" y1="495.5085" y2="512.829"/>
    <line x1="372.25" x2="372.25" y1="513.5507" y2="496.2302"/>
    <line x1="373.5" x2="373.5" y1="496.9519" y2="514.2724"/>
    <line x1="368.5" x2="368.5" y1="505.6122" y2="505.6122"/>
    <line x1="373.5" x2="373.5" y1="502.7254" y2="502.7254"/>
    <line x1="384.75" x2="384.75" y1="503.4471" y2="526.5411"/>
    <line x1="383.5" x2="383.5" y1="543.1399" y2="543.1399"/>
    <line x1="373.5" x2="373.5" y1="548.9134" y2="560.4604"/>
    <line x1="374.75" x2="374.75" y1="561.1821" y2="553.9652"/>
    <line x1="376.0" x2="376.0" y1="553.2436" y2="561.9038"/>
    <line x1="372.25" x2="372.25" y1="553.9652" y2="548.1917"/>
    <line x1="371.0" x2="371.0" y1="547.4701" y2="553.2436"/>
    <line x1="369.75" x2="369.75" y1="552.5219" y2="546.7484"/>
    <polygon points="368.5,546.0267 368.5,551.8002"/>
    <line x1="367.25" x2="367.25" y1="545.305" y2="551.0785"/>
    <line x1="366.0" x2="366.0" y1="550.3568" y2="544.5833"/>
    <line x1="364.75" x2="364.75" y1="543.8616" y2="549.6351"/>
    <polygon points="363.5,548.9134 363.5,543.1399"/>
    <line x1="362.25" x2="362.25" y1="548.1917" y2="542.4182"/>
    <line x1="361.0" x2="361.0" y1="541.6966" y2="547.4701"/>
    <line x1="359.75" x2="359.75" y1="546.7484" y2="540.9749"/>
    <line x1="358.5" x2="358.5" y1="540.2532" y2="546.0267"/>
    <line x1="308.5" x2="308.5" y1="638.4027" y2="655.7232"/>
    <line x1="309.75" x2="309.75" y1="656.4449" y2="639.1244"/>
    <line x1="311.0" x2="311.0" y1="639.8461" y2="657.1666"/>
    <line x1="312.25" x2="312.25" y1="657.8883" y2="640.5678"/>
    <line x1="313.5" x2="313.5" y1="641.2895" y2="658.61"/>
    <line x1="313.5" x2="313.5" y1="652.8365" y2="652.8365"/>
    <line x1="308.5" x2="308.5" y1="644.1762" y2="644.1762"/>
    <line x1="263.5" x2="263.5" y1="468.0844" y2="462.3109"/>
    <line x1="262.25" x2="262.25" y1="461.5892" y2="467.3627"/>
    <line x1="261.0" x2="261.0" y1="466.641" y2="460.8675"/>
    <line x1="259.75" x2="259.75" y1="460.1458" y2="465.9193"/>
    <line x1="258.5" x2="258.5" y1="465.1976" y2="459.4241"/>
    <line x1="273.5" x2="273.5" y1="450.7639" y2="444.9904"/>
    <line x1="274.75" x2="274.75" y1="445.7121" y2="451.4856"/>
    <line x1="276.0" x2="276.0" y1="452.2073" y2="446.4338"/>
    <line x1="277.25" x2="277.25" y1="447.1554" y2="452.9289"/>
    <polygon points="278.5,453.6506 278.5,447.8771"/>
    <line x1="279.75" x2="279.75" y1="454.3723" y2="448.5988"/>
    <line x1="281.0" x2="281.0" y1="449.3205" y2="455.094"/>
    <line x1="282.25" x2="282.25" y1="455.8157" y2="450.0422"/>
    <line x1="284.75" x2="284.75" y1="451.4856" y2="457.2591"/>
    <line x1="286.0" x2="286.0" y1="457.9808" y2="452.2073"/>
    <line x1="287.25" x2="287.25" y1="452.9289" y2="458.7024"/>
    <line x1="288.5" x2="288.5" y1="459.4241" y2="453.6506"/>
    <polygon points="283.5,456.5374 283.5,450.7639"/>
    <line x1="283.5" x2="283.5" y1="421.8964" y2="416.1229"/>
    <line x1="282.25" x2="282.25" y1="416.8446" y2="421.1747"/>
    <line x1="281.0" x2="281.0" y1="420.453" y2="417.5662"/>
    <line x1="279.75" x2="279.75" y1="418.2879" y2="419.7313"/>
    <line x1="278.5" x2="278.5" y1="419.0096" y2="413.2361"/>
    <line x1="277.25" x2="277.25" y1="412.5144" y2="418.2879"/>
    <line x1="276.0" x2="276.0" y1="417.5662" y2="411.7927"/>
    <line x1="274.75" x2="274.75" y1="411.0711" y2="416.8446"/>
    <line x1="273.5" x2="273.5" y1="416.1229" y2="404.5759"/>
    <line x1="274.75" x2="274.75" y1="405.2976" y2="409.6277"/>
    <line x1="276.0" x2="276.0" y1="408.906" y2="406.0192"/>
    <line x1="277.25" x2="277.25" y1="406.7409" y2="408.1843"/>
    <line x1="278.5" x2="278.5" y1="407.4626" y2="407.4626"/>
    <line x1="283.5" x2="283.5" y1="404.5759" y2="393.0289"/>
    <line x1="282.25" x2="282.25" y1="392.3072" y2="398.0807"/>
    <line x1="281.0" x2="281.0" y1="397.359" y2="391.5855"/>
    <line x1="279.75" x2="279.75" y1="390.8638" y2="396.6373"/>
    <line x1="278.5" x2="278.5" y1="395.9156" y2="384.3686"/>
    <line x1="277.25" x2="277.25" y1="383.6469" y2="389.4204"/>
    <line x1="276.0" x2="276.0" y1="388.6987" y2="382.9252"/>
    <line x1="274.75" x2="274.75" y1="382.2035" y2="387.977"/>
    <line x1="273.5" x2="273.5" y1="387.2554" y2="381.4819"/>
    <line x1="284.75" x2="284.75" y1="399.524" y2="405.2976"/>
    <line x1="286.0" x2="286.0" y1="406.0192" y2="400.2457"/>
    <line x1="287.25" x2="287.25" y1="400.9674" y2="406.7409"/>
    <line x1="288.5" x2="288.5" y1="407.4626" y2="401.6891"/>
    <line x1="272.25" x2="272.25" y1="409.6277" y2="411.0711"/>
    <line x1="271.0" x2="271.0" y1="411.7927" y2="408.906"/>
    <line x1="269.75" x2="269.75" y1="408.1843" y2="412.5144"/>
    <line x1="268.5" x2="268.5" y1="413.2361" y2="407.4626"/>
    <line x1="263.5" x2="263.5" y1="416.1229" y2="427.6699"/>
    <line x1="262.25" x2="262.25" y1="426.9482" y2="421.1747"/>
    <line x1="263.5" x2="263.5" y1="421.8964" y2="421.8964"/>
    <line x1="264.75" x2="264.75" y1="422.6181" y2="416.8446"/>
    <line x1="266.0" x2="266.0" y1="417.5662" y2="423.3397"/>
    <line x1="267.25" x2="267.25" y1="424.0614" y2="418.2879"/>
    <line x1="268.5" x2="268.5" y1="419.0096" y2="424.7831"/>
    <line x1="261.0" x2="261.0" y1="426.2265" y2="420.453"/>
    <line x1="259.75" x2="259.75" y1="419.7313" y2="425.5048"/>
    <line x1="258.5" x2="258.5" y1="424.7831" y2="419.0096"/>
    <line x1="233.5" x2="233.5" y1="381.4819" y2="375.7083"/>
    <line x1="232.25" x2="232.25" y1="374.9867" y2="380.7602"/>
    <line x1="231.0" x2="231.0" y1="380.0385" y2="374.265"/>
    <line x1="229.75" x2="229.75" y1="373.5433" y2="379.3168"/>
    <polygon points="228.5,378.5951 228.5,372.8216"/>
    <line x1="227.25" x2="227.25" y1="377.8734" y2="372.0999"/>
    <line x1="226.0" x2="226.0" y1="371.3782" y2="377.1517"/>
    <line x1="224.75" x2="224.75" y1="376.43" y2="370.6565"/>
    <polygon points="223.5,369.9348 223.5,375.7083"/>
    <line x1="222.25" x2="222.25" y1="369.2132" y2="374.9867"/>
    <line x1="221.0" x2="221.0" y1="374.265" y2="368.4915"/>
    <line x1="219.75" x2="219.75" y1="367.7698" y2="373.5433"/>
    <line x1="218.5" x2="218.5" y1="372.8216" y2="367.0481"/>
    <line x1="218.5" x2="218.5" y1="361.2746" y2="355.5011"/>
    <line x1="217.25" x2="217.25" y1="356.2228" y2="360.5529"/>
    <line x1="216.0" x2="216.0" y1="359.8312" y2="356.9445"/>
    <line x1="214.75" x2="214.75" y1="357.6662" y2="359.1095"/>
    <line x1="213.5" x2="213.5" y1="358.3878" y2="352.6143"/>
    <line x1="212.25" x2="212.25" y1="351.8927" y2="357.6662"/>
    <line x1="211.0" x2="211.0" y1="356.9445" y2="351.171"/>
    <line x1="209.75" x2="209.75" y1="350.4493" y2="356.2228"/>
    <polygon points="208.5,355.5011 208.5,349.7276"/>
    <line x1="207.25" x2="207.25" y1="356.2228" y2="349.0059"/>
    <line x1="206.0" x2="206.0" y1="348.2842" y2="356.9445"/>
    <line x1="204.75" x2="204.75" y1="357.6662" y2="347.5625"/>
    <polyline points="203.5,346.8408 203.5,358.3878 203.5,352.6143"/>
    <line x1="202.25" x2="202.25" y1="351.8927" y2="357.6662"/>
    <line x1="201.0" x2="201.0" y1="356.9445" y2="351.171"/>
    <line x1="199.75" x2="199.75" y1="350.4493" y2="356.2228"/>
    <line x1="198.5" x2="198.5" y1="355.5011" y2="349.7276"/>
    <line x1="193.5" x2="193.5" y1="346.8408" y2="358.3878"/>
    <line x1="192.25" x2="192.25" y1="357.6662" y2="347.5625"/>
    <line x1="191.0" x2="191.0" y1="348.2842" y2="356.9445"/>
    <line x1="189.75" x2="189.75" y1="356.2228" y2="349.0059"/>
    <line x1="188.5" x2="188.5" y1="349.7276" y2="349.7276"/>
    <line x1="187.25" x2="187.25" y1="349.0059" y2="331.6854"/>
    <line x1="186.0" x2="186.0" y1="330.9637" y2="348.2842"/>
    <line x1="184.75" x2="184.75" y1="347.5625" y2="330.242"/>
    <line x1="183.5" x2="183.5" y1="329.5203" y2="346.8408"/>
    <line x1="188.5" x2="188.5" y1="338.1806" y2="338.1806"/>
    <line x1="183.5" x2="183.5" y1="335.2938" y2="335.2938"/>
    <line x1="188.5" x2="188.5" y1="332.4071" y2="355.5011"/>
    <line x1="183.5" x2="183.5" y1="364.1613" y2="369.9348"/>
    <line x1="184.75" x2="184.75" y1="370.6565" y2="364.883"/>
    <line x1="186.0" x2="186.0" y1="365.6047" y2="371.3782"/>
    <line x1="187.25" x2="187.25" y1="372.0999" y2="366.3264"/>
    <line x1="189.75" x2="189.75" y1="367.7698" y2="390.8638"/>
    <line x1="191.0" x2="191.0" y1="391.5855" y2="368.4915"/>
    <line x1="192.25" x2="192.25" y1="369.2132" y2="392.3072"/>
    <polyline points="193.5,393.0289 193.5,369.9348 193.5,375.7083"/>
    <line x1="194.75" x2="194.75" y1="376.43" y2="370.6565"/>
    <line x1="196.0" x2="196.0" y1="371.3782" y2="377.1517"/>
    <line x1="197.25" x2="197.25" y1="377.8734" y2="372.0999"/>
    <line x1="198.5" x2="198.5" y1="372.8216" y2="384.3686"/>
    <line x1="199.75" x2="199.75" y1="385.0903" y2="379.3168"/>
    <line x1="201.0" x2="201.0" y1="380.0385" y2="385.812"/>
    <line x1="202.25" x2="202.25" y1="386.5337" y2="380.7602"/>
    <line x1="203.5" x2="203.5" y1="381.4819" y2="393.0289"/>
    <line x1="204.75" x2="204.75" y1="393.7505" y2="387.977"/>
    <line x1="206.0" x2="206.0" y1="388.6987" y2="394.4722"/>
    <line x1="207.25" x2="207.25" y1="395.1939" y2="389.4204"/>
    <line x1="208.5" x2="208.5" y1="390.1421" y2="407.4626"/>
    <line x1="207.25" x2="207.25" y1="406.7409" y2="400.9674"/>
    <line x1="208.5" x2="208.5" y1="401.6891" y2="401.6891"/>
    <line x1="209.75" x2="209.75" y1="402.4108" y2="396.6373"/>
    <line x1="211.0" x2="211.0" y1="397.359" y2="403.1325"/>
    <line x1="212.25" x2="212.25" y1="403.8542" y2="398.0807"/>
    <line x1="213.5" x2="213.5" y1="398.8024" y2="404.5759"/>
    <line x1="206.0" x2="206.0" y1="406.0192" y2="400.2457"/>
    <line x1="204.75" x2="204.75" y1="399.524" y2="405.2976"/>
    <line x1="203.5" x2="203.5" y1="404.5759" y2="398.8024"/>
    <line x1="198.5" x2="198.5" y1="407.4626" y2="407.4626"/>
    <line x1="197.25" x2="197.25" y1="408.1843" y2="406.7409"/>
    <line x1="196.0" x2="196.0" y1="406.0192" y2="408.906"/>
    <line x1="194.75" x2="194.75" y1="409.6277" y2="405.2976"/>
    <line x1="193.5" x2="193.5" y1="404.5759" y2="410.3494"/>
    <line x1="191.0" x2="191.0" y1="414.6795" y2="420.453"/>
    <line x1="189.75" x2="189.75" y1="419.7313" y2="413.9578"/>
    <line x1="188.5" x2="188.5" y1="413.2361" y2="419.0096"/>
    <line x1="192.25" x2="192.25" y1="421.1747" y2="415.4012"/>
    <line x1="193.5" x2="193.5" y1="416.1229" y2="421.8964"/>
    <line x1="203.5" x2="203.5" y1="421.8964" y2="421.8964"/>
    <line x1="206.0" x2="206.0" y1="417.5662" y2="434.8868"/>
    <line x1="207.25" x2="207.25" y1="435.6084" y2="418.2879"/>
    <polyline points="208.5,419.0096 208.5,436.3301 208.5,430.5566"/>
    <line x1="209.75" x2="209.75" y1="431.2783" y2="437.0518"/>
    <line x1="211.0" x2="211.0" y1="437.7735" y2="432.0"/>
    <line x1="212.25" x2="212.25" y1="432.7217" y2="438.4952"/>
    <line x1="213.5" x2="213.5" y1="439.2169" y2="433.4434"/>
    <line x1="204.75" x2="204.75" y1="434.1651" y2="416.8446"/>
    <line x1="203.5" x2="203.5" y1="416.1229" y2="439.2169"/>
    <line x1="202.25" x2="202.25" y1="438.4952" y2="432.7217"/>
    <line x1="203.5" x2="203.5" y1="433.4434" y2="433.4434"/>
    <line x1="201.0" x2="201.0" y1="432.0" y2="437.7735"/>
    <line x1="199.75" x2="199.75" y1="437.0518" y2="431.2783"/>
    <line x1="198.5" x2="198.5" y1="430.5566" y2="436.3301"/>
    <line x1="203.5" x2="203.5" y1="427.6699" y2="427.6699"/>
    <line x1="203.5" x2="203.5" y1="444.9904" y2="450.7639"/>
    <line x1="204.75" x2="204.75" y1="451.4856" y2="445.7121"/>
    <line x1="206.0" x2="206.0" y1="446.4338" y2="452.2073"/>
    <line x1="207.25" x2="207.25" y1="452.9289" y2="447.1554"/>
    <line x1="208.5" x2="208.5" y1="447.8771" y2="459.4241"/>
    <line x1="209.75" x2="209.75" y1="460.1458" y2="454.3723"/>
    <line x1="211.0" x2="211.0" y1="455.094" y2="460.8675"/>
    <line x1="212.25" x2="212.25" y1="461.5892" y2="455.8157"/>
    <line x1="213.5" x2="213.5" y1="456.5374" y2="468.0844"/>
    <line x1="214.75" x2="214.75" y1="468.8061" y2="463.0326"/>
    <line x1="216.0" x2="216.0" y1="463.7543" y2="469.5278"/>
    <line x1="217.25" x2="217.25" y1="470.2495" y2="464.476"/>
    <line x1="218.5" x2="218.5" y1="465.1976" y2="470.9711"/>
    <line x1="203.5" x2="203.5" y1="468.0844" y2="473.8579"/>
    <line x1="202.25" x2="202.25" y1="473.1362" y2="467.3627"/>
    <line x1="201.0" x2="201.0" y1="466.641" y2="472.4145"/>
    <line x1="199.75" x2="199.75" y1="471.6928" y2="465.9193"/>
    <line x1="198.5" x2="198.5" y1="465.1976" y2="470.9711"/>
    <line x1="178.5" x2="178.5" y1="470.9711" y2="465.1976"/>
    <line x1="177.25" x2="177.25" y1="464.476" y2="470.2495"/>
    <line x1="176.0" x2="176.0" y1="469.5278" y2="463.7543"/>
    <line x1="174.75" x2="174.75" y1="463.0326" y2="468.8061"/>
    <line x1="172.25" x2="172.25" y1="467.3627" y2="461.5892"/>
    <polygon points="173.5,462.3109 173.5,468.0844"/>
    <line x1="171.0" x2="171.0" y1="460.8675" y2="466.641"/>
    <line x1="169.75" x2="169.75" y1="465.9193" y2="460.1458"/>
    <line x1="167.25" x2="167.25" y1="458.7024" y2="470.2495"/>
    <polyline points="168.5,470.9711 168.5,459.4241 168.5,465.1976"/>
    <line x1="166.0" x2="166.0" y1="469.5278" y2="457.9808"/>
    <line x1="164.75" x2="164.75" y1="457.2591" y2="468.8061"/>
    <line x1="163.5" x2="163.5" y1="468.0844" y2="450.7639"/>
    <line x1="162.25" x2="162.25" y1="450.0422" y2="455.8157"/>
    <line x1="161.0" x2="161.0" y1="455.094" y2="449.3205"/>
    <line x1="159.75" x2="159.75" y1="448.5988" y2="454.3723"/>
    <line x1="158.5" x2="158.5" y1="453.6506" y2="447.8771"/>
    <line x1="163.5" x2="163.5" y1="444.9904" y2="439.2169"/>
    <line x1="164.75" x2="164.75" y1="439.9386" y2="445.7121"/>
    <line x1="166.0" x2="166.0" y1="446.4338" y2="440.6603"/>
    <line x1="167.25" x2="167.25" y1="441.3819" y2="447.1554"/>
    <line x1="168.5" x2="168.5" y1="447.8771" y2="442.1036"/>
    <line x1="171.0" x2="171.0" y1="437.7735" y2="432.0"/>
    <line x1="169.75" x2="169.75" y1="431.2783" y2="437.0518"/>
    <line x1="168.5" x2="168.5" y1="436.3301" y2="430.5566"/>
    <line x1="172.25" x2="172.25" y1="432.7217" y2="438.4952"/>
    <line x1="173.5" x2="173.5" y1="439.2169" y2="433.4434"/>
    <line x1="148.5" x2="148.5" y1="430.5566" y2="430.5566"/>
    <line x1="147.25" x2="147.25" y1="431.2783" y2="429.8349"/>
    <line x1="146.0" x2="146.0" y1="429.1132" y2="432.0"/>
    <line x1="144.75" x2="144.75" y1="432.7217" y2="428.3916"/>
    <line x1="142.25" x2="142.25" y1="426.9482" y2="434.1651"/>
    <line x1="141.0" x2="141.0" y1="434.8868" y2="426.2265"/>
    <line x1="139.75" x2="139.75" y1="425.5048" y2="435.6084"/>
    <line x1="138.5" x2="138.5" y1="436.3301" y2="436.3301"/>
    <line x1="139.75" x2="139.75" y1="437.0518" y2="454.3723"/>
    <line x1="141.0" x2="141.0" y1="455.094" y2="437.7735"/>
    <line x1="142.25" x2="142.25" y1="438.4952" y2="455.8157"/>
    <line x1="143.5" x2="143.5" y1="456.5374" y2="439.2169"/>
    <line x1="143.5" x2="143.5" y1="444.9904" y2="444.9904"/>
    <polyline points="138.5,442.1036 138.5,424.7831 138.5,453.6506"/>
    <line x1="143.5" x2="143.5" y1="450.7639" y2="450.7639"/>
    <line x1="138.5" x2="138.5" y1="447.8771" y2="447.8771"/>
    <line x1="133.5" x2="133.5" y1="444.9904" y2="421.8964"/>
    <line x1="134.75" x2="134.75" y1="422.6181" y2="439.9386"/>
    <line x1="136.0" x2="136.0" y1="440.6603" y2="423.3397"/>
    <line x1="137.25" x2="137.25" y1="424.0614" y2="441.3819"/>
    <line x1="133.5" x2="133.5" y1="439.2169" y2="439.2169"/>
    <line x1="132.25" x2="132.25" y1="438.4952" y2="444.2687"/>
    <line x1="131.0" x2="131.0" y1="443.547" y2="437.7735"/>
    <line x1="129.75" x2="129.75" y1="437.0518" y2="442.8253"/>
    <line x1="127.25" x2="127.25" y1="441.3819" y2="435.6084"/>
    <polygon points="128.5,436.3301 128.5,442.1036"/>
    <line x1="126.0" x2="126.0" y1="434.8868" y2="440.6603"/>
    <line x1="124.75" x2="124.75" y1="439.9386" y2="434.1651"/>
    <line x1="122.25" x2="122.25" y1="432.7217" y2="438.4952"/>
    <polygon points="123.5,439.2169 123.5,433.4434"/>
    <line x1="121.0" x2="121.0" y1="437.7735" y2="432.0"/>
    <line x1="119.75" x2="119.75" y1="431.2783" y2="437.0518"/>
    <line x1="118.5" x2="118.5" y1="436.3301" y2="430.5566"/>
    <line x1="138.5" x2="138.5" y1="430.5566" y2="430.5566"/>
    <polygon points="143.5,433.4434 143.5,427.6699"/>
    <line x1="153.5" x2="153.5" y1="416.1229" y2="410.3494"/>
    <line x1="152.25" x2="152.25" y1="411.0711" y2="415.4012"/>
    <line x1="151.0" x2="151.0" y1="414.6795" y2="411.7927"/>
    <line x1="149.75" x2="149.75" y1="412.5144" y2="413.9578"/>
    <line x1="148.5" x2="148.5" y1="413.2361" y2="407.4626"/>
    <line x1="147.25" x2="147.25" y1="406.7409" y2="412.5144"/>
    <line x1="146.0" x2="146.0" y1="411.7927" y2="406.0192"/>
    <line x1="144.75" x2="144.75" y1="405.2976" y2="411.0711"/>
    <polygon points="143.5,410.3494 143.5,404.5759"/>
    <line x1="142.25" x2="142.25" y1="409.6277" y2="403.8542"/>
    <line x1="141.0" x2="141.0" y1="403.1325" y2="408.906"/>
    <line x1="139.75" x2="139.75" y1="408.1843" y2="402.4108"/>
    <line x1="137.25" x2="137.25" y1="400.9674" y2="406.7409"/>
    <line x1="136.0" x2="136.0" y1="406.0192" y2="400.2457"/>
    <line x1="134.75" x2="134.75" y1="399.524" y2="405.2976"/>
    <line x1="133.5" x2="133.5" y1="404.5759" y2="398.8024"/>
    <polygon points="138.5,407.4626 138.5,401.6891"/>
    <line x1="148.5" x2="148.5" y1="401.6891" y2="395.9156"/>
    <line x1="149.75" x2="149.75" y1="396.6373" y2="402.4108"/>
    <line x1="151.0" x2="151.0" y1="403.1325" y2="397.359"/>
    <line x1="152.25" x2="152.25" y1="398.0807" y2="403.8542"/>
    <line x1="153.5" x2="153.5" y1="404.5759" y2="398.8024"/>
    <polyline points="153.5,393.0289 153.5,369.9348 153.5,387.2554"/>
    <line x1="152.25" x2="152.25" y1="386.5337" y2="369.2132"/>
    <line x1="151.0" x2="151.0" y1="368.4915" y2="385.812"/>
    <line x1="149.75" x2="149.75" y1="385.0903" y2="367.7698"/>
    <line x1="149.75" x2="149.75" y1="366.3264" y2="361.9963"/>
    <line x1="151.0" x2="151.0" y1="362.718" y2="365.6047"/>
    <line x1="152.25" x2="152.25" y1="364.883" y2="363.4397"/>
    <line x1="153.5" x2="153.5" y1="364.1613" y2="364.1613"/>
    <line x1="148.5" x2="148.5" y1="361.2746" y2="384.3686"/>
    <line x1="148.5" x2="148.5" y1="378.5951" y2="372.8216"/>
    <line x1="147.25" x2="147.25" y1="372.0999" y2="377.8734"/>
    <line x1="146.0" x2="146.0" y1="377.1517" y2="371.3782"/>
    <line x1="144.75" x2="144.75" y1="370.6565" y2="376.43"/>
    <line x1="143.5" x2="143.5" y1="375.7083" y2="369.9348"/>
    <line x1="154.75" x2="154.75" y1="370.6565" y2="392.3072"/>
    <line x1="156.0" x2="156.0" y1="391.5855" y2="371.3782"/>
    <line x1="157.25" x2="157.25" y1="372.0999" y2="390.8638"/>
    <polygon points="158.5,390.1421 158.5,372.8216"/>
    <line x1="159.75" x2="159.75" y1="390.8638" y2="373.5433"/>
    <line x1="161.0" x2="161.0" y1="374.265" y2="391.5855"/>
    <line x1="162.25" x2="162.25" y1="392.3072" y2="374.9867"/>
    <line x1="163.5" x2="163.5" y1="375.7083" y2="393.0289"/>
    <line x1="163.5" x2="163.5" y1="381.4819" y2="381.4819"/>
    <line x1="153.5" x2="153.5" y1="375.7083" y2="375.7083"/>
    <line x1="148.5" x2="148.5" y1="355.5011" y2="349.7276"/>
    <line x1="147.25" x2="147.25" y1="349.0059" y2="354.7794"/>
    <line x1="146.0" x2="146.0" y1="354.0577" y2="348.2842"/>
    <line x1="144.75" x2="144.75" y1="347.5625" y2="353.336"/>
    <line x1="143.5" x2="143.5" y1="352.6143" y2="346.8408"/>
    <line x1="148.5" x2="148.5" y1="343.9541" y2="338.1806"/>
    <line x1="149.75" x2="149.75" y1="338.9023" y2="343.2324"/>
    <line x1="151.0" x2="151.0" y1="342.5107" y2="339.624"/>
    <line x1="152.25" x2="152.25" y1="340.3456" y2="341.789"/>
    <line x1="153.5" x2="153.5" y1="341.0673" y2="341.0673"/>
    <polyline points="188.5,372.8216 188.5,367.0481 188.5,390.1421"/>
    <line x1="193.5" x2="193.5" y1="387.2554" y2="387.2554"/>
    <line x1="208.5" x2="208.5" y1="384.3686" y2="378.5951"/>
    <line x1="209.75" x2="209.75" y1="379.3168" y2="385.0903"/>
    <line x1="211.0" x2="211.0" y1="385.812" y2="380.0385"/>
    <line x1="212.25" x2="212.25" y1="380.7602" y2="386.5337"/>
    <polygon points="213.5,387.2554 213.5,381.4819"/>
    <line x1="214.75" x2="214.75" y1="387.977" y2="382.2035"/>
    <line x1="216.0" x2="216.0" y1="382.9252" y2="388.6987"/>
    <line x1="217.25" x2="217.25" y1="389.4204" y2="383.6469"/>
    <line x1="218.5" x2="218.5" y1="384.3686" y2="390.1421"/>
    <line x1="236.0" x2="236.0" y1="359.8312" y2="354.0577"/>
    <line x1="237.25" x2="237.25" y1="354.7794" y2="360.5529"/>
    <line x1="238.5" x2="238.5" y1="361.2746" y2="355.5011"/>
    <line x1="234.75" x2="234.75" y1="353.336" y2="359.1095"/>
    <line x1="233.5" x2="233.5" y1="358.3878" y2="352.6143"/>
    <line x1="223.5" x2="223.5" y1="352.6143" y2="346.8408"/>
    <line x1="222.25" x2="222.25" y1="347.5625" y2="351.8927"/>
    <line x1="221.0" x2="221.0" y1="351.171" y2="348.2842"/>
    <line x1="219.75" x2="219.75" y1="349.0059" y2="350.4493"/>
    <line x1="218.5" x2="218.5" y1="349.7276" y2="343.9541"/>
    <line x1="217.25" x2="217.25" y1="343.2324" y2="349.0059"/>
    <line x1="216.0" x2="216.0" y1="348.2842" y2="342.5107"/>
    <line x1="214.75" x2="214.75" y1="341.789" y2="347.5625"/>
    <line x1="213.5" x2="213.5" y1="346.8408" y2="341.0673"/>
    <line x1="208.5" x2="208.5" y1="338.1806" y2="343.9541"/>
    <line x1="207.25" x2="207.25" y1="343.2324" y2="337.4589"/>
    <line x1="206.0" x2="206.0" y1="336.7372" y2="342.5107"/>
    <line x1="204.75" x2="204.75" y1="341.789" y2="336.0155"/>
    <line x1="203.5" x2="203.5" y1="335.2938" y2="341.0673"/>
    <line x1="213.5" x2="213.5" y1="329.5203" y2="312.1998"/>
    <line x1="214.75" x2="214.75" y1="312.9215" y2="330.242"/>
    <line x1="216.0" x2="216.0" y1="330.9637" y2="313.6432"/>
    <line x1="217.25" x2="217.25" y1="314.3649" y2="331.6854"/>
    <line x1="219.75" x2="219.75" y1="333.1288" y2="327.3553"/>
    <polyline points="218.5,326.6336 218.5,332.4071 218.5,315.0866"/>
    <line x1="223.5" x2="223.5" y1="312.1998" y2="306.4263"/>
    <line x1="224.75" x2="224.75" y1="307.148" y2="312.9215"/>
    <line x1="226.0" x2="226.0" y1="313.6432" y2="307.8697"/>
    <line x1="227.25" x2="227.25" y1="308.5914" y2="314.3649"/>
    <line x1="228.5" x2="228.5" y1="315.0866" y2="309.3131"/>
    <line x1="213.5" x2="213.5" y1="317.9733" y2="317.9733"/>
    <line x1="208.5" x2="208.5" y1="320.8601" y2="303.5396"/>
    <line x1="207.25" x2="207.25" y1="302.8179" y2="320.1384"/>
    <line x1="206.0" x2="206.0" y1="319.4167" y2="302.0962"/>
    <line x1="204.75" x2="204.75" y1="301.3745" y2="318.695"/>
    <polygon points="203.5,317.9733 203.5,300.6528"/>
    <line x1="202.25" x2="202.25" y1="317.2516" y2="299.9311"/>
    <line x1="201.0" x2="201.0" y1="299.2094" y2="316.5299"/>
    <line x1="199.75" x2="199.75" y1="315.8083" y2="298.4878"/>
    <polygon points="198.5,297.7661 198.5,315.0866"/>
    <line x1="197.25" x2="197.25" y1="297.0444" y2="314.3649"/>
    <line x1="196.0" x2="196.0" y1="313.6432" y2="296.3227"/>
    <line x1="194.75" x2="194.75" y1="295.601" y2="312.9215"/>
    <line x1="193.5" x2="193.5" y1="312.1998" y2="294.8793"/>
    <line x1="193.5" x2="193.5" y1="306.4263" y2="306.4263"/>
    <line x1="208.5" x2="208.5" y1="309.3131" y2="309.3131"/>
    <line x1="208.5" x2="208.5" y1="315.0866" y2="315.0866"/>
    <line x1="213.5" x2="213.5" y1="323.7468" y2="323.7468"/>
    <line x1="221.0" x2="221.0" y1="328.077" y2="333.8505"/>
    <line x1="222.25" x2="222.25" y1="334.5721" y2="328.7986"/>
    <line x1="223.5" x2="223.5" y1="329.5203" y2="335.2938"/>
    <line x1="228.5" x2="228.5" y1="338.1806" y2="332.4071"/>
    <line x1="229.75" x2="229.75" y1="333.1288" y2="338.9023"/>
    <line x1="231.0" x2="231.0" y1="339.624" y2="333.8505"/>
    <line x1="232.25" x2="232.25" y1="334.5721" y2="340.3456"/>
    <line x1="233.5" x2="233.5" y1="341.0673" y2="335.2938"/>
    <line x1="208.5" x2="208.5" y1="280.4456" y2="274.6721"/>
    <line x1="207.25" x2="207.25" y1="273.9504" y2="279.7239"/>
    <line x1="206.0" x2="206.0" y1="279.0022" y2="273.2287"/>
    <line x1="204.75" x2="204.75" y1="272.507" y2="278.2805"/>
    <line x1="203.5" x2="203.5" y1="277.5588" y2="271.7853"/>
    <line x1="208.5" x2="208.5" y1="268.8985" y2="263.125"/>
    <line x1="209.75" x2="209.75" y1="263.8467" y2="268.1769"/>
    <line x1="211.0" x2="211.0" y1="267.4552" y2="264.5684"/>
    <line x1="212.25" x2="212.25" y1="265.2901" y2="266.7335"/>
    <line x1="213.5" x2="213.5" y1="266.0118" y2="266.0118"/>
    <line x1="163.5" x2="163.5" y1="462.3109" y2="462.3109"/>
    <line x1="773.5" x2="773.5" y1="393.0289" y2="387.2554"/>
    <line x1="774.75" x2="774.75" y1="387.977" y2="393.7505"/>
    <line x1="776.0" x2="776.0" y1="394.4722" y2="388.6987"/>
    <line x1="777.25" x2="777.25" y1="389.4204" y2="395.1939"/>
    <line x1="778.5" x2="778.5" y1="395.9156" y2="390.1421"/>
    <line x1="783.5" x2="783.5" y1="381.4819" y2="375.7083"/>
    <line x1="784.75" x2="784.75" y1="376.43" y2="382.2035"/>
    <line x1="786.0" x2="786.0" y1="382.9252" y2="377.1517"/>
    <line x1="787.25" x2="787.25" y1="377.8734" y2="383.6469"/>
    <line x1="788.5" x2="788.5" y1="384.3686" y2="378.5951"/>
    <line x1="793.5" x2="793.5" y1="358.3878" y2="352.6143"/>
    <line x1="792.25" x2="792.25" y1="351.8927" y2="357.6662"/>
    <line x1="791.0" x2="791.0" y1="356.9445" y2="351.171"/>
    <line x1="789.75" x2="789.75" y1="350.4493" y2="356.2228"/>
    <polygon points="788.5,355.5011 788.5,349.7276"/>
    <line x1="787.25" x2="787.25" y1="354.7794" y2="349.0059"/>
    <line x1="786.0" x2="786.0" y1="348.2842" y2="354.0577"/>
    <line x1="784.75" x2="784.75" y1="353.336" y2="347.5625"/>
    <line x1="782.25" x2="782.25" y1="346.1191" y2="351.8927"/>
    <line x1="781.0" x2="781.0" y1="351.171" y2="345.3975"/>
    <line x1="779.75" x2="779.75" y1="344.6758" y2="350.4493"/>
    <line x1="778.5" x2="778.5" y1="349.7276" y2="343.9541"/>
    <polygon points="783.5,352.6143 783.5,346.8408"/>
    <line x1="783.5" x2="783.5" y1="329.5203" y2="323.7468"/>
    <line x1="782.25" x2="782.25" y1="323.0251" y2="328.7986"/>
    <line x1="781.0" x2="781.0" y1="328.077" y2="322.3034"/>
    <line x1="779.75" x2="779.75" y1="321.5818" y2="327.3553"/>
    <line x1="778.5" x2="778.5" y1="326.6336" y2="320.8601"/>
    <line x1="1008.5" x2="1008.5" y1="326.6336" y2="332.4071"/>
    <line x1="1009.75" x2="1009.75" y1="333.1288" y2="327.3553"/>
    <line x1="1011.0" x2="1011.0" y1="328.077" y2="333.8505"/>
    <line x1="1012.25" x2="1012.25" y1="334.5721" y2="328.7986"/>
    <line x1="1013.5" x2="1013.5" y1="329.5203" y2="341.0673"/>
    <line x1="1014.75" x2="1014.75" y1="341.789" y2="336.0155"/>
    <line x1="1016.0" x2="1016.0" y1="336.7372" y2="342.5107"/>
    <line x1="1017.25" x2="1017.25" y1="343.2324" y2="337.4589"/>
    <line x1="1018.5" x2="1018.5" y1="338.1806" y2="349.7276"/>
    <line x1="1019.75" x2="1019.75" y1="350.4493" y2="344.6758"/>
    <line x1="1021.0" x2="1021.0" y1="345.3975" y2="351.171"/>
    <line x1="1022.25" x2="1022.25" y1="351.8927" y2="346.1191"/>
    <line x1="1023.5" x2="1023.5" y1="346.8408" y2="352.6143"/>
    <line x1="1016.0" x2="1016.0" y1="365.6047" y2="371.3782"/>
    <line x1="1017.25" x2="1017.25" y1="372.0999" y2="366.3264"/>
    <line x1="1014.75" x2="1014.75" y1="364.883" y2="370.6565"/>
    <polyline points="1013.5,369.9348 1013.5,364.1613 1013.5,375.7083"/>
    <line x1="1012.25" x2="1012.25" y1="374.9867" y2="363.4397"/>
    <line x1="1011.0" x2="1011.0" y1="362.718" y2="374.265"/>
    <line x1="1009.75" x2="1009.75" y1="373.5433" y2="361.9963"/>
    <line x1="1008.5" x2="1008.5" y1="361.2746" y2="372.8216"/>
    <line x1="1003.5" x2="1003.5" y1="381.4819" y2="387.2554"/>
    <line x1="1004.75" x2="1004.75" y1="387.977" y2="382.2035"/>
    <line x1="1006.0" x2="1006.0" y1="382.9252" y2="388.6987"/>
    <line x1="1007.25" x2="1007.25" y1="389.4204" y2="383.6469"/>
    <polygon points="1008.5,384.3686 1008.5,390.1421"/>
    <line x1="1009.75" x2="1009.75" y1="385.0903" y2="390.8638"/>
    <line x1="1011.0" x2="1011.0" y1="391.5855" y2="385.812"/>
    <line x1="1012.25" x2="1012.25" y1="386.5337" y2="392.3072"/>
    <polygon points="1013.5,393.0289 1013.5,387.2554"/>
    <line x1="1014.75" x2="1014.75" y1="393.7505" y2="387.977"/>
    <line x1="1016.0" x2="1016.0" y1="388.6987" y2="394.4722"/>
    <line x1="1017.25" x2="1017.25" y1="395.1939" y2="389.4204"/>
    <line x1="1018.5" x2="1018.5" y1="390.1421" y2="395.9156"/>
    <line x1="1013.5" x2="1013.5" y1="410.3494" y2="416.1229"/>
    <line x1="1014.75" x2="1014.75" y1="416.8446" y2="411.0711"/>
    <line x1="1016.0" x2="1016.0" y1="411.7927" y2="417.5662"/>
    <line x1="1017.25" x2="1017.25" y1="418.2879" y2="412.5144"/>
    <line x1="1019.75" x2="1019.75" y1="413.9578" y2="418.2879"/>
    <line x1="1019.75" x2="1019.75" y1="419.7313" y2="425.5048"/>
    <line x1="1021.0" x2="1021.0" y1="426.2265" y2="420.453"/>
    <line x1="1022.25" x2="1022.25" y1="421.1747" y2="426.9482"/>
    <line x1="1023.5" x2="1023.5" y1="427.6699" y2="421.8964"/>
    <line x1="1021.0" x2="1021.0" y1="417.5662" y2="414.6795"/>
    <line x1="1022.25" x2="1022.25" y1="415.4012" y2="416.8446"/>
    <line x1="1023.5" x2="1023.5" y1="416.1229" y2="416.1229"/>
    <polyline points="1018.5,419.0096 1018.5,413.2361 1018.5,424.7831"/>
    <line x1="1013.5" x2="1013.5" y1="433.4434" y2="439.2169"/>
    <line x1="1012.25" x2="1012.25" y1="438.4952" y2="432.7217"/>
    <line x1="1011.0" x2="1011.0" y1="432.0" y2="437.7735"/>
    <line x1="1009.75" x2="1009.75" y1="437.0518" y2="431.2783"/>
    <line x1="1008.5" x2="1008.5" y1="430.5566" y2="436.3301"/>
    <line x1="1008.5" x2="1008.5" y1="453.6506" y2="470.9711"/>
    <line x1="1009.75" x2="1009.75" y1="471.6928" y2="454.3723"/>
    <line x1="1011.0" x2="1011.0" y1="455.094" y2="472.4145"/>
    <line x1="1012.25" x2="1012.25" y1="473.1362" y2="455.8157"/>
    <line x1="1013.5" x2="1013.5" y1="456.5374" y2="473.8579"/>
    <line x1="1013.5" x2="1013.5" y1="468.0844" y2="468.0844"/>
    <line x1="1008.5" x2="1008.5" y1="465.1976" y2="465.1976"/>
    <line x1="1013.5" x2="1013.5" y1="462.3109" y2="462.3109"/>
    <line x1="1008.5" x2="1008.5" y1="459.4241" y2="459.4241"/>
    <line x1="1028.5" x2="1028.5" y1="436.3301" y2="430.5566"/>
    <line x1="1029.75" x2="1029.75" y1="431.2783" y2="437.0518"/>
    <line x1="1031.0" x2="1031.0" y1="437.7735" y2="432.0"/>
    <line x1="1032.25" x2="1032.25" y1="432.7217" y2="438.4952"/>
    <line x1="1033.5" x2="1033.5" y1="439.2169" y2="433.4434"/>
    <line x1="1033.5" x2="1033.5" y1="375.7083" y2="369.9348"/>
    <line x1="1032.25" x2="1032.25" y1="369.2132" y2="374.9867"/>
    <line x1="1031.0" x2="1031.0" y1="374.265" y2="368.4915"/>
    <line x1="1029.75" x2="1029.75" y1="367.7698" y2="373.5433"/>
    <line x1="1028.5" x2="1028.5" y1="372.8216" y2="367.0481"/>
    <line x1="1023.5" x2="1023.5" y1="369.9348" y2="375.7083"/>
    <line x1="1022.25" x2="1022.25" y1="374.9867" y2="369.2132"/>
    <line x1="1021.0" x2="1021.0" y1="368.4915" y2="374.265"/>
    <line x1="1019.75" x2="1019.75" y1="373.5433" y2="367.7698"/>
    <polygon points="1018.5,372.8216 1018.5,367.0481"/>
    <line x1="1013.5" x2="1013.5" y1="491.1784" y2="496.9519"/>
    <line x1="1014.75" x2="1014.75" y1="497.6736" y2="491.9001"/>
    <line x1="1016.0" x2="1016.0" y1="492.6218" y2="498.3953"/>
    <line x1="1017.25" x2="1017.25" y1="499.117" y2="493.3435"/>
    <line x1="1018.5" x2="1018.5" y1="494.0652" y2="499.8387"/>
    <line x1="1008.5" x2="1008.5" y1="499.8387" y2="494.0652"/>
    <line x1="1007.25" x2="1007.25" y1="493.3435" y2="499.117"/>
    <line x1="1006.0" x2="1006.0" y1="498.3953" y2="492.6218"/>
    <line x1="1004.75" x2="1004.75" y1="491.9001" y2="497.6736"/>
    <line x1="1003.5" x2="1003.5" y1="496.9519" y2="491.1784"/>
    <line x1="1003.5" x2="1003.5" y1="502.7254" y2="508.4989"/>
    <line x1="1004.75" x2="1004.75" y1="509.2206" y2="503.4471"/>
    <line x1="1006.0" x2="1006.0" y1="504.1688" y2="509.9423"/>
    <line x1="1007.25" x2="1007.25" y1="510.664" y2="504.8905"/>
    <polygon points="1008.5,505.6122 1008.5,511.3857"/>
    <line x1="1009.75" x2="1009.75" y1="506.3338" y2="510.664"/>
    <line x1="1011.0" x2="1011.0" y1="509.9423" y2="507.0555"/>
    <line x1="1012.25" x2="1012.25" y1="507.7772" y2="509.2206"/>
    <line x1="1013.5" x2="1013.5" y1="508.4989" y2="508.4989"/>
    <line x1="1008.5" x2="1008.5" y1="517.1592" y2="522.9327"/>
    <line x1="1007.25" x2="1007.25" y1="522.211" y2="516.4375"/>
    <line x1="1006.0" x2="1006.0" y1="515.7158" y2="521.4893"/>
    <line x1="1004.75" x2="1004.75" y1="520.7676" y2="514.9941"/>
    <line x1="1003.5" x2="1003.5" y1="514.2724" y2="520.0459"/>
    <line x1="1003.5" x2="1003.5" y1="525.8194" y2="531.5929"/>
    <line x1="1004.75" x2="1004.75" y1="532.3146" y2="526.5411"/>
    <line x1="1006.0" x2="1006.0" y1="527.2628" y2="533.0363"/>
    <line x1="1007.25" x2="1007.25" y1="533.758" y2="527.9845"/>
    <line x1="1008.5" x2="1008.5" y1="528.7062" y2="540.2532"/>
    <line x1="1009.75" x2="1009.75" y1="540.9749" y2="533.758"/>
    <line x1="1011.0" x2="1011.0" y1="533.0363" y2="541.6966"/>
    <line x1="1012.25" x2="1012.25" y1="542.4182" y2="532.3146"/>
    <line x1="1013.5" x2="1013.5" y1="531.5929" y2="543.1399"/>
    <line x1="1013.5" x2="1013.5" y1="537.3664" y2="537.3664"/>
    <line x1="1013.5" x2="1013.5" y1="548.9134" y2="566.2339"/>
    <line x1="1014.75" x2="1014.75" y1="566.9556" y2="549.6351"/>
    <line x1="1016.0" x2="1016.0" y1="550.3568" y2="567.6773"/>
    <line x1="1017.25" x2="1017.25" y1="568.399" y2="551.0785"/>
    <line x1="1018.5" x2="1018.5" y1="551.8002" y2="569.1207"/>
    <line x1="1018.5" x2="1018.5" y1="563.3472" y2="563.3472"/>
    <line x1="993.5" x2="993.5" y1="560.4604" y2="577.7809"/>
    <line x1="992.25" x2="992.25" y1="577.0593" y2="559.7387"/>
    <line x1="991.0" x2="991.0" y1="559.0171" y2="576.3376"/>
    <line x1="989.75" x2="989.75" y1="575.6159" y2="558.2954"/>
    <line x1="988.5" x2="988.5" y1="557.5737" y2="574.8942"/>
    <line x1="988.5" x2="988.5" y1="563.3472" y2="563.3472"/>
    <line x1="993.5" x2="993.5" y1="543.1399" y2="537.3664"/>
    <line x1="992.25" x2="992.25" y1="536.6447" y2="542.4182"/>
    <line x1="991.0" x2="991.0" y1="541.6966" y2="535.923"/>
    <line x1="989.75" x2="989.75" y1="535.2014" y2="540.9749"/>
    <line x1="988.5" x2="988.5" y1="540.2532" y2="534.4797"/>
    <line x1="998.5" x2="998.5" y1="511.3857" y2="505.6122"/>
    <line x1="997.25" x2="997.25" y1="504.8905" y2="510.664"/>
    <line x1="996.0" x2="996.0" y1="509.9423" y2="504.1688"/>
    <line x1="994.75" x2="994.75" y1="503.4471" y2="509.2206"/>
    <line x1="993.5" x2="993.5" y1="508.4989" y2="502.7254"/>
    <line x1="953.5" x2="953.5" y1="548.9134" y2="554.6869"/>
    <line x1="952.25" x2="952.25" y1="553.9652" y2="548.1917"/>
    <line x1="951.0" x2="951.0" y1="547.4701" y2="553.2436"/>
    <line x1="949.75" x2="949.75" y1="552.5219" y2="546.7484"/>
    <line x1="948.5" x2="948.5" y1="546.0267" y2="551.8002"/>
    <line x1="946.0" x2="946.0" y1="556.1303" y2="561.9038"/>
    <line x1="944.75" x2="944.75" y1="561.1821" y2="555.4086"/>
    <line x1="943.5" x2="943.5" y1="554.6869" y2="560.4604"/>
    <line x1="942.25" x2="942.25" y1="561.1821" y2="559.7387"/>
    <line x1="941.0" x2="941.0" y1="559.0171" y2="561.9038"/>
    <line x1="939.75" x2="939.75" y1="562.6255" y2="558.2954"/>
    <polyline points="938.5,557.5737 938.5,580.6677 938.5,551.8002"/>
    <line x1="937.25" x2="937.25" y1="551.0785" y2="579.946"/>
    <line x1="936.0" x2="936.0" y1="579.2243" y2="550.3568"/>
    <line x1="934.75" x2="934.75" y1="549.6351" y2="578.5026"/>
    <line x1="932.25" x2="932.25" y1="578.5026" y2="572.7291"/>
    <line x1="931.0" x2="931.0" y1="573.4508" y2="579.2243"/>
    <line x1="929.75" x2="929.75" y1="579.946" y2="574.1725"/>
    <line x1="927.25" x2="927.25" y1="574.1725" y2="556.852"/>
    <line x1="928.5" x2="928.5" y1="557.5737" y2="580.6677"/>
    <line x1="926.0" x2="926.0" y1="584.9978" y2="596.5448"/>
    <line x1="927.25" x2="927.25" y1="597.2665" y2="585.7195"/>
    <polyline points="928.5,586.4412 928.5,597.9882 928.5,592.2147"/>
    <line x1="929.75" x2="929.75" y1="592.9364" y2="598.7099"/>
    <line x1="931.0" x2="931.0" y1="599.4316" y2="593.6581"/>
    <line x1="932.25" x2="932.25" y1="594.3798" y2="600.1533"/>
    <line x1="933.5" x2="933.5" y1="600.875" y2="595.1015"/>
    <line x1="936.0" x2="936.0" y1="590.7713" y2="587.8846"/>
    <line x1="934.75" x2="934.75" y1="588.6063" y2="590.0496"/>
    <line x1="933.5" x2="933.5" y1="589.3279" y2="589.3279"/>
    <line x1="937.25" x2="937.25" y1="591.493" y2="587.1629"/>
    <line x1="939.75" x2="939.75" y1="587.1629" y2="604.4834"/>
    <line x1="941.0" x2="941.0" y1="605.2051" y2="587.8846"/>
    <line x1="942.25" x2="942.25" y1="588.6063" y2="605.9268"/>
    <line x1="944.75" x2="944.75" y1="607.3701" y2="590.0496"/>
    <polygon points="943.5,589.3279 943.5,606.6485"/>
    <line x1="946.0" x2="946.0" y1="590.7713" y2="608.0918"/>
    <line x1="947.25" x2="947.25" y1="608.8135" y2="591.493"/>
    <line x1="948.5" x2="948.5" y1="592.2147" y2="609.5352"/>
    <line x1="946.0" x2="946.0" y1="613.8653" y2="619.6388"/>
    <line x1="944.75" x2="944.75" y1="618.9171" y2="613.1436"/>
    <line x1="943.5" x2="943.5" y1="612.422" y2="618.1955"/>
    <line x1="947.25" x2="947.25" y1="620.3605" y2="614.587"/>
    <line x1="948.5" x2="948.5" y1="615.3087" y2="621.0822"/>
    <line x1="953.5" x2="953.5" y1="623.969" y2="629.7425"/>
    <line x1="954.75" x2="954.75" y1="630.4642" y2="624.6907"/>
    <line x1="956.0" x2="956.0" y1="625.4123" y2="631.1858"/>
    <line x1="957.25" x2="957.25" y1="631.9075" y2="626.134"/>
    <polygon points="958.5,626.8557 958.5,632.6292"/>
    <line x1="959.75" x2="959.75" y1="627.5774" y2="633.3509"/>
    <line x1="961.0" x2="961.0" y1="634.0726" y2="628.2991"/>
    <line x1="962.25" x2="962.25" y1="629.0208" y2="634.7943"/>
    <line x1="963.5" x2="963.5" y1="635.516" y2="629.7425"/>
    <line x1="966.0" x2="966.0" y1="625.4123" y2="619.6388"/>
    <line x1="967.25" x2="967.25" y1="620.3605" y2="626.134"/>
    <line x1="968.5" x2="968.5" y1="626.8557" y2="621.0822"/>
    <line x1="964.75" x2="964.75" y1="618.9171" y2="624.6907"/>
    <line x1="962.25" x2="962.25" y1="623.2473" y2="617.4738"/>
    <polygon points="963.5,618.1955 963.5,623.969"/>
    <line x1="961.0" x2="961.0" y1="616.7521" y2="622.5256"/>
    <line x1="959.75" x2="959.75" y1="621.8039" y2="616.0304"/>
    <line x1="958.5" x2="958.5" y1="615.3087" y2="621.0822"/>
    <line x1="968.5" x2="968.5" y1="615.3087" y2="609.5352"/>
    <line x1="969.75" x2="969.75" y1="610.2569" y2="616.0304"/>
    <line x1="971.0" x2="971.0" y1="616.7521" y2="610.9786"/>
    <line x1="972.25" x2="972.25" y1="611.7003" y2="617.4738"/>
    <line x1="973.5" x2="973.5" y1="618.1955" y2="612.422"/>
    <line x1="976.0" x2="976.0" y1="608.0918" y2="602.3183"/>
    <line x1="977.25" x2="977.25" y1="603.04" y2="608.8135"/>
    <line x1="978.5" x2="978.5" y1="609.5352" y2="603.7617"/>
    <line x1="974.75" x2="974.75" y1="601.5966" y2="607.3701"/>
    <line x1="973.5" x2="973.5" y1="606.6485" y2="600.875"/>
    <line x1="968.5" x2="968.5" y1="603.7617" y2="586.4412"/>
    <line x1="967.25" x2="967.25" y1="585.7195" y2="603.04"/>
    <line x1="966.0" x2="966.0" y1="602.3183" y2="584.9978"/>
    <line x1="964.75" x2="964.75" y1="584.2761" y2="601.5966"/>
    <line x1="963.5" x2="963.5" y1="600.875" y2="583.5544"/>
    <line x1="968.5" x2="968.5" y1="592.2147" y2="592.2147"/>
    <line x1="948.5" x2="948.5" y1="597.9882" y2="597.9882"/>
    <polyline points="938.5,597.9882 938.5,603.7617 938.5,586.4412 938.5,592.2147"/>
    <line x1="937.25" x2="937.25" y1="598.7099" y2="603.04"/>
    <line x1="936.0" x2="936.0" y1="602.3183" y2="599.4316"/>
    <line x1="934.75" x2="934.75" y1="600.1533" y2="601.5966"/>
    <line x1="929.75" x2="929.75" y1="610.2569" y2="616.0304"/>
    <line x1="931.0" x2="931.0" y1="616.7521" y2="610.9786"/>
    <line x1="932.25" x2="932.25" y1="611.7003" y2="617.4738"/>
    <line x1="934.75" x2="934.75" y1="618.9171" y2="624.6907"/>
    <line x1="933.5" x2="933.5" y1="623.969" y2="612.422"/>
    <line x1="928.5" x2="928.5" y1="615.3087" y2="609.5352"/>
    <line x1="923.5" x2="923.5" y1="606.6485" y2="600.875"/>
    <line x1="922.25" x2="922.25" y1="600.1533" y2="605.9268"/>
    <line x1="921.0" x2="921.0" y1="605.2051" y2="599.4316"/>
    <line x1="919.75" x2="919.75" y1="598.7099" y2="604.4834"/>
    <line x1="918.5" x2="918.5" y1="603.7617" y2="603.7617"/>
    <line x1="917.25" x2="917.25" y1="603.04" y2="608.8135"/>
    <line x1="916.0" x2="916.0" y1="608.0918" y2="602.3183"/>
    <line x1="914.75" x2="914.75" y1="601.5966" y2="607.3701"/>
    <line x1="912.25" x2="912.25" y1="605.9268" y2="588.6063"/>
    <polyline points="913.5,589.3279 913.5,606.6485 913.5,600.875"/>
    <line x1="911.0" x2="911.0" y1="605.2051" y2="587.8846"/>
    <line x1="909.75" x2="909.75" y1="587.1629" y2="604.4834"/>
    <line x1="908.5" x2="908.5" y1="603.7617" y2="586.4412"/>
    <line x1="918.5" x2="918.5" y1="586.4412" y2="592.2147"/>
    <line x1="919.75" x2="919.75" y1="592.9364" y2="587.1629"/>
    <line x1="921.0" x2="921.0" y1="587.8846" y2="593.6581"/>
    <line x1="922.25" x2="922.25" y1="594.3798" y2="588.6063"/>
    <polyline points="923.5,589.3279 923.5,595.1015 923.5,577.7809"/>
    <line x1="922.25" x2="922.25" y1="577.0593" y2="582.8328"/>
    <line x1="921.0" x2="921.0" y1="582.1111" y2="576.3376"/>
    <line x1="919.75" x2="919.75" y1="575.6159" y2="581.3894"/>
    <line x1="918.5" x2="918.5" y1="580.6677" y2="574.8942"/>
    <line x1="921.0" x2="921.0" y1="570.5641" y2="553.2436"/>
    <line x1="922.25" x2="922.25" y1="553.9652" y2="571.2858"/>
    <line x1="919.75" x2="919.75" y1="569.8424" y2="552.5219"/>
    <line x1="917.25" x2="917.25" y1="551.0785" y2="568.399"/>
    <polygon points="918.5,569.1207 918.5,551.8002"/>
    <line x1="916.0" x2="916.0" y1="567.6773" y2="550.3568"/>
    <line x1="914.75" x2="914.75" y1="549.6351" y2="566.9556"/>
    <line x1="913.5" x2="913.5" y1="566.2339" y2="548.9134"/>
    <line x1="913.5" x2="913.5" y1="554.6869" y2="554.6869"/>
    <polygon points="923.5,554.6869 923.5,572.0074"/>
    <line x1="924.75" x2="924.75" y1="555.4086" y2="572.7291"/>
    <line x1="926.0" x2="926.0" y1="573.4508" y2="556.1303"/>
    <line x1="929.75" x2="929.75" y1="562.6255" y2="569.8424"/>
    <line x1="931.0" x2="931.0" y1="570.5641" y2="561.9038"/>
    <line x1="932.25" x2="932.25" y1="561.1821" y2="571.2858"/>
    <line x1="928.5" x2="928.5" y1="569.1207" y2="563.3472"/>
    <polyline points="933.5,560.4604 933.5,577.7809 933.5,548.9134"/>
    <line x1="936.0" x2="936.0" y1="544.5833" y2="538.8098"/>
    <line x1="937.25" x2="937.25" y1="539.5315" y2="545.305"/>
    <line x1="938.5" x2="938.5" y1="546.0267" y2="540.2532"/>
    <line x1="934.75" x2="934.75" y1="538.0881" y2="543.8616"/>
    <line x1="933.5" x2="933.5" y1="543.1399" y2="525.8194"/>
    <line x1="932.25" x2="932.25" y1="525.0977" y2="530.8712"/>
    <line x1="931.0" x2="931.0" y1="530.1495" y2="524.376"/>
    <line x1="929.75" x2="929.75" y1="523.6544" y2="529.4279"/>
    <polygon points="928.5,528.7062 928.5,522.9327"/>
    <line x1="927.25" x2="927.25" y1="527.9845" y2="522.211"/>
    <line x1="926.0" x2="926.0" y1="521.4893" y2="527.2628"/>
    <line x1="924.75" x2="924.75" y1="526.5411" y2="520.7676"/>
    <line x1="922.25" x2="922.25" y1="519.3242" y2="525.0977"/>
    <polygon points="923.5,525.8194 923.5,520.0459"/>
    <line x1="921.0" x2="921.0" y1="524.376" y2="518.6025"/>
    <line x1="919.75" x2="919.75" y1="517.8809" y2="523.6544"/>
    <line x1="918.5" x2="918.5" y1="522.9327" y2="517.1592"/>
    <line x1="934.75" x2="934.75" y1="532.3146" y2="536.6447"/>
    <line x1="936.0" x2="936.0" y1="535.923" y2="533.0363"/>
    <line x1="937.25" x2="937.25" y1="533.758" y2="535.2014"/>
    <line x1="938.5" x2="938.5" y1="534.4797" y2="534.4797"/>
    <line x1="947.25" x2="947.25" y1="556.852" y2="562.6255"/>
    <line x1="948.5" x2="948.5" y1="563.3472" y2="557.5737"/>
    <line x1="943.5" x2="943.5" y1="566.2339" y2="577.7809"/>
    <line x1="942.25" x2="942.25" y1="578.5026" y2="565.5122"/>
    <line x1="941.0" x2="941.0" y1="564.7906" y2="579.2243"/>
    <line x1="939.75" x2="939.75" y1="579.946" y2="564.0689"/>
    <line x1="924.75" x2="924.75" y1="584.2761" y2="595.8231"/>
    <line x1="918.5" x2="918.5" y1="597.9882" y2="609.5352"/>
    <line x1="916.0" x2="916.0" y1="613.8653" y2="619.6388"/>
    <line x1="914.75" x2="914.75" y1="618.9171" y2="613.1436"/>
    <line x1="913.5" x2="913.5" y1="612.422" y2="618.1955"/>
    <line x1="917.25" x2="917.25" y1="620.3605" y2="614.587"/>
    <line x1="919.75" x2="919.75" y1="616.0304" y2="621.8039"/>
    <polygon points="918.5,621.0822 918.5,615.3087"/>
    <line x1="921.0" x2="921.0" y1="622.5256" y2="616.7521"/>
    <line x1="922.25" x2="922.25" y1="617.4738" y2="623.2473"/>
    <polygon points="923.5,623.969 923.5,618.1955"/>
    <line x1="924.75" x2="924.75" y1="624.6907" y2="618.9171"/>
    <line x1="926.0" x2="926.0" y1="619.6388" y2="625.4123"/>
    <line x1="927.25" x2="927.25" y1="626.134" y2="620.3605"/>
    <line x1="928.5" x2="928.5" y1="621.0822" y2="632.6292"/>
    <line x1="929.75" x2="929.75" y1="633.3509" y2="627.5774"/>
    <line x1="931.0" x2="931.0" y1="628.2991" y2="634.0726"/>
    <line x1="932.25" x2="932.25" y1="634.7943" y2="629.0208"/>
    <line x1="933.5" x2="933.5" y1="629.7425" y2="635.516"/>
    <line x1="938.5" x2="938.5" y1="632.6292" y2="621.0822"/>
    <line x1="937.25" x2="937.25" y1="620.3605" y2="626.134"/>
    <line x1="936.0" x2="936.0" y1="625.4123" y2="619.6388"/>
    <line x1="939.75" x2="939.75" y1="627.5774" y2="633.3509"/>
    <line x1="941.0" x2="941.0" y1="634.0726" y2="628.2991"/>
    <line x1="942.25" x2="942.25" y1="629.0208" y2="634.7943"/>
    <line x1="944.75" x2="944.75" y1="636.2377" y2="642.0112"/>
    <line x1="943.5" x2="943.5" y1="641.2895" y2="629.7425"/>
    <line x1="948.5" x2="948.5" y1="632.6292" y2="661.4967"/>
    <line x1="949.75" x2="949.75" y1="660.775" y2="644.8979"/>
    <line x1="951.0" x2="951.0" y1="645.6196" y2="660.0534"/>
    <line x1="952.25" x2="952.25" y1="659.3317" y2="646.3413"/>
    <line x1="953.5" x2="953.5" y1="647.063" y2="658.61"/>
    <line x1="948.5" x2="948.5" y1="655.7232" y2="655.7232"/>
    <line x1="953.5" x2="953.5" y1="652.8365" y2="652.8365"/>
    <line x1="958.5" x2="958.5" y1="655.7232" y2="638.4027"/>
    <line x1="957.25" x2="957.25" y1="637.681" y2="643.4545"/>
    <line x1="956.0" x2="956.0" y1="642.7328" y2="636.9593"/>
    <line x1="954.75" x2="954.75" y1="636.2377" y2="642.0112"/>
    <line x1="952.25" x2="952.25" y1="640.5678" y2="634.7943"/>
    <polygon points="953.5,635.516 953.5,641.2895"/>
    <line x1="951.0" x2="951.0" y1="634.0726" y2="639.8461"/>
    <line x1="949.75" x2="949.75" y1="639.1244" y2="633.3509"/>
    <line x1="947.25" x2="947.25" y1="637.681" y2="643.4545"/>
    <line x1="946.0" x2="946.0" y1="642.7328" y2="636.9593"/>
    <line x1="941.0" x2="941.0" y1="645.6196" y2="651.3931"/>
    <line x1="939.75" x2="939.75" y1="650.6714" y2="644.8979"/>
    <line x1="938.5" x2="938.5" y1="644.1762" y2="649.9497"/>
    <line x1="942.25" x2="942.25" y1="652.1148" y2="646.3413"/>
    <line x1="943.5" x2="943.5" y1="647.063" y2="652.8365"/>
    <line x1="938.5" x2="938.5" y1="655.7232" y2="661.4967"/>
    <line x1="937.25" x2="937.25" y1="660.775" y2="655.0015"/>
    <line x1="936.0" x2="936.0" y1="654.2799" y2="660.0534"/>
    <line x1="934.75" x2="934.75" y1="659.3317" y2="653.5582"/>
    <line x1="933.5" x2="933.5" y1="652.8365" y2="658.61"/>
    <line x1="958.5" x2="958.5" y1="649.9497" y2="649.9497"/>
    <line x1="961.0" x2="961.0" y1="654.2799" y2="645.6196"/>
    <line x1="962.25" x2="962.25" y1="646.3413" y2="653.5582"/>
    <line x1="963.5" x2="963.5" y1="652.8365" y2="647.063"/>
    <line x1="959.75" x2="959.75" y1="644.8979" y2="655.0015"/>
    <line x1="969.75" x2="969.75" y1="639.1244" y2="633.3509"/>
    <line x1="971.0" x2="971.0" y1="634.0726" y2="639.8461"/>
    <line x1="972.25" x2="972.25" y1="640.5678" y2="634.7943"/>
    <polygon points="973.5,635.516 973.5,641.2895"/>
    <line x1="974.75" x2="974.75" y1="636.2377" y2="642.0112"/>
    <line x1="976.0" x2="976.0" y1="642.7328" y2="636.9593"/>
    <line x1="977.25" x2="977.25" y1="637.681" y2="643.4545"/>
    <polygon points="978.5,644.1762 978.5,638.4027"/>
    <line x1="979.75" x2="979.75" y1="643.4545" y2="639.1244"/>
    <line x1="981.0" x2="981.0" y1="639.8461" y2="642.7328"/>
    <line x1="982.25" x2="982.25" y1="642.0112" y2="640.5678"/>
    <line x1="983.5" x2="983.5" y1="641.2895" y2="641.2895"/>
    <polygon points="968.5,638.4027 968.5,632.6292"/>
    <line x1="967.25" x2="967.25" y1="637.681" y2="633.3509"/>
    <line x1="966.0" x2="966.0" y1="634.0726" y2="636.9593"/>
    <line x1="964.75" x2="964.75" y1="636.2377" y2="634.7943"/>
    <line x1="913.5" x2="913.5" y1="595.1015" y2="595.1015"/>
    <line x1="908.5" x2="908.5" y1="597.9882" y2="597.9882"/>
    <line x1="888.5" x2="888.5" y1="655.7232" y2="661.4967"/>
    <line x1="889.75" x2="889.75" y1="662.2184" y2="656.4449"/>
    <line x1="891.0" x2="891.0" y1="657.1666" y2="662.9401"/>
    <line x1="892.25" x2="892.25" y1="663.6618" y2="657.8883"/>
    <line x1="893.5" x2="893.5" y1="658.61" y2="664.3835"/>
    <line x1="893.5" x2="893.5" y1="681.704" y2="687.4775"/>
    <line x1="894.75" x2="894.75" y1="688.1992" y2="682.4257"/>
    <line x1="896.0" x2="896.0" y1="683.1474" y2="688.9209"/>
    <line x1="897.25" x2="897.25" y1="689.6426" y2="683.8691"/>
    <line x1="898.5" x2="898.5" y1="684.5907" y2="690.3642"/>
    <line x1="888.5" x2="888.5" y1="696.1377" y2="696.1377"/>
    <line x1="887.25" x2="887.25" y1="696.8594" y2="695.4161"/>
    <line x1="886.0" x2="886.0" y1="694.6944" y2="697.5811"/>
    <line x1="884.75" x2="884.75" y1="698.3028" y2="693.9727"/>
    <line x1="883.5" x2="883.5" y1="693.251" y2="699.0245"/>
  </g>
</svg>
