<!-- lissajous_from_p5-100.svg -->
<!-- Generated using p5.plotSvg v.0.1.5: -->
<!-- A Plotter-Oriented SVG Exporter for p5.js -->
<!-- Wed Aug 20 2025 23:57:05 GMT-0400 (Eastern Daylight Time) -->
<!-- DPI: 96 -->
<svg xmlns="http://www.w3.org/2000/svg" version="1.1" width="11in" height="8.5in" viewBox="0 0 1056 816">
  <style>
      circle, ellipse, line, path, polygon, polyline, rect, quad, text {
        fill: none;
        stroke: black;
        stroke-width: 1;
        stroke-linecap: round;
        stroke-linejoin: round;
        vector-effect: non-scaling-stroke;
      }
    </style>
<g vector-effect="non-scaling-stroke">
  <polygon points="528,672 561.0880,667.3238 593.6541,653.4610 625.1849,630.9026 655.1830,600.4477 683.1753,563.1753 708.7204,520.4057 731.4155,473.6541 750.9026,424.5767 766.8743,374.9120 779.0789,326.4195 787.3238,280.8170 791.4791,239.7201 791.4791,204.5845 787.3238,176.6550 779.0789,156.9211 766.8743,146.0817 750.9026,144.5209 731.4155,152.2940 708.7204,169.1257 683.1753,194.4195 655.1830,227.2796 625.1849,266.5417 593.6541,310.8151 561.0880,358.5313 528,408.0000 494.9120,457.4687 462.3459,505.1849 430.8151,549.4583 400.8170,588.7204 372.8247,621.5805 347.2796,646.8743 324.5845,663.7060 305.0974,671.4791 289.1257,669.9183 276.9211,659.0789 268.6762,639.3450 264.5209,611.4155 264.5209,576.2799 268.6762,535.1830 276.9211,489.5805 289.1257,441.0880 305.0974,391.4233 324.5845,342.3459 347.2796,295.5943 372.8247,252.8247 400.8170,215.5523 430.8151,185.0974 462.3459,162.5390 494.9120,148.6762 528.0000,144 561.0880,148.6762 593.6541,162.5390 625.1849,185.0974 655.1830,215.5523 683.1753,252.8247 708.7204,295.5943 731.4155,342.3459 750.9026,391.4233 766.8743,441.0880 779.0789,489.5805 787.3238,535.1830 791.4791,576.2799 791.4791,611.4155 787.3238,639.3450 779.0789,659.0789 766.8743,669.9183 750.9026,671.4791 731.4155,663.7060 708.7204,646.8743 683.1753,621.5805 655.1830,588.7204 625.1849,549.4583 593.6541,505.1849 561.0880,457.4687 528.0000,408.0000 494.9120,358.5313 462.3459,310.8151 430.8151,266.5417 400.8170,227.2796 372.8247,194.4195 347.2796,169.1257 324.5845,152.2940 305.0974,144.5209 289.1257,146.0817 276.9211,156.9211 268.6762,176.6550 264.5209,204.5845 264.5209,239.7201 268.6762,280.8170 276.9211,326.4195 289.1257,374.9120 305.0974,424.5767 324.5845,473.6541 347.2796,520.4057 372.8247,563.1753 400.8170,600.4477 430.8151,630.9026 462.3459,653.4610 494.9120,667.3238"/>
</g>
</svg>