<!-- lissajous_from_p5-100.svg -->
<!-- Generated using p5.plotSvg v.0.1.5: -->
<!-- A Plotter-Oriented SVG Exporter for p5.js -->
<!-- Wed Aug 20 2025 22:57:15 GMT-0400 (Eastern Daylight Time) -->
<!-- DPI: 96 -->
<svg xmlns="http://www.w3.org/2000/svg" version="1.1" width="17in" height="11in" viewBox="0 0 1632 1056">
  <style>
      circle, ellipse, line, path, polygon, polyline, rect, quad, text {
        fill: none;
        stroke: black;
        stroke-width: 1;
        stroke-linecap: round;
        stroke-linejoin: round;
        vector-effect: non-scaling-stroke;
      }
    </style>
<g vector-effect="non-scaling-stroke">
  <polygon points="816,936 867.1360,928.7732 917.4655,907.3488 966.1948,872.4858 1012.5555,825.4192 1055.8164,767.8164 1095.2952,701.7180 1130.3694,629.4655 1160.4858,553.6185 1185.1694,476.8640 1204.0311,401.9211 1216.7732,331.4445 1223.1949,267.9310 1223.1949,213.6306 1216.7732,170.4669 1204.0311,139.9689 1185.1694,123.2172 1160.4858,120.8051 1130.3694,132.8181 1095.2952,158.8306 1055.8164,197.9211 1012.5555,248.7048 966.1948,309.3827 917.4655,377.8052 867.1360,451.5484 816,528.0000 764.8640,604.4516 714.5345,678.1948 665.8052,746.6173 619.4445,807.2952 576.1836,858.0789 536.7048,897.1694 501.6306,923.1819 471.5142,935.1949 446.8306,932.7828 427.9689,916.0311 415.2268,885.5331 408.8051,842.3694 408.8051,788.0690 415.2268,724.5555 427.9689,654.0789 446.8306,579.1360 471.5142,502.3815 501.6306,426.5345 536.7048,354.2820 576.1836,288.1836 619.4445,230.5808 665.8052,183.5142 714.5345,148.6512 764.8640,127.2268 816.0000,120 867.1360,127.2268 917.4655,148.6512 966.1948,183.5142 1012.5555,230.5808 1055.8164,288.1836 1095.2952,354.2820 1130.3694,426.5345 1160.4858,502.3815 1185.1694,579.1360 1204.0311,654.0789 1216.7732,724.5555 1223.1949,788.0690 1223.1949,842.3694 1216.7732,885.5331 1204.0311,916.0311 1185.1694,932.7828 1160.4858,935.1949 1130.3694,923.1819 1095.2952,897.1694 1055.8164,858.0789 1012.5555,807.2952 966.1948,746.6173 917.4655,678.1948 867.1360,604.4516 816.0000,528.0000 764.8640,451.5484 714.5345,377.8052 665.8052,309.3827 619.4445,248.7048 576.1836,197.9211 536.7048,158.8306 501.6306,132.8181 471.5142,120.8051 446.8306,123.2172 427.9689,139.9689 415.2268,170.4669 408.8051,213.6306 408.8051,267.9310 415.2268,331.4445 427.9689,401.9211 446.8306,476.8640 471.5142,553.6185 501.6306,629.4655 536.7048,701.7180 576.1836,767.8164 619.4445,825.4192 665.8052,872.4858 714.5345,907.3488 764.8640,928.7732"/>
</g>
</svg>