<svg version="1.1" xmlns="http://www.w3.org/2000/svg" xmlns:xlink="http://www.w3.org/1999/xlink" width="1056" height="816" viewBox="0 0 1056 816"><defs/><g><path fill="none" stroke="rgb(0,0,0)" paint-order="fill stroke markers" d=" M 528 672 L 561.0879736609763 667.3238341923739 L 593.6541302115216 653.4609922744984 L 625.184881908755 630.902572332532 L 655.1829699628529 600.4477176392527 L 683.1753066052129 563.1753066052129 L 708.7204359651738 520.4057329731793 L 731.4154960928083 473.65413021152165 L 750.9025723325319 424.5766971557387 L 766.8743418510292 374.91202633902367 L 779.0789203019206 326.4195134850139 L 787.3238341923739 280.8170300371472 L 791.4790563050638 239.720066706346 L 791.4790563050638 204.58450390719162 L 787.3238341923739 176.65503646842 L 779.0789203019206 156.92107969807947 L 766.8743418510292 146.08171885297782 L 750.9025723325319 144.5209436949363 L 731.4154960928083 152.2940454620414 L 708.7204359651739 169.1256581489708 L 683.1753066052129 194.41951348501388 L 655.1829699628529 227.2795640348261 L 625.1848819087551 266.54172612554476 L 593.6541302115216 310.81511809124504 L 561.0879736609764 358.53133294936845 L 528 407.99999999999994 L 494.91202633902367 457.46866705063144 L 462.3458697884783 505.1848819087551 L 430.8151180912449 549.4582738744551 L 400.8170300371472 588.7204359651737 L 372.8246933947871 621.5804865149861 L 347.2795640348262 646.8743418510292 L 324.5845039071916 663.7059545379586 L 305.09742766746797 671.4790563050638 L 289.1256581489708 669.9182811470221 L 276.92107969807944 659.0789203019206 L 268.6761658076262 639.3449635315799 L 264.5209436949363 611.4154960928083 L 264.5209436949363 576.2799332936543 L 268.6761658076262 535.1829699628531 L 276.92107969807944 489.5804865149862 L 289.12565814897073 441.0879736609767 L 305.0974276674679 391.42330284426146 L 324.58450390719156 342.34586978847835 L 347.2795640348261 295.59426702682106 L 372.824693394787 252.82469339478715 L 400.81703003714716 215.55228236074728 L 430.8151180912448 185.0974276674681 L 462.3458697884782 162.5390077255018 L 494.91202633902356 148.67616580762626 L 527.9999999999999 144 L 561.0879736609763 148.6761658076262 L 593.6541302115216 162.53900772550173 L 625.1848819087551 185.09742766746803 L 655.1829699628529 215.55228236074748 L 683.175306605213 252.82469339478737 L 708.7204359651739 295.5942670268209 L 731.4154960928082 342.3458697884781 L 750.9025723325319 391.4233028442608 L 766.8743418510292 441.08797366097605 L 779.0789203019206 489.580486514986 L 787.3238341923739 535.1829699628529 L 791.4790563050638 576.2799332936543 L 791.4790563050638 611.4154960928083 L 787.3238341923739 639.3449635315801 L 779.0789203019206 659.0789203019206 L 766.874341851029 669.9182811470222 L 750.9025723325319 671.4790563050638 L 731.4154960928082 663.7059545379585 L 708.7204359651741 646.8743418510295 L 683.175306605213 621.5804865149862 L 655.1829699628531 588.7204359651741 L 625.184881908755 549.4582738744549 L 593.6541302115219 505.184881908755 L 561.0879736609762 457.46866705063115 L 528.0000000000001 408.00000000000017 L 494.91202633902395 358.53133294936913 L 462.34586978847835 310.81511809124527 L 430.8151180912452 266.5417261255453 L 400.8170300371471 227.27956403482608 L 372.8246933947872 194.41951348501397 L 347.2795640348261 169.12565814897062 L 324.58450390719196 152.29404546204157 L 305.09742766746814 144.5209436949363 L 289.125658148971 146.08171885297782 L 276.9210796980795 156.92107969807927 L 268.67616580762626 176.65503646842 L 264.5209436949363 204.5845039071915 L 264.5209436949363 239.7200667063455 L 268.6761658076262 280.8170300371473 L 276.92107969807944 326.4195134850137 L 289.12565814897096 374.9120263390241 L 305.09742766746797 424.57669715573894 L 324.5845039071918 473.6541302115225 L 347.27956403482585 520.4057329731788 L 372.824693394787 563.1753066052131 L 400.8170300371469 600.447717639252 L 430.815118091245 630.9025723325318 L 462.3458697884781 653.4609922744982 L 494.9120263390237 667.3238341923739 L 528 672 L 528 672 Z" stroke-opacity="1" stroke-linecap="round" stroke-miterlimit="10" stroke-dasharray=""/></g></svg>