<?xml version="1.0" encoding="utf-8" ?>
<svg xmlns="http://www.w3.org/2000/svg" xmlns:cc="http://creativecommons.org/ns#" xmlns:dc="http://purl.org/dc/elements/1.1/" xmlns:ev="http://www.w3.org/2001/xml-events" xmlns:inkscape="http://www.inkscape.org/namespaces/inkscape" xmlns:rdf="http://www.w3.org/1999/02/22-rdf-syntax-ns#" xmlns:sodipodi="http://sodipodi.sourceforge.net/DTD/sodipodi-0.dtd" xmlns:xlink="http://www.w3.org/1999/xlink" baseProfile="tiny" height="22.86cm" version="1.2" viewBox="0 0 1152.0 864.0" width="30.48cm">
  <metadata>
    <rdf:RDF>
      <cc:Work>
        <dc:format>image/svg+xml</dc:format>
        <dc:source/>
        <dc:date>2021-10-20T09:28:46.165881</dc:date>
      </cc:Work>
    </rdf:RDF>
  </metadata>
  <defs/>
  <g fill="none" id="layer1" inkscape:groupmode="layer" inkscape:label="1" stroke="#00f" style="display:inline">
    <polyline points="671.4214,447.3224 665.4613,446.7244 662.5558,445.9825 657.0386,443.6499 654.4821,442.0824 652.0949,440.2676 647.7641,436.1209 643.9952,431.4575 640.8493,426.3531 638.3919,420.8847 637.466,418.0319 636.2591,412.1601 635.9322,406.1745 637.2598,394.257 637.5283,385.2663 636.7356,376.3065 634.8435,367.5141 631.8335,359.039 629.2498,353.6255 626.2483,348.432 622.8476,343.4907 619.0687,338.8322 616.9462,336.7151 614.5643,334.8948 611.9642,333.4027 609.1908,332.2647 606.292,331.5004 603.318,331.1229 600.3202,331.139 597.3504,331.5482 588.6763,333.9244 580.3842,337.406 572.6642,342.0171 567.9211,345.6878 559.3969,354.1197 557.0072,355.9296 554.3955,357.4011 551.6094,358.5073 548.6996,359.2281 545.7193,359.5503 542.7227,359.468 536.7822,358.6389 530.9366,357.2947 525.2306,355.4458 517.0651,351.6884 512.248,348.1268 510.118,346.0158 508.2005,343.7101 505.0717,338.6013 503.8893,335.8454 502.1305,330.1127 500.7974,321.2241 500.8348,315.2294 501.2148,312.2545 502.7217,306.4542 503.8377,303.6705 505.1854,300.9912 508.5353,296.0221 510.6182,293.8689 513.0562,292.1278 515.7688,290.8562 518.6667,290.0961 521.6542,289.8725 524.6329,290.1927 527.5046,291.0463 530.2034,292.3508 532.6923,294.0213 534.9221,296.0246 536.8485,298.3211 543.2525,308.4553 547.1034,313.0528 553.2887,319.5852 556.8802,324.388 559.9385,329.5467 563.7575,337.688 565.5203,340.1111 567.6666,342.202 570.1348,343.901 575.6938,346.1265 581.4791,347.7109 590.3503,349.1944 599.3361,349.5882 608.3037,348.8929 617.1219,347.1204 622.7787,345.1387 628.0582,342.3008 632.8318,338.6759 637.1322,334.4936 641.7643,330.6855 646.8115,327.4475 652.2038,324.8242 657.8667,322.852 660.809,322.2859 663.8048,322.2329 666.7653,322.6947 669.6027,323.6575 672.2328,325.0928 676.9711,328.7649 679.1252,330.8519 682.9452,335.4717 684.5905,337.9795 687.3071,343.3232 689.1076,349.0339 689.4244,352.0144 689.3074,355.0095 688.759,357.9563 687.7908,360.793 682.3172,371.4602 679.4072,379.9684 677.8006,388.815 677.5477,397.8029 678.6358,406.729 680.0633,412.5544 682.0357,418.2185 685.9043,426.3394 688.9451,431.5104 692.3292,436.4636 698.0167,443.4336 702.2033,447.7297 706.6859,451.7161 711.4416,455.3724 716.4906,458.6057 719.199,459.8934 722.0157,460.9228 727.8751,462.1728 733.8648,462.3122 739.7682,461.2977 745.3525,459.1305 747.9546,457.64 752.649,453.9194 754.6085,451.6529 756.1424,449.0792 757.2035,446.2772 757.7592,443.333 757.7926,440.3371 757.3025,437.3813 756.3041,434.5564 753.5188,429.2455 750.1617,424.2763 746.2744,419.7099 741.9105,415.5961 737.154,411.943 732.0581,408.7804 726.6732,406.1397 718.2226,403.053 712.7745,400.5485 707.6788,397.3882 700.6525,391.7755 698.0327,390.3201 695.2183,389.2901 692.2779,388.7106 689.2832,388.5957 686.307,388.9482 683.422,389.7596 678.1076,392.5222 673.1152,395.8474 668.401,399.5565 664.288,403.9091 662.6053,406.391 660.0842,411.8229 657.6778,420.4903 656.6205,426.395 656.0081,432.3623 655.4694,447.3468 654.7045,453.2967 653.5314,459.1797 651.8991,464.9502 650.7952,467.739 647.9846,473.0337 644.7532,478.0799 643.7326,480.896 643.2691,483.8553 643.3797,486.8486 644.0603,489.7656 646.2511,495.3488 648.9728,500.6934 652.1997,505.7489 655.9015,510.4679 660.3527,514.4679 665.6551,517.2423 668.5241,518.1126 674.4631,518.8892 680.4363,518.446 686.1957,516.8015 691.5022,514.0238 693.9003,512.2241 697.9736,507.838 700.8975,502.6149 702.5071,496.8495 702.7875,493.8644 702.4229,481.876 702.7584,475.8866 704.0768,466.9892 706.7053,458.3919 710.6875,450.3318 714.0992,445.4014 716.0392,443.1138 720.3461,438.9425 727.5384,433.5452 729.5932,431.3639 731.2711,428.8809 732.5284,426.1606 733.3325,423.2738 733.6626,420.2953 733.5101,417.3024 732.879,414.3729 731.7855,411.5827 728.9328,406.3062 723.859,398.8798 719.9806,394.3041 713.4919,388.0752 708.7985,384.3393 701.2919,379.382 695.9977,376.5634 690.4245,374.3501 681.6765,372.2849 675.7141,371.6244 666.721,371.3917 660.7553,371.9803 654.9403,373.4366 649.4015,375.7293 644.2584,378.8088 639.5916,382.5744 633.2861,388.9876 627.8563,396.1574 624.8067,401.3207 622.4947,406.8516 621.0056,412.6585 620.4443,418.625 620.8974,424.6006 623.2312,433.2812 626.8243,441.5245 631.5493,449.1756 635.2861,453.8669 639.458,458.1758 646.2864,464.0321 648.2935,466.2593 651.436,471.3535 653.272,477.0505 653.6637,480.023 653.3665,486.0011 651.977,491.8338 649.8578,497.4428 647.0432,502.737 643.5788,507.6308 639.524,512.0481 634.9617,515.9393 627.3215,520.6726 621.8059,523.025 616.0537,524.7225 607.2057,526.3391 601.2263,526.8155 592.2334,526.6285 586.2721,525.9587 571.4911,523.4471 562.5049,523.0436 553.527,523.6112 547.5969,524.5163 541.7456,525.8379 536.005,527.5784 527.6736,530.9702 522.3497,533.7343 517.2441,536.8834 512.4417,540.4755 506.011,546.7587 500.5225,553.8866 496.6027,558.4259 492.2513,562.5533 487.4912,566.1997 482.2697,569.1445 479.5118,570.3236 476.6753,571.2984 470.8376,572.6715 461.9222,573.8717 452.93,574.1275 443.9619,573.4241 438.0472,572.4237 429.3498,570.1276 420.9651,566.87 415.7091,563.9878 410.9401,560.356 406.7641,556.0555 401.7097,548.6236 397.9691,540.449 395.6206,531.7714 394.4595,522.8507 394.2074,516.8573 394.3748,510.8608 395.0245,504.8982 396.2152,499.0197 398.9929,490.4664 401.5415,485.0398 403.1398,482.5022 406.9817,477.9039 411.5793,474.0612 419.2206,469.3105 426.4242,463.9225 433.0128,457.7976 436.9099,453.2404 441.6462,445.6022 443.9957,440.0854 445.8567,434.3827 448.393,428.9518 451.7435,423.9818 453.6993,421.708 458.1447,417.6919 463.345,414.7245 469.0758,412.9905 472.0507,412.6158 475.0489,412.5771 480.9681,413.487 486.5833,415.5725 491.6722,418.7321 496.032,422.8397 497.8829,425.1991 502.6428,432.834 508.085,439.9959 512.1606,444.397 516.5926,448.4387 523.8464,453.7558 529.0346,456.7658 534.4681,459.306 545.8449,463.0945 548.5576,464.3711 553.4109,467.8729 557.2612,472.4548 558.7344,475.0659 561.09,480.5816 563.5998,489.2164 564.8361,498.1231 564.9606,504.1202 564.657,510.1113 563.4108,519.0192 560.8297,527.6303 556.8558,535.6939 553.4857,540.6542 551.5682,542.9603 549.4668,545.1002 544.7712,548.8244 539.5269,551.7252 536.7431,552.8412 531.01,554.6049 525.1504,555.8874 516.2094,556.8316 513.2115,556.7417 507.2862,555.8405 501.5825,553.9993 498.8603,552.7403 493.7283,549.6389 486.5673,544.1955 480.0778,537.9668 476.1672,533.4181 474.5039,530.9257 473.2771,528.1918 472.5209,525.2922 472.2562,522.3074 472.4903,519.32 473.2167,516.4129 474.4154,513.6666 479.3099,506.127 480.5985,503.4189 482.4477,497.7189 483.2704,491.7839 483.2612,488.7851 482.3901,482.8578"/>
  </g>
</svg>
